<?xml version="1.0" encoding="UTF-8"?>
<svg xmlns="http://www.w3.org/2000/svg" xmlns:xlink="http://www.w3.org/1999/xlink" width="402pt" height="242pt" viewBox="0 0 402 242">
<defs>
<g>
<g id="glyph-0-0">
<path d="M 7.484375 -7.78125 L 7.484375 -5.8125 L 6.15625 -5.8125 L 6.15625 -7.78125 Z M 3.546875 -5.8125 L 3.546875 0.71875 L 3.65625 0.71875 C 4 0.71875 4.21875 0.546875 4.21875 0.5 L 4.21875 -0.265625 L 9.515625 -0.265625 L 9.515625 0.65625 L 9.625 0.65625 C 9.9375 0.65625 10.203125 0.484375 10.203125 0.4375 L 10.203125 -5.421875 C 10.453125 -5.46875 10.578125 -5.515625 10.65625 -5.609375 L 9.828125 -6.25 L 9.46875 -5.8125 L 8.15625 -5.8125 L 8.15625 -7.78125 L 10.421875 -7.78125 C 10.578125 -7.78125 10.671875 -7.828125 10.703125 -7.953125 C 10.328125 -8.3125 9.6875 -8.796875 9.6875 -8.796875 L 9.109375 -8.09375 L 3.421875 -8.09375 L 3.515625 -7.78125 L 5.46875 -7.78125 L 5.46875 -5.8125 L 4.34375 -5.8125 L 3.546875 -6.15625 Z M 4.21875 -0.59375 L 4.21875 -5.484375 L 5.46875 -5.484375 L 5.46875 -0.59375 Z M 9.515625 -0.59375 L 8.15625 -0.59375 L 8.15625 -5.484375 L 9.515625 -5.484375 Z M 7.484375 -0.59375 L 6.15625 -0.59375 L 6.15625 -5.484375 L 7.484375 -5.484375 Z M 2.609375 -9.265625 C 2.078125 -7.21875 1.140625 -5.140625 0.25 -3.84375 L 0.40625 -3.734375 C 0.859375 -4.171875 1.265625 -4.703125 1.671875 -5.3125 L 1.671875 0.859375 L 1.796875 0.859375 C 2.0625 0.859375 2.34375 0.671875 2.359375 0.625 L 2.359375 -5.953125 C 2.5625 -5.984375 2.671875 -6.046875 2.703125 -6.15625 L 2.265625 -6.3125 C 2.671875 -7.0625 3.046875 -7.859375 3.34375 -8.6875 C 3.578125 -8.671875 3.71875 -8.765625 3.765625 -8.890625 Z M 2.609375 -9.265625 "/>
</g>
<g id="glyph-0-1">
<path d="M 3.765625 -7.328125 L 3.28125 -6.703125 L 2.828125 -6.703125 L 2.828125 -8.890625 C 3.09375 -8.921875 3.1875 -9.03125 3.203125 -9.203125 L 2.125 -9.3125 L 2.125 -6.703125 L 0.421875 -6.703125 L 0.515625 -6.375 L 1.953125 -6.375 C 1.671875 -4.703125 1.15625 -3.046875 0.328125 -1.75 L 0.5 -1.609375 C 1.1875 -2.40625 1.71875 -3.328125 2.125 -4.34375 L 2.125 0.890625 L 2.265625 0.890625 C 2.515625 0.890625 2.828125 0.703125 2.828125 0.609375 L 2.828125 -5.171875 C 3.1875 -4.734375 3.578125 -4.15625 3.6875 -3.6875 C 4.375 -3.1875 4.953125 -4.546875 2.828125 -5.4375 L 2.828125 -6.375 L 4.34375 -6.375 C 4.5 -6.375 4.609375 -6.421875 4.640625 -6.546875 C 4.296875 -6.875 3.765625 -7.328125 3.765625 -7.328125 Z M 7.0625 -8.890625 L 5.96875 -9.265625 C 5.578125 -7.703125 4.84375 -6.234375 4.078125 -5.296875 L 4.234375 -5.1875 C 4.796875 -5.625 5.28125 -6.203125 5.734375 -6.890625 C 6.078125 -6.265625 6.484375 -5.671875 6.984375 -5.15625 C 6.078125 -4.265625 4.90625 -3.515625 3.546875 -2.984375 L 3.65625 -2.8125 C 4.171875 -2.96875 4.640625 -3.140625 5.09375 -3.34375 L 5.09375 0.859375 L 5.203125 0.859375 C 5.5625 0.859375 5.78125 0.703125 5.78125 0.625 L 5.78125 0.09375 L 8.75 0.09375 L 8.75 0.765625 L 8.859375 0.765625 C 9.1875 0.765625 9.453125 0.609375 9.453125 0.546875 L 9.453125 -2.8125 C 9.671875 -2.859375 9.796875 -2.90625 9.875 -3 L 9.078125 -3.625 L 8.703125 -3.1875 L 5.921875 -3.1875 L 5.328125 -3.4375 C 6.109375 -3.8125 6.796875 -4.265625 7.390625 -4.765625 C 8.109375 -4.125 9 -3.59375 10.109375 -3.171875 C 10.171875 -3.5 10.40625 -3.6875 10.703125 -3.765625 L 10.71875 -3.890625 C 9.5625 -4.1875 8.625 -4.625 7.828125 -5.15625 C 8.546875 -5.859375 9.09375 -6.640625 9.515625 -7.5 C 9.78125 -7.515625 9.90625 -7.546875 9.984375 -7.640625 L 9.21875 -8.359375 L 8.734375 -7.921875 L 6.3125 -7.921875 C 6.421875 -8.171875 6.53125 -8.421875 6.640625 -8.6875 C 6.875 -8.6875 7.015625 -8.78125 7.0625 -8.890625 Z M 5.875 -7.140625 L 6.140625 -7.59375 L 8.703125 -7.59375 C 8.375 -6.84375 7.921875 -6.15625 7.34375 -5.515625 C 6.75 -6 6.265625 -6.53125 5.875 -7.140625 Z M 5.78125 -0.234375 L 5.78125 -2.859375 L 8.75 -2.859375 L 8.75 -0.234375 Z M 5.78125 -0.234375 "/>
</g>
<g id="glyph-0-2">
<path d="M 1.046875 -8.953125 L 0.921875 -8.890625 C 1.234375 -8.515625 1.609375 -7.921875 1.640625 -7.4375 C 2.265625 -6.9375 2.875 -8.234375 1.046875 -8.953125 Z M 4.640625 -9.015625 C 4.421875 -8.421875 4.140625 -7.78125 3.921875 -7.40625 L 4.09375 -7.296875 C 4.453125 -7.578125 4.875 -8.015625 5.203125 -8.421875 C 5.421875 -8.40625 5.546875 -8.46875 5.609375 -8.578125 Z M 2.828125 -9.265625 L 2.828125 -7.140625 L 0.515625 -7.140625 L 0.609375 -6.8125 L 2.484375 -6.8125 C 2 -5.921875 1.265625 -5.09375 0.375 -4.453125 L 0.484375 -4.28125 C 1.421875 -4.75 2.21875 -5.34375 2.828125 -6.0625 L 2.828125 -4.546875 L 2.953125 -4.546875 C 3.203125 -4.546875 3.5 -4.703125 3.5 -4.796875 L 3.5 -6.390625 C 4.03125 -6 4.671875 -5.421875 4.90625 -4.9375 C 5.65625 -4.546875 6.015625 -6 3.5 -6.59375 L 3.5 -6.8125 L 5.8125 -6.8125 C 5.96875 -6.8125 6.078125 -6.875 6.109375 -6.984375 C 5.78125 -7.296875 5.25 -7.734375 5.25 -7.734375 L 4.78125 -7.140625 L 3.5 -7.140625 L 3.5 -8.859375 C 3.765625 -8.90625 3.890625 -9 3.921875 -9.15625 Z M 2.5625 -4.484375 C 2.484375 -4.21875 2.328125 -3.84375 2.140625 -3.421875 L 0.40625 -3.421875 L 0.484375 -3.109375 L 2 -3.109375 C 1.671875 -2.375 1.265625 -1.59375 0.984375 -1.15625 C 1.234375 -1.015625 1.53125 -1 1.703125 -1.078125 L 2.03125 -1.65625 C 2.46875 -1.46875 2.859375 -1.265625 3.203125 -1.046875 C 2.625 -0.328125 1.75 0.25 0.53125 0.71875 L 0.609375 0.890625 C 1.96875 0.515625 2.984375 0.015625 3.71875 -0.71875 C 4.109375 -0.4375 4.390625 -0.15625 4.5625 0.0625 C 5.1875 0.328125 5.515625 -0.59375 4.1875 -1.265625 C 4.5625 -1.796875 4.828125 -2.40625 4.984375 -3.109375 L 6 -3.109375 C 6.140625 -3.109375 6.25 -3.15625 6.265625 -3.28125 C 5.921875 -3.609375 5.359375 -4.046875 5.359375 -4.046875 L 4.875 -3.421875 L 2.90625 -3.421875 L 3.171875 -4.03125 C 3.453125 -4.03125 3.578125 -4.125 3.625 -4.265625 Z M 2.75 -3.109375 L 4.140625 -3.109375 C 4.03125 -2.515625 3.828125 -2 3.546875 -1.53125 C 3.15625 -1.671875 2.703125 -1.78125 2.140625 -1.859375 Z M 7.015625 -9.25 C 6.765625 -7.34375 6.1875 -5.453125 5.5 -4.15625 L 5.65625 -4.0625 C 6.03125 -4.484375 6.359375 -4.984375 6.65625 -5.546875 C 6.84375 -4.296875 7.15625 -3.140625 7.625 -2.109375 C 6.90625 -0.984375 5.875 -0.0625 4.34375 0.703125 L 4.4375 0.859375 C 6.015625 0.265625 7.140625 -0.515625 7.9375 -1.5 C 8.453125 -0.5625 9.140625 0.234375 10.046875 0.859375 C 10.15625 0.53125 10.40625 0.359375 10.734375 0.328125 L 10.765625 0.203125 C 9.734375 -0.34375 8.9375 -1.109375 8.328125 -2.03125 C 9.125 -3.234375 9.53125 -4.6875 9.734375 -6.4375 L 10.484375 -6.4375 C 10.640625 -6.4375 10.734375 -6.5 10.78125 -6.609375 C 10.40625 -6.953125 9.8125 -7.421875 9.8125 -7.421875 L 9.296875 -6.765625 L 7.1875 -6.765625 C 7.4375 -7.390625 7.640625 -8.046875 7.796875 -8.734375 C 8.03125 -8.734375 8.15625 -8.84375 8.203125 -8.984375 Z M 7.9375 -2.671875 C 7.421875 -3.65625 7.078125 -4.75 6.84375 -5.9375 L 7.0625 -6.4375 L 8.90625 -6.4375 C 8.78125 -5.015625 8.5 -3.765625 7.9375 -2.671875 Z M 7.9375 -2.671875 "/>
</g>
<g id="glyph-0-3">
<path d="M 0.578125 -5.4375 L 0.671875 -5.109375 L 10.1875 -5.109375 C 10.34375 -5.109375 10.453125 -5.171875 10.46875 -5.28125 C 10.125 -5.609375 9.546875 -6.046875 9.546875 -6.046875 L 9.03125 -5.4375 Z M 7.90625 -7.25 L 7.90625 -6.46875 L 3.09375 -6.46875 L 3.09375 -7.25 Z M 7.90625 -7.59375 L 3.09375 -7.59375 L 3.09375 -8.34375 L 7.90625 -8.34375 Z M 2.375 -8.65625 L 2.375 -5.65625 L 2.484375 -5.65625 C 2.78125 -5.65625 3.09375 -5.828125 3.09375 -5.890625 L 3.09375 -6.15625 L 7.90625 -6.15625 L 7.90625 -5.734375 L 8.015625 -5.734375 C 8.234375 -5.734375 8.609375 -5.890625 8.625 -5.96875 L 8.625 -8.203125 C 8.84375 -8.25 9.015625 -8.34375 9.09375 -8.421875 L 8.203125 -9.109375 L 7.78125 -8.65625 L 3.15625 -8.65625 L 2.375 -9.015625 Z M 8.046875 -2.921875 L 8.046875 -2.078125 L 5.859375 -2.078125 L 5.859375 -2.921875 Z M 8.046875 -3.25 L 5.859375 -3.25 L 5.859375 -4.0625 L 8.046875 -4.0625 Z M 3 -2.921875 L 5.140625 -2.921875 L 5.140625 -2.078125 L 3 -2.078125 Z M 3 -3.25 L 3 -4.0625 L 5.140625 -4.0625 L 5.140625 -3.25 Z M 1.390625 -0.921875 L 1.5 -0.609375 L 5.140625 -0.609375 L 5.140625 0.296875 L 0.5625 0.296875 L 0.65625 0.625 L 10.25 0.625 C 10.40625 0.625 10.515625 0.5625 10.546875 0.4375 C 10.15625 0.09375 9.5625 -0.375 9.5625 -0.375 L 9.03125 0.296875 L 5.859375 0.296875 L 5.859375 -0.609375 L 9.53125 -0.609375 C 9.671875 -0.609375 9.78125 -0.65625 9.8125 -0.78125 C 9.46875 -1.109375 8.921875 -1.53125 8.921875 -1.53125 L 8.421875 -0.921875 L 5.859375 -0.921875 L 5.859375 -1.765625 L 8.046875 -1.765625 L 8.046875 -1.4375 L 8.15625 -1.4375 C 8.390625 -1.4375 8.765625 -1.609375 8.78125 -1.671875 L 8.78125 -3.921875 C 9 -3.953125 9.1875 -4.046875 9.265625 -4.140625 L 8.34375 -4.84375 L 7.9375 -4.390625 L 3.0625 -4.390625 L 2.28125 -4.75 L 2.28125 -1.234375 L 2.390625 -1.234375 C 2.671875 -1.234375 3 -1.40625 3 -1.46875 L 3 -1.765625 L 5.140625 -1.765625 L 5.140625 -0.921875 Z M 1.390625 -0.921875 "/>
</g>
<g id="glyph-0-4">
<path d="M 5.4375 -8.296875 L 8.6875 -8.296875 L 8.6875 -6.8125 L 5.4375 -6.8125 Z M 3.28125 -0.015625 L 3.734375 0.890625 C 3.84375 0.859375 3.921875 0.765625 3.96875 0.625 C 5.5 0.09375 6.671875 -0.40625 7.5625 -0.8125 L 7.515625 -0.984375 C 6.8125 -0.796875 6.09375 -0.625 5.4375 -0.46875 L 5.4375 -4.515625 L 6.609375 -4.515625 C 7.046875 -1.90625 8.125 -0.25 9.984375 0.78125 C 10.109375 0.4375 10.375 0.234375 10.6875 0.1875 L 10.71875 0.09375 C 9.484375 -0.390625 8.484375 -1.171875 7.78125 -2.25 C 8.421875 -2.515625 9.265625 -3 9.921875 -3.5 C 10.140625 -3.421875 10.25 -3.453125 10.34375 -3.546875 L 9.484375 -4.21875 C 8.921875 -3.546875 8.21875 -2.859375 7.640625 -2.4375 C 7.296875 -3.046875 7.015625 -3.734375 6.828125 -4.515625 L 8.6875 -4.515625 L 8.6875 -4.03125 L 8.8125 -4.03125 C 9.046875 -4.03125 9.390625 -4.171875 9.421875 -4.234375 L 9.421875 -8.140625 C 9.640625 -8.1875 9.84375 -8.28125 9.921875 -8.375 L 9 -9.078125 L 8.578125 -8.625 L 5.578125 -8.625 L 4.734375 -8.984375 L 4.734375 -0.3125 C 4.140625 -0.1875 3.625 -0.078125 3.28125 -0.015625 Z M 5.4375 -6.484375 L 8.6875 -6.484375 L 8.6875 -4.828125 L 5.4375 -4.828125 Z M 0.921875 -8.625 L 0.921875 0.859375 L 1.046875 0.859375 C 1.375 0.859375 1.609375 0.65625 1.609375 0.609375 L 1.609375 -8.296875 L 3.1875 -8.296875 C 2.90625 -7.4375 2.453125 -6.21875 2.15625 -5.546875 C 2.984375 -4.734375 3.28125 -3.9375 3.28125 -3.203125 C 3.28125 -2.78125 3.15625 -2.5625 2.96875 -2.453125 C 2.859375 -2.40625 2.796875 -2.40625 2.65625 -2.40625 C 2.5 -2.40625 2.0625 -2.40625 1.8125 -2.40625 L 1.8125 -2.21875 C 2.0625 -2.1875 2.296875 -2.125 2.40625 -2.03125 C 2.484375 -1.953125 2.53125 -1.71875 2.53125 -1.484375 C 3.625 -1.53125 4.03125 -2.03125 4.03125 -3.03125 C 4.03125 -3.84375 3.59375 -4.765625 2.4375 -5.578125 C 2.921875 -6.234375 3.640625 -7.4375 4.015625 -8.09375 C 4.265625 -8.09375 4.421875 -8.125 4.515625 -8.21875 L 3.65625 -9.078125 L 3.171875 -8.625 L 1.765625 -8.625 L 0.921875 -8.984375 Z M 0.921875 -8.625 "/>
</g>
<g id="glyph-0-5">
<path d="M 5.171875 -6.546875 L 5.171875 -5.03125 L 2.75 -5.03125 L 2.75 -6.546875 Z M 5.171875 -6.875 L 2.75 -6.875 L 2.75 -8.328125 L 5.171875 -8.328125 Z M 5.875 -6.546875 L 8.390625 -6.546875 L 8.390625 -5.03125 L 5.875 -5.03125 Z M 5.875 -6.875 L 5.875 -8.328125 L 8.390625 -8.328125 L 8.390625 -6.875 Z M 6.65625 -3.53125 L 6.65625 0.859375 L 6.796875 0.859375 C 7.0625 0.859375 7.375 0.703125 7.375 0.609375 L 7.375 -3.15625 C 7.5 -3.1875 7.59375 -3.21875 7.640625 -3.28125 C 8.34375 -2.75 9.1875 -2.34375 10.046875 -2.0625 C 10.140625 -2.40625 10.34375 -2.640625 10.65625 -2.703125 L 10.671875 -2.8125 C 9.15625 -3.125 7.4375 -3.765625 6.5625 -4.71875 L 8.390625 -4.71875 L 8.390625 -4.21875 L 8.5 -4.21875 C 8.734375 -4.21875 9.109375 -4.40625 9.109375 -4.46875 L 9.109375 -8.1875 C 9.328125 -8.234375 9.5 -8.3125 9.578125 -8.40625 L 8.6875 -9.09375 L 8.28125 -8.640625 L 2.8125 -8.640625 L 2.03125 -9 L 2.03125 -4.140625 L 2.140625 -4.140625 C 2.453125 -4.140625 2.75 -4.3125 2.75 -4.390625 L 2.75 -4.71875 L 4.109375 -4.71875 C 3.328125 -3.59375 2.046875 -2.6875 0.46875 -2.09375 L 0.546875 -1.90625 C 1.78125 -2.25 2.84375 -2.71875 3.6875 -3.34375 L 3.6875 -2.296875 C 3.6875 -1.15625 3.234375 -0.015625 0.921875 0.703125 L 1.03125 0.875 C 3.875 0.21875 4.375 -1.0625 4.40625 -2.28125 L 4.40625 -3.140625 C 4.671875 -3.171875 4.75 -3.28125 4.765625 -3.421875 L 3.90625 -3.5 C 4.359375 -3.859375 4.75 -4.265625 5.0625 -4.71875 L 6.265625 -4.71875 C 6.5625 -4.234375 6.953125 -3.8125 7.40625 -3.453125 Z M 6.65625 -3.53125 "/>
</g>
<g id="glyph-0-6">
<path d="M 4.265625 -0.859375 C 3.515625 -0.3125 2 0.359375 0.640625 0.703125 L 0.703125 0.890625 C 2.15625 0.71875 3.75 0.296875 4.6875 -0.125 C 4.96875 -0.0625 5.140625 -0.09375 5.21875 -0.1875 Z M 6.21875 -0.625 L 6.171875 -0.4375 C 7.59375 -0.125 8.65625 0.328125 9.296875 0.734375 C 10.171875 1.296875 11.5 -0.328125 6.21875 -0.625 Z M 4.046875 -9.28125 L 4.046875 -8.40625 L 1.109375 -8.40625 L 1.203125 -8.09375 L 4.046875 -8.09375 L 4.046875 -7.953125 C 4.046875 -7.75 4.03125 -7.5625 4 -7.359375 L 2.421875 -7.359375 L 1.6875 -7.6875 C 1.578125 -7.15625 1.359375 -6.234375 1.171875 -5.546875 C 1.53125 -5.46875 1.703125 -5.5 1.875 -5.578125 L 1.96875 -5.984375 L 3.46875 -5.984375 C 2.96875 -5.328125 2.09375 -4.734375 0.578125 -4.296875 L 0.65625 -4.109375 C 1.328125 -4.265625 1.890625 -4.4375 2.375 -4.640625 L 2.375 -0.515625 L 2.484375 -0.515625 C 2.78125 -0.515625 3.09375 -0.671875 3.09375 -0.75 L 3.09375 -1.078125 L 8.015625 -1.078125 L 8.015625 -0.65625 L 8.125 -0.65625 C 8.359375 -0.65625 8.734375 -0.828125 8.734375 -0.90625 L 8.734375 -4.34375 C 8.921875 -4.375 9.09375 -4.453125 9.15625 -4.53125 L 8.3125 -5.1875 L 7.90625 -4.765625 L 3.15625 -4.765625 L 2.890625 -4.890625 C 3.484375 -5.203125 3.890625 -5.59375 4.1875 -5.984375 L 6.265625 -5.984375 L 6.265625 -4.984375 L 6.40625 -4.984375 C 6.6875 -4.984375 6.984375 -5.140625 6.984375 -5.234375 L 6.984375 -5.984375 L 9.421875 -5.984375 C 9.375 -5.765625 9.34375 -5.625 9.28125 -5.578125 C 9.21875 -5.546875 9.15625 -5.53125 9.015625 -5.53125 C 8.828125 -5.53125 8.296875 -5.578125 7.984375 -5.59375 L 7.984375 -5.40625 C 8.28125 -5.375 8.5625 -5.3125 8.671875 -5.21875 C 8.796875 -5.140625 8.828125 -5.015625 8.828125 -4.875 C 9.15625 -4.875 9.453125 -4.890625 9.671875 -5.015625 C 9.953125 -5.171875 10.03125 -5.4375 10.09375 -5.921875 C 10.28125 -5.953125 10.421875 -6 10.484375 -6.078125 L 9.71875 -6.6875 L 9.34375 -6.3125 L 6.984375 -6.3125 L 6.984375 -7.03125 L 8.734375 -7.03125 L 8.734375 -6.6875 L 8.84375 -6.6875 C 9.078125 -6.6875 9.421875 -6.84375 9.421875 -6.921875 L 9.421875 -7.96875 C 9.609375 -8.015625 9.78125 -8.09375 9.84375 -8.171875 L 9 -8.8125 L 8.625 -8.40625 L 6.984375 -8.40625 L 6.984375 -8.859375 C 7.25 -8.90625 7.375 -9.015625 7.390625 -9.15625 L 6.265625 -9.28125 L 6.265625 -8.40625 L 4.75 -8.40625 L 4.75 -8.90625 C 5 -8.9375 5.09375 -9.046875 5.109375 -9.1875 Z M 8.734375 -7.359375 L 6.984375 -7.359375 L 6.984375 -8.09375 L 8.734375 -8.09375 Z M 6.265625 -7.03125 L 6.265625 -6.3125 L 4.375 -6.3125 C 4.5 -6.53125 4.59375 -6.796875 4.640625 -7.03125 Z M 6.265625 -7.359375 L 4.703125 -7.359375 C 4.71875 -7.546875 4.75 -7.75 4.75 -7.9375 L 4.75 -8.09375 L 6.265625 -8.09375 Z M 2.203125 -7.03125 L 3.953125 -7.03125 C 3.890625 -6.78125 3.8125 -6.53125 3.671875 -6.3125 L 2.046875 -6.3125 Z M 8.015625 -3.34375 L 8.015625 -2.546875 L 3.09375 -2.546875 L 3.09375 -3.34375 Z M 8.015625 -3.65625 L 3.09375 -3.65625 L 3.09375 -4.453125 L 8.015625 -4.453125 Z M 8.015625 -2.21875 L 8.015625 -1.40625 L 3.09375 -1.40625 L 3.09375 -2.21875 Z M 8.015625 -2.21875 "/>
</g>
<g id="glyph-0-7">
<path d="M 2.59375 -5.5625 L 5.21875 -5.5625 L 5.21875 -3.234375 L 2.5 -3.234375 C 2.578125 -3.890625 2.59375 -4.515625 2.59375 -5.109375 Z M 2.59375 -5.890625 L 2.59375 -8.15625 L 5.21875 -8.15625 L 5.21875 -5.890625 Z M 1.859375 -8.46875 L 1.859375 -5.09375 C 1.859375 -2.984375 1.703125 -0.90625 0.421875 0.734375 L 0.59375 0.859375 C 1.765625 -0.1875 2.265625 -1.53125 2.453125 -2.90625 L 5.21875 -2.90625 L 5.21875 0.765625 L 5.328125 0.765625 C 5.703125 0.765625 5.9375 0.59375 5.9375 0.53125 L 5.9375 -2.90625 L 8.796875 -2.90625 L 8.796875 -0.328125 C 8.796875 -0.140625 8.734375 -0.0625 8.5 -0.0625 C 8.28125 -0.0625 7.09375 -0.171875 7.09375 -0.171875 L 7.09375 0.015625 C 7.609375 0.09375 7.90625 0.171875 8.078125 0.28125 C 8.234375 0.40625 8.296875 0.609375 8.3125 0.828125 C 9.390625 0.71875 9.515625 0.34375 9.515625 -0.234375 L 9.515625 -7.96875 C 9.75 -8.03125 9.953125 -8.125 10.03125 -8.234375 L 9.0625 -8.96875 L 8.671875 -8.46875 L 2.71875 -8.46875 L 1.859375 -8.84375 Z M 8.796875 -5.5625 L 8.796875 -3.234375 L 5.9375 -3.234375 L 5.9375 -5.5625 Z M 8.796875 -5.890625 L 5.9375 -5.890625 L 5.9375 -8.15625 L 8.796875 -8.15625 Z M 8.796875 -5.890625 "/>
</g>
<g id="glyph-0-8">
<path d="M 9.25 -7.734375 C 8.9375 -5.9375 8.390625 -4.21875 7.5 -2.703125 C 6.59375 -4.0625 6 -5.734375 5.703125 -7.734375 Z M 4.53125 -8.046875 L 4.640625 -7.734375 L 5.4375 -7.734375 C 5.703125 -5.515625 6.265625 -3.640625 7.140625 -2.125 C 6.390625 -1.015625 5.4375 -0.046875 4.21875 0.71875 L 4.375 0.875 C 5.65625 0.203125 6.671875 -0.625 7.46875 -1.59375 C 8.140625 -0.59375 8.984375 0.25 9.984375 0.875 C 10.078125 0.5625 10.359375 0.375 10.671875 0.34375 L 10.703125 0.234375 C 9.59375 -0.359375 8.65625 -1.15625 7.890625 -2.140625 C 9.03125 -3.765625 9.640625 -5.671875 10.015625 -7.609375 C 10.265625 -7.640625 10.375 -7.671875 10.46875 -7.765625 L 9.640625 -8.53125 L 9.1875 -8.046875 Z M 0.40625 -1.71875 L 0.828125 -0.859375 C 0.921875 -0.890625 1.015625 -1 1.046875 -1.125 C 1.953125 -1.53125 2.703125 -1.90625 3.28125 -2.203125 L 3.28125 0.859375 L 3.421875 0.859375 C 3.6875 0.859375 4 0.65625 4 0.546875 L 4 -8.8125 C 4.265625 -8.84375 4.34375 -8.953125 4.375 -9.109375 L 3.28125 -9.21875 L 3.28125 -2.484375 L 1.84375 -2.078125 L 1.84375 -7.703125 C 2.09375 -7.75 2.171875 -7.84375 2.203125 -7.984375 L 1.15625 -8.09375 L 1.15625 -1.90625 Z M 0.40625 -1.71875 "/>
</g>
<g id="glyph-0-9">
<path d="M 4.90625 -8.328125 L 2.546875 -8.328125 L 2.609375 -8.015625 L 5.140625 -8.015625 L 5.140625 -7.171875 C 4.78125 -3.3125 2.921875 -0.609375 0.453125 0.703125 L 0.578125 0.875 C 3.09375 -0.28125 4.828125 -2.3125 5.546875 -5.140625 C 6.046875 -2.296875 7.96875 -0.15625 9.828125 0.875 C 10 0.46875 10.234375 0.25 10.625 0.25 L 10.671875 0.109375 C 7.5625 -1.15625 5.859375 -3.75 5.484375 -7.21875 L 5.46875 -7.75 C 6.046875 -7.796875 6.421875 -7.921875 6.59375 -8.125 L 5.359375 -9.03125 Z M 4.90625 -8.328125 "/>
</g>
<g id="glyph-0-10">
<path d="M 8.109375 -7.125 L 8.109375 -6.203125 L 3.03125 -6.203125 L 3.03125 -7.125 Z M 8.109375 -7.453125 L 3.03125 -7.453125 L 3.03125 -8.34375 L 8.109375 -8.34375 Z M 4.515625 -3.375 L 4.515625 -2.359375 L 2.640625 -2.359375 L 2.640625 -3.375 Z M 4.515625 -3.6875 L 2.640625 -3.6875 L 2.640625 -4.671875 L 4.515625 -4.671875 Z M 4.515625 -2.03125 L 4.515625 -1.15625 L 2.640625 -0.859375 L 2.640625 -2.03125 Z M 2.3125 -8.65625 L 2.3125 -5.3125 L 2.421875 -5.3125 C 2.703125 -5.3125 3.03125 -5.46875 3.03125 -5.546875 L 3.03125 -5.875 L 8.109375 -5.875 L 8.109375 -5.421875 L 8.21875 -5.421875 C 8.453125 -5.421875 8.8125 -5.578125 8.828125 -5.640625 L 8.828125 -8.203125 C 9.0625 -8.234375 9.21875 -8.34375 9.296875 -8.421875 L 8.390625 -9.109375 L 8 -8.65625 L 3.09375 -8.65625 L 2.3125 -9 Z M 0.46875 -0.53125 L 0.921875 0.375 C 1.03125 0.34375 1.125 0.25 1.171875 0.125 C 2.59375 -0.296875 3.6875 -0.640625 4.515625 -0.90625 L 4.515625 0.875 L 4.625 0.875 C 4.984375 0.875 5.203125 0.703125 5.203125 0.65625 L 5.203125 -4.671875 L 10.328125 -4.671875 C 10.46875 -4.671875 10.59375 -4.734375 10.625 -4.84375 C 10.25 -5.203125 9.640625 -5.671875 9.640625 -5.671875 L 9.109375 -4.984375 L 0.453125 -4.984375 L 0.546875 -4.671875 L 1.921875 -4.671875 L 1.921875 -0.734375 C 1.3125 -0.640625 0.78125 -0.5625 0.46875 -0.53125 Z M 8.734375 -3.40625 C 8.515625 -2.734375 8.203125 -2.109375 7.78125 -1.515625 C 7.21875 -2.03125 6.796875 -2.640625 6.5 -3.40625 Z M 5.484375 -3.734375 L 5.59375 -3.40625 L 6.265625 -3.40625 C 6.515625 -2.46875 6.90625 -1.6875 7.4375 -1.0625 C 6.90625 -0.4375 6.234375 0.109375 5.421875 0.53125 L 5.515625 0.703125 C 6.4375 0.34375 7.1875 -0.125 7.796875 -0.6875 C 8.390625 -0.109375 9.140625 0.328125 10.03125 0.65625 C 10.140625 0.296875 10.375 0.078125 10.6875 0.03125 L 10.703125 -0.078125 C 9.765625 -0.3125 8.9375 -0.65625 8.265625 -1.140625 C 8.84375 -1.796875 9.265625 -2.53125 9.5625 -3.328125 C 9.828125 -3.34375 9.9375 -3.359375 10.015625 -3.46875 L 9.1875 -4.1875 L 8.71875 -3.734375 Z M 5.484375 -3.734375 "/>
</g>
<g id="glyph-0-11">
<path d="M 1.03125 -8.9375 L 0.90625 -8.84375 C 1.453125 -8.359375 2.109375 -7.515625 2.25 -6.828125 C 3.078125 -6.21875 3.671875 -8.046875 1.03125 -8.9375 Z M 6.46875 -5.890625 L 6.46875 -5.015625 L 4.71875 -5.015625 L 4.796875 -4.71875 L 6.46875 -4.71875 L 6.46875 -3.703125 L 5.9375 -3.703125 L 5.296875 -4 L 5.296875 -1.0625 L 5.390625 -1.0625 C 5.625 -1.0625 5.890625 -1.203125 5.890625 -1.265625 L 5.890625 -1.8125 L 7.625 -1.8125 L 7.625 -1.3125 L 7.734375 -1.3125 C 7.796875 -1.3125 7.859375 -1.3125 7.9375 -1.34375 L 7.9375 -1.1875 C 8.359375 -1.140625 8.578125 -1.046875 8.734375 -0.9375 C 8.859375 -0.828125 8.90625 -0.65625 8.921875 -0.46875 C 9.859375 -0.546875 9.96875 -0.890625 9.96875 -1.421875 L 9.96875 -5.953125 C 10.1875 -5.984375 10.375 -6.078125 10.4375 -6.15625 L 9.53125 -6.84375 L 9.171875 -6.40625 L 7.8125 -6.40625 C 8.125 -6.6875 8.453125 -7.03125 8.65625 -7.3125 C 8.875 -7.3125 9.015625 -7.40625 9.0625 -7.53125 L 8.078125 -7.78125 L 10.34375 -7.78125 C 10.515625 -7.78125 10.609375 -7.84375 10.640625 -7.96875 C 10.265625 -8.3125 9.671875 -8.75 9.671875 -8.75 L 9.15625 -8.125 L 7.140625 -8.125 L 7.140625 -8.921875 C 7.375 -8.96875 7.484375 -9.078125 7.5 -9.203125 L 6.421875 -9.3125 L 6.421875 -8.125 L 3.234375 -8.125 L 3.328125 -7.78125 L 4.984375 -7.78125 L 4.875 -7.734375 C 5.125 -7.4375 5.375 -6.921875 5.40625 -6.5 C 5.453125 -6.453125 5.515625 -6.421875 5.578125 -6.40625 L 4.453125 -6.40625 L 3.703125 -6.75 L 3.703125 -0.53125 L 3.828125 -0.53125 C 4.125 -0.53125 4.390625 -0.703125 4.390625 -0.78125 L 4.390625 -6.078125 L 9.28125 -6.078125 L 9.28125 -1.5 C 9.28125 -1.34375 9.21875 -1.296875 9.0625 -1.296875 L 7.96875 -1.359375 C 8.109375 -1.40625 8.203125 -1.46875 8.21875 -1.5 L 8.21875 -3.28125 C 8.390625 -3.3125 8.546875 -3.390625 8.625 -3.46875 L 7.953125 -4.0625 L 7.625 -3.703125 L 7.0625 -3.703125 L 7.0625 -4.71875 L 8.78125 -4.71875 C 8.921875 -4.71875 9.03125 -4.765625 9.0625 -4.875 C 8.78125 -5.15625 8.34375 -5.515625 8.34375 -5.515625 L 7.96875 -5.015625 L 7.0625 -5.015625 L 7.0625 -5.546875 C 7.28125 -5.578125 7.359375 -5.65625 7.375 -5.796875 Z M 5.859375 -6.40625 C 6.234375 -6.5625 6.3125 -7.34375 5.03125 -7.78125 L 7.9375 -7.78125 C 7.828125 -7.359375 7.65625 -6.8125 7.484375 -6.40625 Z M 5.890625 -2.140625 L 5.890625 -3.390625 L 7.625 -3.390625 L 7.625 -2.140625 Z M 2.640625 -4.109375 C 2.9375 -4.15625 3.109375 -4.25 3.171875 -4.328125 L 2.234375 -5.125 L 1.796875 -4.546875 L 0.453125 -4.546875 L 0.515625 -4.21875 L 1.953125 -4.21875 L 1.953125 -0.90625 C 1.375 -0.5625 0.796875 -0.234375 0.40625 -0.0625 L 0.9375 0.828125 C 1.046875 0.78125 1.078125 0.703125 1.0625 0.578125 C 1.453125 0.21875 2.09375 -0.4375 2.5 -0.921875 C 3.28125 0.328125 4.1875 0.59375 6.234375 0.59375 C 7.46875 0.59375 9 0.59375 10.109375 0.59375 C 10.15625 0.25 10.34375 0.0625 10.671875 -0.015625 L 10.671875 -0.171875 C 9.3125 -0.125 7.53125 -0.125 6.21875 -0.125 C 4.296875 -0.125 3.4375 -0.25 2.640625 -1.15625 Z M 2.640625 -4.109375 "/>
</g>
<g id="glyph-0-12">
<path d="M 2.0625 -8.203125 L 2.0625 -5.796875 C 2.0625 -3.578125 1.84375 -1.21875 0.390625 0.703125 L 0.5625 0.84375 C 2.4375 -0.890625 2.75 -3.34375 2.796875 -5.28125 L 3.84375 -5.28125 C 4.203125 -3.75 4.828125 -2.546875 5.703125 -1.59375 C 4.640625 -0.625 3.296875 0.125 1.640625 0.65625 L 1.734375 0.828125 C 3.578125 0.390625 5 -0.28125 6.125 -1.15625 C 7.140625 -0.21875 8.421875 0.421875 10.015625 0.84375 C 10.140625 0.46875 10.421875 0.25 10.765625 0.203125 L 10.796875 0.09375 C 9.15625 -0.21875 7.765625 -0.78125 6.640625 -1.609375 C 7.703125 -2.59375 8.4375 -3.78125 8.953125 -5.140625 C 9.234375 -5.15625 9.34375 -5.1875 9.4375 -5.28125 L 8.578125 -6.109375 L 8.046875 -5.59375 L 2.796875 -5.59375 L 2.796875 -7.875 L 9.984375 -7.875 C 10.15625 -7.875 10.265625 -7.9375 10.296875 -8.046875 C 9.890625 -8.421875 9.265625 -8.921875 9.265625 -8.921875 L 8.6875 -8.203125 L 2.9375 -8.203125 L 2.0625 -8.59375 Z M 6.125 -2.03125 C 5.1875 -2.859375 4.484375 -3.921875 4.078125 -5.28125 L 8.078125 -5.28125 C 7.65625 -4.046875 7.015625 -2.953125 6.125 -2.03125 Z M 6.125 -2.03125 "/>
</g>
<g id="glyph-0-13">
<path d="M 5.25 -6.71875 L 5.140625 -6.609375 C 5.875 -6.140625 6.78125 -5.265625 7.03125 -4.546875 C 7.90625 -4.078125 8.234375 -5.984375 5.25 -6.71875 Z M 4.75 -5.34375 L 4.75 -0.125 C 4.75 0.453125 4.9375 0.640625 5.8125 0.640625 L 6.953125 0.640625 C 8.65625 0.640625 9.03125 0.515625 9.03125 0.171875 C 9.03125 0.03125 8.96875 -0.0625 8.71875 -0.125 L 8.6875 -1.75 L 8.546875 -1.75 C 8.40625 -1.0625 8.28125 -0.375 8.203125 -0.203125 C 8.15625 -0.09375 8.09375 -0.0625 7.96875 -0.046875 C 7.828125 -0.03125 7.46875 -0.03125 6.984375 -0.03125 L 5.921875 -0.03125 C 5.515625 -0.03125 5.4375 -0.09375 5.4375 -0.296875 L 5.4375 -4.9375 C 5.6875 -4.984375 5.78125 -5.09375 5.796875 -5.21875 Z M 3.4375 -4.34375 C 3.484375 -3.28125 3.09375 -2.1875 2.640625 -1.765625 C 2.4375 -1.5625 2.328125 -1.296875 2.484375 -1.109375 C 2.671875 -0.875 3.09375 -1 3.328125 -1.3125 C 3.6875 -1.78125 4.03125 -2.859375 3.65625 -4.34375 Z M 8.640625 -4.4375 L 8.53125 -4.328125 C 9.453125 -3.46875 9.796875 -2.09375 9.890625 -1.265625 C 10.625 -0.46875 11.453125 -2.859375 8.640625 -4.4375 Z M 1.515625 -7.59375 L 1.515625 -4.90625 C 1.515625 -3 1.421875 -0.921875 0.390625 0.734375 L 0.5625 0.84375 C 2.140625 -0.78125 2.234375 -3.140625 2.234375 -4.90625 L 2.234375 -7.265625 L 10.3125 -7.265625 C 10.46875 -7.265625 10.59375 -7.328125 10.609375 -7.4375 C 10.234375 -7.78125 9.609375 -8.28125 9.609375 -8.28125 L 9.078125 -7.59375 L 6.15625 -7.59375 L 6.15625 -8.828125 C 6.421875 -8.859375 6.53125 -8.96875 6.5625 -9.125 L 5.4375 -9.234375 L 5.4375 -7.59375 L 2.375 -7.59375 L 1.515625 -7.96875 Z M 1.515625 -7.59375 "/>
</g>
<g id="glyph-0-14">
<path d="M 2.859375 -8.890625 C 2.328125 -6.90625 1.359375 -5 0.390625 -3.8125 L 0.546875 -3.703125 C 1.3125 -4.359375 2.03125 -5.234375 2.640625 -6.265625 L 5.125 -6.265625 L 5.125 -3.46875 L 1.71875 -3.46875 L 1.796875 -3.140625 L 5.125 -3.140625 L 5.125 0.078125 L 0.46875 0.078125 L 0.546875 0.390625 L 10.34375 0.390625 C 10.5 0.390625 10.59375 0.328125 10.625 0.21875 C 10.21875 -0.140625 9.5625 -0.640625 9.5625 -0.640625 L 9 0.078125 L 5.875 0.078125 L 5.875 -3.140625 L 9.28125 -3.140625 C 9.4375 -3.140625 9.546875 -3.203125 9.578125 -3.3125 C 9.1875 -3.671875 8.546875 -4.171875 8.546875 -4.171875 L 7.96875 -3.46875 L 5.875 -3.46875 L 5.875 -6.265625 L 9.671875 -6.265625 C 9.828125 -6.265625 9.9375 -6.3125 9.984375 -6.4375 C 9.5625 -6.828125 8.953125 -7.28125 8.953125 -7.28125 L 8.375 -6.59375 L 5.875 -6.59375 L 5.875 -8.8125 C 6.15625 -8.859375 6.234375 -8.96875 6.265625 -9.125 L 5.125 -9.25 L 5.125 -6.59375 L 2.8125 -6.59375 C 3.109375 -7.125 3.359375 -7.703125 3.59375 -8.296875 C 3.84375 -8.28125 3.96875 -8.390625 4.015625 -8.5 Z M 2.859375 -8.890625 "/>
</g>
<g id="glyph-0-15">
<path d="M 3.515625 -7.671875 L 3.390625 -7.609375 C 3.65625 -7.203125 3.96875 -6.5625 4 -6.046875 C 4.671875 -5.453125 5.4375 -6.828125 3.515625 -7.671875 Z M 1.140625 -8 L 1.234375 -7.6875 L 9.828125 -7.6875 C 9.96875 -7.6875 10.0625 -7.734375 10.09375 -7.859375 C 9.734375 -8.203125 9.140625 -8.640625 9.140625 -8.640625 L 8.625 -8 L 5.90625 -8 L 5.90625 -8.890625 C 6.15625 -8.921875 6.25 -9.03125 6.265625 -9.171875 L 5.1875 -9.265625 L 5.1875 -8 Z M 5.828125 -5.25 L 5.828125 -3.859375 L 4.09375 -3.859375 C 4.25 -4.140625 4.375 -4.421875 4.5 -4.71875 C 4.75 -4.71875 4.875 -4.796875 4.90625 -4.921875 L 3.890625 -5.25 C 3.578125 -4.046875 3.03125 -2.921875 2.4375 -2.21875 L 2.59375 -2.09375 C 3.078125 -2.4375 3.53125 -2.9375 3.90625 -3.546875 L 5.828125 -3.546875 L 5.828125 -1.953125 L 3.390625 -1.953125 L 3.484375 -1.640625 L 5.828125 -1.640625 L 5.828125 0.15625 L 2.109375 0.15625 L 2.203125 0.46875 L 10.21875 0.46875 C 10.390625 0.46875 10.484375 0.421875 10.515625 0.3125 C 10.140625 -0.046875 9.546875 -0.484375 9.546875 -0.484375 L 9.03125 0.15625 L 6.546875 0.15625 L 6.546875 -1.640625 L 9.21875 -1.640625 C 9.375 -1.640625 9.484375 -1.703125 9.515625 -1.828125 C 9.15625 -2.140625 8.59375 -2.578125 8.59375 -2.578125 L 8.109375 -1.953125 L 6.546875 -1.953125 L 6.546875 -3.546875 L 9.4375 -3.546875 C 9.59375 -3.546875 9.6875 -3.59375 9.71875 -3.71875 C 9.34375 -4.078125 8.796875 -4.484375 8.796875 -4.484375 L 8.28125 -3.859375 L 6.546875 -3.859375 L 6.546875 -4.859375 C 6.796875 -4.890625 6.890625 -4.984375 6.90625 -5.140625 Z M 1.578125 -5.859375 L 1.578125 -4.53125 C 1.578125 -2.859375 1.453125 -0.921875 0.359375 0.71875 L 0.515625 0.859375 C 2.140625 -0.734375 2.28125 -3.046875 2.28125 -4.53125 L 2.28125 -5.53125 L 10.25 -5.53125 C 10.40625 -5.53125 10.515625 -5.578125 10.53125 -5.703125 C 10.171875 -6.046875 9.5625 -6.5 9.5625 -6.5 L 9.03125 -5.84375 L 6.796875 -5.84375 C 7.203125 -6.25 7.640625 -6.765625 7.890625 -7.15625 C 8.125 -7.140625 8.25 -7.234375 8.296875 -7.375 L 7.203125 -7.671875 C 7.046875 -7.125 6.765625 -6.359375 6.515625 -5.84375 L 2.28125 -5.84375 L 2.421875 -5.859375 L 1.578125 -6.234375 Z M 1.578125 -5.859375 "/>
</g>
<g id="glyph-1-0">
<path d="M 9.078125 -8.3125 C 9.078125 -8.34375 9.0625 -8.421875 8.953125 -8.421875 C 8.921875 -8.421875 8.90625 -8.421875 8.78125 -8.28125 L 7.9375 -7.359375 C 7.828125 -7.53125 7.28125 -8.421875 5.953125 -8.421875 C 3.28125 -8.421875 0.59375 -5.78125 0.59375 -3.015625 C 0.59375 -1.046875 2.015625 0.265625 3.84375 0.265625 C 4.875 0.265625 5.78125 -0.21875 6.421875 -0.765625 C 7.53125 -1.75 7.734375 -2.828125 7.734375 -2.875 C 7.734375 -2.984375 7.609375 -2.984375 7.59375 -2.984375 C 7.515625 -2.984375 7.453125 -2.96875 7.4375 -2.875 C 7.328125 -2.515625 7.046875 -1.671875 6.234375 -0.984375 C 5.40625 -0.3125 4.65625 -0.109375 4.03125 -0.109375 C 2.953125 -0.109375 1.6875 -0.734375 1.6875 -2.59375 C 1.6875 -3.28125 1.9375 -5.21875 3.125 -6.609375 C 3.859375 -7.453125 4.984375 -8.0625 6.046875 -8.0625 C 7.265625 -8.0625 7.96875 -7.140625 7.96875 -5.75 C 7.96875 -5.265625 7.9375 -5.265625 7.9375 -5.140625 C 7.9375 -5.015625 8.0625 -5.015625 8.109375 -5.015625 C 8.265625 -5.015625 8.265625 -5.046875 8.328125 -5.265625 Z M 9.078125 -8.3125 "/>
</g>
<g id="glyph-1-1">
<path d="M 5.40625 -5.15625 C 5.40625 -5.203125 5.359375 -5.265625 5.28125 -5.265625 C 5.15625 -5.265625 4.671875 -4.796875 4.46875 -4.453125 C 4.203125 -5.09375 3.734375 -5.28125 3.359375 -5.28125 C 1.953125 -5.28125 0.484375 -3.515625 0.484375 -1.78125 C 0.484375 -0.609375 1.1875 0.125 2.0625 0.125 C 2.5625 0.125 3.03125 -0.15625 3.46875 -0.578125 C 3.359375 -0.171875 2.96875 1.453125 2.921875 1.546875 C 2.828125 1.890625 2.734375 1.9375 2.0625 1.953125 C 1.90625 1.953125 1.796875 1.953125 1.796875 2.1875 C 1.796875 2.203125 1.796875 2.3125 1.953125 2.3125 C 2.328125 2.3125 2.75 2.28125 3.140625 2.28125 C 3.546875 2.28125 3.984375 2.3125 4.375 2.3125 C 4.4375 2.3125 4.59375 2.3125 4.59375 2.078125 C 4.59375 1.953125 4.46875 1.953125 4.28125 1.953125 C 3.703125 1.953125 3.703125 1.859375 3.703125 1.75 C 3.703125 1.671875 3.734375 1.609375 3.75 1.5 Z M 2.09375 -0.125 C 1.375 -0.125 1.328125 -1.046875 1.328125 -1.25 C 1.328125 -1.828125 1.671875 -3.125 1.875 -3.640625 C 2.25 -4.515625 2.875 -5.015625 3.359375 -5.015625 C 4.140625 -5.015625 4.296875 -4.046875 4.296875 -3.96875 C 4.296875 -3.890625 3.640625 -1.28125 3.609375 -1.234375 C 3.4375 -0.890625 2.765625 -0.125 2.09375 -0.125 Z M 2.09375 -0.125 "/>
</g>
<g id="glyph-1-2">
<path d="M 3.625 -3.78125 L 5.65625 -3.78125 C 7.34375 -3.78125 9.015625 -5.015625 9.015625 -6.359375 C 9.015625 -7.28125 8.21875 -8.15625 6.65625 -8.15625 L 2.78125 -8.15625 C 2.5625 -8.15625 2.421875 -8.15625 2.421875 -7.9375 C 2.421875 -7.796875 2.53125 -7.796875 2.765625 -7.796875 C 2.921875 -7.796875 3.140625 -7.78125 3.28125 -7.765625 C 3.484375 -7.75 3.546875 -7.703125 3.546875 -7.578125 C 3.546875 -7.53125 3.53125 -7.5 3.5 -7.34375 L 1.90625 -0.9375 C 1.78125 -0.46875 1.75 -0.375 0.8125 -0.375 C 0.609375 -0.375 0.484375 -0.375 0.484375 -0.140625 C 0.484375 0 0.625 0 0.65625 0 C 0.984375 0 1.84375 -0.03125 2.171875 -0.03125 C 2.421875 -0.03125 2.6875 -0.03125 2.9375 -0.03125 C 3.203125 -0.03125 3.46875 0 3.71875 0 C 3.796875 0 3.953125 0 3.953125 -0.234375 C 3.953125 -0.375 3.84375 -0.375 3.625 -0.375 C 3.171875 -0.375 2.84375 -0.375 2.84375 -0.578125 C 2.84375 -0.65625 2.875 -0.71875 2.875 -0.78125 Z M 4.484375 -7.34375 C 4.59375 -7.75 4.609375 -7.796875 5.125 -7.796875 L 6.28125 -7.796875 C 7.265625 -7.796875 7.90625 -7.46875 7.90625 -6.640625 C 7.90625 -6.1875 7.65625 -5.15625 7.203125 -4.71875 C 6.59375 -4.1875 5.875 -4.09375 5.359375 -4.09375 L 3.671875 -4.09375 Z M 4.484375 -7.34375 "/>
</g>
<g id="glyph-2-0">
<path d="M 2.421875 -3.953125 C 2.5 -4.09375 2.5 -4.15625 2.5 -4.21875 C 2.5 -4.484375 2.265625 -4.6875 2.015625 -4.6875 C 1.6875 -4.6875 1.59375 -4.421875 1.546875 -4.28125 L 0.4375 -0.65625 C 0.4375 -0.640625 0.40625 -0.53125 0.40625 -0.53125 C 0.40625 -0.421875 0.65625 -0.34375 0.734375 -0.34375 C 0.78125 -0.34375 0.796875 -0.359375 0.859375 -0.484375 Z M 2.421875 -3.953125 "/>
</g>
<g id="glyph-3-0">
<path d="M 3.953125 2.875 C 3.953125 2.828125 3.953125 2.8125 3.75 2.609375 C 2.265625 1.09375 1.875 -1.15625 1.875 -2.984375 C 1.875 -5.0625 2.328125 -7.140625 3.796875 -8.640625 C 3.953125 -8.78125 3.953125 -8.8125 3.953125 -8.84375 C 3.953125 -8.921875 3.90625 -8.96875 3.84375 -8.96875 C 3.71875 -8.96875 2.640625 -8.15625 1.9375 -6.640625 C 1.328125 -5.3125 1.1875 -4 1.1875 -2.984375 C 1.1875 -2.0625 1.3125 -0.609375 1.96875 0.734375 C 2.6875 2.21875 3.71875 2.984375 3.84375 2.984375 C 3.90625 2.984375 3.953125 2.953125 3.953125 2.875 Z M 3.953125 2.875 "/>
</g>
<g id="glyph-3-1">
<path d="M 3.453125 -2.984375 C 3.453125 -3.921875 3.328125 -5.359375 2.671875 -6.71875 C 1.953125 -8.1875 0.921875 -8.96875 0.796875 -8.96875 C 0.734375 -8.96875 0.6875 -8.921875 0.6875 -8.84375 C 0.6875 -8.8125 0.6875 -8.78125 0.90625 -8.578125 C 2.078125 -7.390625 2.765625 -5.484375 2.765625 -2.984375 C 2.765625 -0.9375 2.3125 1.15625 0.84375 2.671875 C 0.6875 2.8125 0.6875 2.828125 0.6875 2.875 C 0.6875 2.9375 0.734375 2.984375 0.796875 2.984375 C 0.921875 2.984375 2 2.171875 2.703125 0.65625 C 3.3125 -0.65625 3.453125 -1.984375 3.453125 -2.984375 Z M 3.453125 -2.984375 "/>
</g>
<g id="glyph-3-2">
<path d="M 4.890625 -2.75 L 8.21875 -2.75 C 8.390625 -2.75 8.625 -2.75 8.625 -2.984375 C 8.625 -3.234375 8.390625 -3.234375 8.21875 -3.234375 L 4.890625 -3.234375 L 4.890625 -6.578125 C 4.890625 -6.734375 4.890625 -6.96875 4.65625 -6.96875 C 4.40625 -6.96875 4.40625 -6.734375 4.40625 -6.578125 L 4.40625 -3.234375 L 1.0625 -3.234375 C 0.890625 -3.234375 0.671875 -3.234375 0.671875 -2.984375 C 0.671875 -2.75 0.890625 -2.75 1.0625 -2.75 L 4.40625 -2.75 L 4.40625 0.59375 C 4.40625 0.765625 4.40625 0.984375 4.65625 0.984375 C 4.890625 0.984375 4.890625 0.765625 4.890625 0.59375 Z M 4.890625 -2.75 "/>
</g>
<g id="glyph-4-0">
<path d="M 4.65625 -3.328125 L 2.265625 -5.703125 C 2.109375 -5.84375 2.09375 -5.875 2 -5.875 C 1.875 -5.875 1.75 -5.765625 1.75 -5.625 C 1.75 -5.546875 1.78125 -5.515625 1.90625 -5.390625 L 4.296875 -2.984375 L 1.90625 -0.578125 C 1.78125 -0.453125 1.75 -0.4375 1.75 -0.34375 C 1.75 -0.21875 1.875 -0.109375 2 -0.109375 C 2.09375 -0.109375 2.109375 -0.125 2.265625 -0.28125 L 4.640625 -2.65625 L 7.109375 -0.171875 C 7.140625 -0.171875 7.21875 -0.109375 7.296875 -0.109375 C 7.4375 -0.109375 7.53125 -0.21875 7.53125 -0.34375 C 7.53125 -0.375 7.53125 -0.421875 7.5 -0.484375 C 7.484375 -0.5 5.578125 -2.375 4.984375 -2.984375 L 7.171875 -5.171875 C 7.234375 -5.25 7.40625 -5.40625 7.46875 -5.46875 C 7.484375 -5.5 7.53125 -5.546875 7.53125 -5.625 C 7.53125 -5.765625 7.4375 -5.875 7.296875 -5.875 C 7.203125 -5.875 7.140625 -5.828125 7.015625 -5.6875 Z M 4.65625 -3.328125 "/>
</g>
<g id="glyph-5-0">
<path d="M 1.71875 -1 C 1.4375 -0.546875 1.171875 -0.328125 0.671875 -0.296875 C 0.59375 -0.296875 0.484375 -0.296875 0.484375 -0.125 C 0.484375 -0.03125 0.546875 0 0.59375 0 C 0.8125 0 1.09375 -0.03125 1.3125 -0.03125 C 1.578125 -0.03125 1.921875 0 2.171875 0 C 2.21875 0 2.34375 0 2.34375 -0.1875 C 2.34375 -0.296875 2.234375 -0.296875 2.203125 -0.296875 C 2.140625 -0.3125 1.828125 -0.328125 1.828125 -0.546875 C 1.828125 -0.65625 1.921875 -0.796875 1.953125 -0.875 L 2.625 -1.90625 L 5.03125 -1.90625 L 5.21875 -0.515625 C 5.1875 -0.4375 5.140625 -0.296875 4.640625 -0.296875 C 4.546875 -0.296875 4.4375 -0.296875 4.4375 -0.125 C 4.4375 -0.078125 4.453125 0 4.5625 0 C 4.8125 0 5.40625 -0.03125 5.640625 -0.03125 C 5.796875 -0.03125 5.984375 -0.03125 6.140625 -0.03125 C 6.296875 -0.015625 6.46875 0 6.609375 0 C 6.71875 0 6.78125 -0.0625 6.78125 -0.171875 C 6.78125 -0.296875 6.6875 -0.296875 6.546875 -0.296875 C 6.0625 -0.296875 6.046875 -0.375 6.015625 -0.5625 L 5.28125 -5.734375 C 5.265625 -5.90625 5.25 -5.96875 5.078125 -5.96875 C 4.921875 -5.96875 4.875 -5.890625 4.796875 -5.78125 Z M 2.828125 -2.21875 L 4.59375 -4.953125 L 4.984375 -2.21875 Z M 2.828125 -2.21875 "/>
</g>
</g>
</defs>
<path fill="none" stroke-width="0.3985" stroke-linecap="butt" stroke-linejoin="miter" stroke="rgb(0%, 0%, 0%)" stroke-opacity="1" stroke-miterlimit="10" d="M 0.00040625 0.0009375 L 0.00040625 203.641563 " transform="matrix(1, 0, 0, -1, 14.441, 222.54)"/>
<path fill="none" stroke-width="0.31879" stroke-linecap="round" stroke-linejoin="round" stroke="rgb(0%, 0%, 0%)" stroke-opacity="1" stroke-miterlimit="10" d="M -1.19442 1.593344 C -1.096764 0.995687 0.0008925 0.101156 0.297768 -0.00040625 C 0.0008925 -0.0980625 -1.096764 -0.9965 -1.19442 -1.594156 " transform="matrix(0, -1, -1, 0, 14.441, 18.89933)"/>
<g fill="rgb(0%, 0%, 0%)" fill-opacity="1">
<use xlink:href="#glyph-0-0" x="3.386" y="12.934"/>
<use xlink:href="#glyph-0-1" x="14.44107" y="12.934"/>
</g>
<path fill="none" stroke-width="0.3985" stroke-linecap="butt" stroke-linejoin="miter" stroke="rgb(0%, 0%, 0%)" stroke-opacity="1" stroke-miterlimit="10" d="M 0.00040625 0.0009375 L 339.703531 0.0009375 " transform="matrix(1, 0, 0, -1, 14.441, 222.54)"/>
<path fill="none" stroke-width="0.31879" stroke-linecap="round" stroke-linejoin="round" stroke="rgb(0%, 0%, 0%)" stroke-opacity="1" stroke-miterlimit="10" d="M -1.195211 1.594688 C -1.097555 0.997031 0.00010125 0.0985938 0.296976 0.0009375 C 0.00010125 -0.100625 -1.097555 -0.995156 -1.195211 -1.592812 " transform="matrix(1, 0, 0, -1, 354.14443, 222.54)"/>
<g fill="rgb(0%, 0%, 0%)" fill-opacity="1">
<use xlink:href="#glyph-0-2" x="358.782" y="226.741"/>
<use xlink:href="#glyph-0-3" x="369.83707" y="226.741"/>
</g>
<path fill="none" stroke-width="1.19553" stroke-linecap="butt" stroke-linejoin="miter" stroke="rgb(0%, 0%, 0%)" stroke-opacity="1" stroke-miterlimit="10" d="M 0.00040625 34.016563 L 238.113687 170.079063 " transform="matrix(1, 0, 0, -1, 14.441, 222.54)"/>
<g fill="rgb(0%, 0%, 0%)" fill-opacity="1">
<use xlink:href="#glyph-0-4" x="257.133" y="55.832"/>
<use xlink:href="#glyph-0-5" x="268.18807" y="55.832"/>
<use xlink:href="#glyph-0-6" x="279.24314" y="55.832"/>
<use xlink:href="#glyph-0-7" x="290.29821" y="55.832"/>
</g>
<g fill="rgb(0%, 0%, 0%)" fill-opacity="1">
<use xlink:href="#glyph-1-0" x="305.334" y="55.832"/>
</g>
<g fill="rgb(0%, 0%, 0%)" fill-opacity="1">
<use xlink:href="#glyph-2-0" x="314.734" y="51.493"/>
</g>
<g fill="rgb(0%, 0%, 0%)" fill-opacity="1">
<use xlink:href="#glyph-3-0" x="317.988" y="55.832"/>
</g>
<g fill="rgb(0%, 0%, 0%)" fill-opacity="1">
<use xlink:href="#glyph-1-1" x="322.637" y="55.832"/>
</g>
<g fill="rgb(0%, 0%, 0%)" fill-opacity="1">
<use xlink:href="#glyph-3-1" x="328.403" y="55.832"/>
</g>
<path fill="none" stroke-width="1.19553" stroke-linecap="butt" stroke-linejoin="miter" stroke="rgb(0%, 0%, 0%)" stroke-opacity="1" stroke-miterlimit="10" d="M 0.00040625 170.079063 L 238.113687 51.020469 " transform="matrix(1, 0, 0, -1, 14.441, 222.54)"/>
<g fill="rgb(0%, 0%, 0%)" fill-opacity="1">
<use xlink:href="#glyph-0-4" x="257.133" y="174.889"/>
<use xlink:href="#glyph-0-5" x="268.18807" y="174.889"/>
<use xlink:href="#glyph-0-8" x="279.24314" y="174.889"/>
<use xlink:href="#glyph-0-9" x="290.29821" y="174.889"/>
</g>
<g fill="rgb(0%, 0%, 0%)" fill-opacity="1">
<use xlink:href="#glyph-1-2" x="305.334" y="174.889"/>
</g>
<g fill="rgb(0%, 0%, 0%)" fill-opacity="1">
<use xlink:href="#glyph-2-0" x="314.67" y="170.55"/>
</g>
<g fill="rgb(0%, 0%, 0%)" fill-opacity="1">
<use xlink:href="#glyph-3-0" x="317.924" y="174.889"/>
</g>
<g fill="rgb(0%, 0%, 0%)" fill-opacity="1">
<use xlink:href="#glyph-1-1" x="322.573" y="174.889"/>
</g>
<g fill="rgb(0%, 0%, 0%)" fill-opacity="1">
<use xlink:href="#glyph-3-1" x="328.339" y="174.889"/>
</g>
<g fill="rgb(0%, 0%, 0%)" fill-opacity="1">
<use xlink:href="#glyph-4-0" x="335.645" y="174.889"/>
</g>
<g fill="rgb(0%, 0%, 0%)" fill-opacity="1">
<use xlink:href="#glyph-1-1" x="347.6" y="174.889"/>
</g>
<g fill="rgb(0%, 0%, 0%)" fill-opacity="1">
<use xlink:href="#glyph-5-0" x="352.937" y="176.682"/>
</g>
<g fill="rgb(0%, 0%, 0%)" fill-opacity="1">
<use xlink:href="#glyph-3-2" x="363.282" y="174.889"/>
</g>
<g fill="rgb(0%, 0%, 0%)" fill-opacity="1">
<use xlink:href="#glyph-1-2" x="375.237" y="174.889"/>
</g>
<g fill="rgb(0%, 0%, 0%)" fill-opacity="1">
<use xlink:href="#glyph-3-0" x="384.573" y="174.889"/>
</g>
<g fill="rgb(0%, 0%, 0%)" fill-opacity="1">
<use xlink:href="#glyph-1-1" x="389.222" y="174.889"/>
</g>
<g fill="rgb(0%, 0%, 0%)" fill-opacity="1">
<use xlink:href="#glyph-3-1" x="394.988" y="174.889"/>
</g>
<path fill="none" stroke-width="0.79701" stroke-linecap="butt" stroke-linejoin="miter" stroke="rgb(0%, 0%, 0%)" stroke-opacity="1" stroke-dasharray="0.79701 1.99255" stroke-miterlimit="10" d="M 127.559 107.153281 L 127.559 0.0009375 " transform="matrix(1, 0, 0, -1, 14.441, 222.54)"/>
<g fill="rgb(0%, 0%, 0%)" fill-opacity="1">
<use xlink:href="#glyph-0-10" x="94.804" y="236.652"/>
<use xlink:href="#glyph-0-11" x="105.85907" y="236.652"/>
<use xlink:href="#glyph-0-12" x="116.91414" y="236.652"/>
<use xlink:href="#glyph-0-13" x="127.96921" y="236.652"/>
<use xlink:href="#glyph-0-14" x="139.02428" y="236.652"/>
<use xlink:href="#glyph-0-15" x="150.07935" y="236.652"/>
<use xlink:href="#glyph-0-3" x="161.13442" y="236.652"/>
</g>
<g fill="rgb(0%, 0%, 0%)" fill-opacity="1">
<use xlink:href="#glyph-1-1" x="176.171" y="236.652"/>
</g>
<g fill="rgb(0%, 0%, 0%)" fill-opacity="1">
<use xlink:href="#glyph-5-0" x="181.508" y="238.445"/>
</g>
<path fill-rule="nonzero" fill="rgb(0%, 0%, 0%)" fill-opacity="1" d="M 145.402344 115.386719 C 145.402344 113.511719 143.878906 111.988281 142 111.988281 C 140.125 111.988281 138.601562 113.511719 138.601562 115.386719 C 138.601562 117.265625 140.125 118.789062 142 118.789062 C 143.878906 118.789062 145.402344 117.265625 145.402344 115.386719 Z M 145.402344 115.386719 "/>
</svg>
