<svg viewBox="0 0 601.713358924 125.875428683" width="601.713358924pt" height="125.875428683pt" xmlns="http://www.w3.org/2000/svg" xmlns:xlink="http://www.w3.org/1999/xlink" xmlns:h5="http://www.w3.org/1999/xhtml"><g transform="translate(4.251968504 4.251968504)"><g><path fill="none" stroke="#000000" stroke-width="0.7" stroke-linecap="round" stroke-linejoin="miter" stroke-miterlimit="4" stroke-dashoffset="0" stroke-dasharray="3 3" transform="translate(256.492401307 18.00700005)" d="M 0 0m 0 26.208767508c 60.526555808 -34.945023318 135.098347787 -34.945023346 195.624903621 -7.1e-8"/><path fill="none" transform="translate(347.925591115 0)" d="M 0 0h 12.75857v 13.607h -12.75857v -13.607Z "/><g transform="translate(347.925591076 -1.1e-7)"><g><g><g transform="matrix(1 0 0 -1 2.2 8.9617)"><use xlink:href="#g47AC7509BDFC08B36A619D2C1D41AB5B" x="0" y="0" fill="#000000" fill-rule="nonzero"/></g><g transform="matrix(1 0 0 -1 6.061 11.407)"><use xlink:href="#g2C8D83D1C9E6351B95787AEEDD25320C" x="0" y="0" fill="#000000" fill-rule="nonzero"/></g></g></g></g><path fill="none" stroke="#000000" stroke-width="0.7" stroke-linecap="round" stroke-linejoin="miter" stroke-miterlimit="4" stroke-dashoffset="0" stroke-dasharray="3 3" transform="translate(30.955499272 18.007000085)" d="M 0 0m 195.624903621 26.208767472c -60.526555821 -34.945023296 -135.0983478 -34.945023296 -195.624903621 0"/><path fill="none" transform="translate(122.388643012)" d="M 0 0h 12.75857v 13.607h -12.75857v -13.607Z "/><g transform="translate(122.388642972 -1.1e-7)"><g><g><g transform="matrix(1 0 0 -1 2.2 8.9617)"><use xlink:href="#g47AC7509BDFC08B36A619D2C1D41AB5B" x="0" y="0" fill="#000000" fill-rule="nonzero"/></g><g transform="matrix(1 0 0 -1 6.061 11.407)"><use xlink:href="#g2C8D83D1C9E6351B95787AEEDD25320C" x="0" y="0" fill="#000000" fill-rule="nonzero"/></g></g></g></g><path fill="none" stroke="#000000" stroke-width="0.7" stroke-linecap="round" stroke-linejoin="miter" stroke-miterlimit="4" stroke-dashoffset="0" stroke-dasharray="3 3" transform="translate(145.010850478 58.762549591)" d="M 0 0m 0 6.3e-8c 62.349637429 22.693412119 130.701466118 22.693412096 193.051103533 -6.3e-8"/><path fill="none" transform="translate(185.38577334 75.828181625)" d="M 0 0h 12.75857v 13.607h -12.75857v -13.607Z "/><g transform="translate(185.385773301 75.828181515)"><g><g><g transform="matrix(1 0 0 -1 2.2 8.9617)"><use xlink:href="#g47AC7509BDFC08B36A619D2C1D41AB5B" x="0" y="0" fill="#000000" fill-rule="nonzero"/></g><g transform="matrix(1 0 0 -1 6.061 11.407)"><use xlink:href="#g662A95998758731270AE49F207248E43" x="0" y="0" fill="#000000" fill-rule="nonzero"/></g></g></g></g><path fill="none" stroke="#000000" stroke-width="0.7" stroke-linecap="round" stroke-linejoin="miter" stroke-miterlimit="4" transform="translate(33.313208546 52.850617659)" d="M 0 0h 77.791034141"/><path fill="none" stroke="#000000" stroke-width="0.7" stroke-linecap="round" stroke-linejoin="miter" stroke-miterlimit="4" transform="translate(108.355341734 52.850617722)" d="M 0 0m 2.748901049 0c -1.411319379 0.649134387 -2.431227253 1.929040105 -2.748901049 3.449658795"/><path fill="none" stroke="#000000" stroke-width="0.7" stroke-linecap="round" stroke-linejoin="miter" stroke-miterlimit="4" transform="translate(108.355341734 49.400958927)" d="M 0 0m 2.748901049 3.449658795c -1.411319379 -0.649134387 -2.431227253 -1.929040105 -2.748901049 -3.449658795"/><path fill="none" stroke="#000000" stroke-width="0.7" stroke-linecap="round" stroke-linejoin="miter" stroke-miterlimit="4" transform="translate(146.081659696 52.850617659)" d="M 0 0h 77.791033858"/><path fill="none" stroke="#000000" stroke-width="0.7" stroke-linecap="round" stroke-linejoin="miter" stroke-miterlimit="4" transform="translate(221.1237926 52.850617722)" d="M 0 0m 2.748901049 0c -1.411319379 0.649134387 -2.431227253 1.929040105 -2.748901049 3.449658795"/><path fill="none" stroke="#000000" stroke-width="0.7" stroke-linecap="round" stroke-linejoin="miter" stroke-miterlimit="4" transform="translate(221.1237926 49.400958927)" d="M 0 0m 2.748901049 3.449658795c -1.411319379 -0.649134387 -2.431227253 -1.929040105 -2.748901049 -3.449658795"/><path fill="none" stroke="#000000" stroke-width="0.7" stroke-linecap="round" stroke-linejoin="miter" stroke-miterlimit="4" transform="translate(258.850110562 52.850617659)" d="M 0 0h 77.791034141"/><path fill="none" stroke="#000000" stroke-width="0.7" stroke-linecap="round" stroke-linejoin="miter" stroke-miterlimit="4" transform="translate(333.892243749 52.850617722)" d="M 0 0m 2.748901049 0c -1.411319379 0.649134387 -2.431227253 1.929040105 -2.748901049 3.449658795"/><path fill="none" stroke="#000000" stroke-width="0.7" stroke-linecap="round" stroke-linejoin="miter" stroke-miterlimit="4" transform="translate(333.892243749 49.400958927)" d="M 0 0m 2.748901049 3.449658795c -1.411319379 -0.649134387 -2.431227253 -1.929040105 -2.748901049 -3.449658795"/><path fill="none" stroke="#000000" stroke-width="0.7" stroke-linecap="round" stroke-linejoin="miter" stroke-miterlimit="4" transform="translate(371.618561711 52.850617659)" d="M 0 0h 77.791033858"/><path fill="none" stroke="#000000" stroke-width="0.7" stroke-linecap="round" stroke-linejoin="miter" stroke-miterlimit="4" transform="translate(446.660694615 52.850617722)" d="M 0 0m 2.748901049 0c -1.411319379 0.649134387 -2.431227253 1.929040105 -2.748901049 3.449658795"/><path fill="none" stroke="#000000" stroke-width="0.7" stroke-linecap="round" stroke-linejoin="miter" stroke-miterlimit="4" transform="translate(446.660694615 49.400958927)" d="M 0 0m 2.748901049 3.449658795c -1.411319379 -0.649134387 -2.431227253 -1.929040105 -2.748901049 -3.449658795"/><path fill="none" stroke="#000000" stroke-width="0.7" stroke-linecap="round" stroke-linejoin="miter" stroke-miterlimit="4" transform="translate(484.387012578 52.850617659)" d="M 0 0h 75.880075947"/><path fill="none" stroke="#000000" stroke-width="0.7" stroke-linecap="round" stroke-linejoin="miter" stroke-miterlimit="4" transform="translate(557.518187529 52.850617722)" d="M 0 0m 2.748901049 0c -1.411319379 0.649134387 -2.431227253 1.929040105 -2.748901049 3.449658795"/><path fill="none" stroke="#000000" stroke-width="0.7" stroke-linecap="round" stroke-linejoin="miter" stroke-miterlimit="4" transform="translate(557.518187529 49.400958927)" d="M 0 0m 2.748901049 3.449658795c -1.411319379 -0.649134387 -2.431227253 -1.929040105 -2.748901049 -3.449658795"/><path fill="none" stroke="#000000" stroke-width="0.7" stroke-linecap="round" stroke-linejoin="miter" stroke-miterlimit="4" transform="translate(15.9995 70.164326225)" d="M 0 0v 31.344165356"/><path fill="none" stroke="#000000" stroke-width="0.7" stroke-linecap="round" stroke-linejoin="miter" stroke-miterlimit="4" transform="translate(12.549841247 98.7595905)" d="M 0 0m 3.449658795 2.748901049c -0.649134387 -1.411319379 -1.929040105 -2.431227253 -3.449658795 -2.748901049"/><path fill="none" stroke="#000000" stroke-width="0.7" stroke-linecap="round" stroke-linejoin="miter" stroke-miterlimit="4" transform="translate(15.999500042 98.7595905)" d="M 0 0m 0 2.748901049c 0.649134387 -1.411319379 1.929040105 -2.431227253 3.449658795 -2.748901049"/><path fill="none" transform="translate(0 80.403333902)" d="M 0 0h 11.5995v 11.21615h -11.5995v -11.21615Z "/><g transform="translate(-9.4e-8 80.403333863)"><g><g><g transform="matrix(1 0 0 -1 2.2 9.01615)"><use xlink:href="#gCFD39EC4B44D8C685E0D149CFAA0FE91" x="0" y="0" fill="#000000" fill-rule="nonzero"/></g></g></g></g><path fill="none" stroke="#000000" stroke-width="0.7" stroke-linecap="round" stroke-linejoin="miter" stroke-miterlimit="4" transform="translate(128.76795105 70.164326233)" d="M 0 0l 0 31.344165348"/><path fill="none" stroke="#000000" stroke-width="0.7" stroke-linecap="round" stroke-linejoin="miter" stroke-miterlimit="4" transform="translate(125.318292397 98.7595905)" d="M 0 0m 3.449658795 2.748901049c -0.649134387 -1.411319379 -1.929040105 -2.431227253 -3.449658795 -2.748901049"/><path fill="none" stroke="#000000" stroke-width="0.7" stroke-linecap="round" stroke-linejoin="miter" stroke-miterlimit="4" transform="translate(128.767951192 98.7595905)" d="M 0 0m 0 2.748901049c 0.649134387 -1.411319379 1.929040105 -2.431227253 3.449658795 -2.748901049"/><path fill="none" transform="translate(112.76845105 80.403333907)" d="M 0 0h 11.5995v 11.21615h -11.5995v -11.21615Z "/><g transform="translate(112.768450955 80.403333867)"><g><g><g transform="matrix(1 0 0 -1 2.2 9.01615)"><use xlink:href="#gCFD39EC4B44D8C685E0D149CFAA0FE91" x="0" y="0" fill="#000000" fill-rule="nonzero"/></g></g></g></g><path fill="none" stroke="#000000" stroke-width="0.7" stroke-linecap="round" stroke-linejoin="miter" stroke-miterlimit="4" transform="translate(241.5364021 70.164326225)" d="M 0 0v 31.344165356"/><path fill="none" stroke="#000000" stroke-width="0.7" stroke-linecap="round" stroke-linejoin="miter" stroke-miterlimit="4" transform="translate(238.086743263 98.7595905)" d="M 0 0m 3.449658795 2.748901049c -0.649134387 -1.411319379 -1.929040105 -2.431227253 -3.449658795 -2.748901049"/><path fill="none" stroke="#000000" stroke-width="0.7" stroke-linecap="round" stroke-linejoin="miter" stroke-miterlimit="4" transform="translate(241.536402058 98.7595905)" d="M 0 0m 0 2.748901049c 0.649134387 -1.411319379 1.929040105 -2.431227253 3.449658795 -2.748901049"/><path fill="none" transform="translate(225.5369021 80.403333902)" d="M 0 0h 11.5995v 11.21615h -11.5995v -11.21615Z "/><g transform="translate(225.536902005 80.403333863)"><g><g><g transform="matrix(1 0 0 -1 2.2 9.01615)"><use xlink:href="#gCFD39EC4B44D8C685E0D149CFAA0FE91" x="0" y="0" fill="#000000" fill-rule="nonzero"/></g></g></g></g><path fill="none" stroke="#000000" stroke-width="0.7" stroke-linecap="round" stroke-linejoin="miter" stroke-miterlimit="4" transform="translate(354.30485315 70.164326226)" d="M 0 0l 0 31.344165355"/><path fill="none" stroke="#000000" stroke-width="0.7" stroke-linecap="round" stroke-linejoin="miter" stroke-miterlimit="4" transform="translate(350.855194412 98.7595905)" d="M 0 0m 3.449658795 2.748901049c -0.649134387 -1.411319379 -1.929040105 -2.431227253 -3.449658795 -2.748901049"/><path fill="none" stroke="#000000" stroke-width="0.7" stroke-linecap="round" stroke-linejoin="miter" stroke-miterlimit="4" transform="translate(354.304853207 98.7595905)" d="M 0 0m 0 2.748901049c 0.649134387 -1.411319379 1.929040105 -2.431227253 3.449658795 -2.748901049"/><path fill="none" transform="translate(338.30535315 80.403333903)" d="M 0 0h 11.5995v 11.21615h -11.5995v -11.21615Z "/><g transform="translate(338.305353055 80.403333864)"><g><g><g transform="matrix(1 0 0 -1 2.2 9.01615)"><use xlink:href="#gCFD39EC4B44D8C685E0D149CFAA0FE91" x="0" y="0" fill="#000000" fill-rule="nonzero"/></g></g></g></g><path fill="none" stroke="#000000" stroke-width="0.7" stroke-linecap="round" stroke-linejoin="miter" stroke-miterlimit="4" transform="translate(467.073304199 70.164326231)" d="M 0 0v 31.344165349"/><path fill="none" stroke="#000000" stroke-width="0.7" stroke-linecap="round" stroke-linejoin="miter" stroke-miterlimit="4" transform="translate(463.623645278 98.7595905)" d="M 0 0m 3.449658795 2.748901049c -0.649134387 -1.411319379 -1.929040105 -2.431227253 -3.449658795 -2.748901049"/><path fill="none" stroke="#000000" stroke-width="0.7" stroke-linecap="round" stroke-linejoin="miter" stroke-miterlimit="4" transform="translate(467.073304073 98.7595905)" d="M 0 0m 0 2.748901049c 0.649134387 -1.411319379 1.929040105 -2.431227253 3.449658795 -2.748901049"/><path fill="none" transform="translate(451.073804199 80.403333906)" d="M 0 0h 11.5995v 11.21615h -11.5995v -11.21615Z "/><g transform="translate(451.073804105 80.403333866)"><g><g><g transform="matrix(1 0 0 -1 2.2 9.01615)"><use xlink:href="#gCFD39EC4B44D8C685E0D149CFAA0FE91" x="0" y="0" fill="#000000" fill-rule="nonzero"/></g></g></g></g><path fill="none" transform="translate(68.153300525 48.442542659)" d="M 0 0h 8.46085v 8.81615h -8.46085v -8.81615Z "/><g transform="translate(68.15330047 48.442542525)"><g><g transform="translate(0)"><path fill="#ffffff" fill-rule="nonzero" d="M 0 0v 8.81615h 8.46085v -8.81615Z "/><g transform="matrix(1 0 0 -1 1 7.81615)"><use xlink:href="#g7E083C17DF1081FD66AB6DF0FC51F47B" x="0" y="0" fill="#000000" fill-rule="nonzero"/></g></g></g></g><path fill="none" transform="translate(180.921751575 48.442542659)" d="M 0 0h 8.46085v 8.81615h -8.46085v -8.81615Z "/><g transform="translate(180.92175152 48.442542525)"><g><g transform="translate(0)"><path fill="#ffffff" fill-rule="nonzero" d="M 0 0v 8.81615h 8.46085v -8.81615Z "/><g transform="matrix(1 0 0 -1 1 7.81615)"><use xlink:href="#g7E083C17DF1081FD66AB6DF0FC51F47B" x="0" y="0" fill="#000000" fill-rule="nonzero"/></g></g></g></g><path fill="none" transform="translate(293.690202625 48.442542659)" d="M 0 0h 8.46085v 8.81615h -8.46085v -8.81615Z "/><g transform="translate(293.69020257 48.442542525)"><g><g transform="translate(0)"><path fill="#ffffff" fill-rule="nonzero" d="M 0 0v 8.81615h 8.46085v -8.81615Z "/><g transform="matrix(1 0 0 -1 1 7.81615)"><use xlink:href="#g7E083C17DF1081FD66AB6DF0FC51F47B" x="0" y="0" fill="#000000" fill-rule="nonzero"/></g></g></g></g><path fill="none" transform="translate(406.458653674 48.442542659)" d="M 0 0h 8.46085v 8.81615h -8.46085v -8.81615Z "/><g transform="translate(406.458653619 48.442542525)"><g><g transform="translate(0)"><path fill="#ffffff" fill-rule="nonzero" d="M 0 0v 8.81615h 8.46085v -8.81615Z "/><g transform="matrix(1 0 0 -1 1 7.81615)"><use xlink:href="#g7E083C17DF1081FD66AB6DF0FC51F47B" x="0" y="0" fill="#000000" fill-rule="nonzero"/></g></g></g></g><path fill="none" transform="translate(519.227104724 48.442542659)" d="M 0 0h 8.46085v 8.81615h -8.46085v -8.81615Z "/><g transform="translate(519.227104669 48.442542525)"><g><g transform="translate(0)"><path fill="#ffffff" fill-rule="nonzero" d="M 0 0v 8.81615h 8.46085v -8.81615Z "/><g transform="matrix(1 0 0 -1 1 7.81615)"><use xlink:href="#g7E083C17DF1081FD66AB6DF0FC51F47B" x="0" y="0" fill="#000000" fill-rule="nonzero"/></g></g></g></g><path fill="none" transform="translate(7.9995 44.850617659)" d="M 0 0h 16v 16h -16v -16Z "/><g transform="translate(7.999499921 44.85061758)"><g><g transform="translate(0)"><path fill="#ffffff" fill-rule="nonzero" stroke="#000000" stroke-width="0.6" stroke-linecap="butt" stroke-linejoin="miter" stroke-miterlimit="4" d="M 0 0m 0 8c 0 -4.414272 3.585728 -8 8 -8c 4.414272 0 8 3.585728 8 8c 0 4.414272 -3.585728 8 -8 8c -4.414272 0 -8 -3.585728 -8 -8"/><g transform="matrix(1 0 0 -1 4.051 12.0095)"><use xlink:href="#g13C6F56327B440CEE3EF9E0968F3F466" x="0" y="0" fill="#000000" fill-rule="nonzero"/></g></g></g></g><path fill="none" transform="translate(9.35485 24.94042573)" d="M 0 0h 13.2893v 9.513h -13.2893v -9.513Z "/><g transform="translate(9.35484989 24.94042573)"><g><g transform="translate(0)"><path fill="#ffffff" fill-rule="nonzero" d="M 0 0v 9.513h 13.2893v -9.513Z "/><g transform="matrix(1 0 0 -1 1 8.513)"><use xlink:href="#g7FDD4349A49914F62F30F23AE9794251" x="0" y="0" fill="#000000" fill-rule="nonzero"/></g><g transform="matrix(1 0 0 -1 7.292 11.23)"><use xlink:href="#gCFFEDE9C82D78D7703A652B0C82EC869" x="0" y="0" fill="#000000" fill-rule="nonzero"/></g></g></g></g><path fill="none" transform="translate(2.774833333 107.858491675)" d="M 0 0h 26.449333333v 9.513h -26.449333333v -9.513Z "/><g transform="translate(2.774833244 107.858491675)"><g><g transform="translate(0)"><path fill="#ffffff" fill-rule="nonzero" d="M 0 0v 9.513h 26.449333333v -9.513Z "/><g transform="matrix(1 0 0 -1 1 8.513)"><use xlink:href="#g9C5E01F97914784D6046F24928CB3533" x="0" y="0" fill="#000000" fill-rule="nonzero"/></g><g transform="matrix(1 0 0 -1 5.279 8.513)"><use xlink:href="#g847DCE2A3EE7D23E3D551BDE0EE8A683" x="0" y="0" fill="#000000" fill-rule="nonzero"/></g><g transform="matrix(1 0 0 -1 10.779 8.513)"><use xlink:href="#gF2E9DE7382F8BB82A14E9A8C0CA6C0F0" x="0" y="0" fill="#000000" fill-rule="nonzero"/></g><g transform="matrix(1 0 0 -1 15.670333333 8.513)"><use xlink:href="#g5DF7FDD026DB928A9BECE5CB45FEF99F" x="0" y="0" fill="#000000" fill-rule="nonzero"/></g><g transform="matrix(1 0 0 -1 21.170333333 8.513)"><use xlink:href="#g44903F1336FFA3AC82F2FDAECC383B22" x="0" y="0" fill="#000000" fill-rule="nonzero"/></g></g></g></g><path fill="none" transform="translate(120.76795105 44.850617659)" d="M 0 0h 16v 16h -16v -16Z "/><g transform="translate(120.767950971 44.85061758)"><g><g transform="translate(0)"><path fill="#ffffff" fill-rule="nonzero" stroke="#000000" stroke-width="0.6" stroke-linecap="butt" stroke-linejoin="miter" stroke-miterlimit="4" d="M 0 0m 0 8c 0 -4.414272 3.585728 -8 8 -8c 4.414272 0 8 3.585728 8 8c 0 4.414272 -3.585728 8 -8 8c -4.414272 0 -8 -3.585728 -8 -8"/><g transform="matrix(1 0 0 -1 4.315 12.0095)"><use xlink:href="#g152299F2F9213F814422AD9197AB2DB7" x="0" y="0" fill="#000000" fill-rule="nonzero"/></g></g></g></g><path fill="none" transform="translate(122.12330105 24.94042573)" d="M 0 0h 13.2893v 9.513h -13.2893v -9.513Z "/><g transform="translate(122.12330094 24.94042573)"><g><g transform="translate(0)"><path fill="#ffffff" fill-rule="nonzero" d="M 0 0v 9.513h 13.2893v -9.513Z "/><g transform="matrix(1 0 0 -1 1 8.513)"><use xlink:href="#g7FDD4349A49914F62F30F23AE9794251" x="0" y="0" fill="#000000" fill-rule="nonzero"/></g><g transform="matrix(1 0 0 -1 7.292 11.23)"><use xlink:href="#gBFCC2410A697C41E2DD3187C83DA8F3" x="0" y="0" fill="#000000" fill-rule="nonzero"/></g></g></g></g><path fill="none" transform="translate(115.543284383 107.858491675)" d="M 0 0h 26.449333333v 9.513h -26.449333333v -9.513Z "/><g transform="translate(115.543284294 107.858491675)"><g><g transform="translate(0)"><path fill="#ffffff" fill-rule="nonzero" d="M 0 0v 9.513h 26.449333333v -9.513Z "/><g transform="matrix(1 0 0 -1 1 8.513)"><use xlink:href="#g9C5E01F97914784D6046F24928CB3533" x="0" y="0" fill="#000000" fill-rule="nonzero"/></g><g transform="matrix(1 0 0 -1 5.279 8.513)"><use xlink:href="#g23FF2CB0A5B3999574DE734D483151BD" x="0" y="0" fill="#000000" fill-rule="nonzero"/></g><g transform="matrix(1 0 0 -1 10.779 8.513)"><use xlink:href="#gF2E9DE7382F8BB82A14E9A8C0CA6C0F0" x="0" y="0" fill="#000000" fill-rule="nonzero"/></g><g transform="matrix(1 0 0 -1 15.670333333 8.513)"><use xlink:href="#g93E2B88EAD8DFDF0BE4D6467DB923DB5" x="0" y="0" fill="#000000" fill-rule="nonzero"/></g><g transform="matrix(1 0 0 -1 21.170333333 8.513)"><use xlink:href="#g44903F1336FFA3AC82F2FDAECC383B22" x="0" y="0" fill="#000000" fill-rule="nonzero"/></g></g></g></g><path fill="none" transform="translate(233.5364021 44.850617659)" d="M 0 0h 16v 16h -16v -16Z "/><g transform="translate(233.536402021 44.85061758)"><g><g transform="translate(0)"><path fill="#ffffff" fill-rule="nonzero" stroke="#000000" stroke-width="0.6" stroke-linecap="butt" stroke-linejoin="miter" stroke-miterlimit="4" d="M 0 0m 0 8c 0 -4.414272 3.585728 -8 8 -8c 4.414272 0 8 3.585728 8 8c 0 4.414272 -3.585728 8 -8 8c -4.414272 0 -8 -3.585728 -8 -8"/><g transform="matrix(1 0 0 -1 4.051 12.0095)"><use xlink:href="#g13C6F56327B440CEE3EF9E0968F3F466" x="0" y="0" fill="#000000" fill-rule="nonzero"/></g></g></g></g><path fill="none" transform="translate(234.8917521 24.94042573)" d="M 0 0h 13.2893v 9.513h -13.2893v -9.513Z "/><g transform="translate(234.89175199 24.94042573)"><g><g transform="translate(0)"><path fill="#ffffff" fill-rule="nonzero" d="M 0 0v 9.513h 13.2893v -9.513Z "/><g transform="matrix(1 0 0 -1 1 8.513)"><use xlink:href="#g7FDD4349A49914F62F30F23AE9794251" x="0" y="0" fill="#000000" fill-rule="nonzero"/></g><g transform="matrix(1 0 0 -1 7.292 11.23)"><use xlink:href="#g25B224D96CA3F5CCC7E774117FEA026D" x="0" y="0" fill="#000000" fill-rule="nonzero"/></g></g></g></g><path fill="none" transform="translate(228.311735433 107.858491675)" d="M 0 0h 26.449333333v 9.513h -26.449333333v -9.513Z "/><g transform="translate(228.311735344 107.858491675)"><g><g transform="translate(0)"><path fill="#ffffff" fill-rule="nonzero" d="M 0 0v 9.513h 26.449333333v -9.513Z "/><g transform="matrix(1 0 0 -1 1 8.513)"><use xlink:href="#g9C5E01F97914784D6046F24928CB3533" x="0" y="0" fill="#000000" fill-rule="nonzero"/></g><g transform="matrix(1 0 0 -1 5.279 8.513)"><use xlink:href="#gAE482DA578200FA3765B7A490E273D69" x="0" y="0" fill="#000000" fill-rule="nonzero"/></g><g transform="matrix(1 0 0 -1 10.779 8.513)"><use xlink:href="#gF2E9DE7382F8BB82A14E9A8C0CA6C0F0" x="0" y="0" fill="#000000" fill-rule="nonzero"/></g><g transform="matrix(1 0 0 -1 15.670333333 8.513)"><use xlink:href="#g847DCE2A3EE7D23E3D551BDE0EE8A683" x="0" y="0" fill="#000000" fill-rule="nonzero"/></g><g transform="matrix(1 0 0 -1 21.170333333 8.513)"><use xlink:href="#g44903F1336FFA3AC82F2FDAECC383B22" x="0" y="0" fill="#000000" fill-rule="nonzero"/></g></g></g></g><path fill="none" transform="translate(346.30485315 44.850617659)" d="M 0 0h 16v 16h -16v -16Z "/><g transform="translate(346.304853071 44.85061758)"><g><g transform="translate(0)"><path fill="#ffffff" fill-rule="nonzero" stroke="#000000" stroke-width="0.6" stroke-linecap="butt" stroke-linejoin="miter" stroke-miterlimit="4" d="M 0 0m 0 8c 0 -4.414272 3.585728 -8 8 -8c 4.414272 0 8 3.585728 8 8c 0 4.414272 -3.585728 8 -8 8c -4.414272 0 -8 -3.585728 -8 -8"/><g transform="matrix(1 0 0 -1 4.315 12.0095)"><use xlink:href="#g152299F2F9213F814422AD9197AB2DB7" x="0" y="0" fill="#000000" fill-rule="nonzero"/></g></g></g></g><path fill="none" transform="translate(347.66020315 24.94042573)" d="M 0 0h 13.2893v 9.513h -13.2893v -9.513Z "/><g transform="translate(347.660203039 24.94042573)"><g><g transform="translate(0)"><path fill="#ffffff" fill-rule="nonzero" d="M 0 0v 9.513h 13.2893v -9.513Z "/><g transform="matrix(1 0 0 -1 1 8.513)"><use xlink:href="#g7FDD4349A49914F62F30F23AE9794251" x="0" y="0" fill="#000000" fill-rule="nonzero"/></g><g transform="matrix(1 0 0 -1 7.292 11.23)"><use xlink:href="#g777C235EA19CAB599B58B593B0044621" x="0" y="0" fill="#000000" fill-rule="nonzero"/></g></g></g></g><path fill="none" transform="translate(341.080186483 107.858491675)" d="M 0 0h 26.449333333v 9.513h -26.449333333v -9.513Z "/><g transform="translate(341.080186394 107.858491675)"><g><g transform="translate(0)"><path fill="#ffffff" fill-rule="nonzero" d="M 0 0v 9.513h 26.449333333v -9.513Z "/><g transform="matrix(1 0 0 -1 1 8.513)"><use xlink:href="#g9C5E01F97914784D6046F24928CB3533" x="0" y="0" fill="#000000" fill-rule="nonzero"/></g><g transform="matrix(1 0 0 -1 5.279 8.513)"><use xlink:href="#g93E2B88EAD8DFDF0BE4D6467DB923DB5" x="0" y="0" fill="#000000" fill-rule="nonzero"/></g><g transform="matrix(1 0 0 -1 10.779 8.513)"><use xlink:href="#gF2E9DE7382F8BB82A14E9A8C0CA6C0F0" x="0" y="0" fill="#000000" fill-rule="nonzero"/></g><g transform="matrix(1 0 0 -1 15.670333333 8.513)"><use xlink:href="#g8894C0A608DBD285706C131FF554A2B1" x="0" y="0" fill="#000000" fill-rule="nonzero"/></g><g transform="matrix(1 0 0 -1 21.170333333 8.513)"><use xlink:href="#g44903F1336FFA3AC82F2FDAECC383B22" x="0" y="0" fill="#000000" fill-rule="nonzero"/></g></g></g></g><path fill="none" transform="translate(459.073304199 44.850617659)" d="M 0 0h 16v 16h -16v -16Z "/><g transform="translate(459.073304121 44.85061758)"><g><g transform="translate(0)"><path fill="#ffffff" fill-rule="nonzero" stroke="#000000" stroke-width="0.6" stroke-linecap="butt" stroke-linejoin="miter" stroke-miterlimit="4" d="M 0 0m 0 8c 0 -4.414272 3.585728 -8 8 -8c 4.414272 0 8 3.585728 8 8c 0 4.414272 -3.585728 8 -8 8c -4.414272 0 -8 -3.585728 -8 -8"/><g transform="matrix(1 0 0 -1 4.051 12.0095)"><use xlink:href="#g13C6F56327B440CEE3EF9E0968F3F466" x="0" y="0" fill="#000000" fill-rule="nonzero"/></g></g></g></g><path fill="none" transform="translate(460.428654199 24.94042573)" d="M 0 0h 13.2893v 9.513h -13.2893v -9.513Z "/><g transform="translate(460.428654089 24.94042573)"><g><g transform="translate(0)"><path fill="#ffffff" fill-rule="nonzero" d="M 0 0v 9.513h 13.2893v -9.513Z "/><g transform="matrix(1 0 0 -1 1 8.513)"><use xlink:href="#g7FDD4349A49914F62F30F23AE9794251" x="0" y="0" fill="#000000" fill-rule="nonzero"/></g><g transform="matrix(1 0 0 -1 7.292 11.23)"><use xlink:href="#g72ED4E8BDD8DFFE80EC72D6074F65D44" x="0" y="0" fill="#000000" fill-rule="nonzero"/></g></g></g></g><path fill="none" transform="translate(453.848637533 107.858491675)" d="M 0 0h 26.449333333v 9.513h -26.449333333v -9.513Z "/><g transform="translate(453.848637444 107.858491675)"><g><g transform="translate(0)"><path fill="#ffffff" fill-rule="nonzero" d="M 0 0v 9.513h 26.449333333v -9.513Z "/><g transform="matrix(1 0 0 -1 1 8.513)"><use xlink:href="#g9C5E01F97914784D6046F24928CB3533" x="0" y="0" fill="#000000" fill-rule="nonzero"/></g><g transform="matrix(1 0 0 -1 5.279 8.513)"><use xlink:href="#gA754BD559092BEFA127826A2A25BC17" x="0" y="0" fill="#000000" fill-rule="nonzero"/></g><g transform="matrix(1 0 0 -1 10.779 8.513)"><use xlink:href="#gF2E9DE7382F8BB82A14E9A8C0CA6C0F0" x="0" y="0" fill="#000000" fill-rule="nonzero"/></g><g transform="matrix(1 0 0 -1 15.670333333 8.513)"><use xlink:href="#gAE482DA578200FA3765B7A490E273D69" x="0" y="0" fill="#000000" fill-rule="nonzero"/></g><g transform="matrix(1 0 0 -1 21.170333333 8.513)"><use xlink:href="#g44903F1336FFA3AC82F2FDAECC383B22" x="0" y="0" fill="#000000" fill-rule="nonzero"/></g></g></g></g><path fill="none" transform="translate(566.617088583 48.094117659)" d="M 0 0h 26.592333333v 9.513h -26.592333333v -9.513Z "/><g transform="translate(566.617088525 48.094117659)"><g><g transform="translate(0)"><path fill="#ffffff" fill-rule="nonzero" d="M 0 0v 9.513h 26.592333333v -9.513Z "/><g transform="matrix(1 0 0 -1 1 8.513)"><use xlink:href="#g9C5E01F97914784D6046F24928CB3533" x="0" y="0" fill="#000000" fill-rule="nonzero"/></g><g transform="matrix(1 0 0 -1 5.279 8.513)"><use xlink:href="#g8894C0A608DBD285706C131FF554A2B1" x="0" y="0" fill="#000000" fill-rule="nonzero"/></g><g transform="matrix(1 0 0 -1 10.779 8.513)"><use xlink:href="#gF2E9DE7382F8BB82A14E9A8C0CA6C0F0" x="0" y="0" fill="#000000" fill-rule="nonzero"/></g><g transform="matrix(1 0 0 -1 15.670333333 8.513)"><use xlink:href="#g293A68469737AFB939432645E7BDA476" x="0" y="0" fill="#000000" fill-rule="nonzero"/></g><g transform="matrix(1 0 0 -1 21.313333333 8.513)"><use xlink:href="#g44903F1336FFA3AC82F2FDAECC383B22" x="0" y="0" fill="#000000" fill-rule="nonzero"/></g></g></g></g></g></g><defs><symbol id="g47AC7509BDFC08B36A619D2C1D41AB5B" overflow="visible"><path d="M 0 0m 4.9203 6.6033c 0 0.1089 -0.0594 0.1584 -0.1881 0.1584l -1.2771 -0.0297l -1.2969 0.0297c -0.1584 0.0099 -0.2376 -0.0693 -0.2376 -0.2376c 0 -0.099 0.1089 -0.1485 0.3168 -0.1485c 0.4257 0 0.6336 -0.0495 0.6336 -0.1386c 0 -0.0495 -0.0099 -0.099 -0.0198 -0.1485l -1.3167 -5.2767c -0.0495 -0.2178 -0.1485 -0.3465 -0.297 -0.396c -0.0693 -0.0198 -0.2475 -0.0297 -0.5544 -0.0297c -0.2475 0 -0.3465 -0.0099 -0.3465 -0.2376c 0 -0.099 0.0594 -0.1485 0.1881 -0.1485l 1.2672 0.0297l 1.3068 -0.0297c 0.1584 -0.0099 0.2376 0.0693 0.2376 0.2277c 0 0.1584 -0.1188 0.1584 -0.3366 0.1584c -0.3861 0 -0.6237 -0.0198 -0.6237 0.1386c 0 0.0495 0.0099 0.1188 0.0396 0.2178l 1.3068 5.2173c 0.0495 0.2079 0.1485 0.3366 0.297 0.3861c 0.0693 0.0198 0.2475 0.0297 0.5544 0.0297c 0.2376 0 0.3465 0.0099 0.3465 0.2277Z "/></symbol><symbol id="g2C8D83D1C9E6351B95787AEEDD25320C" overflow="visible"><path d="M 0 0m 2.09979 4.60152c -0.29799 -0.29106 -0.74151 -0.43659 -1.34442 -0.43659v -0.30492c 0.40887 0 0.73458 0.06237 0.98406 0.18018v -3.45114c 0 -0.09009 -0.00693 -0.14553 -0.02772 -0.17325c -0.03465 -0.07623 -0.24255 -0.11781 -0.6237 -0.11781h -0.28413v -0.29799l 1.23354 0.02772l 1.24047 -0.02772v 0.29799h -0.28413c -0.38115 0 -0.58905 0.04158 -0.63063 0.11781c -0.01386 0.02772 -0.02079 0.08316 -0.02079 0.17325v 3.79071c 0 0.18711 -0.02772 0.22176 -0.24255 0.22176Z "/></symbol><symbol id="g662A95998758731270AE49F207248E43" overflow="visible"><path d="M 0 0m 0.82467 2.93832c 0.22176 0 0.38808 0.16632 0.38808 0.38808c 0 0.24948 -0.13167 0.38115 -0.38808 0.38808c 0.15246 0.32571 0.49896 0.58905 0.94941 0.58905c 0.60984 0 1.01178 -0.45738 1.01178 -1.06722c 0 -0.33264 -0.11781 -0.65142 -0.36036 -0.96327c -0.11781 -0.15939 -0.2079 -0.27027 -0.27027 -0.33264l -1.64241 -1.62855c -0.09009 -0.08316 -0.07623 -0.10395 -0.07623 -0.31185h 2.85516l 0.21483 1.30284h -0.29106c -0.04851 -0.36729 -0.10395 -0.58212 -0.16632 -0.63063c -0.03465 -0.02079 -0.24948 -0.03465 -0.65835 -0.03465h -1.1781c 0.46431 0.40887 0.89397 0.77616 1.30284 1.10187c 0.31185 0.24255 0.53361 0.45738 0.67221 0.64449c 0.2079 0.27027 0.31185 0.5544 0.31185 0.85239c 0 0.42966 -0.16632 0.76923 -0.50589 1.01871c -0.29799 0.22869 -0.67221 0.3465 -1.11573 0.3465c -0.38115 0 -0.70686 -0.11088 -0.99099 -0.33264c -0.29799 -0.24255 -0.45045 -0.54747 -0.45045 -0.92169c 0 -0.23562 0.17325 -0.40887 0.38808 -0.40887Z "/></symbol><symbol id="gCFD39EC4B44D8C685E0D149CFAA0FE91" overflow="visible"><path d="M 0 0m 0.49555 6.5263l 0.96305 -0.0748c 0.00935 -0.92565 0.00935 -1.87 0.00935 -2.85175v -0.25245c 0 -1.11265 0 -2.06635 -0.00935 -2.98265l -0.96305 -0.08415v -0.2805h 2.66475c 2.17855 0 3.50625 1.309 3.50625 3.4034c 0 2.1692 -1.2716 3.4034 -3.37535 3.4034h -2.79565Z m 1.8139 -6.21775c -0.00935 0.94435 -0.00935 1.9074 -0.00935 3.03875v 0.25245c 0 1.0098 0 1.9635 0.00935 2.8985h 0.86955c 1.683 0 2.60865 -1.07525 2.60865 -3.09485c 0 -1.91675 -0.92565 -3.09485 -2.7115 -3.09485Z "/></symbol><symbol id="g7E083C17DF1081FD66AB6DF0FC51F47B" overflow="visible"><path d="M 0 0m 3.9457 -0.1496c 0.75735 0 1.39315 0.1496 2.0196 0.5236l 0.0187 1.48665h -0.42075l -0.2805 -1.4025c -0.3927 -0.2057 -0.8041 -0.28985 -1.2529 -0.28985c -1.50535 0 -2.618 1.1407 -2.618 3.2351c 0 2.06635 1.11265 3.22575 2.6554 3.22575c 0.4301 0 0.7854 -0.0748 1.1407 -0.2618l 0.2805 -1.4212h 0.42075l -0.02805 1.496c -0.5984 0.3553 -1.16875 0.5236 -1.93545 0.5236c -1.95415 0 -3.4221 -1.39315 -3.4221 -3.58105c 0 -2.19725 1.41185 -3.5343 3.4221 -3.5343Z "/></symbol><symbol id="g13C6F56327B440CEE3EF9E0968F3F466" overflow="visible"><path d="M 0 0m 3.652 7.073l 1.298 -3.982h -2.574Z m 0.946 -7.073h 3.223v 0.33l -1.012 0.088l -2.585 7.656h -0.616l -2.541 -7.634l -0.935 -0.11v -0.33h 2.464v 0.33l -1.067 0.11l 0.737 2.299h 2.805l 0.748 -2.31l -1.221 -0.099Z "/></symbol><symbol id="g7FDD4349A49914F62F30F23AE9794251" overflow="visible"><path d="M 0 0m 5.797 4.103c 0 0.506 -0.495 0.759 -1.045 0.759c -0.473 0 -0.847 -0.253 -1.133 -0.759c -0.231 0.506 -0.616 0.759 -1.177 0.759c -0.539 0 -0.979 -0.253 -1.331 -0.748c -0.297 -0.429 -0.451 -0.748 -0.451 -0.957c 0 -0.099 0.055 -0.154 0.165 -0.154c 0.099 0 0.165 0.055 0.187 0.154c 0.209 0.638 0.671 1.386 1.408 1.386c 0.363 0 0.539 -0.231 0.539 -0.682c 0 -0.231 -0.198 -1.089 -0.583 -2.563c -0.187 -0.737 -0.517 -1.1 -0.99 -1.1c -0.154 0 -0.297 0.033 -0.418 0.088c 0.286 0.11 0.429 0.308 0.429 0.594c 0 0.286 -0.143 0.429 -0.44 0.429c -0.363 0 -0.638 -0.308 -0.638 -0.671c 0 -0.506 0.517 -0.759 1.056 -0.759c 0.462 0 0.836 0.253 1.133 0.759c 0.209 -0.506 0.605 -0.759 1.177 -0.759c 0.528 0 0.968 0.253 1.32 0.748c 0.297 0.429 0.451 0.748 0.451 0.957c 0 0.099 -0.055 0.154 -0.165 0.154c -0.099 0 -0.154 -0.055 -0.187 -0.154c -0.187 -0.627 -0.682 -1.386 -1.397 -1.386c -0.363 0 -0.55 0.22 -0.55 0.671c 0 0.143 0.055 0.451 0.176 0.946l 0.374 1.485c 0.209 0.825 0.55 1.243 1.034 1.243c 0.154 0 0.297 -0.033 0.418 -0.088c -0.297 -0.099 -0.44 -0.297 -0.44 -0.594c 0 -0.286 0.154 -0.429 0.451 -0.429c 0.352 0 0.627 0.319 0.627 0.671Z "/></symbol><symbol id="gCFFEDE9C82D78D7703A652B0C82EC869" overflow="visible"><path d="M 0 0m 3.9732 2.4563c 0 0.8701 -0.154 1.5323 -0.4543 1.9866c -0.2464 0.385 -0.7392 0.6699 -1.3321 0.6699c -0.2464 0 -0.4697 -0.0385 -0.6622 -0.1232c -0.847 -0.3542 -1.1242 -1.3398 -1.1242 -2.5333c 0 -0.2618 0.0154 -0.5082 0.0385 -0.7469c 0.1309 -1.0087 0.6006 -1.8634 1.7479 -1.8634c 0.2464 0 0.4697 0.0385 0.6622 0.1232c 0.847 0.3465 1.1242 1.309 1.1242 2.4871Z m -0.8778 1.7094c 0.0847 -0.2849 0.1309 -0.8162 0.1309 -1.6093c 0 -0.7546 -0.0308 -1.2859 -0.1001 -1.6016c -0.0924 -0.4543 -0.4158 -0.8316 -0.9394 -0.8316c -0.1925 0 -0.385 0.0616 -0.5621 0.1925c -0.2387 0.1771 -0.385 0.5236 -0.4466 1.0549c -0.0231 0.1771 -0.0308 0.5698 -0.0308 1.1858c 0 0.7469 0.0385 1.2628 0.1155 1.54c 0.1309 0.4928 0.4389 0.7392 0.924 0.7392c 0.462 0 0.8008 -0.3003 0.9086 -0.6699Z "/></symbol><symbol id="g9C5E01F97914784D6046F24928CB3533" overflow="visible"><path d="M 0 0m 3.498 -2.728c 0.099 0 0.154 0.055 0.154 0.154c 0 0.033 -0.022 0.077 -0.055 0.121c -0.572 0.44 -1.034 1.166 -1.375 2.167c -0.297 0.869 -0.451 1.727 -0.451 2.574v 0.924c 0 0.847 0.154 1.705 0.451 2.574c 0.341 1.001 0.803 1.727 1.375 2.167c 0.033 0.033 0.055 0.077 0.055 0.121c 0 0.099 -0.055 0.154 -0.154 0.154c -0.011 0 -0.044 -0.011 -0.077 -0.033c -0.66 -0.506 -1.21 -1.254 -1.661 -2.255c -0.429 -0.957 -0.649 -1.859 -0.649 -2.728v -0.924c 0 -0.869 0.22 -1.771 0.649 -2.728c 0.451 -1.001 1.001 -1.749 1.661 -2.255c 0.033 -0.022 0.066 -0.033 0.077 -0.033Z "/></symbol><symbol id="g847DCE2A3EE7D23E3D551BDE0EE8A683" overflow="visible"><path d="M 0 0m 2.607 7.326c -0.561 0 -1.034 -0.198 -1.441 -0.594c -0.407 -0.396 -0.616 -0.858 -0.616 -1.419c 0 -0.374 0.275 -0.649 0.616 -0.649c 0.33 0 0.605 0.286 0.605 0.616c 0 0.363 -0.264 0.616 -0.616 0.616c -0.033 0 -0.055 0 -0.077 -0.011c 0.209 0.539 0.693 1.012 1.386 1.012c 0.902 0 1.408 -0.781 1.408 -1.727c 0 -0.737 -0.374 -1.529 -1.122 -2.365l -2.068 -2.332c -0.143 -0.165 -0.132 -0.154 -0.132 -0.473h 4.081l 0.319 1.98h -0.363c -0.088 -0.561 -0.165 -0.88 -0.231 -0.979c -0.055 -0.055 -0.385 -0.077 -0.99 -0.077h -1.837l 1.067 1.045c 0.748 0.704 1.694 1.463 2.013 2.046c 0.22 0.385 0.33 0.77 0.33 1.155c 0 1.298 -1.012 2.156 -2.332 2.156Z "/></symbol><symbol id="gF2E9DE7382F8BB82A14E9A8C0CA6C0F0" overflow="visible"><path d="M 0 0m 1.529 1.166c -0.352 0 -0.583 -0.264 -0.583 -0.616c 0 -0.33 0.253 -0.605 0.583 -0.605c 0.154 0 0.286 0.044 0.385 0.143l 0.011 -0.088c 0 -0.693 -0.231 -1.287 -0.693 -1.76c -0.077 -0.088 -0.121 -0.154 -0.121 -0.198c 0 -0.11 0.044 -0.165 0.143 -0.165c 0.099 0 0.231 0.132 0.418 0.385c 0.374 0.528 0.561 1.111 0.561 1.738c 0 0.583 -0.198 1.166 -0.704 1.166Z "/></symbol><symbol id="g5DF7FDD026DB928A9BECE5CB45FEF99F" overflow="visible"><path d="M 0 0m 2.739 -0.242c 1.551 0 2.321 1.254 2.321 3.762c 0 1.683 -0.352 2.805 -1.045 3.355c -0.385 0.297 -0.814 0.451 -1.265 0.451c -1.551 0 -2.321 -1.265 -2.321 -3.806c 0 -2.024 0.539 -3.762 2.31 -3.762Z m 1.232 6.006c 0.077 -0.385 0.11 -1.089 0.11 -2.112c 0 -1.012 -0.044 -1.76 -0.121 -2.244c -0.143 -0.88 -0.55 -1.32 -1.221 -1.32c -0.253 0 -0.506 0.099 -0.737 0.286c -0.297 0.253 -0.473 0.77 -0.55 1.562c -0.033 0.275 -0.044 0.847 -0.044 1.716c 0 0.957 0.033 1.628 0.088 1.991c 0.099 0.605 0.297 0.99 0.605 1.155c 0.242 0.132 0.451 0.198 0.638 0.198c 0.715 0 1.111 -0.583 1.232 -1.232Z "/></symbol><symbol id="g44903F1336FFA3AC82F2FDAECC383B22" overflow="visible"><path d="M 0 0m 0.858 -2.695c 0.66 0.506 1.21 1.254 1.661 2.255c 0.429 0.957 0.649 1.859 0.649 2.728v 0.924c 0 0.869 -0.22 1.771 -0.649 2.728c -0.451 1.001 -1.001 1.749 -1.661 2.255c -0.033 0.022 -0.066 0.033 -0.077 0.033c -0.099 0 -0.154 -0.055 -0.154 -0.154c 0 -0.044 0.022 -0.088 0.055 -0.121c 0.572 -0.44 1.034 -1.166 1.375 -2.167c 0.297 -0.869 0.451 -1.727 0.451 -2.574v -0.924c 0 -0.847 -0.154 -1.705 -0.451 -2.574c -0.341 -1.001 -0.803 -1.727 -1.375 -2.167c -0.033 -0.044 -0.055 -0.088 -0.055 -0.121c 0 -0.099 0.055 -0.154 0.154 -0.154c 0.011 0 0.044 0.011 0.077 0.033Z "/></symbol><symbol id="g152299F2F9213F814422AD9197AB2DB7" overflow="visible"><path d="M 0 0m 0.583 7.678l 1.133 -0.088c 0.011 -1.089 0.011 -2.178 0.011 -3.267v -0.583c 0 -1.122 0 -2.222 -0.011 -3.311l -1.133 -0.099v -0.33h 3.19c 2.255 0 3.113 1.034 3.113 2.178c 0 1.056 -0.715 1.859 -2.431 2.035c 1.43 0.275 2.002 1.034 2.002 1.892c 0 1.133 -0.825 1.903 -2.629 1.903h -3.245Z m 2.112 -3.674h 0.792c 1.672 0 2.409 -0.638 2.409 -1.837c 0 -1.166 -0.814 -1.804 -2.2 -1.804h -0.979c -0.022 1.111 -0.022 2.255 -0.022 3.641Z m 0.022 3.641h 0.836c 1.419 0 1.958 -0.572 1.958 -1.551c 0 -1.111 -0.715 -1.749 -2.134 -1.749h -0.682c 0 1.144 0 2.233 0.022 3.3Z "/></symbol><symbol id="gBFCC2410A697C41E2DD3187C83DA8F3" overflow="visible"><path d="M 0 0m 2.3331 5.1128c -0.3311 -0.3234 -0.8239 -0.4851 -1.4938 -0.4851v -0.3388c 0.4543 0 0.8162 0.0693 1.0934 0.2002v -3.8346c 0 -0.1001 -0.0077 -0.1617 -0.0308 -0.1925c -0.0385 -0.0847 -0.2695 -0.1309 -0.693 -0.1309h -0.3157v -0.3311l 1.3706 0.0308l 1.3783 -0.0308v 0.3311h -0.3157c -0.4235 0 -0.6545 0.0462 -0.7007 0.1309c -0.0154 0.0308 -0.0231 0.0924 -0.0231 0.1925v 4.2119c 0 0.2079 -0.0308 0.2464 -0.2695 0.2464Z "/></symbol><symbol id="g23FF2CB0A5B3999574DE734D483151BD" overflow="visible"><path d="M 0 0m 2.959 7.326c -0.451 -0.462 -1.111 -0.693 -1.98 -0.693v -0.429c 0.572 0 1.045 0.088 1.408 0.264v -5.566c 0 -0.198 -0.044 -0.33 -0.143 -0.385c -0.099 -0.055 -0.374 -0.088 -0.814 -0.088h -0.385v -0.429c 0.275 0.022 0.869 0.033 1.782 0.033c 0.913 0 1.507 -0.011 1.782 -0.033v 0.429h -0.385c -0.451 0 -0.726 0.033 -0.814 0.088c -0.088 0.055 -0.143 0.187 -0.143 0.385v 6.094c 0 0.264 -0.022 0.33 -0.308 0.33Z "/></symbol><symbol id="g93E2B88EAD8DFDF0BE4D6467DB923DB5" overflow="visible"><path d="M 0 0m 3.333 3.883c 0.726 0.275 1.408 0.968 1.408 1.903c 0 0.473 -0.231 0.858 -0.682 1.155c -0.396 0.253 -0.847 0.385 -1.353 0.385c -0.495 0 -0.924 -0.132 -1.309 -0.385c -0.429 -0.286 -0.649 -0.66 -0.649 -1.133c 0 -0.363 0.242 -0.616 0.594 -0.616c 0.352 0 0.594 0.253 0.594 0.605c 0 0.363 -0.209 0.561 -0.627 0.583c 0.286 0.385 0.737 0.583 1.353 0.583c 0.66 0 0.99 -0.385 0.99 -1.166c 0 -0.462 -0.088 -0.847 -0.253 -1.166c -0.297 -0.528 -0.704 -0.627 -1.386 -0.627c -0.132 -0.022 -0.198 -0.077 -0.198 -0.176c 0 -0.165 0.077 -0.165 0.297 -0.165h 0.473c 0.825 0 1.243 -0.583 1.243 -1.76c 0 -0.935 -0.341 -1.749 -1.177 -1.749c -0.715 0 -1.243 0.242 -1.562 0.726c 0.385 -0.011 0.671 0.275 0.671 0.649c 0 0.374 -0.275 0.649 -0.649 0.649c -0.429 0 -0.649 -0.22 -0.649 -0.671c 0 -0.539 0.242 -0.968 0.726 -1.309c 0.429 -0.297 0.935 -0.44 1.496 -0.44c 0.627 0 1.166 0.209 1.639 0.616c 0.473 0.407 0.704 0.913 0.704 1.529c 0 1.034 -0.814 1.749 -1.694 1.98Z "/></symbol><symbol id="g25B224D96CA3F5CCC7E774117FEA026D" overflow="visible"><path d="M 0 0m 0.9163 3.2648c 0.2464 0 0.4312 0.1848 0.4312 0.4312c 0 0.2772 -0.1463 0.4235 -0.4312 0.4312c 0.1694 0.3619 0.5544 0.6545 1.0549 0.6545c 0.6776 0 1.1242 -0.5082 1.1242 -1.1858c 0 -0.3696 -0.1309 -0.7238 -0.4004 -1.0703c -0.1309 -0.1771 -0.231 -0.3003 -0.3003 -0.3696l -1.8249 -1.8095c -0.1001 -0.0924 -0.0847 -0.1155 -0.0847 -0.3465h 3.1724l 0.2387 1.4476h -0.3234c -0.0539 -0.4081 -0.1155 -0.6468 -0.1848 -0.7007c -0.0385 -0.0231 -0.2772 -0.0385 -0.7315 -0.0385h -1.309c 0.5159 0.4543 0.9933 0.8624 1.4476 1.2243c 0.3465 0.2695 0.5929 0.5082 0.7469 0.7161c 0.231 0.3003 0.3465 0.616 0.3465 0.9471c 0 0.4774 -0.1848 0.8547 -0.5621 1.1319c -0.3311 0.2541 -0.7469 0.385 -1.2397 0.385c -0.4235 0 -0.7854 -0.1232 -1.1011 -0.3696c -0.3311 -0.2695 -0.5005 -0.6083 -0.5005 -1.0241c 0 -0.2618 0.1925 -0.4543 0.4312 -0.4543Z "/></symbol><symbol id="gAE482DA578200FA3765B7A490E273D69" overflow="visible"><path d="M 0 0m 3.883 7.447c -0.099 0 -0.187 -0.055 -0.253 -0.154l -3.322 -5.104v -0.396h 2.871v -0.902c 0 -0.198 -0.044 -0.33 -0.121 -0.385c -0.077 -0.055 -0.286 -0.077 -0.649 -0.077h -0.275v -0.429c 0.319 0.022 0.825 0.033 1.507 0.033c 0.682 0 1.188 -0.011 1.507 -0.033v 0.429h -0.275c -0.363 0 -0.572 0.022 -0.649 0.077c -0.077 0.055 -0.121 0.187 -0.121 0.385v 0.902h 1.078v 0.429h -1.078v 5.038c 0 0.11 -0.077 0.187 -0.22 0.187Z m -0.638 -1.364v -3.861h -2.508Z "/></symbol><symbol id="g777C235EA19CAB599B58B593B0044621" overflow="visible"><path d="M 0 0m 2.7181 2.7181c 0.5159 0.2079 1.0087 0.6622 1.0087 1.3167c 0 0.3465 -0.1848 0.6237 -0.5467 0.8239c -0.3003 0.1694 -0.6391 0.2541 -1.0164 0.2541c -0.3773 0 -0.7084 -0.077 -0.9933 -0.2387c -0.3465 -0.1925 -0.5236 -0.462 -0.5236 -0.8085c 0 -0.2926 0.1463 -0.4389 0.4312 -0.4389c 0.2387 0 0.4158 0.1848 0.4158 0.4235c 0 0.2387 -0.1232 0.3773 -0.3619 0.4158c 0.2233 0.2387 0.5544 0.3619 1.0087 0.3619c 0.5005 0 0.7854 -0.3003 0.7854 -0.7931c 0 -0.3619 -0.1001 -0.6545 -0.2926 -0.8855c -0.2156 -0.2541 -0.3696 -0.2926 -0.8162 -0.3234c -0.2079 -0.0154 -0.3465 0.0077 -0.3465 -0.1463c 0 -0.0924 0.077 -0.1386 0.2233 -0.1386h 0.4081c 0.6622 0 0.9856 -0.5005 0.9856 -1.1935c 0 -0.6776 -0.308 -1.1935 -0.9548 -1.1935c -0.5621 0 -0.9702 0.154 -1.2243 0.4697c 0.2695 0.0308 0.4081 0.1848 0.4081 0.4543c 0 0.2541 -0.1925 0.4466 -0.4466 0.4466c -0.3003 0 -0.4543 -0.154 -0.4543 -0.4697c 0 -0.3927 0.2002 -0.7084 0.5929 -0.9317c 0.3311 -0.1848 0.7084 -0.2772 1.1396 -0.2772c 0.4697 0 0.8778 0.1309 1.232 0.3927c 0.385 0.2849 0.5775 0.6545 0.5775 1.1088c 0 0.7161 -0.6237 1.2089 -1.2397 1.3706Z "/></symbol><symbol id="g8894C0A608DBD285706C131FF554A2B1" overflow="visible"><path d="M 0 0m 1.298 3.465c 0.055 0 0.121 0.044 0.176 0.121c 0.33 0.495 0.781 0.737 1.353 0.737c 0.385 0 0.682 -0.22 0.88 -0.671c 0.121 -0.297 0.187 -0.748 0.187 -1.353c 0 -0.693 -0.088 -1.177 -0.253 -1.463c -0.275 -0.451 -0.649 -0.682 -1.122 -0.682c -0.737 0 -1.32 0.528 -1.518 1.1c 0.033 -0.011 0.055 0 0.099 0c 0.33 0 0.605 0.253 0.605 0.583c 0 0.341 -0.275 0.572 -0.605 0.572c -0.385 0 -0.55 -0.209 -0.55 -0.616c 0 -1.1 0.891 -2.035 1.991 -2.035c 0.671 0 1.243 0.242 1.705 0.726c 0.462 0.484 0.693 1.067 0.693 1.738c 0 0.638 -0.187 1.188 -0.561 1.661c -0.407 0.517 -0.913 0.77 -1.529 0.77c -0.517 0 -0.968 -0.165 -1.331 -0.495v 1.958c 0.297 -0.088 0.583 -0.132 0.88 -0.132c 0.506 0 0.946 0.121 1.32 0.374c 0.341 0.209 0.572 0.418 0.704 0.616c 0.066 0.088 0.099 0.154 0.099 0.187c 0 0.11 -0.055 0.165 -0.165 0.165c -0.605 -0.231 -1.122 -0.352 -1.54 -0.352c -0.495 0 -0.968 0.099 -1.419 0.308c -0.055 0.022 -0.099 0.033 -0.143 0.033c -0.099 0 -0.154 -0.099 -0.154 -0.308v -3.212c 0 -0.231 0 -0.33 0.198 -0.33Z "/></symbol><symbol id="g72ED4E8BDD8DFFE80EC72D6074F65D44" overflow="visible"><path d="M 0 0m 3.0338 5.1898c -0.0847 0 -0.1617 -0.0385 -0.2233 -0.1155l -2.5102 -3.5112v -0.3157h 2.2253v -0.5929c 0 -0.1309 -0.0231 -0.2233 -0.077 -0.2618c -0.0539 -0.0385 -0.2233 -0.0616 -0.5005 -0.0616h -0.2387v -0.3311l 1.1627 0.0308l 1.1781 -0.0308v 0.3311h -0.231c -0.2849 0 -0.4543 0.0231 -0.5082 0.0616c -0.0539 0.0385 -0.077 0.1309 -0.077 0.2618v 0.5929h 0.8393v 0.3388h -0.8393v 3.3572c 0 0.1848 -0.0231 0.2464 -0.2002 0.2464Z m -0.4543 -0.9471v -2.6565h -1.9096Z "/></symbol><symbol id="gA754BD559092BEFA127826A2A25BC17" overflow="visible"><path d="M 0 0m 4.213 5.544c 0.363 0 0.539 0.187 0.539 0.561c 0 0.792 -0.594 1.221 -1.408 1.221c -0.913 0 -1.639 -0.429 -2.178 -1.298c -0.473 -0.748 -0.704 -1.595 -0.704 -2.552c 0 -1.397 0.253 -2.376 0.77 -2.959c 0.44 -0.506 0.946 -0.759 1.529 -0.759c 0.671 0 1.221 0.253 1.65 0.759c 0.407 0.484 0.616 1.067 0.616 1.738c 0 0.671 -0.198 1.243 -0.594 1.716c -0.418 0.506 -0.957 0.77 -1.606 0.77c -0.572 0 -1.012 -0.319 -1.309 -0.935v 0.066c 0 1.243 0.308 2.299 0.968 2.783c 0.286 0.209 0.583 0.308 0.88 0.308c 0.396 0 0.682 -0.11 0.869 -0.341c -0.374 0 -0.561 -0.209 -0.561 -0.539c 0 -0.308 0.231 -0.539 0.539 -0.539Z m -0.429 -1.804c 0.121 -0.253 0.187 -0.748 0.187 -1.474c 0 -0.715 -0.055 -1.188 -0.176 -1.43c -0.22 -0.451 -0.561 -0.682 -1.034 -0.682c -0.319 0 -0.561 0.11 -0.737 0.33c -0.143 0.176 -0.242 0.33 -0.286 0.451c -0.132 0.341 -0.198 0.858 -0.198 1.562c 0 0.308 0.044 0.605 0.121 0.891c 0.143 0.517 0.55 1.001 1.155 1.001c 0.429 0 0.759 -0.22 0.968 -0.649Z "/></symbol><symbol id="g293A68469737AFB939432645E7BDA476" overflow="visible"><path d="M 0 0m 5.225 6.644c 0.077 0.099 0.11 0.242 0.11 0.44h -2.662c -0.759 0 -1.188 0.044 -1.265 0.143c -0.033 0.033 -0.066 0.11 -0.088 0.209h -0.341l -0.374 -2.332h 0.363c 0.11 0.616 0.198 0.946 0.264 1.001c 0.033 0.033 0.374 0.055 1.023 0.055h 2.156l -1.166 -1.65c -0.891 -1.265 -1.331 -2.629 -1.331 -4.114c 0 -0.429 0.176 -0.638 0.539 -0.638c 0.363 0 0.539 0.209 0.539 0.638v 0.561c 0 1.672 0.264 2.882 0.781 3.619Z "/></symbol></defs></svg>