<svg xmlns="http://www.w3.org/2000/svg" viewBox="0 0 640 420" style="font-family:-apple-system,BlinkMacSystemFont,sans-serif">
<line x1="160.0" y1="30" x2="160.0" y2="370" stroke="rgba(0,0,0,0.08)" stroke-width="0.5"/>
<line x1="80" y1="308.2" x2="480" y2="308.2" stroke="rgba(0,0,0,0.08)" stroke-width="0.5"/>
<line x1="240.0" y1="30" x2="240.0" y2="370" stroke="rgba(0,0,0,0.08)" stroke-width="0.5"/>
<line x1="80" y1="246.4" x2="480" y2="246.4" stroke="rgba(0,0,0,0.08)" stroke-width="0.5"/>
<line x1="320.0" y1="30" x2="320.0" y2="370" stroke="rgba(0,0,0,0.08)" stroke-width="0.5"/>
<line x1="80" y1="184.5" x2="480" y2="184.5" stroke="rgba(0,0,0,0.08)" stroke-width="0.5"/>
<line x1="400.0" y1="30" x2="400.0" y2="370" stroke="rgba(0,0,0,0.08)" stroke-width="0.5"/>
<line x1="80" y1="122.7" x2="480" y2="122.7" stroke="rgba(0,0,0,0.08)" stroke-width="0.5"/>
<line x1="480.0" y1="30" x2="480.0" y2="370" stroke="rgba(0,0,0,0.08)" stroke-width="0.5"/>
<line x1="80" y1="60.9" x2="480" y2="60.9" stroke="rgba(0,0,0,0.08)" stroke-width="0.5"/>
<line x1="80" y1="30" x2="80" y2="370" stroke="#333" stroke-width="1.5"/>
<line x1="80" y1="370" x2="480" y2="370" stroke="#333" stroke-width="1.5"/>
<text x="80.0" y="390" text-anchor="middle" fill="#444" font-size="12">0</text>
<text x="160.0" y="390" text-anchor="middle" fill="#444" font-size="12">1</text>
<text x="240.0" y="390" text-anchor="middle" fill="#444" font-size="12">2</text>
<text x="320.0" y="390" text-anchor="middle" fill="#444" font-size="12">3</text>
<text x="400.0" y="390" text-anchor="middle" fill="#444" font-size="12">4</text>
<text x="480.0" y="390" text-anchor="middle" fill="#444" font-size="12">5</text>
<text x="72" y="312.2" text-anchor="end" fill="#444" font-size="12">1000</text>
<text x="72" y="250.4" text-anchor="end" fill="#444" font-size="12">2000</text>
<text x="72" y="188.5" text-anchor="end" fill="#444" font-size="12">3000</text>
<text x="72" y="126.7" text-anchor="end" fill="#444" font-size="12">4000</text>
<text x="72" y="64.9" text-anchor="end" fill="#444" font-size="12">5000</text>
<text x="280.0" y="412" text-anchor="middle" fill="#444" font-size="13">数量</text>
<text x="25" y="200.0" text-anchor="middle" fill="#444" font-size="12" transform="rotate(-90,25,200.0)">支払意思額／費用</text>
<line x1="80" y1="252.5" x2="480.0" y2="252.5" stroke="rgba(0,0,0,0.4)" stroke-width="1.2" stroke-dasharray="6,4"/>
<text x="72" y="256.5" text-anchor="end" fill="#444" font-size="11" font-weight="600">価格</text>
<text x="72" y="268.5" text-anchor="end" fill="#444" font-size="11">1900</text>
<g opacity="0">
  <animate attributeName="opacity" dur="16.0s" repeatCount="indefinite" calcMode="discrete" keyTimes="0.0000;0.1244;0.1250;0.3119;0.3125;0.4994;0.5000;0.6869;0.6875;0.8744;0.8750" values="0;0;1;1;1;1;1;1;1;1;1"/>
  <rect x="80.0" y="60.9" width="80.0" height="191.6" fill="rgba(160,82,45,0.22)" stroke="rgba(160,82,45,0.55)" stroke-width="1.5"/>
  <line x1="106.0" y1="63.9" x2="106.0" y2="249.5" stroke="#a0522d" stroke-width="1.3" opacity="0.7"/>
  <line x1="103.0" y1="63.9" x2="109.0" y2="63.9" stroke="#a0522d" stroke-width="1.3" opacity="0.7"/>
  <line x1="103.0" y1="249.5" x2="109.0" y2="249.5" stroke="#a0522d" stroke-width="1.3" opacity="0.7"/>
  <text x="116.0" y="161.7" fill="#a0522d" font-size="13" font-weight="700">3100</text>
</g>
<g opacity="0">
  <animate attributeName="opacity" dur="16.0s" repeatCount="indefinite" calcMode="discrete" keyTimes="0.0000;0.1244;0.1250;0.3119;0.3125;0.4994;0.5000;0.6869;0.6875;0.8744;0.8750" values="0;0;0;0;1;1;1;1;1;1;1"/>
  <rect x="160.0" y="153.6" width="80.0" height="98.9" fill="rgba(160,82,45,0.27)" stroke="rgba(160,82,45,0.6)" stroke-width="1.5"/>
  <line x1="186.0" y1="156.6" x2="186.0" y2="249.5" stroke="#a0522d" stroke-width="1.3" opacity="0.7"/>
  <line x1="183.0" y1="156.6" x2="189.0" y2="156.6" stroke="#a0522d" stroke-width="1.3" opacity="0.7"/>
  <line x1="183.0" y1="249.5" x2="189.0" y2="249.5" stroke="#a0522d" stroke-width="1.3" opacity="0.7"/>
  <text x="196.0" y="208.1" fill="#a0522d" font-size="13" font-weight="700">1600</text>
</g>
<g opacity="0">
  <animate attributeName="opacity" dur="16.0s" repeatCount="indefinite" calcMode="discrete" keyTimes="0.0000;0.1244;0.1250;0.3119;0.3125;0.4994;0.5000;0.6869;0.6875;0.8744;0.8750" values="0;0;0;0;0;0;1;1;1;1;1"/>
  <rect x="240.0" y="246.4" width="80.0" height="6.2" fill="rgba(160,82,45,0.32)" stroke="rgba(160,82,45,0.65)" stroke-width="1.5"/>
  <line x1="266.0" y1="249.4" x2="266.0" y2="249.5" stroke="#a0522d" stroke-width="1.3" opacity="0.7"/>
  <line x1="263.0" y1="249.4" x2="269.0" y2="249.4" stroke="#a0522d" stroke-width="1.3" opacity="0.7"/>
  <line x1="263.0" y1="249.5" x2="269.0" y2="249.5" stroke="#a0522d" stroke-width="1.3" opacity="0.7"/>
  <text x="280.0" y="241.4" text-anchor="middle" fill="#a0522d" font-size="13" font-weight="700">100</text>
</g>
<path fill="none" stroke="#a0522d" stroke-width="2.5" stroke-linejoin="miter" d="M80.0,60.9 L160.0,60.9 L160.0,153.6 L240.0,153.6 L240.0,246.4 L320.0,246.4 L320.0,308.2 L400.0,308.2 L400.0,332.9 L480.0,332.9"/>
<path fill="none" stroke="#1a3c6e" stroke-width="1.8" stroke-linejoin="miter" opacity="0.35" d="M80.0,329.8 L160.0,329.8 L160.0,311.3 L240.0,311.3 L240.0,258.7 L320.0,258.7 L320.0,172.2 L400.0,172.2 L400.0,91.8 L480.0,91.8"/>
<text x="408.0" y="324.9" fill="#a0522d" font-size="12" font-weight="600">需要曲線</text>
<g opacity="0">
  <animate attributeName="opacity" dur="16.0s" repeatCount="indefinite" calcMode="discrete" keyTimes="0.0000;0.1244;0.1250;0.3119;0.3125;0.4994;0.5000;0.6869;0.6875;0.8744;0.8750" values="0;0;1;1;1;1;1;1;1;1;1"/>
  <text x="498.0" y="54" fill="#444" font-size="13">1人目: 5000 − 1900</text>
  <text x="510.0" y="72" fill="#a0522d" font-size="14" font-weight="700">= 3100</text>
  <text x="498.0" y="90" fill="#444" font-size="11" opacity="0">小計: 3100
    <animate attributeName="opacity" dur="16.0s" repeatCount="indefinite" calcMode="discrete" keyTimes="0.0000;0.1244;0.1250;0.3119;0.3125;0.4994;0.5000;0.6869;0.6875;0.8744;0.8750" values="0;0;1;1;0;0;0;0;0;0;0"/>
  </text>
</g>
<g opacity="0">
  <animate attributeName="opacity" dur="16.0s" repeatCount="indefinite" calcMode="discrete" keyTimes="0.0000;0.1244;0.1250;0.3119;0.3125;0.4994;0.5000;0.6869;0.6875;0.8744;0.8750" values="0;0;0;0;1;1;1;1;1;1;1"/>
  <text x="498.0" y="106" fill="#444" font-size="13">2人目: 3500 − 1900</text>
  <text x="510.0" y="124" fill="#a0522d" font-size="14" font-weight="700">= 1600</text>
  <text x="498.0" y="142" fill="#444" font-size="11" opacity="0">小計: 4700
    <animate attributeName="opacity" dur="16.0s" repeatCount="indefinite" calcMode="discrete" keyTimes="0.0000;0.1244;0.1250;0.3119;0.3125;0.4994;0.5000;0.6869;0.6875;0.8744;0.8750" values="0;0;0;0;1;1;0;0;0;0;0"/>
  </text>
</g>
<g opacity="0">
  <animate attributeName="opacity" dur="16.0s" repeatCount="indefinite" calcMode="discrete" keyTimes="0.0000;0.1244;0.1250;0.3119;0.3125;0.4994;0.5000;0.6869;0.6875;0.8744;0.8750" values="0;0;0;0;0;0;1;1;1;1;1"/>
  <text x="498.0" y="158" fill="#444" font-size="13">3人目: 2000 − 1900</text>
  <text x="510.0" y="176" fill="#a0522d" font-size="14" font-weight="700">= 100</text>
</g>
<g opacity="0">
  <animate attributeName="opacity" dur="16.0s" repeatCount="indefinite" calcMode="discrete" keyTimes="0.0000;0.1244;0.1250;0.3119;0.3125;0.4994;0.5000;0.6869;0.6875;0.8744;0.8750" values="0;0;0;0;0;0;1;1;1;1;1"/>
  <line x1="498.0" y1="198" x2="633.0" y2="198" stroke="#444" stroke-width="1"/>
  <text x="498.0" y="214" fill="#a0522d" font-size="14" font-weight="700">消費者余剰 = 4800</text>
</g>
</svg>