<svg viewBox="0 0 539.76335748 372.263017323" width="539.76335748pt" height="372.263017323pt" xmlns="http://www.w3.org/2000/svg" xmlns:xlink="http://www.w3.org/1999/xlink" xmlns:h5="http://www.w3.org/1999/xhtml"><g transform="translate(1.417322835 1.417322835)"><path fill="none" stroke="#000000" stroke-width="1" stroke-linecap="butt" stroke-linejoin="miter" stroke-miterlimit="4" transform="translate(55.865930709 57.155130709)" d="M 0 0m 0 255.118110236v -282.040537958"/><path fill="none" stroke="#000000" stroke-width="1" stroke-linecap="butt" stroke-linejoin="miter" stroke-miterlimit="4" stroke-dashoffset="0" stroke-dasharray="" transform="translate(53.739946457 -219.216144257)" d="M 0 0m 0 255.118110236l 2.125984252 -5.669291339l 2.125984252 5.669291339"/><path fill="none" stroke="#000000" stroke-width="1" stroke-linecap="butt" stroke-linejoin="miter" stroke-miterlimit="4" transform="translate(55.865930709 57.155130709)" d="M 0 0m 0 255.118110236h 452.119278116"/><path fill="none" stroke="#000000" stroke-width="1" stroke-linecap="butt" stroke-linejoin="miter" stroke-miterlimit="4" stroke-dashoffset="0" stroke-dasharray="" transform="translate(502.315945832 59.281114961)" d="M 0 0m 0 250.866141732l 5.669291339 2.125984252l -5.669291339 2.125984252"/><path fill="none" stroke="#000000" stroke-width="1" stroke-linecap="butt" stroke-linejoin="miter" stroke-miterlimit="4" transform="translate(28.943502986 -197.962979528)" d="M 0 0m 452.119278116 255.118110236h -452.119278116"/><path fill="none" stroke="#000000" stroke-width="1" stroke-linecap="butt" stroke-linejoin="miter" stroke-miterlimit="4" stroke-dashoffset="0" stroke-dasharray="" transform="translate(28.943474641 -195.836995276)" d="M 0 0m 5.669291339 255.118110236l -5.669291339 -2.125984252l 5.669291339 -2.125984252"/><path fill="none" stroke="#000000" stroke-width="1" stroke-linecap="butt" stroke-linejoin="miter" stroke-miterlimit="4" transform="translate(481.062781102 84.077558431)" d="M 0 0m 0 -26.922427722v 282.040537958"/><path fill="none" stroke="#000000" stroke-width="1" stroke-linecap="butt" stroke-linejoin="miter" stroke-miterlimit="4" stroke-dashoffset="0" stroke-dasharray="" transform="translate(478.93679685 84.077586777)" d="M 0 0m 4.251968504 249.448818898l -2.125984252 5.669291339l -2.125984252 -5.669291339"/><path fill="none" transform="translate(509.409237795 62.308630709)" d="M 0 0m 0 244.811110236h 27.519474016v 10.307h -27.519474016v -10.307Z "/><g transform="translate(509.40923778 307.119740882)"><g transform="matrix(1 0 0 -1 8.503937008 7.513)"><use xlink:href="#gAB91A7DFDE77F31CB872F1FD393E8C99" x="0" y="0" fill="#000000" fill-rule="nonzero"/></g><g transform="matrix(1 0 0 -1 13.409937008 10.23)"><use xlink:href="#gB4F8E97E8EFD98CA94EE40D9890E0542" x="0" y="0" fill="#000000" fill-rule="nonzero"/></g></g><path fill="none" transform="translate(50.841130709 -226.30943622)" d="M 0 0m 0 226.30943622h 10.0496v 28.808674016h -10.0496v -28.808674016Z "/><g transform="translate(50.841130646 -1.42e-7)"><g transform="matrix(1 0 0 -1 0 16.016937008)"><use xlink:href="#gAB91A7DFDE77F31CB872F1FD393E8C99" x="0" y="0" fill="#000000" fill-rule="nonzero"/></g><g transform="matrix(1 0 0 -1 4.906 18.733937008)"><use xlink:href="#g7058399F9FB7CD69929F2864C4EDB984" x="0" y="0" fill="#000000" fill-rule="nonzero"/></g></g><path fill="none" transform="translate(0 -192.809479528)" d="M 0 0m 0 244.811110236h 27.519474016v 10.307h -27.519474016v -10.307Z "/><g transform="translate(-1.6e-8 52.001630646)"><g transform="matrix(1 0 0 -1 8.503937008 7.513)"><use xlink:href="#gAB91A7DFDE77F31CB872F1FD393E8C99" x="0" y="0" fill="#000000" fill-rule="nonzero"/></g><g transform="matrix(1 0 0 -1 13.409937008 10.23)"><use xlink:href="#gB4F8E97E8EFD98CA94EE40D9890E0542" x="0" y="0" fill="#000000" fill-rule="nonzero"/></g></g><path fill="none" transform="translate(476.037981102 114.310261417)" d="M 0 0m 0 226.30943622h 10.0496v 28.808674016h -10.0496v -28.808674016Z "/><g transform="translate(476.037981039 340.619697496)"><g transform="matrix(1 0 0 -1 0 16.016937008)"><use xlink:href="#gAB91A7DFDE77F31CB872F1FD393E8C99" x="0" y="0" fill="#000000" fill-rule="nonzero"/></g><g transform="matrix(1 0 0 -1 4.906 18.733937008)"><use xlink:href="#g7058399F9FB7CD69929F2864C4EDB984" x="0" y="0" fill="#000000" fill-rule="nonzero"/></g></g><path fill="none" transform="translate(41.480130709 67.385130709)" d="M 0 0m 0 244.888110236h 14.3858v 10.23h -14.3858v -10.23Z "/><g transform="translate(41.480130646 312.273240898)"><g transform="matrix(1 0 0 -1 0 7.513)"><use xlink:href="#g93668732B0E42348DDA57839D5743AC6" x="0" y="0" fill="#000000" fill-rule="nonzero"/></g><g transform="matrix(1 0 0 -1 7.733 10.23)"><use xlink:href="#gE181C2F2AEAF9A42C82A15275CB4AE73" x="0" y="0" fill="#000000" fill-rule="nonzero"/></g></g><path fill="none" transform="translate(481.062781102 -197.962979528)" d="M 0 0m 0 244.888110236h 16.1029v 10.23h -16.1029v -10.23Z "/><g transform="translate(481.062781071 46.925130661)"><g transform="matrix(1 0 0 -1 0 7.513)"><use xlink:href="#g93668732B0E42348DDA57839D5743AC6" x="0" y="0" fill="#000000" fill-rule="nonzero"/></g><g transform="matrix(1 0 0 -1 7.733 10.23)"><use xlink:href="#g70552F85AA7D84D8CDB4439B50ED3E9C" x="0" y="0" fill="#000000" fill-rule="nonzero"/></g></g><path fill="#000000" fill-rule="nonzero" stroke="#000000" stroke-width="1" stroke-linecap="butt" stroke-linejoin="miter" stroke-miterlimit="4" transform="translate(479.062781102 -195.962979528)" d="M 0 0m 2 251.118110236c -1.103568 0 -2 0.896432 -2 2c 0 1.103568 0.896432 2 2 2c 1.103568 0 2 -0.896432 2 -2c 0 -1.103568 -0.896432 -2 -2 -2Z "/><path fill="#000000" fill-rule="nonzero" stroke="#000000" stroke-width="1" stroke-linecap="butt" stroke-linejoin="miter" stroke-miterlimit="4" transform="translate(53.865930709 59.155130709)" d="M 0 0m 2 251.118110236c -1.103568 0 -2 0.896432 -2 2c 0 1.103568 0.896432 2 2 2c 1.103568 0 2 -0.896432 2 -2c 0 -1.103568 -0.896432 -2 -2 -2Z "/><path fill="none" stroke="#000000" stroke-width="1" stroke-linecap="butt" stroke-linejoin="miter" stroke-miterlimit="4" stroke-dashoffset="0" stroke-dasharray="3 3" transform="translate(55.865930709 57.155130709)" d="M 0 0m 0 255.118110236c 155.110867993 -62.818812881 296.843151458 -147.85818296 425.196850394 -255.118110236"/><path fill="none" stroke="#b29a00" stroke-width="3" stroke-linecap="butt" stroke-linejoin="miter" stroke-miterlimit="4" transform="translate(237.283253543 -29.585026772)" d="M 0 0m 0 255.118110236c 19.421519458 -10.491307206 38.319157253 -21.829889884 56.692913386 -34.015748031"/><path fill="none" transform="translate(226.283253543 -78.907861417)" d="M 0 0m 0 246.648110236h 22v 8.47h -22v -8.47Z "/><g transform="translate(226.283253417 167.740248787)"><g transform="matrix(1 0 0 -1 0 8.063)"><use xlink:href="#g9B00010175FBF9E29019B9C15386D518" x="0" y="0" fill="#000000" fill-rule="nonzero"/><use xlink:href="#gF2FF962E3B934999F5A81C9BCD629642" x="11" y="0" fill="#000000" fill-rule="nonzero"/></g></g><path fill="none" stroke="#000000" stroke-width="1" stroke-linecap="butt" stroke-linejoin="miter" stroke-miterlimit="4" transform="translate(237.283253543 -46.165803618)" d="M 0 0m 0 222.376052437l 16.3710289 32.742057799"/><path fill="none" stroke="#000000" stroke-width="1" stroke-linecap="butt" stroke-linejoin="miter" stroke-miterlimit="4" stroke-dashoffset="0" stroke-dasharray="" transform="translate(249.217372833 -46.165778263)" d="M 0 0m 3.803076245 249.096572848l 0.633846041 6.021537388l -4.436922286 -4.119999266"/><path fill="none" transform="translate(282.637584252 -56.230696063)" d="M 0 0m 0 186.131110236h 44v 68.987h -44v -68.987Z "/><g transform="translate(282.637584142 129.90041411)"><g transform="matrix(1 0 0 -1 0 38.063)"><use xlink:href="#g97A9ABDD6C68BCB45940B392557DA6A5" x="0" y="0" fill="#000000" fill-rule="nonzero"/><use xlink:href="#gF8E1A5116BB8E733020F756AB859ABF5" x="11" y="0" fill="#000000" fill-rule="nonzero"/><use xlink:href="#g79C94DB2F1B1DDEE1D9DCDAD256ED781" x="22" y="0" fill="#000000" fill-rule="nonzero"/><use xlink:href="#g640DCB00AFA161691FD6897D0580E8E4" x="33" y="0" fill="#000000" fill-rule="nonzero"/></g></g><path fill="none" stroke="#000000" stroke-width="1" stroke-linecap="butt" stroke-linejoin="miter" stroke-miterlimit="4" transform="translate(283.370241113 -57.451790831)" d="M 0 0m 16.275217155 227.992748312l -16.275217155 27.125361925"/><path fill="none" stroke="#000000" stroke-width="1" stroke-linecap="butt" stroke-linejoin="miter" stroke-miterlimit="4" stroke-dashoffset="0" stroke-dasharray="" transform="translate(283.370226528 -57.451766525)" d="M 0 0m 4.739842786 251.350542893l -4.739842786 3.767567343l 1.093809874 -5.95518709"/><path fill="#000000" fill-rule="nonzero" stroke="#000000" stroke-width="1" stroke-linecap="butt" stroke-linejoin="miter" stroke-miterlimit="4" transform="translate(280.637584252 -54.230696063)" d="M 0 0m 2 251.118110236c -1.103568 0 -2 0.896432 -2 2c 0 1.103568 0.896432 2 2 2c 1.103568 0 2 -0.896432 2 -2c 0 -1.103568 -0.896432 -2 -2 -2Z "/><path fill="none" transform="translate(169.25175748 -124.262192126)" d="M 0 0m 0 240.461818898h 49.669291339v 14.656291339h -49.669291339v -14.656291339Z "/><g transform="translate(169.25175737 116.199626756)"><g transform="matrix(1 0 0 -1 2.834645669 10.897645669)"><use xlink:href="#g194BCA7C5D601129CE91E1512FFBF619" x="0" y="0" fill="#000000" fill-rule="nonzero"/><use xlink:href="#gE9BF996C01DF95F710873C112C72A4FB" x="11" y="0" fill="#000000" fill-rule="nonzero"/><use xlink:href="#g7C57BCCA2936451C7AD0E10D32A7C125" x="22" y="0" fill="#000000" fill-rule="nonzero"/><use xlink:href="#gD148177F690142A2C5B5153E7DA06DF8" x="33" y="0" fill="#000000" fill-rule="nonzero"/></g></g><path fill="#000000" fill-rule="nonzero" stroke="#000000" stroke-width="1" stroke-linecap="butt" stroke-linejoin="miter" stroke-miterlimit="4" transform="translate(167.25175748 -122.262192126)" d="M 0 0m 2 251.118110236c -1.103568 0 -2 0.896432 -2 2c 0 1.103568 0.896432 2 2 2c 1.103568 0 2 -0.896432 2 -2c 0 -1.103568 -0.896432 -2 -2 -2Z "/><path fill="none" stroke="#0074d9" stroke-width="1" stroke-linecap="butt" stroke-linejoin="miter" stroke-miterlimit="4" transform="translate(163.582466142 -10.625372046)" d="M 0 0m 181.417322835 254.867116928c -116.239748953 4.378726895 -176.712189898 -48.534658932 -181.417322835 -158.74015748"/><path fill="none" stroke="#b22e26" stroke-width="1" stroke-linecap="butt" stroke-linejoin="miter" stroke-miterlimit="4" transform="translate(135.236009449 3.296862992)" d="M 0 0m 0 130.393700787c 111.029352802 -14.047630889 169.612029967 27.52717226 175.748031496 124.724409449"/></g><defs><symbol id="gAB91A7DFDE77F31CB872F1FD393E8C99" overflow="visible"><path d="M 0 0m 4.092 4.147c -0.22 0.473 -0.561 0.715 -1.012 0.715c -0.715 0 -1.342 -0.363 -1.881 -1.1c -0.506 -0.682 -0.759 -1.386 -0.759 -2.123c 0 -0.957 0.55 -1.782 1.463 -1.782c 0.396 0 0.792 0.187 1.199 0.561l -0.451 -1.804c -0.033 -0.165 -0.132 -0.264 -0.286 -0.297c -0.055 -0.011 -0.198 -0.022 -0.451 -0.022c -0.066 -0.011 -0.11 -0.011 -0.132 -0.011c -0.099 -0.011 -0.154 -0.099 -0.154 -0.253v -0.044c 0.033 -0.077 0.099 -0.121 0.187 -0.121c 0.209 0 0.869 0.033 1.078 0.033c 0.209 0 0.902 -0.033 1.111 -0.033c 0.154 0 0.231 0.088 0.231 0.264c 0 0.11 -0.11 0.165 -0.319 0.165c -0.198 0 -0.473 -0.011 -0.473 0.121c 0 0.044 0.011 0.121 0.044 0.231l 1.485 6.05c 0 0.099 -0.055 0.154 -0.154 0.154c -0.198 0 -0.616 -0.55 -0.726 -0.704Z m -0.352 -0.044c 0.099 -0.231 0.154 -0.385 0.154 -0.484c 0 -0.011 -0.011 -0.077 -0.033 -0.176l -0.264 -1.067c -0.209 -0.792 -0.308 -1.199 -0.319 -1.221c -0.209 -0.385 -0.814 -0.979 -1.342 -0.979c -0.429 0 -0.649 0.33 -0.649 0.979c 0 0.506 0.341 1.738 0.495 2.145c 0.209 0.517 0.693 1.232 1.298 1.232c 0.297 0 0.517 -0.143 0.66 -0.429Z "/></symbol><symbol id="gB4F8E97E8EFD98CA94EE40D9890E0542" overflow="visible"><path d="M 0 0m 4.4891 2.8105c 0 0.3927 -0.4004 0.5852 -0.8162 0.5852c -0.3465 0 -0.6314 -0.1694 -0.847 -0.5082c -0.1848 0.3388 -0.4928 0.5082 -0.9163 0.5082c -0.2849 0 -0.5852 -0.1232 -0.8855 -0.3773c -0.3157 -0.2618 -0.4774 -0.5313 -0.4774 -0.8085c 0 -0.0847 0.0539 -0.1309 0.154 -0.1309c 0.0847 0 0.1386 0.0462 0.1771 0.1463c 0.1386 0.4158 0.5159 0.9009 1.0087 0.9009c 0.2849 0 0.4235 -0.154 0.4235 -0.4697c 0 -0.1001 -0.0539 -0.3619 -0.154 -0.7854l -0.2618 -1.0318c -0.0693 -0.2926 -0.3542 -0.6468 -0.6853 -0.6468c -0.1309 0 -0.2464 0.0231 -0.3388 0.077c 0.154 0.0693 0.2926 0.2387 0.2926 0.4158c 0 0.1848 -0.1463 0.3157 -0.3311 0.3157c -0.2618 0 -0.462 -0.231 -0.462 -0.4928c 0 -0.385 0.4081 -0.5852 0.8239 -0.5852c 0.3542 0 0.6391 0.1694 0.847 0.5082c 0.1848 -0.3388 0.4851 -0.5082 0.9086 -0.5082c 0.4235 0 0.7623 0.1694 1.0241 0.5082c 0.2233 0.3003 0.3388 0.5313 0.3388 0.6776c 0 0.0847 -0.0462 0.1309 -0.1463 0.1309c -0.0847 0 -0.1463 -0.0539 -0.1771 -0.154c -0.1309 -0.4081 -0.5236 -0.8932 -1.0087 -0.8932c -0.2849 0 -0.4312 0.154 -0.4312 0.462c 0 0.1155 0.1309 0.693 0.3927 1.7171c 0.1309 0.5005 0.3619 0.7546 0.7084 0.7546l 0.0693 -0.0077c 0.0924 0 0.1848 -0.0231 0.2695 -0.0616c -0.1925 -0.0847 -0.2849 -0.2233 -0.2849 -0.4235c 0 -0.1848 0.1463 -0.3157 0.3311 -0.3157c 0.2618 0 0.4543 0.231 0.4543 0.4928Z "/></symbol><symbol id="g7058399F9FB7CD69929F2864C4EDB984" overflow="visible"><path d="M 0 0m 4.0348 3.3187c -0.154 0 -0.2695 -0.0693 -0.3388 -0.2002c -0.0154 -0.0231 -0.0539 -0.1694 -0.1232 -0.4466l -0.462 -1.848c -0.0539 -0.0847 -0.1001 -0.1617 -0.154 -0.2233c -0.2464 -0.2849 -0.5005 -0.4235 -0.7546 -0.4235c -0.3234 0 -0.4851 0.2002 -0.4851 0.6006c 0 0.2849 0.1309 0.7777 0.4004 1.463c 0.0847 0.231 0.1309 0.3927 0.1309 0.4774c 0 0.4004 -0.3465 0.6776 -0.7469 0.6776c -0.3696 0 -0.6622 -0.1848 -0.8778 -0.5544c -0.1771 -0.3003 -0.2618 -0.5159 -0.2618 -0.6391c 0 -0.0847 0.0539 -0.1309 0.1617 -0.1309c 0.0847 0 0.1386 0.0462 0.1617 0.1463c 0.1771 0.6006 0.4466 0.9009 0.7931 0.9009c 0.1001 0 0.154 -0.077 0.154 -0.231c 0 -0.1155 -0.0308 -0.2541 -0.1001 -0.4312c -0.1617 -0.4081 -0.2541 -0.6622 -0.2926 -0.7623c -0.1001 -0.3003 -0.1463 -0.5698 -0.1463 -0.7931c 0 -0.6545 0.4235 -0.9933 1.078 -0.9933c 0.2849 0 0.539 0.0924 0.7777 0.2849c -0.1155 -0.4389 -0.2695 -0.7777 -0.4697 -1.0164c -0.2772 -0.3157 -0.5698 -0.4697 -0.8855 -0.4697c -0.2387 0 -0.4158 0.0616 -0.5236 0.1925c 0.2156 0.0539 0.3927 0.2002 0.3927 0.4466c 0 0.2079 -0.1078 0.3157 -0.3311 0.3157c -0.2772 0 -0.4697 -0.2541 -0.4697 -0.5313c 0 -0.4543 0.4466 -0.7007 0.9317 -0.7007c 0.4543 0 0.8624 0.154 1.2397 0.4543c 0.3773 0.3003 0.616 0.6776 0.7238 1.1165l 0.7238 2.8721c 0.0231 0.0847 0.0308 0.1386 0.0308 0.1771c 0 0.154 -0.1232 0.2695 -0.2772 0.2695Z "/></symbol><symbol id="g93668732B0E42348DDA57839D5743AC6" overflow="visible"><path d="M 0 0m 7.722 2.893c 0.275 0.627 0.418 1.254 0.418 1.892c 0 0.858 -0.253 1.562 -0.77 2.123c -0.517 0.561 -1.199 0.847 -2.046 0.847c -0.583 0 -1.166 -0.143 -1.749 -0.429c -1.188 -0.583 -2.057 -1.507 -2.618 -2.761c -0.275 -0.616 -0.418 -1.232 -0.418 -1.859c 0 -0.869 0.253 -1.573 0.77 -2.123c 0.517 -0.55 1.199 -0.825 2.057 -0.825c 0.572 0 1.144 0.143 1.727 0.418c 1.199 0.583 2.068 1.496 2.629 2.717Z m -0.638 2.321c 0 -1.463 -0.66 -2.926 -1.364 -3.795c -0.484 -0.605 -1.32 -1.287 -2.288 -1.287c -1.177 0 -1.793 1.023 -1.793 2.266c 0 0.385 0.077 0.902 0.22 1.529c 0.297 1.298 1.045 2.442 2.024 3.036c 0.473 0.286 0.935 0.429 1.375 0.429c 1.188 0 1.826 -0.946 1.826 -2.178Z "/></symbol><symbol id="gE181C2F2AEAF9A42C82A15275CB4AE73" overflow="visible"><path d="M 0 0m 2.1483 0.3773l 1.0549 4.2196c 0.0231 0.1001 0.0539 0.1694 0.077 0.2079c 0.0616 0.0847 0.2926 0.1232 0.6853 0.1232c 0.2156 0 0.3388 0 0.3388 0.2002c -0.0231 0.077 -0.0385 0.1309 -0.1617 0.1309c -0.1771 -0.0077 -0.3619 -0.0154 -0.5621 -0.0231l -0.6083 -0.0077l -0.5236 0.0077c -0.0924 0 -0.4004 0.0231 -0.4928 0.0231c -0.1309 0 -0.1925 -0.0693 -0.1925 -0.2002c 0 -0.0847 0.0539 -0.1232 0.154 -0.1309l 0.4081 -0.0154c 0.0924 -0.0077 0.1463 -0.0077 0.1463 -0.077l -1.0395 -4.2042c -0.0385 -0.154 -0.1155 -0.2464 -0.231 -0.2849c -0.0385 -0.0077 -0.1694 -0.0154 -0.4081 -0.0154h -0.1309c -0.0847 -0.0077 -0.1309 -0.0693 -0.1309 -0.1848c 0 -0.1309 0.1001 -0.1463 0.2618 -0.1463h 3.8192c 0.2156 0 0.2233 0.0154 0.2926 0.1694c 0.0154 0.0385 0.077 0.2002 0.1848 0.5005l 0.3157 0.8393c 0.1001 0.2541 0.1463 0.3927 0.1463 0.4158c 0 0.0924 -0.0539 0.1386 -0.1617 0.1386c -0.0693 0 -0.1155 -0.0308 -0.1386 -0.0847c -0.2002 -0.4774 -0.2079 -0.5544 -0.4697 -0.9394c -0.2772 -0.4235 -0.8393 -0.7084 -1.5554 -0.7084h -0.8624c -0.1386 0 -0.2156 -0.0154 -0.2156 0.0462Z "/></symbol><symbol id="g70552F85AA7D84D8CDB4439B50ED3E9C" overflow="visible"><path d="M 0 0m 6.8838 5.2283c -0.1694 0 -0.7546 0.0308 -0.924 0.0308c -0.1309 0 -0.1925 -0.0693 -0.1925 -0.2002c 0.0231 -0.077 0.0308 -0.1232 0.1463 -0.1309c 0.1078 -0.0077 0.1617 -0.0385 0.1617 -0.077c 0 -0.0847 -0.1078 -0.2002 -0.3234 -0.3542l -3.1185 -2.1868l 0.5852 2.3177c 0.0385 0.154 0.1155 0.2464 0.231 0.2849c 0.0385 0.0077 0.1694 0.0154 0.4081 0.0154c 0.1771 0 0.2618 0.0385 0.2618 0.1848c 0 0.1001 -0.0539 0.1463 -0.154 0.1463c -0.1925 0 -0.8085 -0.0308 -1.001 -0.0308c -0.3619 0 -0.8393 0.0308 -1.0087 0.0308c -0.1232 0 -0.1848 -0.0693 -0.1848 -0.2002c 0 -0.0847 0.0924 -0.1309 0.2772 -0.1309c 0.2695 0 0.4312 0.0154 0.4312 -0.0924l -1.0472 -4.2042c -0.0385 -0.154 -0.1155 -0.2464 -0.231 -0.2772c -0.0385 -0.0154 -0.1771 -0.0231 -0.4081 -0.0231c -0.1771 0 -0.2618 -0.0231 -0.2618 -0.2002c 0.0231 -0.0847 0.0308 -0.1309 0.154 -0.1309c 0.1848 0 0.8085 0.0308 0.9933 0.0308c 0.3619 0 0.847 -0.0308 1.0164 -0.0308c 0.1232 0 0.1848 0.0693 0.1848 0.2002c 0 0.0693 -0.0231 0.1078 -0.077 0.1155c -0.0847 0.0077 -0.1463 0.0154 -0.1925 0.0154c -0.231 0.0077 -0.4389 -0.0077 -0.4389 0.1001l 0.3542 1.4476l 1.232 0.8624l 1.0934 -2.1098c 0.0308 -0.0616 0.0462 -0.1078 0.0462 -0.1309c 0 -0.1155 -0.1078 -0.1694 -0.3234 -0.1694c -0.1617 0 -0.2233 -0.0539 -0.2233 -0.2002c 0.0231 -0.0847 0.0308 -0.1309 0.154 -0.1309c 0.1848 0 0.7931 0.0308 0.9779 0.0308c 0.1463 0 0.6006 -0.0308 0.7469 -0.0308c 0.1232 0 0.1848 0.0616 0.1848 0.1925c 0 0.0924 -0.0693 0.1386 -0.2002 0.1386c -0.2387 0 -0.4004 0.077 -0.4774 0.2387c -0.4466 0.8701 -0.9009 1.7248 -1.3398 2.6026l 0.1617 0.1309l 0.77 0.539c 0.5698 0.3927 0.8855 0.616 0.9471 0.6545c 0.4235 0.2618 0.7777 0.4081 1.0626 0.4312c 0.1309 0.0077 0.2002 0.077 0.2002 0.1925c 0 0.0847 -0.0462 0.1309 -0.1309 0.1309c -0.0924 0 -0.4312 -0.0231 -0.5236 -0.0231Z "/></symbol><symbol id="g9B00010175FBF9E29019B9C15386D518" overflow="visible"><path d="M 0 0m 1.749 1.474v -1.001c 0.297 0.022 0.792 0.044 1.243 0.044h 5.379l -0.022 -0.616h 0.99c -0.011 0.176 -0.044 0.671 -0.044 1.067v 5.676c 0 0.264 0.022 0.605 0.033 0.858c -0.22 -0.011 -0.55 -0.022 -0.814 -0.022h -5.423c -0.352 0 -0.836 0.022 -1.199 0.066v -0.979c 0.253 0.011 0.803 0.033 1.21 0.033h 5.269v -5.192h -5.401c -0.462 0 -0.935 0.033 -1.221 0.066Z "/></symbol><symbol id="gF2FF962E3B934999F5A81C9BCD629642" overflow="visible"><path d="M 0 0m 10.241 7.436l -0.539 0.517c -0.165 -0.033 -0.561 -0.066 -0.77 -0.066c -0.66 0 -5.786 0 -6.314 0c -0.407 0 -0.869 0.044 -1.254 0.099v -1.001c 0.429 0.044 0.847 0.066 1.254 0.066c 0.517 0 5.5 0 6.27 0c -0.363 -0.682 -1.397 -1.881 -2.409 -2.464l 0.726 -0.583c 1.254 0.869 2.299 2.288 2.739 3.036c 0.077 0.121 0.22 0.286 0.297 0.396Z m -4.389 -1.452h -0.99c 0.033 -0.286 0.044 -0.528 0.044 -0.792c 0 -1.837 -0.242 -3.41 -1.947 -4.444c -0.308 -0.22 -0.682 -0.396 -0.99 -0.495l 0.814 -0.66c 2.805 1.397 3.069 3.41 3.069 6.391Z "/></symbol><symbol id="g97A9ABDD6C68BCB45940B392557DA6A5" overflow="visible"><path d="M 0 0m 1.683 5.412v -4.928h 0.825v 4.125h 2.53v -5.522h 0.858v 5.522h 2.695v -3.069c 0 -0.154 -0.044 -0.209 -0.242 -0.22c -0.198 0 -0.858 0 -1.606 0.022c 0.11 -0.231 0.242 -0.572 0.286 -0.814c 0.935 0 1.562 0.011 1.936 0.143c 0.374 0.132 0.473 0.385 0.473 0.858v 3.883h -3.542v 1.496h 4.565v 0.803h -4.554v 1.584h -0.88v -1.584h -4.466v -0.803h 4.477v -1.496Z "/></symbol><symbol id="gF8E1A5116BB8E733020F756AB859ABF5" overflow="visible"><path d="M 0 0m 5.467 6.831h 3.542v -0.869h -3.542Z m 0 1.463h 3.542v -0.869h -3.542Z m -0.748 0.616v -3.575h 5.06v 3.575Z m -1.078 -4.191v -0.715h 1.54c -0.528 -0.902 -1.331 -1.683 -2.2 -2.211c 0.176 -0.11 0.451 -0.374 0.572 -0.506c 0.495 0.341 1.001 0.77 1.441 1.265h 1.111c -0.605 -1.001 -1.573 -1.991 -2.486 -2.486c 0.198 -0.132 0.418 -0.341 0.55 -0.517c 1.023 0.649 2.112 1.859 2.695 3.003h 1.067c -0.462 -1.188 -1.276 -2.398 -2.178 -3.003c 0.22 -0.11 0.473 -0.308 0.616 -0.473c 0.946 0.726 1.804 2.145 2.244 3.476h 0.858c -0.143 -1.738 -0.297 -2.442 -0.495 -2.64c -0.077 -0.099 -0.176 -0.121 -0.33 -0.121c -0.154 0 -0.528 0.011 -0.935 0.055c 0.11 -0.187 0.176 -0.484 0.187 -0.682c 0.429 -0.022 0.858 -0.022 1.089 0c 0.264 0.022 0.462 0.077 0.638 0.275c 0.297 0.319 0.473 1.177 0.649 3.465c 0.011 0.11 0.022 0.33 0.022 0.33h -4.763c 0.176 0.242 0.33 0.506 0.473 0.77h 4.565v 0.715Z m -3.267 -2.761l 0.319 -0.825c 0.924 0.451 2.134 1.045 3.256 1.606l -0.176 0.726l -1.122 -0.506v 3.113h 1.188v 0.792h -1.188v 2.288h -0.781v -2.288h -1.287v -0.792h 1.287v -3.465c -0.572 -0.253 -1.089 -0.484 -1.496 -0.649Z "/></symbol><symbol id="g79C94DB2F1B1DDEE1D9DCDAD256ED781" overflow="visible"><path d="M 0 0m 4.818 5.192v -0.759h 3.421v 0.759Z m -0.506 -3.553l 0.341 -0.77c 1.078 0.407 2.519 0.979 3.861 1.518l -0.143 0.715c -1.496 -0.561 -3.058 -1.133 -4.059 -1.463Z m 1.265 7.601c -0.418 -1.54 -1.133 -3.036 -2.046 -3.993c 0.209 -0.121 0.561 -0.374 0.726 -0.528c 0.429 0.517 0.847 1.177 1.21 1.903h 4.059c -0.143 -4.466 -0.319 -6.16 -0.671 -6.534c -0.132 -0.143 -0.253 -0.187 -0.473 -0.176c -0.264 0 -0.946 0 -1.683 0.066c 0.143 -0.242 0.253 -0.594 0.275 -0.836c 0.66 -0.033 1.342 -0.055 1.727 -0.011c 0.396 0.033 0.649 0.132 0.902 0.462c 0.44 0.539 0.605 2.299 0.759 7.381c 0.011 0.121 0.011 0.44 0.011 0.44h -4.543c 0.231 0.528 0.418 1.078 0.583 1.639Z m -5.203 -7.469l 0.297 -0.825c 1.023 0.418 2.376 0.99 3.641 1.529l -0.176 0.781l -1.375 -0.561v 3.201h 1.298v 0.781h -1.298v 2.497h -0.803v -2.497h -1.386v -0.781h 1.386v -3.52c -0.594 -0.231 -1.144 -0.451 -1.584 -0.605Z "/></symbol><symbol id="g640DCB00AFA161691FD6897D0580E8E4" overflow="visible"><path d="M 0 0m 2.178 9.24c -0.396 -0.726 -1.177 -1.617 -1.87 -2.189c 0.132 -0.143 0.341 -0.451 0.44 -0.627c 0.792 0.66 1.639 1.65 2.189 2.541Z m 5.709 -0.638v -0.759h 2.541v 0.759Z m -5.478 -1.562c -0.539 -1.166 -1.397 -2.332 -2.222 -3.124c 0.143 -0.176 0.385 -0.55 0.473 -0.715c 0.319 0.319 0.638 0.693 0.957 1.111v -5.192h 0.759v 6.292l 0.429 0.715c 0.176 -0.088 0.429 -0.286 0.55 -0.451l 0.121 0.143v -2.86h 1.661c -0.011 -0.275 -0.033 -0.528 -0.066 -0.759h -1.969v -0.682h 1.826c -0.253 -0.891 -0.792 -1.463 -1.969 -1.837c 0.154 -0.132 0.352 -0.407 0.429 -0.583c 1.067 0.363 1.683 0.891 2.035 1.639c 0.627 -0.451 1.287 -1.023 1.628 -1.441l 0.517 0.561c -0.407 0.451 -1.221 1.089 -1.903 1.54l 0.033 0.121h 2.145v 0.682h -2.024c 0.033 0.242 0.055 0.495 0.066 0.759h 1.661v 3.696h -1.276c 0.22 0.429 0.44 0.935 0.594 1.375l -0.517 0.319l -0.121 -0.033h -1.309c 0.11 0.264 0.198 0.517 0.275 0.77l -0.748 0.11c -0.264 -0.924 -0.792 -2.09 -1.595 -2.992l 0.297 0.583Z m 2.233 0.616h 1.243c -0.11 -0.341 -0.253 -0.715 -0.396 -1.001h -1.397c 0.209 0.33 0.385 0.66 0.55 1.001Z m -0.539 -3.124h 1.089v -0.968h -1.089Z m 1.716 0h 1.067v -0.968h -1.067Z m -1.716 1.518h 1.089v -0.946h -1.089Z m 1.716 0h 1.067v -0.946h -1.067Z m 1.925 -0.275v -0.77h 1.155v -4.895c 0 -0.132 -0.033 -0.165 -0.165 -0.165c -0.143 -0.011 -0.561 -0.011 -1.056 0c 0.11 -0.231 0.209 -0.572 0.242 -0.792c 0.66 0 1.111 0.011 1.397 0.154c 0.286 0.132 0.363 0.363 0.363 0.803v 4.895h 0.968v 0.77Z "/></symbol><symbol id="g194BCA7C5D601129CE91E1512FFBF619" overflow="visible"><path d="M 0 0m 4.554 8.228v -0.781h 1.87c -0.055 -2.882 -0.253 -6.105 -2.684 -7.722c 0.22 -0.143 0.495 -0.407 0.638 -0.616c 2.541 1.804 2.794 5.203 2.882 8.338h 2.233c -0.11 -5.005 -0.253 -6.831 -0.594 -7.227c -0.11 -0.143 -0.22 -0.187 -0.429 -0.187c -0.242 0 -0.825 0 -1.485 0.066c 0.154 -0.253 0.253 -0.616 0.264 -0.858c 0.594 -0.033 1.199 -0.044 1.573 0c 0.374 0.044 0.616 0.154 0.847 0.495c 0.418 0.55 0.539 2.409 0.66 8.03c 0.011 0.121 0.011 0.462 0.011 0.462Z m -0.187 -3.08c -0.187 -0.33 -0.55 -0.825 -0.836 -1.177l -0.407 0.396c 0.583 0.803 1.078 1.683 1.43 2.574l -0.462 0.319l -0.154 -0.044h -0.924v 2.024h -0.814v -2.024h -1.606v -0.748h 2.937c -0.726 -1.518 -2.024 -3.036 -3.245 -3.883c 0.143 -0.143 0.374 -0.528 0.462 -0.726c 0.484 0.363 0.979 0.836 1.452 1.364v -4.103h 0.814v 4.488c 0.451 -0.517 1.001 -1.188 1.243 -1.54l 0.506 0.627l -0.847 0.88c 0.297 0.319 0.649 0.737 1.001 1.133Z "/></symbol><symbol id="gE9BF996C01DF95F710873C112C72A4FB" overflow="visible"><path d="M 0 0m 1.958 1.573c -0.33 -0.737 -0.913 -1.474 -1.529 -1.969c 0.198 -0.121 0.528 -0.352 0.682 -0.484c 0.594 0.55 1.232 1.397 1.628 2.233Z m 1.573 -0.341c 0.429 -0.517 0.935 -1.243 1.133 -1.694l 0.682 0.396c -0.231 0.451 -0.737 1.133 -1.177 1.639Z m 5.874 6.71v -1.771h -2.255v 1.771Z m -3.025 0.748v -3.993c 0 -1.584 -0.088 -3.685 -1.012 -5.148c 0.187 -0.088 0.528 -0.33 0.66 -0.473c 0.66 1.045 0.946 2.453 1.056 3.784h 2.321v -2.673c 0 -0.176 -0.066 -0.22 -0.22 -0.231c -0.165 -0.011 -0.726 -0.011 -1.309 0.011c 0.11 -0.22 0.231 -0.583 0.264 -0.803c 0.803 0 1.331 0.011 1.639 0.154c 0.319 0.132 0.418 0.385 0.418 0.858v 8.514Z m 3.025 -3.256v -1.826h -2.277c 0.022 0.385 0.022 0.748 0.022 1.089v 0.737Z m -5.148 3.674v -1.331h -2.002v 1.331h -0.748v -1.331h -0.935v -0.737h 0.935v -4.499h -1.089v -0.737h 5.423v 0.737h -0.814v 4.499h 0.814v 0.737h -0.814v 1.331Z m -2.002 -2.068h 2.002v -0.979h -2.002Z m 0 -1.639h 2.002v -1.078h -2.002Z m 0 -1.749h 2.002v -1.111h -2.002Z "/></symbol><symbol id="g7C57BCCA2936451C7AD0E10D32A7C125" overflow="visible"><path d="M 0 0m 4.972 7.986h 4.092v -2.024h -4.092Z m -0.792 0.737v -3.509h 2.398v -1.364h -3.212v -0.759h 2.728c -0.748 -1.166 -1.914 -2.277 -3.047 -2.838c 0.187 -0.154 0.44 -0.451 0.572 -0.649c 1.078 0.627 2.189 1.727 2.959 2.948v -3.432h 0.825v 3.465c 0.737 -1.21 1.793 -2.365 2.805 -3.003c 0.143 0.209 0.396 0.495 0.583 0.66c -1.067 0.572 -2.189 1.683 -2.893 2.849h 2.596v 0.759h -3.091v 1.364h 2.486v 3.509Z m -1.133 0.484c -0.638 -1.661 -1.694 -3.3 -2.794 -4.356c 0.143 -0.187 0.385 -0.627 0.462 -0.814c 0.407 0.407 0.803 0.891 1.188 1.419v -6.303h 0.792v 7.524c 0.429 0.726 0.814 1.507 1.122 2.288Z "/></symbol><symbol id="gD148177F690142A2C5B5153E7DA06DF8" overflow="visible"><path d="M 0 0m 4.301 9.24c -0.132 -0.473 -0.286 -0.957 -0.484 -1.43h -3.124v -0.77h 2.783c -0.704 -1.452 -1.716 -2.794 -3.036 -3.696c 0.154 -0.154 0.418 -0.451 0.528 -0.638c 0.693 0.495 1.309 1.089 1.837 1.76v -5.335h 0.814v 2.178h 4.609v -1.144c 0 -0.165 -0.055 -0.231 -0.242 -0.231c -0.209 -0.011 -0.88 -0.022 -1.606 0.011c 0.11 -0.231 0.231 -0.572 0.275 -0.792c 0.946 0 1.551 0 1.914 0.121c 0.363 0.143 0.473 0.396 0.473 0.88v 5.61h -5.346c 0.253 0.418 0.473 0.836 0.671 1.276h 5.962v 0.77h -5.632c 0.165 0.407 0.308 0.825 0.44 1.232Z m -0.682 -6.061h 4.609v -1.155h -4.609Z m 0 0.704v 1.133h 4.609v -1.133Z "/></symbol></defs></svg>