<svg xmlns="http://www.w3.org/2000/svg" viewBox="0 0 700 400" style="font-family:-apple-system,BlinkMacSystemFont,sans-serif">
<defs><clipPath id="chartClip"><rect x="90" y="30" width="500" height="320"/></clipPath></defs>
<line x1="140.0" y1="30" x2="140.0" y2="350" stroke="rgba(0,0,0,0.07)" stroke-width="0.5"/>
<line x1="90" y1="318.0" x2="590" y2="318.0" stroke="rgba(0,0,0,0.07)" stroke-width="0.5"/>
<line x1="190.0" y1="30" x2="190.0" y2="350" stroke="rgba(0,0,0,0.07)" stroke-width="0.5"/>
<line x1="90" y1="286.0" x2="590" y2="286.0" stroke="rgba(0,0,0,0.07)" stroke-width="0.5"/>
<line x1="240.0" y1="30" x2="240.0" y2="350" stroke="rgba(0,0,0,0.07)" stroke-width="0.5"/>
<line x1="90" y1="254.0" x2="590" y2="254.0" stroke="rgba(0,0,0,0.07)" stroke-width="0.5"/>
<line x1="290.0" y1="30" x2="290.0" y2="350" stroke="rgba(0,0,0,0.07)" stroke-width="0.5"/>
<line x1="90" y1="222.0" x2="590" y2="222.0" stroke="rgba(0,0,0,0.07)" stroke-width="0.5"/>
<line x1="340.0" y1="30" x2="340.0" y2="350" stroke="rgba(0,0,0,0.07)" stroke-width="0.5"/>
<line x1="90" y1="190.0" x2="590" y2="190.0" stroke="rgba(0,0,0,0.07)" stroke-width="0.5"/>
<line x1="390.0" y1="30" x2="390.0" y2="350" stroke="rgba(0,0,0,0.07)" stroke-width="0.5"/>
<line x1="90" y1="158.0" x2="590" y2="158.0" stroke="rgba(0,0,0,0.07)" stroke-width="0.5"/>
<line x1="440.0" y1="30" x2="440.0" y2="350" stroke="rgba(0,0,0,0.07)" stroke-width="0.5"/>
<line x1="90" y1="126.0" x2="590" y2="126.0" stroke="rgba(0,0,0,0.07)" stroke-width="0.5"/>
<line x1="490.0" y1="30" x2="490.0" y2="350" stroke="rgba(0,0,0,0.07)" stroke-width="0.5"/>
<line x1="90" y1="94.0" x2="590" y2="94.0" stroke="rgba(0,0,0,0.07)" stroke-width="0.5"/>
<line x1="540.0" y1="30" x2="540.0" y2="350" stroke="rgba(0,0,0,0.07)" stroke-width="0.5"/>
<line x1="90" y1="62.0" x2="590" y2="62.0" stroke="rgba(0,0,0,0.07)" stroke-width="0.5"/>
<line x1="90" y1="30" x2="90" y2="350" stroke="#333" stroke-width="1.5"/>
<line x1="90" y1="350" x2="590" y2="350" stroke="#333" stroke-width="1.5"/>
<text x="340.0" y="390" text-anchor="middle" fill="#444" font-size="13">数量</text>
<text x="22" y="190.0" text-anchor="middle" fill="#444" font-size="13" transform="rotate(-90,42,190.0)">価格</text>
<line x1="90.0" y1="318.0" x2="540.0" y2="30.0" stroke="#1a3c6e" stroke-width="2.5" clip-path="url(#chartClip)"/>
<text x="500.0" y="66.0" fill="#1a3c6e" font-size="13" font-weight="600">供給曲線</text>
<path d="M90.0,62.0 L540.0,350.0" stroke="#a0522d" stroke-width="2.5" fill="none" clip-path="url(#chartClip)">
  <animate attributeName="d" dur="16s" repeatCount="indefinite" calcMode="spline" keySplines="0 0 1 1; 0.25 0.1 0.25 1; 0 0 1 1" keyTimes="0;0.3750;0.5000;1" values="M90.0,62.0 L540.0,350.0;M90.0,62.0 L540.0,350.0;M190.0,30.0 L590.0,286.0;M190.0,30.0 L590.0,286.0"/>
</path>
<text x="480.0" y="302.0" fill="#a0522d" font-size="13" font-weight="600" opacity="1">需要曲線
  <animate attributeName="opacity" dur="16s" repeatCount="indefinite" keyTimes="0.0000;0.3438;0.3750;0.5000;1.0000" values="1;1;0.3;0;0"/>
</text>
<path d="M90.0,62.0 L540.0,350.0" stroke="#a0522d" stroke-width="1.2" stroke-dasharray="4,4" fill="none" opacity="0" clip-path="url(#chartClip)">
  <animate attributeName="opacity" dur="16s" repeatCount="indefinite" keyTimes="0.0000;0.4375;0.5000;1.0000" values="0;0;0.3;0.3"/>
</path>
<text x="550.0" y="254.0" fill="#a0522d" font-size="13" font-weight="600" opacity="0">新・需要曲線
  <animate attributeName="opacity" dur="16s" repeatCount="indefinite" keyTimes="0.0000;0.4688;0.5312;1.0000" values="0;0;1;1"/>
</text>
<g opacity="0">
  <animate attributeName="opacity" dur="16s" repeatCount="indefinite" keyTimes="0.0000;0.1562;0.1875;0.5625;0.6250;1.0000" values="0;0;1;1;0.25;0.25"/>
  <line x1="90" y1="190.0" x2="290.0" y2="190.0" stroke="rgba(0,0,0,0.35)" stroke-width="1" stroke-dasharray="5,4"/>
  <line x1="290.0" y1="190.0" x2="290.0" y2="350" stroke="rgba(0,0,0,0.35)" stroke-width="1" stroke-dasharray="5,4"/>
  <circle cx="290.0" cy="190.0" r="4.5" fill="#c0392b" opacity="0.85"/>
  <text x="84" y="194.0" text-anchor="end" fill="#444" font-size="11">均衡価格</text>
  <text x="290.0" y="368" text-anchor="middle" fill="#444" font-size="11">均衡取引量</text>
</g>
<g opacity="0">
  <animate attributeName="opacity" dur="16s" repeatCount="indefinite" keyTimes="0.0000;0.3750;0.4375;0.7500;0.8750;1.0000" values="0;0;1;1;0.5;0.5"/>
  <line x1="390.0" y1="254.0" x2="534.0" y2="254.0" stroke="#a0522d" stroke-width="1.8"/>
  <polygon points="540.0,254.0 530.0,250.0 530.0,258.0" fill="#a0522d"/>
  <text x="445.0" y="244.0" text-anchor="middle" fill="#a0522d" font-size="13" font-weight="600">需要曲線の右シフト</text>
</g>
<g opacity="0">
  <animate attributeName="opacity" dur="16s" repeatCount="indefinite" keyTimes="0.0000;0.5938;0.6562;1.0000" values="0;0;1;1"/>
  <line x1="90" y1="142.0" x2="365.0" y2="142.0" stroke="#2471a3" stroke-width="1" stroke-dasharray="5,4"/>
  <line x1="365.0" y1="142.0" x2="365.0" y2="350" stroke="#2471a3" stroke-width="1" stroke-dasharray="5,4"/>
  <circle cx="365.0" cy="142.0" r="4.5" fill="#2471a3" opacity="0.85"/>
  <text x="84" y="146.0" text-anchor="end" fill="#2471a3" font-size="11" font-weight="600">新・均衡価格</text>
  <text x="365.0" y="368" text-anchor="middle" fill="#2471a3" font-size="11" font-weight="600">新・均衡取引量</text>
</g>
</svg>