<svg xmlns="http://www.w3.org/2000/svg" viewBox="0 0 512 342" width="512" height="342" font-family="sans-serif"><rect x="92.0" y="54.0" width="360.0" height="216.0" fill="#fff" stroke="#111" stroke-width="1.4"/><line x1="272.0" y1="270.0" x2="272.0" y2="54.0" stroke="#9aa0a6" stroke-width="1" stroke-dasharray="3 3"/><line x1="92.0" y1="162.0" x2="452.0" y2="162.0" stroke="#9aa0a6" stroke-width="1" stroke-dasharray="3 3"/><line x1="236.0" y1="270.0" x2="236.0" y2="54.0" stroke="#9aa0a6" stroke-width="1" stroke-dasharray="3 3"/><line x1="92.0" y1="126.0" x2="452.0" y2="126.0" stroke="#9aa0a6" stroke-width="1" stroke-dasharray="3 3"/><path d="M 164.0,54.0 L 380.0,270.0" fill="none" stroke="#1f8a4c" stroke-width="2"/><text x="347.6" y="216.0" font-size="12.5" fill="#1f8a4c">予算線（傾き -1）</text><path d="M 211.2,55.3 L 215.0,66.3 L 218.8,76.4 L 222.6,85.7 L 226.4,94.3 L 230.2,102.2 L 234.0,109.7 L 237.8,116.6 L 241.6,123.0 L 245.4,129.0 L 249.2,134.7 L 253.0,139.9 L 256.8,144.9 L 260.6,149.6 L 264.4,153.9 L 268.2,158.1 L 272.0,162.0 L 275.8,165.7 L 279.6,169.2 L 283.4,172.5 L 287.2,175.6 L 291.0,178.6 L 294.8,181.5 L 298.6,184.2 L 302.4,186.7 L 306.2,189.2 L 310.0,191.5 L 313.8,193.7 L 317.6,195.9 L 321.4,197.9 L 325.2,199.9 L 329.0,201.7 L 332.8,203.5 L 336.6,205.2 L 340.4,206.9 L 344.2,208.4 L 348.0,210.0 L 351.8,211.4 L 355.6,212.8 L 359.4,214.2 L 363.2,215.5 L 367.0,216.7 L 370.8,217.9 L 374.6,219.1 L 378.4,220.2 L 382.2,221.3 L 386.0,222.3 L 389.8,223.3 L 393.6,224.3 L 397.4,225.3 L 401.2,226.2 L 405.0,227.0 L 408.8,227.9 L 412.6,228.7 L 416.4,229.5 L 420.2,230.3 L 424.0,231.1 L 427.8,231.8 L 431.6,232.5 L 435.4,233.2 L 439.2,233.9 L 443.0,234.5" fill="none" stroke="#c0392b" stroke-width="1.8"/><path d="M 101.0,89.5 L 104.8,90.1 L 108.6,90.8 L 112.4,91.5 L 116.2,92.2 L 120.0,92.9 L 123.8,93.7 L 127.6,94.5 L 131.4,95.3 L 135.2,96.1 L 139.0,97.0 L 142.8,97.8 L 146.6,98.7 L 150.4,99.7 L 154.2,100.7 L 158.0,101.7 L 161.8,102.7 L 165.6,103.8 L 169.4,104.9 L 173.2,106.1 L 177.0,107.3 L 180.8,108.5 L 184.6,109.8 L 188.4,111.2 L 192.2,112.6 L 196.0,114.0 L 199.8,115.6 L 203.6,117.1 L 207.4,118.8 L 211.2,120.5 L 215.0,122.3 L 218.8,124.1 L 222.6,126.1 L 226.4,128.1 L 230.2,130.3 L 234.0,132.5 L 237.8,134.8 L 241.6,137.3 L 245.4,139.8 L 249.2,142.5 L 253.0,145.4 L 256.8,148.4 L 260.6,151.5 L 264.4,154.8 L 268.2,158.3 L 272.0,162.0 L 275.8,165.9 L 279.6,170.1 L 283.4,174.4 L 287.2,179.1 L 291.0,184.1 L 294.8,189.3 L 298.6,195.0 L 302.4,201.0 L 306.2,207.4 L 310.0,214.3 L 313.8,221.8 L 317.6,229.7 L 321.4,238.3 L 325.2,247.6 L 329.0,257.7 L 332.8,268.7" fill="none" stroke="#2c5fa6" stroke-width="1.8"/><circle cx="236.0" cy="126.0" r="3.6" fill="#111"/><text x="214.0" y="117.0" font-size="15" font-weight="700" fill="#111">E</text><circle cx="272.0" cy="162.0" r="3.6" fill="#111"/><text x="282.0" y="181.0" font-size="15" font-weight="700" fill="#111">A</text><text x="92.0" y="285.0" font-size="10" text-anchor="middle" fill="#c0392b">0</text><text x="92.0" y="48.0" font-size="10" text-anchor="middle" fill="#2c5fa6">10</text><text x="128.0" y="285.0" font-size="10" text-anchor="middle" fill="#c0392b">1</text><text x="128.0" y="48.0" font-size="10" text-anchor="middle" fill="#2c5fa6">9</text><text x="164.0" y="285.0" font-size="10" text-anchor="middle" fill="#c0392b">2</text><text x="164.0" y="48.0" font-size="10" text-anchor="middle" fill="#2c5fa6">8</text><text x="200.0" y="285.0" font-size="10" text-anchor="middle" fill="#c0392b">3</text><text x="200.0" y="48.0" font-size="10" text-anchor="middle" fill="#2c5fa6">7</text><text x="236.0" y="285.0" font-size="10" text-anchor="middle" fill="#c0392b">4</text><text x="236.0" y="48.0" font-size="10" text-anchor="middle" fill="#2c5fa6">6</text><text x="272.0" y="285.0" font-size="10" text-anchor="middle" fill="#c0392b">5</text><text x="272.0" y="48.0" font-size="10" text-anchor="middle" fill="#2c5fa6">5</text><text x="308.0" y="285.0" font-size="10" text-anchor="middle" fill="#c0392b">6</text><text x="308.0" y="48.0" font-size="10" text-anchor="middle" fill="#2c5fa6">4</text><text x="344.0" y="285.0" font-size="10" text-anchor="middle" fill="#c0392b">7</text><text x="344.0" y="48.0" font-size="10" text-anchor="middle" fill="#2c5fa6">3</text><text x="380.0" y="285.0" font-size="10" text-anchor="middle" fill="#c0392b">8</text><text x="380.0" y="48.0" font-size="10" text-anchor="middle" fill="#2c5fa6">2</text><text x="416.0" y="285.0" font-size="10" text-anchor="middle" fill="#c0392b">9</text><text x="416.0" y="48.0" font-size="10" text-anchor="middle" fill="#2c5fa6">1</text><text x="452.0" y="285.0" font-size="10" text-anchor="middle" fill="#c0392b">10</text><text x="452.0" y="48.0" font-size="10" text-anchor="middle" fill="#2c5fa6">0</text><text x="85.0" y="273.5" font-size="10" text-anchor="end" fill="#c0392b">0</text><text x="459.0" y="273.5" font-size="10" text-anchor="start" fill="#2c5fa6">6</text><text x="85.0" y="237.5" font-size="10" text-anchor="end" fill="#c0392b">1</text><text x="459.0" y="237.5" font-size="10" text-anchor="start" fill="#2c5fa6">5</text><text x="85.0" y="201.5" font-size="10" text-anchor="end" fill="#c0392b">2</text><text x="459.0" y="201.5" font-size="10" text-anchor="start" fill="#2c5fa6">4</text><text x="85.0" y="165.5" font-size="10" text-anchor="end" fill="#c0392b">3</text><text x="459.0" y="165.5" font-size="10" text-anchor="start" fill="#2c5fa6">3</text><text x="85.0" y="129.5" font-size="10" text-anchor="end" fill="#c0392b">4</text><text x="459.0" y="129.5" font-size="10" text-anchor="start" fill="#2c5fa6">2</text><text x="85.0" y="93.5" font-size="10" text-anchor="end" fill="#c0392b">5</text><text x="459.0" y="93.5" font-size="10" text-anchor="start" fill="#2c5fa6">1</text><text x="85.0" y="57.5" font-size="10" text-anchor="end" fill="#c0392b">6</text><text x="459.0" y="57.5" font-size="10" text-anchor="start" fill="#2c5fa6">0</text><text x="272.0" y="18" font-size="14.5" font-weight="700" text-anchor="middle" fill="#111">点A：パレート効率的（無差別曲線が接する）と予算線</text><text x="92.0" y="304.0" font-size="13" fill="#c0392b">O_K（ケネス）</text><text x="452.0" y="34.0" font-size="13" text-anchor="end" fill="#2c5fa6">O_L（レオン）</text><text x="272.0" y="303.0" font-size="12" text-anchor="middle" fill="#c0392b">→ ケネスの財 x</text><text x="62.0" y="162.0" font-size="12" text-anchor="middle" fill="#c0392b" transform="rotate(-90 62.0 162.0)">↑ ケネスの財 y</text></svg>