<svg viewBox="0 0 539.76335748 372.263017323" width="539.76335748pt" height="372.263017323pt" xmlns="http://www.w3.org/2000/svg" xmlns:xlink="http://www.w3.org/1999/xlink" xmlns:h5="http://www.w3.org/1999/xhtml"><g transform="translate(1.417322835 1.417322835)"><path fill="none" stroke="#000000" stroke-width="1" stroke-linecap="butt" stroke-linejoin="miter" stroke-miterlimit="4" transform="translate(55.865930709 57.155130709)" d="M 0 0m 0 255.118110236v -282.040537958"/><path fill="none" stroke="#000000" stroke-width="1" stroke-linecap="butt" stroke-linejoin="miter" stroke-miterlimit="4" stroke-dashoffset="0" stroke-dasharray="" transform="translate(53.739946457 -219.216144257)" d="M 0 0m 0 255.118110236l 2.125984252 -5.669291339l 2.125984252 5.669291339"/><path fill="none" stroke="#000000" stroke-width="1" stroke-linecap="butt" stroke-linejoin="miter" stroke-miterlimit="4" transform="translate(55.865930709 57.155130709)" d="M 0 0m 0 255.118110236h 452.119278116"/><path fill="none" stroke="#000000" stroke-width="1" stroke-linecap="butt" stroke-linejoin="miter" stroke-miterlimit="4" stroke-dashoffset="0" stroke-dasharray="" transform="translate(502.315945832 59.281114961)" d="M 0 0m 0 250.866141732l 5.669291339 2.125984252l -5.669291339 2.125984252"/><path fill="none" stroke="#000000" stroke-width="1" stroke-linecap="butt" stroke-linejoin="miter" stroke-miterlimit="4" transform="translate(28.943502986 -197.962979528)" d="M 0 0m 452.119278116 255.118110236h -452.119278116"/><path fill="none" stroke="#000000" stroke-width="1" stroke-linecap="butt" stroke-linejoin="miter" stroke-miterlimit="4" stroke-dashoffset="0" stroke-dasharray="" transform="translate(28.943474641 -195.836995276)" d="M 0 0m 5.669291339 255.118110236l -5.669291339 -2.125984252l 5.669291339 -2.125984252"/><path fill="none" stroke="#000000" stroke-width="1" stroke-linecap="butt" stroke-linejoin="miter" stroke-miterlimit="4" transform="translate(481.062781102 84.077558431)" d="M 0 0m 0 -26.922427722v 282.040537958"/><path fill="none" stroke="#000000" stroke-width="1" stroke-linecap="butt" stroke-linejoin="miter" stroke-miterlimit="4" stroke-dashoffset="0" stroke-dasharray="" transform="translate(478.93679685 84.077586777)" d="M 0 0m 4.251968504 249.448818898l -2.125984252 5.669291339l -2.125984252 -5.669291339"/><path fill="none" transform="translate(509.409237795 62.308630709)" d="M 0 0m 0 244.811110236h 27.519474016v 10.307h -27.519474016v -10.307Z "/><g transform="translate(509.40923778 307.119740882)"><g transform="matrix(1 0 0 -1 8.503937008 7.513)"><use xlink:href="#gAB91A7DFDE77F31CB872F1FD393E8C99" x="0" y="0" fill="#000000" fill-rule="nonzero"/></g><g transform="matrix(1 0 0 -1 13.409937008 10.23)"><use xlink:href="#gB4F8E97E8EFD98CA94EE40D9890E0542" x="0" y="0" fill="#000000" fill-rule="nonzero"/></g></g><path fill="none" transform="translate(50.841130709 -226.30943622)" d="M 0 0m 0 226.30943622h 10.0496v 28.808674016h -10.0496v -28.808674016Z "/><g transform="translate(50.841130646 -1.42e-7)"><g transform="matrix(1 0 0 -1 0 16.016937008)"><use xlink:href="#gAB91A7DFDE77F31CB872F1FD393E8C99" x="0" y="0" fill="#000000" fill-rule="nonzero"/></g><g transform="matrix(1 0 0 -1 4.906 18.733937008)"><use xlink:href="#g7058399F9FB7CD69929F2864C4EDB984" x="0" y="0" fill="#000000" fill-rule="nonzero"/></g></g><path fill="none" transform="translate(0 -192.809479528)" d="M 0 0m 0 244.811110236h 27.519474016v 10.307h -27.519474016v -10.307Z "/><g transform="translate(-1.6e-8 52.001630646)"><g transform="matrix(1 0 0 -1 8.503937008 7.513)"><use xlink:href="#gAB91A7DFDE77F31CB872F1FD393E8C99" x="0" y="0" fill="#000000" fill-rule="nonzero"/></g><g transform="matrix(1 0 0 -1 13.409937008 10.23)"><use xlink:href="#gB4F8E97E8EFD98CA94EE40D9890E0542" x="0" y="0" fill="#000000" fill-rule="nonzero"/></g></g><path fill="none" transform="translate(476.037981102 114.310261417)" d="M 0 0m 0 226.30943622h 10.0496v 28.808674016h -10.0496v -28.808674016Z "/><g transform="translate(476.037981039 340.619697496)"><g transform="matrix(1 0 0 -1 0 16.016937008)"><use xlink:href="#gAB91A7DFDE77F31CB872F1FD393E8C99" x="0" y="0" fill="#000000" fill-rule="nonzero"/></g><g transform="matrix(1 0 0 -1 4.906 18.733937008)"><use xlink:href="#g7058399F9FB7CD69929F2864C4EDB984" x="0" y="0" fill="#000000" fill-rule="nonzero"/></g></g><path fill="none" transform="translate(41.480130709 67.385130709)" d="M 0 0m 0 244.888110236h 14.3858v 10.23h -14.3858v -10.23Z "/><g transform="translate(41.480130646 312.273240898)"><g transform="matrix(1 0 0 -1 0 7.513)"><use xlink:href="#g93668732B0E42348DDA57839D5743AC6" x="0" y="0" fill="#000000" fill-rule="nonzero"/></g><g transform="matrix(1 0 0 -1 7.733 10.23)"><use xlink:href="#gE181C2F2AEAF9A42C82A15275CB4AE73" x="0" y="0" fill="#000000" fill-rule="nonzero"/></g></g><path fill="none" transform="translate(481.062781102 -197.962979528)" d="M 0 0m 0 244.888110236h 16.1029v 10.23h -16.1029v -10.23Z "/><g transform="translate(481.062781071 46.925130661)"><g transform="matrix(1 0 0 -1 0 7.513)"><use xlink:href="#g93668732B0E42348DDA57839D5743AC6" x="0" y="0" fill="#000000" fill-rule="nonzero"/></g><g transform="matrix(1 0 0 -1 7.733 10.23)"><use xlink:href="#g70552F85AA7D84D8CDB4439B50ED3E9C" x="0" y="0" fill="#000000" fill-rule="nonzero"/></g></g><path fill="#000000" fill-rule="nonzero" stroke="#000000" stroke-width="1" stroke-linecap="butt" stroke-linejoin="miter" stroke-miterlimit="4" transform="translate(479.062781102 -195.962979528)" d="M 0 0m 2 251.118110236c -1.103568 0 -2 0.896432 -2 2c 0 1.103568 0.896432 2 2 2c 1.103568 0 2 -0.896432 2 -2c 0 -1.103568 -0.896432 -2 -2 -2Z "/><path fill="#000000" fill-rule="nonzero" stroke="#000000" stroke-width="1" stroke-linecap="butt" stroke-linejoin="miter" stroke-miterlimit="4" transform="translate(53.865930709 59.155130709)" d="M 0 0m 2 251.118110236c -1.103568 0 -2 0.896432 -2 2c 0 1.103568 0.896432 2 2 2c 1.103568 0 2 -0.896432 2 -2c 0 -1.103568 -0.896432 -2 -2 -2Z "/><path fill="none" transform="translate(169.25175748 -112.923609449)" d="M 0 0m 0 241.935818898h 14.381291339v 13.182291339h -14.381291339v -13.182291339Z "/><g transform="translate(169.25175748 129.01220937)"><g transform="matrix(1 0 0 -1 2.834645669 10.347645669)"><use xlink:href="#gBA224E517FED02B5D6EE58F51B447F43" x="0" y="0" fill="#000000" fill-rule="nonzero"/></g></g><path fill="#000000" fill-rule="nonzero" stroke="#000000" stroke-width="1" stroke-linecap="butt" stroke-linejoin="miter" stroke-miterlimit="4" transform="translate(167.25175748 -110.923609449)" d="M 0 0m 2 251.118110236c -1.103568 0 -2 0.896432 -2 2c 0 1.103568 0.896432 2 2 2c 1.103568 0 2 -0.896432 2 -2c 0 -1.103568 -0.896432 -2 -2 -2Z "/><path fill="none" stroke="#000000" stroke-width="1" stroke-linecap="butt" stroke-linejoin="miter" stroke-miterlimit="4" stroke-dashoffset="0" stroke-dasharray="1 2" transform="translate(169.25175748 57.155130709)" d="M 0 0m 0 85.039370079v 170.078740157"/><path fill="none" stroke="#000000" stroke-width="1" stroke-linecap="butt" stroke-linejoin="miter" stroke-miterlimit="4" stroke-dashoffset="0" stroke-dasharray="1 2" transform="translate(55.865930709 -112.923609449)" d="M 0 0m 113.385826772 255.118110236h -113.385826772"/><path fill="none" stroke="#000000" stroke-width="1" stroke-linecap="butt" stroke-linejoin="miter" stroke-miterlimit="4" transform="translate(55.865930709 74.163004724)" d="M 0 0m 0 238.11023622c 2.551181102 5.102362205 8.503937008 8.503937008 17.007874016 8.503937008h 22.677165354c 8.503937008 0 14.456692913 3.401574803 17.007874016 8.503937008c 2.551181102 -5.102362205 8.503937008 -8.503937008 17.007874016 -8.503937008h 22.677165354c 8.503937008 0 14.456692913 -3.401574803 17.007874016 -8.503937008"/><path fill="none" transform="translate(92.836061417 98.643233071)" d="M 0 0m 0 222.133944882h 39.445565354v 32.984165354h -39.445565354v -32.984165354Z "/><g transform="translate(92.836061402 320.77717789)"><g transform="matrix(1 0 0 -1 11.338582677 18.851582677)"><use xlink:href="#g1570446F77F9A6C1B85605F46F92409E" x="0" y="0" fill="#000000" fill-rule="nonzero"/></g><g transform="matrix(1 0 0 -1 16.464582677 21.568582677)"><use xlink:href="#gE181C2F2AEAF9A42C82A15275CB4AE73" x="0" y="0" fill="#000000" fill-rule="nonzero"/></g><g transform="matrix(1 0 0 -1 22.501382677 21.568582677)"><use xlink:href="#gB4F8E97E8EFD98CA94EE40D9890E0542" x="0" y="0" fill="#000000" fill-rule="nonzero"/></g></g><path fill="none" stroke="#000000" stroke-width="1" stroke-linecap="butt" stroke-linejoin="miter" stroke-miterlimit="4" transform="translate(169.25175748 74.163004724)" d="M 0 0m 0 238.11023622c 2.551181102 5.102362205 8.503937008 8.503937008 17.007874016 8.503937008h 121.88976378c 8.503937008 0 14.456692913 3.401574803 17.007874016 8.503937008c 2.551181102 -5.102362205 8.503937008 -8.503937008 17.007874016 -8.503937008h 121.88976378c 8.503937008 0 14.456692913 -3.401574803 17.007874016 -8.503937008"/><path fill="none" transform="translate(304.575936614 98.643233071)" d="M 0 0m 0 222.133944882h 41.162665354v 32.984165354h -41.162665354v -32.984165354Z "/><g transform="translate(304.575936488 320.77717789)"><g transform="matrix(1 0 0 -1 11.338582677 18.851582677)"><use xlink:href="#g1570446F77F9A6C1B85605F46F92409E" x="0" y="0" fill="#000000" fill-rule="nonzero"/></g><g transform="matrix(1 0 0 -1 16.464582677 21.568582677)"><use xlink:href="#g70552F85AA7D84D8CDB4439B50ED3E9C" x="0" y="0" fill="#000000" fill-rule="nonzero"/></g><g transform="matrix(1 0 0 -1 24.218482677 21.568582677)"><use xlink:href="#gB4F8E97E8EFD98CA94EE40D9890E0542" x="0" y="0" fill="#000000" fill-rule="nonzero"/></g></g><path fill="none" stroke="#000000" stroke-width="1" stroke-linecap="butt" stroke-linejoin="miter" stroke-miterlimit="4" transform="translate(38.858056693 57.155130709)" d="M 0 0m 17.007874016 255.118110236c -5.102362205 -2.551181102 -8.503937008 -8.503937008 -8.503937008 -17.007874016v -51.023622047c 0 -8.503937008 -3.401574803 -14.456692913 -8.503937008 -17.007874016c 5.102362205 -2.551181102 8.503937008 -8.503937008 8.503937008 -17.007874016v -51.023622047c 0 -8.503937008 3.401574803 -14.456692913 8.503937008 -17.007874016"/><path fill="none" transform="translate(8.378428346 -10.645256693)" d="M 0 0m 0 220.640144882h 38.983565354v 34.477965354h -38.983565354v -34.477965354Z "/><g transform="translate(8.378428283 209.994888047)"><g transform="matrix(1 0 0 -1 11.338582677 18.851582677)"><use xlink:href="#g1570446F77F9A6C1B85605F46F92409E" x="0" y="0" fill="#000000" fill-rule="nonzero"/></g><g transform="matrix(1 0 0 -1 16.464582677 21.568582677)"><use xlink:href="#gE181C2F2AEAF9A42C82A15275CB4AE73" x="0" y="0" fill="#000000" fill-rule="nonzero"/></g><g transform="matrix(1 0 0 -1 22.501382677 21.568582677)"><use xlink:href="#g7058399F9FB7CD69929F2864C4EDB984" x="0" y="0" fill="#000000" fill-rule="nonzero"/></g></g><path fill="none" stroke="#000000" stroke-width="1" stroke-linecap="butt" stroke-linejoin="miter" stroke-miterlimit="4" transform="translate(38.858056693 -112.923609449)" d="M 0 0m 17.007874016 255.118110236c -5.102362205 -2.551181102 -8.503937008 -8.503937008 -8.503937008 -17.007874016v -8.503937008c 0 -8.503937008 -3.401574803 -14.456692913 -8.503937008 -17.007874016c 5.102362205 -2.551181102 8.503937008 -8.503937008 8.503937008 -17.007874016v -8.503937008c 0 -8.503937008 3.401574803 -14.456692913 8.503937008 -17.007874016"/><path fill="none" transform="translate(6.661328346 -138.204311811)" d="M 0 0m 0 220.640144882h 40.700665354v 34.477965354h -40.700665354v -34.477965354Z "/><g transform="translate(6.661328315 82.435832929)"><g transform="matrix(1 0 0 -1 11.338582677 18.851582677)"><use xlink:href="#g1570446F77F9A6C1B85605F46F92409E" x="0" y="0" fill="#000000" fill-rule="nonzero"/></g><g transform="matrix(1 0 0 -1 16.464582677 21.568582677)"><use xlink:href="#g70552F85AA7D84D8CDB4439B50ED3E9C" x="0" y="0" fill="#000000" fill-rule="nonzero"/></g><g transform="matrix(1 0 0 -1 24.218482677 21.568582677)"><use xlink:href="#g7058399F9FB7CD69929F2864C4EDB984" x="0" y="0" fill="#000000" fill-rule="nonzero"/></g></g><path fill="none" transform="translate(396.023411024 0.462217323)" d="M 0 0m 0 241.935818898h 13.919291339v 13.182291339h -13.919291339v -13.182291339Z "/><g transform="translate(396.023410976 242.398036142)"><g transform="matrix(1 0 0 -1 2.834645669 10.347645669)"><use xlink:href="#gDD78C4AC18CD51C41481EB0565E89892" x="0" y="0" fill="#000000" fill-rule="nonzero"/></g></g><path fill="#000000" fill-rule="nonzero" stroke="#000000" stroke-width="1" stroke-linecap="butt" stroke-linejoin="miter" stroke-miterlimit="4" transform="translate(394.023411024 2.462217323)" d="M 0 0m 2 251.118110236c -1.103568 0 -2 0.896432 -2 2c 0 1.103568 0.896432 2 2 2c 1.103568 0 2 -0.896432 2 -2c 0 -1.103568 -0.896432 -2 -2 -2Z "/><path fill="none" stroke="#000000" stroke-width="1" stroke-linecap="butt" stroke-linejoin="miter" stroke-miterlimit="4" stroke-dashoffset="0" stroke-dasharray="1 2" transform="translate(396.023411024 0.462217323)" d="M 0 0m 0 255.118110236v -198.42519685"/><path fill="none" stroke="#000000" stroke-width="1" stroke-linecap="butt" stroke-linejoin="miter" stroke-miterlimit="4" stroke-dashoffset="0" stroke-dasharray="1 2" transform="translate(396.023411024 0.462217323)" d="M 0 0m 0 255.118110236h 85.039370079"/><path fill="none" stroke="#000000" stroke-width="1" stroke-linecap="butt" stroke-linejoin="miter" stroke-miterlimit="4" transform="translate(396.023411024 -197.962979528)" d="M 0 0m 85.039370079 255.118110236c -0.51023622 -5.102362205 -1.700787402 -8.503937008 -3.401574803 -8.503937008h -35.716535433c -1.700787402 0 -2.891338583 -3.401574803 -3.401574803 -8.503937008c -0.51023622 5.102362205 -1.700787402 8.503937008 -3.401574803 8.503937008h -35.716535433c -1.700787402 0 -2.891338583 3.401574803 -3.401574803 8.503937008"/><path fill="none" transform="translate(415.237117717 -206.466916535)" d="M 0 0m 0 216.464653543h 46.611956693v 38.653456693h -46.611956693v -38.653456693Z "/><g transform="translate(415.237117717 9.997736945)"><g transform="matrix(1 0 0 -1 14.173228346 21.686228346)"><use xlink:href="#gAB91A7DFDE77F31CB872F1FD393E8C99" x="0" y="0" fill="#000000" fill-rule="nonzero"/></g><g transform="matrix(1 0 0 -1 19.079228346 24.403228346)"><use xlink:href="#g70552F85AA7D84D8CDB4439B50ED3E9C" x="0" y="0" fill="#000000" fill-rule="nonzero"/></g><g transform="matrix(1 0 0 -1 26.833128346 24.403228346)"><use xlink:href="#gB4F8E97E8EFD98CA94EE40D9890E0542" x="0" y="0" fill="#000000" fill-rule="nonzero"/></g></g><path fill="none" stroke="#000000" stroke-width="1" stroke-linecap="butt" stroke-linejoin="miter" stroke-miterlimit="4" transform="translate(55.865930709 -197.962979528)" d="M 0 0m 340.157480315 255.118110236c -0.51023622 -5.102362205 -1.700787402 -8.503937008 -3.401574803 -8.503937008h -163.275590551c -1.700787402 0 -2.891338583 -3.401574803 -3.401574803 -8.503937008c -0.51023622 5.102362205 -1.700787402 8.503937008 -3.401574803 8.503937008h -163.275590551c -1.700787402 0 -2.891338583 3.401574803 -3.401574803 8.503937008"/><path fill="none" transform="translate(203.49724252 -206.466916535)" d="M 0 0m 0 216.464653543h 44.894856693v 38.653456693h -44.894856693v -38.653456693Z "/><g transform="translate(203.497242488 9.997736945)"><g transform="matrix(1 0 0 -1 14.173228346 21.686228346)"><use xlink:href="#gAB91A7DFDE77F31CB872F1FD393E8C99" x="0" y="0" fill="#000000" fill-rule="nonzero"/></g><g transform="matrix(1 0 0 -1 19.079228346 24.403228346)"><use xlink:href="#gE181C2F2AEAF9A42C82A15275CB4AE73" x="0" y="0" fill="#000000" fill-rule="nonzero"/></g><g transform="matrix(1 0 0 -1 25.116028346 24.403228346)"><use xlink:href="#gB4F8E97E8EFD98CA94EE40D9890E0542" x="0" y="0" fill="#000000" fill-rule="nonzero"/></g></g><path fill="none" stroke="#000000" stroke-width="1" stroke-linecap="butt" stroke-linejoin="miter" stroke-miterlimit="4" transform="translate(481.062781102 0.462217323)" d="M 0 0m 0 56.692913386c 5.102362205 0.51023622 8.503937008 1.700787402 8.503937008 3.401574803v 92.409448819c 0 1.700787402 3.401574803 2.891338583 8.503937008 3.401574803c -5.102362205 0.51023622 -8.503937008 1.700787402 -8.503937008 3.401574803v 92.409448819c 0 1.700787402 -3.401574803 2.891338583 -8.503937008 3.401574803"/><path fill="none" transform="translate(489.56671811 -78.676752756)" d="M 0 0m 0 214.970853543h 46.149956693v 40.147256693h -46.149956693v -40.147256693Z "/><g transform="translate(489.566718063 136.294100787)"><g transform="matrix(1 0 0 -1 14.173228346 21.686228346)"><use xlink:href="#gAB91A7DFDE77F31CB872F1FD393E8C99" x="0" y="0" fill="#000000" fill-rule="nonzero"/></g><g transform="matrix(1 0 0 -1 19.079228346 24.403228346)"><use xlink:href="#g70552F85AA7D84D8CDB4439B50ED3E9C" x="0" y="0" fill="#000000" fill-rule="nonzero"/></g><g transform="matrix(1 0 0 -1 26.833128346 24.403228346)"><use xlink:href="#g7058399F9FB7CD69929F2864C4EDB984" x="0" y="0" fill="#000000" fill-rule="nonzero"/></g></g><path fill="none" stroke="#000000" stroke-width="1" stroke-linecap="butt" stroke-linejoin="miter" stroke-miterlimit="4" transform="translate(481.062781102 57.155130709)" d="M 0 0m 0 198.42519685c 5.102362205 0.51023622 8.503937008 1.700787402 8.503937008 3.401574803v 21.543307087c 0 1.700787402 3.401574803 2.891338583 8.503937008 3.401574803c -5.102362205 0.51023622 -8.503937008 1.700787402 -8.503937008 3.401574803v 21.543307087c 0 1.700787402 -3.401574803 2.891338583 -8.503937008 3.401574803"/><path fill="none" transform="translate(489.56671811 48.882302362)" d="M 0 0m 0 214.970853543h 44.432856693v 40.147256693h -44.432856693v -40.147256693Z "/><g transform="translate(489.566718031 263.853155906)"><g transform="matrix(1 0 0 -1 14.173228346 21.686228346)"><use xlink:href="#gAB91A7DFDE77F31CB872F1FD393E8C99" x="0" y="0" fill="#000000" fill-rule="nonzero"/></g><g transform="matrix(1 0 0 -1 19.079228346 24.403228346)"><use xlink:href="#gE181C2F2AEAF9A42C82A15275CB4AE73" x="0" y="0" fill="#000000" fill-rule="nonzero"/></g><g transform="matrix(1 0 0 -1 25.116028346 24.403228346)"><use xlink:href="#g7058399F9FB7CD69929F2864C4EDB984" x="0" y="0" fill="#000000" fill-rule="nonzero"/></g></g></g><defs><symbol id="gAB91A7DFDE77F31CB872F1FD393E8C99" overflow="visible"><path d="M 0 0m 4.092 4.147c -0.22 0.473 -0.561 0.715 -1.012 0.715c -0.715 0 -1.342 -0.363 -1.881 -1.1c -0.506 -0.682 -0.759 -1.386 -0.759 -2.123c 0 -0.957 0.55 -1.782 1.463 -1.782c 0.396 0 0.792 0.187 1.199 0.561l -0.451 -1.804c -0.033 -0.165 -0.132 -0.264 -0.286 -0.297c -0.055 -0.011 -0.198 -0.022 -0.451 -0.022c -0.066 -0.011 -0.11 -0.011 -0.132 -0.011c -0.099 -0.011 -0.154 -0.099 -0.154 -0.253v -0.044c 0.033 -0.077 0.099 -0.121 0.187 -0.121c 0.209 0 0.869 0.033 1.078 0.033c 0.209 0 0.902 -0.033 1.111 -0.033c 0.154 0 0.231 0.088 0.231 0.264c 0 0.11 -0.11 0.165 -0.319 0.165c -0.198 0 -0.473 -0.011 -0.473 0.121c 0 0.044 0.011 0.121 0.044 0.231l 1.485 6.05c 0 0.099 -0.055 0.154 -0.154 0.154c -0.198 0 -0.616 -0.55 -0.726 -0.704Z m -0.352 -0.044c 0.099 -0.231 0.154 -0.385 0.154 -0.484c 0 -0.011 -0.011 -0.077 -0.033 -0.176l -0.264 -1.067c -0.209 -0.792 -0.308 -1.199 -0.319 -1.221c -0.209 -0.385 -0.814 -0.979 -1.342 -0.979c -0.429 0 -0.649 0.33 -0.649 0.979c 0 0.506 0.341 1.738 0.495 2.145c 0.209 0.517 0.693 1.232 1.298 1.232c 0.297 0 0.517 -0.143 0.66 -0.429Z "/></symbol><symbol id="gB4F8E97E8EFD98CA94EE40D9890E0542" overflow="visible"><path d="M 0 0m 4.4891 2.8105c 0 0.3927 -0.4004 0.5852 -0.8162 0.5852c -0.3465 0 -0.6314 -0.1694 -0.847 -0.5082c -0.1848 0.3388 -0.4928 0.5082 -0.9163 0.5082c -0.2849 0 -0.5852 -0.1232 -0.8855 -0.3773c -0.3157 -0.2618 -0.4774 -0.5313 -0.4774 -0.8085c 0 -0.0847 0.0539 -0.1309 0.154 -0.1309c 0.0847 0 0.1386 0.0462 0.1771 0.1463c 0.1386 0.4158 0.5159 0.9009 1.0087 0.9009c 0.2849 0 0.4235 -0.154 0.4235 -0.4697c 0 -0.1001 -0.0539 -0.3619 -0.154 -0.7854l -0.2618 -1.0318c -0.0693 -0.2926 -0.3542 -0.6468 -0.6853 -0.6468c -0.1309 0 -0.2464 0.0231 -0.3388 0.077c 0.154 0.0693 0.2926 0.2387 0.2926 0.4158c 0 0.1848 -0.1463 0.3157 -0.3311 0.3157c -0.2618 0 -0.462 -0.231 -0.462 -0.4928c 0 -0.385 0.4081 -0.5852 0.8239 -0.5852c 0.3542 0 0.6391 0.1694 0.847 0.5082c 0.1848 -0.3388 0.4851 -0.5082 0.9086 -0.5082c 0.4235 0 0.7623 0.1694 1.0241 0.5082c 0.2233 0.3003 0.3388 0.5313 0.3388 0.6776c 0 0.0847 -0.0462 0.1309 -0.1463 0.1309c -0.0847 0 -0.1463 -0.0539 -0.1771 -0.154c -0.1309 -0.4081 -0.5236 -0.8932 -1.0087 -0.8932c -0.2849 0 -0.4312 0.154 -0.4312 0.462c 0 0.1155 0.1309 0.693 0.3927 1.7171c 0.1309 0.5005 0.3619 0.7546 0.7084 0.7546l 0.0693 -0.0077c 0.0924 0 0.1848 -0.0231 0.2695 -0.0616c -0.1925 -0.0847 -0.2849 -0.2233 -0.2849 -0.4235c 0 -0.1848 0.1463 -0.3157 0.3311 -0.3157c 0.2618 0 0.4543 0.231 0.4543 0.4928Z "/></symbol><symbol id="g7058399F9FB7CD69929F2864C4EDB984" overflow="visible"><path d="M 0 0m 4.0348 3.3187c -0.154 0 -0.2695 -0.0693 -0.3388 -0.2002c -0.0154 -0.0231 -0.0539 -0.1694 -0.1232 -0.4466l -0.462 -1.848c -0.0539 -0.0847 -0.1001 -0.1617 -0.154 -0.2233c -0.2464 -0.2849 -0.5005 -0.4235 -0.7546 -0.4235c -0.3234 0 -0.4851 0.2002 -0.4851 0.6006c 0 0.2849 0.1309 0.7777 0.4004 1.463c 0.0847 0.231 0.1309 0.3927 0.1309 0.4774c 0 0.4004 -0.3465 0.6776 -0.7469 0.6776c -0.3696 0 -0.6622 -0.1848 -0.8778 -0.5544c -0.1771 -0.3003 -0.2618 -0.5159 -0.2618 -0.6391c 0 -0.0847 0.0539 -0.1309 0.1617 -0.1309c 0.0847 0 0.1386 0.0462 0.1617 0.1463c 0.1771 0.6006 0.4466 0.9009 0.7931 0.9009c 0.1001 0 0.154 -0.077 0.154 -0.231c 0 -0.1155 -0.0308 -0.2541 -0.1001 -0.4312c -0.1617 -0.4081 -0.2541 -0.6622 -0.2926 -0.7623c -0.1001 -0.3003 -0.1463 -0.5698 -0.1463 -0.7931c 0 -0.6545 0.4235 -0.9933 1.078 -0.9933c 0.2849 0 0.539 0.0924 0.7777 0.2849c -0.1155 -0.4389 -0.2695 -0.7777 -0.4697 -1.0164c -0.2772 -0.3157 -0.5698 -0.4697 -0.8855 -0.4697c -0.2387 0 -0.4158 0.0616 -0.5236 0.1925c 0.2156 0.0539 0.3927 0.2002 0.3927 0.4466c 0 0.2079 -0.1078 0.3157 -0.3311 0.3157c -0.2772 0 -0.4697 -0.2541 -0.4697 -0.5313c 0 -0.4543 0.4466 -0.7007 0.9317 -0.7007c 0.4543 0 0.8624 0.154 1.2397 0.4543c 0.3773 0.3003 0.616 0.6776 0.7238 1.1165l 0.7238 2.8721c 0.0231 0.0847 0.0308 0.1386 0.0308 0.1771c 0 0.154 -0.1232 0.2695 -0.2772 0.2695Z "/></symbol><symbol id="g93668732B0E42348DDA57839D5743AC6" overflow="visible"><path d="M 0 0m 7.722 2.893c 0.275 0.627 0.418 1.254 0.418 1.892c 0 0.858 -0.253 1.562 -0.77 2.123c -0.517 0.561 -1.199 0.847 -2.046 0.847c -0.583 0 -1.166 -0.143 -1.749 -0.429c -1.188 -0.583 -2.057 -1.507 -2.618 -2.761c -0.275 -0.616 -0.418 -1.232 -0.418 -1.859c 0 -0.869 0.253 -1.573 0.77 -2.123c 0.517 -0.55 1.199 -0.825 2.057 -0.825c 0.572 0 1.144 0.143 1.727 0.418c 1.199 0.583 2.068 1.496 2.629 2.717Z m -0.638 2.321c 0 -1.463 -0.66 -2.926 -1.364 -3.795c -0.484 -0.605 -1.32 -1.287 -2.288 -1.287c -1.177 0 -1.793 1.023 -1.793 2.266c 0 0.385 0.077 0.902 0.22 1.529c 0.297 1.298 1.045 2.442 2.024 3.036c 0.473 0.286 0.935 0.429 1.375 0.429c 1.188 0 1.826 -0.946 1.826 -2.178Z "/></symbol><symbol id="gE181C2F2AEAF9A42C82A15275CB4AE73" overflow="visible"><path d="M 0 0m 2.1483 0.3773l 1.0549 4.2196c 0.0231 0.1001 0.0539 0.1694 0.077 0.2079c 0.0616 0.0847 0.2926 0.1232 0.6853 0.1232c 0.2156 0 0.3388 0 0.3388 0.2002c -0.0231 0.077 -0.0385 0.1309 -0.1617 0.1309c -0.1771 -0.0077 -0.3619 -0.0154 -0.5621 -0.0231l -0.6083 -0.0077l -0.5236 0.0077c -0.0924 0 -0.4004 0.0231 -0.4928 0.0231c -0.1309 0 -0.1925 -0.0693 -0.1925 -0.2002c 0 -0.0847 0.0539 -0.1232 0.154 -0.1309l 0.4081 -0.0154c 0.0924 -0.0077 0.1463 -0.0077 0.1463 -0.077l -1.0395 -4.2042c -0.0385 -0.154 -0.1155 -0.2464 -0.231 -0.2849c -0.0385 -0.0077 -0.1694 -0.0154 -0.4081 -0.0154h -0.1309c -0.0847 -0.0077 -0.1309 -0.0693 -0.1309 -0.1848c 0 -0.1309 0.1001 -0.1463 0.2618 -0.1463h 3.8192c 0.2156 0 0.2233 0.0154 0.2926 0.1694c 0.0154 0.0385 0.077 0.2002 0.1848 0.5005l 0.3157 0.8393c 0.1001 0.2541 0.1463 0.3927 0.1463 0.4158c 0 0.0924 -0.0539 0.1386 -0.1617 0.1386c -0.0693 0 -0.1155 -0.0308 -0.1386 -0.0847c -0.2002 -0.4774 -0.2079 -0.5544 -0.4697 -0.9394c -0.2772 -0.4235 -0.8393 -0.7084 -1.5554 -0.7084h -0.8624c -0.1386 0 -0.2156 -0.0154 -0.2156 0.0462Z "/></symbol><symbol id="g70552F85AA7D84D8CDB4439B50ED3E9C" overflow="visible"><path d="M 0 0m 6.8838 5.2283c -0.1694 0 -0.7546 0.0308 -0.924 0.0308c -0.1309 0 -0.1925 -0.0693 -0.1925 -0.2002c 0.0231 -0.077 0.0308 -0.1232 0.1463 -0.1309c 0.1078 -0.0077 0.1617 -0.0385 0.1617 -0.077c 0 -0.0847 -0.1078 -0.2002 -0.3234 -0.3542l -3.1185 -2.1868l 0.5852 2.3177c 0.0385 0.154 0.1155 0.2464 0.231 0.2849c 0.0385 0.0077 0.1694 0.0154 0.4081 0.0154c 0.1771 0 0.2618 0.0385 0.2618 0.1848c 0 0.1001 -0.0539 0.1463 -0.154 0.1463c -0.1925 0 -0.8085 -0.0308 -1.001 -0.0308c -0.3619 0 -0.8393 0.0308 -1.0087 0.0308c -0.1232 0 -0.1848 -0.0693 -0.1848 -0.2002c 0 -0.0847 0.0924 -0.1309 0.2772 -0.1309c 0.2695 0 0.4312 0.0154 0.4312 -0.0924l -1.0472 -4.2042c -0.0385 -0.154 -0.1155 -0.2464 -0.231 -0.2772c -0.0385 -0.0154 -0.1771 -0.0231 -0.4081 -0.0231c -0.1771 0 -0.2618 -0.0231 -0.2618 -0.2002c 0.0231 -0.0847 0.0308 -0.1309 0.154 -0.1309c 0.1848 0 0.8085 0.0308 0.9933 0.0308c 0.3619 0 0.847 -0.0308 1.0164 -0.0308c 0.1232 0 0.1848 0.0693 0.1848 0.2002c 0 0.0693 -0.0231 0.1078 -0.077 0.1155c -0.0847 0.0077 -0.1463 0.0154 -0.1925 0.0154c -0.231 0.0077 -0.4389 -0.0077 -0.4389 0.1001l 0.3542 1.4476l 1.232 0.8624l 1.0934 -2.1098c 0.0308 -0.0616 0.0462 -0.1078 0.0462 -0.1309c 0 -0.1155 -0.1078 -0.1694 -0.3234 -0.1694c -0.1617 0 -0.2233 -0.0539 -0.2233 -0.2002c 0.0231 -0.0847 0.0308 -0.1309 0.154 -0.1309c 0.1848 0 0.7931 0.0308 0.9779 0.0308c 0.1463 0 0.6006 -0.0308 0.7469 -0.0308c 0.1232 0 0.1848 0.0616 0.1848 0.1925c 0 0.0924 -0.0693 0.1386 -0.2002 0.1386c -0.2387 0 -0.4004 0.077 -0.4774 0.2387c -0.4466 0.8701 -0.9009 1.7248 -1.3398 2.6026l 0.1617 0.1309l 0.77 0.539c 0.5698 0.3927 0.8855 0.616 0.9471 0.6545c 0.4235 0.2618 0.7777 0.4081 1.0626 0.4312c 0.1309 0.0077 0.2002 0.077 0.2002 0.1925c 0 0.0847 -0.0462 0.1309 -0.1309 0.1309c -0.0924 0 -0.4312 -0.0231 -0.5236 -0.0231Z "/></symbol><symbol id="gBA224E517FED02B5D6EE58F51B447F43" overflow="visible"><path d="M 0 0m 2.189 7.216c 0 -0.11 0.121 -0.165 0.352 -0.165c 0.44 0 0.66 -0.044 0.66 -0.143c 0 -0.033 -0.022 -0.11 -0.055 -0.253l -1.43 -5.753c -0.055 -0.242 -0.165 -0.385 -0.33 -0.44c -0.077 -0.022 -0.275 -0.033 -0.616 -0.033c -0.242 0 -0.352 -0.022 -0.352 -0.253c 0 -0.121 0.121 -0.176 0.352 -0.176h 5.643c 0.264 0 0.286 0.022 0.374 0.209l 0.44 0.99c 0.297 0.682 0.506 1.188 0.627 1.529c -0.022 0.099 -0.055 0.165 -0.176 0.165c -0.077 0 -0.143 -0.055 -0.187 -0.154c -0.275 -0.649 -0.539 -1.144 -0.803 -1.496c -0.44 -0.594 -1.089 -0.814 -2.123 -0.814h -1.595c -0.11 0 -0.187 0 -0.231 0.011c -0.066 0 -0.099 0.022 -0.099 0.055c 0 0.022 0.022 0.099 0.055 0.242l 0.726 2.937h 1.045c 0.517 0 0.792 -0.066 0.847 -0.209c 0.022 -0.055 0.033 -0.132 0.033 -0.242c 0 -0.143 -0.022 -0.319 -0.077 -0.528c -0.022 -0.055 -0.033 -0.099 -0.033 -0.132c 0 -0.11 0.066 -0.165 0.187 -0.165c 0.099 0 0.165 0.088 0.209 0.253l 0.616 2.552c 0 0.11 -0.055 0.165 -0.176 0.165c -0.088 0 -0.154 -0.077 -0.187 -0.231c -0.11 -0.429 -0.253 -0.704 -0.44 -0.836c -0.187 -0.132 -0.495 -0.198 -0.946 -0.198h -0.968l 0.638 2.563c 0.088 0.374 0.088 0.385 0.55 0.385h 1.529c 0.561 0 0.946 -0.055 1.155 -0.165c 0.308 -0.165 0.462 -0.495 0.462 -0.99c 0 -0.187 -0.011 -0.385 -0.044 -0.572c 0 -0.022 0 -0.055 -0.011 -0.099v -0.099c 0 -0.121 0.055 -0.176 0.165 -0.176c 0.11 0 0.176 0.099 0.198 0.308l 0.22 1.881c 0.033 0.308 -0.044 0.341 -0.341 0.341h -5.489c -0.253 0 -0.374 -0.011 -0.374 -0.264Z "/></symbol><symbol id="g1570446F77F9A6C1B85605F46F92409E" overflow="visible"><path d="M 0 0m 1.364 1.419c 0 0.264 0.055 0.627 0.165 1.078h 0.539c 0.715 0 1.265 0.088 1.661 0.253c 0.363 0.154 0.605 0.374 0.726 0.649c 0.077 0.187 0.11 0.363 0.11 0.506c 0 0.605 -0.572 0.957 -1.188 0.957c -0.429 0 -0.858 -0.11 -1.287 -0.33c -0.847 -0.44 -1.584 -1.441 -1.584 -2.651c 0 -1.122 0.649 -2.002 1.738 -2.002c 0.583 0 1.1 0.143 1.551 0.418c 0.374 0.231 0.649 0.462 0.825 0.693c 0.077 0.099 0.11 0.176 0.11 0.209c 0 0.121 -0.055 0.187 -0.176 0.187c -0.055 0 -0.11 -0.044 -0.176 -0.132c -0.363 -0.484 -0.814 -0.792 -1.331 -0.924c -0.341 -0.088 -0.594 -0.132 -0.781 -0.132c -0.627 0 -0.902 0.594 -0.902 1.221Z m 2.761 2.486c 0 -0.726 -0.704 -1.089 -2.123 -1.089h -0.385c 0.209 0.726 0.517 1.21 0.935 1.441c 0.33 0.187 0.605 0.286 0.825 0.286c 0.396 0 0.748 -0.242 0.748 -0.638Z "/></symbol><symbol id="gDD78C4AC18CD51C41481EB0565E89892" overflow="visible"><path d="M 0 0m 1.507 0.033c 0.198 0 0.88 -0.033 1.089 -0.033c 0.165 0 0.242 0.088 0.242 0.253c 0 0.099 -0.066 0.165 -0.209 0.176c -0.319 0.011 -0.473 0.121 -0.473 0.33c 0 0.099 0.099 0.319 0.308 0.649c 0.297 0.495 0.506 0.858 0.649 1.1h 2.673c 0 -0.077 0.011 -0.231 0.044 -0.473c 0.077 -0.803 0.121 -1.243 0.121 -1.298c 0 -0.209 -0.242 -0.308 -0.737 -0.308c -0.209 0 -0.308 -0.088 -0.308 -0.264c 0 -0.11 0.066 -0.165 0.198 -0.165c 0.264 0 1.1 0.033 1.364 0.033c 0.22 0 1.001 -0.033 1.221 -0.033c 0.165 0 0.242 0.088 0.242 0.264c 0 0.11 -0.099 0.165 -0.297 0.165c -0.308 0 -0.495 0.022 -0.55 0.055c -0.055 0.033 -0.099 0.132 -0.11 0.297l -0.66 6.798c -0.033 0.209 -0.022 0.297 -0.253 0.297c -0.132 0 -0.242 -0.066 -0.319 -0.209l -3.784 -6.347c -0.33 -0.55 -0.77 -0.847 -1.309 -0.891c -0.176 -0.011 -0.264 -0.099 -0.264 -0.264c 0 -0.11 0.066 -0.165 0.187 -0.165c 0.176 0 0.759 0.033 0.935 0.033Z m 3.905 6.314l 0.33 -3.41h -2.365Z "/></symbol></defs></svg>