<svg xmlns="http://www.w3.org/2000/svg" viewBox="0 0 512 342" width="512" height="342" font-family="sans-serif"><rect x="92.0" y="54.0" width="360.0" height="216.0" fill="#fff" stroke="#111" stroke-width="1.4"/><line x1="200.0" y1="270.0" x2="200.0" y2="54.0" stroke="#9aa0a6" stroke-width="1" stroke-dasharray="3 3"/><line x1="92.0" y1="90.0" x2="452.0" y2="90.0" stroke="#9aa0a6" stroke-width="1" stroke-dasharray="3 3"/><path d="M 200.0,90.0 L 201.7,94.6 L 203.4,99.0 L 205.1,103.3 L 206.8,107.4 L 208.5,111.3 L 210.2,115.1 L 211.9,118.7 L 213.6,122.2 L 215.3,125.6 L 217.0,128.9 L 218.7,132.0 L 220.4,135.0 L 222.1,138.0 L 223.8,140.8 L 225.5,143.5 L 227.2,146.1 L 228.9,148.7 L 230.5,151.2 L 232.2,153.5 L 233.9,155.9 L 235.6,158.1 L 237.3,160.3 L 239.0,162.4 L 240.7,164.4 L 242.4,166.4 L 244.1,168.3 L 245.8,170.2 L 247.5,172.0 L 249.2,173.7 L 250.9,175.4 L 252.6,177.1 L 254.3,178.7 L 256.0,180.3 L 257.7,181.8 L 259.4,183.3 L 261.1,184.7 L 262.8,186.1 L 264.5,187.5 L 266.2,188.9 L 267.9,190.2 L 269.6,191.4 L 271.3,192.7 L 273.0,193.9 L 274.7,195.0 L 276.4,196.2 L 278.1,197.3 L 279.8,198.4 L 281.5,199.5 L 283.2,200.5 L 284.9,201.5 L 286.6,202.5 L 288.3,203.5 L 289.9,204.4 L 291.6,205.4 L 293.3,206.3 L 295.0,207.1 L 296.7,208.0 L 298.4,208.9 L 300.1,209.7 L 301.8,210.5 L 303.5,211.3 L 305.2,212.1 L 306.9,212.8 L 308.6,213.6 L 310.3,214.3 L 312.0,215.0 L 313.7,215.7 L 315.4,216.4 L 317.1,217.1 L 318.8,217.7 L 320.5,218.4 L 322.2,219.0 L 323.9,219.6 L 325.6,220.2 L 327.3,220.8 L 329.0,221.4 L 330.7,222.0 L 332.4,222.6 L 334.1,223.1 L 335.8,223.7 L 337.5,224.2 L 339.2,224.7 L 340.9,225.2 L 342.6,225.7 L 344.3,226.2 L 346.0,226.7 L 347.7,227.2 L 349.3,227.7 L 351.0,228.1 L 352.7,228.6 L 352.7,224.1 L 351.0,219.4 L 349.3,214.8 L 347.7,210.5 L 346.0,206.3 L 344.3,202.4 L 342.6,198.5 L 340.9,194.9 L 339.2,191.4 L 337.5,188.0 L 335.8,184.8 L 334.1,181.6 L 332.4,178.6 L 330.7,175.7 L 329.0,172.9 L 327.3,170.3 L 325.6,167.7 L 323.9,165.2 L 322.2,162.8 L 320.5,160.4 L 318.8,158.2 L 317.1,156.0 L 315.4,153.9 L 313.7,151.9 L 312.0,149.9 L 310.3,148.0 L 308.6,146.1 L 306.9,144.4 L 305.2,142.6 L 303.5,140.9 L 301.8,139.3 L 300.1,137.7 L 298.4,136.2 L 296.7,134.7 L 295.0,133.2 L 293.3,131.8 L 291.6,130.5 L 289.9,129.1 L 288.3,127.8 L 286.6,126.6 L 284.9,125.4 L 283.2,124.2 L 281.5,123.0 L 279.8,121.9 L 278.1,120.8 L 276.4,119.7 L 274.7,118.7 L 273.0,117.6 L 271.3,116.7 L 269.6,115.7 L 267.9,114.7 L 266.2,113.8 L 264.5,112.9 L 262.8,112.0 L 261.1,111.2 L 259.4,110.3 L 257.7,109.5 L 256.0,108.7 L 254.3,107.9 L 252.6,107.2 L 250.9,106.4 L 249.2,105.7 L 247.5,105.0 L 245.8,104.3 L 244.1,103.6 L 242.4,102.9 L 240.7,102.3 L 239.0,101.7 L 237.3,101.0 L 235.6,100.4 L 233.9,99.8 L 232.2,99.2 L 230.5,98.7 L 228.9,98.1 L 227.2,97.5 L 225.5,97.0 L 223.8,96.5 L 222.1,95.9 L 220.4,95.4 L 218.7,94.9 L 217.0,94.4 L 215.3,94.0 L 213.6,93.5 L 211.9,93.0 L 210.2,92.6 L 208.5,92.1 L 206.8,91.7 L 205.1,91.2 L 203.4,90.8 L 201.7,90.4 L 200.0,90.0 Z" fill="rgba(217,130,43,0.28)" stroke="none"/><path d="M 192.2,66.0 L 196.0,78.3 L 199.8,89.4 L 203.6,99.6 L 207.4,108.8 L 211.2,117.3 L 215.0,125.1 L 218.8,132.2 L 222.6,138.9 L 226.4,145.0 L 230.2,150.7 L 234.0,155.9 L 237.8,160.8 L 241.6,165.4 L 245.4,169.7 L 249.2,173.7 L 253.0,177.5 L 256.8,181.0 L 260.6,184.3 L 264.4,187.4 L 268.2,190.4 L 272.0,193.2 L 275.8,195.8 L 279.6,198.3 L 283.4,200.6 L 287.2,202.9 L 291.0,205.0 L 294.8,207.0 L 298.6,208.9 L 302.4,210.8 L 306.2,212.5 L 310.0,214.2 L 313.8,215.8 L 317.6,217.3 L 321.4,218.7 L 325.2,220.1 L 329.0,221.4 L 332.8,222.7 L 336.6,223.9 L 340.4,225.1 L 344.2,226.2 L 348.0,227.3 L 351.8,228.3 L 355.6,229.3 L 359.4,230.3 L 363.2,231.2 L 367.0,232.1 L 370.8,232.9 L 374.6,233.8 L 378.4,234.6 L 382.2,235.3 L 386.0,236.1 L 389.8,236.8 L 393.6,237.5 L 397.4,238.2 L 401.2,238.8 L 405.0,239.4 L 408.8,240.1 L 412.6,240.6 L 416.4,241.2 L 420.2,241.8 L 424.0,242.3 L 427.8,242.8 L 431.6,243.3 L 435.4,243.8 L 439.2,244.3 L 443.0,244.8" fill="none" stroke="#c0392b" stroke-width="1.8"/><path d="M 101.0,74.7 L 104.8,75.1 L 108.6,75.5 L 112.4,75.9 L 116.2,76.3 L 120.0,76.7 L 123.8,77.2 L 127.6,77.6 L 131.4,78.1 L 135.2,78.6 L 139.0,79.1 L 142.8,79.6 L 146.6,80.1 L 150.4,80.7 L 154.2,81.3 L 158.0,81.8 L 161.8,82.5 L 165.6,83.1 L 169.4,83.7 L 173.2,84.4 L 177.0,85.1 L 180.8,85.9 L 184.6,86.6 L 188.4,87.4 L 192.2,88.2 L 196.0,89.1 L 199.8,90.0 L 203.6,90.9 L 207.4,91.8 L 211.2,92.8 L 215.0,93.9 L 218.8,95.0 L 222.6,96.1 L 226.4,97.3 L 230.2,98.5 L 234.0,99.8 L 237.8,101.2 L 241.6,102.6 L 245.4,104.1 L 249.2,105.7 L 253.0,107.4 L 256.8,109.1 L 260.6,110.9 L 264.4,112.9 L 268.2,114.9 L 272.0,117.1 L 275.8,119.4 L 279.6,121.8 L 283.4,124.3 L 287.2,127.1 L 291.0,130.0 L 294.8,133.0 L 298.6,136.3 L 302.4,139.9 L 306.2,143.6 L 310.0,147.6 L 313.8,152.0 L 317.6,156.6 L 321.4,161.7 L 325.2,167.1 L 329.0,173.0 L 332.8,179.4 L 336.6,186.3 L 340.4,193.9 L 344.2,202.2 L 348.0,211.4 L 351.8,221.4 L 355.6,232.6 L 359.4,245.0 L 363.2,258.8" fill="none" stroke="#2c5fa6" stroke-width="1.8"/><circle cx="200.0" cy="90.0" r="3.6" fill="#111"/><text x="178.0" y="83.0" font-size="15" font-weight="700" fill="#111">B</text><circle cx="246.8" cy="133.2" r="3.6" fill="#b8430f"/><text x="256.8" y="126.2" font-size="15" font-weight="700" fill="#b8430f">C</text><text x="286.4" y="162.0" font-size="12" fill="#9a5a14">改善領域</text><text x="92.0" y="285.0" font-size="10" text-anchor="middle" fill="#c0392b">0</text><text x="92.0" y="48.0" font-size="10" text-anchor="middle" fill="#2c5fa6">10</text><text x="128.0" y="285.0" font-size="10" text-anchor="middle" fill="#c0392b">1</text><text x="128.0" y="48.0" font-size="10" text-anchor="middle" fill="#2c5fa6">9</text><text x="164.0" y="285.0" font-size="10" text-anchor="middle" fill="#c0392b">2</text><text x="164.0" y="48.0" font-size="10" text-anchor="middle" fill="#2c5fa6">8</text><text x="200.0" y="285.0" font-size="10" text-anchor="middle" fill="#c0392b">3</text><text x="200.0" y="48.0" font-size="10" text-anchor="middle" fill="#2c5fa6">7</text><text x="236.0" y="285.0" font-size="10" text-anchor="middle" fill="#c0392b">4</text><text x="236.0" y="48.0" font-size="10" text-anchor="middle" fill="#2c5fa6">6</text><text x="272.0" y="285.0" font-size="10" text-anchor="middle" fill="#c0392b">5</text><text x="272.0" y="48.0" font-size="10" text-anchor="middle" fill="#2c5fa6">5</text><text x="308.0" y="285.0" font-size="10" text-anchor="middle" fill="#c0392b">6</text><text x="308.0" y="48.0" font-size="10" text-anchor="middle" fill="#2c5fa6">4</text><text x="344.0" y="285.0" font-size="10" text-anchor="middle" fill="#c0392b">7</text><text x="344.0" y="48.0" font-size="10" text-anchor="middle" fill="#2c5fa6">3</text><text x="380.0" y="285.0" font-size="10" text-anchor="middle" fill="#c0392b">8</text><text x="380.0" y="48.0" font-size="10" text-anchor="middle" fill="#2c5fa6">2</text><text x="416.0" y="285.0" font-size="10" text-anchor="middle" fill="#c0392b">9</text><text x="416.0" y="48.0" font-size="10" text-anchor="middle" fill="#2c5fa6">1</text><text x="452.0" y="285.0" font-size="10" text-anchor="middle" fill="#c0392b">10</text><text x="452.0" y="48.0" font-size="10" text-anchor="middle" fill="#2c5fa6">0</text><text x="85.0" y="273.5" font-size="10" text-anchor="end" fill="#c0392b">0</text><text x="459.0" y="273.5" font-size="10" text-anchor="start" fill="#2c5fa6">6</text><text x="85.0" y="237.5" font-size="10" text-anchor="end" fill="#c0392b">1</text><text x="459.0" y="237.5" font-size="10" text-anchor="start" fill="#2c5fa6">5</text><text x="85.0" y="201.5" font-size="10" text-anchor="end" fill="#c0392b">2</text><text x="459.0" y="201.5" font-size="10" text-anchor="start" fill="#2c5fa6">4</text><text x="85.0" y="165.5" font-size="10" text-anchor="end" fill="#c0392b">3</text><text x="459.0" y="165.5" font-size="10" text-anchor="start" fill="#2c5fa6">3</text><text x="85.0" y="129.5" font-size="10" text-anchor="end" fill="#c0392b">4</text><text x="459.0" y="129.5" font-size="10" text-anchor="start" fill="#2c5fa6">2</text><text x="85.0" y="93.5" font-size="10" text-anchor="end" fill="#c0392b">5</text><text x="459.0" y="93.5" font-size="10" text-anchor="start" fill="#2c5fa6">1</text><text x="85.0" y="57.5" font-size="10" text-anchor="end" fill="#c0392b">6</text><text x="459.0" y="57.5" font-size="10" text-anchor="start" fill="#2c5fa6">0</text><text x="272.0" y="18" font-size="14.5" font-weight="700" text-anchor="middle" fill="#111">点B：パレート非効率（無差別曲線が交差）と改善領域</text><text x="92.0" y="304.0" font-size="13" fill="#c0392b">O_K（ケネス）</text><text x="452.0" y="34.0" font-size="13" text-anchor="end" fill="#2c5fa6">O_L（レオン）</text><text x="272.0" y="303.0" font-size="12" text-anchor="middle" fill="#c0392b">→ ケネスの財 x</text><text x="62.0" y="162.0" font-size="12" text-anchor="middle" fill="#c0392b" transform="rotate(-90 62.0 162.0)">↑ ケネスの財 y</text></svg>