<svg viewBox="0 0 539.76335748 372.263017323" width="539.76335748pt" height="372.263017323pt" xmlns="http://www.w3.org/2000/svg" xmlns:xlink="http://www.w3.org/1999/xlink" xmlns:h5="http://www.w3.org/1999/xhtml"><g transform="translate(1.417322835 1.417322835)"><path fill="none" stroke="#000000" stroke-width="1" stroke-linecap="butt" stroke-linejoin="miter" stroke-miterlimit="4" transform="translate(55.865930709 57.155130709)" d="M 0 0m 0 255.118110236v -282.040537958"/><path fill="none" stroke="#000000" stroke-width="1" stroke-linecap="butt" stroke-linejoin="miter" stroke-miterlimit="4" stroke-dashoffset="0" stroke-dasharray="" transform="translate(53.739946457 -219.216144257)" d="M 0 0m 0 255.118110236l 2.125984252 -5.669291339l 2.125984252 5.669291339"/><path fill="none" stroke="#000000" stroke-width="1" stroke-linecap="butt" stroke-linejoin="miter" stroke-miterlimit="4" transform="translate(55.865930709 57.155130709)" d="M 0 0m 0 255.118110236h 452.119278116"/><path fill="none" stroke="#000000" stroke-width="1" stroke-linecap="butt" stroke-linejoin="miter" stroke-miterlimit="4" stroke-dashoffset="0" stroke-dasharray="" transform="translate(502.315945832 59.281114961)" d="M 0 0m 0 250.866141732l 5.669291339 2.125984252l -5.669291339 2.125984252"/><path fill="none" stroke="#000000" stroke-width="1" stroke-linecap="butt" stroke-linejoin="miter" stroke-miterlimit="4" transform="translate(28.943502986 -197.962979528)" d="M 0 0m 452.119278116 255.118110236h -452.119278116"/><path fill="none" stroke="#000000" stroke-width="1" stroke-linecap="butt" stroke-linejoin="miter" stroke-miterlimit="4" stroke-dashoffset="0" stroke-dasharray="" transform="translate(28.943474641 -195.836995276)" d="M 0 0m 5.669291339 255.118110236l -5.669291339 -2.125984252l 5.669291339 -2.125984252"/><path fill="none" stroke="#000000" stroke-width="1" stroke-linecap="butt" stroke-linejoin="miter" stroke-miterlimit="4" transform="translate(481.062781102 84.077558431)" d="M 0 0m 0 -26.922427722v 282.040537958"/><path fill="none" stroke="#000000" stroke-width="1" stroke-linecap="butt" stroke-linejoin="miter" stroke-miterlimit="4" stroke-dashoffset="0" stroke-dasharray="" transform="translate(478.93679685 84.077586777)" d="M 0 0m 4.251968504 249.448818898l -2.125984252 5.669291339l -2.125984252 -5.669291339"/><path fill="none" transform="translate(509.409237795 62.308630709)" d="M 0 0m 0 244.811110236h 27.519474016v 10.307h -27.519474016v -10.307Z "/><g transform="translate(509.40923778 307.119740882)"><g transform="matrix(1 0 0 -1 8.503937008 7.513)"><use xlink:href="#gAB91A7DFDE77F31CB872F1FD393E8C99" x="0" y="0" fill="#000000" fill-rule="nonzero"/></g><g transform="matrix(1 0 0 -1 13.409937008 10.23)"><use xlink:href="#gB4F8E97E8EFD98CA94EE40D9890E0542" x="0" y="0" fill="#000000" fill-rule="nonzero"/></g></g><path fill="none" transform="translate(50.841130709 -226.30943622)" d="M 0 0m 0 226.30943622h 10.0496v 28.808674016h -10.0496v -28.808674016Z "/><g transform="translate(50.841130646 -1.42e-7)"><g transform="matrix(1 0 0 -1 0 16.016937008)"><use xlink:href="#gAB91A7DFDE77F31CB872F1FD393E8C99" x="0" y="0" fill="#000000" fill-rule="nonzero"/></g><g transform="matrix(1 0 0 -1 4.906 18.733937008)"><use xlink:href="#g7058399F9FB7CD69929F2864C4EDB984" x="0" y="0" fill="#000000" fill-rule="nonzero"/></g></g><path fill="none" transform="translate(0 -192.809479528)" d="M 0 0m 0 244.811110236h 27.519474016v 10.307h -27.519474016v -10.307Z "/><g transform="translate(-1.6e-8 52.001630646)"><g transform="matrix(1 0 0 -1 8.503937008 7.513)"><use xlink:href="#gAB91A7DFDE77F31CB872F1FD393E8C99" x="0" y="0" fill="#000000" fill-rule="nonzero"/></g><g transform="matrix(1 0 0 -1 13.409937008 10.23)"><use xlink:href="#gB4F8E97E8EFD98CA94EE40D9890E0542" x="0" y="0" fill="#000000" fill-rule="nonzero"/></g></g><path fill="none" transform="translate(476.037981102 114.310261417)" d="M 0 0m 0 226.30943622h 10.0496v 28.808674016h -10.0496v -28.808674016Z "/><g transform="translate(476.037981039 340.619697496)"><g transform="matrix(1 0 0 -1 0 16.016937008)"><use xlink:href="#gAB91A7DFDE77F31CB872F1FD393E8C99" x="0" y="0" fill="#000000" fill-rule="nonzero"/></g><g transform="matrix(1 0 0 -1 4.906 18.733937008)"><use xlink:href="#g7058399F9FB7CD69929F2864C4EDB984" x="0" y="0" fill="#000000" fill-rule="nonzero"/></g></g><path fill="none" transform="translate(41.480130709 67.385130709)" d="M 0 0m 0 244.888110236h 14.3858v 10.23h -14.3858v -10.23Z "/><g transform="translate(41.480130646 312.273240898)"><g transform="matrix(1 0 0 -1 0 7.513)"><use xlink:href="#g93668732B0E42348DDA57839D5743AC6" x="0" y="0" fill="#000000" fill-rule="nonzero"/></g><g transform="matrix(1 0 0 -1 7.733 10.23)"><use xlink:href="#gE181C2F2AEAF9A42C82A15275CB4AE73" x="0" y="0" fill="#000000" fill-rule="nonzero"/></g></g><path fill="none" transform="translate(481.062781102 -197.962979528)" d="M 0 0m 0 244.888110236h 16.1029v 10.23h -16.1029v -10.23Z "/><g transform="translate(481.062781071 46.925130661)"><g transform="matrix(1 0 0 -1 0 7.513)"><use xlink:href="#g93668732B0E42348DDA57839D5743AC6" x="0" y="0" fill="#000000" fill-rule="nonzero"/></g><g transform="matrix(1 0 0 -1 7.733 10.23)"><use xlink:href="#g70552F85AA7D84D8CDB4439B50ED3E9C" x="0" y="0" fill="#000000" fill-rule="nonzero"/></g></g><path fill="#000000" fill-rule="nonzero" stroke="#000000" stroke-width="1" stroke-linecap="butt" stroke-linejoin="miter" stroke-miterlimit="4" transform="translate(479.062781102 -195.962979528)" d="M 0 0m 2 251.118110236c -1.103568 0 -2 0.896432 -2 2c 0 1.103568 0.896432 2 2 2c 1.103568 0 2 -0.896432 2 -2c 0 -1.103568 -0.896432 -2 -2 -2Z "/><path fill="#000000" fill-rule="nonzero" stroke="#000000" stroke-width="1" stroke-linecap="butt" stroke-linejoin="miter" stroke-miterlimit="4" transform="translate(53.865930709 59.155130709)" d="M 0 0m 2 251.118110236c -1.103568 0 -2 0.896432 -2 2c 0 1.103568 0.896432 2 2 2c 1.103568 0 2 -0.896432 2 -2c 0 -1.103568 -0.896432 -2 -2 -2Z "/><path fill="none" stroke="#0074d9" stroke-width="1" stroke-linecap="butt" stroke-linejoin="miter" stroke-miterlimit="4" transform="translate(225.944670866 -16.545656693)" d="M 0 0m 141.732283465 255.118110236c -91.185105259 -18.930738325 -138.429199748 -79.40317927 -141.732283465 -181.417322835"/><path fill="none" transform="translate(318.176954331 -7.580656693)" d="M 0 0m 0 246.153110236h 99v 8.965h -99v -8.965Z "/><g transform="translate(318.176954331 238.572453512)"><g transform="matrix(1 0 0 -1 0 8.063)"><use xlink:href="#gFD3F318F9AD864B075468422A49F37D5" x="0" y="0" fill="#000000" fill-rule="nonzero"/><use xlink:href="#g25469247A495E561126F1D960886AE7B" x="11" y="0" fill="#000000" fill-rule="nonzero"/><use xlink:href="#g244CE90BA19ECA19DB28F82C245652F7" x="22" y="0" fill="#000000" fill-rule="nonzero"/></g><g transform="matrix(1 0 0 -1 33 8.063)"><use xlink:href="#g8BDC3B4B5AC2DB062A98302AD42A2109" x="0" y="0" fill="#000000" fill-rule="nonzero"/></g><g transform="matrix(1 0 0 -1 44 8.063)"><use xlink:href="#gF5907DC183BF5AB8AF969596CEAD0998" x="0" y="0" fill="#000000" fill-rule="nonzero"/><use xlink:href="#gCEF9B75B8A7DB65C00285F569A93FB2A" x="11" y="0" fill="#000000" fill-rule="nonzero"/><use xlink:href="#g2633A409F4385944B0FDF399CCC779EA" x="22" y="0" fill="#000000" fill-rule="nonzero"/><use xlink:href="#g12FB27B1A45505CD93C4EC89591BAA81" x="33" y="0" fill="#000000" fill-rule="nonzero"/><use xlink:href="#g428D0B86A7AD6C7DCE8B8115A9BFC4D5" x="44" y="0" fill="#000000" fill-rule="nonzero"/></g></g><path fill="none" stroke="#0074d9" stroke-width="1" stroke-linecap="butt" stroke-linejoin="miter" stroke-miterlimit="4" transform="translate(186.259631496 23.139382677)" d="M 0 0m 141.732283465 255.118110236c -91.185105259 -18.930738325 -138.429199748 -79.40317927 -141.732283465 -181.417322835"/><path fill="none" stroke="#0074d9" stroke-width="1" stroke-linecap="butt" stroke-linejoin="miter" stroke-miterlimit="4" transform="translate(271.299001575 -44.892113386)" d="M 0 0m 141.732283465 255.118110236c -91.185105259 -18.930738325 -138.429199748 -79.40317927 -141.732283465 -181.417322835"/></g><defs><symbol id="gAB91A7DFDE77F31CB872F1FD393E8C99" overflow="visible"><path d="M 0 0m 4.092 4.147c -0.22 0.473 -0.561 0.715 -1.012 0.715c -0.715 0 -1.342 -0.363 -1.881 -1.1c -0.506 -0.682 -0.759 -1.386 -0.759 -2.123c 0 -0.957 0.55 -1.782 1.463 -1.782c 0.396 0 0.792 0.187 1.199 0.561l -0.451 -1.804c -0.033 -0.165 -0.132 -0.264 -0.286 -0.297c -0.055 -0.011 -0.198 -0.022 -0.451 -0.022c -0.066 -0.011 -0.11 -0.011 -0.132 -0.011c -0.099 -0.011 -0.154 -0.099 -0.154 -0.253v -0.044c 0.033 -0.077 0.099 -0.121 0.187 -0.121c 0.209 0 0.869 0.033 1.078 0.033c 0.209 0 0.902 -0.033 1.111 -0.033c 0.154 0 0.231 0.088 0.231 0.264c 0 0.11 -0.11 0.165 -0.319 0.165c -0.198 0 -0.473 -0.011 -0.473 0.121c 0 0.044 0.011 0.121 0.044 0.231l 1.485 6.05c 0 0.099 -0.055 0.154 -0.154 0.154c -0.198 0 -0.616 -0.55 -0.726 -0.704Z m -0.352 -0.044c 0.099 -0.231 0.154 -0.385 0.154 -0.484c 0 -0.011 -0.011 -0.077 -0.033 -0.176l -0.264 -1.067c -0.209 -0.792 -0.308 -1.199 -0.319 -1.221c -0.209 -0.385 -0.814 -0.979 -1.342 -0.979c -0.429 0 -0.649 0.33 -0.649 0.979c 0 0.506 0.341 1.738 0.495 2.145c 0.209 0.517 0.693 1.232 1.298 1.232c 0.297 0 0.517 -0.143 0.66 -0.429Z "/></symbol><symbol id="gB4F8E97E8EFD98CA94EE40D9890E0542" overflow="visible"><path d="M 0 0m 4.4891 2.8105c 0 0.3927 -0.4004 0.5852 -0.8162 0.5852c -0.3465 0 -0.6314 -0.1694 -0.847 -0.5082c -0.1848 0.3388 -0.4928 0.5082 -0.9163 0.5082c -0.2849 0 -0.5852 -0.1232 -0.8855 -0.3773c -0.3157 -0.2618 -0.4774 -0.5313 -0.4774 -0.8085c 0 -0.0847 0.0539 -0.1309 0.154 -0.1309c 0.0847 0 0.1386 0.0462 0.1771 0.1463c 0.1386 0.4158 0.5159 0.9009 1.0087 0.9009c 0.2849 0 0.4235 -0.154 0.4235 -0.4697c 0 -0.1001 -0.0539 -0.3619 -0.154 -0.7854l -0.2618 -1.0318c -0.0693 -0.2926 -0.3542 -0.6468 -0.6853 -0.6468c -0.1309 0 -0.2464 0.0231 -0.3388 0.077c 0.154 0.0693 0.2926 0.2387 0.2926 0.4158c 0 0.1848 -0.1463 0.3157 -0.3311 0.3157c -0.2618 0 -0.462 -0.231 -0.462 -0.4928c 0 -0.385 0.4081 -0.5852 0.8239 -0.5852c 0.3542 0 0.6391 0.1694 0.847 0.5082c 0.1848 -0.3388 0.4851 -0.5082 0.9086 -0.5082c 0.4235 0 0.7623 0.1694 1.0241 0.5082c 0.2233 0.3003 0.3388 0.5313 0.3388 0.6776c 0 0.0847 -0.0462 0.1309 -0.1463 0.1309c -0.0847 0 -0.1463 -0.0539 -0.1771 -0.154c -0.1309 -0.4081 -0.5236 -0.8932 -1.0087 -0.8932c -0.2849 0 -0.4312 0.154 -0.4312 0.462c 0 0.1155 0.1309 0.693 0.3927 1.7171c 0.1309 0.5005 0.3619 0.7546 0.7084 0.7546l 0.0693 -0.0077c 0.0924 0 0.1848 -0.0231 0.2695 -0.0616c -0.1925 -0.0847 -0.2849 -0.2233 -0.2849 -0.4235c 0 -0.1848 0.1463 -0.3157 0.3311 -0.3157c 0.2618 0 0.4543 0.231 0.4543 0.4928Z "/></symbol><symbol id="g7058399F9FB7CD69929F2864C4EDB984" overflow="visible"><path d="M 0 0m 4.0348 3.3187c -0.154 0 -0.2695 -0.0693 -0.3388 -0.2002c -0.0154 -0.0231 -0.0539 -0.1694 -0.1232 -0.4466l -0.462 -1.848c -0.0539 -0.0847 -0.1001 -0.1617 -0.154 -0.2233c -0.2464 -0.2849 -0.5005 -0.4235 -0.7546 -0.4235c -0.3234 0 -0.4851 0.2002 -0.4851 0.6006c 0 0.2849 0.1309 0.7777 0.4004 1.463c 0.0847 0.231 0.1309 0.3927 0.1309 0.4774c 0 0.4004 -0.3465 0.6776 -0.7469 0.6776c -0.3696 0 -0.6622 -0.1848 -0.8778 -0.5544c -0.1771 -0.3003 -0.2618 -0.5159 -0.2618 -0.6391c 0 -0.0847 0.0539 -0.1309 0.1617 -0.1309c 0.0847 0 0.1386 0.0462 0.1617 0.1463c 0.1771 0.6006 0.4466 0.9009 0.7931 0.9009c 0.1001 0 0.154 -0.077 0.154 -0.231c 0 -0.1155 -0.0308 -0.2541 -0.1001 -0.4312c -0.1617 -0.4081 -0.2541 -0.6622 -0.2926 -0.7623c -0.1001 -0.3003 -0.1463 -0.5698 -0.1463 -0.7931c 0 -0.6545 0.4235 -0.9933 1.078 -0.9933c 0.2849 0 0.539 0.0924 0.7777 0.2849c -0.1155 -0.4389 -0.2695 -0.7777 -0.4697 -1.0164c -0.2772 -0.3157 -0.5698 -0.4697 -0.8855 -0.4697c -0.2387 0 -0.4158 0.0616 -0.5236 0.1925c 0.2156 0.0539 0.3927 0.2002 0.3927 0.4466c 0 0.2079 -0.1078 0.3157 -0.3311 0.3157c -0.2772 0 -0.4697 -0.2541 -0.4697 -0.5313c 0 -0.4543 0.4466 -0.7007 0.9317 -0.7007c 0.4543 0 0.8624 0.154 1.2397 0.4543c 0.3773 0.3003 0.616 0.6776 0.7238 1.1165l 0.7238 2.8721c 0.0231 0.0847 0.0308 0.1386 0.0308 0.1771c 0 0.154 -0.1232 0.2695 -0.2772 0.2695Z "/></symbol><symbol id="g93668732B0E42348DDA57839D5743AC6" overflow="visible"><path d="M 0 0m 7.722 2.893c 0.275 0.627 0.418 1.254 0.418 1.892c 0 0.858 -0.253 1.562 -0.77 2.123c -0.517 0.561 -1.199 0.847 -2.046 0.847c -0.583 0 -1.166 -0.143 -1.749 -0.429c -1.188 -0.583 -2.057 -1.507 -2.618 -2.761c -0.275 -0.616 -0.418 -1.232 -0.418 -1.859c 0 -0.869 0.253 -1.573 0.77 -2.123c 0.517 -0.55 1.199 -0.825 2.057 -0.825c 0.572 0 1.144 0.143 1.727 0.418c 1.199 0.583 2.068 1.496 2.629 2.717Z m -0.638 2.321c 0 -1.463 -0.66 -2.926 -1.364 -3.795c -0.484 -0.605 -1.32 -1.287 -2.288 -1.287c -1.177 0 -1.793 1.023 -1.793 2.266c 0 0.385 0.077 0.902 0.22 1.529c 0.297 1.298 1.045 2.442 2.024 3.036c 0.473 0.286 0.935 0.429 1.375 0.429c 1.188 0 1.826 -0.946 1.826 -2.178Z "/></symbol><symbol id="gE181C2F2AEAF9A42C82A15275CB4AE73" overflow="visible"><path d="M 0 0m 2.1483 0.3773l 1.0549 4.2196c 0.0231 0.1001 0.0539 0.1694 0.077 0.2079c 0.0616 0.0847 0.2926 0.1232 0.6853 0.1232c 0.2156 0 0.3388 0 0.3388 0.2002c -0.0231 0.077 -0.0385 0.1309 -0.1617 0.1309c -0.1771 -0.0077 -0.3619 -0.0154 -0.5621 -0.0231l -0.6083 -0.0077l -0.5236 0.0077c -0.0924 0 -0.4004 0.0231 -0.4928 0.0231c -0.1309 0 -0.1925 -0.0693 -0.1925 -0.2002c 0 -0.0847 0.0539 -0.1232 0.154 -0.1309l 0.4081 -0.0154c 0.0924 -0.0077 0.1463 -0.0077 0.1463 -0.077l -1.0395 -4.2042c -0.0385 -0.154 -0.1155 -0.2464 -0.231 -0.2849c -0.0385 -0.0077 -0.1694 -0.0154 -0.4081 -0.0154h -0.1309c -0.0847 -0.0077 -0.1309 -0.0693 -0.1309 -0.1848c 0 -0.1309 0.1001 -0.1463 0.2618 -0.1463h 3.8192c 0.2156 0 0.2233 0.0154 0.2926 0.1694c 0.0154 0.0385 0.077 0.2002 0.1848 0.5005l 0.3157 0.8393c 0.1001 0.2541 0.1463 0.3927 0.1463 0.4158c 0 0.0924 -0.0539 0.1386 -0.1617 0.1386c -0.0693 0 -0.1155 -0.0308 -0.1386 -0.0847c -0.2002 -0.4774 -0.2079 -0.5544 -0.4697 -0.9394c -0.2772 -0.4235 -0.8393 -0.7084 -1.5554 -0.7084h -0.8624c -0.1386 0 -0.2156 -0.0154 -0.2156 0.0462Z "/></symbol><symbol id="g70552F85AA7D84D8CDB4439B50ED3E9C" overflow="visible"><path d="M 0 0m 6.8838 5.2283c -0.1694 0 -0.7546 0.0308 -0.924 0.0308c -0.1309 0 -0.1925 -0.0693 -0.1925 -0.2002c 0.0231 -0.077 0.0308 -0.1232 0.1463 -0.1309c 0.1078 -0.0077 0.1617 -0.0385 0.1617 -0.077c 0 -0.0847 -0.1078 -0.2002 -0.3234 -0.3542l -3.1185 -2.1868l 0.5852 2.3177c 0.0385 0.154 0.1155 0.2464 0.231 0.2849c 0.0385 0.0077 0.1694 0.0154 0.4081 0.0154c 0.1771 0 0.2618 0.0385 0.2618 0.1848c 0 0.1001 -0.0539 0.1463 -0.154 0.1463c -0.1925 0 -0.8085 -0.0308 -1.001 -0.0308c -0.3619 0 -0.8393 0.0308 -1.0087 0.0308c -0.1232 0 -0.1848 -0.0693 -0.1848 -0.2002c 0 -0.0847 0.0924 -0.1309 0.2772 -0.1309c 0.2695 0 0.4312 0.0154 0.4312 -0.0924l -1.0472 -4.2042c -0.0385 -0.154 -0.1155 -0.2464 -0.231 -0.2772c -0.0385 -0.0154 -0.1771 -0.0231 -0.4081 -0.0231c -0.1771 0 -0.2618 -0.0231 -0.2618 -0.2002c 0.0231 -0.0847 0.0308 -0.1309 0.154 -0.1309c 0.1848 0 0.8085 0.0308 0.9933 0.0308c 0.3619 0 0.847 -0.0308 1.0164 -0.0308c 0.1232 0 0.1848 0.0693 0.1848 0.2002c 0 0.0693 -0.0231 0.1078 -0.077 0.1155c -0.0847 0.0077 -0.1463 0.0154 -0.1925 0.0154c -0.231 0.0077 -0.4389 -0.0077 -0.4389 0.1001l 0.3542 1.4476l 1.232 0.8624l 1.0934 -2.1098c 0.0308 -0.0616 0.0462 -0.1078 0.0462 -0.1309c 0 -0.1155 -0.1078 -0.1694 -0.3234 -0.1694c -0.1617 0 -0.2233 -0.0539 -0.2233 -0.2002c 0.0231 -0.0847 0.0308 -0.1309 0.154 -0.1309c 0.1848 0 0.7931 0.0308 0.9779 0.0308c 0.1463 0 0.6006 -0.0308 0.7469 -0.0308c 0.1232 0 0.1848 0.0616 0.1848 0.1925c 0 0.0924 -0.0693 0.1386 -0.2002 0.1386c -0.2387 0 -0.4004 0.077 -0.4774 0.2387c -0.4466 0.8701 -0.9009 1.7248 -1.3398 2.6026l 0.1617 0.1309l 0.77 0.539c 0.5698 0.3927 0.8855 0.616 0.9471 0.6545c 0.4235 0.2618 0.7777 0.4081 1.0626 0.4312c 0.1309 0.0077 0.2002 0.077 0.2002 0.1925c 0 0.0847 -0.0462 0.1309 -0.1309 0.1309c -0.0924 0 -0.4312 -0.0231 -0.5236 -0.0231Z "/></symbol><symbol id="gFD3F318F9AD864B075468422A49F37D5" overflow="visible"><path d="M 0 0m 2.442 0.352l 0.638 -0.55c 0.176 0.11 0.341 0.165 0.462 0.198c 2.739 0.792 5.005 2.156 6.435 3.927l -0.495 0.77c -1.364 -1.771 -3.916 -3.223 -6.017 -3.751c 0 0.561 0 5.192 0 6.237c 0 0.319 0.033 0.726 0.077 1.001h -1.089c 0.044 -0.22 0.099 -0.715 0.099 -1.001c 0 -1.045 0 -5.61 0 -6.292c 0 -0.22 -0.033 -0.363 -0.11 -0.539Z "/></symbol><symbol id="g25469247A495E561126F1D960886AE7B" overflow="visible"><path d="M 0 0m 0.946 1.551l 0.638 -0.715c 1.969 1.045 3.894 2.827 4.807 4.125l 0.033 -3.993c 0 -0.297 -0.088 -0.44 -0.407 -0.44c -0.407 0 -1.023 0.044 -1.551 0.132l 0.077 -0.902c 0.539 -0.044 1.188 -0.066 1.76 -0.066c 0.66 0 1.001 0.308 1.001 0.88c -0.011 1.375 -0.044 3.564 -0.077 5.214h 1.749c 0.264 0 0.649 -0.011 0.902 -0.022v 0.924c -0.22 -0.022 -0.649 -0.066 -0.935 -0.066h -1.727l -0.022 1.067c 0 0.308 0.022 0.616 0.066 0.924h -1.023c 0.044 -0.231 0.066 -0.506 0.099 -0.924l 0.033 -1.067h -4.004c -0.341 0 -0.693 0.033 -1.012 0.066v -0.935c 0.341 0.022 0.66 0.033 1.034 0.033h 3.619c -0.869 -1.32 -2.827 -3.146 -5.06 -4.235Z "/></symbol><symbol id="g244CE90BA19ECA19DB28F82C245652F7" overflow="visible"><path d="M 0 0m 2.497 8.063l -0.627 -0.671c 0.814 -0.55 2.189 -1.727 2.739 -2.299l 0.693 0.693c -0.616 0.616 -2.024 1.76 -2.805 2.277Z m -0.946 -7.37l 0.583 -0.902c 1.826 0.341 3.223 1.012 4.323 1.705c 1.661 1.045 2.948 2.541 3.696 3.916l -0.528 0.935c -0.638 -1.353 -1.98 -2.981 -3.674 -4.048c -1.045 -0.649 -2.475 -1.32 -4.4 -1.606Z "/></symbol><symbol id="g8BDC3B4B5AC2DB062A98302AD42A2109" overflow="visible"><path d="M 0 0m 5.236 7.062c -0.121 -1.012 -0.341 -2.057 -0.616 -2.97c -0.561 -1.859 -1.144 -2.596 -1.661 -2.596c -0.495 0 -1.133 0.616 -1.133 2.002c 0 1.496 1.298 3.3 3.41 3.564Z m 0.913 0.022c 1.87 -0.165 2.937 -1.54 2.937 -3.201c 0 -1.903 -1.386 -2.948 -2.794 -3.267c -0.253 -0.055 -0.594 -0.11 -0.946 -0.143l 0.517 -0.814c 2.607 0.341 4.125 1.881 4.125 4.191c 0 2.233 -1.639 4.048 -4.213 4.048c -2.684 0 -4.807 -2.09 -4.807 -4.477c 0 -1.815 0.979 -2.937 1.958 -2.937c 1.023 0 1.892 1.155 2.563 3.421c 0.308 1.023 0.517 2.145 0.66 3.179Z "/></symbol><symbol id="gF5907DC183BF5AB8AF969596CEAD0998" overflow="visible"><path d="M 0 0m 3.795 1.243c 0.143 -0.649 0.22 -1.507 0.231 -2.024l 0.803 0.11c -0.011 0.506 -0.132 1.342 -0.275 1.991Z m 2.244 0c 0.286 -0.649 0.561 -1.507 0.671 -2.035l 0.814 0.176c -0.11 0.517 -0.418 1.364 -0.715 2.002Z m 2.244 0.077c 0.55 -0.682 1.177 -1.628 1.452 -2.222l 0.814 0.297c -0.286 0.594 -0.935 1.518 -1.485 2.178Z m -6.413 0.209c -0.264 -0.803 -0.781 -1.639 -1.353 -2.101l 0.77 -0.319c 0.594 0.528 1.089 1.397 1.375 2.222Z m -1.111 1.221v -0.759h 9.515v 0.759h -1.408v 1.87h 1.551v 0.759h -1.551v 1.848h 1.144v 0.748h -6.985c 0.22 0.341 0.418 0.682 0.594 1.034l -0.803 0.231c -0.528 -1.111 -1.419 -2.189 -2.354 -2.882c 0.198 -0.121 0.528 -0.396 0.671 -0.539c 0.33 0.275 0.671 0.605 1.001 0.979v -1.419h -1.54v -0.759h 1.54v -1.87Z m 3.333 4.477v -1.848h -1.221v 1.848Z m 0.726 0h 1.265v -1.848h -1.265Z m 1.98 0h 1.298v -1.848h -1.298Z m -2.706 -2.607v -1.87h -1.221v 1.87Z m 0.726 0h 1.265v -1.87h -1.265Z m 1.98 0h 1.298v -1.87h -1.298Z "/></symbol><symbol id="gCEF9B75B8A7DB65C00285F569A93FB2A" overflow="visible"><path d="M 0 0m 7.601 9.262c -0.176 -0.44 -0.528 -1.067 -0.814 -1.463l 0.121 -0.044h -2.871l 0.176 0.077c -0.154 0.396 -0.528 0.957 -0.891 1.375l -0.704 -0.286c 0.275 -0.341 0.561 -0.803 0.737 -1.166h -2.244v -0.726h 3.949v -0.968h -3.41v -0.704h 3.41v -0.99h -4.444v -0.748h 2.233c -0.407 -1.705 -1.21 -3.08 -2.42 -3.927c 0.198 -0.132 0.539 -0.429 0.693 -0.583c 1.254 1.001 2.145 2.541 2.629 4.51h 6.633v 0.748h -4.477v 0.99h 3.509v 0.704h -3.509v 0.968h 4.059v 0.726h -2.332c 0.264 0.352 0.572 0.814 0.836 1.243Z m -3.883 -6.479v -0.726h 2.233v -1.936h -3.289v -0.726h 7.502v 0.726h -3.377v 1.936h 2.64v 0.726Z "/></symbol><symbol id="g2633A409F4385944B0FDF399CCC779EA" overflow="visible"><path d="M 0 0m 6.523 7.92v -6.105h 0.803v 6.105Z m 2.695 1.111v -8.811c 0 -0.209 -0.077 -0.275 -0.286 -0.286c -0.22 -0.011 -0.902 -0.011 -1.683 0.011c 0.121 -0.231 0.253 -0.616 0.308 -0.836c 1.012 0 1.628 0.022 1.991 0.154c 0.341 0.143 0.495 0.385 0.495 0.957v 8.811Z m -7.414 -1.034h 2.805v -2.123h -2.805Z m -0.759 0.737v -3.608h 1.21c -0.11 -2.002 -0.407 -4.257 -1.892 -5.467c 0.198 -0.121 0.451 -0.363 0.583 -0.561c 1.166 0.968 1.672 2.486 1.914 4.103h 1.826c -0.11 -2.189 -0.231 -3.025 -0.418 -3.234c -0.088 -0.11 -0.198 -0.121 -0.385 -0.121c -0.187 0 -0.704 0 -1.254 0.055c 0.132 -0.209 0.209 -0.517 0.231 -0.737c 0.539 -0.022 1.078 -0.033 1.353 0c 0.33 0.033 0.539 0.088 0.715 0.319c 0.297 0.341 0.407 1.353 0.539 4.114c 0 0.099 0.011 0.341 0.011 0.341h -2.519c 0.044 0.396 0.066 0.792 0.099 1.188h 2.343v 3.608Z "/></symbol><symbol id="g12FB27B1A45505CD93C4EC89591BAA81" overflow="visible"><path d="M 0 0m 6.391 9.13v -2.09h -1.859v 2.09h -0.814v -2.09h -2.64v -7.92h 0.781v 0.704h 7.304v -0.66h 0.803v 7.876h -2.772v 2.09Z m -4.532 -8.503v 2.431h 1.859v -2.431Z m 7.304 0h -1.969v 2.431h 1.969Z m -4.631 0v 2.431h 1.859v -2.431Z m -2.673 3.223v 2.387h 1.859v -2.387Z m 7.304 0h -1.969v 2.387h 1.969Z m -4.631 0v 2.387h 1.859v -2.387Z "/></symbol><symbol id="g428D0B86A7AD6C7DCE8B8115A9BFC4D5" overflow="visible"><path d="M 0 0m 5.599 5.852h 3.707v -0.957h -3.707Z m 0 1.584h 3.707v -0.957h -3.707Z m -2.343 -4.631c 0.264 -0.627 0.495 -1.463 0.539 -1.991l 0.649 0.198c -0.077 0.539 -0.308 1.342 -0.583 1.969Z m -2.277 0.143c -0.132 -0.957 -0.33 -1.947 -0.693 -2.618c 0.176 -0.066 0.495 -0.209 0.638 -0.308c 0.341 0.704 0.605 1.771 0.748 2.816Z m 3.861 5.159v -3.894h 2.222v -4.202c 0 -0.121 -0.033 -0.154 -0.176 -0.165c -0.132 0 -0.572 0 -1.067 0.011c 0.099 -0.22 0.198 -0.517 0.231 -0.726c 0.682 0 1.122 0.011 1.408 0.121c 0.286 0.132 0.352 0.341 0.352 0.759v 2.266c 0.473 -1.045 1.221 -2.09 2.42 -2.706c 0.11 0.209 0.352 0.517 0.506 0.671c -0.847 0.374 -1.485 0.957 -1.947 1.628c 0.539 0.374 1.177 0.902 1.705 1.386l -0.671 0.484c -0.33 -0.396 -0.88 -0.913 -1.364 -1.32c -0.308 0.561 -0.506 1.144 -0.649 1.705v 0.088h 2.288v 3.894h -2.596c 0.176 0.297 0.352 0.638 0.506 0.968l -0.913 0.176c -0.088 -0.33 -0.275 -0.77 -0.44 -1.144Z m -0.418 -4.84v -0.704h 1.496c -0.385 -1.144 -1.1 -1.958 -1.98 -2.431c 0.154 -0.11 0.418 -0.396 0.517 -0.561c 1.089 0.627 1.969 1.782 2.354 3.531l -0.451 0.187l -0.132 -0.022Z m -4.114 1.111l 0.099 -0.737l 1.738 0.11v -4.631h 0.726v 4.675l 0.869 0.055c 0.099 -0.264 0.187 -0.506 0.231 -0.715l 0.66 0.308c -0.165 0.594 -0.605 1.551 -1.067 2.266l -0.605 -0.242c 0.176 -0.286 0.341 -0.605 0.495 -0.935l -1.584 -0.077c 0.737 0.935 1.584 2.189 2.211 3.201l -0.693 0.33c -0.308 -0.594 -0.726 -1.32 -1.177 -2.013c -0.165 0.231 -0.363 0.473 -0.594 0.726c 0.407 0.616 0.891 1.518 1.265 2.266l -0.726 0.275c -0.231 -0.616 -0.627 -1.452 -0.979 -2.079l -0.341 0.308l -0.429 -0.528c 0.495 -0.473 1.045 -1.1 1.375 -1.606c -0.242 -0.33 -0.473 -0.649 -0.693 -0.924Z "/></symbol></defs></svg>