<?xml version="1.0" encoding="UTF-8" standalone="no"?>
<!DOCTYPE svg PUBLIC "-//W3C//DTD SVG 1.1//EN" "http://www.w3.org/Graphics/SVG/1.1/DTD/svg11.dtd">
<svg xmlns="http://www.w3.org/2000/svg" xmlns:xlink="http://www.w3.org/1999/xlink" version="1.1" width="231pt" height="163pt" viewBox="0 0 231 163">
<g enable-background="new">
<path transform="matrix(.00359712,0,0,-.00359712,0,163)" stroke-width="110.783" stroke-linecap="butt" stroke-miterlimit="10" stroke-linejoin="miter" fill="none" stroke="#000000" d="M 2674.08 3023.25 L 2674.08 41509.7 "/>
<path transform="matrix(.00359712,0,0,-.00359712,0,163)" stroke-width="88.6236" stroke-linecap="round" stroke-linejoin="round" fill="none" stroke="#000000" d="M 2230.95 41177.3 C 2397.12 41205 2646.39 41509.7 2674.08 41592.8 C 2701.77 41509.7 2951.04 41205 3117.22 41177.3 "/>
<path transform="matrix(.00359712,0,0,-.00359712,0,163)" d="M 2227.13 42945.7 L 2227.13 42815 C 2227.13 42812.4 2227.13 42807 2227.13 42807 C 2227.13 42788.4 2237.78 42777.7 2261.78 42777.7 C 2373.75 42785.7 2387.08 42785.7 2400.41 42793.7 C 2413.73 42799 2421.73 42812.4 2421.73 42825.7 C 2421.73 42831 2421.73 42836.4 2419.08 42844.4 C 2413.73 43284.3 2411.08 43574.8 2411.08 43718.8 L 2411.08 44193.4 C 2488.39 44244 2501.72 44254.7 2501.72 44268 C 2501.72 44276 2496.39 44284 2477.72 44302.7 C 2413.73 44358.7 2392.41 44374.6 2312.44 44428 C 2264.44 44374.6 2251.11 44356 2205.8 44302.7 L 1915.2 44302.7 L 1915.2 44817.2 L 2587.03 44817.2 C 2592.36 44817.2 2603.03 44825.2 2603.03 44833.2 C 2603.03 44841.2 2597.69 44849.2 2587.03 44859.9 C 2488.39 44955.8 2456.39 44985.2 2339.09 45078.5 C 2269.78 44995.8 2248.45 44969.2 2179.13 44878.5 L 1024.75 44878.5 C 934.109 44878.5 862.125 44886.5 792.813 44905.2 L 811.469 44801.2 C 904.781 44814.5 947.438 44817.2 1024.75 44817.2 L 1280.69 44817.2 L 1280.69 44302.7 L 1024.75 44302.7 C 934.109 44361.3 904.781 44380 811.469 44430.6 C 822.125 44273.3 824.797 44150.7 824.797 43942.8 C 824.797 43628.2 819.469 43135 811.469 42788.4 C 811.469 42785.7 811.469 42783 811.469 42783 C 811.469 42764.4 824.797 42753.7 851.453 42753.7 C 883.453 42753.7 947.438 42759 966.094 42764.4 C 987.422 42772.4 992.75 42777.7 992.75 42801.7 C 995.422 42804.4 995.422 42809.7 995.422 42815 L 995.422 42945.7 L 2227.13 42945.7 Z M 1752.56 43007 L 1453.98 43007 L 1453.98 44241.3 L 1752.56 44241.3 L 1752.56 43007 Z M 1915.2 43007 L 1915.2 44241.3 L 2227.13 44241.3 L 2227.13 43007 L 1915.2 43007 Z M 995.422 43007 L 995.422 44241.3 L 1280.69 44241.3 L 1280.69 43007 L 995.422 43007 Z M 1453.98 44817.2 L 1752.56 44817.2 L 1752.56 44302.7 L 1453.98 44302.7 L 1453.98 44817.2 Z M 94.3125 43766.8 C 222.281 43921.4 270.266 43988.1 400.906 44212 L 400.906 43670.8 C 400.906 43577.5 392.906 43068.3 387.578 42780.4 C 387.578 42751 398.234 42743 430.234 42743 C 518.203 42743 571.531 42756.4 571.531 42783 C 571.531 42785.7 571.531 42791 568.859 42793.7 L 568.859 44188 C 616.844 44212 640.844 44230.7 640.844 44244 C 640.844 44268 590.188 44281.3 451.563 44300 C 571.531 44513.3 630.188 44641.3 771.484 45001.2 C 851.453 45006.5 878.125 45017.2 878.125 45041.1 C 878.125 45049.1 867.453 45059.8 859.453 45065.1 C 840.797 45075.8 822.125 45083.8 715.5 45110.5 C 686.172 45118.5 638.172 45131.8 579.531 45147.8 C 568.859 45001.2 510.203 44782.5 406.234 44510.6 C 299.594 44228 195.625 44017.4 51.6563 43793.5 L 94.3125 43766.8 "/>
<path transform="matrix(.00359712,0,0,-.00359712,0,163)" d="M 4142.97 44779.9 C 4185.63 44857.2 4185.63 44857.2 4265.61 45006.5 C 4350.92 45014.5 4385.58 45027.8 4385.58 45051.8 C 4385.58 45070.5 4353.58 45083.8 4220.28 45121.1 C 4190.95 45126.5 4145.64 45139.8 4089.66 45155.8 C 4065.66 45038.5 4009.67 44878.5 3929.69 44697.2 C 3831.05 44473.3 3735.08 44305.3 3620.44 44156 L 3644.42 44134.7 C 3809.72 44273.3 3919.03 44404 4060.33 44630.6 C 4132.31 44457.3 4206.95 44332 4332.25 44182.7 C 4238.95 44089.4 4158.97 44012.1 4065.66 43937.4 C 3911.03 43806.8 3836.38 43758.8 3505.8 43572.2 L 3524.45 43540.2 C 3673.75 43601.5 3737.73 43628.2 3833.72 43673.5 C 3839.05 43454.9 3839.05 43454.9 3839.05 43361.6 C 3839.05 43260.3 3839.05 43151 3833.72 42769.7 C 3833.72 42745.7 3841.72 42737.7 3873.7 42737.7 C 3988.34 42737.7 4009.67 42743 4012.34 42777.7 L 4012.34 42889.7 L 4740.16 42889.7 L 4740.16 42767 C 4740.16 42745.7 4748.16 42743 4782.81 42743 C 4825.47 42743 4886.78 42748.4 4905.45 42753.7 C 4916.11 42759 4921.44 42764.4 4921.44 42780.4 C 4913.45 43121.6 4913.45 43190.9 4913.45 43292.3 C 4913.45 43348.2 4913.45 43412.2 4913.45 43508.2 C 4969.44 43542.8 4985.42 43556.2 4985.42 43572.2 C 4985.42 43580.2 4974.77 43593.5 4948.11 43614.8 C 4889.45 43657.5 4870.8 43668.2 4809.47 43710.8 C 4772.16 43670.8 4761.48 43657.5 4724.16 43614.8 L 4012.34 43614.8 C 3951.02 43654.8 3935.02 43665.5 3884.38 43697.5 C 4078.98 43793.5 4257.61 43913.4 4436.23 44068 C 4620.19 43881.4 4801.47 43761.5 5118.73 43614.8 C 5164.05 43726.8 5193.38 43756.1 5297.36 43793.5 L 5297.36 43833.4 C 4966.77 43878.8 4761.48 43961.4 4521.55 44145.4 C 4660.17 44281.3 4750.83 44398.6 4913.45 44651.9 C 5020.09 44665.2 5049.41 44673.2 5049.41 44697.2 C 5049.41 44705.2 5041.42 44715.9 5022.75 44737.2 C 4948.11 44806.5 4926.78 44830.5 4849.47 44899.8 C 4796.14 44851.9 4780.14 44835.9 4729.5 44779.9 L 4142.97 44779.9 Z M 4716.16 44718.6 C 4598.86 44505.3 4529.55 44406.6 4396.23 44254.7 C 4265.61 44380 4190.95 44481.3 4084.31 44675.9 C 4097.66 44697.2 4097.66 44697.2 4110.98 44718.6 L 4716.16 44718.6 Z M 4012.34 43553.5 L 4740.16 43553.5 L 4740.16 42951 L 4012.34 42951 L 4012.34 43553.5 Z M 3345.83 44561.3 L 3345.83 45038.5 C 3452.47 45078.5 3468.47 45089.1 3468.47 45107.8 C 3468.47 45137.1 3412.48 45147.8 3161.88 45169.1 C 3169.88 45073.1 3172.55 45025.2 3172.55 44835.9 L 3172.55 44561.3 L 2959.27 44561.3 C 2889.95 44561.3 2844.63 44566.6 2785.97 44579.9 L 2801.97 44484 C 2865.95 44497.3 2895.28 44500 2959.27 44500 L 3153.88 44500 C 3041.91 43990.7 2961.92 43756.1 2756.64 43340.2 L 2791.3 43321.6 C 2972.59 43585.5 3089.89 43825.5 3193.88 44156 L 3177.88 43801.5 C 3172.55 43710.8 3167.22 43236.3 3164.55 42756.4 C 3164.55 42732.4 3175.2 42724.4 3199.2 42724.4 C 3313.84 42724.4 3348.5 42732.4 3348.5 42764.4 C 3345.83 42983 3345.83 42983 3345.83 44209.4 C 3415.16 44137.4 3476.47 44038.7 3529.78 43913.4 C 3564.45 43833.4 3575.11 43814.8 3599.11 43814.8 C 3633.77 43814.8 3679.08 43910.8 3679.08 43982.7 C 3679.08 44041.4 3639.09 44086.7 3524.45 44161.4 C 3452.47 44206.7 3401.83 44233.3 3345.83 44265.3 L 3345.83 44500 L 3764.39 44500 C 3772.39 44500 3780.39 44505.3 3780.39 44510.6 C 3780.39 44515.9 3777.73 44521.3 3772.39 44529.3 C 3692.42 44611.9 3668.42 44638.6 3583.11 44718.6 C 3532.45 44651.9 3516.45 44630.6 3465.8 44561.3 L 3345.83 44561.3 "/>
<path transform="matrix(.00359712,0,0,-.00359712,0,163)" stroke-width="110.783" stroke-linecap="butt" stroke-miterlimit="10" stroke-linejoin="miter" fill="none" stroke="#000000" d="M 2674.08 3023.25 L 57709.6 3023.25 "/>
<path transform="matrix(.00359712,0,0,-.00359712,0,163)" stroke-width="88.6236" stroke-linecap="round" stroke-linejoin="round" fill="none" stroke="#000000" d="M 57377.2 3466.39 C 57404.9 3300.21 57709.6 3050.94 57792.7 3023.25 C 57709.6 2995.56 57404.9 2746.29 57377.2 2580.12 "/>
<path transform="matrix(.00359712,0,0,-.00359712,0,163)" d="M 60262.6 2735.16 C 60273.3 2735.16 60284 2743.16 60284 2751.16 C 60284 2756.48 60281.3 2761.81 60276 2767.14 C 60190.7 2844.45 60164 2865.78 60073.4 2940.44 C 60025.4 2879.13 60009.4 2860.45 59961.4 2796.47 L 59558.8 2796.47 C 59588.1 2849.8 59590.8 2855.13 59625.5 2916.44 C 59697.5 2927.11 59718.8 2937.77 59718.8 2961.77 C 59718.8 2980.42 59681.5 2991.09 59489.5 3033.75 C 59462.8 2964.44 59438.8 2908.44 59385.5 2796.47 L 59220.2 2796.47 C 59113.6 2796.47 59036.3 2804.47 58943 2823.13 L 58961.6 2724.48 C 59057.6 2732.48 59105.6 2735.16 59222.9 2735.16 L 59356.2 2735.16 C 59324.2 2673.84 59300.2 2631.19 59230.9 2508.55 C 59190.9 2441.89 59182.9 2428.56 59118.9 2319.25 C 59118.9 2316.59 59118.9 2313.92 59118.9 2311.27 C 59118.9 2297.92 59145.6 2289.94 59198.9 2289.94 C 59268.2 2289.94 59284.2 2295.27 59300.2 2332.59 C 59324.2 2372.58 59340.2 2399.23 59350.9 2420.56 C 59489.5 2364.58 59548.2 2337.92 59657.5 2273.94 C 59486.8 2081.98 59300.2 1970.02 58961.6 1855.38 L 58977.6 1820.72 C 59220.2 1863.38 59345.5 1906.03 59494.8 1983.34 C 59606.8 2044.66 59692.1 2108.64 59780.1 2199.28 C 59862.7 2143.3 59902.7 2111.31 59956 2055.33 C 59982.7 2028.66 59996 2020.66 60009.4 2020.66 C 60028 2020.66 60041.4 2057.98 60041.4 2108.64 C 60041.4 2161.97 60028 2207.28 60004 2233.94 C 59982.7 2260.61 59956 2273.94 59870.7 2308.59 C 59969.4 2444.56 60009.4 2529.88 60073.4 2735.16 L 60262.6 2735.16 Z M 59897.4 2735.16 C 59846.8 2559.2 59812.1 2484.55 59726.8 2361.91 C 59625.5 2396.58 59558.8 2417.91 59380.2 2471.22 C 59449.5 2599.19 59497.5 2687.17 59524.2 2735.16 L 59897.4 2735.16 Z M 59857.4 1815.38 C 60153.3 1919.36 60305.3 1999.34 60475.9 2135.3 C 60566.6 2207.28 60633.2 2271.27 60707.9 2364.58 C 60854.5 2151.3 61017.1 1988.67 61230.4 1844.7 C 61273.1 1954.02 61310.4 1978.02 61446.3 1983.34 L 61451.7 2018 C 61147.8 2153.97 60953.1 2292.59 60793.2 2484.55 C 60894.5 2641.84 60974.5 2828.47 61038.5 3044.41 C 61083.8 3199.05 61105.1 3297.69 61129.1 3502.97 L 61406.4 3502.97 C 61411.7 3502.97 61417 3510.97 61417 3518.95 C 61417 3524.3 61414.4 3532.3 61406.4 3540.28 C 61289.1 3638.94 61289.1 3638.94 61185.1 3729.58 C 61121.1 3657.59 61102.4 3636.27 61035.8 3564.28 L 60526.6 3564.28 C 60625.2 3806.89 60665.2 3918.86 60710.5 4070.83 C 60801.2 4089.48 60825.2 4100.16 60825.2 4121.48 C 60825.2 4150.81 60814.5 4153.47 60534.6 4222.78 C 60529.3 4134.81 60502.6 3998.84 60449.3 3793.56 C 60374.6 3500.3 60294.6 3292.34 60126.7 2951.09 L 60158.7 2927.11 C 60268 3073.73 60313.3 3140.39 60380 3257.69 C 60438.6 2921.78 60491.9 2748.48 60619.9 2508.55 C 60563.9 2420.56 60515.9 2356.58 60451.9 2284.59 C 60294.6 2108.64 60150.7 2004.67 59841.4 1850.05 L 59857.4 1815.38 Z M 60934.5 3502.97 C 60899.8 3153.72 60827.8 2903.11 60689.2 2631.19 C 60553.2 2847.13 60489.3 3020.42 60419.9 3332.34 C 60451.9 3396.33 60470.6 3433.66 60502.6 3502.97 L 60934.5 3502.97 Z M 59748.1 3612.27 L 60318.6 3612.27 C 60332 3612.27 60342.6 3620.27 60342.6 3628.27 C 60342.6 3633.59 60337.3 3644.27 60329.3 3652.27 C 60246.6 3721.58 60220 3745.58 60132 3814.89 C 60086.7 3753.56 60073.4 3734.91 60033.4 3673.59 L 59748.1 3673.59 C 59745.4 3956.19 59745.4 3956.19 59745.4 3972.19 C 59745.4 4006.84 59745.4 4038.83 59745.4 4092.16 C 59761.4 4100.16 59774.8 4105.48 59785.4 4108.16 C 59809.4 4116.14 59825.4 4124.14 59836.1 4129.48 C 59841.4 4134.81 59846.8 4142.81 59846.8 4148.14 C 59846.8 4177.47 59817.4 4182.8 59577.5 4206.8 C 59585.5 4129.48 59590.8 4014.84 59590.8 3942.86 L 59590.8 3673.59 L 59204.2 3673.59 C 59116.3 3673.59 59065.6 3676.25 58953.6 3689.58 L 58969.6 3598.94 C 59084.3 3609.61 59140.3 3612.27 59201.6 3612.27 L 59494.8 3612.27 C 59438.8 3516.3 59417.5 3484.3 59350.9 3398.98 C 59214.9 3225.7 59121.6 3132.39 58953.6 2996.42 L 58969.6 2969.77 C 59094.9 3033.75 59161.6 3079.06 59305.5 3201.7 C 59422.8 3300.34 59492.2 3369.67 59590.8 3489.64 L 59590.8 3385.66 C 59590.8 3308.34 59588.1 3244.36 59582.8 3105.73 C 59582.8 3100.39 59582.8 3097.73 59582.8 3092.41 C 59582.8 3076.41 59598.8 3065.73 59625.5 3065.73 C 59625.5 3065.73 59628.1 3065.73 59630.8 3065.73 C 59644.1 3065.73 59654.8 3068.41 59660.1 3068.41 C 59726.8 3071.08 59742.8 3079.06 59748.1 3105.73 C 59748.1 3340.34 59748.1 3345.67 59748.1 3438.98 C 59836.1 3396.33 59929.4 3319.02 60017.4 3217.7 C 60081.4 3137.72 60086.7 3135.06 60113.3 3135.06 C 60142.7 3135.06 60158.7 3164.38 60158.7 3215.03 C 60158.7 3265.69 60142.7 3321.67 60118.7 3348.34 C 60092 3377.66 59996 3420.31 59876.1 3452.31 C 59769.4 3484.3 59769.4 3484.3 59748.1 3489.64 L 59748.1 3612.27 Z M 59110.9 4113.48 C 59196.2 4009.5 59257.6 3900.2 59292.2 3793.56 C 59310.9 3732.23 59326.9 3708.25 59348.2 3708.25 C 59382.9 3708.25 59438.8 3796.22 59438.8 3846.88 C 59438.8 3921.53 59361.5 3996.17 59137.6 4137.47 L 59110.9 4113.48 Z M 59889.4 3710.91 C 59966.7 3788.23 59966.7 3788.23 60041.4 3870.88 C 60140 3982.84 60140 3982.84 60172 4017.5 C 60185.3 4020.17 60198.7 4022.84 60220 4022.84 C 60244 4025.5 60257.3 4028.17 60262.6 4030.83 C 60270.6 4036.17 60276 4041.5 60276 4049.5 C 60276 4070.83 60238.7 4092.16 60145.3 4124.14 C 60121.3 4132.14 60081.4 4145.47 60030.7 4164.14 C 60004 4038.83 59948 3905.53 59852.1 3729.58 L 59889.4 3710.91 "/>
<path transform="matrix(.00359712,0,0,-.00359712,0,163)" d="M 62877 2460.56 L 63426.2 2460.56 L 63426.2 2433.89 C 63428.9 2415.23 63434.2 2409.91 63450.2 2409.91 C 63490.2 2409.91 63570.2 2420.56 63586.1 2425.89 C 63599.5 2431.23 63604.8 2441.89 63604.8 2452.56 C 63604.8 2455.22 63604.8 2455.22 63604.8 2457.89 C 63602.1 2596.52 63602.1 2639.17 63602.1 2785.81 L 63602.1 2985.77 C 63663.5 3025.75 63679.5 3039.08 63679.5 3057.73 C 63679.5 3065.73 63671.5 3076.41 63650.1 3092.41 C 63604.8 3127.06 63554.2 3161.72 63503.5 3199.05 C 63458.2 3153.72 63447.5 3137.72 63404.9 3092.41 L 62218.5 3092.41 C 62141.2 3140.39 62117.2 3153.72 62034.5 3199.05 C 62039.9 3103.06 62042.5 3036.41 62042.5 2916.44 C 62042.5 2719.16 62039.9 2548.53 62034.5 2380.58 C 62034.5 2359.25 62039.9 2353.92 62063.9 2353.92 C 62111.8 2353.92 62167.8 2359.25 62186.5 2364.58 C 62202.5 2369.91 62207.8 2377.91 62207.8 2396.58 L 62207.8 2460.56 L 62714.4 2460.56 L 62714.4 2263.27 L 62111.8 2263.27 C 61981.2 2263.27 61943.9 2265.94 61853.2 2287.27 L 61869.2 2185.95 C 61951.9 2199.28 62007.9 2201.95 62111.8 2201.95 L 62714.4 2201.95 L 62714.4 1978.02 L 61903.9 1978.02 C 61775.9 1978.02 61719.9 1983.34 61616 2004.67 L 61634.6 1898.03 C 61711.9 1911.36 61781.3 1916.69 61903.9 1916.69 L 64036.7 1916.69 C 64052.7 1916.69 64060.7 1922.02 64060.7 1930.02 C 64060.7 1935.36 64058 1940.69 64050 1948.69 C 63946.1 2028.66 63911.4 2055.33 63804.8 2137.97 L 63650.1 1978.02 L 62877 1978.02 L 62877 2201.95 L 63820.8 2201.95 C 63836.8 2201.95 63847.4 2207.28 63847.4 2217.95 C 63847.4 2220.61 63844.8 2225.95 63834.1 2236.61 C 63743.4 2311.27 63716.8 2332.59 63623.5 2404.56 C 63564.8 2345.92 63543.5 2324.59 63484.8 2263.27 L 62877 2263.27 L 62877 2460.56 Z M 62877 2521.88 L 62877 2753.81 L 63426.2 2753.81 L 63426.2 2521.88 L 62877 2521.88 Z M 62714.4 2521.88 L 62207.8 2521.88 L 62207.8 2753.81 L 62714.4 2753.81 L 62714.4 2521.88 Z M 62877 2815.14 L 62877 3031.08 L 63426.2 3031.08 L 63426.2 2815.14 L 62877 2815.14 Z M 62714.4 2815.14 L 62207.8 2815.14 L 62207.8 3031.08 L 62714.4 3031.08 L 62714.4 2815.14 Z M 62194.5 3513.63 L 63458.2 3513.63 L 63458.2 3452.31 C 63458.2 3449.64 63458.2 3444.31 63458.2 3444.31 C 63458.2 3425.66 63463.5 3422.98 63495.5 3422.98 C 63588.8 3422.98 63628.8 3433.66 63628.8 3454.98 C 63628.8 3457.64 63628.8 3460.31 63628.8 3460.31 C 63623.5 3593.61 63623.5 3652.27 63623.5 3732.23 L 63626.1 4004.17 C 63703.5 4052.16 63716.8 4062.83 63716.8 4078.83 C 63716.8 4084.16 63711.5 4092.16 63695.5 4108.16 C 63628.8 4158.8 63607.5 4174.8 63538.2 4222.78 C 63503.5 4185.47 63468.8 4145.47 63436.8 4108.16 L 62218.5 4108.16 C 62133.2 4161.47 62103.8 4177.47 62015.9 4222.78 C 62023.9 3980.19 62023.9 3974.84 62023.9 3860.2 C 62023.9 3756.23 62023.9 3745.58 62018.5 3446.98 C 62018.5 3444.31 62018.5 3441.64 62018.5 3441.64 C 62018.5 3414.98 62023.9 3412.33 62061.2 3412.33 C 62165.2 3412.33 62194.5 3420.31 62194.5 3446.98 C 62194.5 3446.98 62194.5 3449.64 62194.5 3452.31 L 62194.5 3513.63 Z M 63458.2 3846.88 L 62194.5 3846.88 L 62194.5 4046.83 L 63458.2 4046.83 L 63458.2 3846.88 Z M 63458.2 3785.56 L 63458.2 3574.95 L 62194.5 3574.95 L 62194.5 3785.56 L 63458.2 3785.56 Z M 61637.3 3249.69 C 61719.9 3265.69 61765.3 3268.36 61871.9 3268.36 L 64020.7 3268.36 C 64039.4 3268.36 64047.4 3271.02 64047.4 3279.02 C 64047.4 3284.36 64044.7 3292.34 64039.4 3297.69 C 63938.1 3388.33 63906.1 3414.98 63799.4 3502.97 C 63735.4 3430.98 63714.1 3406.98 63644.8 3329.67 L 61871.9 3329.67 C 61743.9 3329.67 61703.9 3332.34 61624 3353.67 L 61637.3 3249.69 "/>
<path transform="matrix(.00359712,0,0,-.00359712,0,163)" stroke-width="332.357" stroke-linecap="butt" stroke-miterlimit="10" stroke-linejoin="miter" fill="none" stroke="#2e67b5" d="M 2674.08 8539.86 L 41287.9 30604.7 "/>
<path transform="matrix(.00359712,0,0,-.00359712,0,163)" d="M 44528.3 31316.9 L 44528.3 31588.8 C 44528.3 31682.2 44531 31743.5 44541.6 31810.1 L 44224.4 31810.1 C 44235 31735.5 44240.4 31671.5 44240.4 31591.5 L 44240.4 31316.9 L 44163.1 31316.9 C 44064.4 31316.9 43984.4 31322.2 43909.8 31332.9 L 43909.8 31029 C 43987.1 31042.3 44051.1 31045 44163.1 31045 L 44240.4 31045 L 44240.4 30493.1 L 44088.4 30493.1 C 43973.8 30493.1 43904.5 30498.4 43835.1 30509.1 L 43835.1 30205.2 C 43909.8 30215.8 43979.1 30221.2 44088.4 30221.2 L 45397.4 30221.2 C 45506.7 30221.2 45576 30215.8 45650.7 30205.2 L 45650.7 30509.1 C 45576 30495.8 45514.7 30493.1 45397.4 30493.1 L 45205.5 30493.1 L 45205.5 31045 L 45325.4 31045 C 45440.1 31045 45509.4 31039.6 45581.4 31029 L 45581.4 31332.9 C 45506.7 31322.2 45437.4 31316.9 45325.4 31316.9 L 45205.5 31316.9 L 45205.5 31583.5 C 45205.5 31668.8 45210.8 31738.1 45221.5 31810.1 L 44904.2 31810.1 C 44914.9 31743.5 44917.5 31676.8 44917.5 31586.2 L 44917.5 31316.9 L 44528.3 31316.9 Z M 44528.3 30493.1 L 44528.3 31045 L 44917.5 31045 L 44917.5 30493.1 L 44528.3 30493.1 Z M 43653.9 31866.1 C 43603.2 31490.2 43384.6 31042.3 43112.7 30759.7 C 43171.3 30639.7 43184.6 30602.4 43232.6 30437.1 C 43325.9 30543.8 43376.6 30613.1 43451.2 30741 C 43443.2 30629.1 43443.2 30591.8 43443.2 30442.5 L 43443.2 29685.3 C 43443.2 29546.7 43437.9 29464 43427.3 29373.4 L 43744.5 29373.4 C 43736.5 29458.7 43731.2 29592 43731.2 29682.6 L 43731.2 31194.3 C 43808.5 31356.9 43853.8 31468.9 43917.8 31671.5 C 43936.5 31730.1 43944.5 31746.1 43957.8 31780.8 L 43653.9 31866.1 Z M 44840.2 30039.9 C 44946.9 29869.3 45010.9 29786.6 45138.8 29648 C 45253.5 29528 45320.1 29466.7 45456.1 29365.4 C 45562.7 29509.4 45594.7 29546.7 45669.4 29621.3 C 45533.4 29701.3 45464.1 29757.3 45349.4 29871.9 C 45240.1 29983.9 45184.1 30053.2 45088.2 30202.5 L 44840.2 30039.9 Z M 44328.4 30194.5 C 44237.7 30039.9 44184.4 29967.9 44083.1 29861.3 C 43979.1 29749.3 43901.8 29688 43755.2 29594.7 C 43853.8 29517.4 43899.1 29472 43987.1 29368.1 C 44259 29576 44397.7 29730.6 44587 30029.2 L 44328.4 30194.5 " fill="#2e67b5"/>
<path transform="matrix(.00359712,0,0,-.00359712,0,163)" d="M 45865.6 30431.8 C 45905.6 30439.8 45932.3 30442.5 45988.3 30447.8 C 46156.2 30458.5 46156.2 30458.5 46252.2 30463.8 L 46252.2 29642.7 C 46252.2 29520 46249.5 29453.4 46236.2 29360.1 L 46526.8 29360.1 C 46513.5 29442.7 46510.8 29509.4 46510.8 29640 L 46510.8 30485.1 C 46606.8 30493.1 46606.8 30493.1 46700.1 30503.8 C 46713.4 30450.5 46713.4 30447.8 46729.4 30394.5 L 46953.4 30487.8 C 46892 30666.4 46822.7 30826.4 46726.8 31015.7 L 46532.1 30938.3 C 46582.8 30831.7 46598.8 30797 46628.1 30722.4 C 46537.5 30714.4 46492.1 30711.7 46337.5 30703.7 C 46481.5 30893 46665.4 31164.9 46758.8 31327.6 C 46796.1 31391.6 46814.7 31420.9 46833.4 31447.5 L 46588.1 31572.8 C 46558.8 31479.5 46460.2 31298.3 46321.5 31085 C 46286.9 31135.6 46273.5 31151.6 46220.2 31218.3 C 46310.9 31362.2 46393.5 31508.9 46470.8 31674.2 C 46492.1 31716.8 46500.1 31735.5 46516.1 31756.8 L 46260.2 31850.1 C 46249.5 31804.8 46230.9 31759.5 46169.6 31612.8 C 46134.9 31538.2 46126.9 31519.5 46062.9 31407.5 C 46020.3 31455.5 46020.3 31455.5 45977.6 31500.9 L 45828.3 31282.3 C 45956.3 31157 46041.6 31058.3 46140.2 30919.7 C 46164.2 30887.7 46164.2 30887.7 46177.6 30869 C 46118.9 30789 46100.3 30759.7 46046.9 30693.1 C 46028.3 30690.4 46014.9 30690.4 46004.3 30690.4 C 45953.6 30690.4 45895 30693.1 45839 30698.4 L 45865.6 30431.8 Z M 47068 30775.7 C 47137.3 30783.7 47201.3 30786.4 47307.9 30786.4 L 47801.2 30786.4 C 47915.8 30786.4 47977.1 30783.7 48041.1 30775.7 L 48041.1 30962.3 C 48105.1 30909 48137.1 30887.7 48227.7 30826.4 C 48259.7 30930.3 48294.4 30999.7 48363.7 31095.6 C 48233 31170.3 48145.1 31234.3 48038.4 31327.6 C 47870.5 31476.9 47763.8 31615.5 47670.5 31807.5 L 47379.9 31807.5 C 47300 31628.8 47209.3 31487.5 47086.7 31359.6 C 46977.4 31242.3 46913.4 31188.9 46750.8 31085 C 46833.4 30994.3 46862.7 30949 46902.7 30845 C 46980 30898.3 47006.7 30917 47068 30970.3 L 47068 30775.7 Z M 47286.6 31037 C 47222.6 31037 47196 31037 47148 31039.6 C 47302.6 31183.6 47414.6 31324.9 47531.9 31524.9 C 47646.5 31335.6 47763.8 31202.3 47947.8 31039.6 C 47915.8 31037 47886.5 31037 47825.2 31037 L 47286.6 31037 Z M 45935 30333.2 C 45919 30005.2 45889.6 29808 45825.6 29589.3 L 46065.6 29496 C 46124.2 29730.6 46150.9 29925.3 46172.2 30293.2 L 45935 30333.2 Z M 46569.5 30290.5 C 46620.1 30085.2 46646.8 29906.6 46670.8 29650.7 L 46889.4 29701.3 C 46852.1 29983.9 46822.7 30149.2 46777.4 30343.8 L 46569.5 30290.5 Z M 47249.3 29528 L 47870.5 29528 L 47870.5 29378.7 L 48169.1 29378.7 C 48161.1 29440 48155.7 29552 48155.7 29682.6 L 48155.7 30309.2 C 48155.7 30429.1 48158.4 30482.5 48166.4 30549.1 C 48115.8 30543.8 48051.8 30541.1 47947.8 30541.1 L 47193.3 30541.1 C 47089.3 30541.1 47030.7 30543.8 46964 30549.1 C 46972 30479.8 46974.7 30439.8 46974.7 30306.5 L 46974.7 29653.3 C 46974.7 29554.7 46969.4 29469.4 46961.4 29378.7 L 47249.3 29378.7 L 47249.3 29528 Z M 47249.3 30293.2 L 47873.1 30293.2 L 47873.1 29784 L 47249.3 29784 L 47249.3 30293.2 " fill="#2e67b5"/>
<path transform="matrix(.00359712,0,0,-.00359712,0,163)" d="M 49541 31370.2 L 49541 31535.5 C 49541 31650.2 49546.4 31724.8 49557 31810.1 L 49245.1 31810.1 C 49258.5 31716.8 49263.8 31642.2 49263.8 31538.2 L 49263.8 31370.2 L 48877.2 31370.2 C 48765.3 31370.2 48693.3 31372.9 48602.6 31383.6 C 48613.3 31290.3 48616 31220.9 48616 31130.3 L 48616 29653.3 C 48616 29557.3 48610.6 29466.7 48600 29378.7 L 48909.2 29378.7 L 48909.2 29501.4 L 50551.5 29501.4 L 50551.5 29378.7 L 50863.4 29378.7 C 50852.7 29466.7 50847.4 29546.7 50847.4 29650.7 L 50847.4 31130.3 C 50847.4 31220.9 50850.1 31295.6 50858.1 31383.6 C 50767.4 31372.9 50695.4 31370.2 50586.1 31370.2 L 50175.6 31370.2 L 50175.6 31535.5 C 50175.6 31644.8 50180.9 31724.8 50191.6 31810.1 L 49882.3 31810.1 C 49895.6 31722.1 49898.3 31647.5 49898.3 31538.2 L 49898.3 31370.2 L 49541 31370.2 Z M 49541 29773.3 L 49541 30330.5 L 49898.3 30330.5 L 49898.3 29773.3 L 49541 29773.3 Z M 49541 30597.1 L 49541 31101 L 49898.3 31101 L 49898.3 30597.1 L 49541 30597.1 Z M 49263.8 31101 L 49263.8 30597.1 L 48909.2 30597.1 L 48909.2 31101 L 49263.8 31101 Z M 49263.8 30330.5 L 49263.8 29773.3 L 48909.2 29773.3 L 48909.2 30330.5 L 49263.8 30330.5 Z M 50175.6 29773.3 L 50175.6 30330.5 L 50551.5 30330.5 L 50551.5 29773.3 L 50175.6 29773.3 Z M 50175.6 30597.1 L 50175.6 31101 L 50551.5 31101 L 50551.5 30597.1 L 50175.6 30597.1 " fill="#2e67b5"/>
<path transform="matrix(.00359712,0,0,-.00359712,0,163)" d="M 51217 30439.8 C 51275.6 30450.5 51275.6 30450.5 51478.2 30463.8 C 51534.2 30466.5 51568.9 30466.5 51584.9 30469.1 L 51584.9 29650.7 C 51584.9 29530.7 51579.5 29458.7 51568.9 29368.1 L 51856.8 29368.1 C 51843.5 29450.7 51840.8 29509.4 51840.8 29648 L 51840.8 30490.4 C 51926.1 30498.4 51926.1 30498.4 52038.1 30511.8 C 52046.1 30469.1 52046.1 30469.1 52054.1 30434.5 L 52262 30527.8 C 52208.7 30733 52182.1 30813 52094.1 31023.6 L 51896.8 30946.3 C 51934.1 30855.7 51939.5 30842.4 51974.1 30733 C 51899.5 30725 51838.1 30719.7 51680.8 30709.1 C 51819.5 30887.7 51920.8 31034.3 52080.8 31284.9 C 52120.7 31348.9 52139.4 31378.2 52171.4 31428.9 L 51934.1 31556.8 C 51899.5 31460.9 51806.2 31295.6 51683.5 31106.3 C 51630.2 31175.6 51630.2 31175.6 51584.9 31231.6 C 51675.5 31367.6 51760.8 31516.9 51827.5 31652.8 C 51856.8 31714.1 51870.1 31740.8 51886.1 31764.8 L 51627.5 31860.8 C 51603.5 31751.5 51528.9 31588.8 51419.6 31415.5 L 51320.9 31519.5 L 51182.3 31290.3 C 51331.6 31154.3 51398.3 31079.6 51542.2 30898.3 C 51483.6 30813 51462.2 30783.7 51395.6 30698.4 C 51331.6 30698.4 51328.9 30698.4 51312.9 30698.4 C 51257 30698.4 51235.6 30701.1 51187.6 30706.4 L 51217 30439.8 Z M 53251.1 30647.7 C 53341.8 30647.7 53429.8 30645.1 53504.4 30637.1 C 53496.4 30706.4 53493.7 30773 53493.7 30893 L 53493.7 31372.9 C 53493.7 31500.9 53496.4 31559.5 53504.4 31639.5 C 53437.8 31631.5 53379.1 31628.8 53245.8 31628.8 L 52949.9 31628.8 C 52979.2 31692.8 52997.9 31735.5 53029.8 31820.8 L 52731.3 31863.4 C 52715.3 31788.8 52699.3 31735.5 52659.3 31628.8 L 52507.3 31628.8 C 52379.3 31628.8 52318 31631.5 52248.7 31639.5 C 52256.7 31567.5 52259.4 31476.9 52259.4 31378.2 L 52259.4 30895.7 C 52259.4 30794.4 52256.7 30706.4 52248.7 30637.1 C 52323.4 30645.1 52419.3 30647.7 52512.6 30647.7 L 52736.6 30647.7 L 52736.6 29720 C 52736.6 29669.3 52720.6 29656 52653.9 29656 C 52590 29656 52528.6 29664 52435.3 29680 C 52475.3 29594.7 52491.3 29530.7 52507.3 29410.7 C 52550 29405.4 52552.6 29405.4 52598 29405.4 L 52667.3 29405.4 C 52672.6 29402.7 52680.6 29402.7 52683.3 29402.7 C 52917.9 29402.7 53005.9 29469.4 53003.2 29640 L 53000.5 29871.9 C 53000.5 29954.6 52992.5 30069.2 52976.5 30231.8 C 53067.2 30002.6 53128.5 29893.3 53243.1 29746.6 C 53328.4 29632 53395.1 29565.3 53523.1 29461.4 C 53581.7 29586.7 53621.7 29648 53693.7 29725.3 C 53523.1 29837.3 53413.8 29941.3 53280.5 30117.2 C 53395.1 30210.5 53493.7 30301.2 53627 30445.1 L 53437.8 30615.8 C 53341.8 30493.1 53264.5 30410.5 53152.5 30317.2 C 53083.2 30442.5 53051.2 30522.4 53021.8 30647.7 L 53251.1 30647.7 Z M 52528.6 31410.2 L 53221.8 31410.2 L 53221.8 31242.3 L 52528.6 31242.3 L 52528.6 31410.2 Z M 52528.6 31034.3 L 53221.8 31034.3 L 53221.8 30866.4 L 52528.6 30866.4 L 52528.6 31034.3 Z M 51288.9 30341.1 C 51267.6 29941.3 51249 29813.3 51185 29616 L 51408.9 29501.4 C 51470.2 29712 51488.9 29847.9 51518.2 30314.5 L 51288.9 30341.1 Z M 51896.8 30311.8 C 51936.8 30114.5 51950.1 29999.9 51963.4 29773.3 L 52174.1 29831.9 C 52152.7 30034.6 52139.4 30125.2 52086.1 30362.5 L 51896.8 30311.8 Z M 52432.7 30221.2 C 52342 29994.6 52208.7 29826.6 51995.4 29674.6 C 52083.4 29597.3 52136.7 29538.7 52176.7 29461.4 C 52334 29605.3 52392.7 29674.6 52483.3 29805.3 C 52582 29951.9 52635.3 30069.2 52701.9 30277.2 C 52712.6 30314.5 52715.3 30322.5 52725.9 30349.1 L 52630 30474.5 C 52598 30469.1 52566 30466.5 52504.6 30466.5 L 52323.4 30466.5 C 52235.4 30466.5 52208.7 30469.1 52160.7 30477.1 L 52160.7 30210.5 C 52211.4 30218.5 52243.4 30221.2 52315.4 30221.2 L 52432.7 30221.2 " fill="#2e67b5"/>
<path transform="matrix(.00359712,0,0,-.00359712,0,163)" stroke-width="332.357" stroke-linecap="butt" stroke-miterlimit="10" stroke-linejoin="miter" fill="none" stroke="#610b0b" d="M 2674.08 36121.3 L 37978.3 5781.54 "/>
<path transform="matrix(.00359712,0,0,-.00359712,0,163)" d="M 40933 6707.19 L 40933 6611.22 L 40250.5 6611.22 C 40071.9 6611.22 40007.9 6613.88 39922.6 6621.88 C 39930.6 6552.56 39933.3 6501.91 39933.3 6403.27 L 39933.3 6208.64 C 39933.3 6110 39930.6 6062.02 39917.3 5990.03 L 40194.6 5990.03 L 40194.6 6384.59 L 40933 6384.59 L 40933 6126 C 40933 6014.03 40930.4 5942.05 40919.7 5870.06 L 41229 5870.06 C 41218.3 5947.38 41215.6 5992.7 41215.6 6126 L 41215.6 6384.59 L 41986.1 6384.59 L 41986.1 5990.03 L 42263.4 5990.03 C 42250 6064.69 42247.4 6110 42247.4 6208.64 L 42247.4 6403.27 C 42247.4 6507.23 42250 6555.22 42258 6621.88 C 42172.7 6613.88 42106.1 6611.22 41930.1 6611.22 L 41215.6 6611.22 L 41215.6 6707.19 L 41823.5 6707.19 C 41946.1 6707.19 42018.1 6704.52 42098.1 6699.19 L 42098.1 6968.45 C 42023.4 6957.8 41930.1 6952.47 41796.8 6952.47 L 40389.2 6952.47 C 40266.5 6952.47 40167.9 6957.8 40087.9 6968.45 L 40087.9 6699.19 C 40170.6 6704.52 40250.5 6707.19 40365.2 6707.19 L 40933 6707.19 Z M 40909 5552.81 C 40885.1 5502.16 40869.1 5475.5 40842.4 5432.84 L 40325.2 5432.84 C 40191.9 5432.84 40143.9 5435.5 40061.3 5443.5 C 40069.3 5374.19 40071.9 5304.88 40071.9 5227.55 L 40071.9 4832.98 C 40071.9 4734.34 40066.6 4651.7 40055.9 4561.05 L 40359.9 4561.05 C 40349.2 4638.36 40346.5 4707.69 40346.5 4819.66 L 40346.5 5192.89 L 40658.4 5192.89 L 40658.4 4856.98 C 40658.4 4742.34 40655.8 4670.36 40645.1 4601.05 L 40927.7 4601.05 C 40917 4675.69 40914.4 4731.67 40914.4 4856.98 L 40914.4 5192.89 L 41223.6 5192.89 L 41223.6 4856.98 C 41223.6 4742.34 41221 4673.03 41210.3 4601.05 L 41492.9 4601.05 C 41482.2 4675.69 41479.6 4731.67 41479.6 4856.98 L 41479.6 5192.89 L 41842.2 5192.89 L 41842.2 4878.31 C 41842.2 4832.98 41828.8 4822.31 41775.5 4822.31 C 41722.2 4822.31 41652.9 4830.31 41578.2 4843.64 C 41612.9 4755.67 41623.5 4707.69 41636.9 4577.05 C 41786.2 4569.05 41807.5 4569.05 41855.5 4569.05 C 42058.1 4569.05 42116.8 4627.7 42116.8 4819.66 L 42116.8 5243.55 C 42116.8 5323.53 42119.4 5382.19 42127.4 5443.5 C 42060.8 5435.5 41996.8 5432.84 41884.8 5432.84 L 41143.7 5432.84 C 41173 5478.16 41186.3 5502.16 41210.3 5552.81 L 42020.8 5552.81 C 42140.8 5552.81 42218.1 5550.14 42295.4 5542.14 L 42295.4 5811.41 C 42218.1 5800.75 42130.1 5795.41 42020.8 5795.41 L 40165.2 5795.41 C 40061.3 5795.41 39965.3 5800.75 39885.3 5811.41 L 39885.3 5542.14 C 39962.6 5550.14 40050.6 5552.81 40165.2 5552.81 L 40909 5552.81 Z M 40306.5 6131.33 C 40349.2 6136.66 40383.8 6139.33 40445.2 6139.33 L 40685.1 6139.33 C 40751.8 6139.33 40775.8 6136.66 40821.1 6131.33 L 40821.1 6312.63 C 40783.8 6307.28 40751.8 6304.63 40685.1 6304.63 L 40445.2 6304.63 C 40373.2 6304.63 40349.2 6304.63 40306.5 6312.63 L 40306.5 6131.33 Z M 40306.5 5886.06 C 40349.2 5891.39 40383.8 5894.06 40445.2 5894.06 L 40685.1 5894.06 C 40751.8 5894.06 40775.8 5891.39 40821.1 5886.06 L 40821.1 6067.34 C 40786.4 6062.02 40746.4 6059.34 40685.1 6059.34 L 40445.2 6059.34 C 40373.2 6059.34 40349.2 6059.34 40306.5 6067.34 L 40306.5 5886.06 Z M 41330.3 6131.33 C 41372.9 6136.66 41407.6 6139.33 41468.9 6139.33 L 41740.8 6139.33 C 41807.5 6139.33 41834.2 6136.66 41876.8 6131.33 L 41876.8 6312.63 C 41839.5 6307.28 41810.2 6304.63 41740.8 6304.63 L 41468.9 6304.63 C 41396.9 6304.63 41372.9 6304.63 41330.3 6312.63 L 41330.3 6131.33 Z M 41330.3 5886.06 C 41372.9 5891.39 41407.6 5894.06 41468.9 5894.06 L 41740.8 5894.06 C 41807.5 5894.06 41834.2 5891.39 41876.8 5886.06 L 41876.8 6067.34 C 41839.5 6062.02 41810.2 6059.34 41740.8 6059.34 L 41468.9 6059.34 C 41396.9 6059.34 41372.9 6059.34 41330.3 6067.34 L 41330.3 5886.06 " fill="#610b0b"/>
<path transform="matrix(.00359712,0,0,-.00359712,0,163)" d="M 42886.2 5627.45 C 42739.6 5627.45 42654.3 5632.78 42579.6 5643.45 L 42579.6 5366.19 C 42667.6 5374.19 42755.6 5379.52 42886.2 5379.52 L 43171.5 5379.52 C 43078.2 5270.2 43027.5 5222.22 42907.5 5118.25 C 43176.8 5054.27 43222.1 5043.59 43531.4 4960.95 C 43294.1 4872.97 43003.5 4830.31 42635.6 4830.31 C 42622.3 4830.31 42603.6 4830.31 42577 4830.31 C 42646.3 4713.02 42664.9 4667.69 42696.9 4558.39 C 43227.5 4585.05 43587.4 4673.03 43899.3 4848.98 C 44307.2 4702.34 44307.2 4702.34 44533.8 4598.38 C 44568.5 4582.38 44621.8 4558.39 44688.4 4529.06 L 44875.1 4774.33 C 44579.1 4894.3 44483.2 4928.95 44144.6 5032.94 C 44245.9 5136.91 44317.9 5240.89 44387.2 5379.52 L 44627.1 5379.52 C 44757.8 5379.52 44848.4 5374.19 44936.4 5366.19 L 44936.4 5643.45 C 44861.7 5630.13 44781.8 5627.45 44627.1 5627.45 L 43686 5627.45 C 43718 5680.78 43726 5696.77 43782 5795.41 L 44456.5 5795.41 C 44608.5 5795.41 44691.1 5792.75 44757.8 5784.75 C 44752.4 5851.41 44749.8 5912.72 44749.8 6046.02 L 44749.8 6227.31 C 44749.8 6357.94 44752.4 6424.59 44760.4 6499.23 C 44683.1 6488.58 44597.8 6485.91 44461.8 6485.91 L 44152.6 6485.91 L 44152.6 6653.88 L 44629.8 6653.88 C 44757.8 6653.88 44853.7 6648.53 44939 6640.53 L 44939 6923.14 C 44867.1 6912.47 44763.1 6907.14 44608.5 6907.14 L 42912.9 6907.14 C 42763.6 6907.14 42664.9 6912.47 42585 6923.14 L 42585 6640.53 C 42667.6 6648.53 42766.3 6653.88 42891.5 6653.88 L 43334.1 6653.88 L 43334.1 6485.91 L 43043.5 6485.91 C 42918.2 6485.91 42832.9 6488.58 42747.6 6499.23 C 42755.6 6419.27 42758.3 6349.94 42758.3 6227.31 L 42758.3 6043.36 C 42758.3 5923.38 42755.6 5862.06 42747.6 5784.75 C 42830.2 5792.75 42918.2 5795.41 43056.8 5795.41 L 43462.1 5795.41 C 43424.8 5723.44 43406.1 5691.44 43363.4 5627.45 L 42886.2 5627.45 Z M 44069.9 5379.52 C 44008.6 5272.88 43934 5192.89 43838 5123.58 C 43744.7 5150.23 43707.3 5160.91 43678 5166.23 C 43470.1 5214.22 43470.1 5214.22 43376.8 5240.89 C 43443.4 5307.53 43464.8 5331.53 43504.7 5379.52 L 44069.9 5379.52 Z M 43598 6653.88 L 43888.6 6653.88 L 43888.6 6485.91 L 43598 6485.91 L 43598 6653.88 Z M 43334.1 6269.97 L 43334.1 6016.69 L 43040.8 6016.69 L 43040.8 6269.97 L 43334.1 6269.97 Z M 43598 6269.97 L 43888.6 6269.97 L 43888.6 6016.69 L 43598 6016.69 L 43598 6269.97 Z M 44152.6 6269.97 L 44464.5 6269.97 L 44464.5 6016.69 L 44152.6 6016.69 L 44152.6 6269.97 " fill="#610b0b"/>
<path transform="matrix(.00359712,0,0,-.00359712,0,163)" d="M 46231 6547.23 L 46231 6712.52 C 46231 6827.16 46236.4 6901.81 46247 6987.13 L 45935.1 6987.13 C 45948.5 6893.81 45953.8 6819.16 45953.8 6715.19 L 45953.8 6547.23 L 45567.2 6547.23 C 45455.3 6547.23 45383.3 6549.89 45292.6 6560.56 C 45303.3 6467.25 45306 6397.94 45306 6307.28 L 45306 4830.31 C 45306 4734.34 45300.6 4643.7 45290 4555.72 L 45599.2 4555.72 L 45599.2 4678.36 L 47241.5 4678.36 L 47241.5 4555.72 L 47553.4 4555.72 C 47542.7 4643.7 47537.4 4723.67 47537.4 4827.66 L 47537.4 6307.28 C 47537.4 6397.94 47540.1 6472.58 47548.1 6560.56 C 47457.4 6549.89 47385.4 6547.23 47276.1 6547.23 L 46865.6 6547.23 L 46865.6 6712.52 C 46865.6 6821.83 46870.9 6901.81 46881.6 6987.13 L 46572.3 6987.13 C 46585.6 6899.14 46588.3 6824.5 46588.3 6715.19 L 46588.3 6547.23 L 46231 6547.23 Z M 46231 4950.28 L 46231 5507.48 L 46588.3 5507.48 L 46588.3 4950.28 L 46231 4950.28 Z M 46231 5774.08 L 46231 6277.95 L 46588.3 6277.95 L 46588.3 5774.08 L 46231 5774.08 Z M 45953.8 6277.95 L 45953.8 5774.08 L 45599.2 5774.08 L 45599.2 6277.95 L 45953.8 6277.95 Z M 45953.8 5507.48 L 45953.8 4950.28 L 45599.2 4950.28 L 45599.2 5507.48 L 45953.8 5507.48 Z M 46865.6 4950.28 L 46865.6 5507.48 L 47241.5 5507.48 L 47241.5 4950.28 L 46865.6 4950.28 Z M 46865.6 5774.08 L 46865.6 6277.95 L 47241.5 6277.95 L 47241.5 5774.08 L 46865.6 5774.08 " fill="#610b0b"/>
<path transform="matrix(.00359712,0,0,-.00359712,0,163)" d="M 47907 5616.8 C 47965.6 5627.45 47965.6 5627.45 48168.2 5640.78 C 48224.2 5643.45 48258.9 5643.45 48274.9 5646.11 L 48274.9 4827.66 C 48274.9 4707.69 48269.5 4635.7 48258.9 4545.06 L 48546.8 4545.06 C 48533.5 4627.7 48530.8 4686.36 48530.8 4824.98 L 48530.8 5667.44 C 48616.1 5675.44 48616.1 5675.44 48728.1 5688.77 C 48736.1 5646.11 48736.1 5646.11 48744.1 5611.45 L 48952 5704.77 C 48898.7 5910.05 48872.1 5990.03 48784.1 6200.64 L 48586.8 6123.33 C 48624.1 6032.69 48629.5 6019.36 48664.1 5910.05 C 48589.5 5902.05 48528.1 5896.72 48370.8 5886.06 C 48509.5 6064.69 48610.8 6211.31 48770.8 6461.92 C 48810.7 6525.91 48829.4 6555.22 48861.4 6605.88 L 48624.1 6733.84 C 48589.5 6637.88 48496.2 6472.58 48373.5 6283.3 C 48320.2 6352.61 48320.2 6352.61 48274.9 6408.59 C 48365.5 6544.56 48450.8 6693.86 48517.5 6829.83 C 48546.8 6891.14 48560.1 6917.8 48576.1 6941.8 L 48317.5 7037.77 C 48293.5 6928.47 48218.9 6765.84 48109.6 6592.55 L 48010.9 6696.53 L 47872.3 6467.25 C 48021.6 6331.28 48088.3 6256.63 48232.2 6075.34 C 48173.6 5990.03 48152.2 5960.7 48085.6 5875.39 C 48021.6 5875.39 48018.9 5875.39 48002.9 5875.39 C 47947 5875.39 47925.6 5878.06 47877.6 5883.39 L 47907 5616.8 Z M 49941.1 5824.73 C 50031.8 5824.73 50119.8 5822.08 50194.4 5814.08 C 50186.4 5883.39 50183.7 5950.05 50183.7 6070.02 L 50183.7 6549.89 C 50183.7 6677.86 50186.4 6736.52 50194.4 6816.5 C 50127.8 6808.5 50069.1 6805.83 49935.8 6805.83 L 49639.9 6805.83 C 49669.2 6869.81 49687.9 6912.47 49719.8 6997.78 L 49421.3 7040.44 C 49405.3 6965.8 49389.3 6912.47 49349.3 6805.83 L 49197.3 6805.83 C 49069.3 6805.83 49008 6808.5 48938.7 6816.5 C 48946.7 6744.52 48949.4 6653.88 48949.4 6555.22 L 48949.4 6072.67 C 48949.4 5971.38 48946.7 5883.39 48938.7 5814.08 C 49013.4 5822.08 49109.3 5824.73 49202.6 5824.73 L 49426.6 5824.73 L 49426.6 4896.97 C 49426.6 4846.31 49410.6 4832.98 49343.9 4832.98 C 49280 4832.98 49218.6 4840.98 49125.3 4856.98 C 49165.3 4771.67 49181.3 4707.69 49197.3 4587.72 C 49240 4582.38 49242.6 4582.38 49288 4582.38 L 49357.3 4582.38 C 49362.6 4579.72 49370.6 4579.72 49373.3 4579.72 C 49607.9 4579.72 49695.9 4646.36 49693.2 4816.98 L 49690.5 5048.94 C 49690.5 5131.58 49682.5 5246.22 49666.5 5408.84 C 49757.2 5179.56 49818.5 5070.27 49933.1 4923.63 C 50018.4 4808.98 50085.1 4742.34 50213.1 4638.36 C 50271.7 4763.67 50311.7 4824.98 50383.7 4902.3 C 50213.1 5014.27 50103.8 5118.25 49970.5 5294.2 C 50085.1 5387.52 50183.7 5478.16 50317 5622.13 L 50127.8 5792.75 C 50031.8 5670.11 49954.5 5587.47 49842.5 5494.16 C 49773.2 5619.45 49741.2 5699.44 49711.8 5824.73 L 49941.1 5824.73 Z M 49218.6 6587.22 L 49911.8 6587.22 L 49911.8 6419.27 L 49218.6 6419.27 L 49218.6 6587.22 Z M 49218.6 6211.31 L 49911.8 6211.31 L 49911.8 6043.36 L 49218.6 6043.36 L 49218.6 6211.31 Z M 47978.9 5518.14 C 47957.6 5118.25 47939 4990.28 47875 4793 L 48098.9 4678.36 C 48160.2 4888.97 48178.9 5024.94 48208.2 5491.48 L 47978.9 5518.14 Z M 48586.8 5488.83 C 48626.8 5291.53 48640.1 5176.91 48653.4 4950.28 L 48864.1 5008.94 C 48842.7 5211.56 48829.4 5302.2 48776.1 5539.47 L 48586.8 5488.83 Z M 49122.7 5398.17 C 49032 5171.56 48898.7 5003.61 48685.4 4851.64 C 48773.4 4774.33 48826.7 4715.69 48866.7 4638.36 C 49024 4782.33 49082.7 4851.64 49173.3 4982.28 C 49272 5128.91 49325.3 5246.22 49391.9 5454.17 C 49402.6 5491.48 49405.3 5499.48 49415.9 5526.14 L 49320 5651.45 C 49288 5646.11 49256 5643.45 49194.6 5643.45 L 49013.4 5643.45 C 48925.4 5643.45 48898.7 5646.11 48850.7 5654.11 L 48850.7 5387.52 C 48901.4 5395.52 48933.4 5398.17 49005.4 5398.17 L 49122.7 5398.17 " fill="#610b0b"/>
<path transform="matrix(.00359712,0,0,-.00359712,0,163)" stroke-width="110.783" stroke-linecap="butt" stroke-dasharray="110.783,553.929" stroke-miterlimit="10" stroke-linejoin="miter" fill="none" stroke="#000000" d="M 21981.4 19572.3 L 21981.4 3023.25 "/>
<path transform="matrix(.00359712,0,0,-.00359712,0,163)" d="M 22597.5 832.391 L 22314.7 832.391 L 22314.7 2066.02 L 22192.8 2066.02 L 21322.3 832.391 L 21322.3 654.969 L 22101.3 654.969 L 22101.3 192 L 22314.7 192 L 22314.7 654.969 L 22597.5 654.969 L 22597.5 832.391 Z M 22098.5 832.391 L 21433.2 832.391 L 22098.5 1783.25 L 22098.5 832.391 Z "/>
<path transform="matrix(.00359712,0,0,-.00359712,0,163)" stroke-width="110.783" stroke-linecap="butt" stroke-dasharray="110.783,553.929" stroke-miterlimit="10" stroke-linejoin="miter" fill="none" stroke="#000000" d="M 21981.4 19572.3 L 2674.08 19572.3 "/>
<path transform="matrix(.00359712,0,0,-.00359712,0,163)" d="M 735.156 19579.8 C 898.719 19579.8 962.469 19574.3 1029 19549.3 C 1200.89 19488.3 1309 19330.3 1309 19139 C 1309 18906.2 1150.98 18726 945.844 18726 C 870.984 18726 815.547 18745.4 712.969 18811.9 C 629.813 18861.8 582.672 18881.2 535.547 18881.2 C 471.781 18881.2 430.203 18842.4 430.203 18784.2 C 430.203 18687.2 549.406 18626.2 743.469 18626.2 C 956.922 18626.2 1175.94 18698.3 1306.23 18811.9 C 1436.52 18925.6 1508.59 19086.4 1508.59 19272.1 C 1508.59 19413.5 1464.25 19543.8 1383.84 19629.7 C 1328.41 19690.7 1275.73 19724 1153.75 19776.7 C 1345.05 19907 1414.34 20009.5 1414.34 20159.2 C 1414.34 20383.8 1236.92 20539 981.875 20539 C 843.266 20539 721.297 20491.9 621.484 20403.2 C 538.328 20328.3 496.734 20256.3 435.75 20089.9 L 477.328 20078.8 C 591 20281.2 715.75 20372.7 890.391 20372.7 C 1070.59 20372.7 1195.34 20250.7 1195.34 20076.1 C 1195.34 19976.3 1153.75 19876.5 1084.45 19807.2 C 1001.28 19724 923.656 19682.4 735.156 19615.9 L 735.156 19579.8 "/>
<path transform="matrix(.00359712,0,0,-.00359712,0,163)" d="M 1547.41 37091.2 C 1231.38 37063.5 1070.59 37010.8 868.219 36869.4 C 568.813 36656 405.25 36339.9 405.25 35968.5 C 405.25 35727.3 480.109 35483.3 599.313 35344.7 C 704.656 35222.7 854.359 35156.2 1026.23 35156.2 C 1369.98 35156.2 1608.41 35419.5 1608.41 35802.1 C 1608.41 36157 1406.03 36381.5 1087.22 36381.5 C 965.25 36381.5 907.031 36362.1 732.375 36256.8 C 807.234 36675.4 1117.72 36974.8 1552.95 37046.8 L 1547.41 37091.2 Z M 981.875 36254 C 1220.3 36254 1358.91 36054.4 1358.91 35707.9 C 1358.91 35402.9 1250.78 35233.8 1056.73 35233.8 C 812.766 35233.8 663.078 35494.4 663.078 35924.1 C 663.078 36065.5 685.25 36143.1 740.688 36184.7 C 798.906 36229 884.844 36254 981.875 36254 "/>
<path transform="matrix(.00359712,0,0,-.00359712,0,163)" d="M 1117.72 9487.02 L 618.719 9234.75 L 618.719 9195.94 C 651.984 9209.8 682.484 9220.89 693.563 9226.44 C 743.469 9245.84 790.594 9256.92 818.313 9256.92 C 876.531 9256.92 901.484 9215.34 901.484 9126.64 L 901.484 7870.81 C 901.484 7779.33 879.313 7715.58 834.953 7690.63 C 793.359 7665.67 754.563 7657.36 638.125 7654.58 L 638.125 7613 L 1403.25 7613 L 1403.25 7654.58 C 1184.25 7657.36 1139.89 7685.08 1139.89 7818.14 L 1139.89 9481.48 L 1117.72 9487.02 "/>
<path transform="matrix(.00359712,0,0,-.00359712,0,163)" d="M 22532.7 19572.3 C 22532.7 19876.8 22285.9 20123.6 21981.4 20123.6 C 21676.9 20123.6 21430.1 19876.8 21430.1 19572.3 C 21430.1 19267.8 21676.9 19021 21981.4 19021 C 22285.9 19021 22532.7 19267.8 22532.7 19572.3 Z M 21981.4 19572.3 "/>
<path transform="matrix(.00359712,0,0,-.00359712,0,163)" d="M 4576.48 25447.1 L 4339.73 25447.1 C 4253.98 25447.1 4209.25 25449 4166.38 25454.6 C 4170.11 25415.4 4171.97 25357.6 4171.97 25275.6 L 4171.97 24448 C 4171.97 24356.6 4168.25 24287.7 4162.66 24231.7 L 4382.61 24231.7 C 4375.16 24285.8 4371.42 24366 4371.42 24449.8 L 4371.42 24626.9 L 5007.08 24626.9 L 5007.08 24472.2 C 5007.08 24436.8 4995.89 24429.3 4936.25 24429.3 C 4887.78 24429.3 4816.94 24434.9 4721.88 24448 C 4747.97 24367.8 4757.3 24326.8 4764.75 24254.1 C 4861.69 24246.7 4919.47 24244.8 4977.25 24244.8 C 5066.73 24244.8 5117.06 24254.1 5148.75 24274.6 C 5189.77 24300.7 5208.41 24347.3 5208.41 24421.9 L 5208.41 25262.6 C 5208.41 25344.6 5210.27 25413.6 5215.86 25454.6 C 5169.25 25449 5128.25 25447.1 5042.5 25447.1 L 4774.08 25447.1 L 4774.08 25775.2 C 4774.08 25851.6 4777.8 25902 4785.25 25957.9 L 4565.3 25957.9 C 4572.75 25903.8 4576.48 25849.8 4576.48 25773.3 L 4576.48 25447.1 Z M 4371.42 24951.3 L 5007.08 24951.3 L 5007.08 24802.1 L 4371.42 24802.1 L 4371.42 24951.3 Z M 5007.08 25126.5 L 4371.42 25126.5 L 4371.42 25268.2 L 5007.08 25268.2 L 5007.08 25126.5 Z M 3681.72 25788.3 C 3814.06 25702.5 3890.5 25637.3 3996.75 25518 L 4123.5 25680.1 C 3998.61 25799.4 3935.23 25849.8 3808.47 25931.8 L 3681.72 25788.3 Z M 3609.02 25329.7 C 3732.05 25258.8 3808.47 25199.2 3940.83 25068.7 L 4056.41 25236.5 C 3929.64 25346.5 3855.08 25400.5 3724.59 25478.8 L 3609.02 25329.7 Z M 3886.77 24956.9 C 3806.61 24701.5 3711.55 24502 3620.2 24395.8 L 3802.89 24242.9 C 3909.14 24438.7 3981.83 24606.4 4058.27 24837.6 L 3886.77 24956.9 Z M 5057.41 25915 C 5020.13 25788.3 4969.8 25683.9 4885.92 25551.5 L 5053.69 25462 C 5130.11 25577.6 5172.98 25659.6 5251.28 25836.7 L 5057.41 25915 Z M 4103 25821.8 C 4205.53 25683.9 4237.22 25627.9 4304.33 25467.6 L 4483.28 25557.1 C 4414.3 25710 4365.84 25793.8 4280.09 25909.4 L 4103 25821.8 "/>
<path transform="matrix(.00359712,0,0,-.00359712,0,163)" d="M 6624.16 25428.5 L 6624.16 25493.7 L 6875.81 25493.7 C 6942.92 25493.7 6998.84 25491.9 7058.48 25488.1 C 7052.89 25532.9 7052.89 25551.5 7052.89 25620.5 L 7052.89 25695 C 7052.89 25769.6 7054.77 25797.6 7060.36 25840.4 C 7017.48 25834.8 6939.19 25831.1 6877.67 25831.1 L 6624.16 25831.1 C 6624.16 25885.2 6626.02 25907.5 6633.48 25948.6 L 6430.3 25948.6 C 6437.75 25909.4 6439.61 25888.9 6439.61 25831.1 L 6230.84 25831.1 C 6234.56 25916.9 6234.56 25926.2 6238.3 25948.6 L 6038.84 25948.6 C 6044.42 25911.3 6046.3 25881.5 6046.3 25831.1 L 5738.72 25831.1 C 5651.11 25831.1 5608.23 25833 5559.77 25840.4 L 5559.77 25678.3 C 5598.91 25685.7 5654.83 25687.6 5738.72 25687.6 L 6040.7 25687.6 C 6040.7 25667.1 6038.84 25667.1 6035.11 25622.3 L 5790.91 25622.3 C 5716.34 25622.3 5671.61 25624.2 5634.33 25627.9 C 5617.55 25512.4 5580.27 25398.7 5526.22 25288.7 C 5578.41 25290.5 5641.78 25292.4 5680.94 25292.4 L 5887.84 25292.4 C 5789.05 25216 5697.7 25182.4 5460.97 25132.1 C 5503.84 25074.3 5511.3 25059.4 5535.53 24999.7 L 5550.45 24966.2 C 5623.14 24988.6 5649.25 24996 5699.58 25014.7 L 5699.58 24667.9 C 5699.58 24587.8 5695.84 24515.1 5692.11 24481.5 C 5734.98 24485.3 5809.55 24487.1 5889.7 24487.1 L 5977.33 24487.1 C 5830.06 24418.1 5703.3 24384.6 5479.61 24358.5 C 5537.39 24291.4 5554.17 24267.2 5593.33 24196.3 C 5863.61 24248.5 5981.05 24291.4 6182.38 24410.7 L 6089.17 24487.1 L 6573.83 24487.1 L 6471.3 24410.7 C 6683.81 24287.7 6814.3 24241.1 7079 24198.2 C 7123.73 24276.5 7144.23 24306.3 7194.56 24366 C 6969.02 24382.7 6819.89 24418.1 6685.67 24487.1 L 6775.16 24487.1 C 6851.58 24487.1 6933.59 24485.3 6972.73 24481.5 C 6967.16 24530 6965.28 24597.1 6965.28 24679.1 L 6965.28 24999.7 C 6965.28 25027.7 6965.28 25057.5 6965.28 25107.9 C 7092.05 25115.3 7121.88 25150.7 7144.23 25307.3 C 7155.42 25402.4 7155.42 25402.4 7161.02 25434.1 C 7118.14 25430.3 7084.59 25428.5 7002.56 25428.5 L 6624.16 25428.5 Z M 6782.61 25201.1 L 6624.16 25201.1 L 6624.16 25292.4 L 6952.23 25292.4 C 6946.64 25242.1 6939.19 25234.6 6901.91 25234.6 C 6877.67 25234.6 6836.66 25240.2 6797.52 25251.4 C 6808.7 25229 6810.56 25221.6 6816.16 25201.1 L 6782.61 25201.1 Z M 6439.61 25201.1 L 6035.11 25201.1 C 6076.13 25236.5 6092.89 25255.1 6118.98 25292.4 L 6439.61 25292.4 L 6439.61 25201.1 Z M 6014.61 25493.7 C 6005.28 25465.8 6001.56 25454.6 5992.23 25428.5 L 5772.27 25428.5 C 5781.59 25450.8 5785.33 25460.2 5794.64 25493.7 L 6014.61 25493.7 Z M 6439.61 25493.7 L 6439.61 25428.5 L 6184.23 25428.5 C 6191.69 25456.4 6193.56 25465.8 6201.02 25493.7 L 6439.61 25493.7 Z M 6439.61 25687.6 L 6439.61 25622.3 L 6221.52 25622.3 C 6223.38 25652.2 6225.25 25661.5 6225.25 25687.6 L 6439.61 25687.6 Z M 6624.16 25687.6 L 6859.03 25687.6 L 6859.03 25622.3 L 6624.16 25622.3 L 6624.16 25687.6 Z M 5891.58 25072.4 L 6771.42 25072.4 L 6771.42 25007.2 L 5891.58 25007.2 L 5891.58 25072.4 Z M 5891.58 24887.9 L 6771.42 24887.9 L 6771.42 24818.9 L 5891.58 24818.9 L 5891.58 24887.9 Z M 5891.58 24699.6 L 6771.42 24699.6 L 6771.42 24630.7 L 5891.58 24630.7 L 5891.58 24699.6 "/>
<path transform="matrix(.00359712,0,0,-.00359712,0,163)" d="M 8081.92 25232.8 C 7835.86 25081.8 7597.27 24973.6 7313.92 24889.8 C 7367.98 24820.8 7392.22 24779.8 7423.91 24703.3 C 7567.44 24761.1 7606.58 24777.9 7720.3 24833.8 C 7718.42 24800.3 7718.42 24759.3 7718.42 24729.5 L 7718.42 24440.5 C 7718.42 24358.5 7714.7 24291.4 7707.25 24229.9 L 7925.34 24229.9 L 7925.34 24310 L 8602 24310 L 8602 24229.9 L 8818.23 24229.9 C 8810.78 24280.2 8807.05 24343.6 8807.05 24440.5 L 8807.05 24900.9 C 8807.05 25005.3 8808.92 25050.1 8814.52 25104.1 C 8760.45 25100.4 8708.25 25098.5 8618.78 25098.5 L 8344.77 25098.5 C 8296.3 25098.5 8234.78 25098.5 8193.77 25096.7 C 8277.66 25150.7 8324.25 25182.4 8395.09 25232.8 L 8795.88 25232.8 C 8890.94 25232.8 8965.5 25229 9027.02 25221.6 L 9027.02 25426.6 C 8967.36 25419.2 8911.44 25415.4 8814.52 25415.4 L 8622.5 25415.4 C 8721.3 25504.9 8801.45 25585.1 8876.02 25672.7 C 8918.89 25723 8946.86 25754.7 8959.91 25767.7 L 8775.36 25888.9 C 8736.22 25812.5 8657.92 25708.1 8559.13 25605.6 L 8559.13 25765.9 C 8505.08 25758.4 8445.42 25754.7 8350.36 25754.7 L 8216.14 25754.7 L 8216.14 25786.4 C 8216.14 25862.8 8218 25902 8227.33 25950.4 L 7999.91 25950.4 C 8007.36 25900.1 8011.09 25859.1 8011.09 25786.4 L 8011.09 25754.7 L 7738.94 25754.7 C 7640.14 25754.7 7567.44 25758.4 7518.97 25765.9 L 7518.97 25570.1 C 7573.03 25575.7 7632.69 25577.6 7731.48 25577.6 L 8011.09 25577.6 L 8011.09 25415.4 L 7586.08 25415.4 C 7479.83 25415.4 7408.98 25419.2 7358.66 25426.6 L 7358.66 25221.6 C 7423.91 25229 7489.14 25232.8 7582.34 25232.8 L 8081.92 25232.8 Z M 8216.14 25415.4 L 8216.14 25577.6 L 8369 25577.6 C 8443.56 25577.6 8475.25 25575.7 8525.58 25572 C 8465.92 25512.4 8415.59 25469.5 8346.63 25415.4 L 8216.14 25415.4 Z M 7925.34 24928.9 L 8600.14 24928.9 L 8600.14 24791 L 7925.34 24791 L 7925.34 24928.9 Z M 7925.34 24628.8 L 8600.14 24628.8 L 8600.14 24485.3 L 7925.34 24485.3 L 7925.34 24628.8 "/>
<path transform="matrix(.00359712,0,0,-.00359712,0,163)" d="M 9950.66 25245.8 L 9950.66 25061.3 L 9460.41 25061.3 C 9383.97 25061.3 9315 25065 9257.22 25072.4 L 9257.22 24869.3 C 9318.73 24876.7 9378.38 24880.4 9460.41 24880.4 L 9950.66 24880.4 L 9950.66 24468.5 C 9950.66 24429.3 9941.33 24423.7 9877.95 24423.7 C 9820.17 24423.7 9756.78 24427.5 9667.31 24438.7 C 9693.41 24369.7 9706.45 24319.3 9713.91 24239.2 C 9792.2 24237.3 9848.13 24235.5 9892.86 24235.5 C 9986.06 24235.5 10038.3 24241.1 10075.5 24256 C 10129.6 24276.5 10159.4 24332.4 10159.4 24420 L 10159.4 24880.4 L 10642.2 24880.4 C 10724.3 24880.4 10789.5 24876.7 10847.3 24869.3 L 10847.3 25072.4 C 10787.6 25065 10726.1 25061.3 10642.2 25061.3 L 10159.4 25061.3 L 10159.4 25245.8 L 10398 25245.8 C 10472.6 25245.8 10517.3 25243.9 10569.5 25238.3 L 10569.5 25353.9 C 10687 25286.8 10741 25260.7 10847.3 25219.7 C 10879 25305.5 10903.2 25357.6 10946.1 25424.8 C 10785.8 25469.5 10640.4 25538.5 10487.5 25639.1 C 10336.5 25737.9 10243.3 25821.8 10153.8 25939.2 L 9933.88 25939.2 C 9840.67 25819.9 9764.25 25749.1 9624.44 25650.3 C 9462.27 25540.3 9322.45 25469.5 9165.88 25419.2 C 9216.2 25346.5 9232.98 25316.6 9273.98 25223.4 C 9383.97 25270 9445.48 25299.9 9538.69 25353.9 L 9538.69 25238.3 C 9594.61 25243.9 9643.08 25245.8 9708.33 25245.8 L 9950.66 25245.8 Z M 9710.19 25426.6 C 9691.55 25426.6 9680.36 25426.6 9654.27 25426.6 C 9807.13 25527.3 9918.97 25626.1 10043.9 25765.9 C 10166.9 25626.1 10276.9 25534.7 10446.5 25426.6 C 10416.7 25426.6 10416.7 25426.6 10396.2 25426.6 L 9710.19 25426.6 Z M 9589.02 24845 C 9492.09 24666.1 9389.56 24558 9199.42 24442.4 C 9255.34 24384.6 9288.91 24341.7 9328.05 24274.6 C 9510.73 24393.9 9657.98 24556.1 9771.7 24759.3 L 9589.02 24845 Z M 10312.3 24757.4 C 10429.7 24554.2 10582.6 24390.2 10767.1 24267.2 C 10830.5 24369.7 10841.7 24388.3 10897.6 24449.8 C 10705.6 24563.5 10606.8 24660.5 10493.1 24845 L 10312.3 24757.4 "/>
<path transform="matrix(.00359712,0,0,-.00359712,0,163)" d="M 11462.5 24815.2 C 11423.3 24764.9 11412.1 24750 11374.9 24714.5 C 11277.9 24617.6 11188.5 24552.4 11058 24481.5 C 11104.6 24421.9 11128.8 24379 11160.5 24297 C 11261.2 24364.1 11305.9 24397.6 11389.8 24479.7 C 11460.6 24548.6 11490.4 24582.2 11548.2 24664.2 C 11544.5 24623.2 11544.5 24593.4 11544.5 24539.3 L 11544.5 24366 C 11544.5 24298.8 11540.8 24269 11533.3 24222.4 L 11734.6 24222.4 C 11727.2 24269 11725.3 24297 11725.3 24369.7 L 11725.3 24552.4 C 11725.3 24606.4 11725.3 24617.6 11719.7 24671.7 C 11820.4 24541.2 11909.9 24459.2 12072 24351 C 12128 24462.9 12133.5 24470.3 12180.1 24533.7 C 12018 24615.7 11924.8 24684.7 11805.5 24815.2 L 11997.5 24815.2 C 12062.7 24815.2 12090.7 24813.3 12133.5 24809.6 L 12133.5 24977.4 C 12103.7 24973.6 12077.6 24971.8 12029.2 24971.8 L 12029.2 25130.2 C 12141 25128.4 12141 25128.4 12169 25124.6 L 12169 25296.1 C 12128 25292.4 12098.1 25290.5 12029.2 25290.5 L 12029.2 25445.3 C 12085.1 25443.4 12103.7 25443.4 12133.5 25439.7 L 12133.5 25607.4 C 12101.9 25603.7 12060.8 25601.8 12001.2 25601.8 L 11725.3 25601.8 L 11725.3 25737.9 C 11893.1 25754.7 11988.1 25767.7 12072 25782.7 C 12100 25788.3 12100 25788.3 12111.2 25790.1 L 11980.7 25959.7 C 11936 25941.1 11891.2 25931.8 11766.3 25913.1 C 11565 25885.2 11318.9 25864.7 11119.5 25859.1 C 11154.9 25793.8 11169.8 25756.6 11181 25695 C 11328.3 25704.4 11341.3 25704.4 11544.5 25721.1 L 11544.5 25601.8 L 11253.7 25601.8 C 11184.7 25601.8 11143.7 25603.7 11106.4 25609.3 L 11106.4 25437.8 C 11143.7 25443.4 11179.1 25445.3 11240.7 25445.3 L 11240.7 25290.5 L 11201.5 25290.5 C 11130.7 25290.5 11095.3 25292.4 11052.4 25298 L 11052.4 25122.8 C 11091.5 25128.4 11138.1 25130.2 11201.5 25130.2 L 11240.7 25130.2 L 11240.7 24971.8 C 11162.4 24971.8 11136.3 24973.6 11097.1 24979.2 L 11097.1 24807.7 C 11141.9 24813.3 11175.4 24815.2 11244.4 24815.2 L 11462.5 24815.2 Z M 11544.5 25290.5 L 11412.1 25290.5 L 11412.1 25445.3 L 11544.5 25445.3 L 11544.5 25290.5 Z M 11725.3 25290.5 L 11725.3 25445.3 L 11859.5 25445.3 L 11859.5 25290.5 L 11725.3 25290.5 Z M 11544.5 24971.8 L 11412.1 24971.8 L 11412.1 25130.2 L 11544.5 25130.2 L 11544.5 24971.8 Z M 11725.3 24971.8 L 11725.3 25130.2 L 11859.5 25130.2 L 11859.5 24971.8 L 11725.3 24971.8 Z M 12200.7 25806.9 C 12208.1 25754.7 12210 25700.6 12210 25609.3 L 12210 24856.2 C 12210 24750 12208.1 24710.8 12200.7 24656.8 L 12403.8 24656.8 C 12396.4 24707.1 12394.5 24744.4 12394.5 24856.2 L 12394.5 25613 C 12394.5 25708.1 12396.4 25760.3 12403.8 25808.8 L 12200.7 25806.9 Z M 12532.5 25931.8 C 12539.9 25872.1 12543.6 25812.5 12543.6 25700.6 L 12543.6 24485.3 C 12543.6 24440.5 12526.9 24429.3 12459.8 24429.3 C 12402 24429.3 12321.8 24434.9 12232.3 24446.1 C 12262.2 24371.5 12273.4 24328.7 12280.8 24248.5 C 12353.5 24246.7 12433.7 24244.8 12480.3 24244.8 C 12681.6 24244.8 12737.5 24291.4 12737.5 24457.3 L 12737.5 25706.2 C 12737.5 25819.9 12741.2 25879.6 12750.6 25931.8 L 12532.5 25931.8 "/>
<path transform="matrix(.00359712,0,0,-.00359712,0,163)" d="M 4375.16 16568.1 L 4375.16 16225.1 L 4086.22 16225.1 C 3983.7 16225.1 3922.19 16228.8 3862.53 16236.3 L 3862.53 16031.2 C 3925.91 16038.7 4000.48 16042.4 4088.09 16042.4 L 4375.16 16042.4 L 4375.16 15647.2 L 3896.09 15647.2 C 3797.3 15647.2 3717.14 15650.9 3636.98 15660.3 L 3636.98 15447.8 C 3724.59 15457.1 3804.75 15460.8 3901.69 15460.8 L 5042.5 15460.8 C 5141.3 15460.8 5208.41 15457.1 5296.02 15447.8 L 5296.02 15660.3 C 5221.45 15650.9 5143.16 15647.2 5036.91 15647.2 L 4589.53 15647.2 L 4589.53 16042.4 L 4912.02 16042.4 C 4999.63 16042.4 5074.19 16038.7 5141.3 16031.2 L 5141.3 16236.3 C 5079.78 16228.8 5005.22 16225.1 4912.02 16225.1 L 4589.53 16225.1 L 4589.53 16568.1 L 4982.84 16568.1 C 5072.33 16568.1 5148.75 16564.3 5228.91 16556.9 L 5228.91 16761.9 C 5152.48 16754.5 5072.33 16750.7 4977.25 16750.7 L 4589.53 16750.7 L 4589.53 16894.3 C 4589.53 16993.1 4593.25 17054.6 4600.72 17116.1 L 4362.11 17116.1 C 4371.42 17047.1 4375.16 16989.3 4375.16 16892.4 L 4375.16 16750.7 L 4071.31 16750.7 C 4095.55 16816 4112.33 16862.6 4121.64 16890.5 C 4134.69 16937.2 4134.69 16939 4140.28 16952.1 C 4153.33 16985.6 4153.33 16985.6 4157.06 17000.5 L 3944.55 17052.7 C 3937.09 16998.7 3927.78 16959.5 3903.55 16879.4 C 3840.17 16672.5 3728.33 16476.7 3588.52 16335 C 3650.03 16292.2 3692.91 16247.4 3741.38 16176.6 C 3843.89 16295.9 3918.45 16407.8 3994.89 16568.1 L 4375.16 16568.1 "/>
<path transform="matrix(.00359712,0,0,-.00359712,0,163)" d="M 5971.73 15809.4 C 6023.92 15815 6076.13 15816.8 6143.22 15816.8 L 6359.45 15816.8 L 6359.45 15636 L 5932.58 15636 C 5852.42 15636 5803.97 15637.9 5757.36 15645.3 L 5757.36 15447.8 C 5822.61 15455.2 5872.94 15457.1 5936.31 15457.1 L 6970.88 15457.1 C 7041.72 15457.1 7097.64 15453.3 7153.56 15445.9 L 7153.56 15645.3 C 7106.95 15639.8 7051.03 15636 6976.47 15636 L 6555.19 15636 L 6555.19 15816.8 L 6834.8 15816.8 C 6916.81 15816.8 6948.52 15815 7002.56 15809.4 L 7002.56 15992.1 C 6955.97 15986.5 6922.41 15984.6 6834.8 15984.6 L 6555.19 15984.6 L 6555.19 16131.9 L 6888.86 16131.9 C 6974.61 16131.9 7015.61 16130 7069.67 16124.4 L 7069.67 16322 C 7023.08 16314.5 6982.06 16312.7 6890.72 16312.7 L 6555.19 16312.7 C 6555.19 16366.7 6557.05 16392.8 6562.64 16432 L 6350.14 16432 C 6355.73 16400.3 6357.59 16370.5 6357.59 16312.7 L 6148.81 16312.7 C 6171.19 16366.7 6171.19 16366.7 6189.83 16413.3 L 6001.56 16456.2 C 5964.27 16336.9 5947.5 16295.9 5904.63 16217.6 C 5863.61 16143 5826.33 16094.6 5774.14 16042.4 C 5787.19 16184.1 5790.91 16260.5 5790.91 16476.7 L 6942.92 16476.7 C 7039.84 16476.7 7092.05 16474.9 7151.69 16467.4 L 7151.69 16657.5 C 7099.5 16650.1 7043.58 16648.2 6942.92 16648.2 L 6696.86 16648.2 C 6728.55 16704.1 6737.86 16724.6 6775.16 16806.7 L 6918.69 16806.7 C 7017.48 16806.7 7064.08 16804.8 7118.14 16799.2 L 7118.14 17000.5 C 7064.08 16993.1 7004.44 16989.3 6907.5 16989.3 L 6450.8 16989.3 L 6450.8 17008 C 6450.8 17052.7 6454.53 17086.3 6461.98 17125.4 L 6232.7 17125.4 C 6238.3 17082.5 6242.02 17047.1 6242.02 17008 L 6242.02 16989.3 L 5785.33 16989.3 C 5690.25 16989.3 5632.47 16993.1 5582.14 17000.5 L 5582.14 16799.2 C 5634.33 16804.8 5673.47 16806.7 5772.27 16806.7 L 5930.72 16806.7 C 5966.14 16739.6 5975.45 16717.2 5994.09 16648.2 L 5802.09 16648.2 C 5718.22 16648.2 5662.3 16650.1 5589.59 16657.5 C 5595.19 16596 5598.91 16527 5598.91 16452.5 C 5598.91 16185.9 5578.41 15977.1 5541.13 15831.8 C 5516.89 15738.5 5490.8 15680.8 5434.88 15585.7 C 5496.39 15527.9 5522.48 15496.2 5584 15403 C 5682.8 15555.9 5733.13 15714.3 5766.69 15986.5 C 5809.55 15945.5 5837.52 15911.9 5874.8 15857.8 C 5925.13 15911.9 5941.91 15932.4 5971.73 15971.5 L 5971.73 15809.4 Z M 6359.45 16131.9 L 6359.45 15984.6 L 6141.36 15984.6 C 6063.06 15984.6 6020.2 15986.5 5982.91 15990.2 C 6018.33 16038.7 6036.97 16072.2 6068.66 16131.9 L 6359.45 16131.9 Z M 6208.47 16648.2 C 6186.09 16713.5 6174.92 16743.3 6145.09 16806.7 L 6562.64 16806.7 C 6538.41 16739.6 6525.36 16709.7 6491.81 16648.2 L 6208.47 16648.2 "/>
<path transform="matrix(.00359712,0,0,-.00359712,0,163)" d="M 8081.92 16407.8 C 7835.86 16256.8 7597.27 16148.6 7313.92 16064.8 C 7367.98 15995.8 7392.22 15954.8 7423.91 15878.3 C 7567.44 15936.1 7606.58 15952.9 7720.3 16008.8 C 7718.42 15975.3 7718.42 15934.3 7718.42 15904.5 L 7718.42 15615.5 C 7718.42 15533.5 7714.7 15466.4 7707.25 15404.9 L 7925.34 15404.9 L 7925.34 15485 L 8602 15485 L 8602 15404.9 L 8818.23 15404.9 C 8810.78 15455.2 8807.05 15518.6 8807.05 15615.5 L 8807.05 16075.9 C 8807.05 16180.3 8808.92 16225.1 8814.52 16279.1 C 8760.45 16275.4 8708.25 16273.5 8618.78 16273.5 L 8344.77 16273.5 C 8296.3 16273.5 8234.78 16273.5 8193.77 16271.7 C 8277.66 16325.7 8324.25 16357.4 8395.09 16407.8 L 8795.88 16407.8 C 8890.94 16407.8 8965.5 16404 9027.02 16396.6 L 9027.02 16601.6 C 8967.36 16594.2 8911.44 16590.4 8814.52 16590.4 L 8622.5 16590.4 C 8721.3 16679.9 8801.45 16760.1 8876.02 16847.7 C 8918.89 16898 8946.86 16929.7 8959.91 16942.7 L 8775.36 17063.9 C 8736.22 16987.5 8657.92 16883.1 8559.13 16780.6 L 8559.13 16940.9 C 8505.08 16933.4 8445.42 16929.7 8350.36 16929.7 L 8216.14 16929.7 L 8216.14 16961.4 C 8216.14 17037.8 8218 17077 8227.33 17125.4 L 7999.91 17125.4 C 8007.36 17075.1 8011.09 17034.1 8011.09 16961.4 L 8011.09 16929.7 L 7738.94 16929.7 C 7640.14 16929.7 7567.44 16933.4 7518.97 16940.9 L 7518.97 16745.1 C 7573.03 16750.7 7632.69 16752.6 7731.48 16752.6 L 8011.09 16752.6 L 8011.09 16590.4 L 7586.08 16590.4 C 7479.83 16590.4 7408.98 16594.2 7358.66 16601.6 L 7358.66 16396.6 C 7423.91 16404 7489.14 16407.8 7582.34 16407.8 L 8081.92 16407.8 Z M 8216.14 16590.4 L 8216.14 16752.6 L 8369 16752.6 C 8443.56 16752.6 8475.25 16750.7 8525.58 16747 C 8465.92 16687.4 8415.59 16644.5 8346.63 16590.4 L 8216.14 16590.4 Z M 7925.34 16103.9 L 8600.14 16103.9 L 8600.14 15966 L 7925.34 15966 L 7925.34 16103.9 Z M 7925.34 15803.8 L 8600.14 15803.8 L 8600.14 15660.3 L 7925.34 15660.3 L 7925.34 15803.8 "/>
<path transform="matrix(.00359712,0,0,-.00359712,0,163)" d="M 9950.66 16420.8 L 9950.66 16236.3 L 9460.41 16236.3 C 9383.97 16236.3 9315 16240 9257.22 16247.4 L 9257.22 16044.3 C 9318.73 16051.7 9378.38 16055.4 9460.41 16055.4 L 9950.66 16055.4 L 9950.66 15643.5 C 9950.66 15604.3 9941.33 15598.7 9877.95 15598.7 C 9820.17 15598.7 9756.78 15602.5 9667.31 15613.7 C 9693.41 15544.7 9706.45 15494.3 9713.91 15414.2 C 9792.2 15412.3 9848.13 15410.5 9892.86 15410.5 C 9986.06 15410.5 10038.3 15416.1 10075.5 15431 C 10129.6 15451.5 10159.4 15507.4 10159.4 15595 L 10159.4 16055.4 L 10642.2 16055.4 C 10724.3 16055.4 10789.5 16051.7 10847.3 16044.3 L 10847.3 16247.4 C 10787.6 16240 10726.1 16236.3 10642.2 16236.3 L 10159.4 16236.3 L 10159.4 16420.8 L 10398 16420.8 C 10472.6 16420.8 10517.3 16418.9 10569.5 16413.3 L 10569.5 16528.9 C 10687 16461.8 10741 16435.7 10847.3 16394.7 C 10879 16480.5 10903.2 16532.6 10946.1 16599.8 C 10785.8 16644.5 10640.4 16713.5 10487.5 16814.1 C 10336.5 16912.9 10243.3 16996.8 10153.8 17114.2 L 9933.88 17114.2 C 9840.67 16994.9 9764.25 16924.1 9624.44 16825.3 C 9462.27 16715.3 9322.45 16644.5 9165.88 16594.2 C 9216.2 16521.5 9232.98 16491.6 9273.98 16398.4 C 9383.97 16445 9445.48 16474.9 9538.69 16528.9 L 9538.69 16413.3 C 9594.61 16418.9 9643.08 16420.8 9708.33 16420.8 L 9950.66 16420.8 Z M 9710.19 16601.6 C 9691.55 16601.6 9680.36 16601.6 9654.27 16601.6 C 9807.13 16702.3 9918.97 16801.1 10043.9 16940.9 C 10166.9 16801.1 10276.9 16709.7 10446.5 16601.6 C 10416.7 16601.6 10416.7 16601.6 10396.2 16601.6 L 9710.19 16601.6 Z M 9589.02 16020 C 9492.09 15841.1 9389.56 15733 9199.42 15617.4 C 9255.34 15559.6 9288.91 15516.7 9328.05 15449.6 C 9510.73 15568.9 9657.98 15731.1 9771.7 15934.3 L 9589.02 16020 Z M 10312.3 15932.4 C 10429.7 15729.2 10582.6 15565.2 10767.1 15442.2 C 10830.5 15544.7 10841.7 15563.3 10897.6 15624.8 C 10705.6 15738.5 10606.8 15835.5 10493.1 16020 L 10312.3 15932.4 "/>
<path transform="matrix(.00359712,0,0,-.00359712,0,163)" d="M 11462.5 15990.2 C 11423.3 15939.9 11412.1 15925 11374.9 15889.5 C 11277.9 15792.6 11188.5 15727.4 11058 15656.5 C 11104.6 15596.9 11128.8 15554 11160.5 15472 C 11261.2 15539.1 11305.9 15572.6 11389.8 15654.7 C 11460.6 15723.6 11490.4 15757.2 11548.2 15839.2 C 11544.5 15798.2 11544.5 15768.4 11544.5 15714.3 L 11544.5 15541 C 11544.5 15473.8 11540.8 15444 11533.3 15397.4 L 11734.6 15397.4 C 11727.2 15444 11725.3 15472 11725.3 15544.7 L 11725.3 15727.4 C 11725.3 15781.4 11725.3 15792.6 11719.7 15846.7 C 11820.4 15716.2 11909.9 15634.2 12072 15526 C 12128 15637.9 12133.5 15645.3 12180.1 15708.7 C 12018 15790.7 11924.8 15859.7 11805.5 15990.2 L 11997.5 15990.2 C 12062.7 15990.2 12090.7 15988.3 12133.5 15984.6 L 12133.5 16152.4 C 12103.7 16148.6 12077.6 16146.8 12029.2 16146.8 L 12029.2 16305.2 C 12141 16303.4 12141 16303.4 12169 16299.6 L 12169 16471.1 C 12128 16467.4 12098.1 16465.5 12029.2 16465.5 L 12029.2 16620.3 C 12085.1 16618.4 12103.7 16618.4 12133.5 16614.7 L 12133.5 16782.4 C 12101.9 16778.7 12060.8 16776.8 12001.2 16776.8 L 11725.3 16776.8 L 11725.3 16912.9 C 11893.1 16929.7 11988.1 16942.7 12072 16957.7 C 12100 16963.3 12100 16963.3 12111.2 16965.1 L 11980.7 17134.7 C 11936 17116.1 11891.2 17106.8 11766.3 17088.1 C 11565 17060.2 11318.9 17039.7 11119.5 17034.1 C 11154.9 16968.8 11169.8 16931.6 11181 16870 C 11328.3 16879.4 11341.3 16879.4 11544.5 16896.1 L 11544.5 16776.8 L 11253.7 16776.8 C 11184.7 16776.8 11143.7 16778.7 11106.4 16784.3 L 11106.4 16612.8 C 11143.7 16618.4 11179.1 16620.3 11240.7 16620.3 L 11240.7 16465.5 L 11201.5 16465.5 C 11130.7 16465.5 11095.3 16467.4 11052.4 16473 L 11052.4 16297.8 C 11091.5 16303.4 11138.1 16305.2 11201.5 16305.2 L 11240.7 16305.2 L 11240.7 16146.8 C 11162.4 16146.8 11136.3 16148.6 11097.1 16154.2 L 11097.1 15982.7 C 11141.9 15988.3 11175.4 15990.2 11244.4 15990.2 L 11462.5 15990.2 Z M 11544.5 16465.5 L 11412.1 16465.5 L 11412.1 16620.3 L 11544.5 16620.3 L 11544.5 16465.5 Z M 11725.3 16465.5 L 11725.3 16620.3 L 11859.5 16620.3 L 11859.5 16465.5 L 11725.3 16465.5 Z M 11544.5 16146.8 L 11412.1 16146.8 L 11412.1 16305.2 L 11544.5 16305.2 L 11544.5 16146.8 Z M 11725.3 16146.8 L 11725.3 16305.2 L 11859.5 16305.2 L 11859.5 16146.8 L 11725.3 16146.8 Z M 12200.7 16981.9 C 12208.1 16929.7 12210 16875.6 12210 16784.3 L 12210 16031.2 C 12210 15925 12208.1 15885.8 12200.7 15831.8 L 12403.8 15831.8 C 12396.4 15882.1 12394.5 15919.4 12394.5 16031.2 L 12394.5 16788 C 12394.5 16883.1 12396.4 16935.3 12403.8 16983.8 L 12200.7 16981.9 Z M 12532.5 17106.8 C 12539.9 17047.1 12543.6 16987.5 12543.6 16875.6 L 12543.6 15660.3 C 12543.6 15615.5 12526.9 15604.3 12459.8 15604.3 C 12402 15604.3 12321.8 15609.9 12232.3 15621.1 C 12262.2 15546.5 12273.4 15503.7 12280.8 15423.5 C 12353.5 15421.7 12433.7 15419.8 12480.3 15419.8 C 12681.6 15419.8 12737.5 15466.4 12737.5 15632.3 L 12737.5 16881.2 C 12737.5 16994.9 12741.2 17054.6 12750.6 17106.8 L 12532.5 17106.8 "/>
<path transform="matrix(.00359712,0,0,-.00359712,0,163)" d="M 2674.08 36121.3 L 21981.4 19572.3 L 2674.08 19572.3 " fill="#610b0b" fill-opacity=".3"/>
<path transform="matrix(.00359712,0,0,-.00359712,0,163)" d="M 2674.08 8539.86 L 21981.4 19572.3 L 2674.08 19572.3 " fill="#2e67b5" fill-opacity=".3"/>
</g>
</svg>
