<svg viewBox="0 0 386.172543307 359.440543307" width="386.172543307pt" height="359.440543307pt" xmlns="http://www.w3.org/2000/svg" xmlns:xlink="http://www.w3.org/1999/xlink" xmlns:h5="http://www.w3.org/1999/xhtml"><g transform="translate(1.417322835 1.417322835)"><path fill="none" stroke="#000000" stroke-width="1" stroke-linecap="butt" stroke-linejoin="miter" stroke-miterlimit="4" transform="translate(32.519 18.481)" d="M 0 0m 0 319.643897638v -310.386994651"/><path fill="none" stroke="#000000" stroke-width="1" stroke-linecap="butt" stroke-linejoin="miter" stroke-miterlimit="4" stroke-dashoffset="0" stroke-dasharray="" transform="translate(30.393015748 -286.236731659)" d="M 0 0m 0 319.643897638l 2.125984252 -5.669291339l 2.125984252 5.669291339"/><path fill="none" stroke="#000000" stroke-width="1" stroke-linecap="butt" stroke-linejoin="miter" stroke-miterlimit="4" transform="translate(32.519 18.481)" d="M 0 0m 0 319.643897638h 310.386994651"/><path fill="none" stroke="#000000" stroke-width="1" stroke-linecap="butt" stroke-linejoin="miter" stroke-miterlimit="4" stroke-dashoffset="0" stroke-dasharray="" transform="translate(337.236731659 20.606984252)" d="M 0 0m 0 315.391929134l 5.669291339 2.125984252l -5.669291339 2.125984252"/><path fill="none" transform="translate(344.330023622 22.9305)" d="M 0 0m 0 310.744897638h 39.007874016v 8.899h -39.007874016v -8.899Z "/><g transform="translate(344.330023496 333.675397559)"><g transform="matrix(1 0 0 -1 8.503937008 8.019)"><use xlink:href="#gD76D9EA1D9A132CF9F593BFE57067EF1" x="0" y="0" fill="#000000" fill-rule="nonzero"/><use xlink:href="#g258A45EB461773E387C8EE3EC824C66E" x="11" y="0" fill="#000000" fill-rule="nonzero"/></g></g><path fill="none" transform="translate(21.519 -293.330023622)" d="M 0 0m 0 293.330023622h 22v 26.313874016h -22v -26.313874016Z "/><g transform="translate(21.518999874 -1.42e-7)"><g transform="matrix(1 0 0 -1 0 16.522937008)"><use xlink:href="#g58A8CC3D308B162368E6E83C798359F2" x="0" y="0" fill="#000000" fill-rule="nonzero"/><use xlink:href="#g6065AD0434732CCB0B5213B85C64800F" x="11" y="0" fill="#000000" fill-rule="nonzero"/></g></g><path fill="none" stroke="#2e67b5" stroke-width="2" stroke-linecap="butt" stroke-linejoin="miter" stroke-miterlimit="4" transform="translate(32.519 -29.707976378)" d="M 0 0m 0 319.643897638h 56.692913386v -5.669291339h 56.692913386v -48.188976378h 56.692913386v -79.37007874h 56.692913386v -73.700787402h 56.692913386"/><path fill="none" transform="translate(315.983566929 -229.956610236)" d="M 0 0m 0 306.282897638h 48v 13.361h -48v -13.361Z "/><g transform="translate(315.983566835 76.326287386)"><g transform="matrix(1 0 0 -1 2 10.019)"><use xlink:href="#gF3CB7B66CA524D21D42D7BFE08AFB895" x="0" y="0" fill="#2e67b5" fill-rule="nonzero"/><use xlink:href="#g2898D4186797309EC01DBD51688DE80A" x="11" y="0" fill="#2e67b5" fill-rule="nonzero"/><use xlink:href="#gF161F043EC35B6642B74098AD38310B1" x="22" y="0" fill="#2e67b5" fill-rule="nonzero"/><use xlink:href="#g7FE7B80F12BB41E33327478BBF1B7A20" x="33" y="0" fill="#2e67b5" fill-rule="nonzero"/></g></g><path fill="none" stroke="#000000" stroke-width="1" stroke-linecap="butt" stroke-linejoin="miter" stroke-miterlimit="4" stroke-dashoffset="0" stroke-dasharray="1 2" transform="translate(89.211913386 18.481)" d="M 0 0m 0 271.45492126v 48.188976378"/><path fill="none" stroke="#000000" stroke-width="1" stroke-linecap="butt" stroke-linejoin="miter" stroke-miterlimit="4" stroke-dashoffset="0" stroke-dasharray="1 2" transform="translate(32.519 -29.707976378)" d="M 0 0m 56.692913386 319.643897638h -56.692913386"/><path fill="none" transform="translate(6.116 -25.615976378)" d="M 0 0m 0 311.459897638h 26.403v 8.184h -26.403v -8.184Z "/><g transform="translate(6.115999953 285.843921165)"><g transform="matrix(1 0 0 -1 4 8.019)"><use xlink:href="#g8A0D31807D8EF3903744421E7142FA96" x="0" y="0" fill="#000000" fill-rule="nonzero"/><use xlink:href="#g90D12CA7ACAB4A5DC828389506E1C2B6" x="6.138" y="0" fill="#000000" fill-rule="nonzero"/><use xlink:href="#g2C11D370D73543298B6E2A91975BE329" x="12.276" y="0" fill="#000000" fill-rule="nonzero"/></g></g><path fill="none" transform="translate(81.621413386 36.511)" d="M 0 0m 0 301.613897638h 15.181v 18.03h -15.181v -18.03Z "/><g transform="translate(81.621413307 338.124897543)"><g transform="matrix(1 0 0 -1 5 13.019)"><use xlink:href="#gAAD3DB6919C98E87B45A46C1A96360DB" x="0" y="0" fill="#000000" fill-rule="nonzero"/></g></g><path fill="none" stroke="#000000" stroke-width="1" stroke-linecap="butt" stroke-linejoin="miter" stroke-miterlimit="4" stroke-dashoffset="0" stroke-dasharray="1 2" transform="translate(145.904826772 18.481)" d="M 0 0m 0 265.785629921v 53.858267717"/><path fill="none" stroke="#000000" stroke-width="1" stroke-linecap="butt" stroke-linejoin="miter" stroke-miterlimit="4" stroke-dashoffset="0" stroke-dasharray="1 2" transform="translate(32.519 -35.377267717)" d="M 0 0m 113.385826772 319.643897638h -113.385826772"/><path fill="none" transform="translate(6.072 -31.279767717)" d="M 0 0m 0 311.448897638h 26.447v 8.195h -26.447v -8.195Z "/><g transform="translate(6.071999984 280.169129906)"><g transform="matrix(1 0 0 -1 4 8.019)"><use xlink:href="#g9F7407ADE2F259DA1865F692A5B57891" x="0" y="0" fill="#000000" fill-rule="nonzero"/><use xlink:href="#g90D12CA7ACAB4A5DC828389506E1C2B6" x="6.182" y="0" fill="#000000" fill-rule="nonzero"/><use xlink:href="#g2C11D370D73543298B6E2A91975BE329" x="12.32" y="0" fill="#000000" fill-rule="nonzero"/></g></g><path fill="none" transform="translate(137.835826772 36.5)" d="M 0 0m 0 301.624897638h 16.138v 18.019h -16.138v -18.019Z "/><g transform="translate(137.83582674 338.124897606)"><g transform="matrix(1 0 0 -1 5 13.019)"><use xlink:href="#gAFABDC25F7B01C1BA193B0B92AA67F18" x="0" y="0" fill="#000000" fill-rule="nonzero"/></g></g><path fill="none" stroke="#000000" stroke-width="1" stroke-linecap="butt" stroke-linejoin="miter" stroke-miterlimit="4" stroke-dashoffset="0" stroke-dasharray="1 2" transform="translate(202.597740157 18.481)" d="M 0 0m 0 217.596653543v 102.047244094"/><path fill="none" stroke="#000000" stroke-width="1" stroke-linecap="butt" stroke-linejoin="miter" stroke-miterlimit="4" stroke-dashoffset="0" stroke-dasharray="1 2" transform="translate(32.519 -83.566244094)" d="M 0 0m 170.078740157 319.643897638h -170.078740157"/><path fill="none" transform="translate(0.946 -79.474244094)" d="M 0 0m 0 311.459897638h 31.573v 8.184h -31.573v -8.184Z "/><g transform="translate(0.945999969 231.985653449)"><g transform="matrix(1 0 0 -1 4 8.019)"><use xlink:href="#gAAD3DB6919C98E87B45A46C1A96360DB" x="0" y="0" fill="#000000" fill-rule="nonzero"/><use xlink:href="#g8A0D31807D8EF3903744421E7142FA96" x="5.181" y="0" fill="#000000" fill-rule="nonzero"/><use xlink:href="#g2C11D370D73543298B6E2A91975BE329" x="11.319" y="0" fill="#000000" fill-rule="nonzero"/><use xlink:href="#g2C11D370D73543298B6E2A91975BE329" x="17.446" y="0" fill="#000000" fill-rule="nonzero"/></g></g><path fill="none" transform="translate(194.534240157 36.665)" d="M 0 0m 0 301.459897638h 16.127v 18.184h -16.127v -18.184Z "/><g transform="translate(194.534240047 338.124897512)"><g transform="matrix(1 0 0 -1 5 13.019)"><use xlink:href="#gAC8B39D80EAB9EC3D212F4ABFF35DA34" x="0" y="0" fill="#000000" fill-rule="nonzero"/></g></g><path fill="none" stroke="#000000" stroke-width="1" stroke-linecap="butt" stroke-linejoin="miter" stroke-miterlimit="4" stroke-dashoffset="0" stroke-dasharray="1 2" transform="translate(259.290653543 18.481)" d="M 0 0m 0 138.226574803v 181.417322835"/><path fill="none" stroke="#000000" stroke-width="1" stroke-linecap="butt" stroke-linejoin="miter" stroke-miterlimit="4" stroke-dashoffset="0" stroke-dasharray="1 2" transform="translate(32.519 -162.936322835)" d="M 0 0m 226.771653543 319.643897638h -226.771653543"/><path fill="none" transform="translate(0 -158.844322835)" d="M 0 0m 0 311.459897638h 32.519v 8.184h -32.519v -8.184Z "/><g transform="translate(-6.3e-8 152.615574709)"><g transform="matrix(1 0 0 -1 4 8.019)"><use xlink:href="#gAC8B39D80EAB9EC3D212F4ABFF35DA34" x="0" y="0" fill="#000000" fill-rule="nonzero"/><use xlink:href="#gAFABDC25F7B01C1BA193B0B92AA67F18" x="6.127" y="0" fill="#000000" fill-rule="nonzero"/><use xlink:href="#g2C11D370D73543298B6E2A91975BE329" x="12.265" y="0" fill="#000000" fill-rule="nonzero"/><use xlink:href="#g2C11D370D73543298B6E2A91975BE329" x="18.392" y="0" fill="#000000" fill-rule="nonzero"/></g></g><path fill="none" transform="translate(251.238153543 36.698)" d="M 0 0m 0 301.426897638h 16.105v 18.217h -16.105v -18.217Z "/><g transform="translate(251.238153417 338.124897606)"><g transform="matrix(1 0 0 -1 5 13.019)"><use xlink:href="#g31E96DF3505690A3742484563F8AD404" x="0" y="0" fill="#000000" fill-rule="nonzero"/></g></g><path fill="none" stroke="#000000" stroke-width="1" stroke-linecap="butt" stroke-linejoin="miter" stroke-miterlimit="4" stroke-dashoffset="0" stroke-dasharray="1 2" transform="translate(315.983566929 18.481)" d="M 0 0m 0 64.525787402v 255.118110236"/><path fill="none" stroke="#000000" stroke-width="1" stroke-linecap="butt" stroke-linejoin="miter" stroke-miterlimit="4" stroke-dashoffset="0" stroke-dasharray="1 2" transform="translate(32.519 -236.637110236)" d="M 0 0m 283.464566929 319.643897638h -283.464566929"/><path fill="none" transform="translate(0.022 -232.528610236)" d="M 0 0m 0 311.426897638h 32.497v 8.217h -32.497v -8.217Z "/><g transform="translate(0.021999921 78.898287402)"><g transform="matrix(1 0 0 -1 4 8.019)"><use xlink:href="#g31E96DF3505690A3742484563F8AD404" x="0" y="0" fill="#000000" fill-rule="nonzero"/><use xlink:href="#g90D12CA7ACAB4A5DC828389506E1C2B6" x="6.105" y="0" fill="#000000" fill-rule="nonzero"/><use xlink:href="#g2C11D370D73543298B6E2A91975BE329" x="12.243" y="0" fill="#000000" fill-rule="nonzero"/><use xlink:href="#g2C11D370D73543298B6E2A91975BE329" x="18.37" y="0" fill="#000000" fill-rule="nonzero"/></g></g><path fill="none" transform="translate(307.914566929 36.665)" d="M 0 0m 0 301.459897638h 16.138v 18.184h -16.138v -18.184Z "/><g transform="translate(307.914566898 338.124897512)"><g transform="matrix(1 0 0 -1 5 13.019)"><use xlink:href="#g90D12CA7ACAB4A5DC828389506E1C2B6" x="0" y="0" fill="#000000" fill-rule="nonzero"/></g></g><path fill="none" transform="translate(50.365456693 36.5)" d="M 0 0m 0 301.624897638h 21v 18.019h -21v -18.019Z "/><g transform="translate(50.365456598 338.124897606)"><g transform="matrix(1 0 0 -1 5 13.019)"><use xlink:href="#g23B687AC19436C1B1223E3027EA1F01" x="0" y="0" fill="#000000" fill-rule="nonzero"/></g></g><path fill="none" transform="translate(107.058370079 36.885)" d="M 0 0m 0 301.239897638h 21v 18.404h -21v -18.404Z "/><g transform="translate(107.058369984 338.124897528)"><g transform="matrix(1 0 0 -1 5 13.019)"><use xlink:href="#g66CBE624F069E3E23C7A17E49254BEF2" x="0" y="0" fill="#000000" fill-rule="nonzero"/></g></g><path fill="none" transform="translate(163.751283465 36.5)" d="M 0 0m 0 301.624897638h 21v 18.019h -21v -18.019Z "/><g transform="translate(163.75128337 338.124897606)"><g transform="matrix(1 0 0 -1 5 13.019)"><use xlink:href="#g76709244630F10DCC1AB28B58C2481AC" x="0" y="0" fill="#000000" fill-rule="nonzero"/></g></g><path fill="none" transform="translate(220.44419685 36.962)" d="M 0 0m 0 301.162897638h 21v 18.481h -21v -18.481Z "/><g transform="translate(220.444196756 338.124897512)"><g transform="matrix(1 0 0 -1 5 13.019)"><use xlink:href="#g300C2DFF64D5DD8CF0416937AF95388" x="0" y="0" fill="#000000" fill-rule="nonzero"/></g></g><path fill="none" transform="translate(277.137110236 36.951)" d="M 0 0m 0 301.173897638h 21v 18.47h -21v -18.47Z "/><g transform="translate(277.137110142 338.124897575)"><g transform="matrix(1 0 0 -1 5 13.019)"><use xlink:href="#g60AFC265F3F4F473CBC3A4AD6D04C161" x="0" y="0" fill="#000000" fill-rule="nonzero"/></g></g></g><defs><symbol id="gD76D9EA1D9A132CF9F593BFE57067EF1" overflow="visible"><path d="M 0 0m 1.034 8.91l -0.121 -0.077c 0.308 -0.363 0.682 -0.957 0.726 -1.43c 0.616 -0.506 1.221 0.781 -0.605 1.507Z m 3.586 0.055c -0.22 -0.583 -0.506 -1.221 -0.715 -1.606l 0.165 -0.099c 0.352 0.275 0.77 0.715 1.1 1.111c 0.22 -0.011 0.352 0.055 0.407 0.165Z m -1.815 0.253v -2.123h -2.288l 0.088 -0.319h 1.87c -0.484 -0.891 -1.21 -1.716 -2.101 -2.343l 0.11 -0.176c 0.935 0.462 1.727 1.056 2.321 1.771v -1.507h 0.132c 0.253 0 0.55 0.154 0.55 0.242v 1.595c 0.528 -0.385 1.155 -0.968 1.386 -1.441c 0.748 -0.396 1.111 1.045 -1.386 1.639v 0.22h 2.299c 0.154 0 0.253 0.055 0.286 0.165c -0.33 0.319 -0.858 0.748 -0.858 0.748l -0.462 -0.594h -1.265v 1.716c 0.264 0.044 0.374 0.143 0.407 0.297Z m -0.253 -4.763c -0.088 -0.264 -0.231 -0.638 -0.418 -1.045h -1.727l 0.077 -0.319h 1.507c -0.33 -0.726 -0.726 -1.507 -1.023 -1.947c 0.264 -0.132 0.561 -0.154 0.726 -0.077l 0.319 0.583c 0.44 -0.187 0.836 -0.385 1.177 -0.605c -0.583 -0.726 -1.452 -1.298 -2.662 -1.76l 0.077 -0.165c 1.353 0.363 2.365 0.869 3.091 1.595c 0.385 -0.286 0.671 -0.561 0.847 -0.781c 0.616 -0.253 0.946 0.649 -0.374 1.331c 0.363 0.517 0.627 1.122 0.792 1.826h 1.001c 0.143 0 0.253 0.055 0.275 0.176c -0.341 0.319 -0.902 0.759 -0.902 0.759l -0.495 -0.616h -1.947l 0.264 0.594c 0.275 0.011 0.396 0.099 0.44 0.242Z m 0.187 -1.364h 1.375c -0.11 -0.583 -0.308 -1.1 -0.583 -1.562c -0.385 0.132 -0.847 0.242 -1.408 0.319Z m 4.235 6.105c -0.242 -1.892 -0.814 -3.773 -1.507 -5.06l 0.165 -0.099c 0.363 0.418 0.693 0.924 0.979 1.485c 0.198 -1.243 0.506 -2.398 0.968 -3.421c -0.704 -1.122 -1.738 -2.046 -3.256 -2.805l 0.088 -0.154c 1.573 0.594 2.684 1.375 3.487 2.343c 0.506 -0.924 1.188 -1.716 2.09 -2.343c 0.11 0.33 0.363 0.495 0.682 0.539l 0.033 0.11c -1.023 0.55 -1.815 1.309 -2.42 2.222c 0.792 1.199 1.188 2.651 1.397 4.389h 0.748c 0.154 0 0.253 0.055 0.286 0.176c -0.363 0.341 -0.957 0.803 -0.957 0.803l -0.506 -0.649h -2.101c 0.242 0.616 0.44 1.265 0.605 1.947c 0.231 0.011 0.352 0.11 0.396 0.253Z m 0.924 -6.534c -0.517 0.968 -0.858 2.057 -1.1 3.245l 0.22 0.495h 1.837c -0.121 -1.419 -0.407 -2.651 -0.957 -3.74Z "/></symbol><symbol id="g258A45EB461773E387C8EE3EC824C66E" overflow="visible"><path d="M 0 0m 0.572 5.401l 0.099 -0.319h 9.46c 0.154 0 0.264 0.055 0.286 0.176c -0.352 0.319 -0.924 0.759 -0.924 0.759l -0.506 -0.616Z m 7.282 1.815v -0.781h -4.774v 0.781Z m 0 0.33h -4.774v 0.748h 4.774Z m -5.489 1.067v -2.981h 0.11c 0.286 0 0.605 0.165 0.605 0.231v 0.253h 4.774v -0.418h 0.11c 0.231 0 0.594 0.165 0.605 0.231v 2.233c 0.22 0.044 0.396 0.132 0.473 0.209l -0.891 0.693l -0.407 -0.451h -4.598l -0.781 0.352Z m 5.643 -5.709v -0.836h -2.189v 0.836Z m 0 0.33h -2.189v 0.803h 2.189Z m -5.027 -0.33h 2.134v -0.836h -2.134Z m 0 0.33v 0.803h 2.134v -0.803Z m -1.595 -2.31l 0.099 -0.319h 3.63v -0.902h -4.554l 0.099 -0.319h 9.526c 0.165 0 0.275 0.055 0.297 0.176c -0.385 0.341 -0.979 0.814 -0.979 0.814l -0.528 -0.671h -3.157v 0.902h 3.652c 0.143 0 0.253 0.055 0.286 0.176c -0.341 0.319 -0.891 0.737 -0.891 0.737l -0.484 -0.594h -2.563v 0.825h 2.189v -0.319h 0.11c 0.231 0 0.594 0.165 0.616 0.231v 2.233c 0.22 0.044 0.407 0.132 0.473 0.22l -0.913 0.704l -0.396 -0.451h -4.851l -0.781 0.352v -3.487h 0.11c 0.286 0 0.605 0.165 0.605 0.231v 0.286h 2.134v -0.825Z "/></symbol><symbol id="g58A8CC3D308B162368E6E83C798359F2" overflow="visible"><path d="M 0 0m 4.246 0.847c -0.748 -0.539 -2.255 -1.21 -3.608 -1.54l 0.055 -0.187c 1.452 0.165 3.036 0.583 3.971 1.012c 0.275 -0.066 0.451 -0.044 0.528 0.055Z m 1.936 -0.231l -0.044 -0.176c 1.408 -0.319 2.475 -0.759 3.102 -1.177c 0.869 -0.55 2.189 1.056 -3.058 1.353Z m -2.156 8.613v -0.869h -2.926l 0.099 -0.319h 2.827v -0.132c 0 -0.198 -0.011 -0.396 -0.044 -0.594h -1.573l -0.737 0.33c -0.099 -0.528 -0.319 -1.441 -0.506 -2.123c 0.352 -0.077 0.528 -0.055 0.704 0.022l 0.099 0.407h 1.474c -0.484 -0.66 -1.364 -1.243 -2.871 -1.672l 0.077 -0.187c 0.671 0.143 1.232 0.319 1.705 0.528v -4.114h 0.121c 0.286 0 0.594 0.165 0.594 0.242v 0.33h 4.895v -0.418h 0.11c 0.242 0 0.605 0.165 0.616 0.242v 3.41c 0.187 0.033 0.352 0.121 0.418 0.198l -0.847 0.649l -0.396 -0.418h -4.73l -0.264 0.121c 0.594 0.319 1.001 0.693 1.287 1.089h 2.079v -0.99h 0.132c 0.275 0 0.572 0.143 0.572 0.242v 0.748h 2.42c -0.033 -0.22 -0.077 -0.352 -0.132 -0.407c -0.055 -0.033 -0.132 -0.044 -0.264 -0.044c -0.187 0 -0.715 0.044 -1.023 0.055v -0.176c 0.286 -0.033 0.572 -0.099 0.682 -0.187c 0.121 -0.088 0.154 -0.198 0.154 -0.352c 0.319 0 0.627 0.022 0.836 0.143c 0.286 0.165 0.363 0.418 0.418 0.902c 0.198 0.033 0.33 0.077 0.396 0.165l -0.77 0.605l -0.374 -0.385h -2.343v 0.726h 1.738v -0.341h 0.11c 0.231 0 0.572 0.154 0.583 0.231v 1.045c 0.187 0.033 0.352 0.121 0.418 0.198l -0.836 0.627l -0.374 -0.396h -1.639v 0.451c 0.275 0.044 0.385 0.154 0.407 0.297l -1.111 0.121v -0.869h -1.518v 0.495c 0.253 0.033 0.341 0.143 0.363 0.275Z m 4.653 -1.914h -1.738v 0.726h 1.738Z m -2.442 -0.319v -0.726h -1.881c 0.121 0.231 0.209 0.484 0.264 0.726Z m 0 0.319h -1.562c 0.022 0.187 0.044 0.385 0.044 0.572v 0.154h 1.518Z m -4.048 -0.319h 1.738c -0.055 -0.253 -0.143 -0.495 -0.275 -0.726h -1.617Z m 5.775 -3.674v -0.792h -4.895v 0.792Z m 0 0.319h -4.895v 0.781h 4.895Z m 0 -1.441v -0.803h -4.895v 0.803Z "/></symbol><symbol id="g6065AD0434732CCB0B5213B85C64800F" overflow="visible"><path d="M 0 0m 2.574 5.533h 2.618v -2.31h -2.706c 0.077 0.638 0.088 1.265 0.088 1.859Z m 0 0.319v 2.255h 2.618v -2.255Z m -0.726 2.574v -3.355c 0 -2.101 -0.154 -4.169 -1.43 -5.808l 0.165 -0.11c 1.177 1.034 1.672 2.376 1.859 3.74h 2.75v -3.652h 0.11c 0.363 0 0.605 0.176 0.605 0.231v 3.421h 2.838v -2.574c 0 -0.176 -0.066 -0.253 -0.286 -0.253c -0.231 0 -1.408 0.099 -1.408 0.099v -0.176c 0.517 -0.077 0.803 -0.165 0.979 -0.275c 0.154 -0.121 0.22 -0.319 0.242 -0.539c 1.067 0.11 1.188 0.484 1.188 1.056v 7.7c 0.242 0.055 0.44 0.154 0.517 0.253l -0.968 0.737l -0.385 -0.495h -5.918l -0.858 0.374Z m 6.897 -2.893v -2.31h -2.838v 2.31Z m 0 0.319h -2.838v 2.255h 2.838Z "/></symbol><symbol id="gF3CB7B66CA524D21D42D7BFE08AFB895" overflow="visible"><path d="M 0 0m 5.412 2.354c -0.451 -1.001 -1.419 -2.288 -2.497 -3.08l 0.11 -0.143c 1.309 0.627 2.464 1.683 3.069 2.574c 0.253 -0.044 0.352 0.011 0.418 0.121Z m 2.101 -0.143l -0.121 -0.099c 0.847 -0.715 1.958 -1.936 2.31 -2.86c 0.946 -0.594 1.386 1.463 -2.189 2.959Z m 0.209 6.897v -2.618h -2.134v 2.189c 0.264 0.044 0.374 0.154 0.396 0.308l -1.111 0.121v -2.618h -1.551l 0.088 -0.319h 1.463v -2.926h -1.815l 0.088 -0.33h 7.282c 0.154 0 0.264 0.055 0.286 0.176c -0.341 0.33 -0.924 0.803 -0.924 0.803l -0.506 -0.649h -0.836v 2.926h 1.749c 0.154 0 0.264 0.044 0.286 0.165c -0.352 0.341 -0.913 0.792 -0.913 0.792l -0.517 -0.638h -0.605v 2.178c 0.264 0.044 0.363 0.154 0.396 0.308Z m -2.134 -2.937h 2.134v -2.926h -2.134Z m -2.717 3.047c -0.572 -2.134 -1.573 -4.301 -2.519 -5.665l 0.154 -0.11c 0.495 0.506 0.979 1.111 1.419 1.804v -6.105h 0.132c 0.275 0 0.572 0.176 0.594 0.253v 6.325c 0.176 0.022 0.286 0.088 0.33 0.198l -0.539 0.198c 0.44 0.781 0.825 1.639 1.144 2.519c 0.253 -0.011 0.385 0.088 0.429 0.22Z "/></symbol><symbol id="g2898D4186797309EC01DBD51688DE80A" overflow="visible"><path d="M 0 0m 3.52 3.036l -0.154 -0.055c 0.275 -0.55 0.605 -1.419 0.627 -2.068c 0.627 -0.594 1.309 0.77 -0.473 2.123Z m -2.453 -0.066c -0.132 -1.034 -0.407 -2.112 -0.737 -2.86l 0.176 -0.088c 0.495 0.616 0.891 1.551 1.155 2.475c 0.231 -0.011 0.33 0.088 0.374 0.22Z m 4.532 2.332l 0.088 -0.33h 3.432c 0.154 0 0.264 0.055 0.286 0.176c -0.33 0.33 -0.858 0.748 -0.858 0.748l -0.462 -0.594Z m 2.068 3.333c 0.462 -1.441 1.441 -2.761 2.519 -3.641c 0.066 0.253 0.286 0.451 0.55 0.517l 0.022 0.132c -1.199 0.726 -2.332 1.87 -2.926 3.124c 0.231 0.022 0.341 0.066 0.374 0.187l -1.122 0.242c -0.352 -1.364 -1.683 -3.322 -2.827 -4.312l 0.11 -0.154c 1.32 0.913 2.651 2.431 3.3 3.905Z m -7.062 -1.21l -0.11 -0.088c 0.451 -0.363 0.968 -0.99 1.1 -1.485c 0.539 -0.374 0.957 0.429 0.077 1.089c 0.462 0.462 0.979 1.078 1.408 1.672c 0.22 -0.033 0.352 0.055 0.407 0.176l -1.034 0.44c -0.308 -0.737 -0.693 -1.551 -1.023 -2.134c -0.209 0.121 -0.484 0.242 -0.825 0.33Z m 2.695 -1.936l -0.132 -0.066c 0.176 -0.253 0.385 -0.583 0.55 -0.913l -1.881 -0.099c 0.836 0.891 1.749 2.013 2.299 2.816c 0.231 -0.055 0.396 0.022 0.451 0.143l -1.001 0.451c -0.528 -1.001 -1.386 -2.398 -2.101 -3.421l -1.056 -0.033l 0.33 -0.836c 0.11 0.022 0.209 0.099 0.275 0.231l 1.243 0.22v -4.84h 0.11c 0.341 0 0.572 0.176 0.572 0.231v 4.73l 0.858 0.165c 0.11 -0.231 0.176 -0.473 0.209 -0.682c 0.649 -0.55 1.287 0.836 -0.726 1.903Z m 1.936 -1.969v -4.356h 0.11c 0.352 0 0.583 0.154 0.583 0.22v 0.583h 3.069v -0.715h 0.11c 0.33 0 0.605 0.176 0.605 0.22v 3.685c 0.22 0.033 0.341 0.099 0.407 0.176l -0.803 0.627l -0.363 -0.44h -2.904l -0.814 0.352Z m 0.693 -3.223v 2.904h 3.069v -2.904Z "/></symbol><symbol id="gF161F043EC35B6642B74098AD38310B1" overflow="visible"><path d="M 0 0m 3.762 6.369v -2.772h -1.903v 2.772Z m -2.618 0.319v -7.524h 0.121c 0.33 0 0.594 0.176 0.594 0.264v 0.572h 7.172v -0.781h 0.099c 0.264 0 0.605 0.187 0.627 0.275v 6.732c 0.209 0.044 0.396 0.132 0.462 0.231l -0.891 0.693l -0.407 -0.462h -1.848v 2.002c 0.264 0.044 0.363 0.154 0.396 0.308l -1.111 0.121v -2.431h -1.892v 2.002c 0.264 0.044 0.363 0.154 0.396 0.308l -1.1 0.121v -2.431h -1.826l -0.792 0.374Z m 3.322 -0.319h 1.892v -2.772h -1.892Z m -0.704 -6.039h -1.903v 2.948h 1.903Z m 0.704 0v 2.948h 1.892v -2.948Z m 2.607 6.039h 1.958v -2.772h -1.958Z m 0 -6.039v 2.948h 1.958v -2.948Z "/></symbol><symbol id="g7FE7B80F12BB41E33327478BBF1B7A20" overflow="visible"><path d="M 0 0m 3.399 3.08l -0.132 -0.044c 0.253 -0.517 0.539 -1.32 0.539 -1.925c 0.594 -0.594 1.309 0.748 -0.407 1.969Z m -2.321 -0.099c -0.11 -1.023 -0.352 -2.101 -0.649 -2.86l 0.187 -0.088c 0.462 0.627 0.825 1.573 1.078 2.475c 0.22 0.011 0.33 0.099 0.374 0.231Z m 4.598 3.102h 3.41v -1.254h -3.41Z m 0 0.319v 1.232h 3.41v -1.232Z m 4.059 -2.343c -0.242 -0.407 -0.737 -1.111 -1.166 -1.606c -0.352 0.55 -0.627 1.221 -0.803 2.068h 1.32v -0.429h 0.11c 0.33 0 0.594 0.165 0.594 0.22v 3.278c 0.22 0.033 0.341 0.088 0.407 0.176l -0.792 0.616l -0.352 -0.429h -2.09c 0.209 0.253 0.462 0.572 0.627 0.803c 0.242 0 0.363 0.088 0.407 0.253l -1.155 0.209c -0.066 -0.352 -0.187 -0.891 -0.275 -1.265h -0.77l -0.814 0.352v -4.29h 0.11c 0.352 0 0.583 0.143 0.583 0.209v 0.297h 1.32v -4.29c 0 -0.143 -0.055 -0.198 -0.231 -0.198c -0.209 0 -1.221 0.077 -1.221 0.077v -0.165c 0.473 -0.066 0.726 -0.154 0.869 -0.264c 0.132 -0.121 0.187 -0.319 0.198 -0.528c 0.935 0.11 1.056 0.517 1.056 1.067v 3.982c 0.407 -2.365 1.254 -3.531 2.497 -4.455c 0.11 0.341 0.319 0.572 0.594 0.627l 0.022 0.121c -0.781 0.396 -1.518 0.924 -2.101 1.771c 0.572 0.352 1.188 0.781 1.518 1.067c 0.198 -0.066 0.374 -0.011 0.418 0.077Z m -5.445 -0.836l 0.099 -0.33h 1.43c -0.297 -1.166 -0.935 -2.288 -1.969 -3.036l 0.11 -0.165c 1.408 0.726 2.189 1.914 2.574 3.157c 0.242 0.011 0.341 0.033 0.429 0.132l -0.748 0.638l -0.429 -0.396Z m -1.089 2.332l -0.132 -0.055c 0.176 -0.264 0.374 -0.616 0.528 -0.979l -1.782 -0.077c 0.792 0.924 1.639 2.079 2.134 2.882c 0.231 -0.033 0.385 0.044 0.44 0.154l -1.023 0.473c -0.473 -1.023 -1.232 -2.453 -1.87 -3.52l -1.034 -0.022l 0.319 -0.836c 0.11 0.022 0.209 0.077 0.275 0.22l 1.177 0.198v -4.851h 0.099c 0.341 0 0.583 0.176 0.583 0.231v 4.752l 0.77 0.154c 0.077 -0.209 0.121 -0.418 0.143 -0.605c 0.627 -0.572 1.298 0.803 -0.627 1.881Z m -2.673 1.881l -0.121 -0.099c 0.418 -0.352 0.88 -0.957 1.001 -1.452c 0.528 -0.363 0.957 0.407 0.176 1.056c 0.407 0.473 0.847 1.122 1.21 1.683c 0.22 -0.011 0.363 0.077 0.407 0.209l -1.078 0.396c -0.242 -0.715 -0.528 -1.54 -0.781 -2.123c -0.209 0.121 -0.484 0.242 -0.814 0.33Z "/></symbol><symbol id="g8A0D31807D8EF3903744421E7142FA96" overflow="visible"><path d="M 0 0m 3.014 -0.165c 1.518 0 2.519 0.825 2.519 2.101c 0 1.023 -0.561 1.727 -1.936 2.365c 1.188 0.561 1.606 1.287 1.606 2.035c 0 1.056 -0.77 1.837 -2.112 1.837c -1.243 0 -2.233 -0.77 -2.233 -1.98c 0 -0.935 0.473 -1.716 1.606 -2.266c -1.21 -0.528 -1.837 -1.199 -1.837 -2.167c 0 -1.155 0.847 -1.925 2.387 -1.925Z m 0.33 4.587c -1.32 0.583 -1.672 1.254 -1.672 1.991c 0 0.88 0.66 1.408 1.408 1.408c 0.88 0 1.353 -0.671 1.353 -1.463c 0 -0.836 -0.319 -1.408 -1.089 -1.936Z m -0.616 -0.616c 1.496 -0.66 1.947 -1.309 1.947 -2.112c 0 -0.913 -0.594 -1.518 -1.617 -1.518c -1.023 0 -1.628 0.638 -1.628 1.683c 0 0.836 0.374 1.386 1.298 1.947Z "/></symbol><symbol id="g90D12CA7ACAB4A5DC828389506E1C2B6" overflow="visible"><path d="M 0 0m 2.706 -0.165c 1.716 0 2.816 1.023 2.816 2.585c 0 1.562 -1.012 2.398 -2.585 2.398c -0.495 0 -0.946 -0.066 -1.386 -0.253l 0.176 2.673h 3.586v 0.77h -3.938l -0.253 -3.784l 0.275 -0.11c 0.385 0.176 0.814 0.264 1.287 0.264c 1.133 0 1.87 -0.638 1.87 -2.002c 0 -1.408 -0.715 -2.2 -1.98 -2.2c -0.352 0 -0.605 0.055 -0.858 0.165l -0.264 0.847c -0.088 0.396 -0.231 0.539 -0.506 0.539c -0.209 0 -0.385 -0.11 -0.462 -0.319c 0.198 -1.012 1.034 -1.573 2.222 -1.573Z "/></symbol><symbol id="g2C11D370D73543298B6E2A91975BE329" overflow="visible"><path d="M 0 0m 3.058 -0.165c 1.32 0 2.541 1.199 2.541 4.191c 0 2.948 -1.221 4.147 -2.541 4.147c -1.32 0 -2.541 -1.199 -2.541 -4.147c 0 -2.992 1.221 -4.191 2.541 -4.191Z m 0 0.341c -0.825 0 -1.628 0.924 -1.628 3.85c 0 2.882 0.803 3.795 1.628 3.795c 0.814 0 1.628 -0.913 1.628 -3.795c 0 -2.926 -0.814 -3.85 -1.628 -3.85Z "/></symbol><symbol id="gAAD3DB6919C98E87B45A46C1A96360DB" overflow="visible"><path d="M 0 0m 0.825 0l 3.872 -0.011v 0.308l -1.419 0.165l -0.022 2.068v 3.729l 0.044 1.738l -0.165 0.121l -2.365 -0.605v -0.33l 1.584 0.264v -4.917l -0.022 -2.068l -1.507 -0.154Z "/></symbol><symbol id="g9F7407ADE2F259DA1865F692A5B57891" overflow="visible"><path d="M 0 0m 1.155 -0.176c 2.882 0.737 4.411 2.717 4.411 5.115c 0 2.013 -0.99 3.234 -2.519 3.234c -1.397 0 -2.464 -0.968 -2.464 -2.541c 0 -1.496 0.979 -2.42 2.321 -2.42c 0.682 0 1.243 0.242 1.639 0.66c -0.308 -1.749 -1.441 -3.047 -3.465 -3.762Z m 3.454 4.444c -0.396 -0.418 -0.858 -0.627 -1.386 -0.627c -1.001 0 -1.727 0.77 -1.727 2.079c 0 1.386 0.704 2.112 1.54 2.112c 0.913 0 1.606 -0.935 1.606 -2.86c 0 -0.242 -0.011 -0.484 -0.033 -0.704Z "/></symbol><symbol id="gAFABDC25F7B01C1BA193B0B92AA67F18" overflow="visible"><path d="M 0 0m 0.704 0h 4.917v 0.77h -4.312c 0.671 0.737 1.32 1.452 1.639 1.782c 1.672 1.716 2.343 2.519 2.343 3.531c 0 1.298 -0.759 2.09 -2.233 2.09c -1.122 0 -2.178 -0.572 -2.354 -1.694c 0.066 -0.22 0.242 -0.341 0.451 -0.341c 0.253 0 0.429 0.143 0.539 0.572l 0.264 0.957c 0.286 0.121 0.561 0.165 0.836 0.165c 0.979 0 1.562 -0.627 1.562 -1.727c 0 -0.968 -0.484 -1.738 -1.65 -3.146c -0.539 -0.638 -1.276 -1.507 -2.002 -2.365Z "/></symbol><symbol id="gAC8B39D80EAB9EC3D212F4ABFF35DA34" overflow="visible"><path d="M 0 0m 2.816 -0.165c 1.54 0 2.607 0.88 2.607 2.233c 0 1.155 -0.649 1.958 -2.068 2.156c 1.221 0.275 1.837 1.078 1.837 2.013c 0 1.155 -0.814 1.936 -2.222 1.936c -1.045 0 -2.024 -0.44 -2.211 -1.529c 0.066 -0.187 0.231 -0.275 0.418 -0.275c 0.275 0 0.44 0.121 0.539 0.495l 0.253 0.847c 0.275 0.088 0.528 0.121 0.792 0.121c 0.957 0 1.496 -0.605 1.496 -1.628c 0 -1.177 -0.759 -1.815 -1.826 -1.815h -0.44v -0.385h 0.495c 1.32 0 2.002 -0.693 2.002 -1.903c 0 -1.166 -0.704 -1.925 -1.925 -1.925c -0.308 0 -0.572 0.055 -0.814 0.143l -0.264 0.858c -0.099 0.407 -0.253 0.561 -0.517 0.561c -0.209 0 -0.374 -0.121 -0.451 -0.341c 0.22 -1.023 1.045 -1.562 2.299 -1.562Z "/></symbol><symbol id="g31E96DF3505690A3742484563F8AD404" overflow="visible"><path d="M 0 0m 3.729 -0.198h 0.825v 2.31h 1.32v 0.638h -1.32v 5.379h -0.616l -3.564 -5.5v -0.517h 3.355Z m -2.882 2.948l 1.54 2.387l 1.342 2.101v -4.488Z "/></symbol><symbol id="g23B687AC19436C1B1223E3027EA1F01" overflow="visible"><path d="M 0 0m 2.167 2.002l -0.198 -0.11c 0.011 -0.187 0.088 -0.44 0.143 -0.561c 0.099 -0.253 0.594 -0.748 0.924 -0.748c 0.187 0 0.44 0.143 0.66 0.176c 0.99 0.165 2.343 0.33 3.3 0.33c 0.572 0 1.155 -0.132 1.386 -0.132c 0.242 0 0.341 0.121 0.341 0.308c 0 0.198 -0.286 0.385 -0.594 0.44c 0.176 1.254 0.451 3.212 0.605 4.147c 0.044 0.308 0.352 0.396 0.352 0.627c 0 0.264 -0.737 0.792 -1.034 0.792c -0.209 0 -0.253 -0.22 -0.616 -0.275c -0.682 -0.088 -3.641 -0.374 -4.246 -0.374c -0.363 0 -0.561 0.352 -0.759 0.616l -0.231 -0.088c 0.011 -0.154 0.044 -0.407 0.088 -0.55c 0.088 -0.253 0.594 -0.781 0.902 -0.781c 0.198 0 0.44 0.176 0.682 0.22c 1.045 0.154 3.212 0.429 4.004 0.429c 0.088 0 0.121 -0.033 0.11 -0.11l -0.198 -1.826c -1.397 -0.077 -3.927 -0.352 -4.312 -0.352c -0.363 0 -0.605 0.319 -0.825 0.55l -0.22 -0.121c 0.022 -0.143 0.088 -0.418 0.165 -0.539c 0.11 -0.264 0.572 -0.66 0.858 -0.66c 0.198 0 0.341 0.143 0.66 0.176c 0.946 0.11 2.376 0.286 3.619 0.374l -0.253 -2.233c -1.221 -0.066 -3.696 -0.341 -4.466 -0.341c -0.396 0 -0.627 0.352 -0.847 0.616Z "/></symbol><symbol id="g66CBE624F069E3E23C7A17E49254BEF2" overflow="visible"><path d="M 0 0m 1.298 5.456l -0.209 -0.099c 0.033 -0.264 0.066 -0.462 0.121 -0.572c 0.176 -0.33 0.682 -0.693 0.968 -0.693c 0.231 0 0.363 0.242 0.759 0.374c 0.231 0.088 1.012 0.33 1.661 0.517c 0.341 -1.232 0.902 -3.586 1.111 -4.697c 0.055 -0.396 0.209 -0.671 0.55 -0.671c 0.253 0 0.385 0.176 0.385 0.44c 0 0.176 -0.143 0.627 -0.253 0.968c -0.22 0.748 -0.781 2.684 -1.166 4.136c 1.056 0.286 2.772 0.781 3.289 0.902c 0.132 0.033 0.187 0.022 0.11 -0.165c -0.297 -0.605 -1.012 -1.628 -1.804 -2.464l 0.22 -0.187c 1.034 0.781 1.881 1.782 2.354 2.332c 0.165 0.187 0.517 0.22 0.517 0.418c 0 0.242 -0.616 0.858 -0.968 0.858c -0.165 0 -0.286 -0.209 -0.528 -0.275c -0.484 -0.154 -2.277 -0.627 -3.311 -0.913c -0.143 0.572 -0.286 1.243 -0.33 1.496c -0.033 0.286 0.066 0.429 0.055 0.627c -0.011 0.22 -0.638 0.473 -1.111 0.473c -0.253 0 -0.528 -0.077 -0.814 -0.165l 0.033 -0.22c 0.517 -0.044 0.77 -0.077 0.902 -0.363c 0.165 -0.341 0.462 -1.386 0.627 -2.013c -1.078 -0.275 -2.277 -0.561 -2.53 -0.55c -0.308 0.011 -0.484 0.297 -0.638 0.506Z "/></symbol><symbol id="g76709244630F10DCC1AB28B58C2481AC" overflow="visible"><path d="M 0 0m 4.697 7.37l 0.022 -0.231c 0.561 -0.055 0.858 -0.154 0.869 -0.429c 0.066 -1.056 0 -4.015 -0.055 -4.642c -0.033 -0.44 -0.154 -0.495 -0.154 -0.704c 0 -0.209 0.44 -0.737 0.682 -0.737c 0.22 0 0.363 0.308 0.616 0.462c 1.507 0.847 3.113 2.134 4.059 3.487l -0.231 0.187c -1.023 -1.111 -2.552 -2.288 -4.147 -2.97c -0.11 -0.033 -0.176 -0.011 -0.176 0.143c 0 0.825 0.088 3.817 0.143 4.323c 0.033 0.341 0.253 0.341 0.253 0.583c 0 0.264 -0.715 0.66 -1.155 0.66c -0.253 0 -0.44 -0.033 -0.726 -0.132Z m -2.156 -1.408c 0.264 -0.066 0.825 -0.198 0.825 -0.539c 0 -1.331 -1.111 -3.619 -2.86 -4.983l 0.187 -0.231c 2.002 1.254 3.025 3.014 3.388 4.697c 0.055 0.275 0.264 0.352 0.264 0.583c 0 0.33 -0.781 0.748 -1.166 0.781c -0.242 0.022 -0.473 -0.033 -0.638 -0.077Z "/></symbol><symbol id="g300C2DFF64D5DD8CF0416937AF95388" overflow="visible"><path d="M 0 0m 6.446 8.206c 0.462 -0.231 0.649 -0.385 0.649 -0.561c 0 -0.088 -0.088 -0.275 -0.297 -0.561c -0.77 -1.089 -2.673 -3.102 -5.456 -4.653l 0.143 -0.264c 1.925 0.792 3.443 2.002 4.125 2.607c 0.121 -0.154 0.154 -0.286 0.165 -0.484c 0.033 -0.495 -0.011 -2.332 -0.099 -3.08c -0.044 -0.363 -0.132 -0.583 -0.132 -0.781c 0 -0.363 0.187 -0.891 0.55 -0.891c 0.231 0 0.33 0.132 0.33 0.539c 0 0.66 -0.055 2.343 0.022 3.938c 0 0.275 0.099 0.429 0.099 0.572c 0 0.154 -0.253 0.341 -0.561 0.539c 0.726 0.693 1.265 1.287 1.672 1.738c 0.297 0.33 0.495 0.308 0.495 0.517c 0 0.286 -0.484 0.77 -0.913 0.913c -0.231 0.099 -0.462 0.11 -0.715 0.121Z "/></symbol><symbol id="g60AFC265F3F4F473CBC3A4AD6D04C161" overflow="visible"><path d="M 0 0m 4.708 5.137c 0.484 -0.165 0.891 -0.33 0.891 -0.66c 0 -0.748 -1.353 -3.366 -3.531 -4.697l 0.176 -0.231c 2.321 1.188 3.465 2.728 4.29 4.972c 0.022 0.066 0.033 0.121 0.033 0.176c 1.001 0.561 1.98 1.265 2.453 1.617c 0.242 0.187 0.682 0.231 0.682 0.484c 0 0.308 -0.781 0.979 -1.078 0.979c -0.187 0 -0.286 -0.154 -0.517 -0.187c -0.638 -0.099 -4.906 -0.561 -5.61 -0.561c -0.319 0 -0.473 0.275 -0.693 0.605l -0.231 -0.066c 0.033 -0.253 0.055 -0.484 0.143 -0.671c 0.165 -0.341 0.671 -0.781 0.946 -0.781c 0.264 0 0.275 0.198 0.704 0.286c 1.232 0.242 4.356 0.682 4.884 0.682c 0.231 0 0.275 -0.044 0.132 -0.253c -0.319 -0.451 -1.21 -1.199 -2.068 -1.804c -0.187 0.143 -0.495 0.253 -0.847 0.308c -0.198 0.044 -0.385 0.044 -0.704 0.044Z "/></symbol></defs></svg>