<?xml version="1.0" encoding="UTF-8" standalone="no"?>
<!DOCTYPE svg PUBLIC "-//W3C//DTD SVG 1.1//EN" "http://www.w3.org/Graphics/SVG/1.1/DTD/svg11.dtd">
<svg xmlns="http://www.w3.org/2000/svg" xmlns:xlink="http://www.w3.org/1999/xlink" version="1.1" width="235pt" height="197pt" viewBox="0 0 235 197">
<g enable-background="new">
<path transform="matrix(.00359712,0,0,-.00359712,0,197)" stroke-width="110.783" stroke-linecap="butt" stroke-miterlimit="10" stroke-linejoin="miter" fill="none" stroke="#000000" d="M 11647.6 3680.44 L 11647.6 50962.9 "/>
<path transform="matrix(.00359712,0,0,-.00359712,0,197)" d="M 3352.31 54157.2 L 3352.31 54485.2 C 3440.3 54514.5 3474.95 54533.1 3474.95 54557.1 C 3474.95 54567.8 3461.63 54578.5 3440.3 54586.5 C 3416.3 54591.8 3397.64 54594.5 3165.7 54618.5 C 3173.7 54519.8 3176.36 54490.5 3176.36 54325.2 L 3176.36 54157.2 L 2397.89 54157.2 C 2285.92 54157.2 2211.27 54162.6 2096.63 54183.9 L 2115.3 54079.9 C 2224.59 54093.3 2269.92 54095.9 2379.22 54095.9 L 3176.36 54095.9 L 3176.36 53624 L 2587.17 53624 C 2485.86 53624 2437.88 53629.4 2325.91 53653.4 L 2341.91 53546.7 C 2427.22 53560 2467.2 53562.7 2573.84 53562.7 L 2701.81 53562.7 C 2757.8 53421.4 2784.45 53368.1 2832.45 53285.4 C 2925.75 53125.5 3040.39 52976.2 3160.36 52856.2 C 2861.77 52597.6 2576.52 52443 2072.64 52261.7 L 2085.97 52221.7 C 2421.88 52288.4 2616.5 52355 2891.09 52496.3 C 3037.73 52573.6 3144.38 52642.9 3275 52746.9 C 3360.31 52677.6 3437.63 52624.3 3538.94 52563 C 3781.55 52416.3 3962.83 52341.7 4306.75 52248.4 C 4338.73 52379 4378.73 52419 4506.7 52456.3 L 4506.7 52491 C 4138.8 52528.3 3954.84 52573.6 3674.91 52693.6 C 3562.94 52744.3 3477.63 52786.9 3386.98 52845.5 C 3602.92 53045.5 3738.89 53210.8 3917.52 53490.7 C 4029.48 53525.4 4061.48 53541.4 4061.48 53565.4 C 4061.48 53576 4053.48 53586.7 4034.81 53602.7 C 3952.17 53666.7 3928.17 53685.3 3842.86 53746.7 C 3786.88 53693.3 3770.88 53677.3 3722.89 53624 L 3352.31 53624 L 3352.31 54095.9 L 4480.05 54095.9 C 4498.7 54095.9 4509.36 54101.3 4509.36 54111.9 C 4509.36 54117.2 4504.03 54122.6 4496.03 54135.9 C 4381.39 54234.5 4344.08 54263.9 4221.44 54354.5 C 4149.45 54271.9 4128.13 54245.2 4056.14 54157.2 L 3352.31 54157.2 Z M 3722.89 53562.7 C 3565.59 53285.4 3442.97 53122.8 3253.67 52941.5 C 3061.72 53098.8 2941.75 53250.8 2768.47 53562.7 L 3722.89 53562.7 "/>
<path transform="matrix(.00359712,0,0,-.00359712,0,197)" d="M 6465.2 53504.1 C 6649.16 53205.5 6766.47 52973.5 6851.78 52736.3 C 6470.55 52664.3 6470.55 52664.3 5814.7 52589.6 C 5876.02 52717.6 5942.67 52882.9 6033.31 53125.5 C 6214.61 53629.4 6265.25 53797.3 6414.55 54410.5 C 6521.19 54434.5 6545.19 54445.2 6545.19 54469.2 C 6545.19 54501.1 6510.53 54511.8 6219.94 54565.1 C 6217.27 54493.1 6214.61 54471.8 6203.94 54402.5 C 6163.95 54162.6 6078.64 53765.3 6009.33 53498.7 C 5897.34 53074.8 5836.03 52869.5 5734.72 52579 C 5652.08 52571 5617.42 52568.3 5569.42 52568.3 C 5556.09 52568.3 5534.77 52568.3 5508.11 52568.3 C 5574.77 52275 5585.42 52245.7 5617.42 52245.7 C 5644.08 52245.7 5652.08 52275 5662.73 52384.3 C 6398.56 52539 6417.22 52541.6 6875.77 52672.3 C 6929.09 52512.3 6945.09 52464.3 6958.42 52397.7 C 6977.08 52312.4 6987.75 52291 7017.08 52291 C 7073.06 52291 7126.38 52421.7 7126.38 52555 C 7126.38 52650.9 7078.39 52752.3 6947.75 52941.5 C 6731.81 53248.1 6651.83 53354.8 6497.2 53530.7 L 6465.2 53504.1 Z M 5398.8 54010.6 L 5398.8 54503.8 C 5478.78 54530.5 5505.44 54543.8 5505.44 54565.1 C 5505.44 54578.5 5494.78 54586.5 5473.45 54591.8 C 5449.45 54599.8 5438.8 54602.5 5206.86 54621.1 C 5220.19 54514.5 5225.52 54447.8 5225.52 54301.2 L 5225.52 54010.6 L 4980.23 54010.6 C 4894.92 54010.6 4860.27 54013.3 4801.63 54026.6 L 4814.95 53938.6 C 4881.59 53946.6 4910.92 53949.3 4982.91 53949.3 L 5225.52 53949.3 L 5225.52 53368.1 C 5054.89 53312.1 4913.59 53274.8 4817.61 53258.8 C 4908.27 53000.2 4916.25 52984.2 4942.92 52984.2 C 4966.91 52984.2 4969.58 52997.5 4980.23 53122.8 C 5078.89 53165.5 5094.88 53173.5 5225.52 53237.5 L 5225.52 52421.7 C 5225.52 52395 5222.84 52392.3 5196.19 52389.7 C 5089.55 52392.3 5089.55 52392.3 4846.94 52405.7 L 4844.28 52355 C 4980.23 52339 5028.23 52328.3 5068.22 52301.7 C 5102.88 52280.4 5113.55 52261.7 5140.2 52176.4 C 5225.52 52195 5281.5 52213.7 5332.16 52245.7 C 5385.47 52277.7 5401.47 52304.4 5404.14 52363 C 5401.47 52493.6 5401.47 52493.6 5401.47 52850.9 L 5401.47 53312.1 C 5593.42 53400.1 5665.41 53437.4 5857.36 53544 L 5841.36 53576 C 5652.08 53504.1 5577.42 53477.4 5398.8 53421.4 L 5398.8 53949.3 L 5865.36 53949.3 C 5881.36 53949.3 5892.02 53954.6 5892.02 53962.6 C 5892.02 53967.9 5889.34 53973.3 5886.69 53978.6 C 5796.05 54069.3 5766.72 54098.6 5673.41 54181.2 L 5534.77 54010.6 L 5398.8 54010.6 "/>
<path transform="matrix(.00359712,0,0,-.00359712,0,197)" d="M 8698.31 54335.9 L 8698.31 54482.5 C 8794.3 54517.1 8812.95 54530.5 8812.95 54551.8 C 8812.95 54578.5 8740.97 54591.8 8506.36 54607.8 C 8517.03 54501.1 8519.69 54493.1 8519.69 54463.8 L 8519.69 54335.9 L 7834.53 54335.9 C 7767.88 54335.9 7655.91 54346.5 7589.25 54359.8 L 7615.92 54253.2 C 7685.23 54263.9 7789.2 54274.5 7839.86 54274.5 L 8077.14 54274.5 L 8055.81 54255.9 C 8117.13 54167.9 8146.45 54106.6 8178.44 53991.9 C 8199.77 53925.3 8205.11 53914.6 8229.09 53893.3 L 7634.58 53893.3 C 7578.59 53893.3 7466.63 53904 7407.97 53914.6 L 7439.95 53808 C 7493.28 53818.6 7591.92 53832 7631.91 53832 L 9826.03 53832 C 9839.36 53832 9850.03 53840 9850.03 53850.6 C 9850.03 53858.6 9844.7 53866.6 9831.38 53877.3 C 9727.39 53967.9 9692.73 53994.6 9583.42 54077.3 C 9538.11 54018.6 9490.13 53957.3 9439.47 53893.3 L 8900.94 53893.3 C 8919.59 53912 8927.59 53917.3 8946.25 53933.3 C 9039.56 54023.9 9071.56 54055.9 9127.55 54119.9 C 9220.86 54125.2 9252.84 54133.2 9252.84 54154.6 C 9252.84 54173.2 9228.84 54186.6 9015.56 54274.5 L 9660.75 54274.5 C 9674.08 54274.5 9684.73 54282.5 9684.73 54290.5 C 9684.73 54295.9 9682.08 54301.2 9674.08 54311.9 C 9572.77 54399.8 9543.44 54426.5 9439.47 54509.1 C 9372.81 54437.2 9354.16 54413.2 9284.84 54335.9 L 8698.31 54335.9 Z M 8980.91 54274.5 C 8948.92 54149.2 8887.59 53991.9 8834.28 53893.3 L 8266.42 53893.3 C 8319.73 53925.3 8351.73 53973.3 8351.73 54021.3 C 8351.73 54055.9 8333.08 54087.9 8295.75 54125.2 C 8266.42 54157.2 8242.42 54175.9 8098.47 54274.5 L 8980.91 54274.5 Z M 9180.86 53656 L 8077.14 53656 C 7986.48 53709.3 7957.17 53725.3 7861.19 53773.3 C 7866.52 53674.7 7871.86 53584 7871.86 53458.7 C 7871.86 53269.5 7869.19 53066.8 7866.52 52954.9 C 7871.86 52936.2 7879.84 52928.2 7901.17 52928.2 C 7903.84 52928.2 7906.52 52928.2 7909.17 52928.2 C 7911.84 52928.2 7930.5 52930.9 7954.5 52930.9 C 8031.81 52936.2 8045.14 52944.2 8045.14 52981.5 L 8045.14 53042.8 L 9207.52 53042.8 L 9207.52 52965.5 C 9207.52 52946.9 9215.52 52938.9 9234.19 52938.9 C 9282.17 52938.9 9356.81 52946.9 9367.48 52952.2 C 9380.81 52957.5 9388.81 52968.2 9388.81 52981.5 C 9388.81 52981.5 9388.81 52984.2 9386.14 52986.9 C 9386.14 52989.5 9386.14 52994.8 9386.14 53000.2 C 9380.81 53232.1 9380.81 53325.4 9380.81 53418.8 C 9380.81 53488.1 9380.81 53488.1 9380.81 53554.7 C 9431.47 53589.4 9450.13 53605.4 9450.13 53621.4 C 9450.13 53632 9442.13 53642.7 9423.47 53656 C 9362.16 53704 9340.83 53720 9274.17 53762.7 L 9180.86 53656 Z M 9207.52 53386.8 L 8045.14 53386.8 L 8045.14 53594.7 L 9207.52 53594.7 L 9207.52 53386.8 Z M 9207.52 53325.4 L 9207.52 53104.2 L 8045.14 53104.2 L 8045.14 53325.4 L 9207.52 53325.4 Z M 7813.2 52810.9 C 7773.2 52653.6 7706.56 52573.6 7554.59 52496.3 C 7474.61 52456.3 7466.63 52448.3 7466.63 52381.7 C 7466.63 52307 7495.94 52251 7538.59 52251 C 7586.59 52251 7677.23 52320.3 7738.55 52400.3 C 7818.53 52507 7861.19 52637.6 7869.19 52808.2 L 7813.2 52810.9 Z M 8093.13 52451 C 8093.13 52357.7 8114.45 52312.4 8173.11 52283 C 8215.77 52261.7 8215.77 52261.7 8663.66 52261.7 C 8970.25 52261.7 9162.2 52269.7 9223.52 52288.4 C 9268.84 52301.7 9295.5 52331 9295.5 52368.3 C 9295.5 52395 9282.17 52411 9250.17 52427 C 9186.19 52453.7 9180.86 52461.6 9180.86 52488.3 C 9180.86 52496.3 9180.86 52512.3 9183.53 52533.6 L 9204.86 52800.2 L 9162.2 52810.9 C 9127.55 52682.9 9108.88 52634.9 9060.89 52504.3 C 9034.23 52437.7 9023.56 52424.3 8994.23 52416.3 C 8972.91 52411 8858.28 52408.3 8583.67 52408.3 C 8506.36 52408.3 8466.38 52408.3 8402.39 52413.7 C 8378.39 52413.7 8365.06 52413.7 8351.73 52413.7 L 8325.08 52413.7 C 8279.75 52413.7 8269.09 52424.3 8269.09 52469.6 L 8269.09 52770.9 C 8349.06 52808.2 8359.73 52813.6 8359.73 52832.2 C 8359.73 52858.9 8317.08 52869.5 8082.47 52890.9 C 8090.47 52826.9 8093.13 52808.2 8093.13 52722.9 L 8093.13 52451 Z M 9300.83 52832.2 C 9420.8 52709.6 9516.78 52565.6 9599.42 52381.7 C 9628.75 52317.7 9650.08 52291 9674.08 52291 C 9722.06 52291 9770.05 52379 9770.05 52467 C 9770.05 52509.6 9748.72 52547 9687.41 52608.3 C 9607.42 52685.6 9484.78 52770.9 9324.83 52856.2 L 9300.83 52832.2 Z M 8455.7 52957.5 C 8570.34 52864.2 8690.31 52733.6 8754.3 52621.6 C 8783.63 52571 8794.3 52560.3 8815.63 52560.3 C 8850.28 52560.3 8876.94 52624.3 8876.94 52709.6 C 8876.94 52773.6 8850.28 52802.9 8756.97 52853.5 C 8687.66 52893.5 8594.34 52936.2 8479.7 52984.2 L 8455.7 52957.5 "/>
<path transform="matrix(.00359712,0,0,-.00359712,0,197)" d="M 10595.5 53400.1 L 11923.2 53400.1 L 11923.2 53280.1 C 11925.8 53250.8 11933.8 53245.5 11973.8 53245.5 C 12080.5 53245.5 12112.5 53258.8 12112.5 53304.1 C 12104.5 53445.4 12104.5 53482.7 12104.5 53701.3 L 12104.5 54327.9 C 12192.4 54381.2 12216.4 54402.5 12216.4 54418.5 C 12216.4 54431.8 12208.4 54442.5 12187.1 54461.2 C 12139.1 54498.5 12083.1 54543.8 12016.5 54597.1 C 11960.5 54541.1 11941.8 54522.5 11888.5 54455.8 L 10624.8 54455.8 C 10531.5 54519.8 10502.2 54538.5 10406.2 54597.1 C 10414.2 54482.5 10414.2 54450.5 10414.2 54317.2 C 10414.2 53917.3 10411.5 53680 10406.2 53280.1 C 10406.2 53245.5 10416.9 53237.5 10467.5 53237.5 C 10520.9 53237.5 10566.2 53248.1 10582.2 53261.5 C 10590.2 53269.5 10595.5 53282.8 10595.5 53304.1 L 10595.5 53400.1 Z M 11339.3 53959.9 L 11339.3 54394.5 L 11923.2 54394.5 L 11923.2 53959.9 L 11339.3 53959.9 Z M 11339.3 53898.6 L 11923.2 53898.6 L 11923.2 53461.4 L 11339.3 53461.4 L 11339.3 53898.6 Z M 11163.4 53461.4 L 10595.5 53461.4 L 10595.5 53898.6 L 11163.4 53898.6 L 11163.4 53461.4 Z M 11163.4 53959.9 L 10595.5 53959.9 L 10595.5 54394.5 L 11163.4 54394.5 L 11163.4 53959.9 Z M 10448.9 53109.5 C 10416.9 52957.5 10387.6 52880.2 10342.2 52808.2 C 10302.3 52744.3 10219.6 52664.3 10155.6 52632.3 C 10107.6 52605.6 10099.6 52595 10099.6 52544.3 C 10099.6 52448.3 10131.6 52381.7 10176.9 52381.7 C 10248.9 52381.7 10358.2 52509.6 10419.5 52664.3 C 10459.5 52773.6 10488.9 52930.9 10488.9 53056.2 C 10488.9 53072.2 10488.9 53085.5 10488.9 53109.5 L 10448.9 53109.5 Z M 10744.8 52677.6 C 10742.1 52501.6 10742.1 52501.6 10742.1 52427 C 10750.1 52365.7 10766.1 52341.7 10827.5 52317.7 C 10872.8 52301.7 10998.1 52296.4 11350 52296.4 C 11398 52296.4 11605.9 52304.4 11715.2 52309.7 C 11803.2 52315 11856.5 52320.3 11891.2 52333.7 C 11944.5 52349.7 11973.8 52381.7 11973.8 52424.3 C 11973.8 52453.7 11947.2 52480.3 11904.5 52491 C 11856.5 52501.6 11851.2 52507 11851.2 52517.6 C 11851.2 52523 11851.2 52528.3 11851.2 52539 L 11891.2 52992.2 L 11853.9 52994.8 C 11811.2 52824.2 11757.9 52656.3 11717.9 52560.3 C 11688.6 52493.6 11669.9 52475 11608.6 52469.6 C 11576.6 52464.3 11376.6 52459 11248.7 52459 C 11035.4 52459 10963.4 52461.6 10942.1 52475 C 10931.4 52480.3 10928.8 52485.6 10928.8 52512.3 L 10928.8 53088.2 C 11024.7 53114.8 11043.4 53125.5 11043.4 53146.8 C 11043.4 53178.8 10990.1 53192.1 10731.5 53221.5 C 10744.8 53130.8 10744.8 53112.2 10744.8 52970.9 L 10744.8 52677.6 Z M 11086 53258.8 C 11235.3 53109.5 11280.7 53045.5 11382 52850.9 C 11414 52784.2 11430 52768.2 11454 52768.2 C 11491.3 52768.2 11536.6 52848.2 11536.6 52914.9 C 11536.6 52973.5 11515.3 53013.5 11446 53072.2 C 11342 53160.1 11272.7 53202.8 11107.4 53282.8 L 11086 53258.8 Z M 11955.2 53122.8 C 12032.5 53013.5 12061.8 52962.9 12099.1 52888.2 C 12165.8 52757.6 12221.8 52624.3 12243.1 52549.6 C 12269.8 52445.7 12280.4 52429.7 12312.4 52429.7 C 12331.1 52429.7 12352.4 52445.7 12373.7 52475 C 12403.1 52520.3 12432.4 52595 12432.4 52632.3 C 12432.4 52666.9 12413.7 52709.6 12376.4 52760.2 C 12264.4 52914.9 12157.8 53018.8 11984.5 53146.8 L 11955.2 53122.8 "/>
<path transform="matrix(.00359712,0,0,-.00359712,0,197)" d="M 13241.8 53906.6 C 13268.5 53952 13284.5 53973.3 13321.8 54037.3 C 13396.5 54045.3 13425.8 54055.9 13425.8 54077.3 C 13425.8 54103.9 13407.1 54111.9 13177.9 54183.9 C 13156.5 54095.9 13097.9 53959.9 13012.6 53792 C 12916.6 53602.7 12823.3 53464.1 12706 53338.8 L 12738 53309.4 C 12863.3 53410.8 12929.9 53477.4 13063.2 53653.4 L 13311.2 53496.1 C 13263.2 53429.4 13220.5 53381.4 13164.5 53320.1 C 12991.2 53136.1 12860.6 53024.2 12676.6 52917.5 L 12706 52877.5 C 12828.6 52938.9 12871.3 52965.5 12951.3 53013.5 L 12951.3 52757.6 C 12951.3 52573.6 12945.9 52453.7 12937.9 52261.7 C 12937.9 52259 12937.9 52256.4 12937.9 52256.4 C 12937.9 52235 12945.9 52229.7 12972.6 52229.7 C 13039.2 52229.7 13092.5 52235 13105.9 52245.7 C 13113.9 52251 13116.5 52256.4 13116.5 52275 L 13116.5 52397.7 L 13527.1 52397.7 L 13527.1 52352.3 C 13527.1 52331 13537.8 52323 13559.1 52323 C 13601.8 52323 13668.4 52328.3 13679.1 52333.7 C 13689.7 52339 13695.1 52347 13695.1 52360.3 C 13695.1 52360.3 13695.1 52363 13692.4 52365.7 L 13692.4 52933.5 C 13740.4 52970.9 13756.4 52984.2 13756.4 53000.2 C 13756.4 53010.8 13748.4 53021.5 13732.4 53034.8 C 13676.4 53077.5 13660.4 53090.8 13601.8 53128.2 C 13564.4 53090.8 13553.8 53080.2 13519.1 53034.8 L 13135.2 53034.8 C 13105.9 53064.2 13092.5 53074.8 13071.2 53093.5 C 13183.2 53176.1 13297.8 53285.4 13417.8 53424.1 C 13543.1 53330.8 13687.1 53200.1 13735 53136.1 C 13801.7 53050.8 13812.4 53037.5 13833.7 53037.5 C 13852.4 53037.5 13871 53064.2 13871 53098.8 C 13871 53146.8 13852.4 53229.5 13839 53258.8 C 13809.7 53317.4 13748.4 53357.4 13481.8 53501.4 C 13567.1 53608 13604.4 53661.4 13692.4 53802.7 C 13753.7 53813.3 13788.4 53821.3 13796.4 53826.6 C 13807 53832 13815 53840 13815 53848 C 13815 53856 13804.4 53866.6 13785.7 53885.3 C 13719.1 53936 13697.7 53952 13631.1 53997.3 C 13577.8 53954.6 13577.8 53954.6 13527.1 53906.6 L 13241.8 53906.6 Z M 13527.1 53845.3 C 13449.8 53701.3 13415.1 53642.7 13359.1 53562.7 C 13265.8 53608 13265.8 53608 13089.9 53688 C 13143.2 53760 13161.9 53786.7 13201.9 53845.3 L 13527.1 53845.3 Z M 13116.5 52973.5 L 13527.1 52973.5 L 13527.1 52459 L 13116.5 52459 L 13116.5 52973.5 Z M 13428.5 54293.2 L 13428.5 54506.5 C 13497.8 54522.5 13537.8 54541.1 13537.8 54562.5 C 13537.8 54589.1 13455.1 54607.8 13255.2 54623.8 C 13260.5 54530.5 13263.2 54485.2 13263.2 54410.5 L 13263.2 54293.2 L 12948.6 54293.2 C 12948.6 54346.5 12948.6 54367.8 12951.3 54434.5 L 12895.3 54434.5 C 12879.3 54295.9 12873.9 54263.9 12855.3 54215.9 C 12828.6 54151.9 12804.6 54117.2 12743.3 54063.9 C 12711.3 54034.6 12698 54007.9 12698 53978.6 C 12698 53957.3 12708.6 53914.6 12722 53885.3 C 12735.3 53858.6 12748.6 53845.3 12764.6 53845.3 C 12802 53845.3 12849.9 53893.3 12884.6 53965.3 C 12921.9 54042.6 12937.9 54114.6 12945.9 54231.9 L 13735 54231.9 C 13705.7 54087.9 13703.1 54077.3 13679.1 54013.3 L 13716.4 53994.6 C 13817.7 54101.3 13820.4 54106.6 13881.7 54173.2 C 13972.3 54175.9 14001.7 54186.6 14001.7 54207.9 C 14001.7 54215.9 13993.7 54229.2 13972.3 54250.5 C 13911 54317.2 13889.7 54335.9 13820.4 54394.5 C 13775 54354.5 13759 54341.2 13716.4 54293.2 L 13428.5 54293.2 Z M 15201.4 54394.5 C 15217.4 54394.5 15230.7 54402.5 15230.7 54410.5 C 15230.7 54415.8 15225.4 54426.5 15220 54434.5 C 15126.7 54530.5 15094.7 54559.8 14993.4 54647.8 C 14926.8 54567.8 14908.1 54541.1 14846.8 54455.8 L 14111 54455.8 C 14025.7 54455.8 13980.3 54461.2 13887 54479.8 L 13905.7 54378.5 C 13948.3 54386.5 14049.6 54394.5 14111 54394.5 L 14390.9 54394.5 C 14374.9 54197.2 14366.9 54157.2 14334.9 54039.9 L 14164.3 54039.9 C 14087 54090.6 14060.3 54103.9 13972.3 54141.2 C 13975 54021.3 13977.7 53861.3 13977.7 53658.7 C 13977.7 53226.8 13975 53024.2 13967 52757.6 C 13967 52752.3 13967 52749.6 13967 52746.9 C 13967 52728.3 13975 52722.9 14015 52722.9 C 14047 52722.9 14111 52728.3 14121.6 52730.9 C 14140.3 52733.6 14143 52738.9 14145.6 52757.6 L 14145.6 52816.2 L 14846.8 52816.2 L 14846.8 52741.6 C 14846.8 52720.3 14852.1 52712.3 14870.8 52712.3 C 15004.1 52712.3 15020.1 52717.6 15025.4 52757.6 C 15022.7 52912.2 15022.7 52912.2 15017.4 53253.5 L 15017.4 53938.6 C 15078.7 53967.9 15105.4 53986.6 15105.4 54005.3 C 15105.4 54015.9 15094.7 54026.6 15073.4 54045.3 C 15012.1 54093.3 14993.4 54109.2 14926.8 54159.9 C 14878.8 54106.6 14865.4 54090.6 14817.5 54039.9 L 14401.6 54039.9 C 14454.9 54106.6 14454.9 54106.6 14564.2 54309.2 C 14577.5 54333.2 14585.5 54346.5 14614.8 54394.5 L 15201.4 54394.5 Z M 14846.8 53680 L 14145.6 53680 L 14145.6 53978.6 L 14846.8 53978.6 L 14846.8 53680 Z M 14846.8 53618.7 L 14846.8 53280.1 L 14145.6 53280.1 L 14145.6 53618.7 L 14846.8 53618.7 Z M 14846.8 53218.8 L 14846.8 52877.5 L 14145.6 52877.5 L 14145.6 53218.8 L 14846.8 53218.8 Z M 13628.4 52184.4 C 13948.3 52299 14089.6 52373.7 14313.6 52549.6 C 14428.2 52552.3 14454.9 52557.6 14454.9 52579 C 14454.9 52595 14425.5 52613.6 14334.9 52656.3 C 14310.9 52666.9 14270.9 52685.6 14220.3 52706.9 C 14145.6 52618.9 14097.6 52571 14017.7 52501.6 C 13841.7 52352.3 13745.7 52288.4 13601.8 52224.4 L 13628.4 52184.4 Z M 14564.2 52666.9 C 14801.5 52499 14950.8 52360.3 15025.4 52235 C 15049.4 52192.4 15062.7 52181.7 15084 52181.7 C 15118.7 52181.7 15153.4 52251 15153.4 52317.7 C 15153.4 52373.7 15137.4 52411 15102.7 52443 C 15025.4 52515 14852.1 52600.3 14582.8 52696.3 L 14564.2 52666.9 "/>
<path transform="matrix(.00359712,0,0,-.00359712,0,197)" d="M 16048.8 54266.6 L 15904.6 54266.6 L 15170 51940.7 L 15314.1 51940.7 L 16048.8 54266.6 "/>
<path transform="matrix(.00359712,0,0,-.00359712,0,197)" d="M 16846.8 53493.4 C 16961.4 53594.7 17012.1 53661.4 17070.7 53773.3 L 17556 53773.3 C 17553.3 53685.3 17553.3 53672 17550.6 53570.7 C 17550.6 53546.7 17558.6 53541.4 17606.6 53541.4 C 17697.3 53541.4 17718.6 53549.4 17721.3 53581.4 C 17718.6 53674.7 17715.9 53712 17715.9 53773.3 L 18339.8 53773.3 C 18323.8 53648 18310.4 53610.7 18278.4 53610.7 C 18254.5 53610.7 18201.1 53618.7 18097.2 53640 C 18083.8 53642.7 18062.5 53645.4 18035.8 53650.7 L 18030.5 53621.4 C 18182.5 53573.4 18219.8 53538.7 18227.8 53448.1 C 18363.8 53456.1 18419.7 53477.4 18446.4 53536 C 18462.4 53573.4 18475.7 53637.4 18491.7 53752 C 18545 53776 18555.7 53784 18555.7 53797.3 C 18555.7 53808 18547.7 53816 18529 53834.6 C 18475.7 53877.3 18459.7 53890.6 18401.1 53936 C 18358.4 53893.3 18345.1 53880 18302.4 53834.6 L 17715.9 53834.6 L 17715.9 54053.3 L 18171.8 54053.3 L 18171.8 54007.9 C 18171.8 53983.9 18179.8 53981.3 18227.8 53981.3 C 18318.4 53981.3 18339.8 53989.3 18339.8 54026.6 C 18334.4 54133.2 18334.4 54175.9 18331.8 54306.5 C 18393.1 54341.2 18411.8 54357.2 18411.8 54375.8 C 18411.8 54383.8 18403.8 54394.5 18379.8 54413.2 C 18323.8 54453.2 18305.1 54466.5 18241.1 54503.8 C 18201.1 54461.2 18187.8 54447.8 18147.8 54397.2 L 17715.9 54397.2 L 17715.9 54514.5 C 17795.9 54535.8 17822.6 54551.8 17822.6 54573.1 C 17822.6 54599.8 17814.6 54602.5 17548 54626.5 C 17558.6 54546.5 17558.6 54519.8 17558.6 54397.2 L 17166.7 54397.2 L 17169.4 54522.5 C 17244 54541.1 17270.7 54557.1 17270.7 54578.5 C 17270.7 54605.1 17252 54607.8 16990.8 54631.8 C 17001.4 54551.8 17004.1 54514.5 17004.1 54445.2 C 17004.1 54437.2 17004.1 54418.5 17001.4 54397.2 L 16564.2 54397.2 C 16462.9 54397.2 16398.9 54402.5 16305.6 54421.2 L 16324.3 54317.2 C 16401.6 54330.5 16473.6 54335.9 16564.2 54335.9 L 17001.4 54335.9 C 16998.8 54226.5 16996.1 54194.5 16988.1 54114.6 L 16622.9 54114.6 C 16550.9 54162.6 16526.9 54175.9 16457.6 54215.9 C 16425.6 54063.9 16372.3 53922.6 16257.6 53685.3 C 16254.9 53674.7 16252.3 53666.7 16252.3 53664 C 16252.3 53642.7 16289.6 53634.7 16377.6 53634.7 C 16412.2 53634.7 16422.9 53640 16436.2 53664 C 16454.9 53706.7 16457.6 53720 16478.9 53773.3 L 16902.8 53773.3 C 16854.8 53682.7 16806.8 53618.7 16697.5 53514.7 C 16652.2 53533.4 16630.8 53538.7 16569.5 53557.4 C 16577.5 53498.7 16577.5 53482.7 16580.2 53413.4 C 16438.9 53301.4 16361.6 53256.1 16180.3 53165.5 L 16201.6 53128.2 C 16385.6 53192.1 16452.2 53224.1 16582.9 53301.4 C 16582.9 53072.2 16582.9 53072.2 16582.9 52997.5 C 16582.9 52826.9 16580.2 52728.3 16572.2 52552.3 C 16572.2 52549.6 16572.2 52547 16572.2 52547 C 16572.2 52523 16585.5 52517.6 16641.5 52517.6 C 16732.2 52517.6 16758.8 52525.6 16758.8 52557.6 L 16758.8 52616.3 L 17937.2 52616.3 L 17937.2 52581.6 C 17937.2 52557.6 17945.2 52552.3 17987.8 52552.3 C 18102.5 52552.3 18123.8 52560.3 18123.8 52597.6 C 18113.2 52944.2 18113.2 52944.2 18113.2 53392.1 C 18161.1 53421.4 18169.1 53426.8 18169.1 53440.1 C 18169.1 53448.1 18163.8 53453.4 18150.5 53466.7 C 18089.2 53517.4 18070.5 53533.4 18003.8 53578.7 C 17969.2 53544 17961.2 53530.7 17926.5 53493.4 L 16846.8 53493.4 Z M 16758.8 53432.1 L 17937.2 53432.1 L 17937.2 53234.8 L 16758.8 53234.8 L 16758.8 53432.1 Z M 17937.2 53173.5 L 17937.2 52970.9 L 16758.8 52970.9 L 16758.8 53173.5 L 17937.2 53173.5 Z M 17937.2 52909.5 L 17937.2 52677.6 L 16758.8 52677.6 L 16758.8 52909.5 L 17937.2 52909.5 Z M 17558.6 54053.3 C 17558.6 53954.6 17558.6 53954.6 17556 53834.6 L 17097.4 53834.6 C 17121.4 53904 17134.7 53962.6 17145.4 54053.3 L 17558.6 54053.3 Z M 16980.1 54053.3 C 16966.8 53954.6 16953.4 53898.6 16929.4 53834.6 L 16500.2 53834.6 C 16545.5 53959.9 16545.5 53959.9 16577.5 54053.3 L 16980.1 54053.3 Z M 17150.7 54114.6 C 17158.7 54186.6 17158.7 54218.5 17164 54335.9 L 17558.6 54335.9 L 17558.6 54114.6 L 17150.7 54114.6 Z M 17715.9 54114.6 L 17715.9 54335.9 L 18171.8 54335.9 L 18171.8 54114.6 L 17715.9 54114.6 Z M 16191 52144.4 C 16572.2 52200.4 16804.1 52264.4 17054.8 52381.7 C 17086.7 52381.7 17116.1 52381.7 17126.7 52381.7 C 17190.7 52381.7 17212 52389.7 17212 52413.7 C 17212 52432.3 17198.7 52440.3 17073.4 52491 C 17046.8 52501.6 17006.8 52517.6 16956.1 52539 C 16822.8 52411 16574.9 52301.7 16180.3 52192.4 L 16191 52144.4 Z M 17598.6 52469.6 C 17921.2 52389.7 18174.5 52291 18363.8 52176.4 C 18417.1 52144.4 18427.7 52139.1 18451.7 52139.1 C 18475.7 52139.1 18486.4 52157.7 18486.4 52192.4 C 18486.4 52288.4 18427.7 52363 18321.1 52403 C 18225.1 52440.3 17974.5 52480.3 17611.9 52515 L 17598.6 52469.6 "/>
<path transform="matrix(.00359712,0,0,-.00359712,0,197)" d="M 19951.7 53208.1 L 19951.7 52965.5 C 19951.7 52858.9 19949 52565.6 19946.4 52403 C 19946.4 52373.7 19962.4 52360.3 19999.7 52360.3 C 20002.3 52360.3 20005 52360.3 20007.7 52360.3 C 20010.3 52360.3 20021 52360.3 20037 52360.3 C 20117 52363 20141 52376.3 20143.6 52416.3 C 20141 52517.6 20141 52517.6 20138.3 52645.6 C 20138.3 52792.2 20138.3 52792.2 20135.6 52965.5 L 20135.6 53208.1 L 20794.1 53208.1 L 20794.1 52477.6 C 20794.1 52448.3 20788.8 52440.3 20762.2 52440.3 C 20762.2 52440.3 20759.5 52440.3 20754.2 52440.3 C 20751.5 52440.3 20746.2 52440.3 20740.8 52440.3 C 20663.5 52443 20663.5 52443 20567.5 52448.3 C 20412.9 52456.3 20412.9 52456.3 20314.3 52461.6 L 20314.3 52421.7 C 20610.2 52384.3 20631.5 52371 20668.8 52213.7 C 20794.1 52235 20855.5 52253.7 20903.5 52280.4 C 20962.1 52312.4 20978.1 52336.3 20986.1 52403 C 20980.8 52744.3 20980.8 52848.2 20980.8 53080.2 L 20980.8 54319.9 C 21063.4 54370.5 21079.4 54381.2 21079.4 54399.8 C 21079.4 54410.5 21068.8 54421.2 21047.4 54437.2 C 20975.4 54493.1 20954.1 54509.1 20879.5 54562.5 C 20828.8 54509.1 20815.5 54493.1 20770.2 54437.2 L 19343.8 54437.2 C 19255.9 54498.5 19226.5 54517.1 19130.6 54573.1 C 19141.2 54447.8 19143.9 54367.8 19143.9 54229.2 C 19143.9 54122.6 19138.6 53757.3 19135.9 53632 C 19127.9 53253.5 19114.6 53125.5 19066.6 52920.2 C 18999.9 52634.9 18901.3 52424.3 18725.3 52208.4 L 18754.7 52181.7 C 18927.9 52323 19031.9 52453.7 19133.2 52656.3 C 19218.5 52829.6 19274.5 53008.2 19301.2 53208.1 L 19951.7 53208.1 Z M 20135.6 53269.5 L 20135.6 53818.6 L 20794.1 53818.6 L 20794.1 53269.5 L 20135.6 53269.5 Z M 19951.7 53269.5 L 19309.2 53269.5 C 19322.5 53429.4 19325.2 53568 19327.8 53818.6 L 19951.7 53818.6 L 19951.7 53269.5 Z M 20135.6 53880 L 20135.6 54375.8 L 20794.1 54375.8 L 20794.1 53880 L 20135.6 53880 Z M 19951.7 53880 L 19327.8 53880 C 19327.8 53965.3 19327.8 54037.3 19327.8 54082.6 C 19330.5 54165.2 19330.5 54226.5 19330.5 54247.9 C 19330.5 54271.9 19330.5 54319.9 19327.8 54375.8 L 19951.7 54375.8 L 19951.7 53880 "/>
<path transform="matrix(.00359712,0,0,-.00359712,0,197)" stroke-width="110.783" stroke-linecap="butt" stroke-miterlimit="10" stroke-linejoin="miter" fill="none" stroke="#000000" d="M 11647.6 3680.44 L 58930.1 3680.44 "/>
<path transform="matrix(.00359712,0,0,-.00359712,0,197)" d="M 61356.6 3393.16 C 61367.3 3393.16 61378 3401.16 61378 3409.16 C 61378 3414.48 61375.3 3419.81 61370 3425.14 C 61284.7 3502.45 61258 3523.78 61167.4 3598.44 C 61119.4 3537.13 61103.4 3518.45 61055.4 3454.47 L 60652.8 3454.47 C 60682.1 3507.8 60684.8 3513.13 60719.5 3574.44 C 60791.5 3585.11 60812.8 3595.77 60812.8 3619.77 C 60812.8 3638.42 60775.5 3649.09 60583.5 3691.75 C 60556.8 3622.44 60532.8 3566.44 60479.5 3454.47 L 60314.2 3454.47 C 60207.6 3454.47 60130.3 3462.47 60037 3481.13 L 60055.6 3382.48 C 60151.6 3390.48 60199.6 3393.16 60316.9 3393.16 L 60450.2 3393.16 C 60418.2 3331.84 60394.2 3289.19 60324.9 3166.55 C 60284.9 3099.89 60276.9 3086.56 60212.9 2977.25 C 60212.9 2974.59 60212.9 2971.92 60212.9 2969.27 C 60212.9 2955.92 60239.6 2947.94 60292.9 2947.94 C 60362.2 2947.94 60378.2 2953.27 60394.2 2990.59 C 60418.2 3030.58 60434.2 3057.23 60444.9 3078.56 C 60583.5 3022.58 60642.2 2995.92 60751.5 2931.94 C 60580.8 2739.98 60394.2 2628.02 60055.6 2513.38 L 60071.6 2478.72 C 60314.2 2521.38 60439.5 2564.03 60588.8 2641.34 C 60700.8 2702.66 60786.1 2766.64 60874.1 2857.28 C 60956.7 2801.3 60996.7 2769.31 61050 2713.33 C 61076.7 2686.66 61090 2678.66 61103.4 2678.66 C 61122 2678.66 61135.4 2715.98 61135.4 2766.64 C 61135.4 2819.97 61122 2865.28 61098 2891.94 C 61076.7 2918.61 61050 2931.94 60964.7 2966.59 C 61063.4 3102.56 61103.4 3187.88 61167.4 3393.16 L 61356.6 3393.16 Z M 60991.4 3393.16 C 60940.8 3217.2 60906.1 3142.55 60820.8 3019.91 C 60719.5 3054.58 60652.8 3075.91 60474.2 3129.22 C 60543.5 3257.19 60591.5 3345.17 60618.2 3393.16 L 60991.4 3393.16 Z M 60951.4 2473.38 C 61247.3 2577.36 61399.3 2657.34 61569.9 2793.3 C 61660.6 2865.28 61727.2 2929.27 61801.9 3022.58 C 61948.5 2809.3 62111.1 2646.67 62324.4 2502.7 C 62367.1 2612.02 62404.4 2636.02 62540.3 2641.34 L 62545.7 2676 C 62241.8 2811.97 62047.1 2950.59 61887.2 3142.55 C 61988.5 3299.84 62068.5 3486.47 62132.5 3702.41 C 62177.8 3857.05 62199.1 3955.69 62223.1 4160.97 L 62500.4 4160.97 C 62505.7 4160.97 62511 4168.97 62511 4176.95 C 62511 4182.3 62508.4 4190.3 62500.4 4198.28 C 62383.1 4296.94 62383.1 4296.94 62279.1 4387.58 C 62215.1 4315.59 62196.4 4294.27 62129.8 4222.28 L 61620.6 4222.28 C 61719.2 4464.89 61759.2 4576.86 61804.5 4728.83 C 61895.2 4747.48 61919.2 4758.16 61919.2 4779.48 C 61919.2 4808.81 61908.5 4811.47 61628.6 4880.78 C 61623.3 4792.81 61596.6 4656.84 61543.3 4451.56 C 61468.6 4158.3 61388.6 3950.34 61220.7 3609.09 L 61252.7 3585.11 C 61362 3731.73 61407.3 3798.39 61474 3915.69 C 61532.6 3579.78 61585.9 3406.48 61713.9 3166.55 C 61657.9 3078.56 61609.9 3014.58 61545.9 2942.59 C 61388.6 2766.64 61244.7 2662.67 60935.4 2508.05 L 60951.4 2473.38 Z M 62028.5 4160.97 C 61993.8 3811.72 61921.8 3561.11 61783.2 3289.19 C 61647.2 3505.13 61583.3 3678.42 61513.9 3990.34 C 61545.9 4054.33 61564.6 4091.66 61596.6 4160.97 L 62028.5 4160.97 Z M 60842.1 4270.27 L 61412.6 4270.27 C 61426 4270.27 61436.6 4278.27 61436.6 4286.27 C 61436.6 4291.59 61431.3 4302.27 61423.3 4310.27 C 61340.6 4379.58 61314 4403.58 61226 4472.89 C 61180.7 4411.56 61167.4 4392.91 61127.4 4331.59 L 60842.1 4331.59 C 60839.4 4614.19 60839.4 4614.19 60839.4 4630.19 C 60839.4 4664.84 60839.4 4696.83 60839.4 4750.16 C 60855.4 4758.16 60868.8 4763.48 60879.4 4766.16 C 60903.4 4774.14 60919.4 4782.14 60930.1 4787.48 C 60935.4 4792.81 60940.8 4800.81 60940.8 4806.14 C 60940.8 4835.47 60911.4 4840.8 60671.5 4864.8 C 60679.5 4787.48 60684.8 4672.84 60684.8 4600.86 L 60684.8 4331.59 L 60298.2 4331.59 C 60210.3 4331.59 60159.6 4334.25 60047.6 4347.58 L 60063.6 4256.94 C 60178.3 4267.61 60234.3 4270.27 60295.6 4270.27 L 60588.8 4270.27 C 60532.8 4174.3 60511.5 4142.3 60444.9 4056.98 C 60308.9 3883.7 60215.6 3790.39 60047.6 3654.42 L 60063.6 3627.77 C 60188.9 3691.75 60255.6 3737.06 60399.5 3859.7 C 60516.8 3958.34 60586.2 4027.67 60684.8 4147.64 L 60684.8 4043.66 C 60684.8 3966.34 60682.1 3902.36 60676.8 3763.73 C 60676.8 3758.39 60676.8 3755.73 60676.8 3750.41 C 60676.8 3734.41 60692.8 3723.73 60719.5 3723.73 C 60719.5 3723.73 60722.1 3723.73 60724.8 3723.73 C 60738.1 3723.73 60748.8 3726.41 60754.1 3726.41 C 60820.8 3729.08 60836.8 3737.06 60842.1 3763.73 C 60842.1 3998.34 60842.1 4003.67 60842.1 4096.98 C 60930.1 4054.33 61023.4 3977.02 61111.4 3875.7 C 61175.4 3795.72 61180.7 3793.06 61207.3 3793.06 C 61236.7 3793.06 61252.7 3822.38 61252.7 3873.03 C 61252.7 3923.69 61236.7 3979.67 61212.7 4006.34 C 61186 4035.66 61090 4078.31 60970.1 4110.31 C 60863.4 4142.3 60863.4 4142.3 60842.1 4147.64 L 60842.1 4270.27 Z M 60204.9 4771.48 C 60290.2 4667.5 60351.6 4558.2 60386.2 4451.56 C 60404.9 4390.23 60420.9 4366.25 60442.2 4366.25 C 60476.9 4366.25 60532.8 4454.22 60532.8 4504.88 C 60532.8 4579.53 60455.5 4654.17 60231.6 4795.47 L 60204.9 4771.48 Z M 60983.4 4368.91 C 61060.7 4446.23 61060.7 4446.23 61135.4 4528.88 C 61234 4640.84 61234 4640.84 61266 4675.5 C 61279.3 4678.17 61292.7 4680.84 61314 4680.84 C 61338 4683.5 61351.3 4686.17 61356.6 4688.83 C 61364.6 4694.17 61370 4699.5 61370 4707.5 C 61370 4728.83 61332.7 4750.16 61239.3 4782.14 C 61215.3 4790.14 61175.4 4803.47 61124.7 4822.14 C 61098 4696.83 61042 4563.53 60946.1 4387.58 L 60983.4 4368.91 "/>
<path transform="matrix(.00359712,0,0,-.00359712,0,197)" d="M 63971 3118.56 L 64520.2 3118.56 L 64520.2 3091.89 C 64522.9 3073.23 64528.2 3067.91 64544.2 3067.91 C 64584.2 3067.91 64664.2 3078.56 64680.1 3083.89 C 64693.5 3089.23 64698.8 3099.89 64698.8 3110.56 C 64698.8 3113.22 64698.8 3113.22 64698.8 3115.89 C 64696.1 3254.52 64696.1 3297.17 64696.1 3443.81 L 64696.1 3643.77 C 64757.5 3683.75 64773.5 3697.08 64773.5 3715.73 C 64773.5 3723.73 64765.5 3734.41 64744.1 3750.41 C 64698.8 3785.06 64648.2 3819.72 64597.5 3857.05 C 64552.2 3811.72 64541.5 3795.72 64498.9 3750.41 L 63312.5 3750.41 C 63235.2 3798.39 63211.2 3811.72 63128.5 3857.05 C 63133.9 3761.06 63136.5 3694.41 63136.5 3574.44 C 63136.5 3377.16 63133.9 3206.53 63128.5 3038.58 C 63128.5 3017.25 63133.9 3011.92 63157.9 3011.92 C 63205.8 3011.92 63261.8 3017.25 63280.5 3022.58 C 63296.5 3027.91 63301.8 3035.91 63301.8 3054.58 L 63301.8 3118.56 L 63808.4 3118.56 L 63808.4 2921.27 L 63205.8 2921.27 C 63075.2 2921.27 63037.9 2923.94 62947.2 2945.27 L 62963.2 2843.95 C 63045.9 2857.28 63101.9 2859.95 63205.8 2859.95 L 63808.4 2859.95 L 63808.4 2636.02 L 62997.9 2636.02 C 62869.9 2636.02 62813.9 2641.34 62710 2662.67 L 62728.6 2556.03 C 62805.9 2569.36 62875.3 2574.69 62997.9 2574.69 L 65130.7 2574.69 C 65146.7 2574.69 65154.7 2580.02 65154.7 2588.02 C 65154.7 2593.36 65152 2598.69 65144 2606.69 C 65040.1 2686.66 65005.4 2713.33 64898.8 2795.97 L 64744.1 2636.02 L 63971 2636.02 L 63971 2859.95 L 64914.8 2859.95 C 64930.8 2859.95 64941.4 2865.28 64941.4 2875.95 C 64941.4 2878.61 64938.8 2883.95 64928.1 2894.61 C 64837.4 2969.27 64810.8 2990.59 64717.5 3062.56 C 64658.8 3003.92 64637.5 2982.59 64578.8 2921.27 L 63971 2921.27 L 63971 3118.56 Z M 63971 3179.88 L 63971 3411.81 L 64520.2 3411.81 L 64520.2 3179.88 L 63971 3179.88 Z M 63808.4 3179.88 L 63301.8 3179.88 L 63301.8 3411.81 L 63808.4 3411.81 L 63808.4 3179.88 Z M 63971 3473.14 L 63971 3689.08 L 64520.2 3689.08 L 64520.2 3473.14 L 63971 3473.14 Z M 63808.4 3473.14 L 63301.8 3473.14 L 63301.8 3689.08 L 63808.4 3689.08 L 63808.4 3473.14 Z M 63288.5 4171.63 L 64552.2 4171.63 L 64552.2 4110.31 C 64552.2 4107.64 64552.2 4102.31 64552.2 4102.31 C 64552.2 4083.66 64557.5 4080.98 64589.5 4080.98 C 64682.8 4080.98 64722.8 4091.66 64722.8 4112.98 C 64722.8 4115.64 64722.8 4118.31 64722.8 4118.31 C 64717.5 4251.61 64717.5 4310.27 64717.5 4390.23 L 64720.1 4662.17 C 64797.5 4710.16 64810.8 4720.83 64810.8 4736.83 C 64810.8 4742.16 64805.5 4750.16 64789.5 4766.16 C 64722.8 4816.8 64701.5 4832.8 64632.2 4880.78 C 64597.5 4843.47 64562.8 4803.47 64530.8 4766.16 L 63312.5 4766.16 C 63227.2 4819.47 63197.8 4835.47 63109.9 4880.78 C 63117.9 4638.19 63117.9 4632.84 63117.9 4518.2 C 63117.9 4414.23 63117.9 4403.58 63112.5 4104.98 C 63112.5 4102.31 63112.5 4099.64 63112.5 4099.64 C 63112.5 4072.98 63117.9 4070.33 63155.2 4070.33 C 63259.2 4070.33 63288.5 4078.31 63288.5 4104.98 C 63288.5 4104.98 63288.5 4107.64 63288.5 4110.31 L 63288.5 4171.63 Z M 64552.2 4504.88 L 63288.5 4504.88 L 63288.5 4704.83 L 64552.2 4704.83 L 64552.2 4504.88 Z M 64552.2 4443.56 L 64552.2 4232.95 L 63288.5 4232.95 L 63288.5 4443.56 L 64552.2 4443.56 Z M 62731.3 3907.69 C 62813.9 3923.69 62859.3 3926.36 62965.9 3926.36 L 65114.7 3926.36 C 65133.4 3926.36 65141.4 3929.02 65141.4 3937.02 C 65141.4 3942.36 65138.7 3950.34 65133.4 3955.69 C 65032.1 4046.33 65000.1 4072.98 64893.4 4160.97 C 64829.4 4088.98 64808.1 4064.98 64738.8 3987.67 L 62965.9 3987.67 C 62837.9 3987.67 62797.9 3990.34 62718 4011.67 L 62731.3 3907.69 "/>
<path transform="matrix(.00359712,0,0,-.00359712,0,197)" stroke-width="332.357" stroke-linecap="butt" stroke-miterlimit="10" stroke-linejoin="miter" fill="none" stroke="#610b0b" d="M 11647.6 43082.5 L 19528.1 43082.5 L 19528.1 31261.9 L 27408.5 31261.9 L 27408.5 19441.3 L 35288.9 19441.3 L 35288.9 11560.9 L 43169.3 11560.9 L 43169.3 8408.73 L 51049.7 8408.73 "/>
<path transform="matrix(.00359712,0,0,-.00359712,0,197)" d="M 53362.7 9208.89 L 52578.9 9208.89 C 52578.9 9256.88 52578.9 9270.2 52573.6 9323.53 L 52533.6 9323.53 C 52512.2 9208.89 52498.9 9163.56 52472.3 9104.91 C 52440.3 9043.59 52386.9 8984.94 52339 8958.28 C 52299 8936.95 52288.3 8920.95 52288.3 8886.3 C 52288.3 8856.97 52301.6 8798.33 52315 8766.33 C 52325.6 8739.67 52347 8723.67 52368.3 8723.67 C 52408.3 8723.67 52453.6 8761 52490.9 8824.98 C 52530.9 8891.63 52560.2 9008.94 52576.2 9147.56 L 53362.7 9147.56 L 53362.7 8968.94 C 53362.7 8800.98 53357.4 8651.69 53352 8510.39 C 53352 8486.39 53365.4 8478.41 53397.4 8478.41 C 53528 8486.39 53538.7 8489.06 53544 8531.72 C 53536 8771.66 53536 8854.31 53536 9000.94 L 53536 9147.56 L 54381.1 9147.56 C 54370.5 9046.27 54365.1 9008.94 54338.5 8880.97 L 54365.1 8872.97 C 54429.1 8942.28 54429.1 8942.28 54554.4 9088.92 C 54671.7 9104.91 54671.7 9104.91 54693 9118.23 C 54698.4 9120.91 54703.7 9128.91 54703.7 9134.23 C 54703.7 9142.23 54695.7 9152.91 54677 9166.23 C 54583.7 9243.55 54554.4 9264.88 54455.8 9339.52 C 54402.4 9283.53 54386.4 9264.88 54338.5 9208.89 L 53536 9208.89 L 53536 9422.17 L 54397.1 9422.17 C 54407.8 9422.17 54426.4 9438.16 54426.4 9448.83 C 54426.4 9451.5 54418.4 9462.16 54410.4 9472.83 C 54303.8 9558.14 54271.8 9582.13 54170.5 9662.11 C 54098.5 9584.8 54077.2 9560.8 54010.5 9483.48 L 52832.2 9483.48 C 52717.5 9483.48 52632.2 9488.81 52525.6 9502.14 L 52538.9 9411.5 C 52701.5 9422.17 52725.5 9422.17 52832.2 9422.17 L 53362.7 9422.17 L 53362.7 9208.89 Z M 54629 8310.44 C 54642.4 8310.44 54661 8321.11 54661 8331.77 C 54661 8337.09 54655.7 8347.77 54647.7 8355.77 C 54549.1 8438.41 54517.1 8462.41 54415.8 8534.39 C 54351.8 8467.73 54333.1 8443.73 54266.5 8371.77 L 52634.9 8371.77 C 52480.3 8371.77 52386.9 8377.09 52285.6 8390.42 L 52299 8297.11 C 52331 8299.78 52442.9 8305.11 52634.9 8310.44 L 53322.7 8310.44 C 53298.7 8222.47 53282.7 8182.47 53229.4 8097.16 L 52770.8 8097.16 C 52680.2 8150.48 52650.9 8166.47 52557.6 8211.8 C 52565.6 8139.81 52570.9 7961.19 52570.9 7745.25 C 52570.9 7563.95 52568.2 7321.36 52562.9 7238.7 C 52568.2 7217.38 52581.6 7206.72 52605.5 7206.72 C 52640.2 7206.72 52706.9 7214.72 52720.2 7222.7 C 52733.5 7228.05 52738.9 7236.05 52741.5 7254.7 L 52741.5 8035.84 L 53090.8 8035.84 L 53090.8 7745.25 C 53088.1 7404 53088.1 7404 53085.4 7286.69 C 53093.4 7268.03 53104.1 7262.7 53136.1 7262.7 C 53232.1 7262.7 53258.7 7270.7 53264.1 7302.69 C 53261.4 7433.33 53261.4 7433.33 53261.4 7763.91 L 53261.4 8035.84 L 53608 8035.84 L 53608 7771.91 C 53608 7606.61 53605.3 7420 53600 7289.36 C 53605.3 7268.03 53616 7262.7 53642.6 7262.7 C 53735.9 7262.7 53765.3 7273.36 53773.3 7305.36 C 53770.6 7393.33 53770.6 7393.33 53767.9 7782.58 L 53767.9 8035.84 L 54181.2 8035.84 L 54181.2 7462.66 C 54181.2 7441.33 54175.8 7435.98 54149.2 7433.33 C 54010.5 7438.66 53965.2 7438.66 53853.3 7446.66 L 53853.3 7414.66 C 54029.2 7369.34 54079.9 7332.02 54101.2 7233.38 C 54298.5 7262.7 54346.5 7300.03 54359.8 7433.33 C 54357.1 7555.95 54357.1 7614.61 54357.1 7699.92 L 54357.1 7998.52 C 54418.4 8030.52 54437.1 8043.84 54437.1 8065.17 C 54437.1 8075.83 54429.1 8083.83 54410.4 8097.16 C 54346.5 8147.81 54325.1 8163.81 54253.1 8211.8 C 54207.8 8163.81 54194.5 8147.81 54149.2 8097.16 L 53298.7 8097.16 C 53384 8150.48 53392 8155.81 53562.7 8310.44 L 54629 8310.44 Z M 52637.5 8862.3 C 52701.5 8870.3 52730.9 8872.97 52786.8 8872.97 L 53229.4 8872.97 C 53242.7 8872.97 53256.1 8883.63 53256.1 8894.3 C 53256.1 8896.97 53250.7 8910.3 53245.4 8918.3 C 53170.8 8987.61 53146.8 9008.94 53077.4 9070.25 C 53016.1 9014.27 52997.5 8995.61 52941.5 8934.28 L 52786.8 8934.28 C 52746.8 8934.28 52698.9 8939.63 52624.2 8950.28 L 52637.5 8862.3 Z M 53634.6 8864.97 C 53704 8870.3 53735.9 8872.97 53783.9 8872.97 L 54271.8 8872.97 C 54287.8 8872.97 54301.1 8880.97 54301.1 8891.63 C 54301.1 8896.97 54295.8 8907.63 54287.8 8915.63 C 54215.8 8987.61 54191.8 9008.94 54114.5 9072.92 C 54058.5 9014.27 54042.5 8995.61 53989.2 8934.28 L 53783.9 8934.28 C 53727.9 8934.28 53727.9 8934.28 53624 8950.28 L 53634.6 8864.97 Z M 53637.3 8579.7 C 53733.3 8585.05 53762.6 8587.7 53797.3 8587.7 L 54357.1 8587.7 C 54381.1 8587.7 54397.1 8595.7 54397.1 8609.03 C 54397.1 8614.36 54391.8 8619.7 54383.8 8630.36 C 54295.8 8705.02 54266.5 8726.34 54181.2 8795.66 C 54127.8 8734.34 54109.2 8713.02 54058.5 8649.03 L 53797.3 8649.03 C 53725.3 8649.03 53725.3 8649.03 53674.6 8657.02 C 53664 8657.02 53645.3 8659.69 53624 8662.36 L 53637.3 8579.7 Z M 52533.6 8579.7 C 52602.9 8587.7 52629.5 8587.7 52701.5 8587.7 L 53234.7 8587.7 C 53266.7 8587.7 53277.4 8593.03 53277.4 8603.7 C 53277.4 8609.03 53272 8619.7 53261.4 8630.36 C 53186.7 8702.34 53162.8 8723.67 53090.8 8787.66 C 53026.8 8726.34 53005.5 8707.67 52944.1 8649.03 L 52701.5 8649.03 C 52632.2 8649.03 52573.6 8654.36 52517.6 8667.69 L 52533.6 8579.7 " fill="#610b0b"/>
<path transform="matrix(.00359712,0,0,-.00359712,0,197)" d="M 57334 8126.48 C 57350 8126.48 57360.7 8131.81 57360.7 8142.48 C 57360.7 8147.81 57355.4 8155.81 57344.7 8169.14 C 57251.4 8254.45 57219.4 8281.11 57115.4 8363.77 C 57043.5 8291.78 57022.1 8270.45 56950.1 8187.8 L 55905.1 8187.8 C 55945 8246.45 55958.4 8267.78 56014.4 8355.77 C 56097 8366.42 56123.7 8377.09 56123.7 8395.75 C 56123.7 8411.75 56102.3 8422.41 55886.4 8486.39 C 55857.1 8414.42 55819.8 8350.44 55710.4 8187.8 L 55150.6 8187.8 C 55033.3 8187.8 54993.3 8193.14 54913.3 8217.13 L 54929.3 8113.16 C 54977.3 8123.83 54977.3 8123.83 55147.9 8126.48 L 55667.8 8126.48 C 55574.5 7995.86 55523.8 7931.88 55358.5 7729.25 C 55331.9 7697.27 55329.2 7694.59 55329.2 7686.59 C 55329.2 7683.92 55331.9 7678.59 55337.2 7675.94 C 55350.5 7667.94 55443.8 7649.27 55470.5 7649.27 C 55483.8 7649.27 55494.5 7654.61 55507.8 7670.59 C 55553.1 7721.25 55566.5 7737.25 55598.5 7774.58 C 55795.8 7742.58 55873.1 7723.92 56065 7665.27 C 55937 7566.63 55814.4 7494.64 55670.5 7433.33 C 55465.2 7348.02 55289.2 7305.36 54948 7254.7 L 54948 7209.38 C 55238.6 7214.72 55430.5 7244.03 55681.1 7321.36 C 55899.7 7388 56054.4 7470.64 56227.7 7611.95 C 56486.3 7515.97 56640.9 7441.33 56851.5 7310.69 C 57006.1 7214.72 57016.8 7206.72 57035.5 7206.72 C 57062.1 7206.72 57080.8 7233.38 57080.8 7270.7 C 57080.8 7348.02 57019.5 7451.98 56947.5 7494.64 C 56870.2 7539.97 56608.9 7625.28 56329 7699.92 C 56475.6 7841.22 56539.6 7923.88 56656.9 8126.48 L 57334 8126.48 Z M 56454.3 8126.48 C 56361 7950.53 56297 7870.55 56155.7 7739.92 C 56014.4 7766.58 55921.1 7782.58 55635.8 7819.89 C 55721.1 7926.53 55769.1 7993.19 55862.4 8126.48 L 56454.3 8126.48 Z M 56472.9 9411.5 L 57307.4 9411.5 C 57318 9411.5 57326 9419.5 57326 9427.5 C 57326 9432.83 57318 9443.5 57310 9454.16 C 57208.7 9536.81 57176.8 9563.47 57072.8 9640.78 C 57006.1 9571.47 56984.8 9550.14 56915.5 9472.83 L 55190.6 9472.83 C 55083.9 9472.83 55025.3 9480.81 54958.6 9499.48 L 54974.6 9395.5 C 55038.6 9406.17 55110.6 9411.5 55163.9 9411.5 L 55758.4 9411.5 L 55758.4 9072.92 L 55393.2 9072.92 C 55297.2 9120.91 55267.9 9136.91 55177.2 9174.23 C 55177.2 9120.91 55177.2 9067.59 55179.9 9011.59 C 55182.6 8840.98 55182.6 8840.98 55182.6 8758.33 C 55182.6 8659.69 55182.6 8577.05 55177.2 8414.42 C 55177.2 8393.09 55187.9 8385.09 55211.9 8385.09 C 55329.2 8385.09 55350.5 8393.09 55350.5 8427.75 L 55350.5 8499.73 L 56894.2 8499.73 L 56894.2 8414.42 C 56894.2 8390.42 56904.8 8379.75 56931.5 8379.75 C 57046.1 8379.75 57078.1 8387.75 57078.1 8419.75 C 57078.1 8419.75 57078.1 8425.08 57078.1 8427.75 C 57067.4 8579.7 57067.4 8579.7 57064.8 8971.61 C 57136.8 9014.27 57144.8 9022.27 57144.8 9038.27 C 57144.8 9046.27 57139.4 9054.25 57118.1 9072.92 C 57054.1 9123.58 57035.5 9139.56 56971.5 9187.56 C 56926.1 9139.56 56910.1 9123.58 56864.8 9072.92 L 56472.9 9072.92 L 56472.9 9411.5 Z M 56307.6 9411.5 L 56307.6 9072.92 L 55921.1 9072.92 L 55921.1 9411.5 L 56307.6 9411.5 Z M 55758.4 9011.59 L 55758.4 8561.05 L 55350.5 8561.05 L 55350.5 9011.59 L 55758.4 9011.59 Z M 55921.1 9011.59 L 56307.6 9011.59 L 56307.6 8561.05 L 55921.1 8561.05 L 55921.1 9011.59 Z M 56472.9 9011.59 L 56894.2 9011.59 L 56894.2 8561.05 L 56472.9 8561.05 L 56472.9 9011.59 " fill="#610b0b"/>
<path transform="matrix(.00359712,0,0,-.00359712,0,197)" d="M 59620.5 7380 L 59620.5 7241.38 C 59623.1 7214.72 59633.8 7209.38 59676.5 7209.38 C 59788.4 7209.38 59817.8 7220.05 59820.4 7262.7 C 59807.1 7526.64 59799.1 8043.84 59799.1 8515.72 L 59799.1 8856.97 C 59879.1 8899.63 59908.4 8923.63 59908.4 8944.95 C 59908.4 8955.61 59900.4 8966.28 59879.1 8984.94 C 59801.8 9040.92 59777.8 9059.59 59697.8 9112.91 C 59649.8 9059.59 59633.8 9043.59 59585.8 8984.94 L 59169.9 8984.94 L 59169.9 9448.83 C 59244.6 9472.83 59273.9 9491.48 59273.9 9515.48 C 59273.9 9520.81 59268.6 9528.81 59260.6 9534.14 C 59236.6 9550.14 59236.6 9550.14 58964.6 9584.8 C 58980.6 9480.81 58980.6 9456.83 58980.6 9280.88 L 58980.6 8984.94 L 58551.4 8984.94 L 58551.4 9448.83 C 58628.7 9467.48 58663.4 9488.81 58663.4 9515.48 C 58663.4 9542.14 58591.4 9558.14 58356.8 9579.47 C 58367.4 9467.48 58370.1 9414.17 58370.1 9312.86 L 58370.1 8984.94 L 57962.2 8984.94 C 57876.9 9046.27 57850.2 9062.25 57756.9 9112.91 C 57764.9 8984.94 57770.3 8627.7 57770.3 8254.45 C 57770.3 7894.55 57762.3 7475.98 57751.6 7233.38 C 57754.3 7204.05 57767.6 7193.39 57804.9 7193.39 C 57807.6 7193.39 57810.3 7193.39 57812.9 7193.39 C 57823.6 7193.39 57836.9 7196.05 57855.6 7196.05 C 57930.2 7196.05 57951.5 7206.72 57962.2 7241.38 L 57962.2 7380 L 59620.5 7380 Z M 59620.5 7441.33 L 59169.9 7441.33 L 59169.9 8185.14 L 59620.5 8185.14 L 59620.5 7441.33 Z M 59620.5 8246.45 L 59169.9 8246.45 L 59169.9 8923.63 L 59620.5 8923.63 L 59620.5 8246.45 Z M 58980.6 7441.33 L 58551.4 7441.33 L 58551.4 8185.14 L 58980.6 8185.14 L 58980.6 7441.33 Z M 58980.6 8246.45 L 58551.4 8246.45 L 58551.4 8923.63 L 58980.6 8923.63 L 58980.6 8246.45 Z M 58370.1 7441.33 L 57962.2 7441.33 L 57962.2 8185.14 L 58370.1 8185.14 L 58370.1 7441.33 Z M 58370.1 8246.45 L 57962.2 8246.45 L 57962.2 8923.63 L 58370.1 8923.63 L 58370.1 8246.45 " fill="#610b0b"/>
<path transform="matrix(.00359712,0,0,-.00359712,0,197)" d="M 60672.5 7830.56 C 60672.5 7681.27 60667.2 7451.98 60656.5 7220.05 C 60659.2 7196.05 60667.2 7185.39 60693.9 7185.39 C 60736.5 7185.39 60803.2 7196.05 60819.2 7204.05 C 60832.5 7212.05 60837.8 7220.05 60837.8 7241.38 C 60832.5 7507.97 60832.5 7515.97 60832.5 7859.89 L 60832.5 8395.75 C 60960.5 8422.41 60960.5 8422.41 61075.1 8449.08 C 61093.8 8390.42 61104.4 8355.77 61115.1 8310.44 C 61123.1 8275.78 61136.4 8259.78 61155.1 8259.78 C 61197.7 8259.78 61245.7 8350.44 61245.7 8430.41 C 61245.7 8470.41 61227.1 8513.06 61187.1 8558.38 C 61112.4 8643.69 61035.1 8715.67 60944.5 8784.98 L 60917.8 8758.33 C 60992.5 8643.69 61019.1 8595.7 61059.1 8497.06 C 60885.8 8481.06 60875.2 8481.06 60587.2 8467.73 C 60813.8 8739.67 60915.1 8870.3 61115.1 9155.56 C 61205.7 9158.23 61232.4 9168.89 61232.4 9192.89 C 61232.4 9219.55 61189.7 9240.88 60973.8 9318.19 C 60925.8 9182.22 60840.5 9003.61 60728.5 8803.66 C 60659.2 8683.69 60613.9 8609.03 60512.6 8465.06 C 60408.6 8462.41 60408.6 8462.41 60384.6 8462.41 C 60347.3 8462.41 60320.6 8465.06 60262 8470.41 C 60299.3 8267.78 60312.6 8227.8 60339.3 8227.8 C 60357.9 8227.8 60368.6 8246.45 60389.9 8323.77 C 60587.2 8353.09 60587.2 8353.09 60672.5 8369.09 L 60672.5 7830.56 Z M 60280.6 9182.22 C 60392.6 9056.92 60467.3 8942.28 60507.2 8843.64 C 60544.6 8737 60547.2 8734.34 60573.9 8734.34 C 60611.2 8734.34 60651.2 8819.66 60651.2 8896.97 C 60651.2 8958.28 60621.9 8998.27 60517.9 9072.92 C 60637.9 9214.22 60683.2 9275.53 60827.2 9496.81 C 60837.8 9494.16 60853.8 9494.16 60856.5 9494.16 C 60928.5 9494.16 60957.8 9504.81 60957.8 9526.14 C 60957.8 9555.47 60957.8 9555.47 60672.5 9656.78 C 60653.9 9536.81 60573.9 9307.53 60477.9 9102.25 C 60413.9 9147.56 60389.9 9163.56 60307.3 9214.22 L 60280.6 9182.22 Z M 61765.6 9360.84 C 61845.6 9424.83 61866.9 9443.5 61949.5 9534.14 C 62037.5 9539.47 62058.9 9547.47 62058.9 9571.47 C 62058.9 9595.45 62029.5 9606.13 61792.3 9672.77 C 61776.3 9574.13 61741.6 9451.5 61701.6 9360.84 L 61528.3 9360.84 C 61451 9411.5 61424.3 9427.5 61339 9475.48 C 61344.4 9368.84 61347 9123.58 61347 8915.63 C 61347 8766.33 61347 8766.33 61339 8449.08 C 61341.7 8425.08 61349.7 8419.75 61371 8419.75 C 61405.7 8419.75 61464.3 8427.75 61483 8435.75 C 61499 8441.08 61504.3 8449.08 61504.3 8470.41 L 61504.3 8542.39 L 61792.3 8542.39 L 61792.3 7454.66 C 61792.3 7427.98 61786.9 7420 61760.3 7420 C 61597.6 7425.33 61541.7 7427.98 61363 7443.98 L 61363 7404 C 61576.3 7353.34 61576.3 7353.34 61605.6 7337.34 C 61661.6 7308.02 61683 7278.7 61691 7214.72 C 61917.6 7260.03 61962.9 7292.03 61962.9 7404 C 61954.9 7598.61 61954.9 7683.92 61952.2 7771.91 C 61952.2 7865.22 61952.2 7926.53 61949.5 7945.2 L 61936.2 8371.77 C 61992.2 8131.81 62048.2 7993.19 62160.2 7806.56 C 62277.5 7614.61 62381.4 7499.97 62576.1 7345.34 C 62613.4 7433.33 62656 7467.98 62746.7 7483.98 L 62757.4 7523.97 C 62624 7577.28 62528.1 7633.28 62394.8 7742.58 C 62293.5 7822.56 62226.8 7891.88 62160.2 7990.52 C 62330.8 8073.17 62386.8 8110.48 62525.4 8219.8 C 62544.1 8217.13 62562.7 8217.13 62568.1 8217.13 C 62629.4 8217.13 62650.7 8225.13 62650.7 8243.8 C 62650.7 8270.45 62629.4 8281.11 62418.8 8390.42 C 62330.8 8243.8 62245.5 8139.81 62130.8 8035.84 C 62021.5 8214.47 61984.2 8318.44 61952.2 8542.39 L 62240.1 8542.39 L 62240.1 8457.08 C 62240.1 8433.08 62250.8 8425.08 62274.8 8425.08 C 62373.5 8425.08 62418.8 8441.08 62418.8 8473.06 C 62418.8 8475.73 62418.8 8478.41 62418.8 8481.06 C 62408.1 8689.02 62405.4 8774.33 62405.4 8928.95 L 62408.1 9256.88 C 62469.4 9288.86 62493.4 9307.53 62493.4 9326.19 C 62493.4 9339.52 62482.8 9352.84 62458.8 9374.17 C 62402.8 9416.83 62384.1 9430.17 62320.1 9475.48 C 62272.1 9427.5 62258.8 9411.5 62213.5 9360.84 L 61765.6 9360.84 Z M 61504.3 8998.27 L 61504.3 9299.53 L 62240.1 9299.53 L 62240.1 8998.27 L 61504.3 8998.27 Z M 62240.1 8936.95 L 62240.1 8603.7 L 61504.3 8603.7 L 61504.3 8936.95 L 62240.1 8936.95 Z M 60251.3 7302.69 C 60381.9 7521.3 60461.9 7726.58 60531.2 8033.17 C 60603.2 8043.84 60621.9 8054.5 60621.9 8075.83 C 60621.9 8102.5 60589.9 8113.16 60387.3 8163.81 C 60384.6 8065.17 60376.6 7995.86 60344.6 7822.56 C 60310 7633.28 60283.3 7526.64 60211.3 7318.69 L 60251.3 7302.69 Z M 60901.8 8177.14 C 60973.8 8003.84 61003.1 7905.2 61032.4 7723.92 C 61045.8 7641.27 61051.1 7630.61 61069.8 7630.61 C 61109.8 7630.61 61173.8 7737.25 61173.8 7803.91 C 61173.8 7881.22 61088.4 8017.19 60931.1 8187.8 L 60901.8 8177.14 Z M 61296.4 8187.8 C 61243.1 8187.8 61211.1 8190.47 61139.1 8206.47 L 61155.1 8110.48 C 61197.7 8121.16 61253.7 8126.48 61312.4 8126.48 L 61507 8126.48 C 61451 7958.53 61405.7 7867.89 61301.7 7718.59 C 61197.7 7563.95 61117.8 7478.64 60973.8 7358.67 L 61000.5 7318.69 C 61160.4 7420 61248.4 7491.97 61357.7 7611.95 C 61493.7 7753.25 61573.6 7878.55 61669.6 8081.17 C 61717.6 8094.5 61741.6 8107.83 61741.6 8121.16 C 61741.6 8131.81 61736.3 8139.81 61709.6 8169.14 C 61656.3 8219.8 61637.6 8233.13 61581.6 8278.45 C 61544.3 8241.13 61531 8230.45 61496.3 8187.8 L 61296.4 8187.8 " fill="#610b0b"/>
<path transform="matrix(.00359712,0,0,-.00359712,0,197)" stroke-width="332.357" stroke-linecap="butt" stroke-miterlimit="10" stroke-linejoin="miter" fill="none" stroke="#2e67b5" d="M 11647.6 8802.66 L 19528.1 8802.66 L 19528.1 11166.8 L 27408.5 11166.8 L 27408.5 17865.2 L 35288.9 17865.2 L 35288.9 28897.7 L 43169.3 28897.7 L 43169.3 39142.3 L 51049.7 39142.3 "/>
<path transform="matrix(.00359712,0,0,-.00359712,0,197)" d="M 54146.5 38905.8 L 54146.5 39609.6 L 54634.4 39609.6 C 54647.7 39609.6 54658.4 39617.6 54658.4 39625.6 C 54658.4 39631 54653 39639 54645 39647 C 54549.1 39726.9 54549.1 39726.9 54413.1 39841.6 C 54351.8 39766.9 54335.8 39745.6 54277.1 39671 L 54146.5 39671 L 54146.5 40164.2 C 54210.5 40177.5 54253.1 40198.8 54253.1 40222.8 C 54253.1 40252.1 54186.5 40268.1 53941.2 40294.8 C 53951.9 40214.8 53957.2 40177.5 53957.2 40121.5 L 53957.2 39671 L 53458.7 39671 L 53458.7 40166.8 C 53538.7 40188.2 53568 40201.5 53568 40222.8 C 53568 40252.1 53522.7 40262.8 53258.7 40294.8 C 53269.4 40206.8 53272 40166.8 53272 40092.2 L 53272 39671 L 53085.4 39671 C 53032.1 39671 52952.1 39681.6 52888.1 39697.6 L 52912.1 39593.6 C 52994.8 39607 53032.1 39609.6 53085.4 39609.6 L 53272 39609.6 L 53272 38905.8 L 52973.5 38905.8 C 52920.1 38905.8 52856.2 38916.5 52789.5 38932.5 L 52813.5 38825.8 C 52890.8 38839.2 52928.1 38844.5 52973.5 38844.5 L 54698.4 38844.5 C 54722.4 38844.5 54733 38849.8 54733 38863.2 C 54733 38868.5 54725 38881.8 54711.7 38892.5 C 54610.4 38975.1 54578.4 38999.1 54471.8 39079.1 C 54410.4 39004.5 54391.8 38980.5 54330.5 38905.8 L 54146.5 38905.8 Z M 53957.2 38905.8 L 53458.7 38905.8 L 53458.7 39609.6 L 53957.2 39609.6 L 53957.2 38905.8 Z M 52227 38972.5 C 52355 39108.4 52397.6 39161.8 52533.6 39375 L 52533.6 38804.5 C 52533.6 38553.9 52528.2 38282 52522.9 37983.4 C 52522.9 37954 52533.6 37948.7 52581.6 37948.7 C 52610.9 37948.7 52653.5 37954 52685.5 37959.4 C 52709.5 37964.7 52714.9 37972.7 52717.5 37994 C 52714.9 38250 52714.9 38250 52714.9 38831.2 L 52714.9 39404.4 C 52784.2 39428.3 52797.5 39433.7 52797.5 39452.3 C 52797.5 39473.7 52781.5 39479 52669.5 39495 C 52656.2 39497.7 52656.2 39497.7 52610.9 39503 C 52738.9 39713.6 52786.8 39812.3 52936.1 40166.8 C 53034.8 40182.8 53066.8 40196.2 53066.8 40217.5 C 53066.8 40244.1 53053.4 40249.5 52888.1 40294.8 C 52858.8 40302.8 52813.5 40316.1 52754.8 40332.1 C 52736.2 40198.8 52696.2 40065.5 52602.9 39814.9 C 52466.9 39455 52362.9 39255.1 52189.7 39009.8 L 52227 38972.5 Z M 52826.8 37951.4 C 53077.4 38090 53298.7 38287.3 53514.7 38559.2 C 53624 38564.6 53650.6 38572.6 53650.6 38601.9 C 53650.6 38625.9 53637.3 38631.2 53370.7 38732.5 C 53333.4 38641.9 53298.7 38580.6 53213.4 38455.3 C 53077.4 38255.3 52960.1 38122 52800.2 37986 L 52826.8 37951.4 Z M 53874.6 38687.2 C 54074.5 38503.2 54261.1 38276.6 54373.1 38076.7 C 54426.4 37980.7 54429.1 37978 54455.8 37978 C 54498.4 37978 54527.8 38050 54527.8 38164.7 C 54527.8 38239.3 54511.8 38274 54450.4 38330 C 54303.8 38465.9 54130.5 38588.5 53898.6 38716.5 L 53874.6 38687.2 " fill="#2e67b5"/>
<path transform="matrix(.00359712,0,0,-.00359712,0,197)" d="M 55166.6 39212.4 C 55145.3 39209.7 55131.9 39209.7 55126.6 39209.7 C 55078.6 39207.1 55049.3 39207.1 55038.6 39207.1 C 55030.6 39207.1 54990.6 39209.7 54950.6 39212.4 C 55004 38972.5 55006.6 38956.5 55030.6 38956.5 C 55051.9 38956.5 55065.3 38983.1 55081.3 39055.1 C 55198.6 39071.1 55230.6 39079.1 55379.9 39113.8 L 55379.9 38519.2 C 55379.9 38332.6 55377.2 38119.3 55371.9 37951.4 C 55371.9 37948.7 55371.9 37946 55371.9 37943.4 C 55371.9 37924.7 55385.2 37914 55411.8 37914 C 55438.5 37914 55513.2 37919.4 55526.5 37922 C 55547.8 37927.4 55553.1 37935.4 55553.1 37956.7 C 55550.5 38111.3 55550.5 38111.3 55547.8 38543.2 L 55547.8 39153.8 C 55678.5 39185.7 55678.5 39185.7 55753.1 39204.4 C 55766.4 39167.1 55774.4 39143.1 55779.8 39113.8 C 55822.4 38945.8 55822.4 38943.1 55843.8 38943.1 C 55883.7 38943.1 55937 39036.4 55937 39105.8 C 55937 39164.4 55915.7 39207.1 55841.1 39300.4 C 55737.1 39428.3 55721.1 39444.3 55654.5 39508.3 L 55625.1 39492.3 C 55678.5 39401.7 55699.8 39353.7 55734.4 39257.7 C 55462.5 39220.4 55462.5 39220.4 55283.9 39215.1 C 55467.8 39409.7 55587.8 39559 55830.4 39894.9 C 55915.7 39905.6 55945 39918.9 55945 39942.9 C 55945 39966.9 55945 39966.9 55681.1 40057.5 C 55561.1 39750.9 55470.5 39591 55206.6 39212.4 L 55166.6 39212.4 Z M 54974.6 39940.2 C 55091.9 39796.3 55179.9 39665.6 55241.2 39540.3 C 55262.5 39495 55275.9 39479 55291.9 39479 C 55323.9 39479 55363.9 39564.3 55363.9 39628.3 C 55363.9 39684.3 55342.5 39710.9 55214.6 39801.6 C 55411.8 40022.9 55433.2 40052.2 55537.2 40220.2 C 55619.8 40225.5 55654.5 40238.8 55654.5 40265.5 C 55654.5 40292.1 55633.1 40300.1 55379.9 40358.8 C 55350.5 40212.2 55275.9 40017.5 55174.6 39830.9 C 55075.9 39900.2 55014.6 39942.9 54990.6 39958.9 L 54974.6 39940.2 Z M 54980 38031.4 C 55113.3 38316.6 55166.6 38465.9 55235.9 38775.2 C 55302.5 38788.5 55329.2 38801.8 55329.2 38820.5 C 55329.2 38847.2 55275.9 38863.2 55070.6 38895.1 L 55070.6 38844.5 C 55070.6 38761.8 55062.6 38684.5 55043.9 38532.6 C 55020 38346 54998.6 38247.3 54937.3 38052.7 L 54980 38031.4 Z M 55654.5 38916.5 C 55697.1 38761.8 55726.4 38559.2 55739.8 38338 C 55745.1 38284.6 55755.8 38260.6 55774.4 38260.6 C 55785.1 38260.6 55809.1 38279.3 55827.8 38303.3 C 55865.1 38346 55891.7 38415.3 55891.7 38465.9 C 55891.7 38513.9 55870.4 38580.6 55819.8 38689.9 C 55769.1 38799.2 55745.1 38841.8 55681.1 38927.1 L 55654.5 38916.5 Z M 55902.4 39303 C 56067.7 39441.7 56155.7 39532.3 56265 39673.6 C 56411.6 39862.9 56488.9 39985.5 56582.2 40182.8 C 56694.2 39921.6 56747.5 39825.6 56838.2 39705.6 C 56955.5 39548.3 57067.4 39444.3 57272.7 39303 C 57312.7 39407 57342 39433.7 57443.3 39471 L 57443.3 39497.7 C 57211.4 39580.3 57096.8 39644.3 56955.5 39769.6 C 56792.8 39916.2 56707.5 40028.2 56627.5 40209.5 C 56696.9 40228.2 56718.2 40241.5 56718.2 40260.1 C 56718.2 40284.1 56718.2 40284.1 56416.9 40356.1 C 56361 40134.8 56243.6 39881.6 56073 39604.3 C 55995.7 39484.3 55961 39439 55873.1 39343 L 55902.4 39303 Z M 56211.7 38924.5 C 56131.7 38985.8 56107.7 39001.8 56019.7 39055.1 C 56027.7 38897.8 56030.4 38735.2 56030.4 38500.6 C 56030.4 38316.6 56027.7 38199.3 56019.7 37962 C 56022.4 37940.7 56033 37935.4 56065 37935.4 C 56105 37935.4 56158.3 37940.7 56171.7 37943.4 C 56190.3 37948.7 56195.7 37956.7 56195.7 37980.7 L 56195.7 38108.7 L 56918.1 38108.7 L 56918.1 37983.4 C 56918.1 37954 56926.1 37946 56952.8 37946 C 57011.5 37946 57072.8 37954 57088.8 37964.7 C 57096.8 37972.7 57099.4 37983.4 57099.4 38004.7 C 57096.8 38148.7 57094.1 38332.6 57094.1 38641.9 L 57094.1 38831.2 C 57152.8 38863.2 57168.8 38876.5 57168.8 38895.1 C 57168.8 38903.1 57160.8 38913.8 57144.8 38927.1 C 57086.1 38983.1 57064.8 38999.1 57000.8 39055.1 C 56952.8 38999.1 56939.5 38983.1 56894.2 38924.5 L 56211.7 38924.5 Z M 56195.7 38863.2 L 56918.1 38863.2 L 56918.1 38170 L 56195.7 38170 L 56195.7 38863.2 Z M 56299.6 39364.4 C 56217 39364.4 56174.3 39369.7 56105 39383 L 56123.7 39287 C 56177 39297.7 56227.7 39303 56299.6 39303 L 57022.1 39303 C 57046.1 39303 57056.8 39308.4 57056.8 39319 C 57056.8 39324.4 57054.1 39332.4 57046.1 39340.4 C 56966.1 39423 56942.1 39447 56854.2 39524.3 C 56795.5 39460.3 56776.8 39439 56720.9 39364.4 L 56299.6 39364.4 " fill="#2e67b5"/>
<path transform="matrix(.00359712,0,0,-.00359712,0,197)" d="M 59620.5 38114 L 59620.5 37975.4 C 59623.1 37948.7 59633.8 37943.4 59676.5 37943.4 C 59788.4 37943.4 59817.8 37954 59820.4 37996.7 C 59807.1 38260.6 59799.1 38777.8 59799.1 39249.7 L 59799.1 39591 C 59879.1 39633.6 59908.4 39657.6 59908.4 39679 C 59908.4 39689.6 59900.4 39700.3 59879.1 39718.9 C 59801.8 39774.9 59777.8 39793.6 59697.8 39846.9 C 59649.8 39793.6 59633.8 39777.6 59585.8 39718.9 L 59169.9 39718.9 L 59169.9 40182.8 C 59244.6 40206.8 59273.9 40225.5 59273.9 40249.5 C 59273.9 40254.8 59268.6 40262.8 59260.6 40268.1 C 59236.6 40284.1 59236.6 40284.1 58964.6 40318.8 C 58980.6 40214.8 58980.6 40190.8 58980.6 40014.9 L 58980.6 39718.9 L 58551.4 39718.9 L 58551.4 40182.8 C 58628.7 40201.5 58663.4 40222.8 58663.4 40249.5 C 58663.4 40276.1 58591.4 40292.1 58356.8 40313.5 C 58367.4 40201.5 58370.1 40148.2 58370.1 40046.9 L 58370.1 39718.9 L 57962.2 39718.9 C 57876.9 39780.3 57850.2 39796.3 57756.9 39846.9 C 57764.9 39718.9 57770.3 39361.7 57770.3 38988.5 C 57770.3 38628.5 57762.3 38210 57751.6 37967.4 C 57754.3 37938 57767.6 37927.4 57804.9 37927.4 C 57807.6 37927.4 57810.3 37927.4 57812.9 37927.4 C 57823.6 37927.4 57836.9 37930 57855.6 37930 C 57930.2 37930 57951.5 37940.7 57962.2 37975.4 L 57962.2 38114 L 59620.5 38114 Z M 59620.5 38175.3 L 59169.9 38175.3 L 59169.9 38919.1 L 59620.5 38919.1 L 59620.5 38175.3 Z M 59620.5 38980.5 L 59169.9 38980.5 L 59169.9 39657.6 L 59620.5 39657.6 L 59620.5 38980.5 Z M 58980.6 38175.3 L 58551.4 38175.3 L 58551.4 38919.1 L 58980.6 38919.1 L 58980.6 38175.3 Z M 58980.6 38980.5 L 58551.4 38980.5 L 58551.4 39657.6 L 58980.6 39657.6 L 58980.6 38980.5 Z M 58370.1 38175.3 L 57962.2 38175.3 L 57962.2 38919.1 L 58370.1 38919.1 L 58370.1 38175.3 Z M 58370.1 38980.5 L 57962.2 38980.5 L 57962.2 39657.6 L 58370.1 39657.6 L 58370.1 38980.5 " fill="#2e67b5"/>
<path transform="matrix(.00359712,0,0,-.00359712,0,197)" d="M 60672.5 38564.6 C 60672.5 38415.3 60667.2 38186 60656.5 37954 C 60659.2 37930 60667.2 37919.4 60693.9 37919.4 C 60736.5 37919.4 60803.2 37930 60819.2 37938 C 60832.5 37946 60837.8 37954 60837.8 37975.4 C 60832.5 38242 60832.5 38250 60832.5 38593.9 L 60832.5 39129.8 C 60960.5 39156.4 60960.5 39156.4 61075.1 39183.1 C 61093.8 39124.4 61104.4 39089.8 61115.1 39044.4 C 61123.1 39009.8 61136.4 38993.8 61155.1 38993.8 C 61197.7 38993.8 61245.7 39084.4 61245.7 39164.4 C 61245.7 39204.4 61227.1 39247.1 61187.1 39292.4 C 61112.4 39377.7 61035.1 39449.7 60944.5 39519 L 60917.8 39492.3 C 60992.5 39377.7 61019.1 39329.7 61059.1 39231.1 C 60885.8 39215.1 60875.2 39215.1 60587.2 39201.7 C 60813.8 39473.7 60915.1 39604.3 61115.1 39889.6 C 61205.7 39892.2 61232.4 39902.9 61232.4 39926.9 C 61232.4 39953.5 61189.7 39974.9 60973.8 40052.2 C 60925.8 39916.2 60840.5 39737.6 60728.5 39537.7 C 60659.2 39417.7 60613.9 39343 60512.6 39199.1 C 60408.6 39196.4 60408.6 39196.4 60384.6 39196.4 C 60347.3 39196.4 60320.6 39199.1 60262 39204.4 C 60299.3 39001.8 60312.6 38961.8 60339.3 38961.8 C 60357.9 38961.8 60368.6 38980.5 60389.9 39057.8 C 60587.2 39087.1 60587.2 39087.1 60672.5 39103.1 L 60672.5 38564.6 Z M 60280.6 39916.2 C 60392.6 39790.9 60467.3 39676.3 60507.2 39577.6 C 60544.6 39471 60547.2 39468.3 60573.9 39468.3 C 60611.2 39468.3 60651.2 39553.7 60651.2 39631 C 60651.2 39692.3 60621.9 39732.3 60517.9 39806.9 C 60637.9 39948.2 60683.2 40009.5 60827.2 40230.8 C 60837.8 40228.2 60853.8 40228.2 60856.5 40228.2 C 60928.5 40228.2 60957.8 40238.8 60957.8 40260.1 C 60957.8 40289.5 60957.8 40289.5 60672.5 40390.8 C 60653.9 40270.8 60573.9 40041.5 60477.9 39836.3 C 60413.9 39881.6 60389.9 39897.6 60307.3 39948.2 L 60280.6 39916.2 Z M 61765.6 40094.8 C 61845.6 40158.8 61866.9 40177.5 61949.5 40268.1 C 62037.5 40273.5 62058.9 40281.5 62058.9 40305.5 C 62058.9 40329.5 62029.5 40340.1 61792.3 40406.8 C 61776.3 40308.1 61741.6 40185.5 61701.6 40094.8 L 61528.3 40094.8 C 61451 40145.5 61424.3 40161.5 61339 40209.5 C 61344.4 40102.8 61347 39857.6 61347 39649.6 C 61347 39500.3 61347 39500.3 61339 39183.1 C 61341.7 39159.1 61349.7 39153.8 61371 39153.8 C 61405.7 39153.8 61464.3 39161.8 61483 39169.8 C 61499 39175.1 61504.3 39183.1 61504.3 39204.4 L 61504.3 39276.4 L 61792.3 39276.4 L 61792.3 38188.7 C 61792.3 38162 61786.9 38154 61760.3 38154 C 61597.6 38159.3 61541.7 38162 61363 38178 L 61363 38138 C 61576.3 38087.3 61576.3 38087.3 61605.6 38071.3 C 61661.6 38042 61683 38012.7 61691 37948.7 C 61917.6 37994 61962.9 38026 61962.9 38138 C 61954.9 38332.6 61954.9 38417.9 61952.2 38505.9 C 61952.2 38599.2 61952.2 38660.5 61949.5 38679.2 L 61936.2 39105.8 C 61992.2 38865.8 62048.2 38727.2 62160.2 38540.6 C 62277.5 38348.6 62381.4 38234 62576.1 38079.3 C 62613.4 38167.3 62656 38202 62746.7 38218 L 62757.4 38258 C 62624 38311.3 62528.1 38367.3 62394.8 38476.6 C 62293.5 38556.6 62226.8 38625.9 62160.2 38724.5 C 62330.8 38807.2 62386.8 38844.5 62525.4 38953.8 C 62544.1 38951.1 62562.7 38951.1 62568.1 38951.1 C 62629.4 38951.1 62650.7 38959.1 62650.7 38977.8 C 62650.7 39004.5 62629.4 39015.1 62418.8 39124.4 C 62330.8 38977.8 62245.5 38873.8 62130.8 38769.8 C 62021.5 38948.5 61984.2 39052.4 61952.2 39276.4 L 62240.1 39276.4 L 62240.1 39191.1 C 62240.1 39167.1 62250.8 39159.1 62274.8 39159.1 C 62373.5 39159.1 62418.8 39175.1 62418.8 39207.1 C 62418.8 39209.7 62418.8 39212.4 62418.8 39215.1 C 62408.1 39423 62405.4 39508.3 62405.4 39663 L 62408.1 39990.9 C 62469.4 40022.9 62493.4 40041.5 62493.4 40060.2 C 62493.4 40073.5 62482.8 40086.8 62458.8 40108.2 C 62402.8 40150.8 62384.1 40164.2 62320.1 40209.5 C 62272.1 40161.5 62258.8 40145.5 62213.5 40094.8 L 61765.6 40094.8 Z M 61504.3 39732.3 L 61504.3 40033.5 L 62240.1 40033.5 L 62240.1 39732.3 L 61504.3 39732.3 Z M 62240.1 39671 L 62240.1 39337.7 L 61504.3 39337.7 L 61504.3 39671 L 62240.1 39671 Z M 60251.3 38036.7 C 60381.9 38255.3 60461.9 38460.6 60531.2 38767.2 C 60603.2 38777.8 60621.9 38788.5 60621.9 38809.8 C 60621.9 38836.5 60589.9 38847.2 60387.3 38897.8 C 60384.6 38799.2 60376.6 38729.9 60344.6 38556.6 C 60310 38367.3 60283.3 38260.6 60211.3 38052.7 L 60251.3 38036.7 Z M 60901.8 38911.1 C 60973.8 38737.8 61003.1 38639.2 61032.4 38457.9 C 61045.8 38375.3 61051.1 38364.6 61069.8 38364.6 C 61109.8 38364.6 61173.8 38471.3 61173.8 38537.9 C 61173.8 38615.2 61088.4 38751.2 60931.1 38921.8 L 60901.8 38911.1 Z M 61296.4 38921.8 C 61243.1 38921.8 61211.1 38924.5 61139.1 38940.5 L 61155.1 38844.5 C 61197.7 38855.2 61253.7 38860.5 61312.4 38860.5 L 61507 38860.5 C 61451 38692.5 61405.7 38601.9 61301.7 38452.6 C 61197.7 38298 61117.8 38212.6 60973.8 38092.7 L 61000.5 38052.7 C 61160.4 38154 61248.4 38226 61357.7 38346 C 61493.7 38487.3 61573.6 38612.5 61669.6 38815.2 C 61717.6 38828.5 61741.6 38841.8 61741.6 38855.2 C 61741.6 38865.8 61736.3 38873.8 61709.6 38903.1 C 61656.3 38953.8 61637.6 38967.1 61581.6 39012.5 C 61544.3 38975.1 61531 38964.5 61496.3 38921.8 L 61296.4 38921.8 " fill="#2e67b5"/>
<path transform="matrix(.00359712,0,0,-.00359712,0,197)" stroke-width="110.783" stroke-linecap="butt" stroke-dasharray="830.895,830.895" stroke-miterlimit="10" stroke-linejoin="miter" fill="none" stroke="#000000" d="M 35288.9 18653.2 L 11647.6 18653.2 "/>
<path transform="matrix(.00359712,0,0,-.00359712,0,197)" d="M 662.172 19106.3 L 662.172 19700.8 C 744.813 19724.8 776.813 19743.5 776.813 19767.5 C 776.813 19791.5 744.813 19802.1 608.859 19815.5 C 576.859 19818.1 528.875 19823.5 464.891 19831.5 C 475.547 19690.2 480.891 19618.2 480.891 19495.5 L 480.891 19106.3 L 299.594 19106.3 C 256.938 19106.3 195.625 19114.3 128.969 19130.3 L 144.969 19026.3 C 190.281 19037 256.938 19045 299.594 19045 L 480.891 19045 L 480.891 18181.2 C 243.609 18109.2 243.609 18109.2 147.625 18087.9 C 224.953 17863.9 248.938 17808 272.938 17808 C 296.922 17808 307.594 17840 320.922 17941.3 C 771.484 18159.9 912.781 18239.9 1094.06 18365.2 L 1078.06 18407.8 C 878.125 18319.8 800.797 18287.8 662.172 18237.2 L 662.172 19045 L 1056.73 19045 C 968.766 18874.4 934.109 18818.4 832.797 18677.1 L 864.781 18647.8 C 1006.09 18778.4 1072.73 18855.7 1187.38 19031.7 C 1240.7 19114.3 1280.69 19178.3 1323.34 19258.3 L 2221.78 19258.3 C 2221.78 18938.3 2219.13 18794.4 2205.8 18621.1 C 2184.47 18335.8 2141.81 18039.9 2099.16 17895.9 C 2056.5 17752 2005.84 17690.7 1928.53 17690.7 C 1928.53 17690.7 1925.86 17690.7 1920.53 17690.7 C 1917.86 17690.7 1899.2 17693.3 1869.88 17693.3 C 1848.55 17693.3 1712.58 17709.3 1464.64 17738.6 L 1459.31 17690.7 C 1675.25 17629.3 1720.58 17613.3 1763.23 17584 C 1816.55 17552 1835.22 17520 1845.88 17442.7 C 2016.5 17469.4 2091.16 17504 2157.8 17581.3 C 2243.11 17685.3 2315.09 17914.6 2360.42 18239.9 C 2392.41 18479.8 2403.08 18653.1 2419.08 19189 C 2488.39 19228.9 2512.38 19244.9 2512.38 19268.9 C 2512.38 19279.6 2504.39 19292.9 2483.06 19311.6 C 2416.41 19367.6 2395.08 19386.2 2320.42 19444.9 C 2267.11 19391.6 2251.11 19372.9 2203.13 19319.6 L 1355.33 19319.6 C 1413.98 19434.2 1445.98 19511.5 1517.95 19703.5 C 1608.61 19714.2 1643.27 19727.5 1643.27 19754.1 C 1643.27 19778.1 1616.61 19786.1 1483.3 19820.8 C 1451.31 19828.8 1400.66 19842.1 1334 19858.1 C 1315.34 19727.5 1299.34 19663.5 1238.03 19479.5 C 1187.38 19324.9 1147.39 19228.9 1072.73 19077 L 1070.08 19079.6 C 990.094 19159.6 963.438 19183.6 872.781 19260.9 C 816.797 19194.3 800.797 19173 747.484 19106.3 L 662.172 19106.3 Z M 2093.81 18498.5 C 1701.92 18349.2 1288.69 18231.9 1040.75 18202.5 C 1123.39 17957.3 1147.39 17901.3 1176.72 17901.3 C 1203.38 17901.3 1211.38 17927.9 1222.03 18034.6 C 1669.92 18213.2 1840.55 18293.2 2112.48 18458.5 L 2093.81 18498.5 Z M 1339.34 18821 C 1296.69 18821 1235.36 18829 1168.72 18845 L 1184.7 18741.1 C 1230.03 18751.7 1294.02 18759.7 1339.34 18759.7 L 1909.86 18759.7 C 1925.86 18759.7 1939.19 18765.1 1939.19 18773 C 1939.19 18778.4 1933.86 18786.4 1928.53 18794.4 C 1848.55 18874.4 1821.89 18898.4 1731.23 18978.3 C 1675.25 18909 1659.27 18887.7 1605.94 18821 L 1339.34 18821 "/>
<path transform="matrix(.00359712,0,0,-.00359712,0,197)" d="M 4972.09 19015.7 L 5262.69 19015.7 C 5281.36 19015.7 5289.36 19021 5289.36 19029 C 5289.36 19037 5284.02 19042.3 5273.36 19053 C 5188.05 19146.3 5161.39 19173 5068.08 19252.9 C 5001.42 19178.3 4980.09 19154.3 4916.11 19077 L 4510.88 19077 L 4510.88 19098.3 C 4550.88 19122.3 4566.86 19141 4566.86 19157 C 4566.86 19167.6 4556.2 19178.3 4534.88 19194.3 C 4484.22 19228.9 4468.22 19239.6 4414.91 19271.6 C 4382.91 19234.3 4372.25 19220.9 4337.59 19181 L 4049.66 19181 C 4116.31 19255.6 4129.64 19268.9 4262.94 19450.2 C 4286.94 19458.2 4305.59 19463.5 4318.92 19466.2 C 4334.92 19468.9 4348.25 19471.5 4356.25 19476.9 C 4369.58 19479.5 4377.58 19490.2 4377.58 19498.2 C 4377.58 19508.9 4372.25 19516.9 4353.58 19535.5 C 4294.94 19594.2 4276.27 19612.8 4209.63 19668.8 C 4158.97 19628.8 4142.97 19615.5 4094.98 19572.9 L 3881.7 19572.9 C 3908.36 19623.5 3921.69 19650.2 3956.34 19732.8 C 4047 19746.1 4065.66 19754.1 4065.66 19775.5 C 4065.66 19802.1 4012.34 19823.5 3793.72 19871.5 C 3748.41 19610.2 3564.45 19189 3385.83 18938.3 L 3423.14 18909 C 3473.8 18962.3 3487.13 18978.3 3524.45 19023.7 L 3524.45 18754.4 L 3519.13 18335.8 C 3519.13 18330.5 3519.13 18325.2 3519.13 18322.5 C 3519.13 18309.2 3527.13 18301.2 3543.13 18301.2 C 3631.09 18301.2 3671.09 18317.2 3671.09 18349.2 C 3671.09 18351.8 3671.09 18357.2 3671.09 18365.2 L 3671.09 18445.1 L 4361.58 18445.1 L 4361.58 18365.2 C 4361.58 18341.2 4369.58 18330.5 4390.91 18330.5 C 4417.56 18330.5 4486.89 18341.2 4500.22 18346.5 C 4513.55 18351.8 4518.88 18359.8 4518.88 18381.2 C 4510.88 18850.4 4510.88 18853 4510.88 19015.7 L 4796.14 19015.7 L 4796.14 17690.7 C 4796.14 17669.3 4788.14 17661.3 4772.16 17661.3 C 4766.81 17661.3 4761.48 17661.3 4756.16 17661.3 C 4638.84 17664 4620.19 17666.7 4452.23 17685.3 C 4446.89 17773.3 4428.23 17792 4308.27 17850.6 C 4220.28 17890.6 4118.98 17933.3 3996.34 17975.9 C 4015 18026.6 4015 18026.6 4031 18077.2 L 4630.84 18077.2 C 4660.17 18077.2 4665.52 18079.9 4665.52 18090.6 C 4665.52 18095.9 4660.17 18106.5 4654.84 18119.9 C 4577.53 18186.5 4550.88 18205.2 4470.89 18271.8 C 4422.91 18215.9 4406.91 18197.2 4361.58 18138.5 L 4047 18138.5 C 4052.33 18175.9 4055 18191.9 4062.98 18266.5 C 4140.3 18290.5 4166.97 18306.5 4166.97 18319.8 C 4166.97 18338.5 4140.3 18346.5 4017.67 18354.5 L 3913.69 18365.2 C 3913.69 18343.8 3913.69 18327.8 3913.69 18319.8 C 3913.69 18250.5 3908.36 18205.2 3895.03 18138.5 L 3567.11 18138.5 C 3564.45 18138.5 3505.8 18143.9 3479.14 18143.9 C 3425.81 18149.2 3425.81 18149.2 3380.5 18165.2 L 3401.83 18061.2 C 3479.14 18074.6 3516.45 18077.2 3567.11 18077.2 L 3879.03 18077.2 C 3804.39 17848 3620.44 17674.7 3319.17 17546.7 L 3337.84 17506.7 C 3524.45 17560 3628.44 17605.3 3737.73 17677.3 C 3849.7 17754.6 3919.03 17826.6 3975.02 17933.3 C 4150.97 17808 4273.61 17696 4350.92 17589.3 C 4374.91 17557.4 4382.91 17549.4 4396.23 17549.4 C 4420.23 17549.4 4436.23 17576 4446.89 17640 C 4492.22 17629.3 4492.22 17629.3 4505.55 17624 C 4585.53 17605.3 4612.19 17592 4646.84 17557.4 C 4673.5 17528 4684.17 17509.4 4692.17 17458.7 C 4822.8 17482.7 4886.78 17504 4929.44 17536 C 4961.44 17560 4972.09 17581.3 4974.77 17642.7 C 4972.09 18018.6 4972.09 18018.6 4972.09 18138.5 L 4972.09 19015.7 Z M 3644.42 19186.3 C 3743.06 19332.9 3793.72 19410.2 3849.7 19511.5 L 4108.31 19511.5 C 4044.33 19316.9 4028.33 19268.9 3985.67 19181 L 3655.09 19181 L 3644.42 19186.3 Z M 4361.58 18850.4 L 4076.33 18850.4 L 4076.33 19119.6 L 4361.58 19119.6 L 4361.58 18850.4 Z M 4361.58 18789 L 4361.58 18506.5 L 4076.33 18506.5 L 4076.33 18789 L 4361.58 18789 Z M 3671.09 18789 L 3924.36 18789 L 3924.36 18506.5 L 3671.09 18506.5 L 3671.09 18789 Z M 3671.09 18850.4 L 3671.09 19119.6 L 3924.36 19119.6 L 3924.36 18850.4 L 3671.09 18850.4 Z M 3057.91 18167.9 C 3057.91 17983.9 3057.91 17967.9 3055.23 17792 C 3049.91 17584 3049.91 17584 3049.91 17461.4 C 3057.91 17437.4 3068.56 17429.4 3092.56 17429.4 C 3113.89 17429.4 3196.53 17440 3207.2 17445.4 C 3225.86 17450.7 3231.2 17458.7 3231.2 17474.7 C 3231.2 17477.4 3231.2 17480 3231.2 17482.7 C 3231.2 17528 3231.2 17560 3231.2 17586.7 L 3228.53 18197.2 L 3228.53 18671.8 C 3284.52 18687.7 3305.84 18701.1 3305.84 18717.1 C 3305.84 18738.4 3260.52 18754.4 3145.89 18773 C 3308.52 18975.7 3348.5 19034.3 3420.48 19181 C 3479.14 19181 3511.13 19194.3 3511.13 19215.6 C 3511.13 19236.9 3484.47 19252.9 3377.83 19290.3 C 3353.83 19298.3 3319.17 19311.6 3273.86 19330.3 C 3217.86 19181 3180.55 19095.6 3108.56 18957 C 2977.92 18714.4 2884.61 18578.4 2737.98 18423.8 L 2764.64 18394.5 C 2887.28 18482.5 2929.94 18525.1 3057.91 18671.8 L 3057.91 18167.9 Z M 2799.3 19119.6 C 3031.25 19276.9 3204.53 19447.5 3383.16 19692.8 C 3479.14 19698.2 3479.14 19698.2 3495.13 19706.2 C 3503.13 19711.5 3508.45 19719.5 3508.45 19730.2 C 3508.45 19738.2 3503.13 19748.8 3495.13 19754.1 C 3468.47 19772.8 3348.5 19823.5 3241.86 19860.8 C 3199.2 19748.8 3161.88 19679.5 3089.89 19564.9 C 2967.27 19364.9 2889.95 19258.3 2777.97 19141 L 2799.3 19119.6 Z M 4548.2 19522.2 C 4614.86 19535.5 4641.52 19538.2 4708.17 19538.2 L 5217.38 19538.2 C 5246.7 19538.2 5252.03 19540.9 5252.03 19556.9 C 5252.03 19562.2 5246.7 19570.2 5238.7 19580.9 C 5150.72 19666.2 5124.06 19692.8 5028.08 19775.5 L 4886.78 19599.5 L 4694.83 19599.5 C 4633.52 19599.5 4577.53 19607.5 4529.55 19620.8 L 4548.2 19522.2 "/>
<path transform="matrix(.00359712,0,0,-.00359712,0,197)" d="M 7557.13 17650.7 L 7557.13 17520 C 7557.13 17517.4 7557.13 17512 7557.13 17512 C 7557.13 17493.4 7567.78 17482.7 7591.78 17482.7 C 7703.75 17490.7 7717.08 17490.7 7730.41 17498.7 C 7743.73 17504 7751.73 17517.4 7751.73 17530.7 C 7751.73 17536 7751.73 17541.4 7749.08 17549.4 C 7743.73 17989.3 7741.08 18279.8 7741.08 18423.8 L 7741.08 18898.4 C 7818.39 18949 7831.72 18959.7 7831.72 18973 C 7831.72 18981 7826.39 18989 7807.72 19007.7 C 7743.73 19063.7 7722.41 19079.6 7642.44 19133 C 7594.44 19079.6 7581.11 19061 7535.8 19007.7 L 7245.2 19007.7 L 7245.2 19522.2 L 7917.03 19522.2 C 7922.36 19522.2 7933.03 19530.2 7933.03 19538.2 C 7933.03 19546.2 7927.69 19554.2 7917.03 19564.9 C 7818.39 19660.8 7786.39 19690.2 7669.09 19783.5 C 7599.78 19700.8 7578.45 19674.2 7509.13 19583.5 L 6354.75 19583.5 C 6264.11 19583.5 6192.13 19591.5 6122.81 19610.2 L 6141.47 19506.2 C 6234.78 19519.5 6277.44 19522.2 6354.75 19522.2 L 6610.69 19522.2 L 6610.69 19007.7 L 6354.75 19007.7 C 6264.11 19066.3 6234.78 19085 6141.47 19135.6 C 6152.13 18978.3 6154.8 18855.7 6154.8 18647.8 C 6154.8 18333.2 6149.47 17840 6141.47 17493.4 C 6141.47 17490.7 6141.47 17488 6141.47 17488 C 6141.47 17469.4 6154.8 17458.7 6181.45 17458.7 C 6213.45 17458.7 6277.44 17464 6296.09 17469.4 C 6317.42 17477.4 6322.75 17482.7 6322.75 17506.7 C 6325.42 17509.4 6325.42 17514.7 6325.42 17520 L 6325.42 17650.7 L 7557.13 17650.7 Z M 7082.56 17712 L 6783.98 17712 L 6783.98 18946.3 L 7082.56 18946.3 L 7082.56 17712 Z M 7245.2 17712 L 7245.2 18946.3 L 7557.13 18946.3 L 7557.13 17712 L 7245.2 17712 Z M 6325.42 17712 L 6325.42 18946.3 L 6610.69 18946.3 L 6610.69 17712 L 6325.42 17712 Z M 6783.98 19522.2 L 7082.56 19522.2 L 7082.56 19007.7 L 6783.98 19007.7 L 6783.98 19522.2 Z M 5424.31 18471.8 C 5552.28 18626.4 5600.27 18693.1 5730.91 18917 L 5730.91 18375.8 C 5730.91 18282.5 5722.91 17773.3 5717.58 17485.4 C 5717.58 17456 5728.23 17448 5760.23 17448 C 5848.2 17448 5901.53 17461.4 5901.53 17488 C 5901.53 17490.7 5901.53 17496 5898.86 17498.7 L 5898.86 18893 C 5946.84 18917 5970.84 18935.7 5970.84 18949 C 5970.84 18973 5920.19 18986.3 5781.56 19005 C 5901.53 19218.3 5960.19 19346.3 6101.48 19706.2 C 6181.45 19711.5 6208.13 19722.2 6208.13 19746.1 C 6208.13 19754.1 6197.45 19764.8 6189.45 19770.1 C 6170.8 19780.8 6152.13 19788.8 6045.5 19815.5 C 6016.17 19823.5 5968.17 19836.8 5909.53 19852.8 C 5898.86 19706.2 5840.2 19487.5 5736.23 19215.6 C 5629.59 18933 5525.63 18722.4 5381.66 18498.5 L 5424.31 18471.8 "/>
<path transform="matrix(.00359712,0,0,-.00359712,0,197)" d="M 9472.97 19484.9 C 9515.63 19562.2 9515.63 19562.2 9595.61 19711.5 C 9680.92 19719.5 9715.58 19732.8 9715.58 19756.8 C 9715.58 19775.5 9683.58 19788.8 9550.28 19826.1 C 9520.95 19831.5 9475.64 19844.8 9419.66 19860.8 C 9395.66 19743.5 9339.67 19583.5 9259.69 19402.2 C 9161.05 19178.3 9065.08 19010.3 8950.44 18861 L 8974.42 18839.7 C 9139.72 18978.3 9249.03 19109 9390.33 19335.6 C 9462.31 19162.3 9536.95 19037 9662.25 18887.7 C 9568.95 18794.4 9488.97 18717.1 9395.66 18642.4 C 9241.03 18511.8 9166.38 18463.8 8835.8 18277.2 L 8854.45 18245.2 C 9003.75 18306.5 9067.73 18333.2 9163.72 18378.5 C 9169.05 18159.9 9169.05 18159.9 9169.05 18066.6 C 9169.05 17965.3 9169.05 17856 9163.72 17474.7 C 9163.72 17450.7 9171.72 17442.7 9203.7 17442.7 C 9318.34 17442.7 9339.67 17448 9342.34 17482.7 L 9342.34 17594.7 L 10070.2 17594.7 L 10070.2 17472 C 10070.2 17450.7 10078.2 17448 10112.8 17448 C 10155.5 17448 10216.8 17453.4 10235.5 17458.7 C 10246.1 17464 10251.4 17469.4 10251.4 17485.4 C 10243.5 17826.6 10243.5 17895.9 10243.5 17997.3 C 10243.5 18053.2 10243.5 18117.2 10243.5 18213.2 C 10299.4 18247.8 10315.4 18261.2 10315.4 18277.2 C 10315.4 18285.2 10304.8 18298.5 10278.1 18319.8 C 10219.5 18362.5 10200.8 18373.2 10139.5 18415.8 C 10102.2 18375.8 10091.5 18362.5 10054.2 18319.8 L 9342.34 18319.8 C 9281.02 18359.8 9265.02 18370.5 9214.38 18402.5 C 9408.98 18498.5 9587.61 18618.4 9766.23 18773 C 9950.19 18586.4 10131.5 18466.5 10448.7 18319.8 C 10494 18431.8 10523.4 18461.1 10627.4 18498.5 L 10627.4 18538.4 C 10296.8 18583.8 10091.5 18666.4 9851.55 18850.4 C 9990.17 18986.3 10080.8 19103.6 10243.5 19356.9 C 10350.1 19370.2 10379.4 19378.2 10379.4 19402.2 C 10379.4 19410.2 10371.4 19420.9 10352.8 19442.2 C 10278.1 19511.5 10256.8 19535.5 10179.5 19604.8 C 10126.1 19556.9 10110.1 19540.9 10059.5 19484.9 L 9472.97 19484.9 Z M 10046.2 19423.6 C 9928.86 19210.3 9859.55 19111.6 9726.23 18959.7 C 9595.61 19085 9520.95 19186.3 9414.31 19380.9 C 9427.66 19402.2 9427.66 19402.2 9440.98 19423.6 L 10046.2 19423.6 Z M 9342.34 18258.5 L 10070.2 18258.5 L 10070.2 17656 L 9342.34 17656 L 9342.34 18258.5 Z M 8675.83 19266.3 L 8675.83 19743.5 C 8782.47 19783.5 8798.47 19794.1 8798.47 19812.8 C 8798.47 19842.1 8742.48 19852.8 8491.88 19874.1 C 8499.88 19778.1 8502.55 19730.2 8502.55 19540.9 L 8502.55 19266.3 L 8289.27 19266.3 C 8219.95 19266.3 8174.63 19271.6 8115.97 19284.9 L 8131.97 19189 C 8195.95 19202.3 8225.28 19205 8289.27 19205 L 8483.88 19205 C 8371.91 18695.7 8291.92 18461.1 8086.64 18045.2 L 8121.3 18026.6 C 8302.59 18290.5 8419.89 18530.5 8523.88 18861 L 8507.88 18506.5 C 8502.55 18415.8 8497.22 17941.3 8494.55 17461.4 C 8494.55 17437.4 8505.2 17429.4 8529.2 17429.4 C 8643.84 17429.4 8678.5 17437.4 8678.5 17469.4 C 8675.83 17688 8675.83 17688 8675.83 18914.4 C 8745.16 18842.4 8806.47 18743.7 8859.78 18618.4 C 8894.45 18538.4 8905.11 18519.8 8929.11 18519.8 C 8963.77 18519.8 9009.08 18615.8 9009.08 18687.7 C 9009.08 18746.4 8969.09 18791.7 8854.45 18866.4 C 8782.47 18911.7 8731.83 18938.3 8675.83 18970.3 L 8675.83 19205 L 9094.39 19205 C 9102.39 19205 9110.39 19210.3 9110.39 19215.6 C 9110.39 19220.9 9107.73 19226.3 9102.39 19234.3 C 9022.42 19316.9 8998.42 19343.6 8913.11 19423.6 C 8862.45 19356.9 8846.45 19335.6 8795.8 19266.3 L 8675.83 19266.3 "/>
<path transform="matrix(.00359712,0,0,-.00359712,0,197)" stroke-width="110.783" stroke-linecap="butt" stroke-dasharray="830.895,830.895" stroke-miterlimit="10" stroke-linejoin="miter" fill="none" stroke="#000000" d="M 35288.9 18653.2 L 35288.9 3680.44 "/>
<path transform="matrix(.00359712,0,0,-.00359712,0,197)" d="M 29279.2 1823.3 L 29279.2 2417.83 C 29361.8 2441.81 29393.8 2460.48 29393.8 2484.47 C 29393.8 2508.47 29361.8 2519.14 29225.9 2532.47 C 29193.9 2535.13 29145.9 2540.47 29081.9 2548.45 C 29092.5 2407.16 29097.9 2335.17 29097.9 2212.55 L 29097.9 1823.3 L 28916.6 1823.3 C 28873.9 1823.3 28812.6 1831.3 28746 1847.3 L 28762 1743.33 C 28807.3 1753.98 28873.9 1761.98 28916.6 1761.98 L 29097.9 1761.98 L 29097.9 898.203 C 28860.6 826.219 28860.6 826.219 28764.6 804.891 C 28842 580.938 28865.9 524.953 28889.9 524.953 C 28913.9 524.953 28924.6 556.953 28937.9 658.266 C 29388.5 876.875 29529.8 956.859 29711.1 1082.16 L 29695.1 1124.81 C 29495.1 1036.83 29417.8 1004.84 29279.2 954.188 L 29279.2 1761.98 L 29673.7 1761.98 C 29585.8 1591.36 29551.1 1535.38 29449.8 1394.08 L 29481.8 1364.75 C 29623.1 1495.39 29689.7 1572.7 29804.4 1748.66 C 29857.7 1831.3 29897.7 1895.28 29940.3 1975.27 L 30838.8 1975.27 C 30838.8 1655.34 30836.1 1511.38 30822.8 1338.09 C 30801.5 1052.83 30758.8 756.906 30716.2 612.938 C 30673.5 468.969 30622.8 407.656 30545.5 407.656 C 30545.5 407.656 30542.9 407.656 30537.5 407.656 C 30534.9 407.656 30516.2 410.313 30486.9 410.313 C 30465.5 410.313 30329.6 426.313 30081.6 455.641 L 30076.3 407.656 C 30292.3 346.344 30337.6 330.344 30380.2 301.016 C 30433.5 269.016 30452.2 237.031 30462.9 159.719 C 30633.5 186.375 30708.2 221.031 30774.8 298.344 C 30860.1 402.328 30932.1 631.594 30977.4 956.859 C 31009.4 1196.8 31020.1 1370.08 31036.1 1905.95 C 31105.4 1945.94 31129.4 1961.94 31129.4 1985.94 C 31129.4 1996.59 31121.4 2009.92 31100.1 2028.59 C 31033.4 2084.58 31012.1 2103.23 30937.4 2161.89 C 30884.1 2108.56 30868.1 2089.91 30820.1 2036.58 L 29972.3 2036.58 C 30031 2151.22 30063 2228.53 30135 2420.48 C 30225.6 2431.16 30260.3 2444.48 30260.3 2471.14 C 30260.3 2495.14 30233.6 2503.14 30100.3 2537.8 C 30068.3 2545.8 30017.7 2559.13 29951 2575.13 C 29932.3 2444.48 29916.3 2380.5 29855 2196.55 C 29804.4 2041.92 29764.4 1945.94 29689.7 1793.98 L 29687.1 1796.64 C 29607.1 1876.63 29580.4 1900.63 29489.8 1977.94 C 29433.8 1911.28 29417.8 1889.95 29364.5 1823.3 L 29279.2 1823.3 Z M 30710.8 1215.45 C 30318.9 1066.16 29905.7 948.859 29657.8 919.531 C 29740.4 674.25 29764.4 618.266 29793.7 618.266 C 29820.4 618.266 29828.4 644.922 29839 751.563 C 30286.9 930.188 30457.5 1010.17 30729.5 1175.47 L 30710.8 1215.45 Z M 29956.3 1538.05 C 29913.7 1538.05 29852.4 1546.05 29785.7 1562.03 L 29801.7 1458.06 C 29847 1468.72 29911 1476.72 29956.3 1476.72 L 30526.9 1476.72 C 30542.9 1476.72 30556.2 1482.06 30556.2 1490.05 C 30556.2 1495.39 30550.9 1503.39 30545.5 1511.38 C 30465.5 1591.36 30438.9 1615.36 30348.2 1695.34 C 30292.3 1626.02 30276.3 1604.69 30222.9 1538.05 L 29956.3 1538.05 "/>
<path transform="matrix(.00359712,0,0,-.00359712,0,197)" d="M 33589.1 1732.66 L 33879.7 1732.66 C 33898.4 1732.66 33906.4 1738 33906.4 1745.98 C 33906.4 1753.98 33901 1759.33 33890.4 1769.98 C 33805 1863.3 33778.4 1889.95 33685.1 1969.94 C 33618.4 1895.28 33597.1 1871.3 33533.1 1793.98 L 33127.9 1793.98 L 33127.9 1815.31 C 33167.9 1839.3 33183.9 1857.97 33183.9 1873.95 C 33183.9 1884.63 33173.2 1895.28 33151.9 1911.28 C 33101.2 1945.94 33085.2 1956.61 33031.9 1988.59 C 32999.9 1951.27 32989.3 1937.94 32954.6 1897.95 L 32666.7 1897.95 C 32733.3 1972.59 32746.6 1985.94 32879.9 2167.22 C 32903.9 2175.22 32922.6 2180.55 32935.9 2183.22 C 32951.9 2185.88 32965.3 2188.55 32973.3 2193.88 C 32986.6 2196.55 32994.6 2207.2 32994.6 2215.2 C 32994.6 2225.88 32989.3 2233.88 32970.6 2252.53 C 32911.9 2311.19 32893.3 2329.84 32826.6 2385.83 C 32776 2345.84 32760 2332.52 32712 2289.86 L 32498.7 2289.86 C 32525.4 2340.52 32538.7 2367.17 32573.3 2449.81 C 32664 2463.14 32682.7 2471.14 32682.7 2492.47 C 32682.7 2519.14 32629.3 2540.47 32410.7 2588.45 C 32365.4 2327.19 32181.5 1905.95 32002.8 1655.34 L 32040.1 1626.02 C 32090.8 1679.34 32104.1 1695.34 32141.5 1740.66 L 32141.5 1471.39 L 32136.1 1052.83 C 32136.1 1047.5 32136.1 1042.17 32136.1 1039.5 C 32136.1 1026.17 32144.1 1018.17 32160.1 1018.17 C 32248.1 1018.17 32288.1 1034.17 32288.1 1066.16 C 32288.1 1068.83 32288.1 1074.16 32288.1 1082.16 L 32288.1 1162.14 L 32978.6 1162.14 L 32978.6 1082.16 C 32978.6 1058.16 32986.6 1047.5 33007.9 1047.5 C 33034.6 1047.5 33103.9 1058.16 33117.2 1063.5 C 33130.5 1068.83 33135.9 1076.83 33135.9 1098.16 C 33127.9 1567.38 33127.9 1570.03 33127.9 1732.66 L 33413.1 1732.66 L 33413.1 407.656 C 33413.1 386.328 33405.1 378.328 33389.2 378.328 C 33383.8 378.328 33378.5 378.328 33373.2 378.328 C 33255.8 381 33237.2 383.656 33069.2 402.328 C 33063.9 490.297 33045.2 508.969 32925.3 567.609 C 32837.3 607.609 32736 650.266 32613.3 692.922 C 32632 743.578 32632 743.578 32648 794.219 L 33247.8 794.219 C 33277.2 794.219 33282.5 796.891 33282.5 807.563 C 33282.5 812.891 33277.2 823.547 33271.8 836.875 C 33194.5 903.531 33167.9 922.188 33087.9 988.844 C 33039.9 932.859 33023.9 914.203 32978.6 855.547 L 32664 855.547 C 32669.3 892.875 32672 908.859 32680 983.516 C 32757.3 1007.5 32784 1023.5 32784 1036.83 C 32784 1055.5 32757.3 1063.5 32634.7 1071.48 L 32530.7 1082.16 C 32530.7 1060.83 32530.7 1044.83 32530.7 1036.83 C 32530.7 967.516 32525.4 922.188 32512 855.547 L 32184.1 855.547 C 32181.5 855.547 32122.8 860.875 32096.1 860.875 C 32042.8 866.203 32042.8 866.203 31997.5 882.203 L 32018.8 778.234 C 32096.1 791.563 32133.5 794.219 32184.1 794.219 L 32496 794.219 C 32421.4 564.953 32237.4 391.656 31936.2 263.688 L 31954.8 223.703 C 32141.5 277.016 32245.4 322.344 32354.7 394.328 C 32466.7 471.641 32536 543.625 32592 650.266 C 32768 524.953 32890.6 412.984 32967.9 306.344 C 32991.9 274.359 32999.9 266.359 33013.2 266.359 C 33037.2 266.359 33053.2 293.016 33063.9 357 C 33109.2 346.344 33109.2 346.344 33122.5 341 C 33202.5 322.344 33229.2 309.016 33263.8 274.359 C 33290.5 245.031 33301.2 226.359 33309.2 175.719 C 33439.8 199.703 33503.8 221.031 33546.4 253.031 C 33578.4 277.016 33589.1 298.344 33591.8 359.672 C 33589.1 735.578 33589.1 735.578 33589.1 855.547 L 33589.1 1732.66 Z M 32261.4 1903.28 C 32360.1 2049.92 32410.7 2127.23 32466.7 2228.53 L 32725.3 2228.53 C 32661.3 2033.92 32645.3 1985.94 32602.7 1897.95 L 32272.1 1897.95 L 32261.4 1903.28 Z M 32978.6 1567.38 L 32693.3 1567.38 L 32693.3 1836.64 L 32978.6 1836.64 L 32978.6 1567.38 Z M 32978.6 1506.05 L 32978.6 1223.45 L 32693.3 1223.45 L 32693.3 1506.05 L 32978.6 1506.05 Z M 32288.1 1506.05 L 32541.4 1506.05 L 32541.4 1223.45 L 32288.1 1223.45 L 32288.1 1506.05 Z M 32288.1 1567.38 L 32288.1 1836.64 L 32541.4 1836.64 L 32541.4 1567.38 L 32288.1 1567.38 Z M 31674.9 884.875 C 31674.9 700.922 31674.9 684.922 31672.2 508.969 C 31666.9 301.016 31666.9 301.016 31666.9 178.375 C 31674.9 154.391 31685.6 146.391 31709.6 146.391 C 31730.9 146.391 31813.5 157.047 31824.2 162.375 C 31842.9 167.719 31848.2 175.719 31848.2 191.703 C 31848.2 194.375 31848.2 197.047 31848.2 199.703 C 31848.2 245.031 31848.2 277.016 31848.2 303.688 L 31845.5 914.203 L 31845.5 1388.75 C 31901.5 1404.73 31922.8 1418.08 31922.8 1434.06 C 31922.8 1455.39 31877.5 1471.39 31762.9 1490.05 C 31925.5 1692.67 31965.5 1751.33 32037.5 1897.95 C 32096.1 1897.95 32128.1 1911.28 32128.1 1932.61 C 32128.1 1953.94 32101.5 1969.94 31994.8 2007.27 C 31970.8 2015.25 31936.2 2028.59 31890.9 2047.25 C 31834.9 1897.95 31797.5 1812.64 31725.6 1674.02 C 31594.9 1431.41 31501.6 1295.44 31355 1140.81 L 31381.6 1111.48 C 31504.3 1199.45 31546.9 1242.11 31674.9 1388.75 L 31674.9 884.875 Z M 31416.3 1836.64 C 31648.3 1993.92 31821.5 2164.55 32000.2 2409.83 C 32096.1 2415.16 32096.1 2415.16 32112.1 2423.16 C 32120.1 2428.48 32125.5 2436.48 32125.5 2447.16 C 32125.5 2455.16 32120.1 2465.81 32112.1 2471.14 C 32085.5 2489.81 31965.5 2540.47 31858.9 2577.78 C 31816.2 2465.81 31778.9 2396.5 31706.9 2281.86 C 31584.3 2081.91 31507 1975.27 31395 1857.97 L 31416.3 1836.64 Z M 33165.2 2239.2 C 33231.9 2252.53 33258.5 2255.2 33325.2 2255.2 L 33834.4 2255.2 C 33863.7 2255.2 33869 2257.86 33869 2273.86 C 33869 2279.19 33863.7 2287.19 33855.7 2297.86 C 33767.7 2383.17 33741.1 2409.83 33645.1 2492.47 L 33503.8 2316.52 L 33311.8 2316.52 C 33250.5 2316.52 33194.5 2324.52 33146.5 2337.84 L 33165.2 2239.2 "/>
<path transform="matrix(.00359712,0,0,-.00359712,0,197)" d="M 35163.7 2372.5 L 35584.9 2372.5 C 35595.6 2372.5 35603.6 2380.5 35603.6 2388.5 C 35603.6 2391.17 35598.3 2399.16 35590.3 2404.5 C 35494.3 2495.14 35462.3 2524.47 35363.7 2604.44 C 35302.3 2532.47 35283.7 2508.47 35219.7 2433.83 L 34259.9 2433.83 C 34201.3 2433.83 34116 2444.48 34057.3 2457.81 L 34073.3 2353.84 C 34153.3 2367.17 34193.3 2372.5 34243.9 2372.5 L 34326.6 2372.5 L 34326.6 775.563 C 34211.9 751.563 34169.3 743.578 34057.3 727.578 C 34089.3 628.938 34129.3 508.969 34145.3 476.969 C 34156 458.313 34164 450.313 34174.6 450.313 C 34193.3 450.313 34203.9 466.313 34206.6 503.625 C 34209.3 516.953 34211.9 538.281 34214.6 562.281 C 34694.5 748.906 34702.5 754.234 34987.8 887.531 L 34987.8 804.891 C 34987.8 674.25 34985.1 338.344 34982.4 210.375 C 34985.1 181.047 34998.4 175.719 35046.4 175.719 C 35145 175.719 35177 186.375 35182.4 218.375 C 35166.4 807.563 35163.7 898.203 35163.7 991.516 L 35163.7 2372.5 Z M 34987.8 2372.5 L 34987.8 1905.95 L 34510.5 1905.95 L 34510.5 2372.5 L 34987.8 2372.5 Z M 34987.8 1844.63 L 34987.8 1404.73 L 34510.5 1404.73 L 34510.5 1844.63 L 34987.8 1844.63 Z M 34987.8 1343.42 L 34987.8 943.516 C 34670.5 855.547 34670.5 855.547 34510.5 815.547 L 34510.5 1343.42 L 34987.8 1343.42 Z M 35414.3 2161.89 C 35361 2161.89 35305 2169.89 35227.7 2188.55 L 35241 2089.91 C 35310.3 2100.56 35323.7 2100.56 35414.3 2100.56 L 35430.3 2100.56 C 35462.3 1618.02 35571.6 1234.11 35774.2 879.531 C 35614.3 623.594 35454.3 439.641 35214.4 237.031 L 35241 205.031 C 35483.6 349 35651.6 503.625 35851.5 751.563 C 36003.5 527.625 36147.5 386.328 36408.7 207.703 C 36470 327.672 36504.7 357 36590 357 L 36603.3 394.328 C 36376.7 492.969 36256.8 572.953 36099.5 724.906 C 36043.5 778.234 36003.5 823.547 35950.2 887.531 C 36134.1 1172.8 36243.4 1474.06 36360.7 2031.25 C 36480.7 2087.23 36480.7 2087.23 36480.7 2105.91 C 36480.7 2116.56 36472.7 2127.23 36448.7 2145.89 C 36374.1 2207.2 36347.4 2225.88 36267.4 2287.19 C 36214.1 2233.88 36198.1 2217.88 36144.8 2161.89 L 35414.3 2161.89 Z M 36168.8 2100.56 C 36110.1 1650.02 36019.5 1335.42 35854.2 1020.84 C 35747.6 1183.47 35672.9 1346.09 35606.3 1548.7 C 35544.9 1738 35515.6 1865.95 35489 2100.56 L 36168.8 2100.56 "/>
<path transform="matrix(.00359712,0,0,-.00359712,0,197)" d="M 37130.2 1292.77 C 37186.2 1570.03 37186.2 1570.03 37228.8 1812.64 L 37751.4 1812.64 L 37751.4 1642.02 C 37751.4 1620.69 37762 1612.69 37788.7 1612.69 C 37898 1612.69 37924.7 1623.36 37930 1663.34 C 37927.3 1873.95 37924.7 2001.92 37924.7 2124.56 C 37924.7 2183.22 37924.7 2233.88 37924.7 2319.19 C 38010 2367.17 38026 2377.83 38026 2393.83 C 38026 2401.83 38020.7 2412.5 38004.7 2431.16 C 37938 2484.47 37916.7 2503.14 37844.7 2561.78 C 37796.7 2511.14 37780.7 2495.14 37738.1 2441.81 L 37164.9 2441.81 C 37082.2 2441.81 36996.9 2449.81 36930.3 2465.81 L 36951.6 2359.17 C 37036.9 2375.17 37082.2 2380.5 37164.9 2380.5 L 37751.4 2380.5 L 37751.4 1873.95 L 37255.5 1873.95 C 37183.5 1935.28 37159.5 1953.94 37079.5 2015.25 C 37047.6 1703.33 36986.3 1375.42 36906.3 1079.48 C 36900.9 1068.83 36898.3 1058.16 36898.3 1052.83 C 36898.3 1044.83 36903.6 1036.83 36914.3 1031.5 C 36924.9 1026.17 36991.6 1018.17 37028.9 1018.17 C 37058.2 1018.17 37071.6 1026.17 37079.5 1052.83 C 37098.2 1138.14 37106.2 1170.13 37116.9 1231.45 L 37751.4 1231.45 C 37743.4 1087.48 37738.1 1028.83 37722.1 922.188 C 37698.1 764.906 37660.8 591.609 37639.4 527.625 C 37612.8 458.313 37591.4 436.984 37546.1 436.984 C 37500.8 436.984 37314.2 455.641 36962.3 492.969 L 36962.3 444.984 C 37367.5 362.328 37367.5 362.328 37386.1 202.375 C 37623.4 226.359 37706.1 266.359 37762 381 C 37831.4 516.953 37884.7 775.563 37919.3 1154.14 C 38007.3 1191.45 38026 1202.13 38026 1220.78 C 38026 1231.45 38020.7 1239.45 38002 1260.78 C 37935.3 1322.09 37914 1340.75 37844.7 1399.41 C 37804.7 1362.08 37767.4 1324.77 37732.7 1292.77 L 37130.2 1292.77 Z M 38599.2 231.703 C 38604.5 213.031 38612.5 205.031 38633.8 205.031 C 38673.8 205.031 38735.1 213.031 38767.1 221.031 C 38788.5 226.359 38796.5 234.359 38799.1 261.031 C 38791.1 634.266 38791.1 634.266 38791.1 2425.83 C 38855.1 2441.81 38889.8 2463.14 38889.8 2487.14 C 38889.8 2492.47 38881.8 2500.47 38871.1 2505.8 C 38836.5 2519.14 38820.5 2521.8 38593.8 2540.47 C 38607.2 2356.5 38609.8 2071.25 38609.8 890.203 L 38599.2 231.703 "/>
<path transform="matrix(.00359712,0,0,-.00359712,0,197)" d="M 40683 807.563 L 41232.2 807.563 L 41232.2 780.891 C 41234.9 762.234 41240.2 756.906 41256.2 756.906 C 41296.2 756.906 41376.2 767.563 41392.1 772.891 C 41405.5 778.234 41410.8 788.891 41410.8 799.563 C 41410.8 802.219 41410.8 802.219 41410.8 804.891 C 41408.1 943.516 41408.1 986.172 41408.1 1132.81 L 41408.1 1332.77 C 41469.5 1372.75 41485.5 1386.08 41485.5 1404.73 C 41485.5 1412.73 41477.5 1423.41 41456.1 1439.41 C 41410.8 1474.06 41360.2 1508.72 41309.5 1546.05 C 41264.2 1500.72 41253.5 1484.72 41210.9 1439.41 L 40024.5 1439.41 C 39947.2 1487.39 39923.2 1500.72 39840.5 1546.05 C 39845.9 1450.06 39848.5 1383.41 39848.5 1263.44 C 39848.5 1066.16 39845.9 895.531 39840.5 727.578 C 39840.5 706.25 39845.9 700.922 39869.9 700.922 C 39917.8 700.922 39973.8 706.25 39992.5 711.578 C 40008.5 716.906 40013.8 724.906 40013.8 743.578 L 40013.8 807.563 L 40520.4 807.563 L 40520.4 610.266 L 39917.8 610.266 C 39787.2 610.266 39749.9 612.938 39659.2 634.266 L 39675.2 532.953 C 39757.9 546.281 39813.9 548.953 39917.8 548.953 L 40520.4 548.953 L 40520.4 325.016 L 39709.9 325.016 C 39581.9 325.016 39525.9 330.344 39422 351.672 L 39440.6 245.031 C 39517.9 258.359 39587.3 263.688 39709.9 263.688 L 41842.7 263.688 C 41858.7 263.688 41866.7 269.016 41866.7 277.016 C 41866.7 282.359 41864 287.688 41856 295.688 C 41752.1 375.656 41717.4 402.328 41610.8 484.969 L 41456.1 325.016 L 40683 325.016 L 40683 548.953 L 41626.8 548.953 C 41642.8 548.953 41653.4 554.281 41653.4 564.953 C 41653.4 567.609 41650.8 572.953 41640.1 583.609 C 41549.4 658.266 41522.8 679.594 41429.5 751.563 C 41370.8 692.922 41349.5 671.594 41290.8 610.266 L 40683 610.266 L 40683 807.563 Z M 40683 868.875 L 40683 1100.81 L 41232.2 1100.81 L 41232.2 868.875 L 40683 868.875 Z M 40520.4 868.875 L 40013.8 868.875 L 40013.8 1100.81 L 40520.4 1100.81 L 40520.4 868.875 Z M 40683 1162.14 L 40683 1378.08 L 41232.2 1378.08 L 41232.2 1162.14 L 40683 1162.14 Z M 40520.4 1162.14 L 40013.8 1162.14 L 40013.8 1378.08 L 40520.4 1378.08 L 40520.4 1162.14 Z M 40000.5 1860.63 L 41264.2 1860.63 L 41264.2 1799.31 C 41264.2 1796.64 41264.2 1791.31 41264.2 1791.31 C 41264.2 1772.66 41269.5 1769.98 41301.5 1769.98 C 41394.8 1769.98 41434.8 1780.66 41434.8 1801.98 C 41434.8 1804.64 41434.8 1807.31 41434.8 1807.31 C 41429.5 1940.61 41429.5 1999.27 41429.5 2079.23 L 41432.1 2351.17 C 41509.5 2399.16 41522.8 2409.83 41522.8 2425.83 C 41522.8 2431.16 41517.5 2439.16 41501.5 2455.16 C 41434.8 2505.8 41413.5 2521.8 41344.2 2569.78 C 41309.5 2532.47 41274.8 2492.47 41242.8 2455.16 L 40024.5 2455.16 C 39939.2 2508.47 39909.8 2524.47 39821.9 2569.78 C 39829.9 2327.19 39829.9 2321.84 39829.9 2207.2 C 39829.9 2103.23 39829.9 2092.58 39824.5 1793.98 C 39824.5 1791.31 39824.5 1788.64 39824.5 1788.64 C 39824.5 1761.98 39829.9 1759.33 39867.2 1759.33 C 39971.2 1759.33 40000.5 1767.31 40000.5 1793.98 C 40000.5 1793.98 40000.5 1796.64 40000.5 1799.31 L 40000.5 1860.63 Z M 41264.2 2193.88 L 40000.5 2193.88 L 40000.5 2393.83 L 41264.2 2393.83 L 41264.2 2193.88 Z M 41264.2 2132.56 L 41264.2 1921.95 L 40000.5 1921.95 L 40000.5 2132.56 L 41264.2 2132.56 Z M 39443.3 1596.69 C 39525.9 1612.69 39571.3 1615.36 39677.9 1615.36 L 41826.7 1615.36 C 41845.4 1615.36 41853.4 1618.02 41853.4 1626.02 C 41853.4 1631.36 41850.7 1639.34 41845.4 1644.69 C 41744.1 1735.33 41712.1 1761.98 41605.4 1849.97 C 41541.4 1777.98 41520.1 1753.98 41450.8 1676.67 L 39677.9 1676.67 C 39549.9 1676.67 39509.9 1679.34 39430 1700.67 L 39443.3 1596.69 "/>
<path transform="matrix(.00359712,0,0,-.00359712,0,197)" stroke-width="110.783" stroke-linecap="butt" stroke-dasharray="110.783,553.929" stroke-miterlimit="10" stroke-linejoin="miter" fill="none" stroke="#000000" d="M 35288.9 19441.3 L 11647.6 19441.3 "/>
<path transform="matrix(.00359712,0,0,-.00359712,0,197)" d="M 6446.81 20836.8 L 6410.77 20850.7 C 6308.19 20692.6 6272.16 20667.7 6147.41 20667.7 L 5484.84 20667.7 L 5950.58 21155.6 C 6197.31 21413.4 6305.42 21624.1 6305.42 21840.3 C 6305.42 22117.6 6080.88 22331 5792.56 22331 C 5640.09 22331 5495.94 22270 5393.36 22159.1 C 5304.66 22064.9 5263.06 21976.2 5215.94 21779.3 L 5274.16 21765.5 C 5385.05 22037.2 5484.84 22125.9 5676.13 22125.9 C 5909 22125.9 6067.02 21967.9 6067.02 21735 C 6067.02 21518.8 5939.48 21260.9 5706.63 21014.2 L 5213.17 20490.3 L 5213.17 20457 L 6294.33 20457 L 6446.81 20836.8 "/>
<path transform="matrix(.00359712,0,0,-.00359712,0,197)" d="M 7219.14 22331 C 7066.67 22331 6950.23 22283.9 6847.67 22186.9 C 6686.88 22031.6 6581.53 21712.8 6581.53 21388.5 C 6581.53 21086.3 6673.02 20761.9 6803.31 20606.7 C 6905.89 20484.7 7047.27 20418.2 7208.06 20418.2 C 7349.44 20418.2 7468.64 20465.3 7568.44 20562.3 C 7729.23 20714.8 7834.58 21036.4 7834.58 21371.8 C 7834.58 21940.1 7582.31 22331 7219.14 22331 Z M 7210.83 22259 C 7443.69 22259 7568.44 21945.7 7568.44 21366.3 C 7568.44 20786.9 7446.47 20490.3 7208.06 20490.3 C 6969.64 20490.3 6847.67 20786.9 6847.67 21363.5 C 6847.67 21951.2 6972.42 22259 7210.83 22259 "/>
<path transform="matrix(.00359712,0,0,-.00359712,0,197)" d="M 8604.14 22331 C 8451.67 22331 8335.23 22283.9 8232.67 22186.9 C 8071.88 22031.6 7966.53 21712.8 7966.53 21388.5 C 7966.53 21086.3 8058.02 20761.9 8188.31 20606.7 C 8290.89 20484.7 8432.27 20418.2 8593.06 20418.2 C 8734.44 20418.2 8853.64 20465.3 8953.44 20562.3 C 9114.23 20714.8 9219.58 21036.4 9219.58 21371.8 C 9219.58 21940.1 8967.31 22331 8604.14 22331 Z M 8595.83 22259 C 8828.69 22259 8953.44 21945.7 8953.44 21366.3 C 8953.44 20786.9 8831.47 20490.3 8593.06 20490.3 C 8354.64 20490.3 8232.67 20786.9 8232.67 21363.5 C 8232.67 21951.2 8357.42 22259 8595.83 22259 "/>
<path transform="matrix(.00359712,0,0,-.00359712,0,197)" d="M 9988.14 22331 C 9835.67 22331 9719.23 22283.9 9616.67 22186.9 C 9455.88 22031.6 9350.53 21712.8 9350.53 21388.5 C 9350.53 21086.3 9442.02 20761.9 9572.31 20606.7 C 9674.89 20484.7 9816.27 20418.2 9977.06 20418.2 C 10118.4 20418.2 10237.6 20465.3 10337.4 20562.3 C 10498.2 20714.8 10603.6 21036.4 10603.6 21371.8 C 10603.6 21940.1 10351.3 22331 9988.14 22331 Z M 9979.83 22259 C 10212.7 22259 10337.4 21945.7 10337.4 21366.3 C 10337.4 20786.9 10215.5 20490.3 9977.06 20490.3 C 9738.64 20490.3 9616.67 20786.9 9616.67 21363.5 C 9616.67 21951.2 9741.42 22259 9979.83 22259 "/>
<path transform="matrix(.00359712,0,0,-.00359712,0,197)" stroke-width="110.783" stroke-linecap="butt" stroke-dasharray="110.783,553.929" stroke-miterlimit="10" stroke-linejoin="miter" fill="none" stroke="#000000" d="M 35288.9 17865.2 L 11647.6 17865.2 "/>
<path transform="matrix(.00359712,0,0,-.00359712,0,197)" d="M 5936.72 16908 L 5437.72 16655.8 L 5437.72 16616.9 C 5470.98 16630.8 5501.48 16641.9 5512.56 16647.4 C 5562.47 16666.8 5609.59 16677.9 5637.31 16677.9 C 5695.53 16677.9 5720.48 16636.3 5720.48 16547.6 L 5720.48 15291.8 C 5720.48 15200.3 5698.31 15136.6 5653.95 15111.6 C 5612.36 15086.7 5573.56 15078.4 5457.13 15075.6 L 5457.13 15034 L 6222.25 15034 L 6222.25 15075.6 C 6003.25 15078.4 5958.89 15106.1 5958.89 15239.1 L 5958.89 16902.5 L 5936.72 16908 "/>
<path transform="matrix(.00359712,0,0,-.00359712,0,197)" d="M 7318.94 16062.5 C 7593.39 16209.4 7690.42 16325.9 7690.42 16514.4 C 7690.42 16741.7 7490.83 16908 7213.59 16908 C 6911.42 16908 6686.88 16722.3 6686.88 16470 C 6686.88 16289.8 6739.55 16209.4 7030.64 15954.4 C 6731.23 15727.1 6670.25 15641.1 6670.25 15452.6 C 6670.25 15183.7 6889.25 14995.2 7202.52 14995.2 C 7535.17 14995.2 7748.64 15178.2 7748.64 15463.7 C 7748.64 15677.2 7654.39 15813 7318.94 16062.5 Z M 7269.05 15777 C 7471.42 15632.8 7537.95 15533 7537.95 15377.8 C 7537.95 15197.6 7413.2 15072.8 7233 15072.8 C 7022.31 15072.8 6880.94 15233.6 6880.94 15474.8 C 6880.94 15652.2 6941.92 15768.6 7102.72 15898.9 L 7269.05 15777 Z M 7238.55 16112.4 C 6991.83 16273.2 6892.02 16400.7 6892.02 16556 C 6892.02 16716.7 7016.77 16830.4 7191.42 16830.4 C 7379.94 16830.4 7499.14 16708.4 7499.14 16517.1 C 7499.14 16359.1 7421.52 16234.4 7263.5 16129 C 7249.64 16120.7 7249.64 16120.7 7238.55 16112.4 "/>
<path transform="matrix(.00359712,0,0,-.00359712,0,197)" d="M 8604.14 16908 C 8451.67 16908 8335.23 16860.9 8232.67 16763.9 C 8071.88 16608.6 7966.53 16289.8 7966.53 15965.5 C 7966.53 15663.3 8058.02 15338.9 8188.31 15183.7 C 8290.89 15061.7 8432.27 14995.2 8593.06 14995.2 C 8734.44 14995.2 8853.64 15042.3 8953.44 15139.3 C 9114.23 15291.8 9219.58 15613.4 9219.58 15948.8 C 9219.58 16517.1 8967.31 16908 8604.14 16908 Z M 8595.83 16836 C 8828.69 16836 8953.44 16522.7 8953.44 15943.3 C 8953.44 15363.9 8831.47 15067.3 8593.06 15067.3 C 8354.64 15067.3 8232.67 15363.9 8232.67 15940.5 C 8232.67 16528.2 8357.42 16836 8595.83 16836 "/>
<path transform="matrix(.00359712,0,0,-.00359712,0,197)" d="M 9988.14 16908 C 9835.67 16908 9719.23 16860.9 9616.67 16763.9 C 9455.88 16608.6 9350.53 16289.8 9350.53 15965.5 C 9350.53 15663.3 9442.02 15338.9 9572.31 15183.7 C 9674.89 15061.7 9816.27 14995.2 9977.06 14995.2 C 10118.4 14995.2 10237.6 15042.3 10337.4 15139.3 C 10498.2 15291.8 10603.6 15613.4 10603.6 15948.8 C 10603.6 16517.1 10351.3 16908 9988.14 16908 Z M 9979.83 16836 C 10212.7 16836 10337.4 16522.7 10337.4 15943.3 C 10337.4 15363.9 10215.5 15067.3 9977.06 15067.3 C 9738.64 15067.3 9616.67 15363.9 9616.67 15940.5 C 9616.67 16528.2 9741.42 16836 9979.83 16836 "/>
</g>
</svg>
