<svg viewBox="0 0 386.172543307 360.056543307" width="386.172543307pt" height="360.056543307pt" xmlns="http://www.w3.org/2000/svg" xmlns:xlink="http://www.w3.org/1999/xlink" xmlns:h5="http://www.w3.org/1999/xhtml"><g transform="translate(1.417322835 1.417322835)"><path fill="none" stroke="#000000" stroke-width="1" stroke-linecap="butt" stroke-linejoin="miter" stroke-miterlimit="4" transform="translate(32.519 18.91)" d="M 0 0m 0 319.401897638v -310.386994651"/><path fill="none" stroke="#000000" stroke-width="1" stroke-linecap="butt" stroke-linejoin="miter" stroke-miterlimit="4" stroke-dashoffset="0" stroke-dasharray="" transform="translate(30.393015748 -285.807731659)" d="M 0 0m 0 319.401897638l 2.125984252 -5.669291339l 2.125984252 5.669291339"/><path fill="none" stroke="#000000" stroke-width="1" stroke-linecap="butt" stroke-linejoin="miter" stroke-miterlimit="4" transform="translate(32.519 18.91)" d="M 0 0m 0 319.401897638h 310.386994651"/><path fill="none" stroke="#000000" stroke-width="1" stroke-linecap="butt" stroke-linejoin="miter" stroke-miterlimit="4" stroke-dashoffset="0" stroke-dasharray="" transform="translate(337.236731659 21.035984252)" d="M 0 0m 0 315.149929134l 5.669291339 2.125984252l -5.669291339 2.125984252"/><path fill="none" transform="translate(344.330023622 23.3595)" d="M 0 0m 0 310.502897638h 39.007874016v 8.899h -39.007874016v -8.899Z "/><g transform="translate(344.330023496 333.862397559)"><g transform="matrix(1 0 0 -1 8.503937008 8.019)"><use xlink:href="#gD76D9EA1D9A132CF9F593BFE57067EF1" x="0" y="0" fill="#000000" fill-rule="nonzero"/><use xlink:href="#g258A45EB461773E387C8EE3EC824C66E" x="11" y="0" fill="#000000" fill-rule="nonzero"/></g></g><path fill="none" transform="translate(5.019 -292.901023622)" d="M 0 0m 0 292.901023622h 55v 26.500874016h -55v -26.500874016Z "/><g transform="translate(5.018999969 -7.9e-8)"><g transform="matrix(1 0 0 -1 0 16.522937008)"><use xlink:href="#g3A7FD976C145550C6234157C596CE2F0" x="0" y="0" fill="#000000" fill-rule="nonzero"/><use xlink:href="#gBEE340EF6338AB59665F34B699E78CB9" x="11" y="0" fill="#000000" fill-rule="nonzero"/><use xlink:href="#gFF69826C171CE760FDC0A9D4ACD2210F" x="22" y="0" fill="#000000" fill-rule="nonzero"/><use xlink:href="#g1E3749C33769CC0361B89C80D9660E6" x="33" y="0" fill="#000000" fill-rule="nonzero"/><use xlink:href="#g77184B63642C89D93216433E87FD5ACC" x="44" y="0" fill="#000000" fill-rule="nonzero"/></g></g><path fill="none" transform="translate(0 -260.462566929)" d="M 0 0m 0 311.217897638h 32.519v 8.184h -32.519v -8.184Z "/><g transform="translate(-6.3e-8 50.755330614)"><g transform="matrix(1 0 0 -1 4 8.019)"><use xlink:href="#g90D12CA7ACAB4A5DC828389506E1C2B6" x="0" y="0" fill="#000000" fill-rule="nonzero"/><use xlink:href="#g2C11D370D73543298B6E2A91975BE329" x="6.138" y="0" fill="#000000" fill-rule="nonzero"/><use xlink:href="#g2C11D370D73543298B6E2A91975BE329" x="12.265" y="0" fill="#000000" fill-rule="nonzero"/><use xlink:href="#g2C11D370D73543298B6E2A91975BE329" x="18.392" y="0" fill="#000000" fill-rule="nonzero"/></g></g><path fill="none" transform="translate(0 -175.42319685)" d="M 0 0m 0 311.217897638h 32.519v 8.184h -32.519v -8.184Z "/><g transform="translate(-6.3e-8 135.794700693)"><g transform="matrix(1 0 0 -1 4 8.019)"><use xlink:href="#gAC8B39D80EAB9EC3D212F4ABFF35DA34" x="0" y="0" fill="#000000" fill-rule="nonzero"/><use xlink:href="#g90D12CA7ACAB4A5DC828389506E1C2B6" x="6.127" y="0" fill="#000000" fill-rule="nonzero"/><use xlink:href="#g2C11D370D73543298B6E2A91975BE329" x="12.265" y="0" fill="#000000" fill-rule="nonzero"/><use xlink:href="#g2C11D370D73543298B6E2A91975BE329" x="18.392" y="0" fill="#000000" fill-rule="nonzero"/></g></g><path fill="none" transform="translate(0 -90.383826772)" d="M 0 0m 0 311.217897638h 32.519v 8.184h -32.519v -8.184Z "/><g transform="translate(-6.3e-8 220.834070772)"><g transform="matrix(1 0 0 -1 4 8.019)"><use xlink:href="#gAFABDC25F7B01C1BA193B0B92AA67F18" x="0" y="0" fill="#000000" fill-rule="nonzero"/><use xlink:href="#g2C11D370D73543298B6E2A91975BE329" x="6.138" y="0" fill="#000000" fill-rule="nonzero"/><use xlink:href="#g2C11D370D73543298B6E2A91975BE329" x="12.265" y="0" fill="#000000" fill-rule="nonzero"/><use xlink:href="#g2C11D370D73543298B6E2A91975BE329" x="18.392" y="0" fill="#000000" fill-rule="nonzero"/></g></g><path fill="none" transform="translate(0.957 -33.690913386)" d="M 0 0m 0 311.217897638h 31.562v 8.184h -31.562v -8.184Z "/><g transform="translate(0.95699989 277.526984157)"><g transform="matrix(1 0 0 -1 4 8.019)"><use xlink:href="#gAAD3DB6919C98E87B45A46C1A96360DB" x="0" y="0" fill="#000000" fill-rule="nonzero"/><use xlink:href="#g2C11D370D73543298B6E2A91975BE329" x="5.181" y="0" fill="#000000" fill-rule="nonzero"/><use xlink:href="#g2C11D370D73543298B6E2A91975BE329" x="11.308" y="0" fill="#000000" fill-rule="nonzero"/><use xlink:href="#g2C11D370D73543298B6E2A91975BE329" x="17.435" y="0" fill="#000000" fill-rule="nonzero"/></g></g><path fill="none" transform="translate(6.127 -22.352330709)" d="M 0 0m 0 311.217897638h 26.392v 8.184h -26.392v -8.184Z "/><g transform="translate(6.126999874 288.865566835)"><g transform="matrix(1 0 0 -1 4 8.019)"><use xlink:href="#g8A0D31807D8EF3903744421E7142FA96" x="0" y="0" fill="#000000" fill-rule="nonzero"/><use xlink:href="#g2C11D370D73543298B6E2A91975BE329" x="6.138" y="0" fill="#000000" fill-rule="nonzero"/><use xlink:href="#g2C11D370D73543298B6E2A91975BE329" x="12.265" y="0" fill="#000000" fill-rule="nonzero"/></g></g><path fill="none" transform="translate(315.983566929 -19.818830709)" d="M 0 0m 0 306.150897638h 48v 13.251h -48v -13.251Z "/><g transform="translate(315.983566835 286.332066835)"><g transform="matrix(1 0 0 -1 2 10.019)"><use xlink:href="#g8ADD4536D6D732F1503249E344DFD0F2" x="0" y="0" fill="#610b0b" fill-rule="nonzero"/><use xlink:href="#gE13B11393690EE3ACD0AFF3421322E1B" x="11" y="0" fill="#610b0b" fill-rule="nonzero"/><use xlink:href="#gF161F043EC35B6642B74098AD38310B1" x="22" y="0" fill="#610b0b" fill-rule="nonzero"/><use xlink:href="#g7FE7B80F12BB41E33327478BBF1B7A20" x="33" y="0" fill="#610b0b" fill-rule="nonzero"/></g></g><path fill="none" stroke="#610b0b" stroke-width="2" stroke-linecap="butt" stroke-linejoin="miter" stroke-miterlimit="4" transform="translate(32.519 -26.444330709)" d="M 0 0m 0 81.291661417h 56.692913386v 85.039370079h 56.692913386v 85.039370079h 56.692913386v 56.692913386h 56.692913386v 11.338582677h 56.692913386"/><path fill="none" stroke="#000000" stroke-width="1" stroke-linecap="butt" stroke-linejoin="miter" stroke-miterlimit="4" stroke-dashoffset="0" stroke-dasharray="1 2" transform="translate(89.211913386 18.91)" d="M 0 0m 0 35.937330709v 283.464566929"/><path fill="none" stroke="#000000" stroke-width="1" stroke-linecap="butt" stroke-linejoin="miter" stroke-miterlimit="4" stroke-dashoffset="0" stroke-dasharray="1 2" transform="translate(32.519 -264.554566929)" d="M 0 0m 56.692913386 319.401897638h -56.692913386"/><path fill="none" transform="translate(81.621413386 36.94)" d="M 0 0m 0 301.371897638h 15.181v 18.03h -15.181v -18.03Z "/><g transform="translate(81.621413307 338.311897543)"><g transform="matrix(1 0 0 -1 5 13.019)"><use xlink:href="#gAAD3DB6919C98E87B45A46C1A96360DB" x="0" y="0" fill="#000000" fill-rule="nonzero"/></g></g><path fill="none" stroke="#000000" stroke-width="1" stroke-linecap="butt" stroke-linejoin="miter" stroke-miterlimit="4" stroke-dashoffset="0" stroke-dasharray="1 2" transform="translate(145.904826772 18.91)" d="M 0 0m 0 120.976700787v 198.42519685"/><path fill="none" stroke="#000000" stroke-width="1" stroke-linecap="butt" stroke-linejoin="miter" stroke-miterlimit="4" stroke-dashoffset="0" stroke-dasharray="1 2" transform="translate(32.519 -179.51519685)" d="M 0 0m 113.385826772 319.401897638h -113.385826772"/><path fill="none" transform="translate(137.835826772 36.929)" d="M 0 0m 0 301.382897638h 16.138v 18.019h -16.138v -18.019Z "/><g transform="translate(137.83582674 338.311897606)"><g transform="matrix(1 0 0 -1 5 13.019)"><use xlink:href="#gAFABDC25F7B01C1BA193B0B92AA67F18" x="0" y="0" fill="#000000" fill-rule="nonzero"/></g></g><path fill="none" stroke="#000000" stroke-width="1" stroke-linecap="butt" stroke-linejoin="miter" stroke-miterlimit="4" stroke-dashoffset="0" stroke-dasharray="1 2" transform="translate(202.597740157 18.91)" d="M 0 0m 0 206.016070866v 113.385826772"/><path fill="none" stroke="#000000" stroke-width="1" stroke-linecap="butt" stroke-linejoin="miter" stroke-miterlimit="4" stroke-dashoffset="0" stroke-dasharray="1 2" transform="translate(32.519 -94.475826772)" d="M 0 0m 170.078740157 319.401897638h -170.078740157"/><path fill="none" transform="translate(194.534240157 37.094)" d="M 0 0m 0 301.217897638h 16.127v 18.184h -16.127v -18.184Z "/><g transform="translate(194.534240047 338.311897512)"><g transform="matrix(1 0 0 -1 5 13.019)"><use xlink:href="#gAC8B39D80EAB9EC3D212F4ABFF35DA34" x="0" y="0" fill="#000000" fill-rule="nonzero"/></g></g><path fill="none" stroke="#000000" stroke-width="1" stroke-linecap="butt" stroke-linejoin="miter" stroke-miterlimit="4" stroke-dashoffset="0" stroke-dasharray="1 2" transform="translate(259.290653543 18.91)" d="M 0 0m 0 262.708984252v 56.692913386"/><path fill="none" stroke="#000000" stroke-width="1" stroke-linecap="butt" stroke-linejoin="miter" stroke-miterlimit="4" stroke-dashoffset="0" stroke-dasharray="1 2" transform="translate(32.519 -37.782913386)" d="M 0 0m 226.771653543 319.401897638h -226.771653543"/><path fill="none" transform="translate(251.238153543 37.127)" d="M 0 0m 0 301.184897638h 16.105v 18.217h -16.105v -18.217Z "/><g transform="translate(251.238153417 338.311897606)"><g transform="matrix(1 0 0 -1 5 13.019)"><use xlink:href="#g31E96DF3505690A3742484563F8AD404" x="0" y="0" fill="#000000" fill-rule="nonzero"/></g></g><path fill="none" stroke="#000000" stroke-width="1" stroke-linecap="butt" stroke-linejoin="miter" stroke-miterlimit="4" stroke-dashoffset="0" stroke-dasharray="1 2" transform="translate(315.983566929 18.91)" d="M 0 0m 0 274.047566929v 45.354330709"/><path fill="none" stroke="#000000" stroke-width="1" stroke-linecap="butt" stroke-linejoin="miter" stroke-miterlimit="4" stroke-dashoffset="0" stroke-dasharray="1 2" transform="translate(32.519 -26.444330709)" d="M 0 0m 283.464566929 319.401897638h -283.464566929"/><path fill="none" transform="translate(307.914566929 37.094)" d="M 0 0m 0 301.217897638h 16.138v 18.184h -16.138v -18.184Z "/><g transform="translate(307.914566898 338.311897512)"><g transform="matrix(1 0 0 -1 5 13.019)"><use xlink:href="#g90D12CA7ACAB4A5DC828389506E1C2B6" x="0" y="0" fill="#000000" fill-rule="nonzero"/></g></g><path fill="none" transform="translate(50.365456693 37.82)" d="M 0 0m 0 300.491897638h 21v 18.91h -21v -18.91Z "/><g transform="translate(50.365456598 338.311897606)"><g transform="matrix(1 0 0 -1 5 13.019)"><use xlink:href="#g35AFACA7BC5E1E13D629A8084D4A6912" x="0" y="0" fill="#000000" fill-rule="nonzero"/></g></g><path fill="none" transform="translate(107.058370079 37.776)" d="M 0 0m 0 300.535897638h 21v 18.866h -21v -18.866Z "/><g transform="translate(107.058369984 338.311897575)"><g transform="matrix(1 0 0 -1 5 13.019)"><use xlink:href="#g9F47CBA01A1749AF2BAC41AF487C3CF6" x="0" y="0" fill="#000000" fill-rule="nonzero"/></g></g><path fill="none" transform="translate(163.751283465 37.787)" d="M 0 0m 0 300.524897638h 21v 18.877h -21v -18.877Z "/><g transform="translate(163.75128337 338.311897512)"><g transform="matrix(1 0 0 -1 5 13.019)"><use xlink:href="#g86F26720B2B8E575E8BBB5CD30B8C3B9" x="0" y="0" fill="#000000" fill-rule="nonzero"/></g></g><path fill="none" transform="translate(220.44419685 37.787)" d="M 0 0m 0 300.524897638h 21v 18.877h -21v -18.877Z "/><g transform="translate(220.444196756 338.311897512)"><g transform="matrix(1 0 0 -1 5 13.019)"><use xlink:href="#g1320A128FEECC4858409BCD9B4D6DF28" x="0" y="0" fill="#000000" fill-rule="nonzero"/></g></g><path fill="none" transform="translate(277.137110236 37.798)" d="M 0 0m 0 300.513897638h 21v 18.888h -21v -18.888Z "/><g transform="translate(277.137110142 338.311897591)"><g transform="matrix(1 0 0 -1 5 13.019)"><use xlink:href="#g3F3CE5C34015F4BBD21F5877E611DF56" x="0" y="0" fill="#000000" fill-rule="nonzero"/></g></g></g><defs><symbol id="gD76D9EA1D9A132CF9F593BFE57067EF1" overflow="visible"><path d="M 0 0m 1.034 8.91l -0.121 -0.077c 0.308 -0.363 0.682 -0.957 0.726 -1.43c 0.616 -0.506 1.221 0.781 -0.605 1.507Z m 3.586 0.055c -0.22 -0.583 -0.506 -1.221 -0.715 -1.606l 0.165 -0.099c 0.352 0.275 0.77 0.715 1.1 1.111c 0.22 -0.011 0.352 0.055 0.407 0.165Z m -1.815 0.253v -2.123h -2.288l 0.088 -0.319h 1.87c -0.484 -0.891 -1.21 -1.716 -2.101 -2.343l 0.11 -0.176c 0.935 0.462 1.727 1.056 2.321 1.771v -1.507h 0.132c 0.253 0 0.55 0.154 0.55 0.242v 1.595c 0.528 -0.385 1.155 -0.968 1.386 -1.441c 0.748 -0.396 1.111 1.045 -1.386 1.639v 0.22h 2.299c 0.154 0 0.253 0.055 0.286 0.165c -0.33 0.319 -0.858 0.748 -0.858 0.748l -0.462 -0.594h -1.265v 1.716c 0.264 0.044 0.374 0.143 0.407 0.297Z m -0.253 -4.763c -0.088 -0.264 -0.231 -0.638 -0.418 -1.045h -1.727l 0.077 -0.319h 1.507c -0.33 -0.726 -0.726 -1.507 -1.023 -1.947c 0.264 -0.132 0.561 -0.154 0.726 -0.077l 0.319 0.583c 0.44 -0.187 0.836 -0.385 1.177 -0.605c -0.583 -0.726 -1.452 -1.298 -2.662 -1.76l 0.077 -0.165c 1.353 0.363 2.365 0.869 3.091 1.595c 0.385 -0.286 0.671 -0.561 0.847 -0.781c 0.616 -0.253 0.946 0.649 -0.374 1.331c 0.363 0.517 0.627 1.122 0.792 1.826h 1.001c 0.143 0 0.253 0.055 0.275 0.176c -0.341 0.319 -0.902 0.759 -0.902 0.759l -0.495 -0.616h -1.947l 0.264 0.594c 0.275 0.011 0.396 0.099 0.44 0.242Z m 0.187 -1.364h 1.375c -0.11 -0.583 -0.308 -1.1 -0.583 -1.562c -0.385 0.132 -0.847 0.242 -1.408 0.319Z m 4.235 6.105c -0.242 -1.892 -0.814 -3.773 -1.507 -5.06l 0.165 -0.099c 0.363 0.418 0.693 0.924 0.979 1.485c 0.198 -1.243 0.506 -2.398 0.968 -3.421c -0.704 -1.122 -1.738 -2.046 -3.256 -2.805l 0.088 -0.154c 1.573 0.594 2.684 1.375 3.487 2.343c 0.506 -0.924 1.188 -1.716 2.09 -2.343c 0.11 0.33 0.363 0.495 0.682 0.539l 0.033 0.11c -1.023 0.55 -1.815 1.309 -2.42 2.222c 0.792 1.199 1.188 2.651 1.397 4.389h 0.748c 0.154 0 0.253 0.055 0.286 0.176c -0.363 0.341 -0.957 0.803 -0.957 0.803l -0.506 -0.649h -2.101c 0.242 0.616 0.44 1.265 0.605 1.947c 0.231 0.011 0.352 0.11 0.396 0.253Z m 0.924 -6.534c -0.517 0.968 -0.858 2.057 -1.1 3.245l 0.22 0.495h 1.837c -0.121 -1.419 -0.407 -2.651 -0.957 -3.74Z "/></symbol><symbol id="g258A45EB461773E387C8EE3EC824C66E" overflow="visible"><path d="M 0 0m 0.572 5.401l 0.099 -0.319h 9.46c 0.154 0 0.264 0.055 0.286 0.176c -0.352 0.319 -0.924 0.759 -0.924 0.759l -0.506 -0.616Z m 7.282 1.815v -0.781h -4.774v 0.781Z m 0 0.33h -4.774v 0.748h 4.774Z m -5.489 1.067v -2.981h 0.11c 0.286 0 0.605 0.165 0.605 0.231v 0.253h 4.774v -0.418h 0.11c 0.231 0 0.594 0.165 0.605 0.231v 2.233c 0.22 0.044 0.396 0.132 0.473 0.209l -0.891 0.693l -0.407 -0.451h -4.598l -0.781 0.352Z m 5.643 -5.709v -0.836h -2.189v 0.836Z m 0 0.33h -2.189v 0.803h 2.189Z m -5.027 -0.33h 2.134v -0.836h -2.134Z m 0 0.33v 0.803h 2.134v -0.803Z m -1.595 -2.31l 0.099 -0.319h 3.63v -0.902h -4.554l 0.099 -0.319h 9.526c 0.165 0 0.275 0.055 0.297 0.176c -0.385 0.341 -0.979 0.814 -0.979 0.814l -0.528 -0.671h -3.157v 0.902h 3.652c 0.143 0 0.253 0.055 0.286 0.176c -0.341 0.319 -0.891 0.737 -0.891 0.737l -0.484 -0.594h -2.563v 0.825h 2.189v -0.319h 0.11c 0.231 0 0.594 0.165 0.616 0.231v 2.233c 0.22 0.044 0.407 0.132 0.473 0.22l -0.913 0.704l -0.396 -0.451h -4.851l -0.781 0.352v -3.487h 0.11c 0.286 0 0.605 0.165 0.605 0.231v 0.286h 2.134v -0.825Z "/></symbol><symbol id="g3A7FD976C145550C6234157C596CE2F0" overflow="visible"><path d="M 0 0m 7.733 4.862c -0.495 -1.045 -1.21 -1.98 -2.123 -2.794c -0.968 0.759 -1.749 1.683 -2.244 2.794Z m -7.106 2.552l 0.099 -0.319h 4.4v -1.914h -3.806l 0.099 -0.319h 1.705c 0.451 -1.265 1.155 -2.31 2.046 -3.168c -1.276 -1.023 -2.871 -1.826 -4.719 -2.365l 0.088 -0.198c 2.068 0.462 3.74 1.199 5.071 2.167c 1.166 -0.979 2.607 -1.672 4.246 -2.134c 0.121 0.352 0.385 0.572 0.737 0.616l 0.011 0.11c -1.661 0.341 -3.212 0.946 -4.477 1.804c 1.045 0.869 1.848 1.881 2.453 3.036c 0.286 0.011 0.407 0.044 0.506 0.132l -0.814 0.781l -0.517 -0.462h -1.903v 1.914h 4.268c 0.154 0 0.264 0.055 0.297 0.176c -0.396 0.352 -1.023 0.836 -1.023 0.836l -0.55 -0.693h -2.992v 1.375c 0.275 0.044 0.385 0.154 0.407 0.308l -1.133 0.11v -1.793Z "/></symbol><symbol id="gBEE340EF6338AB59665F34B699E78CB9" overflow="visible"><path d="M 0 0m 6.644 8.932c -0.363 -2.453 -1.078 -5.709 -1.837 -8.228c -0.605 -0.066 -1.1 -0.099 -1.452 -0.121l 0.462 -1.045c 0.11 0.022 0.22 0.099 0.275 0.231c 2.266 0.484 3.938 0.858 5.203 1.177c 0.231 -0.561 0.407 -1.1 0.495 -1.573c 0.979 -0.847 1.463 1.65 -2.024 4.818l -0.165 -0.077c 0.506 -0.814 1.122 -1.892 1.584 -2.926c -1.507 -0.187 -2.97 -0.352 -4.103 -0.462c 1.056 2.453 1.936 5.489 2.387 7.656c 0.275 0.011 0.385 0.143 0.418 0.286Z m -6.347 -5.489l 0.374 -0.935c 0.099 0.044 0.198 0.143 0.231 0.275l 1.287 0.605v -3.124c 0 -0.165 -0.055 -0.209 -0.242 -0.209c -0.198 0 -1.188 0.066 -1.188 0.066v -0.176c 0.429 -0.055 0.682 -0.132 0.836 -0.253c 0.143 -0.121 0.198 -0.319 0.22 -0.539c 0.957 0.099 1.067 0.462 1.067 1.056v 3.52l 1.87 0.946l -0.044 0.165l -1.826 -0.616v 2.156h 1.562c 0.154 0 0.253 0.055 0.286 0.176c -0.33 0.33 -0.847 0.77 -0.847 0.77l -0.473 -0.627h -0.528v 2.101c 0.275 0.033 0.385 0.143 0.407 0.297l -1.1 0.121v -2.519h -1.705l 0.088 -0.319h 1.617v -2.376c -0.825 -0.275 -1.507 -0.473 -1.892 -0.561Z "/></symbol><symbol id="gFF69826C171CE760FDC0A9D4ACD2210F" overflow="visible"><path d="M 0 0m 8.173 1.87l -0.11 -0.099c 0.671 -0.495 1.496 -1.353 1.705 -2.079c 0.825 -0.517 1.254 1.298 -1.595 2.178Z m -4.917 0.066v -1.914c 0 -0.561 0.176 -0.704 1.144 -0.704h 1.474c 2.046 0 2.409 0.121 2.409 0.451c 0 0.143 -0.077 0.22 -0.33 0.297l -0.033 1.155h -0.143c -0.11 -0.528 -0.22 -0.957 -0.308 -1.122c -0.055 -0.099 -0.099 -0.121 -0.253 -0.132c -0.176 -0.011 -0.671 -0.011 -1.309 -0.011h -1.419c -0.484 0 -0.528 0.022 -0.528 0.176v 1.441c 0.198 0.022 0.297 0.132 0.319 0.253Z m -1.265 -0.121c -0.011 -0.77 -0.572 -1.331 -1.089 -1.529c -0.22 -0.11 -0.385 -0.308 -0.297 -0.528c 0.099 -0.253 0.484 -0.253 0.781 -0.099c 0.484 0.242 1.067 0.935 0.803 2.156Z m 2.728 0.429l -0.099 -0.099c 0.517 -0.341 1.188 -0.957 1.419 -1.463c 0.781 -0.363 1.089 1.177 -1.32 1.562Z m 0.407 6.985v -1.034h -3.883l 0.099 -0.319h 1.892c 0.242 -0.319 0.506 -0.869 0.506 -1.309l 0.11 -0.077h -3.278l 0.099 -0.319h 9.493c 0.154 0 0.264 0.044 0.297 0.165c -0.385 0.352 -0.99 0.814 -0.99 0.814l -0.528 -0.66h -2.156c 0.308 0.308 0.627 0.649 0.847 0.935c 0.231 -0.011 0.374 0.077 0.407 0.198l -0.902 0.253h 2.453c 0.154 0 0.275 0.055 0.297 0.176c -0.385 0.341 -0.979 0.803 -0.979 0.803l -0.539 -0.66h -2.53v 0.627c 0.275 0.033 0.396 0.143 0.418 0.297Z m -1.595 -1.353h 3.355c -0.099 -0.418 -0.286 -0.968 -0.44 -1.386h -2.189c 0.341 0.187 0.374 0.913 -0.726 1.386Z m 4.389 -4.037v -0.946h -4.84v 0.946Z m 0 0.319h -4.84v 0.913h 4.84Z m -5.544 1.243v -3.322h 0.11c 0.286 0 0.594 0.165 0.594 0.242v 0.264h 4.84v -0.418h 0.11c 0.242 0 0.583 0.165 0.594 0.231v 2.53c 0.231 0.055 0.407 0.143 0.484 0.231l -0.891 0.671l -0.407 -0.429h -4.664l -0.77 0.33Z "/></symbol><symbol id="g1E3749C33769CC0361B89C80D9660E6" overflow="visible"><path d="M 0 0m 4.576 3.454l -0.11 -0.099c 0.649 -0.418 1.43 -1.188 1.628 -1.859c 0.836 -0.462 1.199 1.353 -1.518 1.958Z m -1.32 -0.583v -2.805c 0 -0.572 0.187 -0.726 1.166 -0.726h 1.485c 2.046 0 2.431 0.11 2.431 0.462c 0 0.143 -0.077 0.22 -0.33 0.308l -0.033 1.375h -0.143c -0.132 -0.616 -0.242 -1.144 -0.33 -1.331c -0.055 -0.11 -0.099 -0.143 -0.253 -0.154c -0.187 -0.022 -0.682 -0.022 -1.32 -0.022h -1.408c -0.506 0 -0.561 0.044 -0.561 0.22v 2.299c 0.209 0.033 0.308 0.121 0.33 0.253Z m -1.199 -0.187c -0.077 -0.946 -0.704 -1.727 -1.265 -2.024c -0.22 -0.132 -0.374 -0.363 -0.264 -0.583c 0.132 -0.253 0.539 -0.198 0.847 0.011c 0.495 0.319 1.122 1.188 0.869 2.596Z m 6.105 0.143l -0.132 -0.099c 0.759 -0.638 1.639 -1.727 1.815 -2.618c 0.869 -0.649 1.441 1.43 -1.683 2.717Z m -5.511 3.278h 2.453v -1.837h -2.453Z m 0 0.319v 1.815h 2.453v -1.815Z m -0.726 2.134v -5.258h 0.121c 0.297 0 0.605 0.176 0.605 0.253v 0.396h 5.72v -0.462h 0.11c 0.242 0 0.605 0.176 0.616 0.242v 4.367c 0.209 0.044 0.385 0.132 0.462 0.22l -0.891 0.693l -0.407 -0.451h -5.555l -0.781 0.352Z m 3.883 -0.319h 2.563v -1.815h -2.563Z m 0 -2.134h 2.563v -1.837h -2.563Z "/></symbol><symbol id="g77184B63642C89D93216433E87FD5ACC" overflow="visible"><path d="M 0 0m 8.305 1.166l -0.121 -0.11c 0.638 -0.429 1.485 -1.21 1.749 -1.837c 0.814 -0.418 1.155 1.254 -1.628 1.947Z m -1.408 0.055c -0.506 -0.693 -1.529 -1.485 -2.431 -1.947l 0.099 -0.165c 1.056 0.319 2.277 0.924 2.893 1.507c 0.187 -0.055 0.308 -0.044 0.363 0.066Z m -2.948 1.199v -1.98h -1.782v 1.98Z m -1.496 4.818c -0.396 -1.133 -1.133 -2.31 -1.881 -2.981l 0.154 -0.132c 0.385 0.242 0.748 0.55 1.078 0.891c 0.341 -0.154 0.726 -0.363 1.111 -0.594c -0.671 -0.858 -1.551 -1.639 -2.563 -2.189l 0.11 -0.176c 0.374 0.154 0.726 0.33 1.056 0.517v -3.333h 0.11c 0.319 0 0.539 0.187 0.539 0.242v 0.649h 1.782v -0.429h 0.11c 0.22 0 0.561 0.154 0.572 0.231v 2.42c 0.165 0.022 0.308 0.099 0.363 0.176l -0.77 0.583l -0.352 -0.374h -1.573l -0.308 0.132c 0.55 0.363 1.034 0.781 1.441 1.232c 0.583 -0.374 1.1 -0.781 1.386 -1.122c 0.638 -0.198 0.737 0.715 -1.012 1.562c 0.319 0.396 0.583 0.814 0.792 1.243c 0.253 0.011 0.363 0.044 0.451 0.143l -0.77 0.693l -0.462 -0.44h -1.111c 0.11 0.165 0.209 0.341 0.297 0.517c 0.231 -0.011 0.363 0.066 0.396 0.187Z m -1.111 1.1c -0.066 -0.704 -0.374 -1.199 -0.737 -1.408c -0.528 -0.693 0.913 -1.056 0.979 0.55h 2.948l -0.253 -0.781l 0.143 -0.088c 0.286 0.187 0.682 0.517 0.902 0.748c 0.209 0.011 0.319 0.033 0.407 0.11l -0.803 0.781l -0.429 -0.451h -1.067v 0.924c 0.275 0.033 0.385 0.143 0.407 0.297l -1.089 0.11v -1.331h -1.166c -0.011 0.165 -0.033 0.341 -0.066 0.528Z m 1.848 -3.531c -0.352 0.132 -0.759 0.264 -1.221 0.385c 0.187 0.209 0.363 0.44 0.528 0.671h 1.287c -0.154 -0.363 -0.352 -0.715 -0.594 -1.056Z m 2.629 1.969v -5.698h 0.11c 0.308 0 0.572 0.154 0.572 0.242v 0.308h 2.739v -0.407h 0.099c 0.242 0 0.572 0.165 0.583 0.242v 4.906c 0.198 0.033 0.352 0.11 0.418 0.187l -0.825 0.627l -0.374 -0.407h -1.54c 0.231 0.341 0.484 0.836 0.693 1.276h 2.024c 0.154 0 0.264 0.055 0.286 0.176c -0.363 0.33 -0.957 0.803 -0.957 0.803l -0.528 -0.66h -3.817l 0.088 -0.319h 2.068c -0.044 -0.429 -0.121 -0.924 -0.198 -1.276h -0.704l -0.737 0.352Z m 3.421 -1.903v -1.287h -2.739v 1.287Z m 0 0.33h -2.739v 1.254h 2.739Z m 0 -1.936v -1.32h -2.739v 1.32Z "/></symbol><symbol id="g90D12CA7ACAB4A5DC828389506E1C2B6" overflow="visible"><path d="M 0 0m 2.706 -0.165c 1.716 0 2.816 1.023 2.816 2.585c 0 1.562 -1.012 2.398 -2.585 2.398c -0.495 0 -0.946 -0.066 -1.386 -0.253l 0.176 2.673h 3.586v 0.77h -3.938l -0.253 -3.784l 0.275 -0.11c 0.385 0.176 0.814 0.264 1.287 0.264c 1.133 0 1.87 -0.638 1.87 -2.002c 0 -1.408 -0.715 -2.2 -1.98 -2.2c -0.352 0 -0.605 0.055 -0.858 0.165l -0.264 0.847c -0.088 0.396 -0.231 0.539 -0.506 0.539c -0.209 0 -0.385 -0.11 -0.462 -0.319c 0.198 -1.012 1.034 -1.573 2.222 -1.573Z "/></symbol><symbol id="g2C11D370D73543298B6E2A91975BE329" overflow="visible"><path d="M 0 0m 3.058 -0.165c 1.32 0 2.541 1.199 2.541 4.191c 0 2.948 -1.221 4.147 -2.541 4.147c -1.32 0 -2.541 -1.199 -2.541 -4.147c 0 -2.992 1.221 -4.191 2.541 -4.191Z m 0 0.341c -0.825 0 -1.628 0.924 -1.628 3.85c 0 2.882 0.803 3.795 1.628 3.795c 0.814 0 1.628 -0.913 1.628 -3.795c 0 -2.926 -0.814 -3.85 -1.628 -3.85Z "/></symbol><symbol id="gAC8B39D80EAB9EC3D212F4ABFF35DA34" overflow="visible"><path d="M 0 0m 2.816 -0.165c 1.54 0 2.607 0.88 2.607 2.233c 0 1.155 -0.649 1.958 -2.068 2.156c 1.221 0.275 1.837 1.078 1.837 2.013c 0 1.155 -0.814 1.936 -2.222 1.936c -1.045 0 -2.024 -0.44 -2.211 -1.529c 0.066 -0.187 0.231 -0.275 0.418 -0.275c 0.275 0 0.44 0.121 0.539 0.495l 0.253 0.847c 0.275 0.088 0.528 0.121 0.792 0.121c 0.957 0 1.496 -0.605 1.496 -1.628c 0 -1.177 -0.759 -1.815 -1.826 -1.815h -0.44v -0.385h 0.495c 1.32 0 2.002 -0.693 2.002 -1.903c 0 -1.166 -0.704 -1.925 -1.925 -1.925c -0.308 0 -0.572 0.055 -0.814 0.143l -0.264 0.858c -0.099 0.407 -0.253 0.561 -0.517 0.561c -0.209 0 -0.374 -0.121 -0.451 -0.341c 0.22 -1.023 1.045 -1.562 2.299 -1.562Z "/></symbol><symbol id="gAFABDC25F7B01C1BA193B0B92AA67F18" overflow="visible"><path d="M 0 0m 0.704 0h 4.917v 0.77h -4.312c 0.671 0.737 1.32 1.452 1.639 1.782c 1.672 1.716 2.343 2.519 2.343 3.531c 0 1.298 -0.759 2.09 -2.233 2.09c -1.122 0 -2.178 -0.572 -2.354 -1.694c 0.066 -0.22 0.242 -0.341 0.451 -0.341c 0.253 0 0.429 0.143 0.539 0.572l 0.264 0.957c 0.286 0.121 0.561 0.165 0.836 0.165c 0.979 0 1.562 -0.627 1.562 -1.727c 0 -0.968 -0.484 -1.738 -1.65 -3.146c -0.539 -0.638 -1.276 -1.507 -2.002 -2.365Z "/></symbol><symbol id="gAAD3DB6919C98E87B45A46C1A96360DB" overflow="visible"><path d="M 0 0m 0.825 0l 3.872 -0.011v 0.308l -1.419 0.165l -0.022 2.068v 3.729l 0.044 1.738l -0.165 0.121l -2.365 -0.605v -0.33l 1.584 0.264v -4.917l -0.022 -2.068l -1.507 -0.154Z "/></symbol><symbol id="g8A0D31807D8EF3903744421E7142FA96" overflow="visible"><path d="M 0 0m 3.014 -0.165c 1.518 0 2.519 0.825 2.519 2.101c 0 1.023 -0.561 1.727 -1.936 2.365c 1.188 0.561 1.606 1.287 1.606 2.035c 0 1.056 -0.77 1.837 -2.112 1.837c -1.243 0 -2.233 -0.77 -2.233 -1.98c 0 -0.935 0.473 -1.716 1.606 -2.266c -1.21 -0.528 -1.837 -1.199 -1.837 -2.167c 0 -1.155 0.847 -1.925 2.387 -1.925Z m 0.33 4.587c -1.32 0.583 -1.672 1.254 -1.672 1.991c 0 0.88 0.66 1.408 1.408 1.408c 0.88 0 1.353 -0.671 1.353 -1.463c 0 -0.836 -0.319 -1.408 -1.089 -1.936Z m -0.616 -0.616c 1.496 -0.66 1.947 -1.309 1.947 -2.112c 0 -0.913 -0.594 -1.518 -1.617 -1.518c -1.023 0 -1.628 0.638 -1.628 1.683c 0 0.836 0.374 1.386 1.298 1.947Z "/></symbol><symbol id="g8ADD4536D6D732F1503249E344DFD0F2" overflow="visible"><path d="M 0 0m 2.057 6.149l 0.088 -0.33h 2.288c 0.154 0 0.242 0.055 0.275 0.176c -0.275 0.264 -0.693 0.561 -0.693 0.561l -0.363 -0.407Z m -0.209 -1.122l 0.088 -0.319h 2.552c 0.143 0 0.242 0.055 0.275 0.165c -0.286 0.264 -0.715 0.583 -0.715 0.583l -0.385 -0.429Z m 4.4 1.122l 0.088 -0.33h 2.343c 0.154 0 0.253 0.055 0.275 0.176c -0.275 0.264 -0.704 0.572 -0.704 0.572l -0.385 -0.418Z m -0.011 -1.122l 0.088 -0.319h 2.64c 0.154 0 0.253 0.055 0.275 0.165c -0.286 0.275 -0.748 0.605 -0.748 0.605l -0.396 -0.451Z m -4.521 -2.387v -3.498h 0.099c 0.286 0 0.583 0.165 0.583 0.231v 2.948h 1.628v -3.058h 0.11c 0.352 0 0.572 0.165 0.572 0.209v 2.849h 1.683v -3.058h 0.11c 0.352 0 0.572 0.165 0.572 0.209v 2.849h 1.672v -2.09c 0 -0.143 -0.044 -0.198 -0.187 -0.198c -0.187 0 -0.902 0.055 -0.902 0.055v -0.176c 0.341 -0.055 0.55 -0.121 0.66 -0.242c 0.099 -0.11 0.143 -0.308 0.165 -0.528c 0.858 0.088 0.957 0.429 0.957 0.99v 2.068c 0.209 0.044 0.385 0.132 0.451 0.209l -0.891 0.66l -0.363 -0.429h -3.718c 0.231 0.275 0.517 0.649 0.737 0.979h 4.455c 0.165 0 0.275 0.055 0.308 0.176c -0.374 0.319 -0.946 0.748 -0.946 0.748l -0.506 -0.605h -8.349l 0.099 -0.319h 4.092c -0.099 -0.308 -0.231 -0.682 -0.352 -0.979h -1.98l -0.759 0.352Z m -0.165 5.907l 0.088 -0.319h 3.465v -0.924h -3.3c -0.022 0.143 -0.066 0.297 -0.121 0.462l -0.198 -0.011c 0.077 -0.638 -0.242 -1.221 -0.649 -1.43c -0.22 -0.132 -0.374 -0.341 -0.275 -0.583c 0.121 -0.253 0.495 -0.253 0.759 -0.077c 0.297 0.209 0.561 0.649 0.517 1.32h 3.267v -2.75h 0.11c 0.363 0 0.605 0.154 0.605 0.209v 2.541h 3.542c -0.099 -0.363 -0.253 -0.836 -0.363 -1.122l 0.143 -0.088c 0.341 0.286 0.781 0.759 1.023 1.089c 0.209 0.011 0.33 0.033 0.407 0.11l -0.803 0.792l -0.451 -0.462h -3.498v 0.924h 3.575c 0.154 0 0.264 0.055 0.297 0.176c -0.385 0.33 -0.957 0.759 -0.957 0.759l -0.506 -0.616Z "/></symbol><symbol id="gE13B11393690EE3ACD0AFF3421322E1B" overflow="visible"><path d="M 0 0m 0.451 3.322l 0.099 -0.33h 2.915c -0.528 -0.759 -1.111 -1.54 -1.529 -2.013c 0.253 -0.165 0.572 -0.22 0.77 -0.176l 0.44 0.572c 0.814 -0.165 1.551 -0.352 2.222 -0.539c -1.133 -0.77 -2.75 -1.199 -4.928 -1.496l 0.033 -0.198c 2.651 0.209 4.433 0.627 5.654 1.463c 1.265 -0.407 2.244 -0.869 2.959 -1.342c 0.858 -0.495 1.683 0.847 -2.387 1.804c 0.528 0.506 0.924 1.144 1.232 1.925h 2.332c 0.154 0 0.253 0.055 0.286 0.176c -0.374 0.341 -0.979 0.803 -0.979 0.803l -0.528 -0.649h -4.477c 0.253 0.374 0.484 0.715 0.627 0.957c 0.286 -0.022 0.418 0.077 0.462 0.22l -0.979 0.242h 3.993v -0.528h 0.11c 0.231 0 0.583 0.154 0.594 0.22v 2.211c 0.22 0.044 0.407 0.132 0.484 0.22l -0.891 0.682l -0.407 -0.44h -1.551v 1.122h 3.179c 0.154 0 0.264 0.055 0.297 0.176c -0.385 0.319 -0.968 0.77 -0.968 0.77l -0.528 -0.627h -8.459l 0.099 -0.319h 3.322v -1.122h -1.551l -0.781 0.352v -3.355h 0.099c 0.286 0 0.605 0.165 0.605 0.231v 0.407h 2.255c -0.187 -0.352 -0.506 -0.869 -0.88 -1.419Z m 4.191 4.906h 1.65v -1.122h -1.65Z m -0.693 -3.179h -1.628v 1.738h 1.628Z m 0.693 0v 1.738h 1.65v -1.738Z m 2.365 0v 1.738h 1.661v -1.738Z m -2.673 -2.057h 2.717c -0.264 -0.704 -0.649 -1.287 -1.166 -1.749c -0.726 0.132 -1.573 0.264 -2.563 0.363c 0.33 0.44 0.693 0.935 1.012 1.386Z "/></symbol><symbol id="gF161F043EC35B6642B74098AD38310B1" overflow="visible"><path d="M 0 0m 3.762 6.369v -2.772h -1.903v 2.772Z m -2.618 0.319v -7.524h 0.121c 0.33 0 0.594 0.176 0.594 0.264v 0.572h 7.172v -0.781h 0.099c 0.264 0 0.605 0.187 0.627 0.275v 6.732c 0.209 0.044 0.396 0.132 0.462 0.231l -0.891 0.693l -0.407 -0.462h -1.848v 2.002c 0.264 0.044 0.363 0.154 0.396 0.308l -1.111 0.121v -2.431h -1.892v 2.002c 0.264 0.044 0.363 0.154 0.396 0.308l -1.1 0.121v -2.431h -1.826l -0.792 0.374Z m 3.322 -0.319h 1.892v -2.772h -1.892Z m -0.704 -6.039h -1.903v 2.948h 1.903Z m 0.704 0v 2.948h 1.892v -2.948Z m 2.607 6.039h 1.958v -2.772h -1.958Z m 0 -6.039v 2.948h 1.958v -2.948Z "/></symbol><symbol id="g7FE7B80F12BB41E33327478BBF1B7A20" overflow="visible"><path d="M 0 0m 3.399 3.08l -0.132 -0.044c 0.253 -0.517 0.539 -1.32 0.539 -1.925c 0.594 -0.594 1.309 0.748 -0.407 1.969Z m -2.321 -0.099c -0.11 -1.023 -0.352 -2.101 -0.649 -2.86l 0.187 -0.088c 0.462 0.627 0.825 1.573 1.078 2.475c 0.22 0.011 0.33 0.099 0.374 0.231Z m 4.598 3.102h 3.41v -1.254h -3.41Z m 0 0.319v 1.232h 3.41v -1.232Z m 4.059 -2.343c -0.242 -0.407 -0.737 -1.111 -1.166 -1.606c -0.352 0.55 -0.627 1.221 -0.803 2.068h 1.32v -0.429h 0.11c 0.33 0 0.594 0.165 0.594 0.22v 3.278c 0.22 0.033 0.341 0.088 0.407 0.176l -0.792 0.616l -0.352 -0.429h -2.09c 0.209 0.253 0.462 0.572 0.627 0.803c 0.242 0 0.363 0.088 0.407 0.253l -1.155 0.209c -0.066 -0.352 -0.187 -0.891 -0.275 -1.265h -0.77l -0.814 0.352v -4.29h 0.11c 0.352 0 0.583 0.143 0.583 0.209v 0.297h 1.32v -4.29c 0 -0.143 -0.055 -0.198 -0.231 -0.198c -0.209 0 -1.221 0.077 -1.221 0.077v -0.165c 0.473 -0.066 0.726 -0.154 0.869 -0.264c 0.132 -0.121 0.187 -0.319 0.198 -0.528c 0.935 0.11 1.056 0.517 1.056 1.067v 3.982c 0.407 -2.365 1.254 -3.531 2.497 -4.455c 0.11 0.341 0.319 0.572 0.594 0.627l 0.022 0.121c -0.781 0.396 -1.518 0.924 -2.101 1.771c 0.572 0.352 1.188 0.781 1.518 1.067c 0.198 -0.066 0.374 -0.011 0.418 0.077Z m -5.445 -0.836l 0.099 -0.33h 1.43c -0.297 -1.166 -0.935 -2.288 -1.969 -3.036l 0.11 -0.165c 1.408 0.726 2.189 1.914 2.574 3.157c 0.242 0.011 0.341 0.033 0.429 0.132l -0.748 0.638l -0.429 -0.396Z m -1.089 2.332l -0.132 -0.055c 0.176 -0.264 0.374 -0.616 0.528 -0.979l -1.782 -0.077c 0.792 0.924 1.639 2.079 2.134 2.882c 0.231 -0.033 0.385 0.044 0.44 0.154l -1.023 0.473c -0.473 -1.023 -1.232 -2.453 -1.87 -3.52l -1.034 -0.022l 0.319 -0.836c 0.11 0.022 0.209 0.077 0.275 0.22l 1.177 0.198v -4.851h 0.099c 0.341 0 0.583 0.176 0.583 0.231v 4.752l 0.77 0.154c 0.077 -0.209 0.121 -0.418 0.143 -0.605c 0.627 -0.572 1.298 0.803 -0.627 1.881Z m -2.673 1.881l -0.121 -0.099c 0.418 -0.352 0.88 -0.957 1.001 -1.452c 0.528 -0.363 0.957 0.407 0.176 1.056c 0.407 0.473 0.847 1.122 1.21 1.683c 0.22 -0.011 0.363 0.077 0.407 0.209l -1.078 0.396c -0.242 -0.715 -0.528 -1.54 -0.781 -2.123c -0.209 0.121 -0.484 0.242 -0.814 0.33Z "/></symbol><symbol id="g31E96DF3505690A3742484563F8AD404" overflow="visible"><path d="M 0 0m 3.729 -0.198h 0.825v 2.31h 1.32v 0.638h -1.32v 5.379h -0.616l -3.564 -5.5v -0.517h 3.355Z m -2.882 2.948l 1.54 2.387l 1.342 2.101v -4.488Z "/></symbol><symbol id="g35AFACA7BC5E1E13D629A8084D4A6912" overflow="visible"><path d="M 0 0m 0.979 4.95l 0.099 -0.319h 3.652c -0.308 -2.156 -1.265 -3.894 -4.301 -5.269l 0.143 -0.198c 3.498 1.309 4.576 3.113 4.939 5.467h 0.132c 0.33 -1.914 1.221 -4.136 4.213 -5.522c 0.088 0.407 0.341 0.55 0.726 0.594l 0.033 0.121c -3.179 1.199 -4.345 3.036 -4.752 4.807h 3.927c 0.143 0 0.253 0.055 0.286 0.165c -0.385 0.352 -1.023 0.836 -1.023 0.836l -0.561 -0.682h -2.937c 0.11 0.88 0.132 1.837 0.143 2.86h 4.444c 0.154 0 0.275 0.055 0.308 0.176c -0.407 0.363 -1.045 0.847 -1.045 0.847l -0.572 -0.693h -8.228l 0.099 -0.33h 4.191c -0.011 -1.023 -0.022 -1.98 -0.121 -2.86Z "/></symbol><symbol id="g9F47CBA01A1749AF2BAC41AF487C3CF6" overflow="visible"><path d="M 0 0m 5.093 9.163v -4.147h -2.574v 2.772c 0.275 0.044 0.374 0.143 0.396 0.286l -1.1 0.121v -4.136h 0.132c 0.275 0 0.572 0.154 0.572 0.242v 0.396h 2.574v -4.268h -3.102v 2.904c 0.275 0.044 0.374 0.143 0.396 0.297l -1.1 0.121v -4.598h 0.132c 0.275 0 0.572 0.143 0.572 0.231v 0.737h 7.007v -0.869h 0.143c 0.264 0 0.572 0.143 0.572 0.231v 3.85c 0.264 0.044 0.374 0.143 0.385 0.297l -1.1 0.121v -3.322h -3.179v 4.268h 2.64v -0.583h 0.132c 0.275 0 0.583 0.154 0.583 0.231v 3.443c 0.264 0.044 0.363 0.143 0.385 0.286l -1.1 0.121v -3.179h -2.64v 3.718c 0.275 0.044 0.363 0.154 0.396 0.308Z "/></symbol><symbol id="g86F26720B2B8E575E8BBB5CD30B8C3B9" overflow="visible"><path d="M 0 0m 5.104 9.196v -1.221h -4.488l 0.099 -0.319h 9.438c 0.165 0 0.264 0.055 0.297 0.176c -0.407 0.363 -1.045 0.836 -1.045 0.836l -0.561 -0.693h -3.014v 0.814c 0.264 0.033 0.374 0.143 0.396 0.297Z m -3.894 -5.302v -4.741h 0.121c 0.297 0 0.594 0.176 0.594 0.253v 4.158h 7.15v -3.355c 0 -0.154 -0.055 -0.22 -0.242 -0.22c -0.242 0 -1.287 0.077 -1.287 0.077v -0.176c 0.473 -0.055 0.737 -0.132 0.891 -0.253c 0.143 -0.11 0.198 -0.286 0.231 -0.495c 1.012 0.088 1.133 0.451 1.133 0.99v 3.289c 0.209 0.044 0.396 0.143 0.462 0.22l -0.924 0.693l -0.363 -0.44h -6.974l -0.792 0.352Z m 6.237 2.585v -1.287h -3.916v 1.287Z m -4.62 0.33v -2.486h 0.11c 0.297 0 0.594 0.165 0.594 0.231v 0.319h 3.916v -0.484h 0.099c 0.231 0 0.605 0.154 0.616 0.22v 1.727c 0.209 0.044 0.385 0.143 0.462 0.231l -0.902 0.671l -0.385 -0.429h -3.751l -0.759 0.33Z m 4.048 -4.433v -1.375h -2.794v 1.375Z m -3.476 0.319v -2.662h 0.099c 0.286 0 0.583 0.154 0.583 0.22v 0.429h 2.794v -0.473h 0.11c 0.231 0 0.572 0.165 0.583 0.231v 1.837c 0.176 0.033 0.352 0.121 0.407 0.198l -0.825 0.627l -0.374 -0.407h -2.64l -0.737 0.33Z "/></symbol><symbol id="g1320A128FEECC4858409BCD9B4D6DF28" overflow="visible"><path d="M 0 0m 7.788 8.041v -2.145h -4.312v 2.145Z m -5.027 0.33v -3.454c 0 -2.222 -0.341 -4.147 -2.244 -5.643l 0.154 -0.132c 1.749 1.012 2.431 2.42 2.673 3.905h 4.444v -2.717c 0 -0.187 -0.066 -0.264 -0.297 -0.264c -0.264 0 -1.606 0.099 -1.606 0.099v -0.176c 0.572 -0.077 0.902 -0.165 1.089 -0.297c 0.165 -0.121 0.242 -0.308 0.286 -0.55c 1.133 0.11 1.254 0.506 1.254 1.1v 7.656c 0.231 0.033 0.407 0.132 0.484 0.22l -0.935 0.715l -0.385 -0.462h -4.059l -0.858 0.363Z m 5.027 -2.794v -2.211h -4.4c 0.066 0.517 0.088 1.045 0.088 1.562v 0.649Z "/></symbol><symbol id="g3F3CE5C34015F4BBD21F5877E611DF56" overflow="visible"><path d="M 0 0m 4.994 9.196c 0 -1.122 0.011 -2.2 -0.088 -3.223h -4.356l 0.088 -0.319h 4.235c -0.275 -2.453 -1.221 -4.609 -4.444 -6.325l 0.132 -0.198c 3.762 1.672 4.774 3.949 5.082 6.512c 0.319 -2.211 1.21 -4.829 4.257 -6.512c 0.11 0.418 0.374 0.572 0.77 0.616l 0.022 0.121c -3.267 1.474 -4.433 3.707 -4.84 5.786h 4.4c 0.154 0 0.275 0.055 0.297 0.176c -0.418 0.374 -1.1 0.891 -1.1 0.891l -0.594 -0.748h -3.179c 0.088 0.902 0.099 1.837 0.121 2.794c 0.264 0.033 0.363 0.143 0.396 0.308Z "/></symbol></defs></svg>