<svg class="typst-doc" viewBox="0 0 305.84965879275086 147.19866141732282" width="305.84965879275086pt" height="147.19866141732282pt" xmlns="http://www.w3.org/2000/svg" xmlns:xlink="http://www.w3.org/1999/xlink" xmlns:h5="http://www.w3.org/1999/xhtml">
    <g>
        <g class="typst-group" transform="matrix(1 0 0 1 6 6)">
            <g>
                <g class="typst-group">
                    <g>
                        <path class="typst-shape" fill="none" stroke="#000000" stroke-width="0.7" stroke-linecap="round" stroke-linejoin="miter" stroke-miterlimit="4" transform="matrix(1 0 0 1 53.99999990556184 9.156531791422186)" d="M 0 0m 0 32.887794 l 80.59411 -32.887794 "/>
                        <path class="typst-shape" fill="none" stroke="#000000" stroke-width="0.7" stroke-linecap="round" stroke-linejoin="miter" stroke-miterlimit="4" transform="matrix(1 0 0 1 133.27176968286025 9.156531968503943)" d="M 0 0m 1.3223355 0 c -1.0614543 1.1342454 -1.5221907 2.7046254 -1.241797 4.232558 "/>
                        <path class="typst-shape" fill="none" stroke="#000000" stroke-width="0.7" stroke-linecap="round" stroke-linejoin="miter" stroke-miterlimit="4" transform="matrix(1 0 0 1 130.74560340694654 7.001157460635141)" d="M 0 0m 3.8485017 2.1553745 c -1.5519671 -0.067794085 -2.9798532 -0.8674896 -3.8485017 -2.1553745 "/>
                        <path class="typst-shape" fill="none" transform="matrix(1 0 0 1 66.70344016016489 11.602552100055656)" d="M 0 0h 54 v 12.08 h -54 v -12.08 Z "/>
                        <g class="typst-group">
                            <g>
                                <g class="typst-group" transform="matrix(1 0 0 1 66.7034401601649 11.602552037063496)">
                                    <g>
                                        <g class="typst-group">
                                            <g>
                                                <g class="typst-group">
                                                    <g>
                                                        <g class="typst-text" transform="matrix(1 0 0 -1 2 9.29)">
                                                            <use xlink:href="#g3C0C04D56A2A839B7D116C651AF0663D" x="0" y="0" fill="#000000" fill-rule="nonzero"/>
                                                            <use xlink:href="#g86482C7FA64CF04704D1FDFABC2A207C" x="10" y="0" fill="#000000" fill-rule="nonzero"/>
                                                        </g>
                                                        <g class="typst-text" transform="matrix(1 0 0 -1 22 9.29)">
                                                            <use xlink:href="#g18CFFB4A4487268B4415F821A32E3703" x="0" y="0" fill="#000000" fill-rule="nonzero"/>
                                                            <use xlink:href="#g35723FB165E4B02078D14037646C77D7" x="10" y="0" fill="#000000" fill-rule="nonzero"/>
                                                            <use xlink:href="#gBB082418113565D57436653B035C1AB3" x="20" y="0" fill="#000000" fill-rule="nonzero"/>
                                                        </g>
                                                    </g>
                                                </g>
                                            </g>
                                        </g>
                                    </g>
                                </g>
                            </g>
                        </g>
                        <path class="typst-shape" fill="none" stroke="#000000" stroke-width="0.7" stroke-linecap="round" stroke-linejoin="miter" stroke-miterlimit="4" transform="matrix(1 0 0 1 182.03149606304214 72.97154665447775)" d="M 0 0m 0 19.92706 l 67.69574 -19.92706 "/>
                        <path class="typst-shape" fill="none" stroke="#000000" stroke-width="0.7" stroke-linecap="round" stroke-linejoin="miter" stroke-miterlimit="4" transform="matrix(1 0 0 1 248.0485050674141 72.97154645669292)" d="M 0 0m 1.6787311 0 c -1.1705778 1.0212475 -1.787555 2.5370677 -1.6629045 4.085506 "/>
                        <path class="typst-shape" fill="none" stroke="#000000" stroke-width="0.7" stroke-linecap="round" stroke-linejoin="miter" stroke-miterlimit="4" transform="matrix(1 0 0 1 246.11608723596981 70.4385219648242)" d="M 0 0m 3.6111488 2.5330245 c -1.5371857 -0.22418475 -2.877008 -1.1639972 -3.6111488 -2.5330245 "/>
                        <path class="typst-shape" fill="none" transform="matrix(1 0 0 1 203.4824797304093 68.71705581910099)" d="M 0 0h 24 v 12.25 h -24 v -12.25 Z "/>
                        <g class="typst-group">
                            <g>
                                <g class="typst-group" transform="matrix(1 0 0 1 203.48247968316517 68.71705578760492)">
                                    <g>
                                        <g class="typst-group">
                                            <g>
                                                <g class="typst-group">
                                                    <g>
                                                        <g class="typst-text" transform="matrix(1 0 0 -1 2 9.29)">
                                                            <use xlink:href="#gF128D0B872BD96D098B5AF02FC2E3C2A" x="0" y="0" fill="#000000" fill-rule="nonzero"/>
                                                        </g>
                                                        <g class="typst-text" transform="matrix(1 0 0 -1 12 9.29)">
                                                            <use xlink:href="#g2B8AA33A0AF8DF9B380AE86261B37A17" x="0" y="0" fill="#000000" fill-rule="nonzero"/>
                                                        </g>
                                                    </g>
                                                </g>
                                            </g>
                                        </g>
                                    </g>
                                </g>
                            </g>
                        </g>
                        <path class="typst-shape" fill="none" stroke="#000000" stroke-width="0.7" stroke-linecap="round" stroke-linejoin="miter" stroke-miterlimit="4" transform="matrix(1 0 0 1 182.03149606304214 106.27321523800111)" d="M 0 0l 75.474915 21.526299 "/>
                        <path class="typst-shape" fill="none" stroke="#000000" stroke-width="0.7" stroke-linecap="round" stroke-linejoin="miter" stroke-miterlimit="4" transform="matrix(1 0 0 1 253.91677744670383 127.79951329133858)" d="M 0 0m 3.5896366 0 c -1.5352383 0.23715313 -2.867079 1.1882426 -3.5896366 2.5634184 "/>
                        <path class="typst-shape" fill="none" stroke="#000000" stroke-width="0.7" stroke-linecap="round" stroke-linejoin="miter" stroke-miterlimit="4" transform="matrix(1 0 0 1 255.79640255786293 123.72819130512676)" d="M 0 0m 1.7100116 4.071322 c -1.179157 -1.0113292 -1.8089085 -2.5218868 -1.697334 -4.071322 "/>
                        <path class="typst-shape" fill="none" transform="matrix(1 0 0 1 193.48579180323148 103.08105888368954)" d="M 0 0h 54 v 12.08 h -54 v -12.08 Z "/>
                        <g class="typst-group">
                            <g>
                                <g class="typst-group" transform="matrix(1 0 0 1 193.48579180323145 103.08105882069738)">
                                    <g>
                                        <g class="typst-group">
                                            <g>
                                                <g class="typst-group">
                                                    <g>
                                                        <g class="typst-text" transform="matrix(1 0 0 -1 2 9.29)">
                                                            <use xlink:href="#gEB8236A5A6B5BC5FDCDBA8B8B194910A" x="0" y="0" fill="#000000" fill-rule="nonzero"/>
                                                        </g>
                                                        <g class="typst-text" transform="matrix(1 0 0 -1 12 9.29)">
                                                            <use xlink:href="#g89F3D93D7DDC6D09385E6410AB955D25" x="0" y="0" fill="#000000" fill-rule="nonzero"/>
                                                        </g>
                                                        <g class="typst-text" transform="matrix(1 0 0 -1 22 9.29)">
                                                            <use xlink:href="#g86482C7FA64CF04704D1FDFABC2A207C" x="0" y="0" fill="#000000" fill-rule="nonzero"/>
                                                        </g>
                                                        <g class="typst-text" transform="matrix(1 0 0 -1 32 9.29)">
                                                            <use xlink:href="#g9275371E47087B6620F72C49F1458017" x="0" y="0" fill="#000000" fill-rule="nonzero"/>
                                                            <use xlink:href="#gC782D9758C26A32E0D8EE37ECAA5DDB9" x="10" y="0" fill="#000000" fill-rule="nonzero"/>
                                                        </g>
                                                    </g>
                                                </g>
                                            </g>
                                        </g>
                                    </g>
                                </g>
                            </g>
                        </g>
                        <path class="typst-shape" fill="none" stroke="#000000" stroke-width="0.7" stroke-linecap="round" stroke-linejoin="miter" stroke-miterlimit="4" transform="matrix(1 0 0 1 53.99999990556184 61.338416988855506)" d="M 0 0l 67.70879 28.4324 "/>
                        <path class="typst-shape" fill="none" stroke="#000000" stroke-width="0.7" stroke-linecap="round" stroke-linejoin="miter" stroke-miterlimit="4" transform="matrix(1 0 0 1 117.83867585592421 89.7708171968504)" d="M 0 0m 3.8701177 0 c -1.5525739 0.052084617 -2.9884799 0.83728874 -3.8701177 2.116317 "/>
                        <path class="typst-shape" fill="none" stroke="#000000" stroke-width="0.7" stroke-linecap="round" stroke-linejoin="miter" stroke-miterlimit="4" transform="matrix(1 0 0 1 120.42015744262936 85.52590859671994)" d="M 0 0m 1.2886361 4.244909 c -1.0499214 -1.1449296 -1.4947417 -2.719892 -1.1988995 -4.244909 "/>
                        <path class="typst-shape" fill="none" transform="matrix(1 0 0 1 88.7900904126341 61.69835635402157)" d="M 0 0h 44 v 12.08 h -44 v -12.08 Z "/>
                        <g class="typst-group">
                            <g>
                                <g class="typst-group" transform="matrix(1 0 0 1 88.79009030239787 61.69835629102944)">
                                    <g>
                                        <g class="typst-group">
                                            <g>
                                                <g class="typst-group">
                                                    <g>
                                                        <g class="typst-text" transform="matrix(1 0 0 -1 2 9.29)">
                                                            <use xlink:href="#g3C0C04D56A2A839B7D116C651AF0663D" x="0" y="0" fill="#000000" fill-rule="nonzero"/>
                                                            <use xlink:href="#g86482C7FA64CF04704D1FDFABC2A207C" x="10" y="0" fill="#000000" fill-rule="nonzero"/>
                                                        </g>
                                                        <g class="typst-text" transform="matrix(1 0 0 -1 22 9.29)">
                                                            <use xlink:href="#g95A31B67B5E9C40AC086057A89459E4C" x="0" y="0" fill="#000000" fill-rule="nonzero"/>
                                                            <use xlink:href="#gC782D9758C26A32E0D8EE37ECAA5DDB9" x="10" y="0" fill="#000000" fill-rule="nonzero"/>
                                                        </g>
                                                    </g>
                                                </g>
                                            </g>
                                        </g>
                                    </g>
                                </g>
                            </g>
                        </g>
                        <path class="typst-shape" fill="none" transform="matrix(1 0 0 1 0 45.40824803149607)" d="M 0 0h 48 v 12.29 h -48 v -12.29 Z "/>
                        <g class="typst-group">
                            <g>
                                <g class="typst-group" transform="matrix(1 0 0 1 -0.00000009443818801334751 45.408248015748036)">
                                    <g>
                                        <g class="typst-group">
                                            <g>
                                                <g class="typst-group" transform="matrix(1 0 0 1 0.00000000005000072447069752 0)">
                                                    <g>
                                                        <g class="typst-group">
                                                            <g>
                                                                <path class="typst-shape" fill="#f5f5f5" fill-rule="nonzero" d="M 0 0m 0 1.7 c 0 -0.93888414 0.7611159 -1.7 1.7 -1.7 h 44.6 c 0.93888474 0 1.7000008 0.7611159 1.7000008 1.7 v 8.89 c 0 0.9388838 -0.761116 1.6999998 -1.7000008 1.6999998 h -44.6 c -0.93888414 0 -1.7 -0.761116 -1.7 -1.6999998 Z "/>
                                                                <path class="typst-shape" fill="none" stroke="#000000" stroke-width="0.6" stroke-linecap="butt" stroke-linejoin="miter" stroke-miterlimit="4" d="M 0 0m 1.7 0 h 44.6 c 0.93888474 0 1.7000008 0.7611159 1.7000008 1.7 v 8.89 c 0 0.9388838 -0.761116 1.6999998 -1.7000008 1.6999998 h -44.6 c -0.93888414 0 -1.7 -0.761116 -1.7 -1.6999998 v -8.89 c 0 -0.93888414 0.7611159 -1.7 1.7 -1.7 "/>
                                                                <g class="typst-text" transform="matrix(1 0 0 -1 4 9.79)">
                                                                    <use xlink:href="#g93C2A3C2E1CF5A893F68ED41919DBDB" x="0" y="0" fill="#000000" fill-rule="nonzero"/>
                                                                    <use xlink:href="#g94D3B434B1A19535CDCD597936C71717" x="10" y="0" fill="#000000" fill-rule="nonzero"/>
                                                                    <use xlink:href="#g7B277EBE48B04345FE886F2EE760DE3A" x="20" y="0" fill="#000000" fill-rule="nonzero"/>
                                                                    <use xlink:href="#gA38F571EAE2B096B6A5C474A59E629ED" x="30" y="0" fill="#000000" fill-rule="nonzero"/>
                                                                </g>
                                                            </g>
                                                        </g>
                                                    </g>
                                                </g>
                                            </g>
                                        </g>
                                    </g>
                                </g>
                            </g>
                        </g>
                        <path class="typst-shape" fill="none" transform="matrix(1 0 0 1 140.9181627296588 0)" d="M 0 0h 22.226667 v 6.83 h -22.226667 v -6.83 Z "/>
                        <g class="typst-group">
                            <g>
                                <g class="typst-group" transform="matrix(1 0 0 1 140.9181626929634 -0.0000001102362336217005)">
                                    <g>
                                        <g class="typst-group">
                                            <g>
                                                <g class="typst-group" transform="matrix(1 0 0 1 0.00000000004999893412679639 0)">
                                                    <g>
                                                        <g class="typst-text" transform="matrix(1 0 0 -1 0 6.83)">
                                                            <use xlink:href="#g8EA44FD9CD658297A6AA79F1D3ABA0FE" x="0" y="0" fill="#0b7285" fill-rule="nonzero"/>
                                                        </g>
                                                        <g class="typst-text" transform="matrix(1 0 0 -1 3.89 6.83)">
                                                            <use xlink:href="#gED56789099100826EE4E845A642C587" x="0" y="0" fill="#0b7285" fill-rule="nonzero"/>
                                                        </g>
                                                        <g class="typst-text" transform="matrix(1 0 0 -1 8.89 6.83)">
                                                            <use xlink:href="#g8493D600BB45F339BE5EE97313DFC75" x="0" y="0" fill="#0b7285" fill-rule="nonzero"/>
                                                        </g>
                                                        <g class="typst-text" transform="matrix(1 0 0 -1 13.336666666666668 6.83)">
                                                            <use xlink:href="#g91EFFF08AA08229DB781E7C5CBB2B49B" x="0" y="0" fill="#0b7285" fill-rule="nonzero"/>
                                                        </g>
                                                        <g class="typst-text" transform="matrix(1 0 0 -1 18.33666666666667 6.83)">
                                                            <use xlink:href="#gE8406A7677610853773AC8C9CC50DC4F" x="0" y="0" fill="#0b7285" fill-rule="nonzero"/>
                                                        </g>
                                                    </g>
                                                </g>
                                            </g>
                                        </g>
                                    </g>
                                </g>
                            </g>
                        </g>
                        <path class="typst-shape" fill="none" transform="matrix(1 0 0 1 128.03149606299212 93.54649606299215)" d="M 0 0h 48 v 12.29 h -48 v -12.29 Z "/>
                        <g class="typst-group">
                            <g>
                                <g class="typst-group" transform="matrix(1 0 0 1 128.0314959685539 93.54649604724409)">
                                    <g>
                                        <g class="typst-group">
                                            <g>
                                                <g class="typst-group" transform="matrix(1 0 0 1 0.00000000005000072447069752 0)">
                                                    <g>
                                                        <g class="typst-group">
                                                            <g>
                                                                <path class="typst-shape" fill="#f5f5f5" fill-rule="nonzero" d="M 0 0m 0 1.7 c 0 -0.93888414 0.7611159 -1.7 1.7 -1.7 h 44.6 c 0.93888474 0 1.7000008 0.7611159 1.7000008 1.7 v 8.89 c 0 0.9388838 -0.761116 1.6999998 -1.7000008 1.6999998 h -44.6 c -0.93888414 0 -1.7 -0.761116 -1.7 -1.6999998 Z "/>
                                                                <path class="typst-shape" fill="none" stroke="#000000" stroke-width="0.6" stroke-linecap="butt" stroke-linejoin="miter" stroke-miterlimit="4" d="M 0 0m 1.7 0 h 44.6 c 0.93888474 0 1.7000008 0.7611159 1.7000008 1.7 v 8.89 c 0 0.9388838 -0.761116 1.6999998 -1.7000008 1.6999998 h -44.6 c -0.93888414 0 -1.7 -0.761116 -1.7 -1.6999998 v -8.89 c 0 -0.93888414 0.7611159 -1.7 1.7 -1.7 "/>
                                                                <g class="typst-text" transform="matrix(1 0 0 -1 4 9.79)">
                                                                    <use xlink:href="#g210362D59704D4E4F245CFB9206AB0C7" x="0" y="0" fill="#000000" fill-rule="nonzero"/>
                                                                    <use xlink:href="#gE4960F0198DD1ECF8738D86C6A790648" x="10" y="0" fill="#000000" fill-rule="nonzero"/>
                                                                    <use xlink:href="#g7B277EBE48B04345FE886F2EE760DE3A" x="20" y="0" fill="#000000" fill-rule="nonzero"/>
                                                                    <use xlink:href="#gA38F571EAE2B096B6A5C474A59E629ED" x="30" y="0" fill="#000000" fill-rule="nonzero"/>
                                                                </g>
                                                            </g>
                                                        </g>
                                                    </g>
                                                </g>
                                            </g>
                                        </g>
                                    </g>
                                </g>
                            </g>
                        </g>
                        <path class="typst-shape" fill="none" transform="matrix(1 0 0 1 256.06299212598424 64.18433070866143)" d="M 0 0h 37.786667 v 6.83 h -37.786667 v -6.83 Z "/>
                        <g class="typst-group">
                            <g>
                                <g class="typst-group" transform="matrix(1 0 0 1 256.06299212078494 64.1843305984252)">
                                    <g>
                                        <g class="typst-group">
                                            <g>
                                                <g class="typst-group" transform="matrix(1 0 0 1 0.00000000005000072447069752 0)">
                                                    <g>
                                                        <g class="typst-group">
                                                            <g>
                                                                <g class="typst-text" transform="matrix(1 0 0 -1 0 6.83)">
                                                                    <use xlink:href="#g8EA44FD9CD658297A6AA79F1D3ABA0FE" x="0" y="0" fill="#0b7285" fill-rule="nonzero"/>
                                                                </g>
                                                                <g class="typst-text" transform="matrix(1 0 0 -1 3.89 6.83)">
                                                                    <use xlink:href="#g2C08F44D7553216886FF9F9839464F61" x="0" y="0" fill="#0b7285" fill-rule="nonzero"/>
                                                                </g>
                                                                <g class="typst-text" transform="matrix(1 0 0 -1 11.670000000000002 6.83)">
                                                                    <use xlink:href="#gDECE3A5BAAC29CEE3940DE0ED7B22D29" x="0" y="0" fill="#0b7285" fill-rule="nonzero"/>
                                                                </g>
                                                                <g class="typst-text" transform="matrix(1 0 0 -1 16.67 6.83)">
                                                                    <use xlink:href="#g8493D600BB45F339BE5EE97313DFC75" x="0" y="0" fill="#0b7285" fill-rule="nonzero"/>
                                                                </g>
                                                                <g class="typst-text" transform="matrix(1 0 0 -1 21.116666666666667 6.83)">
                                                                    <use xlink:href="#g2C08F44D7553216886FF9F9839464F61" x="0" y="0" fill="#0b7285" fill-rule="nonzero"/>
                                                                </g>
                                                                <g class="typst-text" transform="matrix(1 0 0 -1 28.896666666666665 6.83)">
                                                                    <use xlink:href="#gDECE3A5BAAC29CEE3940DE0ED7B22D29" x="0" y="0" fill="#0b7285" fill-rule="nonzero"/>
                                                                </g>
                                                                <g class="typst-text" transform="matrix(1 0 0 -1 33.89666666666667 6.83)">
                                                                    <use xlink:href="#gE8406A7677610853773AC8C9CC50DC4F" x="0" y="0" fill="#0b7285" fill-rule="nonzero"/>
                                                                </g>
                                                            </g>
                                                        </g>
                                                    </g>
                                                </g>
                                            </g>
                                        </g>
                                    </g>
                                </g>
                            </g>
                        </g>
                        <path class="typst-shape" fill="none" transform="matrix(1 0 0 1 263.8429921259842 128.36866141732284)" d="M 0 0h 22.226667 v 6.83 h -22.226667 v -6.83 Z "/>
                        <g class="typst-group">
                            <g>
                                <g class="typst-group" transform="matrix(1 0 0 1 263.8429920892888 128.36866130708663)">
                                    <g>
                                        <g class="typst-group">
                                            <g>
                                                <g class="typst-group" transform="matrix(1 0 0 1 0.00000000004999893412679639 0)">
                                                    <g>
                                                        <g class="typst-text" transform="matrix(1 0 0 -1 0 6.83)">
                                                            <use xlink:href="#g8EA44FD9CD658297A6AA79F1D3ABA0FE" x="0" y="0" fill="#0b7285" fill-rule="nonzero"/>
                                                        </g>
                                                        <g class="typst-text" transform="matrix(1 0 0 -1 3.89 6.83)">
                                                            <use xlink:href="#gDECE3A5BAAC29CEE3940DE0ED7B22D29" x="0" y="0" fill="#0b7285" fill-rule="nonzero"/>
                                                        </g>
                                                        <g class="typst-text" transform="matrix(1 0 0 -1 8.89 6.83)">
                                                            <use xlink:href="#g8493D600BB45F339BE5EE97313DFC75" x="0" y="0" fill="#0b7285" fill-rule="nonzero"/>
                                                        </g>
                                                        <g class="typst-text" transform="matrix(1 0 0 -1 13.336666666666668 6.83)">
                                                            <use xlink:href="#gDECE3A5BAAC29CEE3940DE0ED7B22D29" x="0" y="0" fill="#0b7285" fill-rule="nonzero"/>
                                                        </g>
                                                        <g class="typst-text" transform="matrix(1 0 0 -1 18.33666666666667 6.83)">
                                                            <use xlink:href="#gE8406A7677610853773AC8C9CC50DC4F" x="0" y="0" fill="#0b7285" fill-rule="nonzero"/>
                                                        </g>
                                                    </g>
                                                </g>
                                            </g>
                                        </g>
                                    </g>
                                </g>
                            </g>
                        </g>
                    </g>
                </g>
            </g>
        </g>
    </g>
    <defs id="glyph">
        <symbol id="g3C0C04D56A2A839B7D116C651AF0663D" overflow="visible">
            <path d="M 0 0m 4.99 4.42 c -0.90999985 -1.0600002 -2.1299999 -1.9300001 -3.37 -2.5300002 l 0.089999914 -0.17000008 c 1.39 0.48000014 2.71 1.2199999 3.73 2.13 c 0.21000004 -0.049999952 0.30999994 -0.029999971 0.3699999 0.059999943 Z m 1.27 -1.0600002 c -1.1399999 -1.2 -2.62 -1.9999999 -4.18 -2.55 l 0.089999914 -0.19 c 1.69 0.41999996 3.26 1.0999999 4.5200005 2.1599998 c 0.21999979 -0.049999952 0.3199997 -0.03999996 0.38999987 0.059999943 Z m 1.3299999 -1.06 c -1.6499996 -1.77 -3.6499999 -2.4199998 -6 -2.86 l 0.05000007 -0.19999999 c 2.5100002 0.28 4.53 0.82 6.3799996 2.4499998 c 0.2300005 -0.059999943 0.34000015 -0.03999996 0.40999985 0.060000062 Z m -7.1699996 2.7699997 l 0.09 -0.27999973 h 2.6499999 c -0.6899998 -0.9100001 -1.6299999 -1.78 -2.8 -2.39 l 0.08000001 -0.12999988 c 1.55 0.6099999 2.7099998 1.56 3.5199997 2.52 h 2.1499999 c 0.64000034 -1.06 1.8500004 -1.9000001 3.0600004 -2.39 c 0.09000015 0.32000017 0.27999973 0.52 0.53999996 0.5700002 l 0.009999275 0.109999895 c -1.1799994 0.29999995 -2.5699997 0.9200001 -3.3299994 1.71 h 2.9500003 c 0.13999939 0 0.23999977 0.049999714 0.2699995 0.15999985 c -0.34000015 0.28999996 -0.8699999 0.6799998 -0.8699999 0.6799998 l -0.47000027 -0.55999994 h -4.0899997 c 0.1800003 0.23000002 0.34000015 0.46000004 0.48000002 0.69000006 c 0.19999981 -0.01999998 0.34000015 0.03000021 0.38999987 0.16000032 l -0.8199997 0.2999997 c 1.2799997 0.119999886 2.31 0.24000025 3.1299996 0.3499999 c 0.2800002 -0.25999975 0.5100002 -0.52999973 0.64000034 -0.77999973 c 0.80999947 -0.36000013 0.92999935 1.3699999 -2.1800003 2.06 l -0.099999905 -0.119999886 c 0.44000006 -0.23000002 0.97000027 -0.5700002 1.4099998 -0.9500003 l -3.9799998 -0.13999987 c 0.46000004 0.4000001 0.89999986 0.8499999 1.1899998 1.21 c 0.20000029 -0.03000021 0.3300004 0.03999996 0.39000034 0.1500001 l -1.01 0.39999962 c -0.23000002 -0.53999996 -0.61000013 -1.2199998 -0.98 -1.77 c -0.7600001 -0.01999998 -1.38 -0.029999733 -1.81 -0.029999733 l 0.44 -0.84000015 c 0.089999914 0.01999998 0.18999994 0.09000015 0.25 0.21000004 l 2.4299998 0.23000002 c -0.17999983 -0.3699999 -0.40999985 -0.75 -0.6799998 -1.1300001 Z "/>
        </symbol>
        <symbol id="g86482C7FA64CF04704D1FDFABC2A207C" overflow="visible">
            <path d="M 0 0m 4.43 7.5299997 h -2.1299999 l 0.059999943 -0.28999996 h 2.2900002 v -0.75 c -0.3300004 -3.4999998 -2.0100002 -5.9399996 -4.2400002 -7.1299996 l 0.109999985 -0.14999998 c 2.27 1.05 3.8400002 2.8799999 4.49 5.43 c 0.46000004 -2.56 2.2000003 -4.5 3.8799996 -5.43 c 0.15000057 0.36999997 0.3600006 0.55999994 0.71000004 0.56999993 l 0.03999996 0.120000005 c -2.8099995 1.15 -4.3499994 3.4899998 -4.6799994 6.62 l -0.010000229 0.48000002 c 0.5100002 0.049999714 0.86000013 0.15999985 1.0100002 0.3499999 l -1.1100001 0.8200002 Z "/>
        </symbol>
        <symbol id="g18CFFB4A4487268B4415F821A32E3703" overflow="visible">
            <path d="M 0 0m 4.83 -0.39 c 1.77 0 3.2699995 1.0899999 4.01 2.6599998 l -0.22000027 0.14999986 c -0.6700001 -1.0599998 -2.0700002 -2.1399999 -3.79 -2.1399999 c -1.0999999 0 -1.47 0.48 -1.47 1.75 c 0 1.3599999 0.17000008 2.9799998 0.32999992 3.9199998 c 0.09000015 0.47000027 0.2800002 0.53999996 0.2800002 0.75 c 0 0.2800002 -0.69000006 0.78999996 -1.1600001 0.80999994 c -0.18000007 0.010000229 -0.3900001 -0.01999998 -0.6500001 -0.069999695 v -0.21000004 c 0.26 -0.03999996 0.49 -0.12000036 0.6500001 -0.21000004 c 0.17000008 -0.099999905 0.23000002 -0.21000004 0.23000002 -0.5700002 c 0 -0.5799999 -0.24000001 -2.9299998 -0.24000001 -4.48 c 0 -1.7099999 0.69000006 -2.36 2.03 -2.36 Z "/>
        </symbol>
        <symbol id="g35723FB165E4B02078D14037646C77D7" overflow="visible">
            <path d="M 0 0m 5.0899997 -0.44 c 1.02 0 1.6300001 0.48 1.6300001 1.31 l -0.01999998 0.39999998 c 0.5700002 -0.21000004 1.0300002 -0.54 1.4099998 -0.90999997 c 0.22000027 -0.19999999 0.34000015 -0.36999997 0.52999973 -0.36999997 c 0.1600008 0 0.25 0.12 0.25 0.32 c 0 0.25 -0.21000004 0.53 -0.6899996 0.84 c -0.3800001 0.26 -0.90999985 0.54999995 -1.56 0.6999999 c -0.07999992 0.60000014 -0.17999983 1.23 -0.19000006 1.53 c -0.009999752 0.36000013 0.03000021 0.68000007 0.25 0.89999986 c 0.22000027 0.23000002 0.5799999 0.35000038 0.9299998 0.39000034 c 0.42999983 0.029999733 0.5999999 -0.13000011 0.8300004 -0.13000011 c 0.18999958 0 0.28999996 0.13000011 0.28999996 0.36000013 c 0 0.39999962 -0.31000042 0.78999996 -0.9200001 1.02 c -0.3800001 0.14999962 -0.88999987 0.18999958 -1.3800001 0.119999886 l -0.009999752 -0.25 c 0.45999956 0 0.8699999 -0.09000015 1.1499996 -0.3000002 c 0.17000008 -0.13000011 0.21000004 -0.25999975 0 -0.35999966 c -0.3499999 -0.16000032 -0.7999997 -0.32000017 -1.1099997 -0.6500001 c -0.32000017 -0.32000017 -0.48000002 -0.69000006 -0.48000002 -1.25 c 0 -0.3900001 0.049999714 -0.84000015 0.07999992 -1.2800001 c -0.13999987 0.00999999 -0.28999996 0.01999998 -0.4500003 0.01999998 c -1.3299999 0 -2.1399996 -0.55999994 -2.1399996 -1.3199999 c 0 -0.58 0.5599997 -1.0899999 1.5999997 -1.0899999 Z m 1.0300002 1.8699999 v -0.22000003 c 0 -0.5899999 -0.21999979 -1.0699999 -1.1799998 -1.0699999 c -0.73 0 -1.0700002 0.27999997 -1.0700002 0.63 c 0 0.36 0.48000002 0.74 1.4000001 0.74 c 0.2999997 0 0.5799999 -0.029999971 0.8499999 -0.08000004 Z m -3.71 3.9099998 c 0.25 0 0.52 0.01999998 0.78999996 0.06000042 c -0.4499998 -1.4600003 -1.2899998 -2.69 -1.8999999 -3.5 c -0.13 -0.16999996 -0.17999995 -0.32000005 -0.17999995 -0.48000002 c 0 -0.17999995 0.089999914 -0.39 0.28999996 -0.39 c 0.18999994 0 0.30999994 0.15999997 0.45000005 0.36 c 0.8199998 1.1899999 1.5399998 3.0300002 1.89 4.11 c 0.6700001 0.13999987 1.27 0.3499999 1.5799999 0.50999975 c 0.11000013 0.059999943 0.34000015 0.20000029 0.34000015 0.3800001 c 0 0.15999985 -0.16000032 0.3000002 -0.37000036 0.3000002 c -0.19000006 0 -0.38999987 -0.24000025 -1.3499999 -0.53999996 c 0.3699999 1.2799997 0.41000032 1.4599996 0.24000025 1.56 c -0.17000008 0.10999966 -0.47000003 0.1699996 -0.73 0.1699996 c -0.19000006 0 -0.43000007 -0.059999943 -0.59000015 -0.119999886 v -0.15999985 c 0.1400001 -0.03999996 0.31999993 -0.09000015 0.47000003 -0.15999985 c 0.17000008 -0.07000017 0.22000003 -0.1500001 0.21000004 -0.36000013 c -0.01999998 -0.26000023 -0.089999914 -0.69000006 -0.18000007 -1.0799999 c -0.25 -0.059999943 -0.55999994 -0.11000013 -0.8499999 -0.11000013 c -0.69000006 0 -0.90999997 0.21999979 -1.34 0.5799999 l -0.17999995 -0.13999987 c 0.31999993 -0.71000004 0.65999997 -0.99000025 1.4099998 -0.99000025 Z "/>
        </symbol>
        <symbol id="gBB082418113565D57436653B035C1AB3" overflow="visible">
            <path d="M 0 0m 3.4399998 0.39 c 0.4100001 -0.16999999 0.68000007 -0.00999999 0.68000007 0.26 c 0 0.20999998 -0.16000009 0.26 -0.07000017 0.71000004 c 0.06000042 0.30999994 0.3800001 1.15 0.61000013 1.8099998 l -0.25999975 0.120000124 c -0.28999996 -0.6200001 -0.6300001 -1.36 -0.94000006 -1.83 c -0.09000015 -0.13 -0.20000005 -0.14999998 -0.35000014 -0.06999993 c -0.41999984 0.22000003 -1 0.87 -1 2.1399999 c 0 1.03 0.34000015 1.6600001 0.34000015 2.0999997 c 0 0.41000032 -0.5200001 0.86000013 -0.8800001 1.0300002 c -0.18999994 0.07999992 -0.39 0.119999886 -0.62999994 0.15999985 l -0.09000003 -0.15999985 c 0.71 -0.5 0.78000003 -0.75 0.78000003 -1.29 c 0 -0.4499998 -0.060000062 -1.1399999 -0.04000008 -1.8599999 c 0.03000009 -1.9100001 1.0699999 -2.78 1.8499999 -3.12 Z m 5.29 1.67 c 0.27000046 0 0.40000057 0.17000008 0.40000057 0.55999994 c 0 0.6700001 -0.3000002 1.6599998 -0.8699999 2.25 c -0.4500003 0.4699998 -0.94000053 0.8200002 -1.8800006 0.9899998 l -0.089999676 -0.23999977 c 0.65999985 -0.25 1.1999998 -0.6199999 1.5499997 -1.21 c 0.42000055 -0.71000004 0.5000005 -1.56 0.5700002 -2 c 0.03999996 -0.22999978 0.15999985 -0.3499999 0.3199997 -0.3499999 Z "/>
        </symbol>
        <symbol id="gF128D0B872BD96D098B5AF02FC2E3C2A" overflow="visible">
            <path d="M 0 0m 0.74 8.13 l -0.13 -0.06000042 c 0.32 -0.42999983 0.66999996 -1.0999999 0.6999999 -1.6399999 c 0.58000004 -0.50999975 1.19 0.77 -0.56999993 1.7000003 Z m 1.5899999 0.22999954 l -0.12999988 -0.05000019 c 0.24000001 -0.4499998 0.52 -1.1499996 0.52 -1.6999998 c 0.55999994 -0.53999996 1.2199998 0.7000003 -0.3900001 1.75 Z m 2.27 -0.05000019 c -0.26999998 -0.77999973 -0.6400001 -1.6199994 -0.95000005 -2.1499996 l 0.1500001 -0.099999905 c 0.47000003 0.42000008 0.9799998 1.0699997 1.3799999 1.6999998 c 0.20000029 -0.01999998 0.32000017 0.059999943 0.3699999 0.17000008 Z m 2.94 -0.39999962 l -0.099999905 -0.09000015 c 0.38999987 -0.2999997 0.82999945 -0.8399997 0.94000006 -1.29 c 0.6399994 -0.44000006 1.1099997 0.8800001 -0.84000015 1.3800001 Z m -6.01 -2.2599998 h 1.19 v -1.1300001 h -1.19 Z m -1.14 -4.03 l 0.08000001 -0.29000008 h 2.25 v -2.09 h 0.099999905 c 0.31999993 0 0.53 0.16000003 0.53999996 0.20999998 v 1.8799999 h 2.3300002 c 0.13999987 0 0.23999977 0.05000007 0.26999998 0.16000009 c -0.32000017 0.29999995 -0.8500004 0.70000005 -0.8500004 0.70000005 l -0.4499998 -0.57000005 h -1.3 v 1.15 h 1.2299998 v -0.3900001 h 0.09000015 c 0.21000004 0 0.52 0.17000008 0.5300002 0.23000002 v 2.97 c 0.15999985 0.029999733 0.30999994 0.099999905 0.3699999 0.17000008 l -0.74000025 0.5699997 l -0.33999968 -0.3699999 h -2.85 l -0.73 0.32000017 v -4.02 h 0.09000003 c 0.30999994 0 0.52 0.14999986 0.52 0.20000005 v 0.31999993 h 1.19 v -1.15 Z m 1.14 2.6100001 h 1.19 v -1.1700001 h -1.19 Z m 3.0599997 1.4200001 v -1.1300001 h -1.2299998 v 1.1300001 Z m 0 -1.4200001 v -1.1700001 h -1.2299998 v 1.1700001 Z m 3.8300004 0.5499997 c -0.19999981 -0.6799998 -0.5000005 -1.3999999 -0.9000001 -2.11 c -0.20000029 0.77 -0.32999992 1.6299999 -0.39000034 2.5400002 l 2.23 0.33999968 c 0.13000011 0.01999998 0.2300005 0.09000015 0.2300005 0.21000004 c -0.35000038 0.23000002 -0.9200001 0.53999996 -0.9200001 0.53999996 l -0.3600006 -0.6199999 l -1.1999998 -0.19000006 c -0.049999714 0.8000002 -0.049999714 1.6300001 -0.03999996 2.4500003 c 0.25 0.03999996 0.34000015 0.1500001 0.36000013 0.2800002 l -1.0500002 0.119999886 c 0 -1.0300002 0.03000021 -2.0200005 0.10000038 -2.94 l -1.0799999 -0.17000008 l 0.12999964 -0.26999998 l 0.97000027 0.14999962 c 0.099999905 -1.1699998 0.27999973 -2.2299998 0.5799999 -3.1499996 c -0.61000013 -0.90999997 -1.3800001 -1.7399999 -2.29 -2.37 l 0.11000013 -0.14000002 c 0.9399996 0.53000003 1.7299995 1.23 2.37 2 c 0.26999998 -0.65999997 0.6199999 -1.2299999 1.0799994 -1.6999999 c 0.35000038 -0.38 0.9200001 -0.71 1.1900005 -0.44 c 0.09999943 0.110000014 0.069999695 0.28 -0.19000053 0.69 l 0.17000008 1.54 l -0.13000011 0.01999998 c -0.10999966 -0.39999998 -0.27999973 -0.86999995 -0.39999962 -1.1099999 c -0.07999992 -0.19999999 -0.13000011 -0.21 -0.2699995 -0.03999999 c -0.4300003 0.41 -0.7600002 0.97 -1.0000005 1.63 c 0.54000044 0.76 0.9500003 1.55 1.23 2.2799997 c 0.25 -0.01999998 0.34000015 0.03000021 0.39000034 0.1500001 Z "/>
        </symbol>
        <symbol id="g2B8AA33A0AF8DF9B380AE86261B37A17" overflow="visible">
            <path d="M 0 0m 3.07 -0.39999998 l 0.07999992 -0.23000002 c 2.7 0.42000002 4.42 1.65 4.42 3.8600001 c 0 1.3299999 -0.6999998 2.15 -1.75 2.15 c -1.0699997 0 -2.3799999 -0.8100004 -2.8199997 -0.8100004 c -0.23000002 0 -0.4100001 0.22000027 -0.5700002 0.6300001 l -0.17999983 -0.059999943 c -0.029999971 -0.26999998 -0.059999943 -0.4699998 0.03999996 -0.69000006 c 0.109999895 -0.26999998 0.48000002 -0.65999985 0.80999994 -0.65999985 c 0.25 0 0.43000007 0.20000005 0.6500001 0.3499999 c 0.3800001 0.25 1.3399997 0.8699999 2.0099998 0.8699999 c 0.6199999 0 1.0900002 -0.5899997 1.0900002 -1.6599998 c 0 -1.9799999 -1.3499999 -3.1599998 -3.78 -3.75 Z m 0.76 6.75 l 0.089999914 -0.19000006 c 0.49 0.19999981 1.3199999 0.53999996 1.8199999 0.6799998 c 0.28999996 0.0800004 0.55999994 0.09000015 0.72000027 0.10000038 c 0.21999979 0.009999752 0.33999968 0.07999992 0.33999968 0.20999956 c 0 0.26999998 -0.42000008 0.4300003 -0.77999973 0.4300003 c -0.17000008 0 -0.5100002 -0.07999992 -0.8000002 -0.07999992 c -0.5699997 0 -1.1799998 0.099999905 -1.8899999 0.5799999 l -0.119999886 -0.16000032 c 0.6199999 -0.75999975 1.46 -0.8499999 1.7799997 -0.8999996 c -0.27999973 -0.19000006 -0.7399998 -0.44000006 -1.1599998 -0.6700001 Z "/>
        </symbol>
        <symbol id="gEB8236A5A6B5BC5FDCDBA8B8B194910A" overflow="visible">
            <path d="M 0 0m 2.08 6.93 l -0.110000014 -0.07000017 c 0.33000004 -0.35999966 0.68999994 -0.9699998 0.7600001 -1.4499998 c 0.6299999 -0.52 1.24 0.8000002 -0.6500001 1.52 Z m 2.2399998 0.19000006 l -0.10999966 -0.059999943 c 0.28999996 -0.4000001 0.60999966 -1.06 0.6199999 -1.5900002 c 0.5999999 -0.5499997 1.2799997 0.77 -0.5100002 1.6500001 Z m 3.4900002 1.25 c -1.54 -0.42999983 -4.46 -0.9500003 -6.7799997 -1.1599998 l 0.03999996 -0.20000029 c 2.39 0.07999992 5.12 0.3800001 6.9400005 0.6800003 c 0.25 -0.12000036 0.42999935 -0.12000036 0.52999973 -0.03000021 Z m -0.3000002 -1.1199999 c -0.25 -0.6300001 -0.6700001 -1.4700003 -1.0799999 -2.06 h -4.72 c -0.029999971 0.14999962 -0.06999993 0.30999994 -0.13 0.48000002 h -0.16999996 c 0.07000005 -0.64000034 -0.25 -1.23 -0.63 -1.4300003 c -0.20999998 -0.119999886 -0.35 -0.31999993 -0.26 -0.53999996 c 0.110000014 -0.22999978 0.45 -0.22999978 0.70000005 -0.06999993 c 0.29999995 0.18000007 0.55999994 0.6200001 0.52 1.2700002 h 6.7799997 c -0.13000011 -0.35000038 -0.3199997 -0.8000002 -0.46000004 -1.0800002 l 0.11000061 -0.07999992 c 0.3800001 0.26999974 0.8899994 0.7099998 1.1700001 1.0399997 c 0.19999981 0.010000229 0.29999924 0.03000021 0.37999916 0.10000038 l -0.77999973 0.7499995 l -0.42999935 -0.43999958 h -1.8000002 c 0.53999996 0.4699998 1.1099997 1.0699997 1.4699993 1.54 c 0.21000004 -0.01999998 0.34000015 0.059999943 0.3800001 0.17999983 Z m -0.65999985 -3.95 c -0.40999985 -0.73 -0.98 -1.37 -1.69 -1.92 c -0.8200002 0.5 -1.49 1.14 -1.9399998 1.92 Z m -5.13 0.28999996 l 0.08000004 -0.28999996 h 1.1800001 c 0.40999985 -0.9100001 0.99 -1.65 1.7199998 -2.25 c -1.1299999 -0.75 -2.54 -1.3 -4.16 -1.66 l 0.060000002 -0.16999996 c 1.8299999 0.26999998 3.34 0.77 4.54 1.49 c 1.04 -0.71999997 2.33 -1.1999999 3.7800002 -1.5 c 0.09999943 0.34999996 0.32999992 0.56999993 0.6499996 0.63 l 0.020000458 0.11 c -1.4300003 0.19999999 -2.7700005 0.56 -3.8900003 1.1299999 c 0.80999994 0.58000004 1.46 1.28 1.96 2.1 c 0.25999975 0.00999999 0.3699999 0.0400002 0.4499998 0.13000011 l -0.73 0.71000004 l -0.5 -0.43000007 Z "/>
        </symbol>
        <symbol id="g89F3D93D7DDC6D09385E6410AB955D25" overflow="visible">
            <path d="M 0 0m 2.54 -0.04 c 0.16000009 0 0.28999996 0.089999996 0.28999996 0.26999998 c 0 0.34 -0.1500001 0.46 -0.1500001 0.76 c 0 0.21999997 0.05000019 0.45 0.11000013 0.68 c 0.099999905 0.34000003 0.46000004 1.37 0.70000005 2.0500002 l -0.22000003 0.109999895 c -0.27999997 -0.69000006 -0.74 -1.81 -0.9100001 -2.1 c -0.07999992 -0.16000009 -0.15999985 -0.1500001 -0.24000001 0 c -0.109999895 0.2299999 -0.20999992 0.5899999 -0.20999992 1.1599998 c 0 0.8700001 0.37 1.8400002 0.65999997 2.48 c 0.1400001 0.30999994 0.29999995 0.5999999 0.29999995 0.8200002 c 0 0.43999958 -0.47000003 0.9299998 -0.6899998 1.0999999 c -0.1500001 0.10999966 -0.29000008 0.19000006 -0.5300001 0.28999996 l -0.13999999 -0.1500001 c 0.38 -0.4000001 0.5999999 -0.71000004 0.5999999 -1.0799999 c 0 -0.6999998 -0.65999997 -2.25 -0.65999997 -3.52 c 0 -1.3199999 0.33000004 -2.07 0.61 -2.51 c 0.120000124 -0.19999999 0.27999997 -0.35999998 0.48000002 -0.35999998 Z m 3.2399998 4.6 c 0.4000001 0 0.78999996 0.03999996 1.1700001 0.099999905 c 0.03999996 -0.99 0.099999905 -2.34 -0.25999975 -3.1599998 c -0.3800001 -0.96000004 -1.0100002 -1.44 -1.9100003 -1.92 l 0.12000036 -0.21000001 c 1.06 0.37 1.8999996 0.84 2.3599997 1.8399999 c 0.4500003 0.91999996 0.3499999 2.5100002 0.28999996 3.56 c 0.5700002 0.13000011 1.0499997 0.2999997 1.3399997 0.42999983 c 0.20000076 0.09000015 0.2800007 0.1800003 0.2800007 0.34000015 c 0 0.19999981 -0.3000002 0.30999994 -0.5100002 0.30999994 c -0.07999992 0 -0.1800003 -0.11000013 -0.5699997 -0.26999998 c -0.1500001 -0.059999943 -0.35000038 -0.13000011 -0.5700002 -0.19000006 c -0.01999998 0.40999985 -0.03000021 0.80999994 -0.01999998 1.04 c 0 0.36000013 0.14999962 0.53999996 0.14999962 0.6999998 c 0 0.26000023 -0.6199999 0.52 -1 0.52 c -0.17999983 0 -0.52 -0.07999992 -0.7399998 -0.1699996 l 0.01999998 -0.21000004 c 0.22000027 -0.01999998 0.5 -0.03999996 0.65999985 -0.099999905 c 0.1500001 -0.04000044 0.21000004 -0.10000038 0.23000002 -0.32000017 c 0.03000021 -0.2800002 0.07000017 -1.02 0.10000038 -1.6100001 c -0.3800001 -0.07999992 -0.7800002 -0.13999987 -1.1200004 -0.13999987 c -0.55999994 0 -1 0.17999983 -1.5499997 0.5500002 l -0.13000011 -0.1800003 c 0.5100002 -0.69000006 1.0700002 -0.90999985 1.6599998 -0.90999985 Z "/>
        </symbol>
        <symbol id="g9275371E47087B6620F72C49F1458017" overflow="visible">
            <path d="M 0 0m 1.66 4.2 c 0.16999996 0 0.26999998 0.23000002 0.4799999 0.36000013 c 0.25 0.13999987 0.60000014 0.34000015 0.94000006 0.52 l -0.089999914 -0.8299999 c -0.69000006 -1.0700002 -1.7800001 -2.41 -2.19 -2.8400002 c -0.17999995 -0.20000005 -0.20999998 -0.31999993 -0.20999998 -0.5 c 0 -0.19999999 0.120000005 -0.34999996 0.26 -0.34999996 c 0.15000004 0 0.24000007 0.13 0.35999995 0.29999995 l 0.6500001 0.91 c 0.28999984 -0.44000006 0.65 -1.04 0.7399999 -1.3 c 0.09000015 -0.22 0.120000124 -0.39 0.17000008 -0.63 c 0.049999952 -0.22999999 0.14999986 -0.34 0.32999992 -0.34 c 0.27999997 0 0.42000008 0.47 0.42000008 0.81 c 0 0.21999997 -0.029999971 0.43 -0.049999952 0.67999995 c -0.06000018 0.59999996 -0.16000009 1.8 -0.10000014 2.9499998 c 1 1.0899999 2.17 1.99 3.02 1.99 c 0.5 0 0.6799998 -0.32999992 0.6799998 -0.96000004 c 0 -1.0799999 -0.42000008 -2.2399998 -0.42000008 -3.35 c 0 -0.88 0.49000025 -1.31 1.2000003 -1.31 c 0.8499999 0 1.6100001 0.62 2.0499997 1.24 l -0.1800003 0.18000007 c -0.5799999 -0.5300001 -1.0599995 -0.77000004 -1.7199993 -0.77000004 c -0.48000002 0 -0.71000004 0.21999997 -0.71000004 0.75999993 c 0 1.0200001 0.42999983 2.4500003 0.42999983 3.23 c 0 0.9299998 -0.42999983 1.3499999 -1.1199999 1.3499999 c -1.02 0 -2.1999998 -0.90999985 -3.15 -1.77 c 0.11000013 0.16000032 0.21000004 0.3000002 0.32000017 0.42000008 c 0.119999886 0.15999985 0.23000002 0.24000025 0.23000002 0.36000013 c 0 0.099999905 -0.20000005 0.28999996 -0.36000013 0.4000001 c 0.08000016 0.32999992 0.1500001 0.5899997 0.20000005 0.7399998 c 0.109999895 0.4000001 0.22999978 0.49000025 0.22999978 0.6999998 c 0 0.29000044 -0.50999975 0.73 -0.91999984 0.73 c -0.23000002 0 -0.43999982 -0.049999714 -0.6099999 -0.10999966 l 0.00999999 -0.20000029 c 0.22000003 -0.03999996 0.4000001 -0.099999905 0.53 -0.13999987 c 0.18000007 -0.07000017 0.23000002 -0.11000013 0.23000002 -0.34000015 c -0.00999999 -0.28999996 -0.07999992 -0.80999994 -0.16000009 -1.4499998 c -0.40999985 -0.21999979 -1.4399999 -0.71000004 -1.6899999 -0.71000004 c -0.17999995 0 -0.32999992 0.17000008 -0.47999996 0.48000002 l -0.18 -0.059999943 c -0.00999999 -0.13999987 0 -0.3000002 0.04000002 -0.44000006 c 0.100000024 -0.32999992 0.53000003 -0.71000004 0.82 -0.71000004 Z m 1.2699999 -0.8699999 c -0.029999971 -0.9000001 0.02000022 -1.8199999 0.00999999 -2.3 c 0 -0.15999997 -0.049999952 -0.17000002 -0.13999987 -0.06999999 c -0.1400001 0.17000002 -0.5 0.65000004 -0.78 1.04 c 0.30999994 0.45000005 0.63999987 0.90999985 0.90999985 1.3299999 Z "/>
        </symbol>
        <symbol id="gC782D9758C26A32E0D8EE37ECAA5DDB9" overflow="visible">
            <path d="M 0 0m 5.43 0.29999998 l -0.40999985 -0.01999998 c -0.97000027 0 -1.4000001 0.30999997 -1.4000001 0.65999997 c 0 0.32 0.26999998 0.5299999 0.6199999 0.5299999 c 0.5700002 0 1.06 -0.39999998 1.19 -1.17 Z m -0.27999973 -0.56999993 c 1.8899999 0 3.0099998 1.03 3.0299993 2.28 c 0.030000687 1.3899999 -1.0799994 2.24 -2.3799996 2.24 c -0.6699996 0 -1.2599998 -0.1800003 -1.7199998 -0.35000014 c -0.07999992 -0.03999996 -0.120000124 0.03999996 -0.05000019 0.10000014 c 0.4500003 0.5 1.7800002 1.79 2.29 2.21 c 0.35000038 0.30999994 0.5799999 0.3199997 0.5799999 0.50999975 c 0 0.26999998 -0.5499997 0.69000006 -0.8499999 0.69000006 c -0.13999987 0 -0.17000008 -0.099999905 -0.38999987 -0.17000008 c -0.4499998 -0.13000011 -1.71 -0.4499998 -2.11 -0.4499998 c -0.26 0 -0.3900001 0.2999997 -0.52 0.5899997 l -0.18000007 -0.029999733 c -0.03999996 -0.19000006 -0.049999952 -0.4000001 -0.00999999 -0.55999994 c 0.07999992 -0.28999996 0.45000005 -0.72000027 0.8299999 -0.72000027 c 0.16000009 0 0.3000002 0.1500001 0.49 0.23000002 c 0.42999983 0.17000008 1.3000002 0.48000002 1.6199999 0.5500002 c 0.12000036 0.01999998 0.1800003 -0.01999998 0.09000015 -0.17000008 c -0.42000008 -0.6700001 -2.23 -2.3899999 -3.8 -4.0299997 c -0.23000002 -0.23000002 -0.31999993 -0.3699999 -0.32999992 -0.54999995 c -0.00999999 -0.25 0.13999999 -0.39999998 0.26 -0.39999998 c 0.14999986 -0.00999999 0.23000002 0.05000007 0.37999988 0.24000001 c 0.84000015 1.08 1.8500001 1.9799999 3.2900002 1.9799999 c 1.2299995 0 1.8999996 -0.8799999 1.8699999 -1.76 c -0.01999998 -0.77999985 -0.52 -1.4799998 -1.52 -1.7499999 c -0.16000032 0.97 -0.9100003 1.43 -1.6300001 1.43 c -0.64999986 0 -1.1199999 -0.40999997 -1.1199999 -0.93999994 c 0 -0.71999997 0.75999975 -1.17 1.8800001 -1.17 Z "/>
        </symbol>
        <symbol id="g95A31B67B5E9C40AC086057A89459E4C" overflow="visible">
            <path d="M 0 0m 5.0099998 2.1699998 c -0.46000004 0 -0.80999994 0.3900001 -0.80999994 0.96000004 c 0 0.51 0.32000017 0.95000005 0.8200002 0.95000005 c 0.42999983 0 0.75 -0.32999992 0.75 -0.98 c 0 -0.69000006 -0.26000023 -0.93000007 -0.7600002 -0.93000007 Z m -3.1099997 2.6899998 c 0.25999987 0 0.45999992 0.16000032 0.90999997 0.27000046 c 0.6099999 0.14999962 1.6700001 0.37999964 2.65 0.48999977 l 0.049999714 -1.19 c -0.119999886 0.03999996 -0.25999975 0.059999943 -0.40999985 0.059999943 c -0.8200002 0 -1.31 -0.6799998 -1.31 -1.4099998 c 0 -1.02 0.7999997 -1.79 1.7799997 -1.3399999 c -0.35999966 -0.98 -1.3599997 -1.69 -2.5799997 -2.1399999 l 0.12999988 -0.25 c 1.9299998 0.47999996 3.31 1.5999999 3.31 3.4299998 c 0 0.5799999 -0.13000011 1.05 -0.42000008 1.3500001 l -0.009999752 1.54 c 2.0100002 0.1699996 2.7699995 -0.07000017 3.0900002 -0.07000017 c 0.18999958 0 0.27999973 0.07999992 0.27999973 0.25999975 c 0 0.32000017 -0.52000046 0.5100002 -0.8699999 0.5100002 c -0.21000004 0 -0.8500004 -0.09000015 -2.5 -0.26999998 l 0.01999998 0.5700002 c 0.01999998 0.25 0.17000008 0.40999985 0.17000008 0.63999987 c 0 0.25 -0.62000036 0.4699998 -1.0300002 0.4699998 c -0.25999975 0 -0.5 -0.119999886 -0.6799998 -0.21000004 l 0.01999998 -0.19999981 c 0.2999997 -0.01999998 0.50999975 -0.03000021 0.65999985 -0.07000017 c 0.15999985 -0.049999714 0.21000004 -0.10999966 0.23000002 -0.30999994 l 0.05000019 -0.9499998 c -1.1800003 -0.13000011 -3.24 -0.44000006 -3.6100001 -0.4300003 c -0.3399999 0 -0.53 0.32000017 -0.75 0.6500001 l -0.18999994 -0.069999695 c 0.00999999 -0.20000029 0.029999971 -0.4300003 0.099999964 -0.6000004 c 0.110000074 -0.27999973 0.58 -0.73 0.91 -0.73 Z "/>
        </symbol>
        <symbol id="g93C2A3C2E1CF5A893F68ED41919DBDB" overflow="visible">
            <path d="M 0 0m 1.39 6.7 l -0.13 -0.059999943 c 0.23000002 -0.42000008 0.48000002 -1.0799999 0.48000002 -1.5999999 c 0.53999996 -0.53999996 1.1999998 0.65999985 -0.35000002 1.6599998 Z m 1.0500001 1.6700001 v -1.31 h -1.8700001 l 0.07999998 -0.28999996 h 4.2099996 c 0.14000034 0 0.22000027 0.049999714 0.25 0.15999985 c -0.2999997 0.28999996 -0.80999994 0.69000006 -0.80999994 0.69000006 l -0.41999984 -0.55999994 h -0.78999996 v 0.9500003 c 0.22000003 0.03999996 0.30999994 0.13999939 0.32999992 0.2699995 Z m -0.010000229 -3.9899998 v -1.1100001 h -1.9399998 l 0.08000001 -0.28999996 h 1.5899999 c -0.3699999 -1.0500001 -0.9899999 -2.0700002 -1.7899998 -2.8600001 l 0.119999975 -0.14 c 0.78999996 0.55999994 1.4499999 1.26 1.9399998 2.06 v -2.82 h 0.13000011 c 0.23000002 0 0.51 0.13999999 0.51 0.21999997 v 2.9399998 c 0.44000006 -0.3499999 0.9599998 -0.92999995 1.0899999 -1.4099998 c 0.6799998 -0.43 1.1199999 0.98999995 -1.0899999 1.54 v 0.47000003 h 1.8900001 c 0.12999964 0 0.23000002 0.049999952 0.25999975 0.14999986 c -0.28999996 0.28999996 -0.77999973 0.68000007 -0.77999973 0.68000007 l -0.4300003 -0.53999996 h -0.9399998 v 0.75999975 c 0.22000003 0.03000021 0.29999995 0.12000036 0.31999993 0.25 Z m 1.1600001 2.33 c -0.109999895 -0.5700002 -0.31999993 -1.3400002 -0.53 -1.8900003 h -2.6799998 l 0.07999998 -0.2999997 h 4.6499996 c 0.14000034 0 0.24000025 0.049999714 0.27000046 0.15999985 c -0.32000017 0.3000002 -0.8300004 0.7000003 -0.8300004 0.7000003 l -0.43999958 -0.5600004 h -0.8100002 c 0.3599999 0.4500003 0.68000007 1 0.89999986 1.4100003 c 0.21000004 -0.010000229 0.32000017 0.07999992 0.36000013 0.17999983 Z m 5.0599995 1.6599998 c -0.5 -0.3199997 -1.4399996 -0.75 -2.29 -1.04 l -0.75999975 0.25999975 v -3.2799997 c 0 -1.8900001 -0.25 -3.6 -1.76 -4.95 l 0.1400001 -0.13 c 2.0299997 1.3 2.27 3.27 2.27 5.08 v 0.30999994 h 1.4699998 v -5.3999996 h 0.11000013 c 0.32999992 0 0.5500002 0.15999997 0.5500002 0.20999998 v 5.19 h 1.0899992 c 0.14000034 0 0.22000027 0.05000019 0.25 0.15999985 c -0.32999992 0.3000002 -0.85999966 0.74000025 -0.85999966 0.74000025 l -0.47999954 -0.61000013 h -2.13 v 2.1599998 c 0.9699998 0.14000034 2.04 0.41000032 2.71 0.64000034 c 0.22999954 -0.0800004 0.39999962 -0.0800004 0.48999977 0.01999998 Z "/>
        </symbol>
        <symbol id="g94D3B434B1A19535CDCD597936C71717" overflow="visible">
            <path d="M 0 0m 2.04 8.34 v -1.9200001 h -1.42 l 0.07999998 -0.29000044 h 1.3399999 v -1.7799997 v -0.17000008 h -1.61 l 0.08000001 -0.29999995 h 1.52 c -0.05000007 -1.77 -0.40999997 -3.35 -1.65 -4.5299997 l 0.14999998 -0.13 c 1.18 0.83 1.74 1.9699999 1.99 3.25 c 0.51 -0.46000004 1.05 -1.1400001 1.1699998 -1.71 c 0.70000005 -0.49 1.1699998 1.03 -1.1299999 1.94 c 0.059999943 0.37999988 0.089999914 0.78 0.109999895 1.1799998 h 1.6099999 c 0.13000011 0 0.22000027 0.049999952 0.25 0.16000009 c -0.2999997 0.30999994 -0.8099997 0.73 -0.8099997 0.73 l -0.43000007 -0.59000015 h -0.61000013 v 0.17000008 v 1.7799997 h 1.4000001 c 0.13999987 0 0.23999977 0.05000019 0.25999975 0.16000032 c -0.28999996 0.28999996 -0.7899997 0.6999998 -0.7899997 0.6999998 l -0.42000008 -0.5699997 h -0.45000005 v 1.54 c 0.25 0.03999996 0.33000016 0.13999939 0.35000014 0.27999973 Z m 3.38 -2.5600004 h 2.87 v -1.3299999 h -2.87 Z m 0 0.28999996 v 1.31 h 2.87 v -1.31 Z m 0 -1.9099998 h 2.87 v -1.3499999 h -2.87 Z m -0.62000036 3.5099998 v -5.72 h 0.10000038 c 0.3199997 0 0.52 0.15999997 0.52 0.20999992 v 0.35000014 h 0.3499999 c -0.1500001 -1.54 -0.6800003 -2.43 -2.31 -3.1399999 l 0.059999943 -0.14999998 c 1.9299998 0.54999995 2.7199998 1.48 2.92 3.29 h 0.6999998 v -2.56 c 0 -0.43 0.099999905 -0.59 0.6799998 -0.59 h 0.6000004 c 0.9899998 0 1.2299995 0.13999999 1.2299995 0.41 c 0 0.11999999 -0.019999504 0.19999999 -0.21000004 0.26999998 l -0.029999733 1.27 h -0.14000034 c -0.09000015 -0.53 -0.18999958 -1.0899999 -0.25 -1.2299999 c -0.03999996 -0.089999996 -0.069999695 -0.11 -0.13000011 -0.12 c -0.07999992 0 -0.23999977 0 -0.4499998 0 h -0.4699998 c -0.19999981 0 -0.21999979 0.02 -0.21999979 0.13999999 v 2.41 h 0.53999996 v -0.36000013 h 0.09999943 c 0.3000002 0 0.5500002 0.16000009 0.5500002 0.21000004 v 4.96 c 0.21000004 0.03000021 0.32999992 0.099999905 0.40000057 0.17000008 l -0.7600002 0.59000015 l -0.32999992 -0.41000032 h -2.71 l -0.74000025 0.31000042 Z "/>
        </symbol>
        <symbol id="g7B277EBE48B04345FE886F2EE760DE3A" overflow="visible">
            <path d="M 0 0m 5.2 7.83 c 0.74000025 -1.46 2.29 -2.8899999 3.8999996 -3.7800002 c 0.07000065 0.25 0.31000042 0.48000002 0.6100006 0.53999996 l 0.019999504 0.1500001 c -1.7399998 0.7800002 -3.4199996 1.94 -4.3399997 3.2200003 c 0.25 0.009999752 0.3699999 0.069999695 0.4000001 0.17999935 l -1.19 0.31000042 c -0.55999994 -1.4499998 -2.6599998 -3.6 -4.29 -4.62 l 0.06999999 -0.1500001 c 1.84 0.94000006 3.8599997 2.69 4.8199997 4.15 Z m -3.0199997 -3.86 v -4.09 h -1.6700001 l 0.089999974 -0.29 h 8.62 c 0.13999939 0 0.23999977 0.050000012 0.2699995 0.15 c -0.35999966 0.33999997 -0.9499998 0.78999996 -0.9499998 0.78999996 l -0.52000046 -0.65 h -2.6799998 v 3.0299997 h 2.8399997 c 0.13000011 0 0.2300005 0.05000019 0.26000023 0.16000009 c -0.34999943 0.32999992 -0.9199996 0.76 -0.9199996 0.77 l -0.5 -0.6400001 h -1.6800003 v 2.2200003 c 0.25 0.03999996 0.34000015 0.13999987 0.37000036 0.26999998 l -1.04 0.119999886 v -5.93 h -1.8400002 v 3.7099998 c 0.24000001 0.03999996 0.3399999 0.13000011 0.3599999 0.26999998 Z "/>
        </symbol>
        <symbol id="gA38F571EAE2B096B6A5C474A59E629ED" overflow="visible">
            <path d="M 0 0m 1.81 8.15 l -0.110000014 -0.07999992 c 0.39 -0.3499999 0.82000005 -0.9499998 0.90999997 -1.4299998 c 0.61000013 -0.4499998 1.1200001 0.8499999 -0.79999995 1.5099998 Z m 3.7199998 0.21000004 v -1.8699999 h -1.0299997 v 1.5299997 c 0.21000004 0.030000687 0.2999997 0.119999886 0.30999994 0.25 l -0.9200001 0.09000015 v -1.8699999 h -3.3899999 l 0.089999974 -0.28999996 h 2.31 c 0.31000018 -0.34000015 0.6500001 -0.8800001 0.69000006 -1.31 h -2.46 l 0.07999992 -0.3000002 h 3.4299998 v -0.9299998 h -3.0099998 l 0.06999993 -0.28999996 h 2.94 v -0.98 h -3.9899998 l 0.09000003 -0.28999996 h 3.25 c -0.86000013 -0.9599999 -2.18 -1.8899999 -3.5900002 -2.52 l 0.100000024 -0.16 c 1.6299999 0.55 3.12 1.39 4.14 2.4299998 v -2.6299999 h 0.11000013 c 0.32999992 0 0.53999996 0.14999998 0.5499997 0.19999999 v 2.6799998 h 0.07000017 c 0.8499999 -1.2099999 2.29 -2.1899998 3.6899996 -2.71 c 0.07999992 0.3 0.3000002 0.48000002 0.5600004 0.52000004 l 0.010000229 0.11 c -1.3699999 0.35 -3.0300002 1.14 -3.9700003 2.08 h 3.4899998 c 0.14000034 0 0.2300005 0.049999952 0.26000023 0.16000009 c -0.32999992 0.29999995 -0.8500004 0.70000005 -0.8500004 0.70000005 l -0.46000004 -0.5700002 h -2.7999997 v 0.98 h 2.8600001 c 0.14000034 0 0.23999977 0.049999952 0.26000023 0.16000009 c -0.3000002 0.27999997 -0.7800002 0.64999986 -0.7800002 0.64999986 l -0.42000008 -0.52 h -1.9200001 v 0.9299998 h 3.44 c 0.13000011 0 0.2300005 0.05000019 0.25 0.16000032 c -0.3199997 0.28999996 -0.8199997 0.6799998 -0.8199997 0.6799998 l -0.4500003 -0.53999996 h -1.69 c 0.36000013 0.3000002 0.72000027 0.6700001 0.96000004 0.9699998 c 0.21000004 -0.01999998 0.34000015 0.05000019 0.3800001 0.17000008 l -0.5300002 0.17000008 h 2.4200006 c 0.13999939 0 0.22999954 0.05000019 0.25999928 0.1500001 c -0.32999992 0.2999997 -0.84000015 0.69000006 -0.84000015 0.69000006 l -0.45999908 -0.5500002 h -1.4200006 c 0.47000027 0.36000013 0.96000004 0.80999994 1.27 1.1799998 c 0.22000027 -0.029999733 0.34000015 0.04000044 0.40000057 0.1500001 l -0.92000055 0.35000038 c -0.25 -0.52000046 -0.6700001 -1.2000003 -1.04 -1.6800003 h -0.35999966 v 1.5200005 c 0.21999979 0.03999996 0.28999996 0.12999916 0.30999994 0.25999928 Z m -2.2899997 -2.1599998 h 3.1699998 c -0.19000006 -0.40999985 -0.46000004 -0.9200001 -0.71000004 -1.31 h -1.6399999 c 0.21999979 0.23000002 0.13999987 0.86000013 -0.81999993 1.31 Z "/>
        </symbol>
        <symbol id="g8EA44FD9CD658297A6AA79F1D3ABA0FE" overflow="visible">
            <path d="M 0 0m 3.1799998 -2.48 c 0.09000015 0 0.1400001 0.05000019 0.1400001 0.1400001 c 0 0.029999971 -0.01999998 0.06999993 -0.049999952 0.109999895 c -0.52 0.4000001 -0.94000006 1.0600001 -1.25 1.97 c -0.26999998 0.78999996 -0.40999997 1.5699999 -0.40999997 2.34 v 0.8399999 c 0 0.77 0.13999999 1.55 0.40999997 2.34 c 0.30999994 0.9100003 0.73 1.5700002 1.25 1.9700003 c 0.029999971 0.029999733 0.049999952 0.069999695 0.049999952 0.10999966 c 0 0.09000015 -0.049999952 0.14000034 -0.1400001 0.14000034 c -0.00999999 0 -0.03999996 -0.010000229 -0.06999993 -0.03000021 c -0.5999999 -0.46000004 -1.0999999 -1.1399999 -1.51 -2.0499997 c -0.39 -0.87000036 -0.5899999 -1.6900003 -0.5899999 -2.4800003 v -0.8399999 c 0 -0.78999996 0.19999993 -1.6099999 0.5899999 -2.48 c 0.4100001 -0.90999997 0.9100001 -1.59 1.51 -2.0500002 c 0.029999971 -0.01999998 0.059999943 -0.029999971 0.06999993 -0.029999971 Z "/>
        </symbol>
        <symbol id="gED56789099100826EE4E845A642C587" overflow="visible">
            <path d="M 0 0m 2.49 -0.22 c 1.4099998 0 2.11 1.14 2.11 3.4199998 c 0 1.5300002 -0.32000017 2.5500002 -0.95000005 3.0500002 c -0.3499999 0.26999998 -0.74 0.40999985 -1.1499999 0.40999985 c -1.41 0 -2.1100001 -1.1500001 -2.1100001 -3.46 c 0 -1.8399998 0.49 -3.4199998 2.1 -3.4199998 Z m 1.1199999 5.4599996 c 0.06999993 -0.3499999 0.099999905 -0.9899998 0.099999905 -1.9199998 c 0 -0.9200001 -0.03999996 -1.6 -0.109999895 -2.04 c -0.12999988 -0.79999995 -0.5 -1.1999999 -1.1099999 -1.1999999 c -0.23000002 0 -0.46000004 0.09 -0.6700001 0.26 c -0.26999998 0.22999999 -0.42999995 0.6999999 -0.5 1.42 c -0.029999971 0.25 -0.03999996 0.77 -0.03999996 1.56 c 0 0.8700001 0.029999971 1.4799998 0.08000004 1.8100002 c 0.089999914 0.5499997 0.26999998 0.8999996 0.54999995 1.0499997 c 0.21999991 0.119999886 0.40999997 0.17999983 0.58000004 0.17999983 c 0.64999986 0 1.01 -0.52999973 1.1199999 -1.1199999 Z "/>
        </symbol>
        <symbol id="g8493D600BB45F339BE5EE97313DFC75" overflow="visible">
            <path d="M 0 0m 1.39 1.06 c -0.32000005 0 -0.53000003 -0.23999995 -0.53000003 -0.55999994 c 0 -0.3 0.23000008 -0.55 0.53000003 -0.55 c 0.13999999 0 0.26 0.04 0.35000002 0.13 l 0.00999999 -0.08 c 0 -0.63 -0.21000004 -1.17 -0.63 -1.5999999 c -0.07000005 -0.08000004 -0.110000014 -0.1400001 -0.110000014 -0.18000007 c 0 -0.100000024 0.03999996 -0.14999998 0.13 -0.14999998 c 0.09000003 0 0.21000004 0.120000005 0.38 0.35000002 c 0.34000003 0.4799999 0.51 1.01 0.51 1.5799999 c 0 0.53 -0.18000007 1.06 -0.64 1.06 Z "/>
        </symbol>
        <symbol id="g91EFFF08AA08229DB781E7C5CBB2B49B" overflow="visible">
            <path d="M 0 0m 2.37 6.66 c -0.5099999 0 -0.93999994 -0.17999983 -1.31 -0.53999996 c -0.36999995 -0.36000013 -0.55999994 -0.7800002 -0.55999994 -1.29 c 0 -0.34000015 0.25 -0.59000015 0.55999994 -0.59000015 c 0.30000007 0 0.5500001 0.26000023 0.5500001 0.55999994 c 0 0.3300004 -0.24000001 0.55999994 -0.56000006 0.55999994 c -0.029999971 0 -0.049999952 0 -0.06999999 -0.009999752 c 0.19 0.48999977 0.63000005 0.9200001 1.26 0.9200001 c 0.81999993 0 1.28 -0.71000004 1.28 -1.5700002 c 0 -0.6700001 -0.34000015 -1.3899999 -1.02 -2.1499999 l -1.88 -2.12 c -0.13000003 -0.14999998 -0.120000005 -0.13999999 -0.120000005 -0.42999998 h 3.71 l 0.28999996 1.8 h -0.32999992 c -0.0800004 -0.51 -0.1500001 -0.79999995 -0.21000028 -0.89 c -0.049999952 -0.050000012 -0.3499999 -0.06999999 -0.89999986 -0.06999999 h -1.67 l 0.9699999 0.95 c 0.68000007 0.63999987 1.54 1.3299999 1.8300002 1.8599999 c 0.19999981 0.35000014 0.2999997 0.70000005 0.2999997 1.05 c 0 1.1799998 -0.91999984 1.96 -2.12 1.96 Z "/>
        </symbol>
        <symbol id="gE8406A7677610853773AC8C9CC50DC4F" overflow="visible">
            <path d="M 0 0m 0.78 -2.45 c 0.6 0.46000004 1.1 1.1400001 1.51 2.0500002 c 0.38999987 0.87 0.5899999 1.6899999 0.5899999 2.48 v 0.8399999 c 0 0.78999996 -0.20000005 1.6099999 -0.5899999 2.4800003 c -0.40999997 0.90999985 -0.90999997 1.5899997 -1.51 2.0499997 c -0.029999971 0.01999998 -0.060000002 0.03000021 -0.06999999 0.03000021 c -0.089999974 0 -0.13999999 -0.05000019 -0.13999999 -0.14000034 c 0 -0.03999996 0.01999998 -0.07999992 0.050000012 -0.10999966 c 0.52 -0.4000001 0.93999994 -1.06 1.25 -1.9700003 c 0.26999986 -0.78999996 0.40999997 -1.5699999 0.40999997 -2.34 v -0.8399999 c 0 -0.77 -0.1400001 -1.55 -0.40999997 -2.34 c -0.31000006 -0.90999997 -0.73 -1.5699999 -1.25 -1.97 c -0.030000031 -0.03999996 -0.050000012 -0.07999992 -0.050000012 -0.109999895 c 0 -0.089999914 0.050000012 -0.1400001 0.13999999 -0.1400001 c 0.00999999 0 0.04000002 0.00999999 0.06999999 0.029999971 Z "/>
        </symbol>
        <symbol id="g210362D59704D4E4F245CFB9206AB0C7" overflow="visible">
            <path d="M 0 0m 0.39999998 0.79999995 l 0.45 -0.8299999 c 0.09000003 0.04 0.16000003 0.14 0.19 0.26999998 c 1.0799999 0.60999995 1.95 1.14 2.59 1.54 c 0.16000009 -0.31000006 0.27999997 -0.63 0.32999992 -0.90999997 c 0.73000026 -0.58000004 1.28 1.1099999 -1.1899998 2.35 l -0.120000124 -0.07000017 c 0.3000002 -0.31999993 0.6200001 -0.75 0.8800001 -1.1899999 c -0.6400001 -0.25 -1.26 -0.49 -1.8 -0.68999994 v 2.7 h 1.9099998 v -0.60000014 h 0.10000014 c 0.2099998 0 0.51999974 0.1400001 0.5399997 0.18000007 v 3.7699997 c 0.19000006 0.03999996 0.36000013 0.12000036 0.4300003 0.20000029 l -0.8100002 0.61000013 l -0.3499999 -0.4000001 h -1.71 l -0.7499999 0.32999945 v -7.0299997 Z m 1.33 6.6400003 h 1.9099998 v -1.44 h -1.9099998 Z m 0 -1.7400002 h 1.9099998 v -1.4299998 h -1.9099998 Z m 2.65 -1.3899999 l 0.07999992 -0.28999996 h 2.4699998 c -0.55999994 -1.8299999 -1.69 -3.4099998 -4.06 -4.65 l 0.10000014 -0.14999998 c 1.97 0.77 3.18 1.81 3.9299996 3.05 v -2.21 c 0 -0.44 0.11000013 -0.61 0.75 -0.61 h 0.6999998 c 1.1000004 0 1.3699999 0.13000003 1.3699999 0.41000003 c 0 0.120000005 -0.029999733 0.2 -0.21999931 0.28 l -0.030000687 1.56 h -0.13999939 c -0.10000038 -0.63 -0.22000027 -1.3299999 -0.28999996 -1.51 c -0.029999733 -0.1 -0.06000042 -0.12 -0.15000057 -0.13 c -0.069999695 -0.010000002 -0.2699995 -0.010000002 -0.53999996 -0.010000002 h -0.5499997 c -0.23000002 0 -0.25999975 0.030000001 -0.25999975 0.17 v 2.8899999 c 0.17999983 0.029999971 0.26999998 0.13000011 0.27999973 0.25 l -0.3699999 0.03999996 c 0.07999992 0.21000004 0.13999987 0.4100001 0.21000004 0.6200001 h 1.8099995 c 0.14000034 0 0.22000027 0.049999714 0.25 0.15999985 c -0.29999924 0.28999996 -0.78999996 0.71000004 -0.78999996 0.71000004 l -0.43999958 -0.5799999 h -0.75 c 0.25 0.9699998 0.3699999 2.0099998 0.46000004 3.13 h 1.0500002 c 0.14999962 0 0.25 0.049999714 0.2699995 0.15999985 c -0.30999947 0.28999996 -0.8299999 0.70999956 -0.8299999 0.70999956 l -0.4499998 -0.57999945 h -3.5699997 l 0.07999992 -0.28999996 h 0.7399998 v -3.13 Z m 1.7299995 3.13 h 1.3600001 c -0.07000017 -1.1000004 -0.19000006 -2.15 -0.4499998 -3.13 h -0.9100003 Z "/>
        </symbol>
        <symbol id="gE4960F0198DD1ECF8738D86C6A790648" overflow="visible">
            <path d="M 0 0m 1.99 5.0499997 v -0.65999985 c -0.46000004 -0.65999985 -1 -1.26 -1.61 -1.76 l 0.109999985 -0.119999886 c 0.55999994 0.3599999 1.06 0.77 1.5 1.23 v -4.51 h 0.089999914 c 0.36000013 0 0.54999995 0.18 0.54999995 0.24000001 v 5 l 0.18000007 0.23000002 c 0.12999988 0.03999996 0.20000005 0.099999905 0.21000004 0.1800003 l -0.08000016 0.009999752 c 0.37000012 0.52 0.69000006 1.06 0.95000005 1.5900002 h 5.3399997 c 0.15000057 0 0.25 0.049999714 0.2800007 0.15999985 c -0.37000084 0.32000017 -0.94000053 0.75999975 -0.94000053 0.75999975 l -0.5 -0.62999964 h -4.04 c 0.1800003 0.38999987 0.3300004 0.77 0.46000004 1.1299996 c 0.26000023 -0.01999998 0.3499999 0.04000044 0.4000001 0.15999985 l -1.05 0.32999992 c -0.13000011 -0.5199995 -0.31999993 -1.0699997 -0.53999996 -1.6199994 h -2.8 l 0.089999974 -0.28999996 h 2.58 c -0.21999979 -0.5 -0.47999978 -1.0100002 -0.78 -1.5 Z m 4.1399994 -1.1299999 v -1.0699999 h -2.9199996 l 0.07999992 -0.29999995 h 2.8399997 v -2.33 c 0 -0.15 -0.049999714 -0.21 -0.23999977 -0.21 c -0.21000004 0 -1.29 0.08 -1.29 0.08 v -0.14999999 c 0.46000004 -0.06 0.73 -0.13 0.88999987 -0.23999998 c 0.13000011 -0.110000014 0.19000006 -0.28 0.22000027 -0.48 c 0.96000004 0.089999974 1.0799999 0.42 1.0799999 0.95 v 2.3799999 h 2.62 c 0.14000034 0 0.23999977 0.049999952 0.26000023 0.16000009 c -0.32999992 0.30999994 -0.8800001 0.7399998 -0.8800001 0.7399998 l -0.4800005 -0.5999999 h -1.5199995 v 0.71000004 c 0.21999979 0.03999996 0.30999994 0.109999895 0.33999968 0.25 l -0.28999996 0.029999971 c 0.6000004 0.29999995 1.2999997 0.7099998 1.7000003 1.05 c 0.22000027 0.010000229 0.34000015 0.03000021 0.42000008 0.09000015 l -0.7399998 0.7199998 l -0.4300003 -0.42000008 h -3.8500001 l 0.089999914 -0.28999996 h 3.6399999 c -0.32999992 -0.35999966 -0.78999996 -0.78999996 -1.1699996 -1.1099999 Z "/>
        </symbol>
        <symbol id="g2C08F44D7553216886FF9F9839464F61" overflow="visible">
            <path d="M 0 0m 6.98 2.7 h -6.1800003 c -0.15999997 0 -0.23999995 -0.07000017 -0.23999995 -0.20000005 c 0 -0.13000011 0.07999998 -0.20000005 0.23999995 -0.20000005 h 6.1800003 c 0.15999985 0 0.23999977 0.06999993 0.23999977 0.20000005 c 0 0.119999886 -0.119999886 0.20000005 -0.23999977 0.20000005 Z "/>
        </symbol>
        <symbol id="gDECE3A5BAAC29CEE3940DE0ED7B22D29" overflow="visible">
            <path d="M 0 0m 2.69 6.66 c -0.4100001 -0.42000008 -1.0100001 -0.6300001 -1.8000001 -0.6300001 v -0.38999987 c 0.52 0 0.9499999 0.07999992 1.2799999 0.23999977 v -5.0599995 c 0 -0.18 -0.03999996 -0.3 -0.12999988 -0.35 c -0.09000003 -0.050000012 -0.34000003 -0.08000001 -0.74 -0.08000001 h -0.34999996 v -0.39 c 0.24999994 0.02 0.79 0.03 1.6199999 0.03 c 0.8299999 0 1.3699999 -0.01 1.6200001 -0.03 v 0.39 h -0.35000014 c -0.4100001 0 -0.6600001 0.030000001 -0.74 0.08000001 c -0.07999992 0.049999982 -0.12999988 0.16999999 -0.12999988 0.35 v 5.5399995 c 0 0.24000025 -0.01999998 0.3000002 -0.27999997 0.3000002 Z "/>
        </symbol>
    </defs>
</svg>
