<svg viewBox="0 0 305.849658793 275.567322835" width="305.849658793pt" height="275.567322835pt" xmlns="http://www.w3.org/2000/svg" xmlns:xlink="http://www.w3.org/1999/xlink" xmlns:h5="http://www.w3.org/1999/xhtml"><g transform="translate(6 6)"><g><path fill="none" stroke="#000000" stroke-width="0.7" stroke-linecap="round" stroke-linejoin="miter" stroke-miterlimit="4" transform="translate(42.348394174 13.069233105)" d="M 0 0m 0 90.523345572l 96.669145278 -90.523345572"/><path fill="none" stroke="#000000" stroke-width="0.7" stroke-linecap="round" stroke-linejoin="miter" stroke-miterlimit="4" transform="translate(138.654925989 13.069233102)" d="M 0 0m 0.362613444 0c -0.586464719 1.438491456 -0.456080027 3.06986245 0.35141862 4.396943635"/><path fill="none" stroke="#000000" stroke-width="0.7" stroke-linecap="round" stroke-linejoin="miter" stroke-miterlimit="4" transform="translate(134.653115157 12.43016416)" d="M 0 0m 4.364424276 0.639068943c -1.473861407 0.490847317 -3.093166943 0.253737492 -4.364424276 -0.639068943"/><path fill="none" transform="translate(45.443658042 44.651431684)" d="M 0 0h 44v 12.1h -44v -12.1Z "/><g transform="translate(45.443657931 44.651431558)"><g><g><g transform="matrix(1 0 0 -1 2 9.29)"><use xlink:href="#g3BE36AF4A15F04D38BE05AFB59E0E589" x="0" y="0" fill="#000000" fill-rule="nonzero"/><use xlink:href="#gF2AFEEAFE234AF065802AD3E9C763527" x="10" y="0" fill="#000000" fill-rule="nonzero"/></g><g transform="matrix(1 0 0 -1 22 9.29)"><use xlink:href="#gA79A9AEAF8AB26E6838E6ED39EA1296" x="0" y="0" fill="#000000" fill-rule="nonzero"/><use xlink:href="#g1E9EEBE40DCF03E1D1AD3A54DDF62F3D" x="10" y="0" fill="#000000" fill-rule="nonzero"/></g></g></g></g><path fill="none" stroke="#000000" stroke-width="0.7" stroke-linecap="round" stroke-linejoin="miter" stroke-miterlimit="4" transform="translate(182.031496063 71.583478986)" d="M 0 0m 0 21.526297902l 75.47491786 -21.526297902"/><path fill="none" stroke="#000000" stroke-width="0.7" stroke-linecap="round" stroke-linejoin="miter" stroke-miterlimit="4" transform="translate(255.796402558 71.583478898)" d="M 0 0m 1.710011552 0c -1.179157058 1.011329231 -1.808908477 2.521886824 -1.697334023 4.071321986"/><path fill="none" stroke="#000000" stroke-width="0.7" stroke-linecap="round" stroke-linejoin="miter" stroke-miterlimit="4" transform="translate(253.916777447 69.020060452)" d="M 0 0m 3.589636664 2.563418445c -1.535238278 -0.237153132 -2.867079125 -1.188242536 -3.589636664 -2.563418445"/><path fill="none" transform="translate(213.798696249 69.085326771)" d="M 0 0h 11.18v 11.29h -11.18v -11.29Z "/><g transform="translate(213.798696186 69.085326645)"><g><g><g transform="matrix(1 0 0 -1 2 9.29)"><use xlink:href="#g92F7D5D0B2EF9651B939B3B4DE8113DA" x="0" y="0" fill="#000000" fill-rule="nonzero"/></g></g></g></g><path fill="none" stroke="#000000" stroke-width="0.7" stroke-linecap="round" stroke-linejoin="miter" stroke-miterlimit="4" transform="translate(182.031496063 106.4843854)" d="M 0 0l 67.695740227 19.927060071"/><path fill="none" stroke="#000000" stroke-width="0.7" stroke-linecap="round" stroke-linejoin="miter" stroke-miterlimit="4" transform="translate(246.116087236 126.411445732)" d="M 0 0m 3.611148953 0c -1.537185738 0.224184575 -2.877008157 1.163997097 -3.611148953 2.533024492"/><path fill="none" stroke="#000000" stroke-width="0.7" stroke-linecap="round" stroke-linejoin="miter" stroke-miterlimit="4" transform="translate(248.048505067 122.325939855)" d="M 0 0m 1.678731122 4.085505878c -1.170577761 -1.021247484 -1.787555026 -2.537067639 -1.662904556 -4.085505878"/><path fill="none" transform="translate(211.262008322 103.288728317)" d="M 0 0h 10.7v 11.29h -10.7v -11.29Z "/><g transform="translate(211.262008212 103.288728191)"><g><g><g transform="matrix(1 0 0 -1 2 9.29)"><use xlink:href="#gF6BF8A950463E6011524CE603F4B27BF" x="0" y="0" fill="#000000" fill-rule="nonzero"/></g></g></g></g><path fill="none" stroke="#000000" stroke-width="0.7" stroke-linecap="round" stroke-linejoin="miter" stroke-miterlimit="4" transform="translate(53.999999906 102.968424904)" d="M 0 0m 0 9.541079115l 67.684922534 -9.541079115"/><path fill="none" stroke="#000000" stroke-width="0.7" stroke-linecap="round" stroke-linejoin="miter" stroke-miterlimit="4" transform="translate(119.444447038 102.968424882)" d="M 0 0m 2.240475702 0c -1.306894769 0.839776121 -2.13816471 2.249514054 -2.240475702 3.799588353"/><path fill="none" stroke="#000000" stroke-width="0.7" stroke-linecap="round" stroke-linejoin="miter" stroke-miterlimit="4" transform="translate(118.48141792 99.936237571)" d="M 0 0m 3.20350482 3.032187311c -1.488111334 -0.445783052 -2.676688054 -1.570796889 -3.20350482 -3.032187311"/><path fill="none" transform="translate(60.896581666 93.654116704)" d="M 0 0h 53.68v 12.08h -53.68v -12.08Z "/><g transform="translate(60.89658154 93.654116641)"><g><g><g transform="matrix(1 0 0 -1 2 9.29)"><use xlink:href="#g3BE36AF4A15F04D38BE05AFB59E0E589" x="0" y="0" fill="#000000" fill-rule="nonzero"/><use xlink:href="#gF2AFEEAFE234AF065802AD3E9C763527" x="10" y="0" fill="#000000" fill-rule="nonzero"/></g><g transform="matrix(1 0 0 -1 22 9.29)"><use xlink:href="#g2BD26498917176DA16A9B77CD4BBF537" x="0" y="0" fill="#000000" fill-rule="nonzero"/><use xlink:href="#gF2EAE3ADD54D35FBF9DD19F14DC971E7" x="10" y="0" fill="#000000" fill-rule="nonzero"/></g><g transform="matrix(1 0 0 -1 44.5 9.29)"><use xlink:href="#g92F7D5D0B2EF9651B939B3B4DE8113DA" x="0" y="0" fill="#000000" fill-rule="nonzero"/></g></g></g></g><path fill="none" stroke="#000000" stroke-width="0.7" stroke-linecap="round" stroke-linejoin="miter" stroke-miterlimit="4" transform="translate(182.031496063 201.340208072)" d="M 0 0m 0 19.927060071l 67.695740227 -19.927060071"/><path fill="none" stroke="#000000" stroke-width="0.7" stroke-linecap="round" stroke-linejoin="miter" stroke-miterlimit="4" transform="translate(248.048505067 201.340207874)" d="M 0 0m 1.678731122 0c -1.170577761 1.021247484 -1.787555026 2.537067639 -1.662904556 4.085505878"/><path fill="none" stroke="#000000" stroke-width="0.7" stroke-linecap="round" stroke-linejoin="miter" stroke-miterlimit="4" transform="translate(246.116087236 198.807183382)" d="M 0 0m 3.611148953 2.533024492c -1.537185738 -0.224184575 -2.877008157 -1.163997097 -3.611148953 -2.533024492"/><path fill="none" transform="translate(209.89247973 198.045717236)" d="M 0 0h 11.18v 11.29h -11.18v -11.29Z "/><g transform="translate(209.892479667 198.04571711)"><g><g><g transform="matrix(1 0 0 -1 2 9.29)"><use xlink:href="#g92F7D5D0B2EF9651B939B3B4DE8113DA" x="0" y="0" fill="#000000" fill-rule="nonzero"/></g></g></g></g><path fill="none" stroke="#000000" stroke-width="0.7" stroke-linecap="round" stroke-linejoin="miter" stroke-miterlimit="4" transform="translate(182.031496063 234.744426383)" d="M 0 0l 71.585314733 20.735055427"/><path fill="none" stroke="#000000" stroke-width="0.7" stroke-linecap="round" stroke-linejoin="miter" stroke-miterlimit="4" transform="translate(250.016681788 255.479481953)" d="M 0 0m 3.600128763 0c -1.536198888 0.230849426 -2.871932554 1.176464043 -3.600128763 2.548662558"/><path fill="none" stroke="#000000" stroke-width="0.7" stroke-linecap="round" stroke-linejoin="miter" stroke-miterlimit="4" transform="translate(251.922037148 251.401226928)" d="M 0 0m 1.694773403 4.078255024c -1.174995975 -1.016160884 -1.798541712 -2.5292908 -1.680608194 -4.078255024"/><path fill="none" transform="translate(213.19868183 231.949607014)" d="M 0 0h 10.7v 11.29h -10.7v -11.29Z "/><g transform="translate(213.19868172 231.949606888)"><g><g><g transform="matrix(1 0 0 -1 2 9.29)"><use xlink:href="#gF6BF8A950463E6011524CE603F4B27BF" x="0" y="0" fill="#000000" fill-rule="nonzero"/></g></g></g></g><path fill="none" stroke="#000000" stroke-width="0.7" stroke-linecap="round" stroke-linejoin="miter" stroke-miterlimit="4" transform="translate(42.059203516 127.882578677)" d="M 0 0l 91.660323187 87.79048463"/><path fill="none" stroke="#000000" stroke-width="0.7" stroke-linecap="round" stroke-linejoin="miter" stroke-miterlimit="4" transform="translate(129.348184122 215.404274419)" d="M 0 0m 4.371342461 0.26878892c -1.468242018 -0.5074091 -3.090114366 -0.288544604 -4.371342461 0.589893321"/><path fill="none" stroke="#000000" stroke-width="0.7" stroke-linecap="round" stroke-linejoin="miter" stroke-miterlimit="4" transform="translate(133.377448529 211.280354589)" d="M 0 0m 0.342078054 4.39270875c -0.57023288 -1.445002796 -0.421490307 -3.074802547 0.400897594 -4.39270875"/><path fill="none" transform="translate(89.39914249 158.374492891)" d="M 0 0h 53.2v 12.08h -53.2v -12.08Z "/><g transform="translate(89.399142458 158.374492828)"><g><g><g transform="matrix(1 0 0 -1 2 9.29)"><use xlink:href="#g3BE36AF4A15F04D38BE05AFB59E0E589" x="0" y="0" fill="#000000" fill-rule="nonzero"/><use xlink:href="#gF2AFEEAFE234AF065802AD3E9C763527" x="10" y="0" fill="#000000" fill-rule="nonzero"/></g><g transform="matrix(1 0 0 -1 22 9.29)"><use xlink:href="#g2BD26498917176DA16A9B77CD4BBF537" x="0" y="0" fill="#000000" fill-rule="nonzero"/><use xlink:href="#gF2EAE3ADD54D35FBF9DD19F14DC971E7" x="10" y="0" fill="#000000" fill-rule="nonzero"/></g><g transform="matrix(1 0 0 -1 44.5 9.29)"><use xlink:href="#gF6BF8A950463E6011524CE603F4B27BF" x="0" y="0" fill="#000000" fill-rule="nonzero"/></g></g></g></g><path fill="none" stroke="#000000" stroke-width="0.6" stroke-linecap="round" stroke-linejoin="miter" stroke-miterlimit="4" stroke-dashoffset="0" stroke-dasharray="3 3" transform="translate(152.031496063 111.836495969)" d="M 0 0v 104.078661386"/><path fill="none" transform="translate(0 109.59257874)" d="M 0 0h 48v 12.29h -48v -12.29Z "/><g transform="translate(-9.4e-8 109.592578724)"><g><g transform="translate(0)"><g><path fill="#f5f5f5" fill-rule="nonzero" d="M 0 0m 0 1.7c 0 -0.938884075 0.761115925 -1.7 1.7 -1.7h 44.6c 0.938884075 0 1.7 0.761115925 1.7 1.7v 8.89c 0 0.938884075 -0.761115925 1.7 -1.7 1.7h -44.6c -0.938884075 0 -1.7 -0.761115925 -1.7 -1.7Z "/><path fill="none" stroke="#000000" stroke-width="0.6" stroke-linecap="butt" stroke-linejoin="miter" stroke-miterlimit="4" d="M 0 0m 1.7 0h 44.6c 0.938884075 0 1.7 0.761115925 1.7 1.7v 8.89c 0 0.938884075 -0.761115925 1.7 -1.7 1.7h -44.6c -0.938884075 0 -1.7 -0.761115925 -1.7 -1.7v -8.89c 0 -0.938884075 0.761115925 -1.7 1.7 -1.7"/><g transform="matrix(1 0 0 -1 4 9.79)"><use xlink:href="#gD2097A8F4CF99C887A699263749C41D0" x="0" y="0" fill="#000000" fill-rule="nonzero"/><use xlink:href="#gFDF82B941D7DC70B0C14B3FEF99E4FA0" x="10" y="0" fill="#000000" fill-rule="nonzero"/><use xlink:href="#g845BC1CBD48645C795D7DAAD710EF699" x="20" y="0" fill="#000000" fill-rule="nonzero"/><use xlink:href="#gF7DE8E8B21CAE5F9139D21096B0A1AC8" x="30" y="0" fill="#000000" fill-rule="nonzero"/></g></g></g></g></g><path fill="none" transform="translate(140.91816273)" d="M 0 0h 22.226666667v 6.83h -22.226666667v -6.83Z "/><g transform="translate(140.918162693 -1.1e-7)"><g><g transform="translate(0 0)"><g transform="matrix(1 0 0 -1 0 6.83)"><use xlink:href="#gA5379C297008FE083E855C8E8B850A03" x="0" y="0" fill="#0b7285" fill-rule="nonzero"/></g><g transform="matrix(1 0 0 -1 3.89 6.83)"><use xlink:href="#gAA84A9423BA34B701FF3D1FC1A0341B9" x="0" y="0" fill="#0b7285" fill-rule="nonzero"/></g><g transform="matrix(1 0 0 -1 8.89 6.83)"><use xlink:href="#g8E2B88F26393DF9E07782AED9E9A499B" x="0" y="0" fill="#0b7285" fill-rule="nonzero"/></g><g transform="matrix(1 0 0 -1 13.336666667 6.83)"><use xlink:href="#g2944E08BBD755E2996904E6E0A970414" x="0" y="0" fill="#0b7285" fill-rule="nonzero"/></g><g transform="matrix(1 0 0 -1 18.336666667 6.83)"><use xlink:href="#g62817012A814A947D74F91B268BA3C0F" x="0" y="0" fill="#0b7285" fill-rule="nonzero"/></g></g></g></g><path fill="none" transform="translate(128.031496063 93.546496063)" d="M 0 0h 48v 12.29h -48v -12.29Z "/><g transform="translate(128.031495969 93.546496047)"><g><g transform="translate(0)"><g><path fill="#f5f5f5" fill-rule="nonzero" d="M 0 0m 0 1.7c 0 -0.938884075 0.761115925 -1.7 1.7 -1.7h 44.6c 0.938884075 0 1.7 0.761115925 1.7 1.7v 8.89c 0 0.938884075 -0.761115925 1.7 -1.7 1.7h -44.6c -0.938884075 0 -1.7 -0.761115925 -1.7 -1.7Z "/><path fill="none" stroke="#000000" stroke-width="0.6" stroke-linecap="butt" stroke-linejoin="miter" stroke-miterlimit="4" d="M 0 0m 1.7 0h 44.6c 0.938884075 0 1.7 0.761115925 1.7 1.7v 8.89c 0 0.938884075 -0.761115925 1.7 -1.7 1.7h -44.6c -0.938884075 0 -1.7 -0.761115925 -1.7 -1.7v -8.89c 0 -0.938884075 0.761115925 -1.7 1.7 -1.7"/><g transform="matrix(1 0 0 -1 4 9.79)"><use xlink:href="#g22C7E80E682D1367CF3FC14B600514C2" x="0" y="0" fill="#000000" fill-rule="nonzero"/><use xlink:href="#gBE0B41BBE774407C22C0DB5022D512EB" x="10" y="0" fill="#000000" fill-rule="nonzero"/><use xlink:href="#g845BC1CBD48645C795D7DAAD710EF699" x="20" y="0" fill="#000000" fill-rule="nonzero"/><use xlink:href="#gF7DE8E8B21CAE5F9139D21096B0A1AC8" x="30" y="0" fill="#000000" fill-rule="nonzero"/></g></g></g></g></g><path fill="none" transform="translate(263.842992126 64.184330709)" d="M 0 0h 22.226666667v 6.83h -22.226666667v -6.83Z "/><g transform="translate(263.842992089 64.184330598)"><g><g transform="translate(0 0)"><g transform="matrix(1 0 0 -1 0 6.83)"><use xlink:href="#gA5379C297008FE083E855C8E8B850A03" x="0" y="0" fill="#0b7285" fill-rule="nonzero"/></g><g transform="matrix(1 0 0 -1 3.89 6.83)"><use xlink:href="#g187F960CD8D343F130EAFAB63E4BE0DE" x="0" y="0" fill="#0b7285" fill-rule="nonzero"/></g><g transform="matrix(1 0 0 -1 8.89 6.83)"><use xlink:href="#g8E2B88F26393DF9E07782AED9E9A499B" x="0" y="0" fill="#0b7285" fill-rule="nonzero"/></g><g transform="matrix(1 0 0 -1 13.336666667 6.83)"><use xlink:href="#gDCB33243FA7B758E3BCD0C7DC09CD368" x="0" y="0" fill="#0b7285" fill-rule="nonzero"/></g><g transform="matrix(1 0 0 -1 18.336666667 6.83)"><use xlink:href="#g62817012A814A947D74F91B268BA3C0F" x="0" y="0" fill="#0b7285" fill-rule="nonzero"/></g></g></g></g><path fill="none" transform="translate(256.062992126 128.368661417)" d="M 0 0h 37.786666667v 6.83h -37.786666667v -6.83Z "/><g transform="translate(256.062992121 128.368661307)"><g><g transform="translate(0 0)"><g transform="matrix(1 0 0 -1 0 6.83)"><use xlink:href="#gA5379C297008FE083E855C8E8B850A03" x="0" y="0" fill="#0b7285" fill-rule="nonzero"/></g><g transform="matrix(1 0 0 -1 3.89 6.83)"><use xlink:href="#gE8ADFB55DBC888FEFF5896D44F418AFF" x="0" y="0" fill="#0b7285" fill-rule="nonzero"/></g><g transform="matrix(1 0 0 -1 11.67 6.83)"><use xlink:href="#g187F960CD8D343F130EAFAB63E4BE0DE" x="0" y="0" fill="#0b7285" fill-rule="nonzero"/></g><g transform="matrix(1 0 0 -1 16.67 6.83)"><use xlink:href="#g8E2B88F26393DF9E07782AED9E9A499B" x="0" y="0" fill="#0b7285" fill-rule="nonzero"/></g><g transform="matrix(1 0 0 -1 21.116666667 6.83)"><use xlink:href="#gE8ADFB55DBC888FEFF5896D44F418AFF" x="0" y="0" fill="#0b7285" fill-rule="nonzero"/></g><g transform="matrix(1 0 0 -1 28.896666667 6.83)"><use xlink:href="#g187F960CD8D343F130EAFAB63E4BE0DE" x="0" y="0" fill="#0b7285" fill-rule="nonzero"/></g><g transform="matrix(1 0 0 -1 33.896666667 6.83)"><use xlink:href="#g62817012A814A947D74F91B268BA3C0F" x="0" y="0" fill="#0b7285" fill-rule="nonzero"/></g></g></g></g><path fill="none" transform="translate(128.031496063 221.91515748)" d="M 0 0h 48v 12.29h -48v -12.29Z "/><g transform="translate(128.031495969 221.915157465)"><g><g transform="translate(0)"><g><path fill="#f5f5f5" fill-rule="nonzero" d="M 0 0m 0 1.7c 0 -0.938884075 0.761115925 -1.7 1.7 -1.7h 44.6c 0.938884075 0 1.7 0.761115925 1.7 1.7v 8.89c 0 0.938884075 -0.761115925 1.7 -1.7 1.7h -44.6c -0.938884075 0 -1.7 -0.761115925 -1.7 -1.7Z "/><path fill="none" stroke="#000000" stroke-width="0.6" stroke-linecap="butt" stroke-linejoin="miter" stroke-miterlimit="4" d="M 0 0m 1.7 0h 44.6c 0.938884075 0 1.7 0.761115925 1.7 1.7v 8.89c 0 0.938884075 -0.761115925 1.7 -1.7 1.7h -44.6c -0.938884075 0 -1.7 -0.761115925 -1.7 -1.7v -8.89c 0 -0.938884075 0.761115925 -1.7 1.7 -1.7"/><g transform="matrix(1 0 0 -1 4 9.79)"><use xlink:href="#g22C7E80E682D1367CF3FC14B600514C2" x="0" y="0" fill="#000000" fill-rule="nonzero"/><use xlink:href="#gBE0B41BBE774407C22C0DB5022D512EB" x="10" y="0" fill="#000000" fill-rule="nonzero"/><use xlink:href="#g845BC1CBD48645C795D7DAAD710EF699" x="20" y="0" fill="#000000" fill-rule="nonzero"/><use xlink:href="#gF7DE8E8B21CAE5F9139D21096B0A1AC8" x="30" y="0" fill="#000000" fill-rule="nonzero"/></g></g></g></g></g><path fill="none" transform="translate(256.062992126 192.552992126)" d="M 0 0h 37.786666667v 6.83h -37.786666667v -6.83Z "/><g transform="translate(256.062992121 192.552992016)"><g><g transform="translate(0 0)"><g transform="matrix(1 0 0 -1 0 6.83)"><use xlink:href="#gA5379C297008FE083E855C8E8B850A03" x="0" y="0" fill="#0b7285" fill-rule="nonzero"/></g><g transform="matrix(1 0 0 -1 3.89 6.83)"><use xlink:href="#gE8ADFB55DBC888FEFF5896D44F418AFF" x="0" y="0" fill="#0b7285" fill-rule="nonzero"/></g><g transform="matrix(1 0 0 -1 11.67 6.83)"><use xlink:href="#g187F960CD8D343F130EAFAB63E4BE0DE" x="0" y="0" fill="#0b7285" fill-rule="nonzero"/></g><g transform="matrix(1 0 0 -1 16.67 6.83)"><use xlink:href="#g8E2B88F26393DF9E07782AED9E9A499B" x="0" y="0" fill="#0b7285" fill-rule="nonzero"/></g><g transform="matrix(1 0 0 -1 21.116666667 6.83)"><use xlink:href="#gE8ADFB55DBC888FEFF5896D44F418AFF" x="0" y="0" fill="#0b7285" fill-rule="nonzero"/></g><g transform="matrix(1 0 0 -1 28.896666667 6.83)"><use xlink:href="#g187F960CD8D343F130EAFAB63E4BE0DE" x="0" y="0" fill="#0b7285" fill-rule="nonzero"/></g><g transform="matrix(1 0 0 -1 33.896666667 6.83)"><use xlink:href="#g62817012A814A947D74F91B268BA3C0F" x="0" y="0" fill="#0b7285" fill-rule="nonzero"/></g></g></g></g><path fill="none" transform="translate(259.952992126 256.737322835)" d="M 0 0h 30.006666667v 6.83h -30.006666667v -6.83Z "/><g transform="translate(259.952992105 256.737322724)"><g><g transform="translate(0 0)"><g transform="matrix(1 0 0 -1 0 6.83)"><use xlink:href="#gA5379C297008FE083E855C8E8B850A03" x="0" y="0" fill="#0b7285" fill-rule="nonzero"/></g><g transform="matrix(1 0 0 -1 3.89 6.83)"><use xlink:href="#gE8ADFB55DBC888FEFF5896D44F418AFF" x="0" y="0" fill="#0b7285" fill-rule="nonzero"/></g><g transform="matrix(1 0 0 -1 11.67 6.83)"><use xlink:href="#gDCB33243FA7B758E3BCD0C7DC09CD368" x="0" y="0" fill="#0b7285" fill-rule="nonzero"/></g><g transform="matrix(1 0 0 -1 16.67 6.83)"><use xlink:href="#g8E2B88F26393DF9E07782AED9E9A499B" x="0" y="0" fill="#0b7285" fill-rule="nonzero"/></g><g transform="matrix(1 0 0 -1 21.116666667 6.83)"><use xlink:href="#g187F960CD8D343F130EAFAB63E4BE0DE" x="0" y="0" fill="#0b7285" fill-rule="nonzero"/></g><g transform="matrix(1 0 0 -1 26.116666667 6.83)"><use xlink:href="#g62817012A814A947D74F91B268BA3C0F" x="0" y="0" fill="#0b7285" fill-rule="nonzero"/></g></g></g></g></g></g><defs><symbol id="g3BE36AF4A15F04D38BE05AFB59E0E589" overflow="visible"><path d="M 0 0m 4.99 4.42c -0.91 -1.06 -2.13 -1.93 -3.37 -2.53l 0.09 -0.17c 1.39 0.48 2.71 1.22 3.73 2.13c 0.21 -0.05 0.31 -0.03 0.37 0.06Z m 1.27 -1.06c -1.14 -1.2 -2.62 -2 -4.18 -2.55l 0.09 -0.19c 1.69 0.42 3.26 1.1 4.52 2.16c 0.22 -0.05 0.32 -0.04 0.39 0.06Z m 1.33 -1.06c -1.65 -1.77 -3.65 -2.42 -6 -2.86l 0.05 -0.2c 2.51 0.28 4.53 0.82 6.38 2.45c 0.23 -0.06 0.34 -0.04 0.41 0.06Z m -7.17 2.77l 0.09 -0.28h 2.65c -0.69 -0.91 -1.63 -1.78 -2.8 -2.39l 0.08 -0.13c 1.55 0.61 2.71 1.56 3.52 2.52h 2.15c 0.64 -1.06 1.85 -1.9 3.06 -2.39c 0.09 0.32 0.28 0.52 0.54 0.57l 0.01 0.11c -1.18 0.3 -2.57 0.92 -3.33 1.71h 2.95c 0.14 0 0.24 0.05 0.27 0.16c -0.34 0.29 -0.87 0.68 -0.87 0.68l -0.47 -0.56h -4.09c 0.18 0.23 0.34 0.46 0.48 0.69c 0.2 -0.02 0.34 0.03 0.39 0.16l -0.82 0.3c 1.28 0.12 2.31 0.24 3.13 0.35c 0.28 -0.26 0.51 -0.53 0.64 -0.78c 0.81 -0.36 0.93 1.37 -2.18 2.06l -0.1 -0.12c 0.44 -0.23 0.97 -0.57 1.41 -0.95l -3.98 -0.14c 0.46 0.4 0.9 0.85 1.19 1.21c 0.2 -0.03 0.33 0.04 0.39 0.15l -1.01 0.4c -0.23 -0.54 -0.61 -1.22 -0.98 -1.77c -0.76 -0.02 -1.38 -0.03 -1.81 -0.03l 0.44 -0.84c 0.09 0.02 0.19 0.09 0.25 0.21l 2.43 0.23c -0.18 -0.37 -0.41 -0.75 -0.68 -1.13Z "/></symbol><symbol id="gF2AFEEAFE234AF065802AD3E9C763527" overflow="visible"><path d="M 0 0m 4.43 7.53h -2.13l 0.06 -0.29h 2.29v -0.75c -0.33 -3.5 -2.01 -5.94 -4.24 -7.13l 0.11 -0.15c 2.27 1.05 3.84 2.88 4.49 5.43c 0.46 -2.56 2.2 -4.5 3.88 -5.43c 0.15 0.37 0.36 0.56 0.71 0.57l 0.04 0.12c -2.81 1.15 -4.35 3.49 -4.68 6.62l -0.01 0.48c 0.51 0.05 0.86 0.16 1.01 0.35l -1.11 0.82Z "/></symbol><symbol id="gA79A9AEAF8AB26E6838E6ED39EA1296" overflow="visible"><path d="M 0 0m 6.25 1.94c 0.36 0 0.58 0.28 0.68 0.74c 0.11 0.45 0.17 1.31 0.2 2.02l 0.52 0.07c 0.7 0.06 1.06 0 1.45 0c 0.28 0 0.43 0.05 0.43 0.25c 0 0.31 -0.36 0.46 -0.77 0.46c -0.22 0 -0.84 -0.11 -1.61 -0.26l 0.05 1.18c 0.01 0.35 0.2 0.41 0.2 0.58c 0 0.27 -0.59 0.65 -1.07 0.65c -0.2 0 -0.4 -0.08 -0.63 -0.16l 0.01 -0.2c 0.24 -0.02 0.44 -0.04 0.6 -0.08c 0.17 -0.04 0.25 -0.12 0.26 -0.28c 0.03 -0.4 0.03 -1.19 0.02 -1.8c -0.91 -0.19 -2.17 -0.49 -2.83 -0.65c 0.02 0.46 0.03 0.86 0.06 1.1c 0.03 0.39 0.19 0.43 0.19 0.61c 0 0.26 -0.64 0.59 -1.01 0.59c -0.26 0 -0.48 -0.07 -0.67 -0.13l 0.01 -0.21c 0.19 -0.02 0.43 -0.03 0.58 -0.09c 0.16 -0.06 0.22 -0.12 0.24 -0.41c 0.03 -0.29 0.03 -0.91 0.02 -1.6c -0.66 -0.17 -1.71 -0.44 -1.94 -0.44c -0.24 0 -0.49 0.29 -0.65 0.56l -0.15 -0.06c 0 -0.19 -0.01 -0.38 0.05 -0.5c 0.15 -0.37 0.53 -0.72 0.81 -0.72c 0.27 0 0.68 0.27 1.88 0.64c 0.01 -0.95 0 -1.93 0.03 -2.48c 0.05 -1.13 0.83 -1.44 2.27 -1.44c 1.04 0 1.92 0.07 2.32 0.16c 0.3 0.07 0.42 0.15 0.42 0.35c 0 0.24 -0.27 0.36 -0.6 0.36c -0.32 0 -1.07 -0.25 -2.3 -0.25c -1.35 0 -1.56 0.13 -1.6 1.2c -0.01 0.46 0.01 1.4 0.02 2.27c 0.71 0.19 1.86 0.46 2.84 0.64c -0.02 -0.56 -0.08 -1.29 -0.16 -1.6c -0.07 -0.21 -0.17 -0.25 -0.32 -0.25c -0.17 0 -0.66 0.13 -1.1 0.26l -0.07 -0.22c 0.4 -0.17 0.84 -0.34 0.99 -0.64c 0.11 -0.19 0.19 -0.22 0.33 -0.22Z "/></symbol><symbol id="g1E9EEBE40DCF03E1D1AD3A54DDF62F3D" overflow="visible"><path d="M 0 0m 8.12 6.5c 0.15 0 0.26 0.09 0.26 0.26c 0 0.19 -0.1 0.38 -0.35 0.61c -0.24 0.22 -0.58 0.42 -1.02 0.61l -0.14 -0.17c 0.39 -0.31 0.6 -0.57 0.8 -0.83c 0.19 -0.25 0.3 -0.48 0.45 -0.48Z m -3.14 -4.49c -0.46 0 -0.81 0.38 -0.81 0.96c 0 0.51 0.32 0.95 0.82 0.95c 0.43 0 0.75 -0.33 0.75 -0.98c 0 -0.69 -0.26 -0.93 -0.76 -0.93Z m 4.27 4.96c 0.14 0 0.25 0.1 0.25 0.26c 0 0.19 -0.1 0.38 -0.34 0.6c -0.25 0.23 -0.57 0.37 -1.05 0.56l -0.12 -0.18c 0.4 -0.29 0.59 -0.52 0.8 -0.78c 0.2 -0.24 0.31 -0.46 0.46 -0.46Z m -7.38 -2.27c 0.26 0 0.46 0.16 0.91 0.27c 0.61 0.15 1.67 0.38 2.65 0.49l 0.05 -1.19c -0.12 0.04 -0.26 0.06 -0.41 0.06c -0.82 0 -1.31 -0.68 -1.31 -1.41c 0 -1.02 0.8 -1.8 1.78 -1.34c -0.36 -0.99 -1.36 -1.69 -2.58 -2.14l 0.13 -0.25c 1.93 0.48 3.31 1.6 3.31 3.43c 0 0.58 -0.13 1.06 -0.42 1.36l -0.01 1.53c 2.01 0.17 2.77 -0.07 3.09 -0.07c 0.19 0 0.28 0.07 0.28 0.26c 0 0.32 -0.52 0.51 -0.87 0.51c -0.21 0 -0.85 -0.09 -2.5 -0.27l 0.02 0.57c 0.02 0.25 0.17 0.41 0.17 0.64c 0 0.24 -0.62 0.47 -1.03 0.47c -0.26 0 -0.5 -0.12 -0.68 -0.21l 0.02 -0.21c 0.29 -0.01 0.51 -0.02 0.66 -0.07c 0.16 -0.04 0.21 -0.1 0.23 -0.3l 0.05 -0.95c -1.18 -0.13 -3.24 -0.44 -3.61 -0.43c -0.34 0 -0.53 0.32 -0.75 0.65l -0.19 -0.08c 0.01 -0.19 0.03 -0.42 0.1 -0.59c 0.11 -0.28 0.58 -0.73 0.91 -0.73Z "/></symbol><symbol id="g92F7D5D0B2EF9651B939B3B4DE8113DA" overflow="visible"><path d="M 0 0m 3.32 6.43l 1.18 -3.62h -2.34Z m 0.86 -6.43h 2.93v 0.3l -0.92 0.08l -2.35 6.96h -0.56l -2.31 -6.94l -0.85 -0.1v -0.3h 2.24v 0.3l -0.97 0.1l 0.67 2.09h 2.55l 0.68 -2.1l -1.11 -0.09Z "/></symbol><symbol id="gF6BF8A950463E6011524CE603F4B27BF" overflow="visible"><path d="M 0 0m 0.53 6.98l 1.03 -0.08c 0.01 -0.99 0.01 -1.98 0.01 -2.97v -0.53c 0 -1.02 0 -2.02 -0.01 -3.01l -1.03 -0.09v -0.3h 2.9c 2.05 0 2.83 0.94 2.83 1.98c 0 0.96 -0.65 1.69 -2.21 1.85c 1.3 0.25 1.82 0.94 1.82 1.72c 0 1.03 -0.75 1.73 -2.39 1.73h -2.95Z m 1.92 -3.34h 0.72c 1.52 0 2.19 -0.58 2.19 -1.67c 0 -1.06 -0.74 -1.64 -2 -1.64h -0.89c -0.02 1.01 -0.02 2.05 -0.02 3.31Z m 0.02 3.31h 0.76c 1.29 0 1.78 -0.52 1.78 -1.41c 0 -1.01 -0.65 -1.59 -1.94 -1.59h -0.62c 0 1.04 0 2.03 0.02 3Z "/></symbol><symbol id="g2BD26498917176DA16A9B77CD4BBF537" overflow="visible"><path d="M 0 0m 4.83 -0.39c 1.77 0 3.27 1.09 4.01 2.66l -0.22 0.15c -0.67 -1.06 -2.07 -2.14 -3.79 -2.14c -1.1 0 -1.47 0.48 -1.47 1.75c 0 1.36 0.17 2.98 0.33 3.92c 0.09 0.47 0.28 0.54 0.28 0.75c 0 0.28 -0.69 0.79 -1.16 0.81c -0.18 0.01 -0.39 -0.02 -0.65 -0.07v -0.21c 0.26 -0.04 0.49 -0.12 0.65 -0.21c 0.17 -0.1 0.23 -0.21 0.23 -0.57c 0 -0.58 -0.24 -2.93 -0.24 -4.48c 0 -1.71 0.69 -2.36 2.03 -2.36Z "/></symbol><symbol id="gF2EAE3ADD54D35FBF9DD19F14DC971E7" overflow="visible"><path d="M 0 0m 7.27 -0.02c 0.45 0 0.72 0.09 0.72 0.33c 0 0.25 -0.33 0.42 -0.57 0.42c -0.41 0 -1.29 -0.06 -1.94 0.33c -0.4 0.25 -0.85 0.7 -0.85 1.79c 0 2 1 2.93 1.45 3.2c 0.5 0.31 1.2 0.37 1.68 0.37c 0.37 0 0.67 -0.03 0.86 -0.03c 0.22 0 0.34 0.12 0.34 0.26c 0 0.14 -0.08 0.25 -0.3 0.35c -0.16 0.07 -0.45 0.11 -0.71 0.11c -0.34 0 -1.12 -0.14 -2.27 -0.41c -1.65 -0.38 -3.58 -0.96 -4.1 -0.96c -0.22 0 -0.49 0.24 -0.63 0.5l -0.19 -0.06c 0.01 -0.15 0 -0.3 0.04 -0.46c 0.09 -0.34 0.59 -0.78 0.96 -0.78c 0.21 0 0.41 0.16 0.61 0.25c 0.6 0.28 2.02 0.75 3.14 1.02c 0.11 0.03 0.12 -0.03 0.05 -0.09c -1.13 -0.89 -1.5 -2.21 -1.5 -3.39c 0 -1.13 0.33 -1.73 0.96 -2.19c 0.68 -0.52 1.67 -0.56 2.25 -0.56Z "/></symbol><symbol id="gD2097A8F4CF99C887A699263749C41D0" overflow="visible"><path d="M 0 0m 1.39 6.7l -0.13 -0.06c 0.23 -0.42 0.48 -1.08 0.48 -1.6c 0.54 -0.54 1.2 0.66 -0.35 1.66Z m 1.05 1.67v -1.31h -1.87l 0.08 -0.29h 4.21c 0.14 0 0.22 0.05 0.25 0.16c -0.3 0.29 -0.81 0.69 -0.81 0.69l -0.42 -0.56h -0.79v 0.95c 0.22 0.04 0.31 0.14 0.33 0.27Z m -0.01 -3.99v -1.11h -1.94l 0.08 -0.29h 1.59c -0.37 -1.05 -0.99 -2.07 -1.79 -2.86l 0.12 -0.14c 0.79 0.56 1.45 1.26 1.94 2.06v -2.82h 0.13c 0.23 0 0.51 0.14 0.51 0.22v 2.94c 0.44 -0.35 0.96 -0.93 1.09 -1.41c 0.68 -0.43 1.12 0.99 -1.09 1.54v 0.47h 1.89c 0.13 0 0.23 0.05 0.26 0.15c -0.29 0.29 -0.78 0.68 -0.78 0.68l -0.43 -0.54h -0.94v 0.76c 0.22 0.03 0.3 0.12 0.32 0.25Z m 1.16 2.33c -0.11 -0.57 -0.32 -1.34 -0.53 -1.89h -2.68l 0.08 -0.3h 4.65c 0.14 0 0.24 0.05 0.27 0.16c -0.32 0.3 -0.83 0.7 -0.83 0.7l -0.44 -0.56h -0.81c 0.36 0.45 0.68 1 0.9 1.41c 0.21 -0.01 0.32 0.08 0.36 0.18Z m 5.06 1.66c -0.5 -0.32 -1.44 -0.75 -2.29 -1.04l -0.76 0.26v -3.28c 0 -1.89 -0.25 -3.6 -1.76 -4.95l 0.14 -0.13c 2.03 1.3 2.27 3.27 2.27 5.08v 0.31h 1.47v -5.4h 0.11c 0.33 0 0.55 0.16 0.55 0.21v 5.19h 1.09c 0.14 0 0.22 0.05 0.25 0.16c -0.33 0.3 -0.86 0.74 -0.86 0.74l -0.48 -0.61h -2.13v 2.16c 0.97 0.14 2.04 0.41 2.71 0.64c 0.23 -0.08 0.4 -0.08 0.49 0.02Z "/></symbol><symbol id="gFDF82B941D7DC70B0C14B3FEF99E4FA0" overflow="visible"><path d="M 0 0m 2.04 8.34v -1.92h -1.42l 0.08 -0.29h 1.34v -1.78v -0.17h -1.61l 0.08 -0.3h 1.52c -0.05 -1.77 -0.41 -3.35 -1.65 -4.53l 0.15 -0.13c 1.18 0.83 1.74 1.97 1.99 3.25c 0.51 -0.46 1.05 -1.14 1.17 -1.71c 0.7 -0.49 1.17 1.03 -1.13 1.94c 0.06 0.38 0.09 0.78 0.11 1.18h 1.61c 0.13 0 0.22 0.05 0.25 0.16c -0.3 0.31 -0.81 0.73 -0.81 0.73l -0.43 -0.59h -0.61v 0.17v 1.78h 1.4c 0.14 0 0.24 0.05 0.26 0.16c -0.29 0.29 -0.79 0.7 -0.79 0.7l -0.42 -0.57h -0.45v 1.54c 0.25 0.04 0.33 0.14 0.35 0.28Z m 3.38 -2.56h 2.87v -1.33h -2.87Z m 0 0.29v 1.31h 2.87v -1.31Z m 0 -1.91h 2.87v -1.35h -2.87Z m -0.62 3.51v -5.72h 0.1c 0.32 0 0.52 0.16 0.52 0.21v 0.35h 0.35c -0.15 -1.54 -0.68 -2.43 -2.31 -3.14l 0.06 -0.15c 1.93 0.55 2.72 1.48 2.92 3.29h 0.7v -2.56c 0 -0.43 0.1 -0.59 0.68 -0.59h 0.6c 0.99 0 1.23 0.14 1.23 0.41c 0 0.12 -0.02 0.2 -0.21 0.27l -0.03 1.27h -0.14c -0.09 -0.53 -0.19 -1.09 -0.25 -1.23c -0.04 -0.09 -0.07 -0.11 -0.13 -0.12c -0.08 0 -0.24 0 -0.45 0h -0.47c -0.2 0 -0.22 0.02 -0.22 0.14v 2.41h 0.54v -0.36h 0.1c 0.3 0 0.55 0.16 0.55 0.21v 4.96c 0.21 0.03 0.33 0.1 0.4 0.17l -0.76 0.59l -0.33 -0.41h -2.71l -0.74 0.31Z "/></symbol><symbol id="g845BC1CBD48645C795D7DAAD710EF699" overflow="visible"><path d="M 0 0m 5.2 7.83c 0.74 -1.46 2.29 -2.89 3.9 -3.78c 0.07 0.25 0.31 0.48 0.61 0.54l 0.02 0.15c -1.74 0.78 -3.42 1.94 -4.34 3.22c 0.25 0.01 0.37 0.07 0.4 0.18l -1.19 0.31c -0.56 -1.45 -2.66 -3.6 -4.29 -4.62l 0.07 -0.15c 1.84 0.94 3.86 2.69 4.82 4.15Z m -3.02 -3.86v -4.09h -1.67l 0.09 -0.29h 8.62c 0.14 0 0.24 0.05 0.27 0.15c -0.36 0.34 -0.95 0.79 -0.95 0.79l -0.52 -0.65h -2.68v 3.03h 2.84c 0.13 0 0.23 0.05 0.26 0.16c -0.35 0.33 -0.92 0.76 -0.92 0.77l -0.5 -0.64h -1.68v 2.22c 0.25 0.04 0.34 0.14 0.37 0.27l -1.04 0.12v -5.93h -1.84v 3.71c 0.24 0.04 0.34 0.13 0.36 0.27Z "/></symbol><symbol id="gF7DE8E8B21CAE5F9139D21096B0A1AC8" overflow="visible"><path d="M 0 0m 1.81 8.15l -0.11 -0.08c 0.39 -0.35 0.82 -0.95 0.91 -1.43c 0.61 -0.45 1.12 0.85 -0.8 1.51Z m 3.72 0.21v -1.87h -1.03v 1.53c 0.21 0.03 0.3 0.12 0.31 0.25l -0.92 0.09v -1.87h -3.39l 0.09 -0.29h 2.31c 0.31 -0.34 0.65 -0.88 0.69 -1.31h -2.46l 0.08 -0.3h 3.43v -0.93h -3.01l 0.07 -0.29h 2.94v -0.98h -3.99l 0.09 -0.29h 3.25c -0.86 -0.96 -2.18 -1.89 -3.59 -2.52l 0.1 -0.16c 1.63 0.55 3.12 1.39 4.14 2.43v -2.63h 0.11c 0.33 0 0.54 0.15 0.55 0.2v 2.68h 0.07c 0.85 -1.21 2.29 -2.19 3.69 -2.71c 0.08 0.3 0.3 0.48 0.56 0.52l 0.01 0.11c -1.37 0.35 -3.03 1.14 -3.97 2.08h 3.49c 0.14 0 0.23 0.05 0.26 0.16c -0.33 0.3 -0.85 0.7 -0.85 0.7l -0.46 -0.57h -2.8v 0.98h 2.86c 0.14 0 0.24 0.05 0.26 0.16c -0.3 0.28 -0.78 0.65 -0.78 0.65l -0.42 -0.52h -1.92v 0.93h 3.44c 0.13 0 0.23 0.05 0.25 0.16c -0.32 0.29 -0.82 0.68 -0.82 0.68l -0.45 -0.54h -1.69c 0.36 0.3 0.72 0.67 0.96 0.97c 0.21 -0.02 0.34 0.05 0.38 0.17l -0.53 0.17h 2.42c 0.14 0 0.23 0.05 0.26 0.15c -0.33 0.3 -0.84 0.69 -0.84 0.69l -0.46 -0.55h -1.42c 0.47 0.36 0.96 0.81 1.27 1.18c 0.22 -0.03 0.34 0.04 0.4 0.15l -0.92 0.35c -0.25 -0.52 -0.67 -1.2 -1.04 -1.68h -0.36v 1.52c 0.22 0.04 0.29 0.13 0.31 0.26Z m -2.29 -2.16h 3.17c -0.19 -0.41 -0.46 -0.92 -0.71 -1.31h -1.64c 0.22 0.23 0.14 0.86 -0.82 1.31Z "/></symbol><symbol id="gA5379C297008FE083E855C8E8B850A03" overflow="visible"><path d="M 0 0m 3.18 -2.48c 0.09 0 0.14 0.05 0.14 0.14c 0 0.03 -0.02 0.07 -0.05 0.11c -0.52 0.4 -0.94 1.06 -1.25 1.97c -0.27 0.79 -0.41 1.57 -0.41 2.34v 0.84c 0 0.77 0.14 1.55 0.41 2.34c 0.31 0.91 0.73 1.57 1.25 1.97c 0.03 0.03 0.05 0.07 0.05 0.11c 0 0.09 -0.05 0.14 -0.14 0.14c -0.01 0 -0.04 -0.01 -0.07 -0.03c -0.6 -0.46 -1.1 -1.14 -1.51 -2.05c -0.39 -0.87 -0.59 -1.69 -0.59 -2.48v -0.84c 0 -0.79 0.2 -1.61 0.59 -2.48c 0.41 -0.91 0.91 -1.59 1.51 -2.05c 0.03 -0.02 0.06 -0.03 0.07 -0.03Z "/></symbol><symbol id="gAA84A9423BA34B701FF3D1FC1A0341B9" overflow="visible"><path d="M 0 0m 2.49 -0.22c 1.41 0 2.11 1.14 2.11 3.42c 0 1.53 -0.32 2.55 -0.95 3.05c -0.35 0.27 -0.74 0.41 -1.15 0.41c -1.41 0 -2.11 -1.15 -2.11 -3.46c 0 -1.84 0.49 -3.42 2.1 -3.42Z m 1.12 5.46c 0.07 -0.35 0.1 -0.99 0.1 -1.92c 0 -0.92 -0.04 -1.6 -0.11 -2.04c -0.13 -0.8 -0.5 -1.2 -1.11 -1.2c -0.23 0 -0.46 0.09 -0.67 0.26c -0.27 0.23 -0.43 0.7 -0.5 1.42c -0.03 0.25 -0.04 0.77 -0.04 1.56c 0 0.87 0.03 1.48 0.08 1.81c 0.09 0.55 0.27 0.9 0.55 1.05c 0.22 0.12 0.41 0.18 0.58 0.18c 0.65 0 1.01 -0.53 1.12 -1.12Z "/></symbol><symbol id="g8E2B88F26393DF9E07782AED9E9A499B" overflow="visible"><path d="M 0 0m 1.39 1.06c -0.32 0 -0.53 -0.24 -0.53 -0.56c 0 -0.3 0.23 -0.55 0.53 -0.55c 0.14 0 0.26 0.04 0.35 0.13l 0.01 -0.08c 0 -0.63 -0.21 -1.17 -0.63 -1.6c -0.07 -0.08 -0.11 -0.14 -0.11 -0.18c 0 -0.1 0.04 -0.15 0.13 -0.15c 0.09 0 0.21 0.12 0.38 0.35c 0.34 0.48 0.51 1.01 0.51 1.58c 0 0.53 -0.18 1.06 -0.64 1.06Z "/></symbol><symbol id="g2944E08BBD755E2996904E6E0A970414" overflow="visible"><path d="M 0 0m 3.03 3.53c 0.66 0.25 1.28 0.88 1.28 1.73c 0 0.43 -0.21 0.78 -0.62 1.05c -0.36 0.23 -0.77 0.35 -1.23 0.35c -0.45 0 -0.84 -0.12 -1.19 -0.35c -0.39 -0.26 -0.59 -0.6 -0.59 -1.03c 0 -0.33 0.22 -0.56 0.54 -0.56c 0.32 0 0.54 0.23 0.54 0.55c 0 0.33 -0.19 0.51 -0.57 0.53c 0.26 0.35 0.67 0.53 1.23 0.53c 0.6 0 0.9 -0.35 0.9 -1.06c 0 -0.42 -0.08 -0.77 -0.23 -1.06c -0.27 -0.48 -0.64 -0.57 -1.26 -0.57c -0.12 -0.02 -0.18 -0.07 -0.18 -0.16c 0 -0.15 0.07 -0.15 0.27 -0.15h 0.43c 0.75 0 1.13 -0.53 1.13 -1.6c 0 -0.85 -0.31 -1.59 -1.07 -1.59c -0.65 0 -1.13 0.22 -1.42 0.66c 0.35 -0.01 0.61 0.25 0.61 0.59c 0 0.34 -0.25 0.59 -0.59 0.59c -0.39 0 -0.59 -0.2 -0.59 -0.61c 0 -0.49 0.22 -0.88 0.66 -1.19c 0.39 -0.27 0.85 -0.4 1.36 -0.4c 0.57 0 1.06 0.19 1.49 0.56c 0.43 0.37 0.64 0.83 0.64 1.39c 0 0.94 -0.74 1.59 -1.54 1.8Z "/></symbol><symbol id="g62817012A814A947D74F91B268BA3C0F" overflow="visible"><path d="M 0 0m 0.78 -2.45c 0.6 0.46 1.1 1.14 1.51 2.05c 0.39 0.87 0.59 1.69 0.59 2.48v 0.84c 0 0.79 -0.2 1.61 -0.59 2.48c -0.41 0.91 -0.91 1.59 -1.51 2.05c -0.03 0.02 -0.06 0.03 -0.07 0.03c -0.09 0 -0.14 -0.05 -0.14 -0.14c 0 -0.04 0.02 -0.08 0.05 -0.11c 0.52 -0.4 0.94 -1.06 1.25 -1.97c 0.27 -0.79 0.41 -1.57 0.41 -2.34v -0.84c 0 -0.77 -0.14 -1.55 -0.41 -2.34c -0.31 -0.91 -0.73 -1.57 -1.25 -1.97c -0.03 -0.04 -0.05 -0.08 -0.05 -0.11c 0 -0.09 0.05 -0.14 0.14 -0.14c 0.01 0 0.04 0.01 0.07 0.03Z "/></symbol><symbol id="g22C7E80E682D1367CF3FC14B600514C2" overflow="visible"><path d="M 0 0m 0.4 0.8l 0.45 -0.83c 0.09 0.04 0.16 0.14 0.19 0.27c 1.08 0.61 1.95 1.14 2.59 1.54c 0.16 -0.31 0.28 -0.63 0.33 -0.91c 0.73 -0.58 1.28 1.11 -1.19 2.35l -0.12 -0.07c 0.3 -0.32 0.62 -0.75 0.88 -1.19c -0.64 -0.25 -1.26 -0.49 -1.8 -0.69v 2.7h 1.91v -0.6h 0.1c 0.21 0 0.52 0.14 0.54 0.18v 3.77c 0.19 0.04 0.36 0.12 0.43 0.2l -0.81 0.61l -0.35 -0.4h -1.71l -0.75 0.33v -7.03Z m 1.33 6.64h 1.91v -1.44h -1.91Z m 0 -1.74h 1.91v -1.43h -1.91Z m 2.65 -1.39l 0.08 -0.29h 2.47c -0.56 -1.83 -1.69 -3.41 -4.06 -4.65l 0.1 -0.15c 1.97 0.77 3.18 1.81 3.93 3.05v -2.21c 0 -0.44 0.11 -0.61 0.75 -0.61h 0.7c 1.1 0 1.37 0.13 1.37 0.41c 0 0.12 -0.03 0.2 -0.22 0.28l -0.03 1.56h -0.14c -0.1 -0.63 -0.22 -1.33 -0.29 -1.51c -0.03 -0.1 -0.06 -0.12 -0.15 -0.13c -0.07 -0.01 -0.27 -0.01 -0.54 -0.01h -0.55c -0.23 0 -0.26 0.03 -0.26 0.17v 2.89c 0.18 0.03 0.27 0.13 0.28 0.25l -0.37 0.04c 0.08 0.21 0.14 0.41 0.21 0.62h 1.81c 0.14 0 0.22 0.05 0.25 0.16c -0.3 0.29 -0.79 0.71 -0.79 0.71l -0.44 -0.58h -0.75c 0.25 0.97 0.37 2.01 0.46 3.13h 1.05c 0.15 0 0.25 0.05 0.27 0.16c -0.31 0.29 -0.83 0.71 -0.83 0.71l -0.45 -0.58h -3.57l 0.08 -0.29h 0.74v -3.13Z m 1.73 3.13h 1.36c -0.07 -1.1 -0.19 -2.15 -0.45 -3.13h -0.91Z "/></symbol><symbol id="gBE0B41BBE774407C22C0DB5022D512EB" overflow="visible"><path d="M 0 0m 1.99 5.05v -0.66c -0.46 -0.66 -1 -1.26 -1.61 -1.76l 0.11 -0.12c 0.56 0.36 1.06 0.77 1.5 1.23v -4.51h 0.09c 0.36 0 0.55 0.18 0.55 0.24v 5l 0.18 0.23c 0.13 0.04 0.2 0.1 0.21 0.18l -0.08 0.01c 0.37 0.52 0.69 1.06 0.95 1.59h 5.34c 0.15 0 0.25 0.05 0.28 0.16c -0.37 0.32 -0.94 0.76 -0.94 0.76l -0.5 -0.63h -4.04c 0.18 0.39 0.33 0.77 0.46 1.13c 0.26 -0.02 0.35 0.04 0.4 0.16l -1.05 0.33c -0.13 -0.52 -0.32 -1.07 -0.54 -1.62h -2.8l 0.09 -0.29h 2.58c -0.22 -0.5 -0.48 -1.01 -0.78 -1.5Z m 4.14 -1.13v -1.07h -2.92l 0.08 -0.3h 2.84v -2.33c 0 -0.15 -0.05 -0.21 -0.24 -0.21c -0.21 0 -1.29 0.08 -1.29 0.08v -0.15c 0.46 -0.06 0.73 -0.13 0.89 -0.24c 0.13 -0.11 0.19 -0.28 0.22 -0.48c 0.96 0.09 1.08 0.42 1.08 0.95v 2.38h 2.62c 0.14 0 0.24 0.05 0.26 0.16c -0.33 0.31 -0.88 0.74 -0.88 0.74l -0.48 -0.6h -1.52v 0.71c 0.22 0.04 0.31 0.11 0.34 0.25l -0.29 0.03c 0.6 0.3 1.3 0.71 1.7 1.05c 0.22 0.01 0.34 0.03 0.42 0.09l -0.74 0.72l -0.43 -0.42h -3.85l 0.09 -0.29h 3.64c -0.33 -0.36 -0.79 -0.79 -1.17 -1.11Z "/></symbol><symbol id="g187F960CD8D343F130EAFAB63E4BE0DE" overflow="visible"><path d="M 0 0m 2.37 6.66c -0.51 0 -0.94 -0.18 -1.31 -0.54c -0.37 -0.36 -0.56 -0.78 -0.56 -1.29c 0 -0.34 0.25 -0.59 0.56 -0.59c 0.3 0 0.55 0.26 0.55 0.56c 0 0.33 -0.24 0.56 -0.56 0.56c -0.03 0 -0.05 0 -0.07 -0.01c 0.19 0.49 0.63 0.92 1.26 0.92c 0.82 0 1.28 -0.71 1.28 -1.57c 0 -0.67 -0.34 -1.39 -1.02 -2.15l -1.88 -2.12c -0.13 -0.15 -0.12 -0.14 -0.12 -0.43h 3.71l 0.29 1.8h -0.33c -0.08 -0.51 -0.15 -0.8 -0.21 -0.89c -0.05 -0.05 -0.35 -0.07 -0.9 -0.07h -1.67l 0.97 0.95c 0.68 0.64 1.54 1.33 1.83 1.86c 0.2 0.35 0.3 0.7 0.3 1.05c 0 1.18 -0.92 1.96 -2.12 1.96Z "/></symbol><symbol id="gDCB33243FA7B758E3BCD0C7DC09CD368" overflow="visible"><path d="M 0 0m 2.69 6.66c -0.41 -0.42 -1.01 -0.63 -1.8 -0.63v -0.39c 0.52 0 0.95 0.08 1.28 0.24v -5.06c 0 -0.18 -0.04 -0.3 -0.13 -0.35c -0.09 -0.05 -0.34 -0.08 -0.74 -0.08h -0.35v -0.39c 0.25 0.02 0.79 0.03 1.62 0.03c 0.83 0 1.37 -0.01 1.62 -0.03v 0.39h -0.35c -0.41 0 -0.66 0.03 -0.74 0.08c -0.08 0.05 -0.13 0.17 -0.13 0.35v 5.54c 0 0.24 -0.02 0.3 -0.28 0.3Z "/></symbol><symbol id="gE8ADFB55DBC888FEFF5896D44F418AFF" overflow="visible"><path d="M 0 0m 6.98 2.7h -6.18c -0.16 0 -0.24 -0.07 -0.24 -0.2c 0 -0.13 0.08 -0.2 0.24 -0.2h 6.18c 0.16 0 0.24 0.07 0.24 0.2c 0 0.12 -0.12 0.2 -0.24 0.2Z "/></symbol></defs></svg>