<svg class="typst-doc" viewBox="0 0 326.4278215224098 277.99107283464565" width="326.4278215224098pt" height="277.99107283464565pt" xmlns="http://www.w3.org/2000/svg" xmlns:xlink="http://www.w3.org/1999/xlink" xmlns:h5="http://www.w3.org/1999/xhtml">
    <g>
        <g class="typst-group" transform="matrix(1 0 0 1 6 6)">
            <g>
                <g class="typst-group">
                    <g>
                        <path class="typst-shape" fill="none" stroke="#000000" stroke-width="0.7" stroke-linecap="round" stroke-linejoin="miter" stroke-miterlimit="4" transform="matrix(1 0 0 1 116.52187892645743 10.619095912245113)" d="M 0 0m 0 34.062458 l 67.10902 -34.062458 "/>
                        <path class="typst-shape" fill="none" stroke="#000000" stroke-width="0.7" stroke-linecap="round" stroke-linejoin="miter" stroke-miterlimit="4" transform="matrix(1 0 0 1 182.57152298415554 10.61909588976377)" d="M 0 0m 1.0593705 0 c -0.9646878 1.2176108 -1.2948593 2.8205326 -0.8898928 4.3202662 "/>
                        <path class="typst-shape" fill="none" stroke="#000000" stroke-width="0.7" stroke-linecap="round" stroke-linejoin="miter" stroke-miterlimit="4" transform="matrix(1 0 0 1 179.6183342500919 8.78716301931327)" d="M 0 0m 4.0125594 1.8319329 c -1.5522912 0.059929967 -3.0410464 -0.6197609 -4.0125594 -1.8319329 "/>
                        <path class="typst-shape" fill="none" transform="matrix(1 0 0 1 141.98722566727793 14.497696117018224)" d="M 0 0h 7.34 v 11.29 h -7.34 v -11.29 Z "/>
                        <g class="typst-group">
                            <g>
                                <g class="typst-group" transform="matrix(1 0 0 1 141.98722565152988 14.497695991033984)">
                                    <g>
                                        <g class="typst-group">
                                            <g>
                                                <g class="typst-group">
                                                    <g>
                                                        <g class="typst-text" transform="matrix(1 0 0 -1 2 9.29)">
                                                            <use xlink:href="#g71597C7A75CBE9007E0C90FFA6E4BB3E" x="0" y="0" fill="#000000" fill-rule="nonzero"/>
                                                        </g>
                                                    </g>
                                                </g>
                                            </g>
                                        </g>
                                    </g>
                                </g>
                            </g>
                        </g>
                        <path class="typst-shape" fill="none" stroke="#1971c2" stroke-width="1.7" stroke-linecap="round" stroke-linejoin="miter" stroke-miterlimit="4" transform="matrix(1 0 0 1 216.05887813535145 72.42051473084992)" d="M 0 0m 0 23.06443 l 69.33573 -23.06443 "/>
                        <path class="typst-shape" fill="none" stroke="#1971c2" stroke-width="1.7" stroke-linecap="round" stroke-linejoin="miter" stroke-miterlimit="4" transform="matrix(1 0 0 1 281.6254093406323 72.42051472440941)" d="M 0 0m 3.7691994 0 c -2.7546692 2.5777407 -4.1238375 6.3090014 -3.690243 10.056661 "/>
                        <path class="typst-shape" fill="none" stroke="#1971c2" stroke-width="1.7" stroke-linecap="round" stroke-linejoin="miter" stroke-miterlimit="4" transform="matrix(1 0 0 1 276.41561356130876 66.57825844254083)" d="M 0 0m 8.978995 5.842256 c -3.7498727 -0.41401386 -7.081294 -2.5816305 -8.978995 -5.842256 "/>
                        <path class="typst-shape" fill="none" transform="matrix(1 0 0 1 245.71373072264828 70.48082526801332)" d="M 0 0h 9.57 v 11.44 h -9.57 v -11.44 Z "/>
                        <g class="typst-group">
                            <g>
                                <g class="typst-group" transform="matrix(1 0 0 1 245.71373062816008 70.48082523651725)">
                                    <g>
                                        <g class="typst-group">
                                            <g>
                                                <g class="typst-group">
                                                    <g>
                                                        <g class="typst-text" transform="matrix(1 0 0 -1 2 9.29)">
                                                            <use xlink:href="#gD2182C3E3A5E01A694AB1016565E7653" x="0" y="0" fill="#000000" fill-rule="nonzero"/>
                                                        </g>
                                                    </g>
                                                </g>
                                            </g>
                                        </g>
                                    </g>
                                </g>
                            </g>
                        </g>
                        <path class="typst-shape" fill="none" stroke="#000000" stroke-width="0.7" stroke-linecap="round" stroke-linejoin="miter" stroke-miterlimit="4" transform="matrix(1 0 0 1 216.0588781622686 105.10992265335429)" d="M 0 0l 69.81017 23.222252 "/>
                        <path class="typst-shape" fill="none" stroke="#000000" stroke-width="0.7" stroke-linecap="round" stroke-linejoin="miter" stroke-miterlimit="4" transform="matrix(1 0 0 1 282.171813757437 128.33217368503932)" d="M 0 0m 3.697234 0 c -1.5440652 0.17047633 -2.9158273 1.0630243 -3.697234 2.4056349 "/>
                        <path class="typst-shape" fill="none" stroke="#000000" stroke-width="0.7" stroke-linecap="round" stroke-linejoin="miter" stroke-miterlimit="4" transform="matrix(1 0 0 1 284.31702440017756 124.19119537341581)" d="M 0 0m 1.5520232 4.1409783 c -1.1342757 -1.0614228 -1.6980507 -2.5978246 -1.5195117 -4.1409783 "/>
                        <path class="typst-shape" fill="none" transform="matrix(1 0 0 1 246.57130234489324 103.43852965291839)" d="M 0 0h 10.38 v 11.44 h -10.38 v -11.44 Z "/>
                        <g class="typst-group">
                            <g>
                                <g class="typst-group" transform="matrix(1 0 0 1 246.57130225040504 103.43852962142233)">
                                    <g>
                                        <g class="typst-group">
                                            <g>
                                                <g class="typst-group">
                                                    <g>
                                                        <g class="typst-text" transform="matrix(1 0 0 -1 2 9.29)">
                                                            <use xlink:href="#g663227FFD8CF74EB3D38EC60B085AD22" x="0" y="0" fill="#000000" fill-rule="nonzero"/>
                                                        </g>
                                                    </g>
                                                </g>
                                            </g>
                                        </g>
                                    </g>
                                </g>
                            </g>
                        </g>
                        <path class="typst-shape" fill="none" stroke="#1971c2" stroke-width="1.7" stroke-linecap="round" stroke-linejoin="miter" stroke-miterlimit="4" transform="matrix(1 0 0 1 116.55946743538506 58.33608745667803)" d="M 0 0l 69.5584 34.750046 "/>
                        <path class="typst-shape" fill="none" stroke="#1971c2" stroke-width="1.7" stroke-linecap="round" stroke-linejoin="miter" stroke-miterlimit="4" transform="matrix(1 0 0 1 176.40162898043872 93.0799430067177)" d="M 0 0m 9.716239 0.0061891666 c -3.770701 -0.121518426 -7.375657 1.5521653 -9.716239 4.5109863 "/>
                        <path class="typst-shape" fill="none" stroke="#1971c2" stroke-width="1.7" stroke-linecap="round" stroke-linejoin="miter" stroke-miterlimit="4" transform="matrix(1 0 0 1 183.4978266109389 82.60804152243199)" d="M 0 0m 2.620041 10.47809 c -2.361609 -2.9420652 -3.188244 -6.829687 -2.2279832 -10.47809 "/>
                        <path class="typst-shape" fill="none" transform="matrix(1 0 0 1 152.61269004400359 62.82189383066479)" d="M 0 0h 8.62 v 11.29 h -8.62 v -11.29 Z "/>
                        <g class="typst-group">
                            <g>
                                <g class="typst-group" transform="matrix(1 0 0 1 152.61268996526343 62.821893704680555)">
                                    <g>
                                        <g class="typst-group">
                                            <g>
                                                <g class="typst-group">
                                                    <g>
                                                        <g class="typst-text" transform="matrix(1 0 0 -1 2 9.29)">
                                                            <use xlink:href="#g12E01287B0D4E0DDD87E41A9431F6327" x="0" y="0" fill="#000000" fill-rule="nonzero"/>
                                                        </g>
                                                    </g>
                                                </g>
                                            </g>
                                        </g>
                                    </g>
                                </g>
                            </g>
                        </g>
                        <path class="typst-shape" fill="none" stroke="#1971c2" stroke-width="1.7" stroke-linecap="round" stroke-linejoin="miter" stroke-miterlimit="4" transform="matrix(1 0 0 1 19.17607909257092 62.67784563764132)" d="M 0 0m 0 67.86114 l 71.347694 -67.86114 "/>
                        <path class="typst-shape" fill="none" stroke="#1971c2" stroke-width="1.7" stroke-linecap="round" stroke-linejoin="miter" stroke-miterlimit="4" transform="matrix(1 0 0 1 89.67774870802629 62.67784549606295)" d="M 0 0m 0.84602135 0 c -1.3970509 3.5044541 -1.04959 7.4637723 0.9364919 10.67133 "/>
                        <path class="typst-shape" fill="none" stroke="#1971c2" stroke-width="1.7" stroke-linecap="round" stroke-linejoin="miter" stroke-miterlimit="4" transform="matrix(1 0 0 1 79.91269922668036 61.20832564072008)" d="M 0 0m 10.611071 1.4695199 c -3.5699959 1.2198677 -7.506956 0.6746409 -10.611071 -1.4695199 "/>
                        <path class="typst-shape" fill="none" transform="matrix(1 0 0 1 43.189513383524094 83.57633394867088)" d="M 0 0h 10.59 v 11.29 h -10.59 v -11.29 Z "/>
                        <g class="typst-group">
                            <g>
                                <g class="typst-group" transform="matrix(1 0 0 1 43.189513336279994 83.57633382268662)">
                                    <g>
                                        <g class="typst-group">
                                            <g>
                                                <g class="typst-group">
                                                    <g>
                                                        <g class="typst-text" transform="matrix(1 0 0 -1 2 9.29)">
                                                            <use xlink:href="#g491BEBE3166BCF88D1655BA210144CD7" x="0" y="0" fill="#000000" fill-rule="nonzero"/>
                                                        </g>
                                                    </g>
                                                </g>
                                            </g>
                                        </g>
                                    </g>
                                </g>
                            </g>
                        </g>
                        <path class="typst-shape" fill="none" stroke="#000000" stroke-width="0.7" stroke-linecap="round" stroke-linejoin="miter" stroke-miterlimit="4" transform="matrix(1 0 0 1 117.36018708081454 203.1479588942267)" d="M 0 0m 0 22.468544 l 66.25135 -22.468544 "/>
                        <path class="typst-shape" fill="none" stroke="#000000" stroke-width="0.7" stroke-linecap="round" stroke-linejoin="miter" stroke-miterlimit="4" transform="matrix(1 0 0 1 182.08032654891727 203.14795903937002)" d="M 0 0m 1.5312085 0 c -1.1280634 1.0680219 -1.6828654 2.6076863 -1.4953265 4.1497717 "/>
                        <path class="typst-shape" fill="none" stroke="#000000" stroke-width="0.7" stroke-linecap="round" stroke-linejoin="miter" stroke-miterlimit="4" transform="matrix(1 0 0 1 179.90033054730182 200.7639357719627)" d="M 0 0m 3.7112045 2.3840232 c -1.545033 -0.16146517 -2.9219785 -1.0459946 -3.7112045 -2.3840232 "/>
                        <path class="typst-shape" fill="none" transform="matrix(1 0 0 1 146.33924288717276 201.14198447088992)" d="M 0 0h 7.34 v 11.29 h -7.34 v -11.29 Z "/>
                        <g class="typst-group">
                            <g>
                                <g class="typst-group" transform="matrix(1 0 0 1 146.33924287142472 201.14198434490567)">
                                    <g>
                                        <g class="typst-group">
                                            <g>
                                                <g class="typst-group">
                                                    <g>
                                                        <g class="typst-text" transform="matrix(1 0 0 -1 2 9.29)">
                                                            <use xlink:href="#g71597C7A75CBE9007E0C90FFA6E4BB3E" x="0" y="0" fill="#000000" fill-rule="nonzero"/>
                                                        </g>
                                                    </g>
                                                </g>
                                            </g>
                                        </g>
                                    </g>
                                </g>
                            </g>
                        </g>
                        <path class="typst-shape" fill="none" stroke="#1971c2" stroke-width="1.7" stroke-linecap="round" stroke-linejoin="miter" stroke-miterlimit="4" transform="matrix(1 0 0 1 117.36018702347539 235.35131256336115)" d="M 0 0l 65.77784 22.307957 "/>
                        <path class="typst-shape" fill="none" stroke="#1971c2" stroke-width="1.7" stroke-linecap="round" stroke-linejoin="miter" stroke-miterlimit="4" transform="matrix(1 0 0 1 174.12509930818098 257.6592693070866)" d="M 0 0m 9.012925 0 c -3.752223 0.3921302 -7.0962334 2.540274 -9.012925 5.7897725 "/>
                        <path class="typst-shape" fill="none" stroke="#1971c2" stroke-width="1.7" stroke-linecap="round" stroke-linejoin="miter" stroke-miterlimit="4" transform="matrix(1 0 0 1 179.41937390217606 247.58125183197942)" d="M 0 0m 3.718651 10.078017 c -2.7395837 -2.5937672 -4.0869603 -6.3329525 -3.631509 -10.078017 "/>
                        <path class="typst-shape" fill="none" transform="matrix(1 0 0 1 146.9839363750027 233.45774883244596)" d="M 0 0h 8.62 v 11.29 h -8.62 v -11.29 Z "/>
                        <g class="typst-group">
                            <g>
                                <g class="typst-group" transform="matrix(1 0 0 1 146.98393629626258 233.45774870646173)">
                                    <g>
                                        <g class="typst-group">
                                            <g>
                                                <g class="typst-group">
                                                    <g>
                                                        <g class="typst-text" transform="matrix(1 0 0 -1 2 9.29)">
                                                            <use xlink:href="#g12E01287B0D4E0DDD87E41A9431F6327" x="0" y="0" fill="#000000" fill-rule="nonzero"/>
                                                        </g>
                                                    </g>
                                                </g>
                                            </g>
                                        </g>
                                    </g>
                                </g>
                            </g>
                        </g>
                        <path class="typst-shape" fill="none" stroke="#000000" stroke-width="0.7" stroke-linecap="round" stroke-linejoin="miter" stroke-miterlimit="4" transform="matrix(1 0 0 1 19.193313238176266 151.78105382062117)" d="M 0 0l 71.67531 67.94313 "/>
                        <path class="typst-shape" fill="none" stroke="#000000" stroke-width="0.7" stroke-linecap="round" stroke-linejoin="miter" stroke-miterlimit="4" transform="matrix(1 0 0 1 86.50038097697292 219.46359869695877)" d="M 0 0m 4.368239 0.2605884 c -1.4708426 -0.4998213 -3.0915635 -0.27258533 -4.368239 0.61245644 "/>
                        <path class="typst-shape" fill="none" stroke="#000000" stroke-width="0.7" stroke-linecap="round" stroke-linejoin="miter" stroke-miterlimit="4" transform="matrix(1 0 0 1 90.51719509721231 215.32946652568248)" d="M 0 0m 0.3514246 4.3947206 c -0.5776864 -1.4420393 -0.4373611 -3.0725856 0.37821105 -4.3947206 "/>
                        <path class="typst-shape" fill="none" transform="matrix(1 0 0 1 56.5338909964978 173.1315147199901)" d="M 0 0h 11.7 v 11.29 h -11.7 v -11.29 Z "/>
                        <g class="typst-group">
                            <g>
                                <g class="typst-group" transform="matrix(1 0 0 1 56.53389099649781 173.1315145940059)">
                                    <g>
                                        <g class="typst-group">
                                            <g>
                                                <g class="typst-group">
                                                    <g>
                                                        <g class="typst-text" transform="matrix(1 0 0 -1 2 9.29)">
                                                            <use xlink:href="#g4BA018325066C307AC977FDC6BB4FAA1" x="0" y="0" fill="#000000" fill-rule="nonzero"/>
                                                        </g>
                                                    </g>
                                                </g>
                                            </g>
                                        </g>
                                    </g>
                                </g>
                            </g>
                        </g>
                        <path class="typst-shape" fill="none" transform="matrix(1 0 0 1 0 135.02506213090547)" d="M 0 0h 15.18 v 12.29 h -15.18 v -12.29 Z "/>
                        <g class="typst-group">
                            <g>
                                <g class="typst-group" transform="matrix(1 0 0 1 -0.000000047194094539610355 135.02506211515743)">
                                    <g>
                                        <g class="typst-group">
                                            <g>
                                                <g class="typst-group" transform="matrix(1 0 0 1 0.000000000049999829298746954 0)">
                                                    <g>
                                                        <g class="typst-group">
                                                            <g>
                                                                <path class="typst-shape" fill="#f5f5f5" fill-rule="nonzero" d="M 0 0m 0 1.7 c 0 -0.93888414 0.7611159 -1.7 1.7 -1.7 h 11.78 c 0.93888474 0 1.7000008 0.7611159 1.7000008 1.7 v 8.89 c 0 0.9388838 -0.761116 1.6999998 -1.7000008 1.6999998 h -11.78 c -0.93888414 0 -1.7 -0.761116 -1.7 -1.6999998 Z "/>
                                                                <path class="typst-shape" fill="none" stroke="#000000" stroke-width="0.6" stroke-linecap="butt" stroke-linejoin="miter" stroke-miterlimit="4" d="M 0 0m 1.7 0 h 11.78 c 0.93888474 0 1.7000008 0.7611159 1.7000008 1.7 v 8.89 c 0 0.9388838 -0.761116 1.6999998 -1.7000008 1.6999998 h -11.78 c -0.93888414 0 -1.7 -0.761116 -1.7 -1.6999998 v -8.89 c 0 -0.93888414 0.7611159 -1.7 1.7 -1.7 "/>
                                                                <g class="typst-text" transform="matrix(1 0 0 -1 4 9.79)">
                                                                    <use xlink:href="#gB81FD68D7BD5D520BAC2F40BFC6509E9" x="0" y="0" fill="#000000" fill-rule="nonzero"/>
                                                                </g>
                                                            </g>
                                                        </g>
                                                        <g class="typst-text" transform="matrix(1 0 0 -1 3.4848000000000012 -5.536)">
                                                            <use xlink:href="#g413BF0F3DBEF18F17C1043C27D2E3EBD" x="0" y="0" fill="#333333" fill-rule="nonzero"/>
                                                        </g>
                                                        <g class="typst-text" transform="matrix(1 0 0 -1 8.0608 -3.56)">
                                                            <use xlink:href="#g92AD1AD4A6AA77DE1EF5802B5D341C4" x="0" y="0" fill="#333333" fill-rule="nonzero"/>
                                                        </g>
                                                        <g class="typst-group">
                                                            <g>
                                                                <g class="typst-text" transform="matrix(1 0 0 -1 -1.8563333333333332 21.29)">
                                                                    <use xlink:href="#gD11115914527A70E795EF94F32D186D0" x="0" y="0" fill="#0b7285" fill-rule="nonzero"/>
                                                                </g>
                                                                <g class="typst-text" transform="matrix(1 0 0 -1 1.4501666666666668 21.29)">
                                                                    <use xlink:href="#g303C1E82633EC9A17791F67A43F9A314" x="0" y="0" fill="#0b7285" fill-rule="nonzero"/>
                                                                </g>
                                                                <g class="typst-text" transform="matrix(1 0 0 -1 5.700166666666667 21.29)">
                                                                    <use xlink:href="#gC323DDA4F13B3DAED01B2C7F75FB0255" x="0" y="0" fill="#0b7285" fill-rule="nonzero"/>
                                                                </g>
                                                                <g class="typst-text" transform="matrix(1 0 0 -1 9.479833333333332 21.29)">
                                                                    <use xlink:href="#gEEBFFC10A1A9104B95F07EA301A4AC93" x="0" y="0" fill="#0b7285" fill-rule="nonzero"/>
                                                                </g>
                                                                <g class="typst-text" transform="matrix(1 0 0 -1 13.729833333333332 21.29)">
                                                                    <use xlink:href="#g4BCBAF550389D2FDDE6D0BAE5317A4A5" x="0" y="0" fill="#0b7285" fill-rule="nonzero"/>
                                                                </g>
                                                            </g>
                                                        </g>
                                                    </g>
                                                </g>
                                            </g>
                                        </g>
                                    </g>
                                </g>
                            </g>
                        </g>
                        <path class="typst-shape" fill="none" transform="matrix(1 0 0 1 95.21149606299213 45.40824803149601)" d="M 0 0h 14.7 v 12.29 h -14.7 v -12.29 Z "/>
                        <g class="typst-group">
                            <g>
                                <g class="typst-group" transform="matrix(1 0 0 1 95.21149596855395 45.40824801574797)">
                                    <g>
                                        <g class="typst-group">
                                            <g>
                                                <g class="typst-group" transform="matrix(1 0 0 1 0.000000000049999829298746954 0)">
                                                    <g>
                                                        <g class="typst-group">
                                                            <g>
                                                                <path class="typst-shape" fill="#f5f5f5" fill-rule="nonzero" d="M 0 0m 0 1.7 c 0 -0.93888414 0.7611159 -1.7 1.7 -1.7 h 11.3 c 0.9388838 0 1.6999998 0.7611159 1.6999998 1.7 v 8.89 c 0 0.9388838 -0.761116 1.6999998 -1.6999998 1.6999998 h -11.3 c -0.93888414 0 -1.7 -0.761116 -1.7 -1.6999998 Z "/>
                                                                <path class="typst-shape" fill="none" stroke="#000000" stroke-width="0.6" stroke-linecap="butt" stroke-linejoin="miter" stroke-miterlimit="4" d="M 0 0m 1.7 0 h 11.3 c 0.9388838 0 1.6999998 0.7611159 1.6999998 1.7 v 8.89 c 0 0.9388838 -0.761116 1.6999998 -1.6999998 1.6999998 h -11.3 c -0.93888414 0 -1.7 -0.761116 -1.7 -1.6999998 v -8.89 c 0 -0.93888414 0.7611159 -1.7 1.7 -1.7 "/>
                                                                <g class="typst-text" transform="matrix(1 0 0 -1 4 9.79)">
                                                                    <use xlink:href="#gB7C8A2F2E1A7809FFBBA2740D93062B6" x="0" y="0" fill="#000000" fill-rule="nonzero"/>
                                                                </g>
                                                            </g>
                                                        </g>
                                                        <g class="typst-text" transform="matrix(1 0 0 -1 3.244800000000001 -5.536)">
                                                            <use xlink:href="#g413BF0F3DBEF18F17C1043C27D2E3EBD" x="0" y="0" fill="#333333" fill-rule="nonzero"/>
                                                        </g>
                                                        <g class="typst-text" transform="matrix(1 0 0 -1 7.8208 -3.56)">
                                                            <use xlink:href="#g31B4B8077E6C27BAEFFB5B29A8E6057F" x="0" y="0" fill="#333333" fill-rule="nonzero"/>
                                                        </g>
                                                        <g class="typst-group">
                                                            <g>
                                                                <g class="typst-text" transform="matrix(1 0 0 -1 -2.0963333333333334 21.29)">
                                                                    <use xlink:href="#gD11115914527A70E795EF94F32D186D0" x="0" y="0" fill="#0b7285" fill-rule="nonzero"/>
                                                                </g>
                                                                <g class="typst-text" transform="matrix(1 0 0 -1 1.2101666666666668 21.29)">
                                                                    <use xlink:href="#g303C1E82633EC9A17791F67A43F9A314" x="0" y="0" fill="#0b7285" fill-rule="nonzero"/>
                                                                </g>
                                                                <g class="typst-text" transform="matrix(1 0 0 -1 5.460166666666667 21.29)">
                                                                    <use xlink:href="#gC323DDA4F13B3DAED01B2C7F75FB0255" x="0" y="0" fill="#0b7285" fill-rule="nonzero"/>
                                                                </g>
                                                                <g class="typst-text" transform="matrix(1 0 0 -1 9.239833333333332 21.29)">
                                                                    <use xlink:href="#gEEBFFC10A1A9104B95F07EA301A4AC93" x="0" y="0" fill="#0b7285" fill-rule="nonzero"/>
                                                                </g>
                                                                <g class="typst-text" transform="matrix(1 0 0 -1 13.489833333333332 21.29)">
                                                                    <use xlink:href="#g4BCBAF550389D2FDDE6D0BAE5317A4A5" x="0" y="0" fill="#0b7285" fill-rule="nonzero"/>
                                                                </g>
                                                            </g>
                                                        </g>
                                                    </g>
                                                </g>
                                            </g>
                                        </g>
                                    </g>
                                </g>
                            </g>
                        </g>
                        <path class="typst-shape" fill="none" transform="matrix(1 0 0 1 189.94299212598423 0)" d="M 0 0h 22.226667 v 6.83 h -22.226667 v -6.83 Z "/>
                        <g class="typst-group">
                            <g>
                                <g class="typst-group" transform="matrix(1 0 0 1 189.94299208928885 -0.0000001102362336217005)">
                                    <g>
                                        <g class="typst-group">
                                            <g>
                                                <g class="typst-group" transform="matrix(1 0 0 1 0.00000000004999893412679639 0)">
                                                    <g>
                                                        <g class="typst-text" transform="matrix(1 0 0 -1 0 6.83)">
                                                            <use xlink:href="#g8EA44FD9CD658297A6AA79F1D3ABA0FE" x="0" y="0" fill="#0b7285" fill-rule="nonzero"/>
                                                        </g>
                                                        <g class="typst-text" transform="matrix(1 0 0 -1 3.89 6.83)">
                                                            <use xlink:href="#gDECE3A5BAAC29CEE3940DE0ED7B22D29" x="0" y="0" fill="#0b7285" fill-rule="nonzero"/>
                                                        </g>
                                                        <g class="typst-text" transform="matrix(1 0 0 -1 8.89 6.83)">
                                                            <use xlink:href="#g8493D600BB45F339BE5EE97313DFC75" x="0" y="0" fill="#0b7285" fill-rule="nonzero"/>
                                                        </g>
                                                        <g class="typst-text" transform="matrix(1 0 0 -1 13.336666666666668 6.83)">
                                                            <use xlink:href="#gED56789099100826EE4E845A642C587" x="0" y="0" fill="#0b7285" fill-rule="nonzero"/>
                                                        </g>
                                                        <g class="typst-text" transform="matrix(1 0 0 -1 18.33666666666667 6.83)">
                                                            <use xlink:href="#gE8406A7677610853773AC8C9CC50DC4F" x="0" y="0" fill="#0b7285" fill-rule="nonzero"/>
                                                        </g>
                                                    </g>
                                                </g>
                                            </g>
                                        </g>
                                    </g>
                                </g>
                            </g>
                        </g>
                        <path class="typst-shape" fill="none" transform="matrix(1 0 0 1 193.4663254593176 94.1524335629921)" d="M 0 0h 15.18 v 12.29 h -15.18 v -12.29 Z "/>
                        <g class="typst-group">
                            <g>
                                <g class="typst-group" transform="matrix(1 0 0 1 193.4663254121235 94.15243354724407)">
                                    <g>
                                        <g class="typst-group">
                                            <g>
                                                <g class="typst-group" transform="matrix(1 0 0 1 0.000000000049999829298746954 0)">
                                                    <g>
                                                        <g class="typst-group">
                                                            <g>
                                                                <path class="typst-shape" fill="#f5f5f5" fill-rule="nonzero" d="M 0 0m 0 1.7 c 0 -0.93888414 0.7611159 -1.7 1.7 -1.7 h 11.78 c 0.93888474 0 1.7000008 0.7611159 1.7000008 1.7 v 8.89 c 0 0.9388838 -0.761116 1.6999998 -1.7000008 1.6999998 h -11.78 c -0.93888414 0 -1.7 -0.761116 -1.7 -1.6999998 Z "/>
                                                                <path class="typst-shape" fill="none" stroke="#000000" stroke-width="0.6" stroke-linecap="butt" stroke-linejoin="miter" stroke-miterlimit="4" d="M 0 0m 1.7 0 h 11.78 c 0.93888474 0 1.7000008 0.7611159 1.7000008 1.7 v 8.89 c 0 0.9388838 -0.761116 1.6999998 -1.7000008 1.6999998 h -11.78 c -0.93888414 0 -1.7 -0.761116 -1.7 -1.6999998 v -8.89 c 0 -0.93888414 0.7611159 -1.7 1.7 -1.7 "/>
                                                                <g class="typst-text" transform="matrix(1 0 0 -1 4 9.79)">
                                                                    <use xlink:href="#gB81FD68D7BD5D520BAC2F40BFC6509E9" x="0" y="0" fill="#000000" fill-rule="nonzero"/>
                                                                </g>
                                                            </g>
                                                        </g>
                                                        <g class="typst-text" transform="matrix(1 0 0 -1 3.4848000000000012 -5.536)">
                                                            <use xlink:href="#g413BF0F3DBEF18F17C1043C27D2E3EBD" x="0" y="0" fill="#333333" fill-rule="nonzero"/>
                                                        </g>
                                                        <g class="typst-text" transform="matrix(1 0 0 -1 8.0608 -3.56)">
                                                            <use xlink:href="#g26F15E84546DAAA0A9C49D79801C5D86" x="0" y="0" fill="#333333" fill-rule="nonzero"/>
                                                        </g>
                                                        <g class="typst-group">
                                                            <g>
                                                                <g class="typst-text" transform="matrix(1 0 0 -1 -1.8563333333333332 21.29)">
                                                                    <use xlink:href="#gD11115914527A70E795EF94F32D186D0" x="0" y="0" fill="#0b7285" fill-rule="nonzero"/>
                                                                </g>
                                                                <g class="typst-text" transform="matrix(1 0 0 -1 1.4501666666666668 21.29)">
                                                                    <use xlink:href="#g303C1E82633EC9A17791F67A43F9A314" x="0" y="0" fill="#0b7285" fill-rule="nonzero"/>
                                                                </g>
                                                                <g class="typst-text" transform="matrix(1 0 0 -1 5.700166666666667 21.29)">
                                                                    <use xlink:href="#gC323DDA4F13B3DAED01B2C7F75FB0255" x="0" y="0" fill="#0b7285" fill-rule="nonzero"/>
                                                                </g>
                                                                <g class="typst-text" transform="matrix(1 0 0 -1 9.479833333333332 21.29)">
                                                                    <use xlink:href="#gEEBFFC10A1A9104B95F07EA301A4AC93" x="0" y="0" fill="#0b7285" fill-rule="nonzero"/>
                                                                </g>
                                                                <g class="typst-text" transform="matrix(1 0 0 -1 13.729833333333332 21.29)">
                                                                    <use xlink:href="#g4BCBAF550389D2FDDE6D0BAE5317A4A5" x="0" y="0" fill="#0b7285" fill-rule="nonzero"/>
                                                                </g>
                                                            </g>
                                                        </g>
                                                    </g>
                                                </g>
                                            </g>
                                        </g>
                                    </g>
                                </g>
                            </g>
                        </g>
                        <path class="typst-shape" fill="none" transform="matrix(1 0 0 1 292.20115485564304 64.18433070866139)" d="M 0 0h 22.226667 v 6.83 h -22.226667 v -6.83 Z "/>
                        <g class="typst-group">
                            <g>
                                <g class="typst-group" transform="matrix(1 0 0 1 292.20115481894766 64.18433059842516)">
                                    <g>
                                        <g class="typst-group">
                                            <g>
                                                <g class="typst-group" transform="matrix(1 0 0 1 0.00000000004999893412679639 0)">
                                                    <g>
                                                        <g class="typst-text" transform="matrix(1 0 0 -1 0 6.83)">
                                                            <use xlink:href="#g8EA44FD9CD658297A6AA79F1D3ABA0FE" x="0" y="0" fill="#0b7285" fill-rule="nonzero"/>
                                                        </g>
                                                        <g class="typst-text" transform="matrix(1 0 0 -1 3.89 6.83)">
                                                            <use xlink:href="#gA7CA430C16676CFA219F1D31BDD88E37" x="0" y="0" fill="#0b7285" fill-rule="nonzero"/>
                                                        </g>
                                                        <g class="typst-text" transform="matrix(1 0 0 -1 8.89 6.83)">
                                                            <use xlink:href="#g8493D600BB45F339BE5EE97313DFC75" x="0" y="0" fill="#0b7285" fill-rule="nonzero"/>
                                                        </g>
                                                        <g class="typst-text" transform="matrix(1 0 0 -1 13.336666666666668 6.83)">
                                                            <use xlink:href="#g91EFFF08AA08229DB781E7C5CBB2B49B" x="0" y="0" fill="#0b7285" fill-rule="nonzero"/>
                                                        </g>
                                                        <g class="typst-text" transform="matrix(1 0 0 -1 18.33666666666667 6.83)">
                                                            <use xlink:href="#gE8406A7677610853773AC8C9CC50DC4F" x="0" y="0" fill="#0b7285" fill-rule="nonzero"/>
                                                        </g>
                                                    </g>
                                                </g>
                                            </g>
                                        </g>
                                    </g>
                                </g>
                            </g>
                        </g>
                        <path class="typst-shape" fill="none" transform="matrix(1 0 0 1 292.20115485564304 129.5805364173228)" d="M 0 0h 22.226667 v 6.83 h -22.226667 v -6.83 Z "/>
                        <g class="typst-group">
                            <g>
                                <g class="typst-group" transform="matrix(1 0 0 1 292.20115481894766 129.5805363070866)">
                                    <g>
                                        <g class="typst-group">
                                            <g>
                                                <g class="typst-group" transform="matrix(1 0 0 1 0.00000000004999893412679639 0)">
                                                    <g>
                                                        <g class="typst-text" transform="matrix(1 0 0 -1 0 6.83)">
                                                            <use xlink:href="#g8EA44FD9CD658297A6AA79F1D3ABA0FE" x="0" y="0" fill="#0b7285" fill-rule="nonzero"/>
                                                        </g>
                                                        <g class="typst-text" transform="matrix(1 0 0 -1 3.89 6.83)">
                                                            <use xlink:href="#g91EFFF08AA08229DB781E7C5CBB2B49B" x="0" y="0" fill="#0b7285" fill-rule="nonzero"/>
                                                        </g>
                                                        <g class="typst-text" transform="matrix(1 0 0 -1 8.89 6.83)">
                                                            <use xlink:href="#g8493D600BB45F339BE5EE97313DFC75" x="0" y="0" fill="#0b7285" fill-rule="nonzero"/>
                                                        </g>
                                                        <g class="typst-text" transform="matrix(1 0 0 -1 13.336666666666668 6.83)">
                                                            <use xlink:href="#gB9BF39312108C6173BAA341B6CC29489" x="0" y="0" fill="#0b7285" fill-rule="nonzero"/>
                                                        </g>
                                                        <g class="typst-text" transform="matrix(1 0 0 -1 18.33666666666667 6.83)">
                                                            <use xlink:href="#gE8406A7677610853773AC8C9CC50DC4F" x="0" y="0" fill="#0b7285" fill-rule="nonzero"/>
                                                        </g>
                                                    </g>
                                                </g>
                                            </g>
                                        </g>
                                    </g>
                                </g>
                            </g>
                        </g>
                        <path class="typst-shape" fill="none" transform="matrix(1 0 0 1 95.21149606299213 224.33890748031496)" d="M 0 0h 14.7 v 12.29 h -14.7 v -12.29 Z "/>
                        <g class="typst-group">
                            <g>
                                <g class="typst-group" transform="matrix(1 0 0 1 95.21149596855395 224.3389074645669)">
                                    <g>
                                        <g class="typst-group">
                                            <g>
                                                <g class="typst-group" transform="matrix(1 0 0 1 0.000000000049999829298746954 0)">
                                                    <g>
                                                        <g class="typst-group">
                                                            <g>
                                                                <path class="typst-shape" fill="#f5f5f5" fill-rule="nonzero" d="M 0 0m 0 1.7 c 0 -0.93888414 0.7611159 -1.7 1.7 -1.7 h 11.3 c 0.9388838 0 1.6999998 0.7611159 1.6999998 1.7 v 8.89 c 0 0.9388838 -0.761116 1.6999998 -1.6999998 1.6999998 h -11.3 c -0.93888414 0 -1.7 -0.761116 -1.7 -1.6999998 Z "/>
                                                                <path class="typst-shape" fill="none" stroke="#000000" stroke-width="0.6" stroke-linecap="butt" stroke-linejoin="miter" stroke-miterlimit="4" d="M 0 0m 1.7 0 h 11.3 c 0.9388838 0 1.6999998 0.7611159 1.6999998 1.7 v 8.89 c 0 0.9388838 -0.761116 1.6999998 -1.6999998 1.6999998 h -11.3 c -0.93888414 0 -1.7 -0.761116 -1.7 -1.6999998 v -8.89 c 0 -0.93888414 0.7611159 -1.7 1.7 -1.7 "/>
                                                                <g class="typst-text" transform="matrix(1 0 0 -1 4 9.79)">
                                                                    <use xlink:href="#gB7C8A2F2E1A7809FFBBA2740D93062B6" x="0" y="0" fill="#000000" fill-rule="nonzero"/>
                                                                </g>
                                                            </g>
                                                        </g>
                                                        <g class="typst-text" transform="matrix(1 0 0 -1 3.244800000000001 -5.536)">
                                                            <use xlink:href="#g413BF0F3DBEF18F17C1043C27D2E3EBD" x="0" y="0" fill="#333333" fill-rule="nonzero"/>
                                                        </g>
                                                        <g class="typst-text" transform="matrix(1 0 0 -1 7.8208 -3.56)">
                                                            <use xlink:href="#gC2E9FB4FECDB73B50E628D2643583A5F" x="0" y="0" fill="#333333" fill-rule="nonzero"/>
                                                        </g>
                                                        <g class="typst-group">
                                                            <g>
                                                                <g class="typst-text" transform="matrix(1 0 0 -1 -2.0963333333333334 21.29)">
                                                                    <use xlink:href="#gD11115914527A70E795EF94F32D186D0" x="0" y="0" fill="#0b7285" fill-rule="nonzero"/>
                                                                </g>
                                                                <g class="typst-text" transform="matrix(1 0 0 -1 1.2101666666666668 21.29)">
                                                                    <use xlink:href="#g1E69038C0BE9C5622EC83EC5CDC6EF77" x="0" y="0" fill="#0b7285" fill-rule="nonzero"/>
                                                                </g>
                                                                <g class="typst-text" transform="matrix(1 0 0 -1 5.460166666666667 21.29)">
                                                                    <use xlink:href="#gC323DDA4F13B3DAED01B2C7F75FB0255" x="0" y="0" fill="#0b7285" fill-rule="nonzero"/>
                                                                </g>
                                                                <g class="typst-text" transform="matrix(1 0 0 -1 9.239833333333332 21.29)">
                                                                    <use xlink:href="#g1E69038C0BE9C5622EC83EC5CDC6EF77" x="0" y="0" fill="#0b7285" fill-rule="nonzero"/>
                                                                </g>
                                                                <g class="typst-text" transform="matrix(1 0 0 -1 13.489833333333332 21.29)">
                                                                    <use xlink:href="#g4BCBAF550389D2FDDE6D0BAE5317A4A5" x="0" y="0" fill="#0b7285" fill-rule="nonzero"/>
                                                                </g>
                                                            </g>
                                                        </g>
                                                    </g>
                                                </g>
                                            </g>
                                        </g>
                                    </g>
                                </g>
                            </g>
                        </g>
                        <path class="typst-shape" fill="none" transform="matrix(1 0 0 1 189.94299212598423 194.97674212598426)" d="M 0 0h 22.226667 v 6.83 h -22.226667 v -6.83 Z "/>
                        <g class="typst-group">
                            <g>
                                <g class="typst-group" transform="matrix(1 0 0 1 189.94299208928885 194.97674201574802)">
                                    <g>
                                        <g class="typst-group">
                                            <g>
                                                <g class="typst-group" transform="matrix(1 0 0 1 0.00000000004999893412679639 0)">
                                                    <g>
                                                        <g class="typst-text" transform="matrix(1 0 0 -1 0 6.83)">
                                                            <use xlink:href="#g8EA44FD9CD658297A6AA79F1D3ABA0FE" x="0" y="0" fill="#0b7285" fill-rule="nonzero"/>
                                                        </g>
                                                        <g class="typst-text" transform="matrix(1 0 0 -1 3.89 6.83)">
                                                            <use xlink:href="#gED56789099100826EE4E845A642C587" x="0" y="0" fill="#0b7285" fill-rule="nonzero"/>
                                                        </g>
                                                        <g class="typst-text" transform="matrix(1 0 0 -1 8.89 6.83)">
                                                            <use xlink:href="#g8493D600BB45F339BE5EE97313DFC75" x="0" y="0" fill="#0b7285" fill-rule="nonzero"/>
                                                        </g>
                                                        <g class="typst-text" transform="matrix(1 0 0 -1 13.336666666666668 6.83)">
                                                            <use xlink:href="#gDECE3A5BAAC29CEE3940DE0ED7B22D29" x="0" y="0" fill="#0b7285" fill-rule="nonzero"/>
                                                        </g>
                                                        <g class="typst-text" transform="matrix(1 0 0 -1 18.33666666666667 6.83)">
                                                            <use xlink:href="#gE8406A7677610853773AC8C9CC50DC4F" x="0" y="0" fill="#0b7285" fill-rule="nonzero"/>
                                                        </g>
                                                    </g>
                                                </g>
                                            </g>
                                        </g>
                                    </g>
                                </g>
                            </g>
                        </g>
                        <path class="typst-shape" fill="none" transform="matrix(1 0 0 1 189.94299212598423 259.1610728346456)" d="M 0 0h 22.226667 v 6.83 h -22.226667 v -6.83 Z "/>
                        <g class="typst-group">
                            <g>
                                <g class="typst-group" transform="matrix(1 0 0 1 189.94299208928885 259.1610727244094)">
                                    <g>
                                        <g class="typst-group">
                                            <g>
                                                <g class="typst-group" transform="matrix(1 0 0 1 0.00000000004999893412679639 0)">
                                                    <g>
                                                        <g class="typst-text" transform="matrix(1 0 0 -1 0 6.83)">
                                                            <use xlink:href="#g8EA44FD9CD658297A6AA79F1D3ABA0FE" x="0" y="0" fill="#0b7285" fill-rule="nonzero"/>
                                                        </g>
                                                        <g class="typst-text" transform="matrix(1 0 0 -1 3.89 6.83)">
                                                            <use xlink:href="#gB9BF39312108C6173BAA341B6CC29489" x="0" y="0" fill="#0b7285" fill-rule="nonzero"/>
                                                        </g>
                                                        <g class="typst-text" transform="matrix(1 0 0 -1 8.89 6.83)">
                                                            <use xlink:href="#g8493D600BB45F339BE5EE97313DFC75" x="0" y="0" fill="#0b7285" fill-rule="nonzero"/>
                                                        </g>
                                                        <g class="typst-text" transform="matrix(1 0 0 -1 13.336666666666668 6.83)">
                                                            <use xlink:href="#gB9BF39312108C6173BAA341B6CC29489" x="0" y="0" fill="#0b7285" fill-rule="nonzero"/>
                                                        </g>
                                                        <g class="typst-text" transform="matrix(1 0 0 -1 18.33666666666667 6.83)">
                                                            <use xlink:href="#gE8406A7677610853773AC8C9CC50DC4F" x="0" y="0" fill="#0b7285" fill-rule="nonzero"/>
                                                        </g>
                                                    </g>
                                                </g>
                                            </g>
                                        </g>
                                    </g>
                                </g>
                            </g>
                        </g>
                    </g>
                </g>
            </g>
        </g>
    </g>
    <defs id="glyph">
        <symbol id="g71597C7A75CBE9007E0C90FFA6E4BB3E" overflow="visible">
            <path d="M 0 0m 1.25 0 h 1.76 v 0.28 l -0.8900001 0.07999998 l -0.01999998 1.93 v 4.12 l 0.029999971 1.5500002 l -0.14999998 0.09000015 l -1.5799999 -0.3000002 v -0.26999998 l 0.88 -0.03999996 v -5.15 l -0.01999998 -1.92 l -0.90999997 -0.09 v -0.28 Z "/>
        </symbol>
        <symbol id="gD2182C3E3A5E01A694AB1016565E7653" overflow="visible">
            <path d="M 0 0m 4.5699997 -0.14 c 0.39000034 0 0.69000006 0.16 0.9000001 0.51 l -0.15999985 0.14999998 c -0.15999985 -0.17999998 -0.2800002 -0.23999998 -0.4500003 -0.23999998 c -0.26999998 0 -0.4199996 0.16999999 -0.4199996 0.79999995 v 2.47 c 0 1.24 -0.5600002 1.76 -1.72 1.76 c -1.1300001 0 -1.8700001 -0.49000025 -2.0700002 -1.31 c 0.060000002 -0.23000002 0.20999998 -0.36000013 0.44000006 -0.36000013 c 0.24999988 0 0.41999996 0.13000011 0.4799999 0.49000025 l 0.14999998 0.7199998 c 0.2700001 0.099999905 0.5200001 0.1500001 0.7800001 0.1500001 c 0.78999996 0 1.1399999 -0.3000002 1.1399999 -1.4100001 v -0.4100001 c -0.44000006 -0.099999905 -0.90999985 -0.22999978 -1.3299999 -0.3599999 c -1.3199999 -0.37999988 -1.79 -0.89 -1.79 -1.67 c 0 -0.83 0.59000003 -1.3 1.38 -1.3 c 0.7199999 0 1.17 0.32999998 1.7599999 0.96999997 c 0.08000016 -0.6 0.36000013 -0.96 0.90999985 -0.96 Z m -0.9299998 1.27 c -0.6299999 -0.6 -0.99 -0.78999996 -1.3899999 -0.78999996 c -0.56000006 0 -0.93000007 0.31999996 -0.93000007 0.93999994 c 0 0.54999995 0.33000004 0.98 1.1700001 1.29 c 0.3399999 0.13000011 0.74 0.24000001 1.1499999 0.3499999 Z "/>
        </symbol>
        <symbol id="g663227FFD8CF74EB3D38EC60B085AD22" overflow="visible">
            <path d="M 0 0m 3.6999998 -0.14999999 c 1.31 0 2.2000003 1.15 2.2000003 2.78 c 0 1.6400001 -0.8800001 2.68 -2.0900002 2.68 c -0.5999999 0 -1.22 -0.24000025 -1.73 -0.8200002 v 1.9200001 l 0.029999971 1.5500002 l -0.14999998 0.09000015 l -1.56 -0.3000002 v -0.26999998 l 0.88 -0.05000019 v -5.14 c 0 -0.54999995 -0.00999999 -1.38 -0.01999998 -1.9399999 l -0.84000003 -0.06999999 v -0.28 l 1.56 -0.089999996 l 0.100000024 0.74999994 c 0.48000002 -0.58 1.06 -0.80999994 1.6199999 -0.80999994 Z m -1.5999999 4.35 c 0.53 0.5100002 0.95000005 0.6500001 1.3700001 0.6500001 c 0.89999986 0 1.55 -0.73 1.55 -2.23 c 0 -1.6799998 -0.74000025 -2.29 -1.5700002 -2.29 c -0.47999978 0 -0.89999986 0.18 -1.3499999 0.62 Z "/>
        </symbol>
        <symbol id="g12E01287B0D4E0DDD87E41A9431F6327" overflow="visible">
            <path d="M 0 0m 1.24 0 h 1.8199999 v 0.28 l -0.95000005 0.099999994 l -0.01999998 1.91 v 0.93000007 c 0.29999995 0.8099997 0.6700001 1.2899997 1.2 1.5399997 l 0.089999914 -0.089999676 c 0.23000002 -0.24000025 0.4000001 -0.3800001 0.6600001 -0.3800001 c 0.3499999 0 0.50999975 0.21999979 0.52 0.5699997 c -0.099999905 0.29000044 -0.42000008 0.4500003 -0.79999995 0.4500003 c -0.6700001 0 -1.3400002 -0.5799999 -1.6700001 -1.49 l -0.059999943 1.3799999 l -0.13 0.07999992 l -1.54 -0.39999962 v -0.26000023 l 0.88 -0.03999996 c 0.01999998 -0.5 0.029999971 -1 0.029999971 -1.69 v -0.5999999 l -0.01999998 -1.92 l -0.84000003 -0.09 v -0.28 Z "/>
        </symbol>
        <symbol id="g491BEBE3166BCF88D1655BA210144CD7" overflow="visible">
            <path d="M 0 0m 0.22 5.38 h 0.42999998 l 0.29000002 1.5499997 h 1.8999999 c 0.01999998 -1 0.01999998 -2.0099998 0.01999998 -3.02 v -0.53999996 c 0 -1.01 0 -1.9999999 -0.01999998 -2.98 l -1.14 -0.09 v -0.29999998 h 3.2000003 v 0.29999998 l -1.1500001 0.09 c -0.00999999 0.99 -0.00999999 1.9799999 -0.00999999 2.98 v 0.53999996 c 0 1.02 0 2.0300002 0.00999999 3.02 h 1.9099998 l 0.28999996 -1.5499997 h 0.42999983 l -0.089999676 1.8999996 h -5.99 Z "/>
        </symbol>
        <symbol id="g4BA018325066C307AC977FDC6BB4FAA1" overflow="visible">
            <path d="M 0 0m 0.53 6.98 l 1.03 -0.0800004 c 0.00999999 -0.9899998 0.00999999 -1.9999995 0.00999999 -3.0499997 v -0.26999998 c 0 -1.19 0 -2.21 -0.00999999 -3.19 l -1.03 -0.09 v -0.29999998 h 2.85 c 2.3300002 0 3.7499998 1.4 3.7499998 3.6399999 c 0 2.3200002 -1.3599997 3.6399999 -3.6099997 3.6399999 h -2.99 Z m 1.94 -6.65 c -0.00999999 1.01 -0.00999999 2.04 -0.00999999 3.25 v 0.26999998 c 0 1.0799999 0 2.1 0.00999999 3.1 h 0.9299998 c 1.8 0 2.7900002 -1.1500001 2.7900002 -3.31 c 0 -2.05 -0.99000025 -3.31 -2.9 -3.31 Z "/>
        </symbol>
        <symbol id="gB81FD68D7BD5D520BAC2F40BFC6509E9" overflow="visible">
            <path d="M 0 0m 3.32 6.43 l 1.1800001 -3.62 h -2.3400002 Z m 0.8599999 -6.43 h 2.9299998 v 0.29999998 l -0.9199996 0.08000001 l -2.3500001 6.9599996 h -0.55999994 l -2.31 -6.9399996 l -0.84999996 -0.099999994 v -0.29999998 h 2.24 v 0.29999998 l -0.9699999 0.099999994 l 0.66999996 2.0900002 h 2.5500002 l 0.6799998 -2.1 l -1.1100001 -0.09 Z "/>
        </symbol>
        <symbol id="g413BF0F3DBEF18F17C1043C27D2E3EBD" overflow="visible">
            <path d="M 0 0m 4.216 2.9840002 c 0 0.36800003 -0.3599999 0.55200005 -0.76 0.55200005 c -0.34399986 0 -0.61599994 -0.18400002 -0.8239999 -0.55200005 c -0.16799998 0.36800003 -0.4480002 0.55200005 -0.85600007 0.55200005 c -0.39200008 0 -0.71200013 -0.18400002 -0.9680001 -0.54400015 c -0.21600002 -0.31200004 -0.328 -0.5439999 -0.328 -0.6960001 c 0 -0.07199979 0.04000002 -0.11199999 0.120000005 -0.11199999 c 0.07200003 0 0.120000005 0.0400002 0.13600004 0.11199999 c 0.15200001 0.46400023 0.48800004 1.0080001 1.024 1.0080001 c 0.26400006 0 0.39200008 -0.16799998 0.39200008 -0.49600005 c 0 -0.16799998 -0.14400005 -0.79200006 -0.42400014 -1.8640001 c -0.13599992 -0.536 -0.37599993 -0.8000001 -0.72 -0.8000001 c -0.11199999 0 -0.21599996 0.024000004 -0.30399996 0.063999996 c 0.208 0.08000001 0.31199998 0.224 0.31199998 0.43200004 c 0 0.208 -0.10399997 0.31199998 -0.32 0.31199998 c -0.26400003 0 -0.46400005 -0.22399998 -0.46400005 -0.488 c 0 -0.36800003 0.37600005 -0.55200005 0.768 -0.55200005 c 0.33600008 0 0.60800004 0.18400002 0.8240001 0.55200005 c 0.15199995 -0.36800003 0.44000006 -0.55200005 0.85599995 -0.55200005 c 0.38400006 0 0.704 0.18400002 0.96000004 0.544 c 0.21600008 0.31199998 0.32800007 0.54399997 0.32800007 0.69600004 c 0 0.07200003 -0.03999996 0.11199999 -0.119999886 0.11199999 c -0.07200003 0 -0.11200023 -0.03999996 -0.13600016 -0.11199999 c -0.13599992 -0.45600003 -0.49600005 -1.008 -1.016 -1.008 c -0.26399994 0 -0.4000001 0.16000001 -0.4000001 0.48800004 c 0 0.10400003 0.0400002 0.328 0.12800002 0.688 l 0.27200007 1.08 c 0.15199995 0.60000014 0.4000001 0.90400004 0.7520001 0.90400004 c 0.11199999 0 0.21600008 -0.02399993 0.3039999 -0.06399989 c -0.21599984 -0.07200003 -0.31999993 -0.21600008 -0.31999993 -0.43200016 c 0 -0.20799994 0.11199999 -0.31200004 0.32800007 -0.31200004 c 0.25600004 0 0.45599985 0.23200011 0.45599985 0.48800015 Z "/>
        </symbol>
        <symbol id="g92AD1AD4A6AA77DE1EF5802B5D341C4" overflow="visible">
            <path d="M 0 0m 2.8895998 1.7864 c 0 0.6328 -0.11199999 1.1144 -0.3304 1.4448 c -0.17919993 0.27999997 -0.5375998 0.48719978 -0.9687998 0.48719978 c -0.17920005 0 -0.34160006 -0.027999878 -0.48160005 -0.08959985 c -0.61599994 -0.25760007 -0.81759995 -0.97440004 -0.81759995 -1.8424 c 0 -0.1904 0.011200011 -0.36960006 0.027999997 -0.5432 c 0.0952 -0.73359996 0.4368 -1.3551999 1.2712 -1.3551999 c 0.17919993 0 0.34159994 0.027999997 0.48160005 0.0896 c 0.61599994 0.252 0.8175998 0.95199996 0.8175998 1.8088 Z m -0.63839984 1.2432 c 0.06159997 -0.20720005 0.09520006 -0.59360003 0.09520006 -1.1704 c 0 -0.5487999 -0.02240014 -0.9351999 -0.07280016 -1.1647999 c -0.067199945 -0.33039996 -0.30239987 -0.6048 -0.6831999 -0.6048 c -0.13999999 0 -0.27999997 0.0448 -0.4088 0.14 c -0.17359996 0.12879999 -0.28000003 0.38079995 -0.3248 0.76719993 c -0.016799986 0.12880003 -0.022399962 0.41439998 -0.022399962 0.86239994 c 0 0.54320014 0.027999997 0.91839993 0.08399999 1.12 c 0.0952 0.3584001 0.31919998 0.53760004 0.672 0.53760004 c 0.33599997 0 0.58239985 -0.2184 0.6608 -0.48720002 Z "/>
        </symbol>
        <symbol id="gD11115914527A70E795EF94F32D186D0" overflow="visible">
            <path d="M 0 0m 2.703 -2.108 c 0.07650018 0 0.1190002 0.04250002 0.1190002 0.11899996 c 0 0.02549994 -0.017000198 0.05949998 -0.04250002 0.09350002 c -0.44200015 0.34000003 -0.79900014 0.901 -1.0625001 1.6745 c -0.22950006 0.6715 -0.3485 1.3345001 -0.3485 1.9890001 v 0.714 c 0 0.6545 0.11899996 1.3175001 0.3485 1.9890001 c 0.26349998 0.77349997 0.62049997 1.3345003 1.0625001 1.6745 c 0.02549982 0.025500298 0.04250002 0.059500217 0.04250002 0.09350014 c 0 0.07649994 -0.04250002 0.11899996 -0.1190002 0.11899996 c -0.008499861 0 -0.03399992 -0.008500099 -0.05949998 -0.02549982 c -0.51 -0.39100027 -0.93499994 -0.96900034 -1.2835 -1.7425003 c -0.33150005 -0.73950005 -0.50150007 -1.4365001 -0.50150007 -2.108 v -0.714 c 0 -0.6715001 0.17000002 -1.3685001 0.50150007 -2.1080003 c 0.3485 -0.7735001 0.77349997 -1.3515 1.2835 -1.7425002 c 0.02550006 -0.01699996 0.05100012 -0.02549982 0.05949998 -0.02549982 Z "/>
        </symbol>
        <symbol id="g303C1E82633EC9A17791F67A43F9A314" overflow="visible">
            <path d="M 0 0m 3.0005002 5.7545004 c -0.07649994 0 -0.14450002 -0.04250002 -0.19550014 -0.11899996 l -2.5670002 -3.9440002 v -0.306 h 2.2185001 v -0.697 c 0 -0.153 -0.03399992 -0.25500003 -0.0934999 -0.2975 c -0.05949998 -0.04250002 -0.22099996 -0.05950001 -0.5015 -0.05950001 h -0.2125001 v -0.33150002 c 0.24650002 0.017 0.63750017 0.025500001 1.1645001 0.025500001 c 0.52699995 0 0.918 -0.0085 1.1645 -0.025500001 v 0.33150002 h -0.21249986 c -0.28050017 0 -0.44200015 0.01699999 -0.5015001 0.05950001 c -0.05949998 0.04249999 -0.0934999 0.14450002 -0.0934999 0.2975 v 0.697 h 0.8329997 v 0.33150005 h -0.8329997 v 3.8930001 c 0 0.08500004 -0.059500217 0.14450026 -0.17000008 0.14450026 Z m -0.49300003 -1.0539999 v -2.9835005 h -1.9380002 Z "/>
        </symbol>
        <symbol id="gC323DDA4F13B3DAED01B2C7F75FB0255" overflow="visible">
            <path d="M 0 0m 1.1815001 0.901 c -0.272 0 -0.4505 -0.204 -0.4505 -0.476 c 0 -0.255 0.19549996 -0.46750003 0.4505 -0.46750003 c 0.11899996 0 0.22099996 0.034 0.2975 0.11050001 l 0.00849998 -0.068 c 0 -0.53550005 -0.17850006 -0.99450004 -0.53550005 -1.3600001 c -0.05949998 -0.06799996 -0.09349996 -0.11899996 -0.09349996 -0.153 c 0 -0.08499992 0.03399998 -0.12749994 0.11049998 -0.12749994 c 0.0765 0 0.1785 0.102 0.323 0.2975 c 0.28900003 0.408 0.43350005 0.8585 0.43350005 1.343 c 0 0.4505 -0.153 0.901 -0.544 0.901 Z "/>
        </symbol>
        <symbol id="gEEBFFC10A1A9104B95F07EA301A4AC93" overflow="visible">
            <path d="M 0 0m 2.0145001 5.6610003 c -0.43350005 0 -0.799 -0.15299988 -1.1135001 -0.4590001 c -0.31449997 -0.30599976 -0.476 -0.6630001 -0.476 -1.0964999 c 0 -0.28900003 0.21250004 -0.5015001 0.476 -0.5015001 c 0.255 0 0.4675001 0.2210002 0.4675001 0.4760003 c 0 0.28049994 -0.204 0.47599983 -0.47600007 0.47599983 c -0.0255 0 -0.04250002 0 -0.05949998 -0.008500099 c 0.16149998 0.4165001 0.53550005 0.78200006 1.071 0.78200006 c 0.697 0 1.088 -0.6034999 1.088 -1.3345001 c 0 -0.56949997 -0.28900003 -1.1815 -0.8670001 -1.8275001 l -1.598 -1.802 c -0.11049998 -0.12750003 -0.102 -0.11900002 -0.102 -0.36550003 h 3.1535003 l 0.24650002 1.5300001 h -0.28050017 c -0.06799984 -0.43350005 -0.12749982 -0.68000007 -0.17849994 -0.75650007 c -0.04250002 -0.04249996 -0.2974999 -0.05949998 -0.7650001 -0.05949998 h -1.4195 l 0.82449996 0.80750006 c 0.57800007 0.5439999 1.3090003 1.1305001 1.5555003 1.5810001 c 0.16999984 0.2974999 0.25499988 0.595 0.25499988 0.8924999 c 0 1.003 -0.78200006 1.6660001 -1.802 1.6660001 Z "/>
        </symbol>
        <symbol id="g4BCBAF550389D2FDDE6D0BAE5317A4A5" overflow="visible">
            <path d="M 0 0m 0.66300005 -2.0825002 c 0.51000005 0.39100015 0.935 0.9690001 1.2835 1.7425002 c 0.33150005 0.73950005 0.5015001 1.4365001 0.5015001 2.1080003 v 0.714 c 0 0.67149997 -0.17000008 1.3685 -0.5015001 2.108 c -0.3485 0.77349997 -0.77349997 1.3515 -1.2835 1.7425003 c -0.0255 0.016999722 -0.051 0.02549982 -0.05950004 0.02549982 c -0.0765 0 -0.11899999 -0.04250002 -0.11899999 -0.11899996 c 0 -0.03399992 0.01699999 -0.06799984 0.04249999 -0.09350014 c 0.44200003 -0.33999968 0.7990001 -0.901 1.0625 -1.6745 c 0.22950006 -0.67149997 0.3485 -1.3345001 0.3485 -1.9890001 v -0.714 c 0 -0.6545 -0.11899996 -1.3175001 -0.3485 -1.9890001 c -0.26349998 -0.7735 -0.6205 -1.3345001 -1.0625 -1.6745 c -0.0255 -0.03400004 -0.04249999 -0.06800008 -0.04249999 -0.09350002 c 0 -0.07649994 0.04249999 -0.11899996 0.11899999 -0.11899996 c 0.00850004 0 0.03400004 0.008499861 0.05950004 0.02549982 Z "/>
        </symbol>
        <symbol id="gB7C8A2F2E1A7809FFBBA2740D93062B6" overflow="visible">
            <path d="M 0 0m 0.53 6.98 l 1.03 -0.0800004 c 0.00999999 -0.9899998 0.00999999 -1.9799995 0.00999999 -2.9699998 v -0.53 c 0 -1.02 0 -2.02 -0.00999999 -3.0099998 l -1.03 -0.09 v -0.29999998 h 2.8999999 c 2.0500002 0 2.83 0.94 2.83 1.9799999 c 0 0.9599999 -0.6500001 1.6899999 -2.21 1.85 c 1.3000002 0.25 1.8200002 0.94000006 1.8200002 1.7199998 c 0 1.0300002 -0.75 1.73 -2.3899999 1.73 h -2.95 Z m 1.9200001 -3.3400002 h 0.7199998 c 1.5200002 0 2.1899998 -0.5799999 2.1899998 -1.67 c 0 -1.06 -0.7399998 -1.6399999 -1.9999998 -1.6399999 h -0.88999987 c -0.01999998 1.01 -0.01999998 2.05 -0.01999998 3.31 Z m 0.01999998 3.31 h 0.76 c 1.29 0 1.7799997 -0.52 1.7799997 -1.4099998 c 0 -1.0100002 -0.6499996 -1.5900002 -1.9399998 -1.5900002 h -0.6199999 c 0 1.04 0 2.0300002 0.01999998 3 Z "/>
        </symbol>
        <symbol id="g31B4B8077E6C27BAEFFB5B29A8E6057F" overflow="visible">
            <path d="M 0 0m 1.6968 3.7183998 c -0.24080002 -0.23519993 -0.5992 -0.3527999 -1.0864 -0.3527999 v -0.24639988 c 0.3304 0 0.59360003 0.05039978 0.7952 0.14559984 v -2.7887998 c 0 -0.07280001 -0.0055999756 -0.117599994 -0.022400022 -0.13999999 c -0.027999997 -0.0616 -0.19599998 -0.0952 -0.50399995 -0.0952 h -0.22960001 v -0.2408 l 0.9968 0.0224 l 1.0023999 -0.0224 v 0.2408 h -0.22959995 c -0.3080001 0 -0.47600007 0.033600003 -0.50960004 0.0952 c -0.011199951 0.022399992 -0.016799927 0.067199975 -0.016799927 0.13999999 v 3.0631998 c 0 0.15120006 -0.022400022 0.17919993 -0.19599998 0.17919993 Z "/>
        </symbol>
        <symbol id="g8EA44FD9CD658297A6AA79F1D3ABA0FE" overflow="visible">
            <path d="M 0 0m 3.1799998 -2.48 c 0.09000015 0 0.1400001 0.05000019 0.1400001 0.1400001 c 0 0.029999971 -0.01999998 0.06999993 -0.049999952 0.109999895 c -0.52 0.4000001 -0.94000006 1.0600001 -1.25 1.97 c -0.26999998 0.78999996 -0.40999997 1.5699999 -0.40999997 2.34 v 0.8399999 c 0 0.77 0.13999999 1.55 0.40999997 2.34 c 0.30999994 0.9100003 0.73 1.5700002 1.25 1.9700003 c 0.029999971 0.029999733 0.049999952 0.069999695 0.049999952 0.10999966 c 0 0.09000015 -0.049999952 0.14000034 -0.1400001 0.14000034 c -0.00999999 0 -0.03999996 -0.010000229 -0.06999993 -0.03000021 c -0.5999999 -0.46000004 -1.0999999 -1.1399999 -1.51 -2.0499997 c -0.39 -0.87000036 -0.5899999 -1.6900003 -0.5899999 -2.4800003 v -0.8399999 c 0 -0.78999996 0.19999993 -1.6099999 0.5899999 -2.48 c 0.4100001 -0.90999997 0.9100001 -1.59 1.51 -2.0500002 c 0.029999971 -0.01999998 0.059999943 -0.029999971 0.06999993 -0.029999971 Z "/>
        </symbol>
        <symbol id="gDECE3A5BAAC29CEE3940DE0ED7B22D29" overflow="visible">
            <path d="M 0 0m 2.69 6.66 c -0.4100001 -0.42000008 -1.0100001 -0.6300001 -1.8000001 -0.6300001 v -0.38999987 c 0.52 0 0.9499999 0.07999992 1.2799999 0.23999977 v -5.0599995 c 0 -0.18 -0.03999996 -0.3 -0.12999988 -0.35 c -0.09000003 -0.050000012 -0.34000003 -0.08000001 -0.74 -0.08000001 h -0.34999996 v -0.39 c 0.24999994 0.02 0.79 0.03 1.6199999 0.03 c 0.8299999 0 1.3699999 -0.01 1.6200001 -0.03 v 0.39 h -0.35000014 c -0.4100001 0 -0.6600001 0.030000001 -0.74 0.08000001 c -0.07999992 0.049999982 -0.12999988 0.16999999 -0.12999988 0.35 v 5.5399995 c 0 0.24000025 -0.01999998 0.3000002 -0.27999997 0.3000002 Z "/>
        </symbol>
        <symbol id="g8493D600BB45F339BE5EE97313DFC75" overflow="visible">
            <path d="M 0 0m 1.39 1.06 c -0.32000005 0 -0.53000003 -0.23999995 -0.53000003 -0.55999994 c 0 -0.3 0.23000008 -0.55 0.53000003 -0.55 c 0.13999999 0 0.26 0.04 0.35000002 0.13 l 0.00999999 -0.08 c 0 -0.63 -0.21000004 -1.17 -0.63 -1.5999999 c -0.07000005 -0.08000004 -0.110000014 -0.1400001 -0.110000014 -0.18000007 c 0 -0.100000024 0.03999996 -0.14999998 0.13 -0.14999998 c 0.09000003 0 0.21000004 0.120000005 0.38 0.35000002 c 0.34000003 0.4799999 0.51 1.01 0.51 1.5799999 c 0 0.53 -0.18000007 1.06 -0.64 1.06 Z "/>
        </symbol>
        <symbol id="gED56789099100826EE4E845A642C587" overflow="visible">
            <path d="M 0 0m 2.49 -0.22 c 1.4099998 0 2.11 1.14 2.11 3.4199998 c 0 1.5300002 -0.32000017 2.5500002 -0.95000005 3.0500002 c -0.3499999 0.26999998 -0.74 0.40999985 -1.1499999 0.40999985 c -1.41 0 -2.1100001 -1.1500001 -2.1100001 -3.46 c 0 -1.8399998 0.49 -3.4199998 2.1 -3.4199998 Z m 1.1199999 5.4599996 c 0.06999993 -0.3499999 0.099999905 -0.9899998 0.099999905 -1.9199998 c 0 -0.9200001 -0.03999996 -1.6 -0.109999895 -2.04 c -0.12999988 -0.79999995 -0.5 -1.1999999 -1.1099999 -1.1999999 c -0.23000002 0 -0.46000004 0.09 -0.6700001 0.26 c -0.26999998 0.22999999 -0.42999995 0.6999999 -0.5 1.42 c -0.029999971 0.25 -0.03999996 0.77 -0.03999996 1.56 c 0 0.8700001 0.029999971 1.4799998 0.08000004 1.8100002 c 0.089999914 0.5499997 0.26999998 0.8999996 0.54999995 1.0499997 c 0.21999991 0.119999886 0.40999997 0.17999983 0.58000004 0.17999983 c 0.64999986 0 1.01 -0.52999973 1.1199999 -1.1199999 Z "/>
        </symbol>
        <symbol id="gE8406A7677610853773AC8C9CC50DC4F" overflow="visible">
            <path d="M 0 0m 0.78 -2.45 c 0.6 0.46000004 1.1 1.1400001 1.51 2.0500002 c 0.38999987 0.87 0.5899999 1.6899999 0.5899999 2.48 v 0.8399999 c 0 0.78999996 -0.20000005 1.6099999 -0.5899999 2.4800003 c -0.40999997 0.90999985 -0.90999997 1.5899997 -1.51 2.0499997 c -0.029999971 0.01999998 -0.060000002 0.03000021 -0.06999999 0.03000021 c -0.089999974 0 -0.13999999 -0.05000019 -0.13999999 -0.14000034 c 0 -0.03999996 0.01999998 -0.07999992 0.050000012 -0.10999966 c 0.52 -0.4000001 0.93999994 -1.06 1.25 -1.9700003 c 0.26999986 -0.78999996 0.40999997 -1.5699999 0.40999997 -2.34 v -0.8399999 c 0 -0.77 -0.1400001 -1.55 -0.40999997 -2.34 c -0.31000006 -0.90999997 -0.73 -1.5699999 -1.25 -1.97 c -0.030000031 -0.03999996 -0.050000012 -0.07999992 -0.050000012 -0.109999895 c 0 -0.089999914 0.050000012 -0.1400001 0.13999999 -0.1400001 c 0.00999999 0 0.04000002 0.00999999 0.06999999 0.029999971 Z "/>
        </symbol>
        <symbol id="g26F15E84546DAAA0A9C49D79801C5D86" overflow="visible">
            <path d="M 0 0m 1.9768 1.9768 c 0.37520003 0.15120006 0.7335999 0.48160005 0.7335999 0.9575999 c 0 0.2520001 -0.13439989 0.45359993 -0.39759994 0.5992 c -0.2184 0.12319994 -0.4648 0.18479991 -0.7392 0.18479991 c -0.2744 0 -0.5152 -0.055999994 -0.72239995 -0.17359996 c -0.25200003 -0.13999987 -0.3808 -0.33599997 -0.3808 -0.5879998 c 0 -0.21280003 0.10640001 -0.31920004 0.3136 -0.31920004 c 0.17359996 0 0.30239993 0.13439989 0.30239993 0.30799985 c 0 0.1736002 -0.08959997 0.2744 -0.26319993 0.3024001 c 0.1624 0.17359996 0.4031999 0.26320004 0.7335999 0.26320004 c 0.36400008 0 0.57120013 -0.2184 0.57120013 -0.5768001 c 0 -0.26320004 -0.07280016 -0.47599983 -0.21280015 -0.6439998 c -0.15679991 -0.18480015 -0.2687999 -0.21280003 -0.5935999 -0.23520017 c -0.15120006 -0.011199951 -0.25199997 0.0055999756 -0.25199997 -0.106399894 c 0 -0.067200065 0.055999994 -0.10080004 0.1624 -0.10080004 h 0.2967999 c 0.48159993 0 0.7168001 -0.36399996 0.7168001 -0.868 c 0 -0.49279997 -0.22399998 -0.868 -0.6944001 -0.868 c -0.4088 0 -0.70559996 0.111999996 -0.89039993 0.3416 c 0.19599998 0.022399992 0.29679996 0.13440001 0.29679996 0.3304 c 0 0.18479997 -0.13999999 0.32479995 -0.32479995 0.32479995 c -0.2184 0 -0.3304 -0.11199999 -0.3304 -0.34159994 c 0 -0.2856 0.14559999 -0.5152 0.43119997 -0.6776 c 0.24080002 -0.1344 0.51519996 -0.20159999 0.8288 -0.20159999 c 0.34159994 0 0.63839996 0.095199995 0.896 0.28559998 c 0.27999997 0.20719999 0.41999984 0.47599998 0.41999984 0.80639994 c 0 0.52079993 -0.45359993 0.8791999 -0.9015999 0.9968 Z "/>
        </symbol>
        <symbol id="gA7CA430C16676CFA219F1D31BDD88E37" overflow="visible">
            <path d="M 0 0m 3.53 6.77 c -0.09000015 0 -0.17000008 -0.05000019 -0.23000002 -0.14000034 l -3.02 -4.6399994 v -0.36 h 2.61 v -0.82 c 0 -0.18 -0.03999996 -0.3 -0.109999895 -0.35000002 c -0.06999993 -0.049999982 -0.26 -0.06999999 -0.5899999 -0.06999999 h -0.25000012 v -0.39 c 0.29000008 0.02 0.7500001 0.03 1.37 0.03 c 0.6199999 0 1.0799999 -0.01 1.3699999 -0.03 v 0.39 h -0.25 c -0.32999992 0 -0.52 0.02000001 -0.5899999 0.06999999 c -0.06999993 0.050000012 -0.109999895 0.17000002 -0.109999895 0.35000002 v 0.82 h 0.98 v 0.39 h -0.98 v 4.58 c 0 0.099999905 -0.07000017 0.17000008 -0.20000005 0.17000008 Z m -0.5799999 -1.2400002 v -3.5099998 h -2.2800002 Z "/>
        </symbol>
        <symbol id="g91EFFF08AA08229DB781E7C5CBB2B49B" overflow="visible">
            <path d="M 0 0m 2.37 6.66 c -0.5099999 0 -0.93999994 -0.17999983 -1.31 -0.53999996 c -0.36999995 -0.36000013 -0.55999994 -0.7800002 -0.55999994 -1.29 c 0 -0.34000015 0.25 -0.59000015 0.55999994 -0.59000015 c 0.30000007 0 0.5500001 0.26000023 0.5500001 0.55999994 c 0 0.3300004 -0.24000001 0.55999994 -0.56000006 0.55999994 c -0.029999971 0 -0.049999952 0 -0.06999999 -0.009999752 c 0.19 0.48999977 0.63000005 0.9200001 1.26 0.9200001 c 0.81999993 0 1.28 -0.71000004 1.28 -1.5700002 c 0 -0.6700001 -0.34000015 -1.3899999 -1.02 -2.1499999 l -1.88 -2.12 c -0.13000003 -0.14999998 -0.120000005 -0.13999999 -0.120000005 -0.42999998 h 3.71 l 0.28999996 1.8 h -0.32999992 c -0.0800004 -0.51 -0.1500001 -0.79999995 -0.21000028 -0.89 c -0.049999952 -0.050000012 -0.3499999 -0.06999999 -0.89999986 -0.06999999 h -1.67 l 0.9699999 0.95 c 0.68000007 0.63999987 1.54 1.3299999 1.8300002 1.8599999 c 0.19999981 0.35000014 0.2999997 0.70000005 0.2999997 1.05 c 0 1.1799998 -0.91999984 1.96 -2.12 1.96 Z "/>
        </symbol>
        <symbol id="gB9BF39312108C6173BAA341B6CC29489" overflow="visible">
            <path d="M 0 0m 3.03 3.53 c 0.65999985 0.25 1.28 0.8799999 1.28 1.7299998 c 0 0.4300003 -0.21000004 0.7800002 -0.6200001 1.0500002 c -0.3599999 0.23000002 -0.77 0.3499999 -1.2299998 0.3499999 c -0.45000005 0 -0.84000003 -0.119999886 -1.19 -0.3499999 c -0.39 -0.26000023 -0.59 -0.5999999 -0.59 -1.0300002 c 0 -0.32999992 0.21999997 -0.55999994 0.54 -0.55999994 c 0.31999993 0 0.53999996 0.23000002 0.53999996 0.5500002 c 0 0.32999992 -0.19000006 0.50999975 -0.57000005 0.52999973 c 0.26 0.35000038 0.6700001 0.5300002 1.2299999 0.5300002 c 0.60000014 0 0.9000001 -0.3499999 0.9000001 -1.06 c 0 -0.42000008 -0.07999992 -0.77 -0.23000002 -1.06 c -0.26999998 -0.48000002 -0.63999987 -0.5700002 -1.26 -0.5700002 c -0.120000005 -0.01999998 -0.17999995 -0.06999993 -0.17999995 -0.15999985 c 0 -0.1500001 0.06999993 -0.1500001 0.26999998 -0.1500001 h 0.42999995 c 0.75 0 1.1300001 -0.53 1.1300001 -1.5999999 c 0 -0.85 -0.31000018 -1.59 -1.0700002 -1.59 c -0.64999986 0 -1.1299999 0.21999998 -1.4199998 0.65999997 c 0.34999996 -0.00999999 0.60999995 0.25 0.60999995 0.59000003 c 0 0.34000003 -0.24999988 0.5899999 -0.5899999 0.5899999 c -0.39 0 -0.59000003 -0.19999993 -0.59000003 -0.6099999 c 0 -0.49 0.22 -0.88 0.65999997 -1.19 c 0.39 -0.26999998 0.85 -0.39999998 1.3600001 -0.39999998 c 0.56999993 0 1.06 0.19 1.4899998 0.56 c 0.4300003 0.36999997 0.63999987 0.8299999 0.63999987 1.39 c 0 0.9399998 -0.7399998 1.5899999 -1.5399997 1.8 Z "/>
        </symbol>
        <symbol id="gC2E9FB4FECDB73B50E628D2643583A5F" overflow="visible">
            <path d="M 0 0m 0.66639996 2.3744 c 0.1792 0 0.3136 0.13440013 0.3136 0.31360006 c 0 0.20159984 -0.10640001 0.30799985 -0.3136 0.31359982 c 0.1232 0.26320004 0.40320003 0.47600007 0.7672 0.47600007 c 0.4928 0 0.8176 -0.36960006 0.8176 -0.86240005 c 0 -0.26879978 -0.09520006 -0.52639985 -0.29120004 -0.7783998 c -0.09519994 -0.12880003 -0.16799998 -0.2184 -0.2184 -0.26880002 l -1.3271999 -1.316 c -0.07279998 -0.067200005 -0.0616 -0.08400001 -0.0616 -0.252 h 2.3072 l 0.17359996 1.0527999 h -0.23519993 c -0.039200068 -0.29679996 -0.08399987 -0.47039998 -0.13439989 -0.5096 c -0.028000116 -0.016799986 -0.20160007 -0.027999997 -0.53200006 -0.027999997 h -0.95199996 c 0.37519997 0.3304 0.7224 0.62719995 1.0527999 0.8904 c 0.25199986 0.19599998 0.43120003 0.36959994 0.5432 0.5208 c 0.16799998 0.2184 0.25199986 0.44799995 0.25199986 0.68879986 c 0 0.34720016 -0.13439989 0.62160015 -0.4087999 0.8232 c -0.2407999 0.18480015 -0.5432 0.27999997 -0.9016 0.27999997 c -0.30799997 0 -0.57119995 -0.08959985 -0.80079997 -0.26879978 c -0.2408 -0.1960001 -0.364 -0.44239998 -0.364 -0.7448001 c 0 -0.19039989 0.14000002 -0.3304 0.31359997 -0.3304 Z "/>
        </symbol>
        <symbol id="g1E69038C0BE9C5622EC83EC5CDC6EF77" overflow="visible">
            <path d="M 0 0m 2.5755002 3.0005002 c 0.5609999 0.21249986 1.088 0.7479999 1.088 1.4705 c 0 0.36549997 -0.17850018 0.6630001 -0.5270002 0.8924999 c -0.306 0.19550037 -0.6545 0.29750013 -1.0455 0.29750013 c -0.38249993 0 -0.714 -0.10199976 -1.0115 -0.29750013 c -0.33150005 -0.22099972 -0.50150007 -0.50999975 -0.50150007 -0.8754997 c 0 -0.28049994 0.18700004 -0.4760003 0.45900005 -0.4760003 c 0.27199996 0 0.459 0.19550037 0.459 0.4675002 c 0 0.28049994 -0.16149998 0.4334998 -0.48450005 0.4505 c 0.22100008 0.29750013 0.5695001 0.4505 1.0455002 0.4505 c 0.51 0 0.7650001 -0.29750013 0.7650001 -0.901 c 0 -0.35699987 -0.06800008 -0.6545 -0.19550014 -0.901 c -0.22950006 -0.408 -0.5439999 -0.48450017 -1.0710001 -0.48450017 c -0.102 -0.01699996 -0.153 -0.05949998 -0.153 -0.13599992 c 0 -0.12750006 0.0595001 -0.12750006 0.22950006 -0.12750006 h 0.36549997 c 0.63750017 0 0.9605001 -0.4505 0.9605001 -1.36 c 0 -0.7225001 -0.26349998 -1.3515002 -0.9095001 -1.3515002 c -0.5525 0 -0.9605 0.18700002 -1.207 0.56100005 c 0.2975 -0.00850004 0.5185001 0.21249998 0.5185001 0.5015 c 0 0.28900003 -0.2125001 0.5015 -0.50150007 0.5015 c -0.33150005 0 -0.5015 -0.16999996 -0.5015 -0.5185 c 0 -0.4165001 0.187 -0.7480001 0.561 -1.0115001 c 0.3315 -0.22950003 0.7225 -0.34000003 1.1560001 -0.34000003 c 0.48449993 0 0.901 0.1615 1.2665 0.476 c 0.36549997 0.3145 0.54400015 0.7055 0.54400015 1.1815001 c 0 0.7989999 -0.6290002 1.3515002 -1.309 1.5300001 Z "/>
        </symbol>
    </defs>
</svg>
