<svg viewBox="0 0 233.847220473 153.522037721" width="233.847220473pt" height="153.522037721pt" xmlns="http://www.w3.org/2000/svg" xmlns:xlink="http://www.w3.org/1999/xlink" xmlns:h5="http://www.w3.org/1999/xhtml"><g transform="translate(4.251968504 4.251968504)"><g><path fill="none" stroke="#000000" stroke-width="0.7" stroke-linecap="round" stroke-linejoin="miter" stroke-miterlimit="4" transform="translate(126.162746062 7.838526783)" d="M 0 0m 0 15.660068904l 68.507338213 -15.660068904"/><path fill="none" stroke="#000000" stroke-width="0.7" stroke-linecap="round" stroke-linejoin="miter" stroke-miterlimit="4" transform="translate(192.758167024 7.838526823)" d="M 0 0m 1.911917543 0c -1.231177094 0.947312438 -1.940222727 2.422312459 -1.911051315 3.975485637"/><path fill="none" stroke="#000000" stroke-width="0.7" stroke-linecap="round" stroke-linejoin="miter" stroke-miterlimit="4" transform="translate(191.221577868 5.088180531)" d="M 0 0m 3.448506699 2.750346292c -1.520485463 -0.318310932 -2.799963725 -1.338755026 -3.448506699 -2.750346292"/><path fill="none" transform="translate(152.218489666)" d="M 0 0h 15.4v 12.705h -15.4v -12.705Z "/><g transform="translate(152.218489634 -4.7e-8)"><g><g><g transform="matrix(1 0 0 -1 2.2 10.219)"><use xlink:href="#gA2EFDEEB9573E0AC1A5B8CF79E5991E4" x="0" y="0" fill="#000000" fill-rule="nonzero"/></g></g></g></g><path fill="none" stroke="#1971c2" stroke-width="1.7" stroke-linecap="round" stroke-linejoin="miter" stroke-miterlimit="4" transform="translate(126.16270541 30.864715473)" d="M 0 0l 68.008953488 15.546878394"/><path fill="none" stroke="#1971c2" stroke-width="1.7" stroke-linecap="round" stroke-linejoin="miter" stroke-miterlimit="4" transform="translate(185.796644313 46.411593658)" d="M 0 0m 8.375014585 0c -3.692615969 0.773002963 -6.799946198 3.251192698 -8.375014585 6.679327154"/><path fill="none" stroke="#1971c2" stroke-width="1.7" stroke-linecap="round" stroke-linejoin="miter" stroke-miterlimit="4" transform="translate(189.528526961 36.756793878)" d="M 0 0m 4.643131936 9.65479978c -2.989978237 -2.300646957 -4.711909589 -5.882808027 -4.641025936 -9.65479978"/><path fill="none" transform="translate(153.550049513 22.542309571)" d="M 0 0h 15.4v 13.266h -15.4v -13.266Z "/><g transform="translate(153.550049481 22.54230943)"><g><g><g transform="matrix(1 0 0 -1 2.2 10.219)"><use xlink:href="#gE9B8CE0DCE42C890B6FC7B5DC1F78707" x="0" y="0" fill="#000000" fill-rule="nonzero"/></g></g></g></g><path fill="none" stroke="#000000" stroke-width="0.7" stroke-linecap="round" stroke-linejoin="miter" stroke-miterlimit="4" transform="translate(24.801680861 34.247101809)" d="M 0 0m 0 31.493514343l 68.678299234 -31.493514343"/><path fill="none" stroke="#000000" stroke-width="0.7" stroke-linecap="round" stroke-linejoin="miter" stroke-miterlimit="4" transform="translate(92.296709097 34.247101815)" d="M 0 0m 1.183271249 0c -1.012289495 1.178332765 -1.405867821 2.766875221 -1.060789802 4.281510255"/><path fill="none" stroke="#000000" stroke-width="0.7" stroke-linecap="round" stroke-linejoin="miter" stroke-miterlimit="4" transform="translate(89.543351744 32.257237419)" d="M 0 0m 3.936628603 1.989864396c -1.553446162 -0.001773786 -3.014029297 -0.740060952 -3.936628603 -1.989864396"/><path fill="none" transform="translate(39.569414994 31.914959476)" d="M 0 0h 18.48v 15.279h -18.48v -15.279Z "/><g transform="translate(39.569414899 31.914959428)"><g><g><g transform="matrix(1 0 0 -1 2.2 10.219)"><use xlink:href="#gE74C014F4E854F0F2B67D795009F910E" x="0" y="0" fill="#000000" fill-rule="nonzero"/><use xlink:href="#g7E0A1B4947C763ED5F9307004313B0BB" x="7.062" y="0" fill="#000000" fill-rule="nonzero"/></g></g></g></g><path fill="none" stroke="#1971c2" stroke-width="1.7" stroke-linecap="round" stroke-linejoin="miter" stroke-miterlimit="4" transform="translate(126.164689878 98.934644797)" d="M 0 0m 0 15.633455612l 68.545874141 -15.633455612"/><path fill="none" stroke="#1971c2" stroke-width="1.7" stroke-linecap="round" stroke-linejoin="miter" stroke-miterlimit="4" transform="translate(190.062701193 98.934644618)" d="M 0 0m 4.647862681 0c -2.991131876 2.299147401 -4.714859592 5.880444782 -4.645867578 9.652471926"/><path fill="none" stroke="#1971c2" stroke-width="1.7" stroke-linecap="round" stroke-linejoin="miter" stroke-miterlimit="4" transform="translate(186.338899289 92.251117713)" d="M 0 0m 8.371664585 6.683526905c -3.692228158 -0.774854759 -6.798315457 -3.254602702 -8.371664585 -6.683526905"/><path fill="none" transform="translate(152.484898082 91.026976452)" d="M 0 0h 15.4v 12.705h -15.4v -12.705Z "/><g transform="translate(152.484898051 91.026976405)"><g><g><g transform="matrix(1 0 0 -1 2.2 10.219)"><use xlink:href="#gA2EFDEEB9573E0AC1A5B8CF79E5991E4" x="0" y="0" fill="#000000" fill-rule="nonzero"/></g></g></g></g><path fill="none" stroke="#000000" stroke-width="0.7" stroke-linecap="round" stroke-linejoin="miter" stroke-miterlimit="4" transform="translate(126.164689922 121.918290002)" d="M 0 0l 69.033356086 15.744637029"/><path fill="none" stroke="#000000" stroke-width="0.7" stroke-linecap="round" stroke-linejoin="miter" stroke-miterlimit="4" transform="translate(191.750889753 137.662926729)" d="M 0 0m 3.447156074 0c -1.520329063 0.319057434 -2.799306211 1.340129647 -3.447156074 2.752039227"/><path fill="none" stroke="#000000" stroke-width="0.7" stroke-linecap="round" stroke-linejoin="miter" stroke-miterlimit="4" transform="translate(193.284221243 133.688379681)" d="M 0 0m 1.913824584 3.974547048c -1.231642111 -0.946707883 -1.941411884 -2.421359666 -1.91300305 -3.974547048"/><path fill="none" transform="translate(153.81907522 113.638630077)" d="M 0 0h 15.4v 13.266h -15.4v -13.266Z "/><g transform="translate(153.819075188 113.638629935)"><g><g><g transform="matrix(1 0 0 -1 2.2 10.219)"><use xlink:href="#gE9B8CE0DCE42C890B6FC7B5DC1F78707" x="0" y="0" fill="#000000" fill-rule="nonzero"/></g></g></g></g><path fill="none" stroke="#1971c2" stroke-width="1.7" stroke-linecap="round" stroke-linejoin="miter" stroke-miterlimit="4" transform="translate(24.801680794 79.684152172)" d="M 0 0l 68.223806938 31.285099752"/><path fill="none" stroke="#1971c2" stroke-width="1.7" stroke-linecap="round" stroke-linejoin="miter" stroke-miterlimit="4" transform="translate(83.465103135 110.969251862)" d="M 0 0m 9.560384582 0c -3.772655588 0.004308348 -7.319786367 1.797292311 -9.560384582 4.832530091"/><path fill="none" stroke="#1971c2" stroke-width="1.7" stroke-linecap="round" stroke-linejoin="miter" stroke-miterlimit="4" transform="translate(90.151827297 100.571297067)" d="M 0 0m 2.873660419 10.397954795c -2.458418192 -2.861665378 -3.414252023 -6.71955469 -2.576205836 -10.397954795"/><path fill="none" transform="translate(60.550390624 80.192900107)" d="M 0 0h 34.364v 12.584h -34.364v -12.584Z "/><g transform="translate(60.550390561 80.192900044)"><g><g><g transform="matrix(1 0 0 -1 2.2 10.219)"><use xlink:href="#g2ECA6E7BA5E7A3E783EB9E47717D7D2D" x="0" y="0" fill="#000000" fill-rule="nonzero"/><use xlink:href="#g30AFB0A7DB053F0E12E4B72905C14F18" x="6.919" y="0" fill="#000000" fill-rule="nonzero"/><use xlink:href="#g44BF47996AA485E86F3E94A5779BA23D" x="13.475" y="0" fill="#000000" fill-rule="nonzero"/><use xlink:href="#gA19F531596743CDEBFA7ECB17CAF3625" x="22.693" y="0" fill="#000000" fill-rule="nonzero"/></g></g></g></g><path fill="none" transform="translate(0 65.702884177)" d="M 0 0h 17.898v 14.019h -17.898v -14.019Z "/><g transform="translate(-4.7e-8 65.70288413)"><g><g transform="translate(0)"><g><path fill="#f5f5f5" fill-rule="nonzero" d="M 0 0m 0 2.7c 0 -1.491168825 1.208831175 -2.7 2.7 -2.7h 12.498c 1.491168825 0 2.7 1.208831175 2.7 2.7v 8.619c 0 1.491168825 -1.208831175 2.7 -2.7 2.7h -12.498c -1.491168825 0 -2.7 -1.208831175 -2.7 -2.7Z "/><path fill="none" stroke="#000000" stroke-width="0.6" stroke-linecap="butt" stroke-linejoin="miter" stroke-miterlimit="4" d="M 0 0m 2.7 0h 12.498c 1.491168825 0 2.7 1.208831175 2.7 2.7v 8.619c 0 1.491168825 -1.208831175 2.7 -2.7 2.7h -12.498c -1.491168825 0 -2.7 -1.208831175 -2.7 -2.7v -8.619c 0 -1.491168825 1.208831175 -2.7 2.7 -2.7"/><g transform="matrix(1 0 0 -1 5 11.019)"><use xlink:href="#g13C6F56327B440CEE3EF9E0968F3F466" x="0" y="0" fill="#000000" fill-rule="nonzero"/></g></g><g transform="matrix(1 0 0 -1 4.43328 -6.0896)"><use xlink:href="#g8674D8EE7E72420B71D4CABFAFB341ED" x="0" y="0" fill="#333333" fill-rule="nonzero"/></g><g transform="matrix(1 0 0 -1 9.46688 -3.916)"><use xlink:href="#g6628AF3310CEA24A07929B1F774CF236" x="0" y="0" fill="#333333" fill-rule="nonzero"/></g><g transform="matrix(1 0 0 -1 -1.441966667 23.919)"><use xlink:href="#g7BD1AE9DCB73A52C050DA73B6979787D" x="0" y="0" fill="#0b7285" fill-rule="nonzero"/></g><g transform="matrix(1 0 0 -1 2.195183333 23.919)"><use xlink:href="#gED9EFB556777B0F76542AD8D7B5971E" x="0" y="0" fill="#0b7285" fill-rule="nonzero"/></g><g transform="matrix(1 0 0 -1 6.870183333 23.919)"><use xlink:href="#g8BE0ADFBA9F2E97F51B4B214E8FD2115" x="0" y="0" fill="#0b7285" fill-rule="nonzero"/></g><g transform="matrix(1 0 0 -1 11.027816667 23.919)"><use xlink:href="#gE9019CF253EBB2CD2FA0FD644192A245" x="0" y="0" fill="#0b7285" fill-rule="nonzero"/></g><g transform="matrix(1 0 0 -1 15.702816667 23.919)"><use xlink:href="#gCEF9ACA7824883FF508468BD1D3E3F40" x="0" y="0" fill="#0b7285" fill-rule="nonzero"/></g></g></g></g><path fill="none" transform="translate(100.764141732 20.172073154)" d="M 0 0h 17.37v 14.019h -17.37v -14.019Z "/><g transform="translate(100.764141591 20.172073107)"><g><g transform="translate(0)"><g><path fill="#f5f5f5" fill-rule="nonzero" d="M 0 0m 0 2.7c 0 -1.491168825 1.208831175 -2.7 2.7 -2.7h 11.97c 1.491168825 0 2.7 1.208831175 2.7 2.7v 8.619c 0 1.491168825 -1.208831175 2.7 -2.7 2.7h -11.97c -1.491168825 0 -2.7 -1.208831175 -2.7 -2.7Z "/><path fill="none" stroke="#000000" stroke-width="0.6" stroke-linecap="butt" stroke-linejoin="miter" stroke-miterlimit="4" d="M 0 0m 2.7 0h 11.97c 1.491168825 0 2.7 1.208831175 2.7 2.7v 8.619c 0 1.491168825 -1.208831175 2.7 -2.7 2.7h -11.97c -1.491168825 0 -2.7 -1.208831175 -2.7 -2.7v -8.619c 0 -1.491168825 1.208831175 -2.7 2.7 -2.7"/><g transform="matrix(1 0 0 -1 5 11.019)"><use xlink:href="#g152299F2F9213F814422AD9197AB2DB7" x="0" y="0" fill="#000000" fill-rule="nonzero"/></g></g><g transform="matrix(1 0 0 -1 4.16928 -6.0896)"><use xlink:href="#g8674D8EE7E72420B71D4CABFAFB341ED" x="0" y="0" fill="#333333" fill-rule="nonzero"/></g><g transform="matrix(1 0 0 -1 9.20288 -3.916)"><use xlink:href="#gA929DB0B2C612CCF04FAE9F980D3EB7F" x="0" y="0" fill="#333333" fill-rule="nonzero"/></g><g transform="matrix(1 0 0 -1 -1.705966667 23.919)"><use xlink:href="#g7BD1AE9DCB73A52C050DA73B6979787D" x="0" y="0" fill="#0b7285" fill-rule="nonzero"/></g><g transform="matrix(1 0 0 -1 1.931183333 23.919)"><use xlink:href="#gC2A4105F7DC63508ABA0CE27DCCF03D6" x="0" y="0" fill="#0b7285" fill-rule="nonzero"/></g><g transform="matrix(1 0 0 -1 6.606183333 23.919)"><use xlink:href="#g8BE0ADFBA9F2E97F51B4B214E8FD2115" x="0" y="0" fill="#0b7285" fill-rule="nonzero"/></g><g transform="matrix(1 0 0 -1 10.763816667 23.919)"><use xlink:href="#gE9019CF253EBB2CD2FA0FD644192A245" x="0" y="0" fill="#0b7285" fill-rule="nonzero"/></g><g transform="matrix(1 0 0 -1 15.438816667 23.919)"><use xlink:href="#gCEF9ACA7824883FF508468BD1D3E3F40" x="0" y="0" fill="#0b7285" fill-rule="nonzero"/></g></g></g></g><path fill="none" transform="translate(201.011283465 0.406667642)" d="M 0 0h 24.321v 8.019h -24.321v -8.019Z "/><g transform="translate(201.01128337 0.406667642)"><g><g transform="translate(0)"><g transform="matrix(1 0 0 -1 0 8.019)"><use xlink:href="#gDC1EAB04E10EC1B8B94F0A349011F13B" x="0" y="0" fill="#0b7285" fill-rule="nonzero"/><use xlink:href="#g75766F6E01A57B224CE09910F9FB77E3" x="4.114" y="0" fill="#0b7285" fill-rule="nonzero"/><use xlink:href="#gF86A48F242717D43804A8A6D88BD17AE" x="10.351" y="0" fill="#0b7285" fill-rule="nonzero"/><use xlink:href="#gA2FA31ECADA85811599AEEC49126A5AA" x="13.97" y="0" fill="#0b7285" fill-rule="nonzero"/><use xlink:href="#g675FE59FE3A412031AFC8D70B61EB42D" x="20.207" y="0" fill="#0b7285" fill-rule="nonzero"/></g></g></g></g><path fill="none" transform="translate(201.000283465 45.937478666)" d="M 0 0h 24.343v 8.019h -24.343v -8.019Z "/><g transform="translate(201.000283386 45.937478666)"><g><g transform="translate(0)"><g transform="matrix(1 0 0 -1 0 8.019)"><use xlink:href="#gDC1EAB04E10EC1B8B94F0A349011F13B" x="0" y="0" fill="#0b7285" fill-rule="nonzero"/><use xlink:href="#gA2FA31ECADA85811599AEEC49126A5AA" x="4.114" y="0" fill="#0b7285" fill-rule="nonzero"/><use xlink:href="#gF86A48F242717D43804A8A6D88BD17AE" x="10.351" y="0" fill="#0b7285" fill-rule="nonzero"/><use xlink:href="#g8A0424EC54D9B4D30EF352128D2C397E" x="13.97" y="0" fill="#0b7285" fill-rule="nonzero"/><use xlink:href="#g675FE59FE3A412031AFC8D70B61EB42D" x="20.229" y="0" fill="#0b7285" fill-rule="nonzero"/></g></g></g></g><path fill="none" transform="translate(100.764141732 111.233695201)" d="M 0 0h 17.37v 14.019h -17.37v -14.019Z "/><g transform="translate(100.764141591 111.233695154)"><g><g transform="translate(0)"><g><path fill="#f5f5f5" fill-rule="nonzero" d="M 0 0m 0 2.7c 0 -1.491168825 1.208831175 -2.7 2.7 -2.7h 11.97c 1.491168825 0 2.7 1.208831175 2.7 2.7v 8.619c 0 1.491168825 -1.208831175 2.7 -2.7 2.7h -11.97c -1.491168825 0 -2.7 -1.208831175 -2.7 -2.7Z "/><path fill="none" stroke="#000000" stroke-width="0.6" stroke-linecap="butt" stroke-linejoin="miter" stroke-miterlimit="4" d="M 0 0m 2.7 0h 11.97c 1.491168825 0 2.7 1.208831175 2.7 2.7v 8.619c 0 1.491168825 -1.208831175 2.7 -2.7 2.7h -11.97c -1.491168825 0 -2.7 -1.208831175 -2.7 -2.7v -8.619c 0 -1.491168825 1.208831175 -2.7 2.7 -2.7"/><g transform="matrix(1 0 0 -1 5 11.019)"><use xlink:href="#g152299F2F9213F814422AD9197AB2DB7" x="0" y="0" fill="#000000" fill-rule="nonzero"/></g></g><g transform="matrix(1 0 0 -1 4.16928 -6.0896)"><use xlink:href="#g8674D8EE7E72420B71D4CABFAFB341ED" x="0" y="0" fill="#333333" fill-rule="nonzero"/></g><g transform="matrix(1 0 0 -1 9.20288 -3.916)"><use xlink:href="#gD835EBEC661838FE8BAD863F1C15EA0F" x="0" y="0" fill="#333333" fill-rule="nonzero"/></g><g transform="matrix(1 0 0 -1 -1.705966667 23.919)"><use xlink:href="#g7BD1AE9DCB73A52C050DA73B6979787D" x="0" y="0" fill="#0b7285" fill-rule="nonzero"/></g><g transform="matrix(1 0 0 -1 1.931183333 23.919)"><use xlink:href="#gED9EFB556777B0F76542AD8D7B5971E" x="0" y="0" fill="#0b7285" fill-rule="nonzero"/></g><g transform="matrix(1 0 0 -1 6.606183333 23.919)"><use xlink:href="#g8BE0ADFBA9F2E97F51B4B214E8FD2115" x="0" y="0" fill="#0b7285" fill-rule="nonzero"/></g><g transform="matrix(1 0 0 -1 10.763816667 23.919)"><use xlink:href="#gE9019CF253EBB2CD2FA0FD644192A245" x="0" y="0" fill="#0b7285" fill-rule="nonzero"/></g><g transform="matrix(1 0 0 -1 15.438816667 23.919)"><use xlink:href="#gCEF9ACA7824883FF508468BD1D3E3F40" x="0" y="0" fill="#0b7285" fill-rule="nonzero"/></g></g></g></g><path fill="none" transform="translate(201.539283465 91.468289689)" d="M 0 0h 23.265v 8.019h -23.265v -8.019Z "/><g transform="translate(201.539283323 91.468289689)"><g><g transform="translate(0)"><g transform="matrix(1 0 0 -1 0 8.019)"><use xlink:href="#gDC1EAB04E10EC1B8B94F0A349011F13B" x="0" y="0" fill="#0b7285" fill-rule="nonzero"/><use xlink:href="#g80C6F66EFB7D6C0E75FD5D4685C1F7C9" x="4.114" y="0" fill="#0b7285" fill-rule="nonzero"/><use xlink:href="#gF86A48F242717D43804A8A6D88BD17AE" x="9.273" y="0" fill="#0b7285" fill-rule="nonzero"/><use xlink:href="#g8A0424EC54D9B4D30EF352128D2C397E" x="12.892" y="0" fill="#0b7285" fill-rule="nonzero"/><use xlink:href="#g675FE59FE3A412031AFC8D70B61EB42D" x="19.151" y="0" fill="#0b7285" fill-rule="nonzero"/></g></g></g></g><path fill="none" transform="translate(201.539283465 136.999100713)" d="M 0 0h 23.265v 8.019h -23.265v -8.019Z "/><g transform="translate(201.539283323 136.999100713)"><g><g transform="translate(0)"><g transform="matrix(1 0 0 -1 0 8.019)"><use xlink:href="#gDC1EAB04E10EC1B8B94F0A349011F13B" x="0" y="0" fill="#0b7285" fill-rule="nonzero"/><use xlink:href="#g8A0424EC54D9B4D30EF352128D2C397E" x="4.114" y="0" fill="#0b7285" fill-rule="nonzero"/><use xlink:href="#gF86A48F242717D43804A8A6D88BD17AE" x="10.373" y="0" fill="#0b7285" fill-rule="nonzero"/><use xlink:href="#g80C6F66EFB7D6C0E75FD5D4685C1F7C9" x="13.992" y="0" fill="#0b7285" fill-rule="nonzero"/><use xlink:href="#g675FE59FE3A412031AFC8D70B61EB42D" x="19.151" y="0" fill="#0b7285" fill-rule="nonzero"/></g></g></g></g></g></g><defs><symbol id="gA2EFDEEB9573E0AC1A5B8CF79E5991E4" overflow="visible"><path d="M 0 0m 0.451 0.044l 0.099 -0.33h 9.702c 0.165 0 0.275 0.055 0.308 0.176c -0.407 0.363 -1.056 0.858 -1.056 0.858l -0.572 -0.704h -3.377v 4.741h 3.828c 0.154 0 0.264 0.055 0.297 0.176c -0.396 0.363 -1.034 0.858 -1.034 0.858l -0.572 -0.704h -2.519v 3.564c 0.264 0.044 0.363 0.154 0.385 0.308l -1.144 0.132v -9.075Z "/></symbol><symbol id="gE9B8CE0DCE42C890B6FC7B5DC1F78707" overflow="visible"><path d="M 0 0m 9.493 8.965l -0.594 -0.737h -8.448l 0.099 -0.319h 4.323v -8.756h 0.132c 0.352 0 0.605 0.187 0.605 0.253v 6.083c 1.177 -0.649 2.706 -1.727 3.311 -2.618c 1.045 -0.44 1.1 1.661 -3.311 2.86v 2.178h 4.675c 0.165 0 0.264 0.055 0.297 0.176c -0.418 0.363 -1.089 0.88 -1.089 0.88Z "/></symbol><symbol id="gE74C014F4E854F0F2B67D795009F910E" overflow="visible"><path d="M 0 0m 5.016 -0.099l 1.694 0.099v 0.297l -0.836 0.088v 3.795l 0.044 1.441l -0.11 0.132l -1.705 -0.187v -0.286l 0.891 -0.099l -0.011 -3.784c -0.506 -0.594 -1.1 -0.946 -1.727 -0.946c -0.715 0 -1.1 0.407 -1.1 1.584v 2.145l 0.044 1.441l -0.11 0.132l -1.727 -0.176v -0.286l 0.913 -0.121l -0.033 -3.124c -0.011 -1.639 0.583 -2.211 1.628 -2.211c 0.869 0 1.562 0.473 2.123 1.177Z "/></symbol><symbol id="g7E0A1B4947C763ED5F9307004313B0BB" overflow="visible"><path d="M 0 0m 4.037 -0.165c 1.419 0 2.442 1.177 2.442 3.058c 0 1.804 -0.957 2.948 -2.299 2.948c -0.671 0 -1.342 -0.275 -1.892 -0.935l -0.055 0.814l -0.143 0.088l -1.694 -0.44v -0.286l 0.979 -0.044c 0.022 -0.55 0.033 -1.133 0.033 -1.881v -3.454l -0.022 -2.167l -0.935 -0.088v -0.308h 2.937v 0.308l -1.067 0.088l -0.022 2.167v 0.935c 0.528 -0.605 1.144 -0.803 1.738 -0.803Z m -1.716 4.785c 0.55 0.55 1.023 0.715 1.507 0.715c 1.001 0 1.683 -0.792 1.683 -2.464c 0 -1.826 -0.781 -2.508 -1.738 -2.508c -0.539 0 -0.979 0.143 -1.452 0.605Z "/></symbol><symbol id="g2ECA6E7BA5E7A3E783EB9E47717D7D2D" overflow="visible"><path d="M 0 0m 4.752 -0.11l 1.881 0.11v 0.308l -1.034 0.066v 6.71l 0.033 1.672l -0.154 0.099l -1.749 -0.33v -0.297l 1.001 -0.055v -3.168c -0.506 0.594 -1.056 0.836 -1.639 0.836c -1.43 0 -2.563 -1.177 -2.563 -3.069c 0 -1.749 1.012 -2.937 2.409 -2.937c 0.693 0 1.309 0.286 1.782 0.88Z m -0.044 1.177c -0.462 -0.506 -0.891 -0.704 -1.452 -0.704c -1.001 0 -1.76 0.759 -1.76 2.431c 0 1.804 0.836 2.541 1.837 2.541c 0.495 0 0.902 -0.198 1.375 -0.671Z "/></symbol><symbol id="g30AFB0A7DB053F0E12E4B72905C14F18" overflow="visible"><path d="M 0 0m 3.267 -0.165c 1.463 0 2.75 1.012 2.75 3.003c 0 1.98 -1.331 3.003 -2.75 3.003c -1.408 0 -2.739 -1.034 -2.739 -3.003c 0 -1.98 1.287 -3.003 2.739 -3.003Z m 0 0.341c -1.089 0 -1.76 0.935 -1.76 2.651c 0 1.716 0.671 2.662 1.76 2.662c 1.089 0 1.76 -0.946 1.76 -2.662c 0 -1.716 -0.671 -2.651 -1.76 -2.651Z "/></symbol><symbol id="g44BF47996AA485E86F3E94A5779BA23D" overflow="visible"><path d="M 0 0m 6.963 5.357l 1.001 -0.099l -1.298 -4.246l -1.485 4.257l 0.891 0.088v 0.319h -2.464v -0.319l 0.869 -0.088l -1.496 -4.257l -1.364 4.268l 0.979 0.077v 0.319h -2.651v -0.319l 0.726 -0.077l 1.859 -5.335h 0.407l 1.672 4.675l 1.606 -4.675h 0.407l 1.771 5.313l 0.759 0.099v 0.319h -2.189Z "/></symbol><symbol id="gA19F531596743CDEBFA7ECB17CAF3625" overflow="visible"><path d="M 0 0m 5.104 0h 1.793v 0.308l -0.847 0.088l -0.022 2.123v 1.243c 0 1.485 -0.572 2.079 -1.54 2.079c -0.726 0 -1.452 -0.352 -2.2 -1.199l -0.055 1.078l -0.143 0.088l -1.694 -0.44v -0.286l 0.968 -0.044c 0.022 -0.55 0.033 -1.1 0.033 -1.859v -0.66l -0.022 -2.123l -0.913 -0.088v -0.308h 2.695v 0.308l -0.836 0.088l -0.022 2.123v 1.771c 0.726 0.737 1.364 0.957 1.826 0.957c 0.638 0 1.012 -0.374 1.012 -1.463v -1.265l -0.022 -2.112l -0.913 -0.099v -0.308Z "/></symbol><symbol id="g13C6F56327B440CEE3EF9E0968F3F466" overflow="visible"><path d="M 0 0m 3.652 7.073l 1.298 -3.982h -2.574Z m 0.946 -7.073h 3.223v 0.33l -1.012 0.088l -2.585 7.656h -0.616l -2.541 -7.634l -0.935 -0.11v -0.33h 2.464v 0.33l -1.067 0.11l 0.737 2.299h 2.805l 0.748 -2.31l -1.221 -0.099Z "/></symbol><symbol id="g8674D8EE7E72420B71D4CABFAFB341ED" overflow="visible"><path d="M 0 0m 4.6376 3.2824c 0 0.4048 -0.396 0.6072 -0.836 0.6072c -0.3784 0 -0.6776 -0.2024 -0.9064 -0.6072c -0.1848 0.4048 -0.4928 0.6072 -0.9416 0.6072c -0.4312 0 -0.7832 -0.2024 -1.0648 -0.5984c -0.2376 -0.3432 -0.3608 -0.5984 -0.3608 -0.7656c 0 -0.0792 0.044 -0.1232 0.132 -0.1232c 0.0792 0 0.132 0.044 0.1496 0.1232c 0.1672 0.5104 0.5368 1.1088 1.1264 1.1088c 0.2904 0 0.4312 -0.1848 0.4312 -0.5456c 0 -0.1848 -0.1584 -0.8712 -0.4664 -2.0504c -0.1496 -0.5896 -0.4136 -0.88 -0.792 -0.88c -0.1232 0 -0.2376 0.0264 -0.3344 0.0704c 0.2288 0.088 0.3432 0.2464 0.3432 0.4752c 0 0.2288 -0.1144 0.3432 -0.352 0.3432c -0.2904 0 -0.5104 -0.2464 -0.5104 -0.5368c 0 -0.4048 0.4136 -0.6072 0.8448 -0.6072c 0.3696 0 0.6688 0.2024 0.9064 0.6072c 0.1672 -0.4048 0.484 -0.6072 0.9416 -0.6072c 0.4224 0 0.7744 0.2024 1.056 0.5984c 0.2376 0.3432 0.3608 0.5984 0.3608 0.7656c 0 0.0792 -0.044 0.1232 -0.132 0.1232c -0.0792 0 -0.1232 -0.044 -0.1496 -0.1232c -0.1496 -0.5016 -0.5456 -1.1088 -1.1176 -1.1088c -0.2904 0 -0.44 0.176 -0.44 0.5368c 0 0.1144 0.044 0.3608 0.1408 0.7568l 0.2992 1.188c 0.1672 0.66 0.44 0.9944 0.8272 0.9944c 0.1232 0 0.2376 -0.0264 0.3344 -0.0704c -0.2376 -0.0792 -0.352 -0.2376 -0.352 -0.4752c 0 -0.2288 0.1232 -0.3432 0.3608 -0.3432c 0.2816 0 0.5016 0.2552 0.5016 0.5368Z "/></symbol><symbol id="g6628AF3310CEA24A07929B1F774CF236" overflow="visible"><path d="M 0 0m 3.17856 1.96504c 0 0.69608 -0.1232 1.22584 -0.36344 1.58928c -0.19712 0.308 -0.59136 0.53592 -1.06568 0.53592c -0.19712 0 -0.37576 -0.0308 -0.52976 -0.09856c -0.6776 -0.28336 -0.89936 -1.07184 -0.89936 -2.02664c 0 -0.20944 0.01232 -0.40656 0.0308 -0.59752c 0.10472 -0.80696 0.48048 -1.49072 1.39832 -1.49072c 0.19712 0 0.37576 0.0308 0.52976 0.09856c 0.6776 0.2772 0.89936 1.0472 0.89936 1.98968Z m -0.70224 1.36752c 0.06776 -0.22792 0.10472 -0.65296 0.10472 -1.28744c 0 -0.60368 -0.02464 -1.02872 -0.08008 -1.28128c -0.07392 -0.36344 -0.33264 -0.66528 -0.75152 -0.66528c -0.154 0 -0.308 0.04928 -0.44968 0.154c -0.19096 0.14168 -0.308 0.41888 -0.35728 0.84392c -0.01848 0.14168 -0.02464 0.45584 -0.02464 0.94864c 0 0.59752 0.0308 1.01024 0.0924 1.232c 0.10472 0.39424 0.35112 0.59136 0.7392 0.59136c 0.3696 0 0.64064 -0.24024 0.72688 -0.53592Z "/></symbol><symbol id="g7BD1AE9DCB73A52C050DA73B6979787D" overflow="visible"><path d="M 0 0m 2.9733 -2.3188c 0.08415 0 0.1309 0.04675 0.1309 0.1309c 0 0.02805 -0.0187 0.06545 -0.04675 0.10285c -0.4862 0.374 -0.8789 0.9911 -1.16875 1.84195c -0.25245 0.73865 -0.38335 1.46795 -0.38335 2.1879v 0.7854c 0 0.71995 0.1309 1.44925 0.38335 2.1879c 0.28985 0.85085 0.68255 1.46795 1.16875 1.84195c 0.02805 0.02805 0.04675 0.06545 0.04675 0.10285c 0 0.08415 -0.04675 0.1309 -0.1309 0.1309c -0.00935 0 -0.0374 -0.00935 -0.06545 -0.02805c -0.561 -0.4301 -1.0285 -1.0659 -1.41185 -1.91675c -0.36465 -0.81345 -0.55165 -1.58015 -0.55165 -2.3188v -0.7854c 0 -0.73865 0.187 -1.50535 0.55165 -2.3188c 0.38335 -0.85085 0.85085 -1.48665 1.41185 -1.91675c 0.02805 -0.0187 0.0561 -0.02805 0.06545 -0.02805Z "/></symbol><symbol id="gED9EFB556777B0F76542AD8D7B5971E" overflow="visible"><path d="M 0 0m 2.51515 6.2271c -0.38335 -0.3927 -0.94435 -0.58905 -1.683 -0.58905v -0.36465c 0.4862 0 0.88825 0.0748 1.1968 0.2244v -4.7311c 0 -0.1683 -0.0374 -0.2805 -0.12155 -0.32725c -0.08415 -0.04675 -0.3179 -0.0748 -0.6919 -0.0748h -0.32725v -0.36465c 0.23375 0.0187 0.73865 0.02805 1.5147 0.02805c 0.77605 0 1.28095 -0.00935 1.5147 -0.02805v 0.36465h -0.32725c -0.38335 0 -0.6171 0.02805 -0.6919 0.0748c -0.0748 0.04675 -0.12155 0.15895 -0.12155 0.32725v 5.1799c 0 0.2244 -0.0187 0.2805 -0.2618 0.2805Z "/></symbol><symbol id="g8BE0ADFBA9F2E97F51B4B214E8FD2115" overflow="visible"><path d="M 0 0m 1.29965 0.9911c -0.2992 0 -0.49555 -0.2244 -0.49555 -0.5236c 0 -0.2805 0.21505 -0.51425 0.49555 -0.51425c 0.1309 0 0.2431 0.0374 0.32725 0.12155l 0.00935 -0.0748c 0 -0.58905 -0.19635 -1.09395 -0.58905 -1.496c -0.06545 -0.0748 -0.10285 -0.1309 -0.10285 -0.1683c 0 -0.0935 0.0374 -0.14025 0.12155 -0.14025c 0.08415 0 0.19635 0.1122 0.3553 0.32725c 0.3179 0.4488 0.47685 0.94435 0.47685 1.4773c 0 0.49555 -0.1683 0.9911 -0.5984 0.9911Z "/></symbol><symbol id="gE9019CF253EBB2CD2FA0FD644192A245" overflow="visible"><path d="M 0 0m 2.21595 6.2271c -0.47685 0 -0.8789 -0.1683 -1.22485 -0.5049c -0.34595 -0.3366 -0.5236 -0.7293 -0.5236 -1.20615c 0 -0.3179 0.23375 -0.55165 0.5236 -0.55165c 0.2805 0 0.51425 0.2431 0.51425 0.5236c 0 0.30855 -0.2244 0.5236 -0.5236 0.5236c -0.02805 0 -0.04675 0 -0.06545 -0.00935c 0.17765 0.45815 0.58905 0.8602 1.1781 0.8602c 0.7667 0 1.1968 -0.66385 1.1968 -1.46795c 0 -0.62645 -0.3179 -1.29965 -0.9537 -2.01025l -1.7578 -1.9822c -0.12155 -0.14025 -0.1122 -0.1309 -0.1122 -0.40205h 3.46885l 0.27115 1.683h -0.30855c -0.0748 -0.47685 -0.14025 -0.748 -0.19635 -0.83215c -0.04675 -0.04675 -0.32725 -0.06545 -0.8415 -0.06545h -1.56145l 0.90695 0.88825c 0.6358 0.5984 1.4399 1.24355 1.71105 1.7391c 0.187 0.32725 0.2805 0.6545 0.2805 0.98175c 0 1.1033 -0.8602 1.8326 -1.9822 1.8326Z "/></symbol><symbol id="gCEF9ACA7824883FF508468BD1D3E3F40" overflow="visible"><path d="M 0 0m 0.7293 -2.29075c 0.561 0.4301 1.0285 1.0659 1.41185 1.91675c 0.36465 0.81345 0.55165 1.58015 0.55165 2.3188v 0.7854c 0 0.73865 -0.187 1.50535 -0.55165 2.3188c -0.38335 0.85085 -0.85085 1.48665 -1.41185 1.91675c -0.02805 0.0187 -0.0561 0.02805 -0.06545 0.02805c -0.08415 0 -0.1309 -0.04675 -0.1309 -0.1309c 0 -0.0374 0.0187 -0.0748 0.04675 -0.10285c 0.4862 -0.374 0.8789 -0.9911 1.16875 -1.84195c 0.25245 -0.73865 0.38335 -1.46795 0.38335 -2.1879v -0.7854c 0 -0.71995 -0.1309 -1.44925 -0.38335 -2.1879c -0.28985 -0.85085 -0.68255 -1.46795 -1.16875 -1.84195c -0.02805 -0.0374 -0.04675 -0.0748 -0.04675 -0.10285c 0 -0.08415 0.04675 -0.1309 0.1309 -0.1309c 0.00935 0 0.0374 0.00935 0.06545 0.02805Z "/></symbol><symbol id="g152299F2F9213F814422AD9197AB2DB7" overflow="visible"><path d="M 0 0m 0.583 7.678l 1.133 -0.088c 0.011 -1.089 0.011 -2.178 0.011 -3.267v -0.583c 0 -1.122 0 -2.222 -0.011 -3.311l -1.133 -0.099v -0.33h 3.19c 2.255 0 3.113 1.034 3.113 2.178c 0 1.056 -0.715 1.859 -2.431 2.035c 1.43 0.275 2.002 1.034 2.002 1.892c 0 1.133 -0.825 1.903 -2.629 1.903h -3.245Z m 2.112 -3.674h 0.792c 1.672 0 2.409 -0.638 2.409 -1.837c 0 -1.166 -0.814 -1.804 -2.2 -1.804h -0.979c -0.022 1.111 -0.022 2.255 -0.022 3.641Z m 0.022 3.641h 0.836c 1.419 0 1.958 -0.572 1.958 -1.551c 0 -1.111 -0.715 -1.749 -2.134 -1.749h -0.682c 0 1.144 0 2.233 0.022 3.3Z "/></symbol><symbol id="gA929DB0B2C612CCF04FAE9F980D3EB7F" overflow="visible"><path d="M 0 0m 1.86648 4.09024c -0.26488 -0.25872 -0.65912 -0.38808 -1.19504 -0.38808v -0.27104c 0.36344 0 0.65296 0.05544 0.87472 0.16016v -3.06768c 0 -0.08008 -0.00616 -0.12936 -0.02464 -0.154c -0.0308 -0.06776 -0.2156 -0.10472 -0.5544 -0.10472h -0.25256v -0.26488l 1.09648 0.02464l 1.10264 -0.02464v 0.26488h -0.25256c -0.3388 0 -0.5236 0.03696 -0.56056 0.10472c -0.01232 0.02464 -0.01848 0.07392 -0.01848 0.154v 3.36952c 0 0.16632 -0.02464 0.19712 -0.2156 0.19712Z "/></symbol><symbol id="gC2A4105F7DC63508ABA0CE27DCCF03D6" overflow="visible"><path d="M 0 0m 2.32815 -0.2057c 1.31835 0 1.97285 1.0659 1.97285 3.1977c 0 1.43055 -0.2992 2.38425 -0.88825 2.85175c -0.32725 0.25245 -0.6919 0.38335 -1.07525 0.38335c -1.31835 0 -1.97285 -1.07525 -1.97285 -3.2351c 0 -1.7204 0.45815 -3.1977 1.9635 -3.1977Z m 1.0472 5.1051c 0.06545 -0.32725 0.0935 -0.92565 0.0935 -1.7952c 0 -0.8602 -0.0374 -1.496 -0.10285 -1.9074c -0.12155 -0.748 -0.4675 -1.122 -1.03785 -1.122c -0.21505 0 -0.4301 0.08415 -0.62645 0.2431c -0.25245 0.21505 -0.40205 0.6545 -0.4675 1.3277c -0.02805 0.23375 -0.0374 0.71995 -0.0374 1.4586c 0 0.81345 0.02805 1.3838 0.0748 1.69235c 0.08415 0.51425 0.25245 0.8415 0.51425 0.98175c 0.2057 0.1122 0.38335 0.1683 0.5423 0.1683c 0.60775 0 0.94435 -0.49555 1.0472 -1.0472Z "/></symbol><symbol id="gDC1EAB04E10EC1B8B94F0A349011F13B" overflow="visible"><path d="M 0 0m 1.881 3.355c 0 2.057 0.418 3.498 1.892 5.478l -0.22 0.198c -1.716 -1.683 -2.552 -3.443 -2.552 -5.676c 0 -2.233 0.836 -3.993 2.552 -5.676l 0.22 0.198c -1.43 1.958 -1.892 3.421 -1.892 5.478Z "/></symbol><symbol id="g75766F6E01A57B224CE09910F9FB77E3" overflow="visible"><path d="M 0 0m 2.871 -0.165c 1.606 0 2.695 0.891 2.695 2.233c 0 1.155 -0.649 1.958 -2.112 2.178c 1.276 0.286 1.87 1.078 1.87 2.035c 0 1.144 -0.814 1.936 -2.288 1.936c -1.1 0 -2.112 -0.462 -2.266 -1.595c 0.077 -0.198 0.242 -0.297 0.451 -0.297c 0.297 0 0.495 0.143 0.594 0.55l 0.253 0.891c 0.242 0.066 0.473 0.099 0.704 0.099c 0.935 0 1.463 -0.594 1.463 -1.617c 0 -1.21 -0.737 -1.837 -1.782 -1.837h -0.429v -0.396h 0.484c 1.287 0 1.936 -0.693 1.936 -1.914c 0 -1.188 -0.682 -1.914 -1.881 -1.914c -0.286 0 -0.517 0.044 -0.737 0.121l -0.253 0.891c -0.099 0.473 -0.275 0.638 -0.572 0.638c -0.22 0 -0.418 -0.121 -0.506 -0.374c 0.209 -1.056 1.045 -1.628 2.376 -1.628Z "/></symbol><symbol id="gF86A48F242717D43804A8A6D88BD17AE" overflow="visible"><path d="M 0 0m 0.847 -1.958c 1.034 0.385 1.694 1.177 1.694 2.288c 0 0.275 -0.022 0.462 -0.11 0.704c -0.187 0.187 -0.396 0.242 -0.638 0.242c -0.418 0 -0.704 -0.308 -0.704 -0.704c 0 -0.264 0.154 -0.506 0.484 -0.693l 0.407 -0.231c -0.176 -0.627 -0.572 -0.957 -1.254 -1.309Z "/></symbol><symbol id="gA2FA31ECADA85811599AEEC49126A5AA" overflow="visible"><path d="M 0 0m 3.124 -0.165c 1.353 0 2.607 1.221 2.607 4.202c 0 2.959 -1.254 4.18 -2.607 4.18c -1.364 0 -2.618 -1.221 -2.618 -4.18c 0 -2.981 1.254 -4.202 2.618 -4.202Z m 0 0.352c -0.803 0 -1.551 0.891 -1.551 3.85c 0 2.926 0.748 3.817 1.551 3.817c 0.781 0 1.551 -0.891 1.551 -3.817c 0 -2.948 -0.77 -3.85 -1.551 -3.85Z "/></symbol><symbol id="g675FE59FE3A412031AFC8D70B61EB42D" overflow="visible"><path d="M 0 0m 2.244 3.355c 0 -2.057 -0.429 -3.509 -1.892 -5.478l 0.22 -0.198c 1.705 1.683 2.552 3.443 2.552 5.676c 0 2.233 -0.847 3.993 -2.552 5.676l -0.22 -0.198c 1.43 -1.958 1.892 -3.421 1.892 -5.478Z "/></symbol><symbol id="g8A0424EC54D9B4D30EF352128D2C397E" overflow="visible"><path d="M 0 0m 0.693 0h 5.038v 0.88h -4.389c 0.649 0.682 1.287 1.342 1.606 1.661c 1.738 1.705 2.464 2.508 2.464 3.553c 0 1.309 -0.759 2.123 -2.288 2.123c -1.188 0 -2.277 -0.594 -2.431 -1.749c 0.077 -0.231 0.264 -0.374 0.506 -0.374c 0.264 0 0.473 0.154 0.583 0.638l 0.264 1.001c 0.253 0.099 0.495 0.132 0.748 0.132c 0.957 0 1.529 -0.616 1.529 -1.727c 0 -1.023 -0.495 -1.782 -1.672 -3.179c -0.539 -0.627 -1.243 -1.463 -1.958 -2.288Z "/></symbol><symbol id="gD835EBEC661838FE8BAD863F1C15EA0F" overflow="visible"><path d="M 0 0m 0.73304 2.61184c 0.19712 0 0.34496 0.14784 0.34496 0.34496c 0 0.22176 -0.11704 0.3388 -0.34496 0.34496c 0.13552 0.28952 0.44352 0.5236 0.84392 0.5236c 0.54208 0 0.89936 -0.40656 0.89936 -0.94864c 0 -0.29568 -0.10472 -0.57904 -0.32032 -0.85624c -0.10472 -0.14168 -0.1848 -0.24024 -0.24024 -0.29568l -1.45992 -1.4476c -0.08008 -0.07392 -0.06776 -0.0924 -0.06776 -0.2772h 2.53792l 0.19096 1.15808h -0.25872c -0.04312 -0.32648 -0.0924 -0.51744 -0.14784 -0.56056c -0.0308 -0.01848 -0.22176 -0.0308 -0.5852 -0.0308h -1.0472c 0.41272 0.36344 0.79464 0.68992 1.15808 0.97944c 0.2772 0.2156 0.47432 0.40656 0.59752 0.57288c 0.1848 0.24024 0.2772 0.4928 0.2772 0.75768c 0 0.38192 -0.14784 0.68376 -0.44968 0.90552c -0.26488 0.20328 -0.59752 0.308 -0.99176 0.308c -0.3388 0 -0.62832 -0.09856 -0.88088 -0.29568c -0.26488 -0.2156 -0.4004 -0.48664 -0.4004 -0.81928c 0 -0.20944 0.154 -0.36344 0.34496 -0.36344Z "/></symbol><symbol id="g80C6F66EFB7D6C0E75FD5D4685C1F7C9" overflow="visible"><path d="M 0 0m 0.77 0l 3.938 -0.011v 0.308l -1.364 0.187l -0.022 2.057v 3.762l 0.044 1.738l -0.165 0.121l -2.475 -0.616v -0.352l 1.529 0.253v -4.906l -0.022 -2.057l -1.463 -0.176Z "/></symbol></defs></svg>