<svg xmlns="http://www.w3.org/2000/svg" viewBox="0 0 600 560" style="font-family:-apple-system,BlinkMacSystemFont,sans-serif">
<rect x="0" y="0" width="600" height="560" fill="#fafbfc"/>
<text x="300" y="28" text-anchor="middle" font-size="14.5" font-weight="700" fill="#333">エッジワースボックスとパレート効率（無差別曲線が接する場合）</text>
<g opacity="0"><animate attributeName="opacity" dur="30s" repeatCount="indefinite" keyTimes="0;0.0100;0.0180;1.0000;1.0000;1" values="0;0;1;1;1;1"/>
<rect x="90.0" y="118.0" width="390.0" height="312.0" fill="#fff" stroke="#333" stroke-width="1.6"/>
<circle cx="90.0" cy="430.0" r="3" fill="#333"/>
<text x="84.0" y="446.0" font-size="12.5" font-weight="700" fill="#2c5fa6" text-anchor="start">O<tspan dy="3" font-size="9">L</tspan><tspan dy="-3">（レオン）</tspan></text>
<circle cx="480.0" cy="118.0" r="3" fill="#333"/>
<text x="484.0" y="112.0" font-size="12.5" font-weight="700" fill="#c0392b" text-anchor="end">O<tspan dy="3" font-size="9">K</tspan><tspan dy="-3">（ケネス）</tspan></text>
<text x="285.0" y="448.0" font-size="11.5" fill="#2c5fa6" text-anchor="middle">レオンの<tspan font-style="italic">q</tspan><tspan font-style="italic" baseline-shift="sub" font-size="0.72em">x</tspan> →</text>
<text x="82.0" y="274.0" font-size="11.5" fill="#2c5fa6" text-anchor="middle" transform="rotate(-90 82.0 274.0)">レオンの<tspan font-style="italic">q</tspan><tspan font-style="italic" baseline-shift="sub" font-size="0.72em">y</tspan> →</text>
<text x="285.0" y="112.0" font-size="11.5" fill="#c0392b" text-anchor="middle">← ケネスの<tspan font-style="italic">q</tspan><tspan font-style="italic" baseline-shift="sub" font-size="0.72em">x</tspan></text>
<text x="488.0" y="274.0" font-size="11.5" fill="#c0392b" text-anchor="middle" transform="rotate(90 488.0 274.0)">ケネスの<tspan font-style="italic">q</tspan><tspan font-style="italic" baseline-shift="sub" font-size="0.72em">y</tspan> →</text>
</g>
<path d="M 187.5,118.0 L 192.7,133.9 L 197.9,148.2 L 203.2,161.2 L 208.4,173.1 L 213.6,183.9 L 218.8,193.9 L 224.1,203.1 L 229.3,211.6 L 234.5,219.5 L 239.7,226.8 L 245.0,233.7 L 250.2,240.1 L 255.4,246.1 L 260.6,251.7 L 265.8,257.0 L 271.1,262.0 L 276.3,266.7 L 281.5,271.2 L 286.7,275.4 L 292.0,279.4 L 297.2,283.2 L 302.4,286.8 L 307.6,290.2 L 312.9,293.5 L 318.1,296.6 L 323.3,299.6 L 328.5,302.5 L 333.8,305.2 L 339.0,307.8 L 344.2,310.3 L 349.4,312.7 L 354.6,315.1 L 359.9,317.3 L 365.1,319.4 L 370.3,321.5 L 375.5,323.5 L 380.8,325.4 L 386.0,327.2 L 391.2,329.0 L 396.4,330.7 L 401.7,332.4 L 406.9,334.0 L 412.1,335.6 L 417.3,337.1 L 422.5,338.5 L 427.8,339.9 L 433.0,341.3 L 438.2,342.6 L 443.4,343.9 L 448.7,345.2 L 453.9,346.4 L 459.1,347.6 L 464.3,348.7 L 469.6,349.9 L 474.8,350.9 L 480.0,352.0 L 480.0,118.0 Z" fill="rgba(44,95,166,0.18)" stroke="none" opacity="0"><animate attributeName="opacity" dur="30s" repeatCount="indefinite" keyTimes="0;0.5400;0.5480;1.0000;1.0000;1" values="0;0;1;1;1;1"/></path>
<path d="M 90.0,196.0 L 95.2,197.1 L 100.4,198.1 L 105.7,199.3 L 110.9,200.4 L 116.1,201.6 L 121.3,202.8 L 126.6,204.1 L 131.8,205.4 L 137.0,206.7 L 142.2,208.1 L 147.5,209.5 L 152.7,210.9 L 157.9,212.4 L 163.1,214.0 L 168.3,215.6 L 173.6,217.3 L 178.8,219.0 L 184.0,220.8 L 189.2,222.6 L 194.5,224.5 L 199.7,226.5 L 204.9,228.6 L 210.1,230.7 L 215.4,232.9 L 220.6,235.3 L 225.8,237.7 L 231.0,240.2 L 236.2,242.8 L 241.5,245.5 L 246.7,248.4 L 251.9,251.4 L 257.1,254.5 L 262.4,257.8 L 267.6,261.2 L 272.8,264.8 L 278.0,268.6 L 283.3,272.6 L 288.5,276.8 L 293.7,281.3 L 298.9,286.0 L 304.2,291.0 L 309.4,296.3 L 314.6,301.9 L 319.8,307.9 L 325.0,314.3 L 330.3,321.2 L 335.5,328.5 L 340.7,336.4 L 345.9,344.9 L 351.2,354.1 L 356.4,364.1 L 361.6,374.9 L 366.8,386.8 L 372.1,399.8 L 377.3,414.1 L 382.5,430.0 L 90.0,430.0 Z" fill="rgba(192,57,43,0.16)" stroke="none" opacity="0"><animate attributeName="opacity" dur="30s" repeatCount="indefinite" keyTimes="0;0.6800;0.6880;1.0000;1.0000;1" values="0;0;1;1;1;1"/></path>
<path d="M 187.5,118.0 L 192.7,133.9 L 197.9,148.2 L 203.2,161.2 L 208.4,173.1 L 213.6,183.9 L 218.8,193.9 L 224.1,203.1 L 229.3,211.6 L 234.5,219.5 L 239.7,226.8 L 245.0,233.7 L 250.2,240.1 L 255.4,246.1 L 260.6,251.7 L 265.8,257.0 L 271.1,262.0 L 276.3,266.7 L 281.5,271.2 L 286.7,275.4 L 292.0,279.4 L 297.2,283.2 L 302.4,286.8 L 307.6,290.2 L 312.9,293.5 L 318.1,296.6 L 323.3,299.6 L 328.5,302.5 L 333.8,305.2 L 339.0,307.8 L 344.2,310.3 L 349.4,312.7 L 354.6,315.1 L 359.9,317.3 L 365.1,319.4 L 370.3,321.5 L 375.5,323.5 L 380.8,325.4 L 386.0,327.2 L 391.2,329.0 L 396.4,330.7 L 401.7,332.4 L 406.9,334.0 L 412.1,335.6 L 417.3,337.1 L 422.5,338.5 L 427.8,339.9 L 433.0,341.3 L 438.2,342.6 L 443.4,343.9 L 448.7,345.2 L 453.9,346.4 L 459.1,347.6 L 464.3,348.7 L 469.6,349.9 L 474.8,350.9 L 480.0,352.0" fill="none" stroke="#2c5fa6" stroke-width="2.4" opacity="0"><animate attributeName="opacity" dur="30s" repeatCount="indefinite" keyTimes="0;0.2400;0.2480;1.0000;1.0000;1" values="0;0;1;1;1;1"/></path>
<path d="M 90.0,196.0 L 95.2,197.1 L 100.4,198.1 L 105.7,199.3 L 110.9,200.4 L 116.1,201.6 L 121.3,202.8 L 126.6,204.1 L 131.8,205.4 L 137.0,206.7 L 142.2,208.1 L 147.5,209.5 L 152.7,210.9 L 157.9,212.4 L 163.1,214.0 L 168.3,215.6 L 173.6,217.3 L 178.8,219.0 L 184.0,220.8 L 189.2,222.6 L 194.5,224.5 L 199.7,226.5 L 204.9,228.6 L 210.1,230.7 L 215.4,232.9 L 220.6,235.3 L 225.8,237.7 L 231.0,240.2 L 236.2,242.8 L 241.5,245.5 L 246.7,248.4 L 251.9,251.4 L 257.1,254.5 L 262.4,257.8 L 267.6,261.2 L 272.8,264.8 L 278.0,268.6 L 283.3,272.6 L 288.5,276.8 L 293.7,281.3 L 298.9,286.0 L 304.2,291.0 L 309.4,296.3 L 314.6,301.9 L 319.8,307.9 L 325.0,314.3 L 330.3,321.2 L 335.5,328.5 L 340.7,336.4 L 345.9,344.9 L 351.2,354.1 L 356.4,364.1 L 361.6,374.9 L 366.8,386.8 L 372.1,399.8 L 377.3,414.1 L 382.5,430.0" fill="none" stroke="#c0392b" stroke-width="2.4" opacity="0"><animate attributeName="opacity" dur="30s" repeatCount="indefinite" keyTimes="0;0.2400;0.2480;1.0000;1.0000;1" values="0;0;1;1;1;1"/></path>
<text x="478.0" y="368.0" font-size="11.5" font-weight="700" fill="#2c5fa6" text-anchor="end" opacity="0"><animate attributeName="opacity" dur="30s" repeatCount="indefinite" keyTimes="0;0.2400;0.2480;1.0000;1.0000;1" values="0;0;1;1;1;1"/>レオンの無差別曲線</text>
<text x="94.0" y="192.0" font-size="11.5" font-weight="700" fill="#c0392b" text-anchor="start" opacity="0"><animate attributeName="opacity" dur="30s" repeatCount="indefinite" keyTimes="0;0.2400;0.2480;1.0000;1.0000;1" values="0;0;1;1;1;1"/>ケネスの無差別曲線</text>
<circle cx="285.0" cy="274.0" r="5" fill="#d9822b" stroke="#fff" stroke-width="1.6" opacity="0"><animate attributeName="opacity" dur="30s" repeatCount="indefinite" keyTimes="0;0.1200;0.1280;1.0000;1.0000;1" values="0;0;1;1;1;1"/></circle>
<text x="293.0" y="290.0" font-size="12" font-weight="700" fill="#333" opacity="0"><animate attributeName="opacity" dur="30s" repeatCount="indefinite" keyTimes="0;0.1200;0.1280;1.0000;1.0000;1" values="0;0;1;1;1;1"/>いまの配分</text>
<rect x="24" y="476" width="552" height="64" rx="8" fill="#eef3f9" stroke="#dde3eb"/>
<text x="300" y="500" text-anchor="middle" font-size="13" fill="#333" opacity="0"><animate attributeName="opacity" dur="30s" repeatCount="indefinite" keyTimes="0;0.0000;0.0080;0.1200;0.1280;1" values="0;0;1;1;0;0"/>エッジワースボックス：箱の中の一点が，二人への財の分け方（配分）を表す</text>
<text x="300" y="500" text-anchor="middle" font-size="13" fill="#333" opacity="0"><animate attributeName="opacity" dur="30s" repeatCount="indefinite" keyTimes="0;0.1200;0.1280;0.2400;0.2480;1" values="0;0;1;1;0;0"/>いまの配分はこの点．ここから二人の効用を考える</text>
<text x="300" y="500" text-anchor="middle" font-size="13" fill="#333" opacity="0"><animate attributeName="opacity" dur="30s" repeatCount="indefinite" keyTimes="0;0.2400;0.2480;0.4000;0.4080;1" values="0;0;1;1;0;0"/>配分を通る無差別曲線を二人ぶん描く（青＝レオン，赤＝ケネス）</text>
<text x="300" y="500" text-anchor="middle" font-size="13" fill="#333" opacity="0"><animate attributeName="opacity" dur="30s" repeatCount="indefinite" keyTimes="0;0.4000;0.4080;0.5400;0.5480;1" values="0;0;1;1;0;0"/>二本の無差別曲線がちょうど接している</text>
<text x="300" y="500" text-anchor="middle" font-size="13" fill="#333" opacity="0"><animate attributeName="opacity" dur="30s" repeatCount="indefinite" keyTimes="0;0.5400;0.5480;0.6800;0.6880;1" values="0;0;1;1;0;0"/>レオンの効用を上げるには青い領域（右上）へ動かす必要がある</text>
<text x="300" y="500" text-anchor="middle" font-size="13" fill="#333" opacity="0"><animate attributeName="opacity" dur="30s" repeatCount="indefinite" keyTimes="0;0.6800;0.6880;0.8200;0.8280;1" values="0;0;1;1;0;0"/>ケネスの効用を上げるには赤い領域（左下）へ動かす必要がある</text>
<text x="300" y="500" text-anchor="middle" font-size="13" fill="#333" opacity="0"><animate attributeName="opacity" dur="30s" repeatCount="indefinite" keyTimes="0;0.8200;0.8280;1.0000;1.0000;1" values="0;0;1;1;0;0"/>二つの領域は接点で触れるだけで重ならない → 二人を同時に良くできない</text>
<text x="300" y="522" text-anchor="middle" font-size="13" font-weight="700" fill="#1f7a45" opacity="0"><animate attributeName="opacity" dur="30s" repeatCount="indefinite" keyTimes="0;0.8200;0.8280;1.0000;1.0000;1" values="0;0;1;1;0;0"/>＝ パレート効率的</text>
</svg>