<svg xmlns="http://www.w3.org/2000/svg" viewBox="0 0 600 510" style="font-family:-apple-system,BlinkMacSystemFont,sans-serif">
<defs><marker id="ah" markerWidth="8" markerHeight="8" refX="6" refY="3" orient="auto"><path d="M0,0 L6,3 L0,6 Z" fill="#555"/></marker></defs>
<rect x="0" y="0" width="600" height="510" fill="#fafbfc"/>
<rect x="30" y="10" width="540" height="46" rx="8" fill="#eef3f9" stroke="#dde3eb"/>
<g stroke="rgba(0,0,0,0.06)" stroke-width="0.5">
<line x1="80" y1="440" x2="480" y2="440"/>
<line x1="80" y1="400" x2="480" y2="400"/>
<line x1="80" y1="360" x2="480" y2="360"/>
<line x1="80" y1="320" x2="480" y2="320"/>
<line x1="80" y1="280" x2="480" y2="280"/>
<line x1="80" y1="240" x2="480" y2="240"/>
<line x1="80" y1="200" x2="480" y2="200"/>
<line x1="80" y1="160" x2="480" y2="160"/>
<line x1="80" y1="120" x2="480" y2="120"/>
<line x1="120" y1="80" x2="120" y2="480"/>
<line x1="160" y1="80" x2="160" y2="480"/>
<line x1="200" y1="80" x2="200" y2="480"/>
<line x1="240" y1="80" x2="240" y2="480"/>
<line x1="280" y1="80" x2="280" y2="480"/>
<line x1="320" y1="80" x2="320" y2="480"/>
<line x1="360" y1="80" x2="360" y2="480"/>
<line x1="400" y1="80" x2="400" y2="480"/>
<line x1="440" y1="80" x2="440" y2="480"/>
</g>
<line x1="80" y1="80" x2="80" y2="480" stroke="#333" stroke-width="1.5"/>
<line x1="80" y1="480" x2="480" y2="480" stroke="#333" stroke-width="1.5"/>
<text x="486" y="486" font-size="16" font-style="italic" font-weight="600" fill="#333">q<tspan baseline-shift="sub" font-size="0.72em">x</tspan></text>
<text x="74" y="78" font-size="16" font-style="italic" font-weight="600" fill="#333" text-anchor="end">q<tspan baseline-shift="sub" font-size="0.72em">y</tspan></text>
<text x="74" y="495" font-size="12" fill="#666" text-anchor="end">O</text>
<g opacity="0"><animate attributeName="opacity" dur="34s" repeatCount="indefinite" keyTimes="0;0.0200;0.0260;1" values="0;0;1;1"/>
<path d="M 86.0,352.1 L 87.9,356.9 L 89.7,361.5 L 91.6,365.9 L 93.4,370.2 L 95.3,374.3 L 97.1,378.2 L 99.0,382.0 L 100.8,385.6 L 102.7,389.1 L 104.5,392.5 L 106.4,395.8 L 108.2,398.9 L 110.1,402.0 L 112.0,404.9 L 113.8,407.8 L 115.7,410.5 L 117.5,413.2 L 119.4,415.8 L 121.2,418.3 L 123.1,420.8 L 124.9,423.1 L 126.8,425.4 L 128.6,427.6 L 130.5,429.8 L 132.4,431.9 L 134.2,434.0 L 136.1,435.9 L 137.9,437.9 L 139.8,439.8 L 141.6,441.6 L 143.5,443.4 L 145.3,445.1 L 147.2,446.8 L 149.0,448.5 L 150.9,450.1 L 152.8,451.7 L 154.6,453.2 L 156.5,454.7 L 158.3,456.2 L 160.2,457.6 L 162.0,459.0 L 163.9,460.4 L 165.7,461.7 L 167.6,463.0 L 169.4,464.3 L 171.3,465.6 L 173.1,466.8 L 175.0,468.0" fill="none" stroke="#9bb7d4" stroke-width="1.2" opacity="0.55"/>
<path d="M 86.0,223.5 L 89.3,237.0 L 92.6,249.4 L 95.9,261.0 L 99.2,271.9 L 102.5,282.0 L 105.8,291.5 L 109.1,300.5 L 112.4,308.9 L 115.8,316.8 L 119.1,324.3 L 122.4,331.4 L 125.7,338.1 L 129.0,344.4 L 132.3,350.5 L 135.6,356.2 L 138.9,361.7 L 142.2,366.9 L 145.5,371.9 L 148.8,376.7 L 152.1,381.3 L 155.4,385.6 L 158.7,389.8 L 162.0,393.8 L 165.3,397.7 L 168.6,401.4 L 171.9,404.9 L 175.2,408.3 L 178.6,411.6 L 181.9,414.8 L 185.2,417.9 L 188.5,420.8 L 191.8,423.7 L 195.1,426.5 L 198.4,429.1 L 201.7,431.7 L 205.0,434.2 L 208.3,436.6 L 211.6,439.0 L 214.9,441.2 L 218.2,443.4 L 221.5,445.6 L 224.8,447.6 L 228.1,449.6 L 231.4,451.6 L 234.7,453.5 L 238.1,455.3 L 241.4,457.1 L 244.7,458.9" fill="none" stroke="#9bb7d4" stroke-width="1.2" opacity="0.55"/>
<path d="M 101.3,155.3 L 105.1,171.3 L 108.8,186.3 L 112.6,200.2 L 116.3,213.2 L 120.1,225.4 L 123.8,236.9 L 127.6,247.7 L 131.3,257.9 L 135.1,267.5 L 138.8,276.6 L 142.6,285.3 L 146.3,293.4 L 150.1,301.2 L 153.8,308.6 L 157.6,315.6 L 161.3,322.4 L 165.1,328.8 L 168.8,334.9 L 172.6,340.7 L 176.3,346.3 L 180.1,351.7 L 183.8,356.9 L 187.6,361.8 L 191.3,366.6 L 195.1,371.2 L 198.8,375.6 L 202.6,379.8 L 206.3,383.9 L 210.1,387.8 L 213.8,391.6 L 217.6,395.3 L 221.3,398.8 L 225.1,402.2 L 228.8,405.6 L 232.6,408.8 L 236.3,411.9 L 240.1,414.9 L 243.8,417.8 L 247.6,420.6 L 251.3,423.4 L 255.1,426.0 L 258.8,428.6 L 262.6,431.1 L 266.3,433.6 L 270.1,435.9 L 273.8,438.2 L 277.6,440.5 L 281.3,442.7" fill="none" stroke="#9bb7d4" stroke-width="1.2" opacity="0.55"/>
<path d="M 142.4,183.8 L 146.2,195.5 L 149.9,206.6 L 153.7,217.1 L 157.4,227.1 L 161.2,236.7 L 164.9,245.8 L 168.7,254.6 L 172.4,262.9 L 176.2,270.9 L 179.9,278.6 L 183.7,285.9 L 187.4,293.0 L 191.2,299.7 L 194.9,306.3 L 198.7,312.5 L 202.4,318.6 L 206.2,324.4 L 209.9,330.0 L 213.7,335.4 L 217.4,340.6 L 221.2,345.7 L 224.9,350.6 L 228.7,355.3 L 232.4,359.8 L 236.2,364.3 L 239.9,368.5 L 243.7,372.7 L 247.4,376.7 L 251.2,380.6 L 254.9,384.4 L 258.7,388.1 L 262.4,391.7 L 266.2,395.2 L 269.9,398.5 L 273.7,401.8 L 277.4,405.0 L 281.2,408.1 L 284.9,411.2 L 288.7,414.1 L 292.4,417.0 L 296.2,419.8 L 299.9,422.5 L 303.7,425.2 L 307.4,427.8 L 311.2,430.3 L 314.9,432.8 L 318.7,435.2 L 322.4,437.6" fill="none" stroke="#9bb7d4" stroke-width="1.2" opacity="0.55"/>
<path d="M 174.7,204.6 L 178.4,214.5 L 182.2,224.0 L 185.9,233.1 L 189.7,241.8 L 193.4,250.2 L 197.2,258.3 L 200.9,266.1 L 204.7,273.6 L 208.4,280.8 L 212.2,287.8 L 215.9,294.5 L 219.7,301.0 L 223.4,307.3 L 227.2,313.4 L 230.9,319.2 L 234.7,324.9 L 238.4,330.4 L 242.2,335.8 L 245.9,340.9 L 249.7,346.0 L 253.4,350.8 L 257.2,355.6 L 260.9,360.2 L 264.7,364.6 L 268.4,369.0 L 272.2,373.2 L 275.9,377.3 L 279.7,381.3 L 283.4,385.2 L 287.2,388.9 L 290.9,392.6 L 294.7,396.2 L 298.4,399.7 L 302.2,403.1 L 305.9,406.5 L 309.7,409.7 L 313.4,412.9 L 317.2,416.0 L 320.9,419.0 L 324.7,422.0 L 328.4,424.9 L 332.2,427.7 L 335.9,430.5 L 339.7,433.2 L 343.4,435.8 L 347.2,438.4 L 350.9,440.9 L 354.7,443.4" fill="none" stroke="#9bb7d4" stroke-width="1.2" opacity="0.55"/>
<path d="M 211.3,233.1 L 215.1,241.7 L 218.8,250.0 L 222.6,258.1 L 226.3,265.9 L 230.1,273.4 L 233.8,280.7 L 237.6,287.7 L 241.3,294.6 L 245.1,301.2 L 248.8,307.6 L 252.6,313.9 L 256.3,319.9 L 260.1,325.8 L 263.8,331.5 L 267.6,337.1 L 271.3,342.5 L 275.1,347.7 L 278.8,352.8 L 282.6,357.8 L 286.3,362.7 L 290.1,367.4 L 293.8,372.0 L 297.6,376.5 L 301.3,380.8 L 305.1,385.1 L 308.8,389.3 L 312.6,393.3 L 316.3,397.3 L 320.1,401.2 L 323.8,404.9 L 327.6,408.6 L 331.3,412.3 L 335.1,415.8 L 338.8,419.2 L 342.6,422.6 L 346.3,425.9 L 350.1,429.2 L 353.8,432.3 L 357.6,435.4 L 361.3,438.4 L 365.1,441.4 L 368.8,444.3 L 372.6,447.2 L 376.3,450.0 L 380.1,452.7 L 383.8,455.4 L 387.6,458.0 L 391.3,460.6" fill="none" stroke="#9bb7d4" stroke-width="1.2" opacity="0.55"/>
<path d="M 248.0,269.4 L 251.2,276.0 L 254.3,282.4 L 257.5,288.7 L 260.7,294.8 L 263.8,300.8 L 267.0,306.6 L 270.2,312.3 L 273.3,317.9 L 276.5,323.3 L 279.7,328.6 L 282.8,333.8 L 286.0,338.9 L 289.2,343.8 L 292.3,348.7 L 295.5,353.4 L 298.7,358.1 L 301.8,362.6 L 305.0,367.1 L 308.2,371.4 L 311.3,375.7 L 314.5,379.9 L 317.7,384.0 L 320.8,388.1 L 324.0,392.0 L 327.2,395.9 L 330.3,399.7 L 333.5,403.4 L 336.7,407.0 L 339.8,410.6 L 343.0,414.2 L 346.2,417.6 L 349.3,421.0 L 352.5,424.3 L 355.7,427.6 L 358.8,430.8 L 362.0,434.0 L 365.2,437.1 L 368.3,440.1 L 371.5,443.1 L 374.7,446.1 L 377.8,449.0 L 381.0,451.8 L 384.2,454.6 L 387.3,457.4 L 390.5,460.1 L 393.7,462.8 L 396.8,465.4 L 400.0,468.0" fill="none" stroke="#9bb7d4" stroke-width="1.2" opacity="0.55"/>
</g>
<path d="M 140.0,440.0 L 176.7,409.8 L 213.3,391.1 L 254.4,383.9 L 286.7,388.4 L 323.3,404.4 L 360.0,432.0" fill="none" stroke="#d9822b" stroke-width="1.6" stroke-dasharray="4,4" opacity="0"><animate attributeName="opacity" dur="34s" repeatCount="indefinite" keyTimes="0;0.8714;0.8774;1" values="0;0;1;1"/></path>
<g opacity="0"><animate attributeName="opacity" dur="34s" repeatCount="indefinite" keyTimes="0;0.1000;0.1060;0.2286;0.2346;1" values="0;0;1;1;0;0"/><line x1="180.0" y1="480.0" x2="80.0" y2="380.0" stroke="#2c5fa6" stroke-width="2.3"/></g>
<path d="M 86.0,352.1 L 87.9,356.9 L 89.7,361.5 L 91.6,365.9 L 93.4,370.2 L 95.3,374.3 L 97.1,378.2 L 99.0,382.0 L 100.8,385.6 L 102.7,389.1 L 104.5,392.5 L 106.4,395.8 L 108.2,398.9 L 110.1,402.0 L 112.0,404.9 L 113.8,407.8 L 115.7,410.5 L 117.5,413.2 L 119.4,415.8 L 121.2,418.3 L 123.1,420.8 L 124.9,423.1 L 126.8,425.4 L 128.6,427.6 L 130.5,429.8 L 132.4,431.9 L 134.2,434.0 L 136.1,435.9 L 137.9,437.9 L 139.8,439.8 L 141.6,441.6 L 143.5,443.4 L 145.3,445.1 L 147.2,446.8 L 149.0,448.5 L 150.9,450.1 L 152.8,451.7 L 154.6,453.2 L 156.5,454.7 L 158.3,456.2 L 160.2,457.6 L 162.0,459.0 L 163.9,460.4 L 165.7,461.7 L 167.6,463.0 L 169.4,464.3 L 171.3,465.6 L 173.1,466.8 L 175.0,468.0" fill="none" stroke="#2c5fa6" stroke-width="2.4" opacity="0"><animate attributeName="opacity" dur="34s" repeatCount="indefinite" keyTimes="0;0.1000;0.1060;0.2286;0.2346;1" values="0;0;1;1;0;0"/></path>
<circle cx="140.0" cy="440.0" r="3.2" fill="#888" opacity="0"><animate attributeName="opacity" dur="34s" repeatCount="indefinite" keyTimes="0;0.1000;0.1060;1" values="0;0;1;1"/></circle>
<circle cx="140.0" cy="440.0" r="5.5" fill="#d9822b" stroke="#fff" stroke-width="1.5" opacity="0"><animate attributeName="opacity" dur="34s" repeatCount="indefinite" keyTimes="0;0.1000;0.1060;0.2286;0.2346;1" values="0;0;1;1;0;0"/></circle>
<g opacity="0"><animate attributeName="opacity" dur="34s" repeatCount="indefinite" keyTimes="0;0.2286;0.2346;0.3571;0.3631;1" values="0;0;1;1;0;0"/><line x1="246.9" y1="480.0" x2="80.0" y2="313.1" stroke="#2c5fa6" stroke-width="2.3"/></g>
<path d="M 86.0,223.5 L 89.3,237.0 L 92.6,249.4 L 95.9,261.0 L 99.2,271.9 L 102.5,282.0 L 105.8,291.5 L 109.1,300.5 L 112.4,308.9 L 115.8,316.8 L 119.1,324.3 L 122.4,331.4 L 125.7,338.1 L 129.0,344.4 L 132.3,350.5 L 135.6,356.2 L 138.9,361.7 L 142.2,366.9 L 145.5,371.9 L 148.8,376.7 L 152.1,381.3 L 155.4,385.6 L 158.7,389.8 L 162.0,393.8 L 165.3,397.7 L 168.6,401.4 L 171.9,404.9 L 175.2,408.3 L 178.6,411.6 L 181.9,414.8 L 185.2,417.9 L 188.5,420.8 L 191.8,423.7 L 195.1,426.5 L 198.4,429.1 L 201.7,431.7 L 205.0,434.2 L 208.3,436.6 L 211.6,439.0 L 214.9,441.2 L 218.2,443.4 L 221.5,445.6 L 224.8,447.6 L 228.1,449.6 L 231.4,451.6 L 234.7,453.5 L 238.1,455.3 L 241.4,457.1 L 244.7,458.9" fill="none" stroke="#2c5fa6" stroke-width="2.4" opacity="0"><animate attributeName="opacity" dur="34s" repeatCount="indefinite" keyTimes="0;0.2286;0.2346;0.3571;0.3631;1" values="0;0;1;1;0;0"/></path>
<g opacity="0"><animate attributeName="opacity" dur="34s" repeatCount="indefinite" keyTimes="0;0.2286;0.2346;0.3571;0.3631;1" values="0;0;1;1;0;0"/><line x1="140.0" y1="440.0" x2="176.7" y2="440.0" stroke="#2c5fa6" stroke-width="1.8" stroke-dasharray="3,2"/><line x1="176.7" y1="440.0" x2="176.7" y2="409.8" stroke="#2c5fa6" stroke-width="2.4" marker-end="url(#ah)"/></g>
<circle cx="176.7" cy="409.8" r="3.2" fill="#888" opacity="0"><animate attributeName="opacity" dur="34s" repeatCount="indefinite" keyTimes="0;0.2286;0.2346;1" values="0;0;1;1"/></circle>
<circle cx="176.7" cy="409.8" r="5.5" fill="#d9822b" stroke="#fff" stroke-width="1.5" opacity="0"><animate attributeName="opacity" dur="34s" repeatCount="indefinite" keyTimes="0;0.2286;0.2346;0.3571;0.3631;1" values="0;0;1;1;0;0"/></circle>
<g opacity="0"><animate attributeName="opacity" dur="34s" repeatCount="indefinite" keyTimes="0;0.3571;0.3631;0.4857;0.4917;1" values="0;0;1;1;0;0"/><line x1="302.2" y1="480.0" x2="80.0" y2="257.8" stroke="#2c5fa6" stroke-width="2.3"/></g>
<path d="M 101.3,155.3 L 105.1,171.3 L 108.8,186.3 L 112.6,200.2 L 116.3,213.2 L 120.1,225.4 L 123.8,236.9 L 127.6,247.7 L 131.3,257.9 L 135.1,267.5 L 138.8,276.6 L 142.6,285.3 L 146.3,293.4 L 150.1,301.2 L 153.8,308.6 L 157.6,315.6 L 161.3,322.4 L 165.1,328.8 L 168.8,334.9 L 172.6,340.7 L 176.3,346.3 L 180.1,351.7 L 183.8,356.9 L 187.6,361.8 L 191.3,366.6 L 195.1,371.2 L 198.8,375.6 L 202.6,379.8 L 206.3,383.9 L 210.1,387.8 L 213.8,391.6 L 217.6,395.3 L 221.3,398.8 L 225.1,402.2 L 228.8,405.6 L 232.6,408.8 L 236.3,411.9 L 240.1,414.9 L 243.8,417.8 L 247.6,420.6 L 251.3,423.4 L 255.1,426.0 L 258.8,428.6 L 262.6,431.1 L 266.3,433.6 L 270.1,435.9 L 273.8,438.2 L 277.6,440.5 L 281.3,442.7" fill="none" stroke="#2c5fa6" stroke-width="2.4" opacity="0"><animate attributeName="opacity" dur="34s" repeatCount="indefinite" keyTimes="0;0.3571;0.3631;0.4857;0.4917;1" values="0;0;1;1;0;0"/></path>
<g opacity="0"><animate attributeName="opacity" dur="34s" repeatCount="indefinite" keyTimes="0;0.3571;0.3631;0.4857;0.4917;1" values="0;0;1;1;0;0"/><line x1="176.7" y1="409.8" x2="213.3" y2="409.8" stroke="#2c5fa6" stroke-width="1.8" stroke-dasharray="3,2"/><line x1="213.3" y1="409.8" x2="213.3" y2="391.1" stroke="#2c5fa6" stroke-width="2.4" marker-end="url(#ah)"/></g>
<circle cx="213.3" cy="391.1" r="3.2" fill="#888" opacity="0"><animate attributeName="opacity" dur="34s" repeatCount="indefinite" keyTimes="0;0.3571;0.3631;1" values="0;0;1;1"/></circle>
<circle cx="213.3" cy="391.1" r="5.5" fill="#d9822b" stroke="#fff" stroke-width="1.5" opacity="0"><animate attributeName="opacity" dur="34s" repeatCount="indefinite" keyTimes="0;0.3571;0.3631;0.4857;0.4917;1" values="0;0;1;1;0;0"/></circle>
<g opacity="0"><animate attributeName="opacity" dur="34s" repeatCount="indefinite" keyTimes="0;0.4857;0.4917;0.6143;0.6203;1" values="0;0;1;1;0;0"/><line x1="350.5" y1="480.0" x2="80.0" y2="209.5" stroke="#2c5fa6" stroke-width="2.3"/></g>
<path d="M 142.4,183.8 L 146.2,195.5 L 149.9,206.6 L 153.7,217.1 L 157.4,227.1 L 161.2,236.7 L 164.9,245.8 L 168.7,254.6 L 172.4,262.9 L 176.2,270.9 L 179.9,278.6 L 183.7,285.9 L 187.4,293.0 L 191.2,299.7 L 194.9,306.3 L 198.7,312.5 L 202.4,318.6 L 206.2,324.4 L 209.9,330.0 L 213.7,335.4 L 217.4,340.6 L 221.2,345.7 L 224.9,350.6 L 228.7,355.3 L 232.4,359.8 L 236.2,364.3 L 239.9,368.5 L 243.7,372.7 L 247.4,376.7 L 251.2,380.6 L 254.9,384.4 L 258.7,388.1 L 262.4,391.7 L 266.2,395.2 L 269.9,398.5 L 273.7,401.8 L 277.4,405.0 L 281.2,408.1 L 284.9,411.2 L 288.7,414.1 L 292.4,417.0 L 296.2,419.8 L 299.9,422.5 L 303.7,425.2 L 307.4,427.8 L 311.2,430.3 L 314.9,432.8 L 318.7,435.2 L 322.4,437.6" fill="none" stroke="#2c5fa6" stroke-width="2.4" opacity="0"><animate attributeName="opacity" dur="34s" repeatCount="indefinite" keyTimes="0;0.4857;0.4917;0.6143;0.6203;1" values="0;0;1;1;0;0"/></path>
<g opacity="0"><animate attributeName="opacity" dur="34s" repeatCount="indefinite" keyTimes="0;0.4857;0.4917;0.6143;0.6203;1" values="0;0;1;1;0;0"/><line x1="213.3" y1="391.1" x2="254.4" y2="391.1" stroke="#2c5fa6" stroke-width="1.8" stroke-dasharray="3,2"/><line x1="254.4" y1="391.1" x2="254.4" y2="383.9" stroke="#2c5fa6" stroke-width="2.4" marker-end="url(#ah)"/></g>
<circle cx="254.4" cy="383.9" r="3.2" fill="#888" opacity="0"><animate attributeName="opacity" dur="34s" repeatCount="indefinite" keyTimes="0;0.4857;0.4917;1" values="0;0;1;1"/></circle>
<circle cx="254.4" cy="383.9" r="5.5" fill="#d9822b" stroke="#fff" stroke-width="1.5" opacity="0"><animate attributeName="opacity" dur="34s" repeatCount="indefinite" keyTimes="0;0.4857;0.4917;0.6143;0.6203;1" values="0;0;1;1;0;0"/></circle>
<g opacity="0"><animate attributeName="opacity" dur="34s" repeatCount="indefinite" keyTimes="0;0.6143;0.6203;0.7429;0.7489;1" values="0;0;1;1;0;0"/><line x1="378.2" y1="480.0" x2="80.0" y2="181.8" stroke="#2c5fa6" stroke-width="2.3"/></g>
<path d="M 174.7,204.6 L 178.4,214.5 L 182.2,224.0 L 185.9,233.1 L 189.7,241.8 L 193.4,250.2 L 197.2,258.3 L 200.9,266.1 L 204.7,273.6 L 208.4,280.8 L 212.2,287.8 L 215.9,294.5 L 219.7,301.0 L 223.4,307.3 L 227.2,313.4 L 230.9,319.2 L 234.7,324.9 L 238.4,330.4 L 242.2,335.8 L 245.9,340.9 L 249.7,346.0 L 253.4,350.8 L 257.2,355.6 L 260.9,360.2 L 264.7,364.6 L 268.4,369.0 L 272.2,373.2 L 275.9,377.3 L 279.7,381.3 L 283.4,385.2 L 287.2,388.9 L 290.9,392.6 L 294.7,396.2 L 298.4,399.7 L 302.2,403.1 L 305.9,406.5 L 309.7,409.7 L 313.4,412.9 L 317.2,416.0 L 320.9,419.0 L 324.7,422.0 L 328.4,424.9 L 332.2,427.7 L 335.9,430.5 L 339.7,433.2 L 343.4,435.8 L 347.2,438.4 L 350.9,440.9 L 354.7,443.4" fill="none" stroke="#2c5fa6" stroke-width="2.4" opacity="0"><animate attributeName="opacity" dur="34s" repeatCount="indefinite" keyTimes="0;0.6143;0.6203;0.7429;0.7489;1" values="0;0;1;1;0;0"/></path>
<g opacity="0"><animate attributeName="opacity" dur="34s" repeatCount="indefinite" keyTimes="0;0.6143;0.6203;0.7429;0.7489;1" values="0;0;1;1;0;0"/><line x1="254.4" y1="383.9" x2="286.7" y2="383.9" stroke="#2c5fa6" stroke-width="1.8" stroke-dasharray="3,2"/><line x1="286.7" y1="383.9" x2="286.7" y2="388.4" stroke="#c0392b" stroke-width="2.4" marker-end="url(#ah)"/></g>
<circle cx="286.7" cy="388.4" r="3.2" fill="#888" opacity="0"><animate attributeName="opacity" dur="34s" repeatCount="indefinite" keyTimes="0;0.6143;0.6203;1" values="0;0;1;1"/></circle>
<circle cx="286.7" cy="388.4" r="5.5" fill="#d9822b" stroke="#fff" stroke-width="1.5" opacity="0"><animate attributeName="opacity" dur="34s" repeatCount="indefinite" keyTimes="0;0.6143;0.6203;0.7429;0.7489;1" values="0;0;1;1;0;0"/></circle>
<g opacity="0"><animate attributeName="opacity" dur="34s" repeatCount="indefinite" keyTimes="0;0.7429;0.7489;0.8714;0.8774;1" values="0;0;1;1;0;0"/><line x1="398.9" y1="480.0" x2="80.0" y2="161.1" stroke="#2c5fa6" stroke-width="2.3"/></g>
<path d="M 211.3,233.1 L 215.1,241.7 L 218.8,250.0 L 222.6,258.1 L 226.3,265.9 L 230.1,273.4 L 233.8,280.7 L 237.6,287.7 L 241.3,294.6 L 245.1,301.2 L 248.8,307.6 L 252.6,313.9 L 256.3,319.9 L 260.1,325.8 L 263.8,331.5 L 267.6,337.1 L 271.3,342.5 L 275.1,347.7 L 278.8,352.8 L 282.6,357.8 L 286.3,362.7 L 290.1,367.4 L 293.8,372.0 L 297.6,376.5 L 301.3,380.8 L 305.1,385.1 L 308.8,389.3 L 312.6,393.3 L 316.3,397.3 L 320.1,401.2 L 323.8,404.9 L 327.6,408.6 L 331.3,412.3 L 335.1,415.8 L 338.8,419.2 L 342.6,422.6 L 346.3,425.9 L 350.1,429.2 L 353.8,432.3 L 357.6,435.4 L 361.3,438.4 L 365.1,441.4 L 368.8,444.3 L 372.6,447.2 L 376.3,450.0 L 380.1,452.7 L 383.8,455.4 L 387.6,458.0 L 391.3,460.6" fill="none" stroke="#2c5fa6" stroke-width="2.4" opacity="0"><animate attributeName="opacity" dur="34s" repeatCount="indefinite" keyTimes="0;0.7429;0.7489;0.8714;0.8774;1" values="0;0;1;1;0;0"/></path>
<g opacity="0"><animate attributeName="opacity" dur="34s" repeatCount="indefinite" keyTimes="0;0.7429;0.7489;0.8714;0.8774;1" values="0;0;1;1;0;0"/><line x1="286.7" y1="388.4" x2="323.3" y2="388.4" stroke="#2c5fa6" stroke-width="1.8" stroke-dasharray="3,2"/><line x1="323.3" y1="388.4" x2="323.3" y2="404.4" stroke="#c0392b" stroke-width="2.4" marker-end="url(#ah)"/></g>
<circle cx="323.3" cy="404.4" r="3.2" fill="#888" opacity="0"><animate attributeName="opacity" dur="34s" repeatCount="indefinite" keyTimes="0;0.7429;0.7489;1" values="0;0;1;1"/></circle>
<circle cx="323.3" cy="404.4" r="5.5" fill="#d9822b" stroke="#fff" stroke-width="1.5" opacity="0"><animate attributeName="opacity" dur="34s" repeatCount="indefinite" keyTimes="0;0.7429;0.7489;0.8714;0.8774;1" values="0;0;1;1;0;0"/></circle>
<g opacity="0"><animate attributeName="opacity" dur="34s" repeatCount="indefinite" keyTimes="0;0.8714;0.8774;1.0000;1.0000;1" values="0;0;1;1;0;0"/><line x1="408.0" y1="480.0" x2="80.0" y2="152.0" stroke="#2c5fa6" stroke-width="2.3"/></g>
<path d="M 248.0,269.4 L 251.2,276.0 L 254.3,282.4 L 257.5,288.7 L 260.7,294.8 L 263.8,300.8 L 267.0,306.6 L 270.2,312.3 L 273.3,317.9 L 276.5,323.3 L 279.7,328.6 L 282.8,333.8 L 286.0,338.9 L 289.2,343.8 L 292.3,348.7 L 295.5,353.4 L 298.7,358.1 L 301.8,362.6 L 305.0,367.1 L 308.2,371.4 L 311.3,375.7 L 314.5,379.9 L 317.7,384.0 L 320.8,388.1 L 324.0,392.0 L 327.2,395.9 L 330.3,399.7 L 333.5,403.4 L 336.7,407.0 L 339.8,410.6 L 343.0,414.2 L 346.2,417.6 L 349.3,421.0 L 352.5,424.3 L 355.7,427.6 L 358.8,430.8 L 362.0,434.0 L 365.2,437.1 L 368.3,440.1 L 371.5,443.1 L 374.7,446.1 L 377.8,449.0 L 381.0,451.8 L 384.2,454.6 L 387.3,457.4 L 390.5,460.1 L 393.7,462.8 L 396.8,465.4 L 400.0,468.0" fill="none" stroke="#2c5fa6" stroke-width="2.4" opacity="0"><animate attributeName="opacity" dur="34s" repeatCount="indefinite" keyTimes="0;0.8714;0.8774;1.0000;1.0000;1" values="0;0;1;1;0;0"/></path>
<g opacity="0"><animate attributeName="opacity" dur="34s" repeatCount="indefinite" keyTimes="0;0.8714;0.8774;1.0000;1.0000;1" values="0;0;1;1;0;0"/><line x1="323.3" y1="404.4" x2="360.0" y2="404.4" stroke="#2c5fa6" stroke-width="1.8" stroke-dasharray="3,2"/><line x1="360.0" y1="404.4" x2="360.0" y2="432.0" stroke="#c0392b" stroke-width="2.4" marker-end="url(#ah)"/></g>
<circle cx="360.0" cy="432.0" r="3.2" fill="#888" opacity="0"><animate attributeName="opacity" dur="34s" repeatCount="indefinite" keyTimes="0;0.8714;0.8774;1" values="0;0;1;1"/></circle>
<circle cx="360.0" cy="432.0" r="5.5" fill="#d9822b" stroke="#fff" stroke-width="1.5" opacity="0"><animate attributeName="opacity" dur="34s" repeatCount="indefinite" keyTimes="0;0.8714;0.8774;1.0000;1.0000;1" values="0;0;1;1;0;0"/></circle>
<text x="300" y="30" text-anchor="middle" font-size="13.5" fill="#333" opacity="0"><animate attributeName="opacity" dur="34s" repeatCount="indefinite" keyTimes="0;0.1000;0.1060;0.2286;0.2346;1" values="0;0;1;1;0;0"/>出発点：所得 m = 2.50（小さい）</text>
<text x="300" y="48" text-anchor="middle" font-size="12.5" fill="#666" opacity="0"><animate attributeName="opacity" dur="34s" repeatCount="indefinite" keyTimes="0;0.1000;0.1060;0.2286;0.2346;1" values="0;0;1;1;0;0"/>ここから所得を少しずつ増やしていく</text>
<text x="300" y="30" text-anchor="middle" font-size="13.5" fill="#333" opacity="0"><animate attributeName="opacity" dur="34s" repeatCount="indefinite" keyTimes="0;0.2286;0.2346;0.3571;0.3631;1" values="0;0;1;1;0;0"/>所得 m = 4.17 に増加</text>
<text x="300" y="48" text-anchor="middle" font-size="13" opacity="0"><animate attributeName="opacity" dur="34s" repeatCount="indefinite" keyTimes="0;0.2286;0.2346;0.3571;0.3631;1" values="0;0;1;1;0;0"/><tspan fill="#2c5fa6" font-weight="700">x：消費 ↑ → 正常財</tspan><tspan fill="#999">　／　</tspan><tspan fill="#2c5fa6" font-weight="700">y：消費 ↑ → 正常財</tspan></text>
<text x="300" y="30" text-anchor="middle" font-size="13.5" fill="#333" opacity="0"><animate attributeName="opacity" dur="34s" repeatCount="indefinite" keyTimes="0;0.3571;0.3631;0.4857;0.4917;1" values="0;0;1;1;0;0"/>所得 m = 5.56 に増加</text>
<text x="300" y="48" text-anchor="middle" font-size="13" opacity="0"><animate attributeName="opacity" dur="34s" repeatCount="indefinite" keyTimes="0;0.3571;0.3631;0.4857;0.4917;1" values="0;0;1;1;0;0"/><tspan fill="#2c5fa6" font-weight="700">x：消費 ↑ → 正常財</tspan><tspan fill="#999">　／　</tspan><tspan fill="#2c5fa6" font-weight="700">y：消費 ↑ → 正常財</tspan></text>
<text x="300" y="30" text-anchor="middle" font-size="13.5" fill="#333" opacity="0"><animate attributeName="opacity" dur="34s" repeatCount="indefinite" keyTimes="0;0.4857;0.4917;0.6143;0.6203;1" values="0;0;1;1;0;0"/>所得 m = 6.76 に増加</text>
<text x="300" y="48" text-anchor="middle" font-size="13" opacity="0"><animate attributeName="opacity" dur="34s" repeatCount="indefinite" keyTimes="0;0.4857;0.4917;0.6143;0.6203;1" values="0;0;1;1;0;0"/><tspan fill="#2c5fa6" font-weight="700">x：消費 ↑ → 正常財</tspan><tspan fill="#999">　／　</tspan><tspan fill="#2c5fa6" font-weight="700">y：消費 ↑ → 正常財</tspan></text>
<text x="300" y="30" text-anchor="middle" font-size="13.5" fill="#333" opacity="0"><animate attributeName="opacity" dur="34s" repeatCount="indefinite" keyTimes="0;0.6143;0.6203;0.7429;0.7489;1" values="0;0;1;1;0;0"/>所得 m = 7.46 に増加</text>
<text x="300" y="48" text-anchor="middle" font-size="13" opacity="0"><animate attributeName="opacity" dur="34s" repeatCount="indefinite" keyTimes="0;0.6143;0.6203;0.7429;0.7489;1" values="0;0;1;1;0;0"/><tspan fill="#2c5fa6" font-weight="700">x：消費 ↑ → 正常財</tspan><tspan fill="#999">　／　</tspan><tspan fill="#c0392b" font-weight="700">y：消費 ↓ → 劣等財</tspan></text>
<text x="300" y="30" text-anchor="middle" font-size="13.5" fill="#333" opacity="0"><animate attributeName="opacity" dur="34s" repeatCount="indefinite" keyTimes="0;0.7429;0.7489;0.8714;0.8774;1" values="0;0;1;1;0;0"/>所得 m = 7.97 に増加</text>
<text x="300" y="48" text-anchor="middle" font-size="13" opacity="0"><animate attributeName="opacity" dur="34s" repeatCount="indefinite" keyTimes="0;0.7429;0.7489;0.8714;0.8774;1" values="0;0;1;1;0;0"/><tspan fill="#2c5fa6" font-weight="700">x：消費 ↑ → 正常財</tspan><tspan fill="#999">　／　</tspan><tspan fill="#c0392b" font-weight="700">y：消費 ↓ → 劣等財</tspan></text>
<text x="300" y="30" text-anchor="middle" font-size="13.5" fill="#333" opacity="0"><animate attributeName="opacity" dur="34s" repeatCount="indefinite" keyTimes="0;0.8714;0.8774;1.0000;1.0000;1" values="0;0;1;1;0;0"/>所得 m = 8.20 に増加</text>
<text x="300" y="48" text-anchor="middle" font-size="13" opacity="0"><animate attributeName="opacity" dur="34s" repeatCount="indefinite" keyTimes="0;0.8714;0.8774;1.0000;1.0000;1" values="0;0;1;1;0;0"/><tspan fill="#2c5fa6" font-weight="700">x：消費 ↑ → 正常財</tspan><tspan fill="#999">　／　</tspan><tspan fill="#c0392b" font-weight="700">y：消費 ↓ → 劣等財</tspan></text>
</svg>