<svg class="typst-doc" viewBox="0 0 654.113327559055 320.26138661417326" width="654.113327559055pt" height="320.26138661417326pt" xmlns="http://www.w3.org/2000/svg" xmlns:xlink="http://www.w3.org/1999/xlink" xmlns:h5="http://www.w3.org/1999/xhtml">
    <g>
        <g class="typst-group">
            <g>
                <g class="typst-group" transform="matrix(1 0 0 1 1.4173228346456692 1.4173228346456692)">
                    <g>
                        <path class="typst-shape" fill="none" stroke="#000000" stroke-width="1" stroke-linecap="butt" stroke-linejoin="miter" stroke-miterlimit="4" transform="matrix(1 0 0 1 14.6553 5.1535)" d="M 0 0m 0 307.11975 v -282.04056 "/>
                        <path class="typst-shape" fill="none" stroke="#000000" stroke-width="1" stroke-linecap="butt" stroke-linejoin="miter" stroke-miterlimit="4" stroke-dashoffset="0" stroke-dasharray="" transform="matrix(1 0 0 1 12.529315748031497 -271.2177749656693)" d="M 0 0m 0 307.11975 l 2.1259842 -5.6693115 l 2.1259842 5.6693115 "/>
                        <path class="typst-shape" fill="none" stroke="#000000" stroke-width="1" stroke-linecap="butt" stroke-linejoin="miter" stroke-miterlimit="4" transform="matrix(1 0 0 1 14.6553 5.1535)" d="M 0 0m 0 307.11975 h 282.04053 "/>
                        <path class="typst-shape" fill="none" stroke="#000000" stroke-width="1" stroke-linecap="butt" stroke-linejoin="miter" stroke-miterlimit="4" stroke-dashoffset="0" stroke-dasharray="" transform="matrix(1 0 0 1 291.0265749656693 7.279484251968504)" d="M 0 0m 0 302.86777 l 5.6692915 2.1259766 l -5.6692915 2.126007 "/>
                        <path class="typst-shape" fill="none" transform="matrix(1 0 0 1 298.1198669291338 10.307)" d="M 0 0m 0 296.81274 h 27.519474 v 10.307007 h -27.519474 v -10.307007 Z "/>
                        <g class="typst-group">
                            <g>
                                <g class="typst-group" transform="matrix(1 0 0 1 298.11986691338586 307.11974088188975)">
                                    <g>
                                        <g class="typst-text" transform="matrix(1 0 0 -1 8.503937007874017 7.513000000000001)">
                                            <use xlink:href="#gA5CC3BF73ED0EBFD8701B42FB9B33ACB" x="0" y="0" fill="#000000" fill-rule="nonzero"/>
                                        </g>
                                        <g class="typst-text" transform="matrix(1 0 0 -1 13.409937007874015 10.23)">
                                            <use xlink:href="#g720B14ED4A11BB42F1DED5B398E0A60B" x="0" y="0" fill="#000000" fill-rule="nonzero"/>
                                        </g>
                                    </g>
                                </g>
                            </g>
                        </g>
                        <path class="typst-shape" fill="none" transform="matrix(1 0 0 1 9.6305 -278.31106692913386)" d="M 0 0m 0 278.31107 h 10.0496 v 28.808685 h -10.0496 v -28.808685 Z "/>
                        <g class="typst-group">
                            <g>
                                <g class="typst-group" transform="matrix(1 0 0 1 9.630499937007874 -0.00000014173228310672733)">
                                    <g>
                                        <g class="typst-text" transform="matrix(1 0 0 -1 0 16.016937007874017)">
                                            <use xlink:href="#gA5CC3BF73ED0EBFD8701B42FB9B33ACB" x="0" y="0" fill="#000000" fill-rule="nonzero"/>
                                        </g>
                                        <g class="typst-text" transform="matrix(1 0 0 -1 4.905999999999999 18.733937007874015)">
                                            <use xlink:href="#gFFB2EB05C26336FD9AC9D1659A15A85A" x="0" y="0" fill="#000000" fill-rule="nonzero"/>
                                        </g>
                                    </g>
                                </g>
                            </g>
                        </g>
                        <path class="typst-shape" fill="none" stroke="#0074d9" stroke-width="2" stroke-linecap="butt" stroke-linejoin="miter" stroke-miterlimit="4" transform="matrix(1 0 0 1 25.993882677165356 -6.185082677165354)" d="M 0 0m 158.74016 307.11975 c -94.48819 -11.338593 -147.40158 -64.25198 -158.74016 -158.74017 "/>
                        <path class="typst-shape" fill="none" stroke="#000000" stroke-width="1" stroke-linecap="butt" stroke-linejoin="miter" stroke-miterlimit="4" transform="matrix(1 0 0 1 14.6553 5.1535)" d="M 0 0m 119.055115 307.11975 l -119.055115 -119.05513 "/>
                        <path class="typst-shape" fill="#ffffff" fill-rule="nonzero" stroke="#000000" stroke-width="1" stroke-linecap="butt" stroke-linejoin="miter" stroke-miterlimit="4" transform="matrix(1 0 0 1 71.18285905511812 -51.37405905511811)" d="M 0 0m 3 301.11975 c -1.655352 0 -3 1.344635 -3 3 c 0 1.6553345 1.344648 3 3 3 c 1.6553521 0 3 -1.3446655 3 -3 c 0 -1.655365 -1.3446479 -3 -3 -3 Z "/>
                        <path class="typst-shape" fill="none" transform="matrix(1 0 0 1 0 -108.78661811023622)" d="M 0 0m 0 296.88974 h 14.6553 v 10.230011 h -14.6553 v -10.230011 Z "/>
                        <g class="typst-group">
                            <g>
                                <g class="typst-group" transform="matrix(1 0 0 1 -0.00000004724409347373715 188.10312278740156)">
                                    <g>
                                        <g class="typst-text" transform="matrix(1 0 0 -1 0 7.513000000000001)">
                                            <use xlink:href="#g7C4650E585A6E0C2590C90CC5078F3C" x="0" y="0" fill="#000000" fill-rule="nonzero"/>
                                        </g>
                                        <g class="typst-text" transform="matrix(1 0 0 -1 9.658 10.23)">
                                            <use xlink:href="#g664CCB1FA1914A547B0F596F3F4B1A73" x="0" y="0" fill="#000000" fill-rule="nonzero"/>
                                        </g>
                                    </g>
                                </g>
                            </g>
                        </g>
                        <path class="typst-shape" fill="none" stroke="#80211b" stroke-width="2" stroke-linecap="butt" stroke-linejoin="miter" stroke-miterlimit="4" transform="matrix(1 0 0 1 31.663174015748034 -11.85437401574803)" d="M 0 0m 266.4567 307.11975 c -151.1811 -26.456696 -240 -115.275604 -266.4567 -266.4567 "/>
                        <path class="typst-shape" fill="none" stroke="#000000" stroke-width="1" stroke-linecap="butt" stroke-linejoin="miter" stroke-miterlimit="4" transform="matrix(1 0 0 1 14.6553 5.1535)" d="M 0 0m 206.92914 307.11975 l -206.92914 -206.92914 "/>
                        <path class="typst-shape" fill="#ffffff" fill-rule="nonzero" stroke="#000000" stroke-width="1" stroke-linecap="butt" stroke-linejoin="miter" stroke-miterlimit="4" transform="matrix(1 0 0 1 115.11986692913385 -95.31106692913386)" d="M 0 0m 3 301.11975 c -1.655352 0 -3 1.344635 -3 3 c 0 1.6553345 1.344648 3 3 3 c 1.6553521 0 3 -1.3446655 3 -3 c 0 -1.655365 -1.3446479 -3 -3 -3 Z "/>
                        <path class="typst-shape" fill="none" transform="matrix(1 0 0 1 0 -196.6606338582677)" d="M 0 0m 0 296.88974 h 14.6553 v 10.230011 h -14.6553 v -10.230011 Z "/>
                        <g class="typst-group">
                            <g>
                                <g class="typst-group" transform="matrix(1 0 0 1 -0.00000004724409347373715 100.22910703937008)">
                                    <g>
                                        <g class="typst-text" transform="matrix(1 0 0 -1 0 7.513000000000001)">
                                            <use xlink:href="#g7C4650E585A6E0C2590C90CC5078F3C" x="0" y="0" fill="#000000" fill-rule="nonzero"/>
                                        </g>
                                        <g class="typst-text" transform="matrix(1 0 0 -1 9.658 10.23)">
                                            <use xlink:href="#gC9186649AEFA7E11DE29FCBA00FF9FBB" x="0" y="0" fill="#000000" fill-rule="nonzero"/>
                                        </g>
                                    </g>
                                </g>
                            </g>
                        </g>
                        <path class="typst-shape" fill="none" stroke="#000000" stroke-width="1" stroke-linecap="butt" stroke-linejoin="miter" stroke-miterlimit="4" transform="matrix(1 0 0 1 74.18285905511812 -54.37405905511811)" d="M 0 0m 0 307.11975 l 40.223305 -40.223328 "/>
                        <path class="typst-shape" fill="none" stroke="#000000" stroke-width="1" stroke-linecap="butt" stroke-linejoin="round" stroke-miterlimit="4" stroke-dashoffset="0" stroke-dasharray="" transform="matrix(1 0 0 1 112.25422130844095 -92.44542130844094)" d="M 0 0m 5.512092 301.60764 c -1.1413927 0.6403198 -2.978757 1.4754639 -5.512092 2.5055237 c 1.670331 0.3340454 2.6725295 1.3362427 3.0065958 3.0065918 c 1.0300372 -2.5333557 1.8652027 -4.370697 2.5054963 -5.5121155 Z "/>
                        <path class="typst-shape" fill="none" transform="matrix(1 0 0 1 65.05785905511812 -54.37405905511811)" d="M 0 0m 0 289.60675 h 18.25 v 17.513 h -18.25 v -17.513 Z "/>
                        <g class="typst-group">
                            <g>
                                <g class="typst-group" transform="matrix(1 0 0 1 65.05785897637796 235.23268177952758)">
                                    <g>
                                        <g class="typst-text" transform="matrix(1 0 0 -1 5 12.513)">
                                            <use xlink:href="#gCF63094C0A3499FBAD3633CAD9DF1016" x="0" y="0" fill="#000000" fill-rule="nonzero"/>
                                        </g>
                                    </g>
                                </g>
                            </g>
                        </g>
                        <path class="typst-shape" fill="none" transform="matrix(1 0 0 1 108.80786692913385 -98.31106692913386)" d="M 0 0m 0 289.60675 h 18.624 v 17.513 h -18.624 v -17.513 Z "/>
                        <g class="typst-group">
                            <g>
                                <g class="typst-group" transform="matrix(1 0 0 1 108.80786683464567 191.2956739055118)">
                                    <g>
                                        <g class="typst-text" transform="matrix(1 0 0 -1 5 12.513)">
                                            <use xlink:href="#g234A68D74EC6D0A5F468D327EB214F71" x="0" y="0" fill="#000000" fill-rule="nonzero"/>
                                        </g>
                                    </g>
                                </g>
                            </g>
                        </g>
                    </g>
                </g>
                <g class="typst-group" transform="matrix(1 0 0 1 327.0566637795275 1.4173228346456692)">
                    <g>
                        <path class="typst-shape" fill="none" stroke="#000000" stroke-width="1" stroke-linecap="butt" stroke-linejoin="miter" stroke-miterlimit="4" transform="matrix(1 0 0 1 14.6553 5.1535)" d="M 0 0m 0 307.11975 v -282.04056 "/>
                        <path class="typst-shape" fill="none" stroke="#000000" stroke-width="1" stroke-linecap="butt" stroke-linejoin="miter" stroke-miterlimit="4" stroke-dashoffset="0" stroke-dasharray="" transform="matrix(1 0 0 1 12.529315748031497 -271.2177749656693)" d="M 0 0m 0 307.11975 l 2.1259842 -5.6693115 l 2.1259842 5.6693115 "/>
                        <path class="typst-shape" fill="none" stroke="#000000" stroke-width="1" stroke-linecap="butt" stroke-linejoin="miter" stroke-miterlimit="4" transform="matrix(1 0 0 1 14.6553 5.1535)" d="M 0 0m 0 307.11975 h 282.04053 "/>
                        <path class="typst-shape" fill="none" stroke="#000000" stroke-width="1" stroke-linecap="butt" stroke-linejoin="miter" stroke-miterlimit="4" stroke-dashoffset="0" stroke-dasharray="" transform="matrix(1 0 0 1 291.0265749656693 7.279484251968504)" d="M 0 0m 0 302.86777 l 5.6692915 2.1259766 l -5.6692915 2.126007 "/>
                        <path class="typst-shape" fill="none" transform="matrix(1 0 0 1 298.1198669291338 10.307)" d="M 0 0m 0 296.81274 h 27.519474 v 10.307007 h -27.519474 v -10.307007 Z "/>
                        <g class="typst-group">
                            <g>
                                <g class="typst-group" transform="matrix(1 0 0 1 298.11986691338586 307.11974088188975)">
                                    <g>
                                        <g class="typst-text" transform="matrix(1 0 0 -1 8.503937007874017 7.513000000000001)">
                                            <use xlink:href="#gA5CC3BF73ED0EBFD8701B42FB9B33ACB" x="0" y="0" fill="#000000" fill-rule="nonzero"/>
                                        </g>
                                        <g class="typst-text" transform="matrix(1 0 0 -1 13.409937007874015 10.23)">
                                            <use xlink:href="#g720B14ED4A11BB42F1DED5B398E0A60B" x="0" y="0" fill="#000000" fill-rule="nonzero"/>
                                        </g>
                                    </g>
                                </g>
                            </g>
                        </g>
                        <path class="typst-shape" fill="none" transform="matrix(1 0 0 1 9.6305 -278.31106692913386)" d="M 0 0m 0 278.31107 h 10.0496 v 28.808685 h -10.0496 v -28.808685 Z "/>
                        <g class="typst-group">
                            <g>
                                <g class="typst-group" transform="matrix(1 0 0 1 9.630499937007874 -0.00000014173228310672733)">
                                    <g>
                                        <g class="typst-text" transform="matrix(1 0 0 -1 0 16.016937007874017)">
                                            <use xlink:href="#gA5CC3BF73ED0EBFD8701B42FB9B33ACB" x="0" y="0" fill="#000000" fill-rule="nonzero"/>
                                        </g>
                                        <g class="typst-text" transform="matrix(1 0 0 -1 4.905999999999999 18.733937007874015)">
                                            <use xlink:href="#gFFB2EB05C26336FD9AC9D1659A15A85A" x="0" y="0" fill="#000000" fill-rule="nonzero"/>
                                        </g>
                                    </g>
                                </g>
                            </g>
                        </g>
                        <path class="typst-shape" fill="none" stroke="#0074d9" stroke-width="2" stroke-linecap="butt" stroke-linejoin="miter" stroke-miterlimit="4" transform="matrix(1 0 0 1 25.993882677165356 -6.185082677165354)" d="M 0 0m 215.43307 307.11975 c -94.48819 -11.338593 -166.29922 -83.14961 -215.43307 -215.43307 "/>
                        <path class="typst-shape" fill="none" stroke="#000000" stroke-width="1" stroke-linecap="butt" stroke-linejoin="miter" stroke-miterlimit="4" transform="matrix(1 0 0 1 14.6553 5.1535)" d="M 0 0m 175.74803 307.11975 l -175.74803 -175.74805 "/>
                        <path class="typst-shape" fill="none" stroke="#80211b" stroke-width="2" stroke-linecap="butt" stroke-linejoin="miter" stroke-miterlimit="4" transform="matrix(1 0 0 1 31.663174015748034 -11.85437401574803)" d="M 0 0m 266.4567 307.11975 c -170.07874 -64.25198 -258.89764 -153.07088 -266.4567 -266.4567 "/>
                        <path class="typst-shape" fill="none" stroke="#000000" stroke-width="1" stroke-linecap="butt" stroke-linejoin="miter" stroke-miterlimit="4" transform="matrix(1 0 0 1 14.6553 5.1535)" d="M 0 0m 221.10236 307.11975 l -221.10236 -221.10237 "/>
                        <path class="typst-shape" fill="none" transform="matrix(1 0 0 1 0 -210.83386220472437)" d="M 0 0m 0 296.88974 h 14.6553 v 10.230011 h -14.6553 v -10.230011 Z "/>
                        <g class="typst-group">
                            <g>
                                <g class="typst-group" transform="matrix(1 0 0 1 -0.00000004724409347373715 86.0558786929134)">
                                    <g>
                                        <g class="typst-text" transform="matrix(1 0 0 -1 0 7.513000000000001)">
                                            <use xlink:href="#g7C4650E585A6E0C2590C90CC5078F3C" x="0" y="0" fill="#000000" fill-rule="nonzero"/>
                                        </g>
                                        <g class="typst-text" transform="matrix(1 0 0 -1 9.658 10.23)">
                                            <use xlink:href="#gC9186649AEFA7E11DE29FCBA00FF9FBB" x="0" y="0" fill="#000000" fill-rule="nonzero"/>
                                        </g>
                                    </g>
                                </g>
                            </g>
                        </g>
                        <path class="typst-shape" fill="#ffffff" fill-rule="nonzero" stroke="#000000" stroke-width="1" stroke-linecap="butt" stroke-linejoin="miter" stroke-miterlimit="4" transform="matrix(1 0 0 1 113.7025440944882 -65.54728740157479)" d="M 0 0m 3 301.11975 c -1.655352 0 -3 1.344635 -3 3 c 0 1.6553345 1.344648 3 3 3 c 1.6553521 0 3 -1.3446655 3 -3 c 0 -1.655365 -1.3446479 -3 -3 -3 Z "/>
                        <path class="typst-shape" fill="none" transform="matrix(1 0 0 1 107.5775440944882 -68.54728740157479)" d="M 0 0m 0 289.60675 h 18.25 v 17.513 h -18.25 v -17.513 Z "/>
                        <g class="typst-group">
                            <g>
                                <g class="typst-group" transform="matrix(1 0 0 1 107.57754401574803 221.05945343307087)">
                                    <g>
                                        <g class="typst-text" transform="matrix(1 0 0 -1 5 12.513)">
                                            <use xlink:href="#gCF63094C0A3499FBAD3633CAD9DF1016" x="0" y="0" fill="#000000" fill-rule="nonzero"/>
                                        </g>
                                    </g>
                                </g>
                            </g>
                        </g>
                        <path class="typst-shape" fill="#ffffff" fill-rule="nonzero" stroke="#000000" stroke-width="1" stroke-linecap="butt" stroke-linejoin="miter" stroke-miterlimit="4" transform="matrix(1 0 0 1 96.69467007874015 -127.90949212598424)" d="M 0 0m 3 301.11975 c -1.655352 0 -3 1.344635 -3 3 c 0 1.6553345 1.344648 3 3 3 c 1.6553521 0 3 -1.3446655 3 -3 c 0 -1.655365 -1.3446479 -3 -3 -3 Z "/>
                        <path class="typst-shape" fill="none" transform="matrix(1 0 0 1 0 -165.479531496063)" d="M 0 0m 0 296.88974 h 14.6553 v 10.230011 h -14.6553 v -10.230011 Z "/>
                        <g class="typst-group">
                            <g>
                                <g class="typst-group" transform="matrix(1 0 0 1 -0.00000004724409347373715 131.4102094015748)">
                                    <g>
                                        <g class="typst-text" transform="matrix(1 0 0 -1 0 7.513000000000001)">
                                            <use xlink:href="#g7C4650E585A6E0C2590C90CC5078F3C" x="0" y="0" fill="#000000" fill-rule="nonzero"/>
                                        </g>
                                        <g class="typst-text" transform="matrix(1 0 0 -1 9.658 10.23)">
                                            <use xlink:href="#g664CCB1FA1914A547B0F596F3F4B1A73" x="0" y="0" fill="#000000" fill-rule="nonzero"/>
                                        </g>
                                    </g>
                                </g>
                            </g>
                        </g>
                        <path class="typst-shape" fill="none" transform="matrix(1 0 0 1 90.38267007874015 -130.90949212598426)" d="M 0 0m 0 289.60675 h 18.624 v 17.513 h -18.624 v -17.513 Z "/>
                        <g class="typst-group">
                            <g>
                                <g class="typst-group" transform="matrix(1 0 0 1 90.38266998425198 158.69724870866142)">
                                    <g>
                                        <g class="typst-text" transform="matrix(1 0 0 -1 5 12.513)">
                                            <use xlink:href="#g234A68D74EC6D0A5F468D327EB214F71" x="0" y="0" fill="#000000" fill-rule="nonzero"/>
                                        </g>
                                    </g>
                                </g>
                            </g>
                        </g>
                        <path class="typst-shape" fill="none" stroke="#000000" stroke-width="1" stroke-linecap="butt" stroke-linejoin="miter" stroke-miterlimit="4" transform="matrix(1 0 0 1 101.07655440679794 -68.54728740157479)" d="M 0 0m 15.62599 307.11975 l -15.62599 -57.295303 "/>
                        <path class="typst-shape" fill="none" stroke="#000000" stroke-width="1" stroke-linecap="butt" stroke-linejoin="round" stroke-miterlimit="4" stroke-dashoffset="0" stroke-dasharray="" transform="matrix(1 0 0 1 99.26684532103937 -124.39819958023621)" d="M 0 0m 0.55938345 301.09082 c -0.01035893 1.3086853 -0.19682011 3.3183289 -0.55938345 6.0289307 c 1.1187669 -1.2845154 2.4861488 -1.6574402 4.102145 -1.1187744 c -1.6885092 -2.1512146 -2.8694298 -3.7879333 -3.5427618 -4.9101563 Z "/>
                    </g>
                </g>
            </g>
        </g>
    </g>
    <defs id="glyph">
        <symbol id="gA5CC3BF73ED0EBFD8701B42FB9B33ACB" overflow="visible">
            <path d="M 0 0m 4.092 4.147 c -0.22000003 0.47300005 -0.5610001 0.71500015 -1.0120001 0.71500015 c -0.7149999 0 -1.3419999 -0.36299992 -1.8809999 -1.0999999 c -0.506 -0.68200016 -0.759 -1.3860002 -0.759 -2.1230001 c 0 -0.95699996 0.55 -1.782 1.463 -1.782 c 0.39600003 0 0.79199994 0.187 1.199 0.561 l -0.45099998 -1.804 c -0.032999992 -0.16499996 -0.13199997 -0.26399994 -0.286 -0.29699993 c -0.055000067 -0.011000037 -0.19799995 -0.022000074 -0.45099998 -0.022000074 c -0.065999985 -0.010999918 -0.110000014 -0.010999918 -0.13200009 -0.010999918 c -0.09899998 -0.011000037 -0.15399992 -0.09899998 -0.15399992 -0.25300002 v -0.04400003 c 0.032999992 -0.0769999 0.09899998 -0.12100005 0.18699992 -0.12100005 c 0.20899999 0 0.8690001 0.032999992 1.078 0.032999992 c 0.20900011 0 0.9020002 -0.032999992 1.1110003 -0.032999992 c 0.1539998 0 0.23099995 0.08800006 0.23099995 0.26400006 c 0 0.110000014 -0.11000013 0.16499996 -0.31900024 0.16499996 c -0.19799995 0 -0.4729998 -0.010999918 -0.4729998 0.12100005 c 0 0.04400003 0.010999918 0.12100005 0.04399991 0.23099995 l 1.4850001 6.05 c 0 0.09899998 -0.055000305 0.1539998 -0.15400028 0.1539998 c -0.19799995 0 -0.6159997 -0.5499997 -0.72599983 -0.704 Z m -0.352 -0.043999672 c 0.09899998 -0.23100019 0.15400004 -0.38500023 0.15400004 -0.4840002 c 0 -0.010999918 -0.011000156 -0.0769999 -0.032999992 -0.17599988 l -0.26400018 -1.0670002 c -0.20899987 -0.79199994 -0.30799985 -1.1989999 -0.319 -1.221 c -0.20899987 -0.385 -0.8139999 -0.979 -1.3419999 -0.979 c -0.42900002 0 -0.64900005 0.32999998 -0.64900005 0.979 c 0 0.50600004 0.34100008 1.7379999 0.495 2.145 c 0.20899999 0.51699996 0.69299996 1.2320001 1.298 1.2320001 c 0.29700017 0 0.51699996 -0.14300013 0.6600001 -0.4289999 Z "/>
        </symbol>
        <symbol id="g720B14ED4A11BB42F1DED5B398E0A60B" overflow="visible">
            <path d="M 0 0m 4.4891 2.8105 c 0 0.39269996 -0.40040016 0.5852001 -0.8162 0.5852001 c -0.34649992 0 -0.63139987 -0.16939998 -0.8469999 -0.50819993 c -0.18480015 0.33879995 -0.4928 0.50819993 -0.91630006 0.50819993 c -0.28490007 0 -0.5852001 -0.12319994 -0.8855001 -0.37730002 c -0.31569993 -0.26180005 -0.47739995 -0.53130007 -0.47739995 -0.80850005 c 0 -0.08469987 0.053900003 -0.1308999 0.15399998 -0.1308999 c 0.08469999 0 0.13859999 0.046200037 0.1771 0.14630008 c 0.13859999 0.41579986 0.5159 0.9008999 1.0087 0.9008999 c 0.28490007 0 0.42349994 -0.15400004 0.42349994 -0.46969986 c 0 -0.10010004 -0.053900003 -0.3619001 -0.15400004 -0.78540015 l -0.26179993 -1.0318 c -0.06929994 -0.29259998 -0.3542 -0.6468 -0.6853 -0.6468 c -0.13090003 0 -0.2464 0.023100004 -0.33879995 0.07699999 c 0.15399992 0.069300026 0.29259992 0.2387 0.29259992 0.4158 c 0 0.18480003 -0.14629996 0.31570005 -0.33109993 0.31570005 c -0.2618 0 -0.462 -0.23100007 -0.462 -0.49280006 c 0 -0.385 0.4081 -0.5852 0.82390004 -0.5852 c 0.3542 0 0.63909996 0.1694 0.8469999 0.5082 c 0.18480015 -0.3388 0.48510003 -0.5082 0.9086001 -0.5082 c 0.42350006 0 0.7623 0.1694 1.0241001 0.5082 c 0.22329974 0.30029997 0.33879972 0.53129995 0.33879972 0.6775999 c 0 0.08470011 -0.0461998 0.13090003 -0.14629984 0.13090003 c -0.08470011 0 -0.14629984 -0.053900003 -0.17709994 -0.15399992 c -0.13090014 -0.4081 -0.5236001 -0.89320004 -1.0087001 -0.89320004 c -0.28489995 0 -0.4311998 0.15400001 -0.4311998 0.462 c 0 0.11549997 0.1308999 0.69299996 0.39269996 1.7170999 c 0.1308999 0.50049996 0.36189985 0.75460005 0.7084 0.75460005 l 0.06929994 -0.0076999664 c 0.092400074 0 0.18479991 -0.0230999 0.26950002 -0.06159997 c -0.19250011 -0.08470011 -0.28489995 -0.22329998 -0.28489995 -0.42350006 c 0 -0.18479991 0.14629984 -0.31570005 0.3311 -0.31570005 c 0.2617998 0 0.45429993 0.23100019 0.45429993 0.4928 Z "/>
        </symbol>
        <symbol id="gFFB2EB05C26336FD9AC9D1659A15A85A" overflow="visible">
            <path d="M 0 0m 4.0348 3.3187 c -0.15400004 0 -0.26950002 -0.069300175 -0.33879995 -0.20020008 c -0.015400171 -0.0230999 -0.053900003 -0.16939998 -0.12320018 -0.44659996 l -0.4619999 -1.848 c -0.053900003 -0.08469999 -0.10010004 -0.16170001 -0.15400004 -0.22329998 c -0.24639988 -0.2849 -0.50049996 -0.4235 -0.75460005 -0.4235 c -0.3233999 0 -0.4850999 0.20019999 -0.4850999 0.6006 c 0 0.2849 0.13090003 0.7777 0.40040004 1.463 c 0.08469987 0.23099995 0.1308999 0.39269996 0.1308999 0.47740006 c 0 0.40039992 -0.34650004 0.6775999 -0.74689996 0.6775999 c -0.36960006 0 -0.66220003 -0.18479991 -0.8778 -0.55439997 c -0.17710003 -0.30030012 -0.26180002 -0.51590014 -0.26180002 -0.6391001 c 0 -0.08469987 0.053900003 -0.1308999 0.16169998 -0.1308999 c 0.08469999 0 0.13859999 0.046200037 0.16170001 0.14629984 c 0.1771 0.6006 0.44659996 0.9009001 0.7931 0.9009001 c 0.10010004 0 0.15400004 -0.0769999 0.15400004 -0.23099995 c 0 -0.11549997 -0.030800104 -0.25410008 -0.10010004 -0.43120003 c -0.16170001 -0.40810013 -0.25409997 -0.6622 -0.29260004 -0.7623 c -0.10009992 -0.3003 -0.14629996 -0.5698 -0.14629996 -0.7931 c 0 -0.6545 0.42349994 -0.9933 1.0780001 -0.9933 c 0.28489995 0 0.53900003 0.0924 0.77769995 0.2849 c -0.11549997 -0.4389 -0.26950002 -0.7777 -0.4697001 -1.0164 c -0.27719998 -0.31570005 -0.5697999 -0.46969998 -0.88549995 -0.46969998 c -0.23869991 0 -0.41579998 0.06159997 -0.5236 0.1925 c 0.21560001 0.053900003 0.39269996 0.20019996 0.39269996 0.44659996 c 0 0.20790002 -0.10779989 0.3157 -0.3311 0.3157 c -0.27719998 0 -0.46969998 -0.25409997 -0.46969998 -0.5313 c 0 -0.45429993 0.44659996 -0.7006999 0.9317 -0.7006999 c 0.45429993 0 0.86240005 0.15399992 1.2397001 0.45429993 c 0.37730002 0.3003 0.61599994 0.6776 0.72379994 1.1165 l 0.72379994 2.8720999 c 0.0230999 0.08470011 0.030799866 0.13860011 0.030799866 0.17710018 c 0 0.1539998 -0.12319994 0.26950002 -0.27719975 0.26950002 Z "/>
        </symbol>
        <symbol id="g7C4650E585A6E0C2590C90CC5078F3C" overflow="visible">
            <path d="M 0 0m 7.2269998 4.862 c -0.671 0 -1.2539997 -0.32999992 -1.7489996 -0.9790001 c -0.09899998 0.64900017 -0.5170002 0.9790001 -1.2650003 0.9790001 c -0.6489999 0 -1.2099998 -0.28599977 -1.6719999 -0.86899996 c -0.08799982 0.48399973 -0.4729998 0.86899996 -1.0339999 0.86899996 c -0.45099998 0 -0.78099996 -0.36299992 -1.012 -1.0780001 c -0.12099999 -0.352 -0.176 -0.5609999 -0.176 -0.62699986 c 0 -0.09899998 0.055000007 -0.15400004 0.176 -0.15400004 c 0.055000007 0 0.088 0.010999918 0.12099999 0.032999992 c 0.055000007 0.09899998 0.088 0.17599988 0.110000014 0.25300002 c 0.19800001 0.83599997 0.45100003 1.2539997 0.74799997 1.2539997 c 0.19799995 0 0.29700005 -0.1539998 0.29700005 -0.4619999 c 0 -0.14299989 -0.055000067 -0.43999982 -0.176 -0.8909998 l -0.62700003 -2.497 c -0.04399997 -0.13200003 -0.09899998 -0.418 -0.09899998 -0.48400003 c 0 -0.22 0.12099999 -0.32999998 0.35199994 -0.32999998 c 0.22000003 0 0.37400007 0.11 0.45099998 0.32999998 c 0.011000037 0.055000007 0.08800006 0.32999998 0.20900011 0.803 l 0.23099995 0.979 l 0.32999992 1.254 c 0.12100005 0.25300002 0.3080001 0.50600004 0.5500002 0.77 c 0.31899977 0.35200024 0.7149999 0.5279999 1.1879997 0.5279999 c 0.36299992 0 0.53900003 -0.24199963 0.53900003 -0.7149997 c 0 -0.14300013 -0.05499983 -0.44000006 -0.16499996 -0.89100003 l -0.29699993 -1.2540001 c -0.07700014 -0.319 -0.25299978 -0.979 -0.34100008 -1.331 c -0.010999918 -0.07699999 -0.021999836 -0.12099999 -0.021999836 -0.143 c 0 -0.22 0.12099981 -0.32999998 0.36299992 -0.32999998 c 0.12099981 0 0.20900011 0.033 0.28599977 0.11 c 0.16500044 0.16499999 0.17600012 0.24200001 0.2420001 0.539 l 0.64900017 2.6069999 c 0.032999992 0.14299989 0.1869998 0.3959999 0.45099974 0.7479999 c 0.3300004 0.44000006 0.77 0.65999985 1.309 0.65999985 c 0.3630004 0 0.53900003 -0.24199963 0.53900003 -0.7149997 c 0 -0.42900014 -0.21999979 -1.2320001 -0.671 -2.409 c -0.09899998 -0.25300002 -0.14299965 -0.462 -0.14299965 -0.605 c 0 -0.53900003 0.4069996 -0.935 0.93499994 -0.935 c 0.4949999 0 0.8689995 0.275 1.144 0.825 c 0.22000027 0.44000006 0.32999992 0.737 0.32999992 0.88 c 0 0.09899998 -0.055000305 0.15400004 -0.17599964 0.15400004 c -0.07700062 -0.011000037 -0.15400028 -0.110000014 -0.20900059 -0.23100007 c -0.24199963 -0.86899996 -0.59399986 -1.309 -1.0669999 -1.309 c -0.14300013 0 -0.21999979 0.11 -0.21999979 0.319 c 0 0.16499996 0.065999985 0.407 0.19799995 0.74799997 c 0.4510002 1.1769999 0.6709995 1.9799999 0.6709995 2.3979998 c 0 0.7809999 -0.51699924 1.1990001 -1.2979999 1.1990001 Z "/>
        </symbol>
        <symbol id="g664CCB1FA1914A547B0F596F3F4B1A73" overflow="visible">
            <path d="M 0 0m 2.3331 5.1128 c -0.3311 -0.32340002 -0.8239001 -0.48510027 -1.4938002 -0.48510027 v -0.33879995 c 0.4543 0 0.81619996 0.069300175 1.0934 0.20020008 v -3.8346 c 0 -0.10010004 -0.0077000856 -0.16170001 -0.030800104 -0.1925 c -0.03849995 -0.08470002 -0.2694999 -0.13090003 -0.69299996 -0.13090003 h -0.3157 v -0.3311 l 1.3706 0.0308 l 1.3783002 -0.0308 v 0.3311 h -0.31570005 c -0.42350006 0 -0.6545 0.046200007 -0.70070004 0.13090003 c -0.015399933 0.030799985 -0.0230999 0.092399955 -0.0230999 0.1925 v 4.2118998 c 0 0.20790005 -0.030800104 0.24640036 -0.26950002 0.24640036 Z "/>
        </symbol>
        <symbol id="gC9186649AEFA7E11DE29FCBA00FF9FBB" overflow="visible">
            <path d="M 0 0m 0.9163 3.2648 c 0.24639994 0 0.43119997 0.18479991 0.43119997 0.43120003 c 0 0.27719998 -0.14629996 0.42350006 -0.43119997 0.43120003 c 0.16940004 0.36189985 0.5544 0.6545 1.0548999 0.6545 c 0.6775999 0 1.1242001 -0.50820017 1.1242001 -1.1858001 c 0 -0.36960006 -0.13090014 -0.7238002 -0.40040016 -1.0703001 c -0.1308999 -0.17709994 -0.23099995 -0.30029988 -0.30029988 -0.36960006 l -1.8249 -1.8094999 c -0.10010001 -0.092400014 -0.08470002 -0.1155 -0.08470002 -0.3465 h 3.1724 l 0.23869991 1.4476 h -0.32340002 c -0.053900003 -0.4081 -0.11549997 -0.64680004 -0.18479991 -0.7007 c -0.03850007 -0.023100019 -0.27719998 -0.03850001 -0.7314999 -0.03850001 h -1.3090001 c 0.5159 0.45429993 0.9933001 0.86239994 1.4476 1.2243 c 0.34649992 0.2694999 0.59290004 0.50820005 0.7469001 0.71609986 c 0.23099995 0.30030012 0.34649992 0.6160002 0.34649992 0.94710016 c 0 0.47739983 -0.18479991 0.8547001 -0.56209993 1.1318998 c -0.3311 0.25409985 -0.7469001 0.38500023 -1.2397001 0.38500023 c -0.42349994 0 -0.7853999 -0.12319994 -1.1011 -0.3696003 c -0.3311 -0.26949978 -0.50049996 -0.60829973 -0.50049996 -1.0240998 c 0 -0.26180005 0.19250003 -0.45429993 0.4312 -0.45429993 Z "/>
        </symbol>
        <symbol id="gCF63094C0A3499FBAD3633CAD9DF1016" overflow="visible">
            <path d="M 0 0m 1.507 0.033 c 0.19800007 0 0.8800001 -0.033 1.089 -0.033 c 0.16499996 0 0.2420001 0.088 0.2420001 0.253 c 0 0.09900001 -0.065999985 0.16499999 -0.20900011 0.176 c -0.319 0.011000007 -0.47300005 0.12100002 -0.47300005 0.33 c 0 0.09899998 0.09899998 0.31899995 0.3080001 0.649 c 0.29699993 0.495 0.50600004 0.85800004 0.6489999 1.0999999 h 2.6729999 c 0 -0.0769999 0.011000156 -0.23099995 0.04400015 -0.4729998 c 0.07700014 -0.8030001 0.12099981 -1.243 0.12099981 -1.2980001 c 0 -0.20899999 -0.24199963 -0.308 -0.737 -0.308 c -0.20899963 0 -0.3079996 -0.088 -0.3079996 -0.264 c 0 -0.10999999 0.065999985 -0.16499999 0.19799995 -0.16499999 c 0.26399994 0 1.0999999 0.033 1.3639998 0.033 c 0.21999979 0 1.0009999 -0.033 1.2210002 -0.033 c 0.16499996 0 0.24199963 0.088 0.24199963 0.264 c 0 0.110000014 -0.09899998 0.16499999 -0.29699993 0.16499999 c -0.3080001 0 -0.4949999 0.022000015 -0.5499997 0.055000007 c -0.055000305 0.033000022 -0.09899998 0.132 -0.11000013 0.29700002 l -0.65999985 6.798 c -0.032999992 0.20900011 -0.022000313 0.29699993 -0.25300026 0.29699993 c -0.13199997 0 -0.2420001 -0.065999985 -0.31899977 -0.20900011 l -3.7840002 -6.347 c -0.32999992 -0.54999995 -0.77 -0.84699994 -1.309 -0.8909999 c -0.176 -0.011000007 -0.264 -0.09900001 -0.264 -0.264 c 0 -0.10999999 0.066000015 -0.16499999 0.18700004 -0.16499999 c 0.176 0 0.75899994 0.033 0.93499994 0.033 Z m 3.9050002 6.314 l 0.32999992 -3.41 h -2.365 Z "/>
        </symbol>
        <symbol id="g234A68D74EC6D0A5F468D327EB214F71" overflow="visible">
            <path d="M 0 0m 8.316 5.973 c 0 1.0009999 -0.99000025 1.54 -2.0679998 1.54 h -3.6520002 c -0.25300002 0 -0.36299992 -0.011000156 -0.36299992 -0.26399994 c 0 -0.17600012 0.22000003 -0.16499996 0.352 -0.16499996 c 0.32999992 -0.011000156 0.5279999 -0.032999992 0.58299994 -0.04400015 c 0.055000067 -0.011000156 0.0769999 -0.04400015 0.0769999 -0.09899998 c 0 -0.021999836 -0.010999918 -0.08799982 -0.04399991 -0.19799995 l -1.452 -5.841 c -0.054999948 -0.24200004 -0.16499996 -0.385 -0.32999992 -0.44 c -0.07700002 -0.022000015 -0.27499998 -0.033000022 -0.61600006 -0.033000022 c -0.23099995 0 -0.34099996 -0.088 -0.34099996 -0.264 c 0 -0.10999999 0.110000014 -0.16499999 0.34099996 -0.16499999 h 3.883 c 0.71500015 0 1.375 0.22 2.0019999 0.649 c 0.6930003 0.473 1.0450001 1.056 1.0450001 1.7380002 c 0 0.86899996 -0.7149997 1.3969998 -1.4959998 1.5509999 c 0.96799994 0.23100019 2.079 0.9680002 2.079 2.035 Z m -2.2220001 1.1110001 c 0.7590003 0 1.144 -0.35200024 1.144 -1.0669999 c 0 -0.56100035 -0.21999979 -1.0230002 -0.68200016 -1.3970003 c -0.4619999 -0.37400007 -0.9789996 -0.5499997 -1.54 -0.5499997 h -1.5289998 l 0.65999985 2.6399999 c 0.0880003 0.37400007 0.0880003 0.37400007 0.5500002 0.37400007 Z m 0.3080001 -3.795 c 0.1539998 -0.25300002 0.23099995 -0.50600004 0.23099995 -0.78100014 c 0 -0.5719999 -0.21999979 -1.0669999 -0.671 -1.4739999 c -0.45099974 -0.40700006 -0.9569998 -0.605 -1.54 -0.605 h -1.4849999 c -0.11000013 0 -0.18700004 0 -0.23099995 0.011000007 c -0.06600022 0 -0.099000216 0.022000015 -0.099000216 0.055000007 c 0 0.010999978 0 0.04399997 0.011000156 0.088 c 0.34099984 1.3970001 0.605 2.453 0.7809999 3.157 h 2.024 c 0.47300005 0 0.7920003 -0.15400004 0.9790001 -0.45099998 Z "/>
        </symbol>
    </defs>
</svg>
