<svg class="typst-doc" viewBox="0 0 375.5364 376.9543" width="375.5364pt" height="376.9543pt" xmlns="http://www.w3.org/2000/svg" xmlns:xlink="http://www.w3.org/1999/xlink" xmlns:h5="http://www.w3.org/1999/xhtml">
    <g>
        <g class="typst-group" transform="matrix(1 0 0 1 1.4173228346456692 1.4173228346456692)">
            <g>
                <path class="typst-shape" fill="none" stroke="#000000" stroke-width="1" stroke-linecap="butt" stroke-linejoin="miter" stroke-miterlimit="4" transform="matrix(1 0 0 1 5.0248 5.1535)" d="M 0 0m 0 363.81265 v -338.73346 "/>
                <path class="typst-shape" fill="none" stroke="#000000" stroke-width="1" stroke-linecap="butt" stroke-linejoin="miter" stroke-miterlimit="4" stroke-dashoffset="0" stroke-dasharray="" transform="matrix(1 0 0 1 2.8988157480314958 -327.9106883514961)" d="M 0 0m 0 363.81265 l 2.1259842 -5.669281 l 2.1259842 5.669281 "/>
                <path class="typst-shape" fill="none" stroke="#000000" stroke-width="1" stroke-linecap="butt" stroke-linejoin="miter" stroke-miterlimit="4" transform="matrix(1 0 0 1 5.0248 5.1535)" d="M 0 0m 0 363.81265 h 338.73346 "/>
                <path class="typst-shape" fill="none" stroke="#000000" stroke-width="1" stroke-linecap="butt" stroke-linejoin="miter" stroke-miterlimit="4" stroke-dashoffset="0" stroke-dasharray="" transform="matrix(1 0 0 1 338.0889883514961 7.279484251968504)" d="M 0 0m 0 359.5607 l 5.6692915 2.1259766 l -5.6692915 2.1259766 "/>
                <path class="typst-shape" fill="none" transform="matrix(1 0 0 1 345.1822803149607 10.307)" d="M 0 0m 0 353.50565 h 27.519474 v 10.307007 h -27.519474 v -10.307007 Z "/>
                <g class="typst-group">
                    <g>
                        <g class="typst-group" transform="matrix(1 0 0 1 345.1822802992126 363.81265426771654)">
                            <g>
                                <g class="typst-text" transform="matrix(1 0 0 -1 8.503937007874017 7.513000000000001)">
                                    <use xlink:href="#gA5CC3BF73ED0EBFD8701B42FB9B33ACB" x="0" y="0" fill="#000000" fill-rule="nonzero"/>
                                </g>
                                <g class="typst-text" transform="matrix(1 0 0 -1 13.409937007874015 10.23)">
                                    <use xlink:href="#g720B14ED4A11BB42F1DED5B398E0A60B" x="0" y="0" fill="#000000" fill-rule="nonzero"/>
                                </g>
                            </g>
                        </g>
                    </g>
                </g>
                <path class="typst-shape" fill="none" transform="matrix(1 0 0 1 0 -335.00398031496064)" d="M 0 0m 0 335.00397 h 10.0496 v 28.808685 h -10.0496 v -28.808685 Z "/>
                <g class="typst-group">
                    <g>
                        <g class="typst-group" transform="matrix(1 0 0 1 -0.00000006299212672038408 -0.00000014173228310672733)">
                            <g>
                                <g class="typst-text" transform="matrix(1 0 0 -1 0 16.016937007874017)">
                                    <use xlink:href="#gA5CC3BF73ED0EBFD8701B42FB9B33ACB" x="0" y="0" fill="#000000" fill-rule="nonzero"/>
                                </g>
                                <g class="typst-text" transform="matrix(1 0 0 -1 4.905999999999999 18.733937007874015)">
                                    <use xlink:href="#gFFB2EB05C26336FD9AC9D1659A15A85A" x="0" y="0" fill="#000000" fill-rule="nonzero"/>
                                </g>
                            </g>
                        </g>
                    </g>
                </g>
                <path class="typst-shape" fill="#0074d9" fill-rule="nonzero" stroke="#0074d9" stroke-width="2" stroke-linecap="butt" stroke-linejoin="miter" stroke-miterlimit="4" transform="matrix(1 0 0 1 16.363382677165355 -6.185082677165354)" d="M 0 0m 158.74016 363.81265 c -75.59055 -30.236206 -128.50394 -83.1496 -158.74016 -158.74016 "/>
            </g>
        </g>
    </g>
    <defs id="glyph">
        <symbol id="gA5CC3BF73ED0EBFD8701B42FB9B33ACB" overflow="visible">
            <path d="M 0 0m 4.092 4.147 c -0.22000003 0.47300005 -0.5610001 0.71500015 -1.0120001 0.71500015 c -0.7149999 0 -1.3419999 -0.36299992 -1.8809999 -1.0999999 c -0.506 -0.68200016 -0.759 -1.3860002 -0.759 -2.1230001 c 0 -0.95699996 0.55 -1.782 1.463 -1.782 c 0.39600003 0 0.79199994 0.187 1.199 0.561 l -0.45099998 -1.804 c -0.032999992 -0.16499996 -0.13199997 -0.26399994 -0.286 -0.29699993 c -0.055000067 -0.011000037 -0.19799995 -0.022000074 -0.45099998 -0.022000074 c -0.065999985 -0.010999918 -0.110000014 -0.010999918 -0.13200009 -0.010999918 c -0.09899998 -0.011000037 -0.15399992 -0.09899998 -0.15399992 -0.25300002 v -0.04400003 c 0.032999992 -0.0769999 0.09899998 -0.12100005 0.18699992 -0.12100005 c 0.20899999 0 0.8690001 0.032999992 1.078 0.032999992 c 0.20900011 0 0.9020002 -0.032999992 1.1110003 -0.032999992 c 0.1539998 0 0.23099995 0.08800006 0.23099995 0.26400006 c 0 0.110000014 -0.11000013 0.16499996 -0.31900024 0.16499996 c -0.19799995 0 -0.4729998 -0.010999918 -0.4729998 0.12100005 c 0 0.04400003 0.010999918 0.12100005 0.04399991 0.23099995 l 1.4850001 6.05 c 0 0.09899998 -0.055000305 0.1539998 -0.15400028 0.1539998 c -0.19799995 0 -0.6159997 -0.5499997 -0.72599983 -0.704 Z m -0.352 -0.043999672 c 0.09899998 -0.23100019 0.15400004 -0.38500023 0.15400004 -0.4840002 c 0 -0.010999918 -0.011000156 -0.0769999 -0.032999992 -0.17599988 l -0.26400018 -1.0670002 c -0.20899987 -0.79199994 -0.30799985 -1.1989999 -0.319 -1.221 c -0.20899987 -0.385 -0.8139999 -0.979 -1.3419999 -0.979 c -0.42900002 0 -0.64900005 0.32999998 -0.64900005 0.979 c 0 0.50600004 0.34100008 1.7379999 0.495 2.145 c 0.20899999 0.51699996 0.69299996 1.2320001 1.298 1.2320001 c 0.29700017 0 0.51699996 -0.14300013 0.6600001 -0.4289999 Z "/>
        </symbol>
        <symbol id="g720B14ED4A11BB42F1DED5B398E0A60B" overflow="visible">
            <path d="M 0 0m 4.4891 2.8105 c 0 0.39269996 -0.40040016 0.5852001 -0.8162 0.5852001 c -0.34649992 0 -0.63139987 -0.16939998 -0.8469999 -0.50819993 c -0.18480015 0.33879995 -0.4928 0.50819993 -0.91630006 0.50819993 c -0.28490007 0 -0.5852001 -0.12319994 -0.8855001 -0.37730002 c -0.31569993 -0.26180005 -0.47739995 -0.53130007 -0.47739995 -0.80850005 c 0 -0.08469987 0.053900003 -0.1308999 0.15399998 -0.1308999 c 0.08469999 0 0.13859999 0.046200037 0.1771 0.14630008 c 0.13859999 0.41579986 0.5159 0.9008999 1.0087 0.9008999 c 0.28490007 0 0.42349994 -0.15400004 0.42349994 -0.46969986 c 0 -0.10010004 -0.053900003 -0.3619001 -0.15400004 -0.78540015 l -0.26179993 -1.0318 c -0.06929994 -0.29259998 -0.3542 -0.6468 -0.6853 -0.6468 c -0.13090003 0 -0.2464 0.023100004 -0.33879995 0.07699999 c 0.15399992 0.069300026 0.29259992 0.2387 0.29259992 0.4158 c 0 0.18480003 -0.14629996 0.31570005 -0.33109993 0.31570005 c -0.2618 0 -0.462 -0.23100007 -0.462 -0.49280006 c 0 -0.385 0.4081 -0.5852 0.82390004 -0.5852 c 0.3542 0 0.63909996 0.1694 0.8469999 0.5082 c 0.18480015 -0.3388 0.48510003 -0.5082 0.9086001 -0.5082 c 0.42350006 0 0.7623 0.1694 1.0241001 0.5082 c 0.22329974 0.30029997 0.33879972 0.53129995 0.33879972 0.6775999 c 0 0.08470011 -0.0461998 0.13090003 -0.14629984 0.13090003 c -0.08470011 0 -0.14629984 -0.053900003 -0.17709994 -0.15399992 c -0.13090014 -0.4081 -0.5236001 -0.89320004 -1.0087001 -0.89320004 c -0.28489995 0 -0.4311998 0.15400001 -0.4311998 0.462 c 0 0.11549997 0.1308999 0.69299996 0.39269996 1.7170999 c 0.1308999 0.50049996 0.36189985 0.75460005 0.7084 0.75460005 l 0.06929994 -0.0076999664 c 0.092400074 0 0.18479991 -0.0230999 0.26950002 -0.06159997 c -0.19250011 -0.08470011 -0.28489995 -0.22329998 -0.28489995 -0.42350006 c 0 -0.18479991 0.14629984 -0.31570005 0.3311 -0.31570005 c 0.2617998 0 0.45429993 0.23100019 0.45429993 0.4928 Z "/>
        </symbol>
        <symbol id="gFFB2EB05C26336FD9AC9D1659A15A85A" overflow="visible">
            <path d="M 0 0m 4.0348 3.3187 c -0.15400004 0 -0.26950002 -0.069300175 -0.33879995 -0.20020008 c -0.015400171 -0.0230999 -0.053900003 -0.16939998 -0.12320018 -0.44659996 l -0.4619999 -1.848 c -0.053900003 -0.08469999 -0.10010004 -0.16170001 -0.15400004 -0.22329998 c -0.24639988 -0.2849 -0.50049996 -0.4235 -0.75460005 -0.4235 c -0.3233999 0 -0.4850999 0.20019999 -0.4850999 0.6006 c 0 0.2849 0.13090003 0.7777 0.40040004 1.463 c 0.08469987 0.23099995 0.1308999 0.39269996 0.1308999 0.47740006 c 0 0.40039992 -0.34650004 0.6775999 -0.74689996 0.6775999 c -0.36960006 0 -0.66220003 -0.18479991 -0.8778 -0.55439997 c -0.17710003 -0.30030012 -0.26180002 -0.51590014 -0.26180002 -0.6391001 c 0 -0.08469987 0.053900003 -0.1308999 0.16169998 -0.1308999 c 0.08469999 0 0.13859999 0.046200037 0.16170001 0.14629984 c 0.1771 0.6006 0.44659996 0.9009001 0.7931 0.9009001 c 0.10010004 0 0.15400004 -0.0769999 0.15400004 -0.23099995 c 0 -0.11549997 -0.030800104 -0.25410008 -0.10010004 -0.43120003 c -0.16170001 -0.40810013 -0.25409997 -0.6622 -0.29260004 -0.7623 c -0.10009992 -0.3003 -0.14629996 -0.5698 -0.14629996 -0.7931 c 0 -0.6545 0.42349994 -0.9933 1.0780001 -0.9933 c 0.28489995 0 0.53900003 0.0924 0.77769995 0.2849 c -0.11549997 -0.4389 -0.26950002 -0.7777 -0.4697001 -1.0164 c -0.27719998 -0.31570005 -0.5697999 -0.46969998 -0.88549995 -0.46969998 c -0.23869991 0 -0.41579998 0.06159997 -0.5236 0.1925 c 0.21560001 0.053900003 0.39269996 0.20019996 0.39269996 0.44659996 c 0 0.20790002 -0.10779989 0.3157 -0.3311 0.3157 c -0.27719998 0 -0.46969998 -0.25409997 -0.46969998 -0.5313 c 0 -0.45429993 0.44659996 -0.7006999 0.9317 -0.7006999 c 0.45429993 0 0.86240005 0.15399992 1.2397001 0.45429993 c 0.37730002 0.3003 0.61599994 0.6776 0.72379994 1.1165 l 0.72379994 2.8720999 c 0.0230999 0.08470011 0.030799866 0.13860011 0.030799866 0.17710018 c 0 0.1539998 -0.12319994 0.26950002 -0.27719975 0.26950002 Z "/>
        </symbol>
    </defs>
</svg>
