<svg viewBox="0 0 262.150573228 263.568473228" width="262.150573228pt" height="263.568473228pt" xmlns="http://www.w3.org/2000/svg" xmlns:xlink="http://www.w3.org/1999/xlink" xmlns:h5="http://www.w3.org/1999/xhtml"><path fill="none" fill-rule="nonzero" d="M 0 0v 263.568473228h 262.150573228v -263.568473228Z "/><g transform="translate(1.417322835 1.417322835)"><path fill="none" stroke="#000000" stroke-width="1" stroke-linecap="butt" stroke-linejoin="miter" stroke-miterlimit="4" transform="translate(5.0248 5.1535)" d="M 0 0m 0 250.426827559v -225.347624573"/><path fill="none" stroke="#000000" stroke-width="1" stroke-linecap="butt" stroke-linejoin="miter" stroke-miterlimit="4" stroke-dashoffset="0" stroke-dasharray="" transform="translate(2.898815748 -214.52486158)" d="M 0 0m 0 250.426827559l 2.125984252 -5.669291339l 2.125984252 5.669291339"/><path fill="none" stroke="#000000" stroke-width="1" stroke-linecap="butt" stroke-linejoin="miter" stroke-miterlimit="4" transform="translate(5.0248 5.1535)" d="M 0 0m 0 250.426827559h 225.347624573"/><path fill="none" stroke="#000000" stroke-width="1" stroke-linecap="butt" stroke-linejoin="miter" stroke-miterlimit="4" stroke-dashoffset="0" stroke-dasharray="" transform="translate(224.70316158 7.279484252)" d="M 0 0m 0 246.174859055l 5.669291339 2.125984252l -5.669291339 2.125984252"/><path fill="none" transform="translate(231.796453543 10.307)" d="M 0 0m 0 240.119827559h 27.519474016v 10.307h -27.519474016v -10.307Z "/><g transform="translate(231.796453528 250.426827496)"><g transform="matrix(1 0 0 -1 8.503937008 7.513)"><use xlink:href="#gAB91A7DFDE77F31CB872F1FD393E8C99" x="0" y="0" fill="#000000" fill-rule="nonzero"/></g><g transform="matrix(1 0 0 -1 13.409937008 10.23)"><use xlink:href="#gB4F8E97E8EFD98CA94EE40D9890E0542" x="0" y="0" fill="#000000" fill-rule="nonzero"/></g></g><path fill="none" transform="translate(0 -221.618153543)" d="M 0 0m 0 221.618153543h 10.0496v 28.808674016h -10.0496v -28.808674016Z "/><g transform="translate(-6.3e-8 -1.42e-7)"><g transform="matrix(1 0 0 -1 0 16.016937008)"><use xlink:href="#gAB91A7DFDE77F31CB872F1FD393E8C99" x="0" y="0" fill="#000000" fill-rule="nonzero"/></g><g transform="matrix(1 0 0 -1 4.906 18.733937008)"><use xlink:href="#g7058399F9FB7CD69929F2864C4EDB984" x="0" y="0" fill="#000000" fill-rule="nonzero"/></g></g><path fill="none" stroke="#0074d9" stroke-width="2" stroke-linecap="butt" stroke-linejoin="miter" stroke-miterlimit="4" transform="translate(16.363382677 -6.185082677)" d="M 0 0m 158.74015748 250.426827559c -94.488188976 -11.338582677 -147.401574803 -64.251968504 -158.74015748 -158.74015748"/><path fill="none" stroke="#80211b" stroke-width="2" stroke-linecap="butt" stroke-linejoin="miter" stroke-miterlimit="4" transform="translate(50.379130709 -40.200830709)" d="M 0 0m 124.724409449 250.426827559c -56.692913386 -26.456692913 -98.267716535 -68.031496063 -124.724409449 -124.724409449"/><path fill="none" transform="translate(175.103540157 -1.686082677)" d="M 0 0m 0 241.428827559h 55v 8.998h -55v -8.998Z "/><g transform="translate(175.103540126 239.742744803)"><g transform="matrix(1 0 0 -1 0 8.063)"><use xlink:href="#g2102D731B31BE4D5AD9DFF476D30E59F" x="0" y="0" fill="#000000" fill-rule="nonzero"/><use xlink:href="#g8E61DA8C4082169B6E8749BE900D8E3C" x="11" y="0" fill="#000000" fill-rule="nonzero"/></g><g transform="matrix(1 0 0 -1 22 8.063)"><use xlink:href="#g7150248F724139889A1E247F927EC810" x="0" y="0" fill="#000000" fill-rule="nonzero"/></g><g transform="matrix(1 0 0 -1 33 8.063)"><use xlink:href="#gC5341320E8EA7D38D1ADAD2F21B90B5A" x="0" y="0" fill="#000000" fill-rule="nonzero"/></g><g transform="matrix(1 0 0 -1 44 8.063)"><use xlink:href="#g481F9B1E7019A42F0AAB332188720D80" x="0" y="0" fill="#000000" fill-rule="nonzero"/></g></g><path fill="none" transform="translate(175.103540157 -35.701830709)" d="M 0 0m 0 241.428827559h 55v 8.998h -55v -8.998Z "/><g transform="translate(175.103540126 205.726996772)"><g transform="matrix(1 0 0 -1 0 8.063)"><use xlink:href="#g2102D731B31BE4D5AD9DFF476D30E59F" x="0" y="0" fill="#000000" fill-rule="nonzero"/><use xlink:href="#g8E61DA8C4082169B6E8749BE900D8E3C" x="11" y="0" fill="#000000" fill-rule="nonzero"/></g><g transform="matrix(1 0 0 -1 22 8.063)"><use xlink:href="#g7150248F724139889A1E247F927EC810" x="0" y="0" fill="#000000" fill-rule="nonzero"/></g><g transform="matrix(1 0 0 -1 33 8.063)"><use xlink:href="#g8652B3A48CC6637C2A94F1D5A25A7AB4" x="0" y="0" fill="#000000" fill-rule="nonzero"/></g><g transform="matrix(1 0 0 -1 44 8.063)"><use xlink:href="#g481F9B1E7019A42F0AAB332188720D80" x="0" y="0" fill="#000000" fill-rule="nonzero"/></g></g></g><defs><symbol id="gAB91A7DFDE77F31CB872F1FD393E8C99" overflow="visible"><path d="M 0 0m 4.092 4.147c -0.22 0.473 -0.561 0.715 -1.012 0.715c -0.715 0 -1.342 -0.363 -1.881 -1.1c -0.506 -0.682 -0.759 -1.386 -0.759 -2.123c 0 -0.957 0.55 -1.782 1.463 -1.782c 0.396 0 0.792 0.187 1.199 0.561l -0.451 -1.804c -0.033 -0.165 -0.132 -0.264 -0.286 -0.297c -0.055 -0.011 -0.198 -0.022 -0.451 -0.022c -0.066 -0.011 -0.11 -0.011 -0.132 -0.011c -0.099 -0.011 -0.154 -0.099 -0.154 -0.253v -0.044c 0.033 -0.077 0.099 -0.121 0.187 -0.121c 0.209 0 0.869 0.033 1.078 0.033c 0.209 0 0.902 -0.033 1.111 -0.033c 0.154 0 0.231 0.088 0.231 0.264c 0 0.11 -0.11 0.165 -0.319 0.165c -0.198 0 -0.473 -0.011 -0.473 0.121c 0 0.044 0.011 0.121 0.044 0.231l 1.485 6.05c 0 0.099 -0.055 0.154 -0.154 0.154c -0.198 0 -0.616 -0.55 -0.726 -0.704Z m -0.352 -0.044c 0.099 -0.231 0.154 -0.385 0.154 -0.484c 0 -0.011 -0.011 -0.077 -0.033 -0.176l -0.264 -1.067c -0.209 -0.792 -0.308 -1.199 -0.319 -1.221c -0.209 -0.385 -0.814 -0.979 -1.342 -0.979c -0.429 0 -0.649 0.33 -0.649 0.979c 0 0.506 0.341 1.738 0.495 2.145c 0.209 0.517 0.693 1.232 1.298 1.232c 0.297 0 0.517 -0.143 0.66 -0.429Z "/></symbol><symbol id="gB4F8E97E8EFD98CA94EE40D9890E0542" overflow="visible"><path d="M 0 0m 4.4891 2.8105c 0 0.3927 -0.4004 0.5852 -0.8162 0.5852c -0.3465 0 -0.6314 -0.1694 -0.847 -0.5082c -0.1848 0.3388 -0.4928 0.5082 -0.9163 0.5082c -0.2849 0 -0.5852 -0.1232 -0.8855 -0.3773c -0.3157 -0.2618 -0.4774 -0.5313 -0.4774 -0.8085c 0 -0.0847 0.0539 -0.1309 0.154 -0.1309c 0.0847 0 0.1386 0.0462 0.1771 0.1463c 0.1386 0.4158 0.5159 0.9009 1.0087 0.9009c 0.2849 0 0.4235 -0.154 0.4235 -0.4697c 0 -0.1001 -0.0539 -0.3619 -0.154 -0.7854l -0.2618 -1.0318c -0.0693 -0.2926 -0.3542 -0.6468 -0.6853 -0.6468c -0.1309 0 -0.2464 0.0231 -0.3388 0.077c 0.154 0.0693 0.2926 0.2387 0.2926 0.4158c 0 0.1848 -0.1463 0.3157 -0.3311 0.3157c -0.2618 0 -0.462 -0.231 -0.462 -0.4928c 0 -0.385 0.4081 -0.5852 0.8239 -0.5852c 0.3542 0 0.6391 0.1694 0.847 0.5082c 0.1848 -0.3388 0.4851 -0.5082 0.9086 -0.5082c 0.4235 0 0.7623 0.1694 1.0241 0.5082c 0.2233 0.3003 0.3388 0.5313 0.3388 0.6776c 0 0.0847 -0.0462 0.1309 -0.1463 0.1309c -0.0847 0 -0.1463 -0.0539 -0.1771 -0.154c -0.1309 -0.4081 -0.5236 -0.8932 -1.0087 -0.8932c -0.2849 0 -0.4312 0.154 -0.4312 0.462c 0 0.1155 0.1309 0.693 0.3927 1.7171c 0.1309 0.5005 0.3619 0.7546 0.7084 0.7546l 0.0693 -0.0077c 0.0924 0 0.1848 -0.0231 0.2695 -0.0616c -0.1925 -0.0847 -0.2849 -0.2233 -0.2849 -0.4235c 0 -0.1848 0.1463 -0.3157 0.3311 -0.3157c 0.2618 0 0.4543 0.231 0.4543 0.4928Z "/></symbol><symbol id="g7058399F9FB7CD69929F2864C4EDB984" overflow="visible"><path d="M 0 0m 4.0348 3.3187c -0.154 0 -0.2695 -0.0693 -0.3388 -0.2002c -0.0154 -0.0231 -0.0539 -0.1694 -0.1232 -0.4466l -0.462 -1.848c -0.0539 -0.0847 -0.1001 -0.1617 -0.154 -0.2233c -0.2464 -0.2849 -0.5005 -0.4235 -0.7546 -0.4235c -0.3234 0 -0.4851 0.2002 -0.4851 0.6006c 0 0.2849 0.1309 0.7777 0.4004 1.463c 0.0847 0.231 0.1309 0.3927 0.1309 0.4774c 0 0.4004 -0.3465 0.6776 -0.7469 0.6776c -0.3696 0 -0.6622 -0.1848 -0.8778 -0.5544c -0.1771 -0.3003 -0.2618 -0.5159 -0.2618 -0.6391c 0 -0.0847 0.0539 -0.1309 0.1617 -0.1309c 0.0847 0 0.1386 0.0462 0.1617 0.1463c 0.1771 0.6006 0.4466 0.9009 0.7931 0.9009c 0.1001 0 0.154 -0.077 0.154 -0.231c 0 -0.1155 -0.0308 -0.2541 -0.1001 -0.4312c -0.1617 -0.4081 -0.2541 -0.6622 -0.2926 -0.7623c -0.1001 -0.3003 -0.1463 -0.5698 -0.1463 -0.7931c 0 -0.6545 0.4235 -0.9933 1.078 -0.9933c 0.2849 0 0.539 0.0924 0.7777 0.2849c -0.1155 -0.4389 -0.2695 -0.7777 -0.4697 -1.0164c -0.2772 -0.3157 -0.5698 -0.4697 -0.8855 -0.4697c -0.2387 0 -0.4158 0.0616 -0.5236 0.1925c 0.2156 0.0539 0.3927 0.2002 0.3927 0.4466c 0 0.2079 -0.1078 0.3157 -0.3311 0.3157c -0.2772 0 -0.4697 -0.2541 -0.4697 -0.5313c 0 -0.4543 0.4466 -0.7007 0.9317 -0.7007c 0.4543 0 0.8624 0.154 1.2397 0.4543c 0.3773 0.3003 0.616 0.6776 0.7238 1.1165l 0.7238 2.8721c 0.0231 0.0847 0.0308 0.1386 0.0308 0.1771c 0 0.154 -0.1232 0.2695 -0.2772 0.2695Z "/></symbol><symbol id="g2102D731B31BE4D5AD9DFF476D30E59F" overflow="visible"><path d="M 0 0m 1.815 6.589c -0.33 -0.836 -0.891 -1.683 -1.518 -2.255c 0.187 -0.11 0.517 -0.352 0.66 -0.495c 0.627 0.638 1.254 1.606 1.639 2.552Z m 2.112 -0.264c 0.528 -0.66 1.1 -1.551 1.32 -2.134l 0.693 0.385c -0.231 0.583 -0.814 1.441 -1.375 2.079Z m -1.078 2.893v -1.496h -2.332v -0.748h 5.368v 0.748h -2.222v 1.496Z m -1.386 -5.533c 0.484 -0.374 1.012 -0.814 1.507 -1.276c -0.66 -1.111 -1.551 -1.991 -2.662 -2.618c 0.176 -0.154 0.462 -0.495 0.583 -0.649c 1.078 0.682 1.98 1.584 2.684 2.706c 0.495 -0.495 0.935 -0.968 1.221 -1.353l 0.517 0.671c -0.308 0.396 -0.792 0.891 -1.331 1.397c 0.308 0.605 0.572 1.276 0.781 1.991l -0.814 0.176c -0.154 -0.572 -0.363 -1.111 -0.594 -1.617c -0.473 0.407 -0.957 0.792 -1.408 1.133Z m 5.676 5.445c 0 -0.825 0 -1.639 -0.022 -2.431h -1.375v -0.781h 1.342c -0.121 -2.64 -0.572 -4.906 -2.233 -6.259c 0.198 -0.132 0.484 -0.396 0.627 -0.583c 1.782 1.507 2.255 3.993 2.398 6.842h 1.617c -0.099 -4.037 -0.22 -5.489 -0.473 -5.819c -0.11 -0.132 -0.22 -0.165 -0.396 -0.165c -0.22 0 -0.737 0.011 -1.32 0.055c 0.143 -0.22 0.22 -0.55 0.242 -0.792c 0.539 -0.022 1.089 -0.022 1.408 0.011c 0.341 0.033 0.561 0.121 0.759 0.407c 0.352 0.473 0.462 2.013 0.561 6.677c 0 0.099 0 0.407 0 0.407h -2.376c 0.022 0.792 0.033 1.606 0.033 2.431Z "/></symbol><symbol id="g8E61DA8C4082169B6E8749BE900D8E3C" overflow="visible"><path d="M 0 0m 1.683 8.47v -3.993c 0 -1.551 -0.11 -3.498 -1.331 -4.873c 0.187 -0.099 0.517 -0.374 0.638 -0.539c 0.847 0.935 1.221 2.2 1.386 3.432h 2.761v -3.278h 0.836v 3.278h 2.97v -2.255c 0 -0.198 -0.077 -0.264 -0.297 -0.275c -0.209 -0.011 -0.957 -0.022 -1.727 0.011c 0.11 -0.22 0.242 -0.583 0.286 -0.792c 1.034 -0.011 1.672 0 2.046 0.132c 0.374 0.132 0.506 0.385 0.506 0.924v 8.228Z m 0.814 -0.792h 2.64v -1.771h -2.64Z m 6.446 0v -1.771h -2.97v 1.771Z m -6.446 -2.552h 2.64v -1.848h -2.684c 0.033 0.418 0.044 0.825 0.044 1.199Z m 6.446 0v -1.848h -2.97v 1.848Z "/></symbol><symbol id="g7150248F724139889A1E247F927EC810" overflow="visible"><path d="M 0 0m 8.448 7.271l -0.803 -0.363c 0.781 -0.902 1.639 -2.816 1.969 -3.949l 0.847 0.407c -0.363 1.023 -1.331 3.014 -2.013 3.905Z m 0.132 1.595l -0.594 -0.242c 0.297 -0.418 0.671 -1.089 0.891 -1.529l 0.605 0.264c -0.231 0.44 -0.627 1.122 -0.902 1.507Z m 1.21 0.44l -0.583 -0.242c 0.308 -0.418 0.671 -1.045 0.913 -1.518l 0.594 0.264c -0.209 0.407 -0.638 1.1 -0.924 1.496Z m -9.086 -3.179l 0.099 -0.946c 0.275 0.044 0.737 0.099 0.99 0.132l 1.397 0.143c -0.374 -1.474 -1.199 -3.982 -2.321 -5.478l 0.891 -0.363c 1.166 1.859 1.914 4.356 2.321 5.929c 0.473 0.044 0.913 0.077 1.177 0.077c 0.704 0 1.166 -0.187 1.166 -1.188c 0 -1.188 -0.165 -2.629 -0.517 -3.366c -0.22 -0.484 -0.561 -0.572 -0.968 -0.572c -0.308 0 -0.88 0.088 -1.342 0.231l 0.143 -0.924c 0.352 -0.077 0.869 -0.154 1.298 -0.154c 0.704 0 1.254 0.176 1.606 0.913c 0.451 0.913 0.638 2.662 0.638 3.971c 0 1.496 -0.803 1.87 -1.793 1.87c -0.264 0 -0.715 -0.033 -1.232 -0.077l 0.286 1.562c 0.033 0.22 0.077 0.451 0.121 0.66l -1.012 0.099c 0 -0.748 -0.121 -1.606 -0.286 -2.398c -0.671 -0.055 -1.309 -0.11 -1.672 -0.121c -0.352 -0.011 -0.638 -0.011 -0.99 0Z "/></symbol><symbol id="gC5341320E8EA7D38D1ADAD2F21B90B5A" overflow="visible"><path d="M 0 0m 3.597 0.143v -0.737h 4.686v 0.737Z m -0.33 1.408l 0.187 -0.781c 1.1 0.198 2.563 0.484 3.949 0.748l -0.044 0.737c -0.869 -0.165 -1.749 -0.319 -2.541 -0.462v 2.838h 2.42c 0.374 -2.926 1.177 -5.082 2.42 -5.082c 0.704 0 0.99 0.407 1.1 1.903c -0.198 0.077 -0.484 0.253 -0.66 0.429c -0.044 -1.078 -0.143 -1.529 -0.374 -1.529c -0.671 0 -1.342 1.749 -1.672 4.279h 2.497v 0.759h -2.585c -0.066 0.737 -0.11 1.518 -0.121 2.332c 0.814 0.154 1.562 0.33 2.189 0.517l -0.638 0.638c -1.111 -0.385 -3.058 -0.726 -4.807 -0.935l -0.572 0.187v -6.468Z m 1.551 5.72c 0.715 0.088 1.474 0.187 2.211 0.308c 0.022 -0.748 0.066 -1.485 0.132 -2.189h -2.343Z m -1.914 1.925c -0.616 -1.672 -1.639 -3.322 -2.728 -4.389c 0.154 -0.187 0.385 -0.616 0.462 -0.814c 0.385 0.396 0.759 0.858 1.122 1.364v -6.215h 0.792v 7.458c 0.429 0.759 0.825 1.562 1.133 2.365Z "/></symbol><symbol id="g481F9B1E7019A42F0AAB332188720D80" overflow="visible"><path d="M 0 0m 2.453 7.678l -1.067 0.022c 0.066 -0.264 0.077 -0.726 0.077 -0.979c 0 -0.638 0.011 -1.98 0.121 -2.937c 0.297 -2.849 1.298 -3.883 2.343 -3.883c 0.737 0 1.408 0.638 2.068 2.508l -0.693 0.781c -0.286 -1.1 -0.803 -2.244 -1.364 -2.244c -0.781 0 -1.32 1.221 -1.496 3.058c -0.077 0.913 -0.088 1.914 -0.077 2.607c 0 0.286 0.044 0.803 0.088 1.067Z m 5.731 -0.308l -0.858 -0.297c 1.056 -1.287 1.716 -3.542 1.914 -5.533l 0.88 0.363c -0.165 1.859 -0.957 4.191 -1.936 5.467Z "/></symbol><symbol id="g8652B3A48CC6637C2A94F1D5A25A7AB4" overflow="visible"><path d="M 0 0m 3.333 6.248h 4.312v -1.056h -4.312Z m -0.792 0.605v -2.277h 5.929v 2.277Z m 2.475 2.398v -1.056h -4.301v -0.726h 9.559v 0.726h -4.411v 1.056Z m -3.806 -5.357v -4.774h 0.803v 4.07h 7.029v -3.069c 0 -0.154 -0.044 -0.198 -0.242 -0.209c -0.176 -0.011 -0.803 -0.011 -1.518 0.011c 0.11 -0.231 0.231 -0.55 0.264 -0.781c 0.913 0 1.507 0 1.87 0.132c 0.352 0.132 0.451 0.374 0.451 0.836v 3.784Z m 2.926 -2.024h 2.728v -1.122h -2.728Z m -0.726 0.605v -2.893h 0.726v 0.561h 3.465v 2.332Z "/></symbol></defs></svg>