<svg viewBox="0 0 318.843486614 320.261386614" width="318.843486614pt" height="320.261386614pt" xmlns="http://www.w3.org/2000/svg" xmlns:xlink="http://www.w3.org/1999/xlink" xmlns:h5="http://www.w3.org/1999/xhtml"><path fill="none" fill-rule="nonzero" d="M 0 0v 320.261386614h 318.843486614v -320.261386614Z "/><g transform="translate(1.417322835 1.417322835)"><path fill="none" stroke="#000000" stroke-width="1" stroke-linecap="butt" stroke-linejoin="miter" stroke-miterlimit="4" transform="translate(5.0248 5.1535)" d="M 0 0m 0 307.119740945v -282.040537958"/><path fill="none" stroke="#000000" stroke-width="1" stroke-linecap="butt" stroke-linejoin="miter" stroke-miterlimit="4" stroke-dashoffset="0" stroke-dasharray="" transform="translate(2.898815748 -271.217774966)" d="M 0 0m 0 307.119740945l 2.125984252 -5.669291339l 2.125984252 5.669291339"/><path fill="none" stroke="#000000" stroke-width="1" stroke-linecap="butt" stroke-linejoin="miter" stroke-miterlimit="4" transform="translate(5.0248 5.1535)" d="M 0 0m 0 307.119740945h 282.040537958"/><path fill="none" stroke="#000000" stroke-width="1" stroke-linecap="butt" stroke-linejoin="miter" stroke-miterlimit="4" stroke-dashoffset="0" stroke-dasharray="" transform="translate(281.396074966 7.279484252)" d="M 0 0m 0 302.867772441l 5.669291339 2.125984252l -5.669291339 2.125984252"/><path fill="none" transform="translate(288.489366929 10.307)" d="M 0 0m 0 296.812740945h 27.519474016v 10.307h -27.519474016v -10.307Z "/><g transform="translate(288.489366913 307.119740882)"><g transform="matrix(1 0 0 -1 8.503937008 7.513)"><use xlink:href="#gAB91A7DFDE77F31CB872F1FD393E8C99" x="0" y="0" fill="#000000" fill-rule="nonzero"/></g><g transform="matrix(1 0 0 -1 13.409937008 10.23)"><use xlink:href="#gB4F8E97E8EFD98CA94EE40D9890E0542" x="0" y="0" fill="#000000" fill-rule="nonzero"/></g></g><path fill="none" transform="translate(0 -278.311066929)" d="M 0 0m 0 278.311066929h 10.0496v 28.808674016h -10.0496v -28.808674016Z "/><g transform="translate(-6.3e-8 -1.42e-7)"><g transform="matrix(1 0 0 -1 0 16.016937008)"><use xlink:href="#gAB91A7DFDE77F31CB872F1FD393E8C99" x="0" y="0" fill="#000000" fill-rule="nonzero"/></g><g transform="matrix(1 0 0 -1 4.906 18.733937008)"><use xlink:href="#g7058399F9FB7CD69929F2864C4EDB984" x="0" y="0" fill="#000000" fill-rule="nonzero"/></g></g><path fill="none" stroke="#0074d9" stroke-width="2" stroke-linecap="butt" stroke-linejoin="miter" stroke-miterlimit="4" transform="translate(22.032674016 -11.854374016)" d="M 0 0m 266.456692913 307.119740945c -158.74015748 -18.897637795 -247.559055118 -107.716535433 -266.456692913 -266.456692913"/><path fill="none" stroke="#000000" stroke-width="2" stroke-linecap="butt" stroke-linejoin="miter" stroke-miterlimit="4" stroke-dashoffset="0" stroke-dasharray="2 2" transform="translate(22.032674016 -102.563035433)" d="M 0 0m 39.68503937 307.119740945l -39.68503937 -158.74015748"/><path fill="#ffffff" fill-rule="nonzero" stroke="#000000" stroke-width="1" stroke-linecap="butt" stroke-linejoin="miter" stroke-miterlimit="4" transform="translate(29.804327559 -218.618153543)" d="M 0 0m 3 301.119740945c -1.655352 0 -3 1.344648 -3 3c 0 1.655352 1.344648 3 3 3c 1.655352 0 3 -1.344648 3 -3c 0 -1.655352 -1.344648 -3 -3 -3Z "/><path fill="none" transform="translate(32.804327559 -211.861653543)" d="M 0 0m 0 287.606740945h 20.25v 19.513h -20.25v -19.513Z "/><g transform="translate(32.804327559 75.74508737)"><g transform="matrix(1 0 0 -1 6 13.513)"><use xlink:href="#gDD78C4AC18CD51C41481EB0565E89892" x="0" y="0" fill="#000000" fill-rule="nonzero"/></g></g><path fill="none" stroke="#000000" stroke-width="2" stroke-linecap="butt" stroke-linejoin="miter" stroke-miterlimit="4" stroke-dashoffset="0" stroke-dasharray="2 2" transform="translate(112.741335433 -11.854374016)" d="M 0 0m 0 267.434701575l 158.74015748 39.68503937"/><path fill="#ffffff" fill-rule="nonzero" stroke="#000000" stroke-width="1" stroke-linecap="butt" stroke-linejoin="miter" stroke-miterlimit="4" transform="translate(228.796453543 -19.626027559)" d="M 0 0m 3 301.119740945c -1.655352 0 -3 1.344648 -3 3c 0 1.655352 1.344648 3 3 3c 1.655352 0 3 -1.344648 3 -3c 0 -1.655352 -1.344648 -3 -3 -3Z "/><path fill="none" transform="translate(221.484453543 -22.626027559)" d="M 0 0m 0 287.606740945h 20.624v 19.513h -20.624v -19.513Z "/><g transform="translate(221.484453528 264.980713354)"><g transform="matrix(1 0 0 -1 6 13.513)"><use xlink:href="#gEC10EBF41C87FA9C1C1D1A4F34582802" x="0" y="0" fill="#000000" fill-rule="nonzero"/></g></g></g><defs><symbol id="gAB91A7DFDE77F31CB872F1FD393E8C99" overflow="visible"><path d="M 0 0m 4.092 4.147c -0.22 0.473 -0.561 0.715 -1.012 0.715c -0.715 0 -1.342 -0.363 -1.881 -1.1c -0.506 -0.682 -0.759 -1.386 -0.759 -2.123c 0 -0.957 0.55 -1.782 1.463 -1.782c 0.396 0 0.792 0.187 1.199 0.561l -0.451 -1.804c -0.033 -0.165 -0.132 -0.264 -0.286 -0.297c -0.055 -0.011 -0.198 -0.022 -0.451 -0.022c -0.066 -0.011 -0.11 -0.011 -0.132 -0.011c -0.099 -0.011 -0.154 -0.099 -0.154 -0.253v -0.044c 0.033 -0.077 0.099 -0.121 0.187 -0.121c 0.209 0 0.869 0.033 1.078 0.033c 0.209 0 0.902 -0.033 1.111 -0.033c 0.154 0 0.231 0.088 0.231 0.264c 0 0.11 -0.11 0.165 -0.319 0.165c -0.198 0 -0.473 -0.011 -0.473 0.121c 0 0.044 0.011 0.121 0.044 0.231l 1.485 6.05c 0 0.099 -0.055 0.154 -0.154 0.154c -0.198 0 -0.616 -0.55 -0.726 -0.704Z m -0.352 -0.044c 0.099 -0.231 0.154 -0.385 0.154 -0.484c 0 -0.011 -0.011 -0.077 -0.033 -0.176l -0.264 -1.067c -0.209 -0.792 -0.308 -1.199 -0.319 -1.221c -0.209 -0.385 -0.814 -0.979 -1.342 -0.979c -0.429 0 -0.649 0.33 -0.649 0.979c 0 0.506 0.341 1.738 0.495 2.145c 0.209 0.517 0.693 1.232 1.298 1.232c 0.297 0 0.517 -0.143 0.66 -0.429Z "/></symbol><symbol id="gB4F8E97E8EFD98CA94EE40D9890E0542" overflow="visible"><path d="M 0 0m 4.4891 2.8105c 0 0.3927 -0.4004 0.5852 -0.8162 0.5852c -0.3465 0 -0.6314 -0.1694 -0.847 -0.5082c -0.1848 0.3388 -0.4928 0.5082 -0.9163 0.5082c -0.2849 0 -0.5852 -0.1232 -0.8855 -0.3773c -0.3157 -0.2618 -0.4774 -0.5313 -0.4774 -0.8085c 0 -0.0847 0.0539 -0.1309 0.154 -0.1309c 0.0847 0 0.1386 0.0462 0.1771 0.1463c 0.1386 0.4158 0.5159 0.9009 1.0087 0.9009c 0.2849 0 0.4235 -0.154 0.4235 -0.4697c 0 -0.1001 -0.0539 -0.3619 -0.154 -0.7854l -0.2618 -1.0318c -0.0693 -0.2926 -0.3542 -0.6468 -0.6853 -0.6468c -0.1309 0 -0.2464 0.0231 -0.3388 0.077c 0.154 0.0693 0.2926 0.2387 0.2926 0.4158c 0 0.1848 -0.1463 0.3157 -0.3311 0.3157c -0.2618 0 -0.462 -0.231 -0.462 -0.4928c 0 -0.385 0.4081 -0.5852 0.8239 -0.5852c 0.3542 0 0.6391 0.1694 0.847 0.5082c 0.1848 -0.3388 0.4851 -0.5082 0.9086 -0.5082c 0.4235 0 0.7623 0.1694 1.0241 0.5082c 0.2233 0.3003 0.3388 0.5313 0.3388 0.6776c 0 0.0847 -0.0462 0.1309 -0.1463 0.1309c -0.0847 0 -0.1463 -0.0539 -0.1771 -0.154c -0.1309 -0.4081 -0.5236 -0.8932 -1.0087 -0.8932c -0.2849 0 -0.4312 0.154 -0.4312 0.462c 0 0.1155 0.1309 0.693 0.3927 1.7171c 0.1309 0.5005 0.3619 0.7546 0.7084 0.7546l 0.0693 -0.0077c 0.0924 0 0.1848 -0.0231 0.2695 -0.0616c -0.1925 -0.0847 -0.2849 -0.2233 -0.2849 -0.4235c 0 -0.1848 0.1463 -0.3157 0.3311 -0.3157c 0.2618 0 0.4543 0.231 0.4543 0.4928Z "/></symbol><symbol id="g7058399F9FB7CD69929F2864C4EDB984" overflow="visible"><path d="M 0 0m 4.0348 3.3187c -0.154 0 -0.2695 -0.0693 -0.3388 -0.2002c -0.0154 -0.0231 -0.0539 -0.1694 -0.1232 -0.4466l -0.462 -1.848c -0.0539 -0.0847 -0.1001 -0.1617 -0.154 -0.2233c -0.2464 -0.2849 -0.5005 -0.4235 -0.7546 -0.4235c -0.3234 0 -0.4851 0.2002 -0.4851 0.6006c 0 0.2849 0.1309 0.7777 0.4004 1.463c 0.0847 0.231 0.1309 0.3927 0.1309 0.4774c 0 0.4004 -0.3465 0.6776 -0.7469 0.6776c -0.3696 0 -0.6622 -0.1848 -0.8778 -0.5544c -0.1771 -0.3003 -0.2618 -0.5159 -0.2618 -0.6391c 0 -0.0847 0.0539 -0.1309 0.1617 -0.1309c 0.0847 0 0.1386 0.0462 0.1617 0.1463c 0.1771 0.6006 0.4466 0.9009 0.7931 0.9009c 0.1001 0 0.154 -0.077 0.154 -0.231c 0 -0.1155 -0.0308 -0.2541 -0.1001 -0.4312c -0.1617 -0.4081 -0.2541 -0.6622 -0.2926 -0.7623c -0.1001 -0.3003 -0.1463 -0.5698 -0.1463 -0.7931c 0 -0.6545 0.4235 -0.9933 1.078 -0.9933c 0.2849 0 0.539 0.0924 0.7777 0.2849c -0.1155 -0.4389 -0.2695 -0.7777 -0.4697 -1.0164c -0.2772 -0.3157 -0.5698 -0.4697 -0.8855 -0.4697c -0.2387 0 -0.4158 0.0616 -0.5236 0.1925c 0.2156 0.0539 0.3927 0.2002 0.3927 0.4466c 0 0.2079 -0.1078 0.3157 -0.3311 0.3157c -0.2772 0 -0.4697 -0.2541 -0.4697 -0.5313c 0 -0.4543 0.4466 -0.7007 0.9317 -0.7007c 0.4543 0 0.8624 0.154 1.2397 0.4543c 0.3773 0.3003 0.616 0.6776 0.7238 1.1165l 0.7238 2.8721c 0.0231 0.0847 0.0308 0.1386 0.0308 0.1771c 0 0.154 -0.1232 0.2695 -0.2772 0.2695Z "/></symbol><symbol id="gDD78C4AC18CD51C41481EB0565E89892" overflow="visible"><path d="M 0 0m 1.507 0.033c 0.198 0 0.88 -0.033 1.089 -0.033c 0.165 0 0.242 0.088 0.242 0.253c 0 0.099 -0.066 0.165 -0.209 0.176c -0.319 0.011 -0.473 0.121 -0.473 0.33c 0 0.099 0.099 0.319 0.308 0.649c 0.297 0.495 0.506 0.858 0.649 1.1h 2.673c 0 -0.077 0.011 -0.231 0.044 -0.473c 0.077 -0.803 0.121 -1.243 0.121 -1.298c 0 -0.209 -0.242 -0.308 -0.737 -0.308c -0.209 0 -0.308 -0.088 -0.308 -0.264c 0 -0.11 0.066 -0.165 0.198 -0.165c 0.264 0 1.1 0.033 1.364 0.033c 0.22 0 1.001 -0.033 1.221 -0.033c 0.165 0 0.242 0.088 0.242 0.264c 0 0.11 -0.099 0.165 -0.297 0.165c -0.308 0 -0.495 0.022 -0.55 0.055c -0.055 0.033 -0.099 0.132 -0.11 0.297l -0.66 6.798c -0.033 0.209 -0.022 0.297 -0.253 0.297c -0.132 0 -0.242 -0.066 -0.319 -0.209l -3.784 -6.347c -0.33 -0.55 -0.77 -0.847 -1.309 -0.891c -0.176 -0.011 -0.264 -0.099 -0.264 -0.264c 0 -0.11 0.066 -0.165 0.187 -0.165c 0.176 0 0.759 0.033 0.935 0.033Z m 3.905 6.314l 0.33 -3.41h -2.365Z "/></symbol><symbol id="gEC10EBF41C87FA9C1C1D1A4F34582802" overflow="visible"><path d="M 0 0m 8.316 5.973c 0 1.001 -0.99 1.54 -2.068 1.54h -3.652c -0.253 0 -0.363 -0.011 -0.363 -0.264c 0 -0.176 0.22 -0.165 0.352 -0.165c 0.33 -0.011 0.528 -0.033 0.583 -0.044c 0.055 -0.011 0.077 -0.044 0.077 -0.099c 0 -0.022 -0.011 -0.088 -0.044 -0.198l -1.452 -5.841c -0.055 -0.242 -0.165 -0.385 -0.33 -0.44c -0.077 -0.022 -0.275 -0.033 -0.616 -0.033c -0.231 0 -0.341 -0.088 -0.341 -0.264c 0 -0.11 0.11 -0.165 0.341 -0.165h 3.883c 0.715 0 1.375 0.22 2.002 0.649c 0.693 0.473 1.045 1.056 1.045 1.738c 0 0.869 -0.715 1.397 -1.496 1.551c 0.968 0.231 2.079 0.968 2.079 2.035Z m -2.222 1.111c 0.759 0 1.144 -0.352 1.144 -1.067c 0 -0.561 -0.22 -1.023 -0.682 -1.397c -0.462 -0.374 -0.979 -0.55 -1.54 -0.55h -1.529l 0.66 2.64c 0.088 0.374 0.088 0.374 0.55 0.374Z m 0.308 -3.795c 0.154 -0.253 0.231 -0.506 0.231 -0.781c 0 -0.572 -0.22 -1.067 -0.671 -1.474c -0.451 -0.407 -0.957 -0.605 -1.54 -0.605h -1.485c -0.11 0 -0.187 0 -0.231 0.011c -0.066 0 -0.099 0.022 -0.099 0.055c 0 0.011 0 0.044 0.011 0.088c 0.341 1.397 0.605 2.453 0.781 3.157h 2.024c 0.473 0 0.792 -0.154 0.979 -0.451Z "/></symbol></defs></svg>