<svg viewBox="0 0 262.150573228 263.568473228" width="262.150573228pt" height="263.568473228pt" xmlns="http://www.w3.org/2000/svg" xmlns:xlink="http://www.w3.org/1999/xlink" xmlns:h5="http://www.w3.org/1999/xhtml"><path fill="#ffffff" fill-rule="nonzero" d="M 0 0v 263.568473228h 262.150573228v -263.568473228Z "/><g transform="translate(1.417322835 1.417322835)"><path fill="none" stroke="#000000" stroke-width="1" stroke-linecap="butt" stroke-linejoin="miter" stroke-miterlimit="4" transform="translate(5.0248 5.1535)" d="M 0 0m 0 250.426827559v -225.347624573"/><path fill="none" stroke="#000000" stroke-width="1" stroke-linecap="butt" stroke-linejoin="miter" stroke-miterlimit="4" stroke-dashoffset="0" stroke-dasharray="" transform="translate(2.898815748 -214.52486158)" d="M 0 0m 0 250.426827559l 2.125984252 -5.669291339l 2.125984252 5.669291339"/><path fill="none" stroke="#000000" stroke-width="1" stroke-linecap="butt" stroke-linejoin="miter" stroke-miterlimit="4" transform="translate(5.0248 5.1535)" d="M 0 0m 0 250.426827559h 225.347624573"/><path fill="none" stroke="#000000" stroke-width="1" stroke-linecap="butt" stroke-linejoin="miter" stroke-miterlimit="4" stroke-dashoffset="0" stroke-dasharray="" transform="translate(224.70316158 7.279484252)" d="M 0 0m 0 246.174859055l 5.669291339 2.125984252l -5.669291339 2.125984252"/><path fill="none" transform="translate(231.796453543 10.307)" d="M 0 0m 0 240.119827559h 27.519474016v 10.307h -27.519474016v -10.307Z "/><g transform="translate(231.796453528 250.426827496)"><g transform="matrix(1 0 0 -1 8.503937008 7.513)"><use xlink:href="#gAB91A7DFDE77F31CB872F1FD393E8C99" x="0" y="0" fill="#000000" fill-rule="nonzero"/></g><g transform="matrix(1 0 0 -1 13.409937008 10.23)"><use xlink:href="#gB4F8E97E8EFD98CA94EE40D9890E0542" x="0" y="0" fill="#000000" fill-rule="nonzero"/></g></g><path fill="none" transform="translate(0 -221.618153543)" d="M 0 0m 0 221.618153543h 10.0496v 28.808674016h -10.0496v -28.808674016Z "/><g transform="translate(-6.3e-8 -1.42e-7)"><g transform="matrix(1 0 0 -1 0 16.016937008)"><use xlink:href="#gAB91A7DFDE77F31CB872F1FD393E8C99" x="0" y="0" fill="#000000" fill-rule="nonzero"/></g><g transform="matrix(1 0 0 -1 4.906 18.733937008)"><use xlink:href="#g7058399F9FB7CD69929F2864C4EDB984" x="0" y="0" fill="#000000" fill-rule="nonzero"/></g></g><path fill="none" stroke="#0074d9" stroke-width="2" stroke-linecap="butt" stroke-linejoin="miter" stroke-miterlimit="4" transform="translate(16.363382677 -6.185082677)" d="M 0 0m 158.74015748 250.426827559c -75.590551181 -30.236220472 -128.503937008 -83.149606299 -158.74015748 -158.74015748"/><path fill="none" stroke="#80211b" stroke-width="2" stroke-linecap="butt" stroke-linejoin="miter" stroke-miterlimit="4" stroke-dashoffset="0" stroke-dasharray="3 3" transform="translate(16.363382677 -6.185082677)" d="M 0 0m 102.047244094 250.426827559c -37.795275591 -30.236220472 -71.811023622 -102.047244094 -102.047244094 -215.433070866"/><path fill="#ffffff" fill-rule="nonzero" stroke="#000000" stroke-width="1" stroke-linecap="butt" stroke-linejoin="miter" stroke-miterlimit="4" transform="translate(59.551571654 -82.255161417)" d="M 0 0m 3.3 243.826827559c -1.8208872 0 -3.3 1.4791128 -3.3 3.3c 0 1.8208872 1.4791128 3.3 3.3 3.3c 1.8208872 0 3.3 -1.4791128 3.3 -3.3c 0 -1.8208872 -1.4791128 -3.3 -3.3 -3.3Z "/><path fill="#ffffff" fill-rule="nonzero" stroke="#000000" stroke-width="1" stroke-linecap="butt" stroke-linejoin="miter" stroke-miterlimit="4" transform="translate(22.701177953 -138.948074803)" d="M 0 0m 3.3 243.826827559c -1.8208872 0 -3.3 1.4791128 -3.3 3.3c 0 1.8208872 1.4791128 3.3 3.3 3.3c 1.8208872 0 3.3 -1.4791128 3.3 -3.3c 0 -1.8208872 -1.4791128 -3.3 -3.3 -3.3Z "/><path fill="#ffffff" fill-rule="nonzero" stroke="#000000" stroke-width="1" stroke-linecap="butt" stroke-linejoin="miter" stroke-miterlimit="4" transform="translate(37.441335433 -138.948074803)" d="M 0 0m 3.3 243.826827559c -1.8208872 0 -3.3 1.4791128 -3.3 3.3c 0 1.8208872 1.4791128 3.3 3.3 3.3c 1.8208872 0 3.3 -1.4791128 3.3 -3.3c 0 -1.8208872 -1.4791128 -3.3 -3.3 -3.3Z "/><path fill="none" transform="translate(43.262988976 -81.798661417)" d="M 0 0m 0 242.913827559h 19.588582677v 7.513h -19.588582677v -7.513Z "/><g transform="translate(43.262988929 161.115166063)"><g transform="matrix(1 0 0 -1 5.669291339 7.513)"><use xlink:href="#gDD78C4AC18CD51C41481EB0565E89892" x="0" y="0" fill="#000000" fill-rule="nonzero"/></g></g><path fill="none" transform="translate(6.038595276 -138.491574803)" d="M 0 0m 0 242.913827559h 19.962582677v 7.513h -19.962582677v -7.513Z "/><g transform="translate(6.038595213 104.422252677)"><g transform="matrix(1 0 0 -1 5.669291339 7.513)"><use xlink:href="#gEC10EBF41C87FA9C1C1D1A4F34582802" x="0" y="0" fill="#000000" fill-rule="nonzero"/></g></g><path fill="none" transform="translate(40.741335433 -138.370574803)" d="M 0 0m 0 242.671827559h 20.006582677v 7.755h -20.006582677v -7.755Z "/><g transform="translate(40.741335402 104.301252709)"><g transform="matrix(1 0 0 -1 5.669291339 7.513)"><use xlink:href="#g9AF2FCDC7D502736E115E482D897EFF2" x="0" y="0" fill="#000000" fill-rule="nonzero"/></g></g></g><defs><symbol id="gAB91A7DFDE77F31CB872F1FD393E8C99" overflow="visible"><path d="M 0 0m 4.092 4.147c -0.22 0.473 -0.561 0.715 -1.012 0.715c -0.715 0 -1.342 -0.363 -1.881 -1.1c -0.506 -0.682 -0.759 -1.386 -0.759 -2.123c 0 -0.957 0.55 -1.782 1.463 -1.782c 0.396 0 0.792 0.187 1.199 0.561l -0.451 -1.804c -0.033 -0.165 -0.132 -0.264 -0.286 -0.297c -0.055 -0.011 -0.198 -0.022 -0.451 -0.022c -0.066 -0.011 -0.11 -0.011 -0.132 -0.011c -0.099 -0.011 -0.154 -0.099 -0.154 -0.253v -0.044c 0.033 -0.077 0.099 -0.121 0.187 -0.121c 0.209 0 0.869 0.033 1.078 0.033c 0.209 0 0.902 -0.033 1.111 -0.033c 0.154 0 0.231 0.088 0.231 0.264c 0 0.11 -0.11 0.165 -0.319 0.165c -0.198 0 -0.473 -0.011 -0.473 0.121c 0 0.044 0.011 0.121 0.044 0.231l 1.485 6.05c 0 0.099 -0.055 0.154 -0.154 0.154c -0.198 0 -0.616 -0.55 -0.726 -0.704Z m -0.352 -0.044c 0.099 -0.231 0.154 -0.385 0.154 -0.484c 0 -0.011 -0.011 -0.077 -0.033 -0.176l -0.264 -1.067c -0.209 -0.792 -0.308 -1.199 -0.319 -1.221c -0.209 -0.385 -0.814 -0.979 -1.342 -0.979c -0.429 0 -0.649 0.33 -0.649 0.979c 0 0.506 0.341 1.738 0.495 2.145c 0.209 0.517 0.693 1.232 1.298 1.232c 0.297 0 0.517 -0.143 0.66 -0.429Z "/></symbol><symbol id="gB4F8E97E8EFD98CA94EE40D9890E0542" overflow="visible"><path d="M 0 0m 4.4891 2.8105c 0 0.3927 -0.4004 0.5852 -0.8162 0.5852c -0.3465 0 -0.6314 -0.1694 -0.847 -0.5082c -0.1848 0.3388 -0.4928 0.5082 -0.9163 0.5082c -0.2849 0 -0.5852 -0.1232 -0.8855 -0.3773c -0.3157 -0.2618 -0.4774 -0.5313 -0.4774 -0.8085c 0 -0.0847 0.0539 -0.1309 0.154 -0.1309c 0.0847 0 0.1386 0.0462 0.1771 0.1463c 0.1386 0.4158 0.5159 0.9009 1.0087 0.9009c 0.2849 0 0.4235 -0.154 0.4235 -0.4697c 0 -0.1001 -0.0539 -0.3619 -0.154 -0.7854l -0.2618 -1.0318c -0.0693 -0.2926 -0.3542 -0.6468 -0.6853 -0.6468c -0.1309 0 -0.2464 0.0231 -0.3388 0.077c 0.154 0.0693 0.2926 0.2387 0.2926 0.4158c 0 0.1848 -0.1463 0.3157 -0.3311 0.3157c -0.2618 0 -0.462 -0.231 -0.462 -0.4928c 0 -0.385 0.4081 -0.5852 0.8239 -0.5852c 0.3542 0 0.6391 0.1694 0.847 0.5082c 0.1848 -0.3388 0.4851 -0.5082 0.9086 -0.5082c 0.4235 0 0.7623 0.1694 1.0241 0.5082c 0.2233 0.3003 0.3388 0.5313 0.3388 0.6776c 0 0.0847 -0.0462 0.1309 -0.1463 0.1309c -0.0847 0 -0.1463 -0.0539 -0.1771 -0.154c -0.1309 -0.4081 -0.5236 -0.8932 -1.0087 -0.8932c -0.2849 0 -0.4312 0.154 -0.4312 0.462c 0 0.1155 0.1309 0.693 0.3927 1.7171c 0.1309 0.5005 0.3619 0.7546 0.7084 0.7546l 0.0693 -0.0077c 0.0924 0 0.1848 -0.0231 0.2695 -0.0616c -0.1925 -0.0847 -0.2849 -0.2233 -0.2849 -0.4235c 0 -0.1848 0.1463 -0.3157 0.3311 -0.3157c 0.2618 0 0.4543 0.231 0.4543 0.4928Z "/></symbol><symbol id="g7058399F9FB7CD69929F2864C4EDB984" overflow="visible"><path d="M 0 0m 4.0348 3.3187c -0.154 0 -0.2695 -0.0693 -0.3388 -0.2002c -0.0154 -0.0231 -0.0539 -0.1694 -0.1232 -0.4466l -0.462 -1.848c -0.0539 -0.0847 -0.1001 -0.1617 -0.154 -0.2233c -0.2464 -0.2849 -0.5005 -0.4235 -0.7546 -0.4235c -0.3234 0 -0.4851 0.2002 -0.4851 0.6006c 0 0.2849 0.1309 0.7777 0.4004 1.463c 0.0847 0.231 0.1309 0.3927 0.1309 0.4774c 0 0.4004 -0.3465 0.6776 -0.7469 0.6776c -0.3696 0 -0.6622 -0.1848 -0.8778 -0.5544c -0.1771 -0.3003 -0.2618 -0.5159 -0.2618 -0.6391c 0 -0.0847 0.0539 -0.1309 0.1617 -0.1309c 0.0847 0 0.1386 0.0462 0.1617 0.1463c 0.1771 0.6006 0.4466 0.9009 0.7931 0.9009c 0.1001 0 0.154 -0.077 0.154 -0.231c 0 -0.1155 -0.0308 -0.2541 -0.1001 -0.4312c -0.1617 -0.4081 -0.2541 -0.6622 -0.2926 -0.7623c -0.1001 -0.3003 -0.1463 -0.5698 -0.1463 -0.7931c 0 -0.6545 0.4235 -0.9933 1.078 -0.9933c 0.2849 0 0.539 0.0924 0.7777 0.2849c -0.1155 -0.4389 -0.2695 -0.7777 -0.4697 -1.0164c -0.2772 -0.3157 -0.5698 -0.4697 -0.8855 -0.4697c -0.2387 0 -0.4158 0.0616 -0.5236 0.1925c 0.2156 0.0539 0.3927 0.2002 0.3927 0.4466c 0 0.2079 -0.1078 0.3157 -0.3311 0.3157c -0.2772 0 -0.4697 -0.2541 -0.4697 -0.5313c 0 -0.4543 0.4466 -0.7007 0.9317 -0.7007c 0.4543 0 0.8624 0.154 1.2397 0.4543c 0.3773 0.3003 0.616 0.6776 0.7238 1.1165l 0.7238 2.8721c 0.0231 0.0847 0.0308 0.1386 0.0308 0.1771c 0 0.154 -0.1232 0.2695 -0.2772 0.2695Z "/></symbol><symbol id="gDD78C4AC18CD51C41481EB0565E89892" overflow="visible"><path d="M 0 0m 1.507 0.033c 0.198 0 0.88 -0.033 1.089 -0.033c 0.165 0 0.242 0.088 0.242 0.253c 0 0.099 -0.066 0.165 -0.209 0.176c -0.319 0.011 -0.473 0.121 -0.473 0.33c 0 0.099 0.099 0.319 0.308 0.649c 0.297 0.495 0.506 0.858 0.649 1.1h 2.673c 0 -0.077 0.011 -0.231 0.044 -0.473c 0.077 -0.803 0.121 -1.243 0.121 -1.298c 0 -0.209 -0.242 -0.308 -0.737 -0.308c -0.209 0 -0.308 -0.088 -0.308 -0.264c 0 -0.11 0.066 -0.165 0.198 -0.165c 0.264 0 1.1 0.033 1.364 0.033c 0.22 0 1.001 -0.033 1.221 -0.033c 0.165 0 0.242 0.088 0.242 0.264c 0 0.11 -0.099 0.165 -0.297 0.165c -0.308 0 -0.495 0.022 -0.55 0.055c -0.055 0.033 -0.099 0.132 -0.11 0.297l -0.66 6.798c -0.033 0.209 -0.022 0.297 -0.253 0.297c -0.132 0 -0.242 -0.066 -0.319 -0.209l -3.784 -6.347c -0.33 -0.55 -0.77 -0.847 -1.309 -0.891c -0.176 -0.011 -0.264 -0.099 -0.264 -0.264c 0 -0.11 0.066 -0.165 0.187 -0.165c 0.176 0 0.759 0.033 0.935 0.033Z m 3.905 6.314l 0.33 -3.41h -2.365Z "/></symbol><symbol id="gEC10EBF41C87FA9C1C1D1A4F34582802" overflow="visible"><path d="M 0 0m 8.316 5.973c 0 1.001 -0.99 1.54 -2.068 1.54h -3.652c -0.253 0 -0.363 -0.011 -0.363 -0.264c 0 -0.176 0.22 -0.165 0.352 -0.165c 0.33 -0.011 0.528 -0.033 0.583 -0.044c 0.055 -0.011 0.077 -0.044 0.077 -0.099c 0 -0.022 -0.011 -0.088 -0.044 -0.198l -1.452 -5.841c -0.055 -0.242 -0.165 -0.385 -0.33 -0.44c -0.077 -0.022 -0.275 -0.033 -0.616 -0.033c -0.231 0 -0.341 -0.088 -0.341 -0.264c 0 -0.11 0.11 -0.165 0.341 -0.165h 3.883c 0.715 0 1.375 0.22 2.002 0.649c 0.693 0.473 1.045 1.056 1.045 1.738c 0 0.869 -0.715 1.397 -1.496 1.551c 0.968 0.231 2.079 0.968 2.079 2.035Z m -2.222 1.111c 0.759 0 1.144 -0.352 1.144 -1.067c 0 -0.561 -0.22 -1.023 -0.682 -1.397c -0.462 -0.374 -0.979 -0.55 -1.54 -0.55h -1.529l 0.66 2.64c 0.088 0.374 0.088 0.374 0.55 0.374Z m 0.308 -3.795c 0.154 -0.253 0.231 -0.506 0.231 -0.781c 0 -0.572 -0.22 -1.067 -0.671 -1.474c -0.451 -0.407 -0.957 -0.605 -1.54 -0.605h -1.485c -0.11 0 -0.187 0 -0.231 0.011c -0.066 0 -0.099 0.022 -0.099 0.055c 0 0.011 0 0.044 0.011 0.088c 0.341 1.397 0.605 2.453 0.781 3.157h 2.024c 0.473 0 0.792 -0.154 0.979 -0.451Z "/></symbol><symbol id="g9AF2FCDC7D502736E115E482D897EFF2" overflow="visible"><path d="M 0 0m 1.628 2.398c 0 1.408 0.616 2.838 1.309 3.63c 0.561 0.649 1.529 1.298 2.618 1.298c 1.144 0 1.705 -0.869 1.705 -2.057c 0 -0.099 -0.033 -0.451 -0.033 -0.55c 0 -0.099 0.066 -0.154 0.209 -0.154c 0.055 0 0.099 0.011 0.132 0.022c 0.055 0.077 0.088 0.154 0.11 0.231l 0.682 2.783c 0 0.099 -0.055 0.154 -0.165 0.154c -0.044 0 -0.11 -0.044 -0.198 -0.143l -0.715 -0.803c -0.429 0.627 -1.034 0.946 -1.815 0.946c -0.605 0 -1.199 -0.143 -1.804 -0.418c -1.221 -0.572 -2.112 -1.474 -2.684 -2.706c -0.286 -0.605 -0.429 -1.221 -0.429 -1.848c 0 -0.88 0.275 -1.595 0.836 -2.167c 0.561 -0.572 1.276 -0.858 2.156 -0.858c 0.869 0 1.661 0.319 2.376 0.946c 0.297 0.253 0.55 0.561 0.759 0.902c 0.297 0.495 0.451 0.836 0.451 1.045c 0 0.099 -0.055 0.154 -0.176 0.154c -0.099 0 -0.154 -0.044 -0.176 -0.143c -0.231 -0.715 -0.594 -1.287 -1.089 -1.694c -0.627 -0.517 -1.287 -0.781 -1.969 -0.781c -1.32 0 -2.09 0.891 -2.09 2.211Z "/></symbol></defs></svg>