<svg xmlns="http://www.w3.org/2000/svg" viewBox="0 0 700 440" style="font-family:-apple-system,BlinkMacSystemFont,sans-serif">
<line x1="148.8" y1="30" x2="148.8" y2="385" stroke="rgba(0,0,0,0.07)" stroke-width="0.5"/>
<line x1="217.5" y1="30" x2="217.5" y2="385" stroke="rgba(0,0,0,0.07)" stroke-width="0.5"/>
<line x1="286.2" y1="30" x2="286.2" y2="385" stroke="rgba(0,0,0,0.07)" stroke-width="0.5"/>
<line x1="355.0" y1="30" x2="355.0" y2="385" stroke="rgba(0,0,0,0.07)" stroke-width="0.5"/>
<line x1="423.8" y1="30" x2="423.8" y2="385" stroke="rgba(0,0,0,0.07)" stroke-width="0.5"/>
<line x1="492.5" y1="30" x2="492.5" y2="385" stroke="rgba(0,0,0,0.07)" stroke-width="0.5"/>
<line x1="561.2" y1="30" x2="561.2" y2="385" stroke="rgba(0,0,0,0.07)" stroke-width="0.5"/>
<line x1="80" y1="349.5" x2="630" y2="349.5" stroke="rgba(0,0,0,0.07)" stroke-width="0.5"/>
<line x1="80" y1="314.0" x2="630" y2="314.0" stroke="rgba(0,0,0,0.07)" stroke-width="0.5"/>
<line x1="80" y1="278.5" x2="630" y2="278.5" stroke="rgba(0,0,0,0.07)" stroke-width="0.5"/>
<line x1="80" y1="243.0" x2="630" y2="243.0" stroke="rgba(0,0,0,0.07)" stroke-width="0.5"/>
<line x1="80" y1="207.5" x2="630" y2="207.5" stroke="rgba(0,0,0,0.07)" stroke-width="0.5"/>
<line x1="80" y1="172.0" x2="630" y2="172.0" stroke="rgba(0,0,0,0.07)" stroke-width="0.5"/>
<line x1="80" y1="136.5" x2="630" y2="136.5" stroke="rgba(0,0,0,0.07)" stroke-width="0.5"/>
<line x1="80" y1="101.0" x2="630" y2="101.0" stroke="rgba(0,0,0,0.07)" stroke-width="0.5"/>
<line x1="80" y1="65.5" x2="630" y2="65.5" stroke="rgba(0,0,0,0.07)" stroke-width="0.5"/>
<line x1="80" y1="30" x2="80" y2="385" stroke="#333" stroke-width="1.5"/>
<line x1="80" y1="385" x2="630" y2="385" stroke="#333" stroke-width="1.5"/>
<text x="355.0" y="427" text-anchor="middle" fill="#444" font-size="13">数量</text>
<text x="25" y="207.5" text-anchor="middle" fill="#444" font-size="13" transform="rotate(-90,25,207.5)">価格・費用</text>
<path fill="none" stroke="#d45500" stroke-width="2.8" d="M80.0,349.5 L82.8,349.5 L85.5,349.5 L88.2,349.4 L91.0,349.4 L93.8,349.3 L96.5,349.3 L99.2,349.2 L102.0,349.1 L104.8,348.9 L107.5,348.8 L110.2,348.7 L113.0,348.5 L115.8,348.3 L118.5,348.2 L121.2,348.0 L124.0,347.8 L126.8,347.5 L129.5,347.3 L132.2,347.0 L135.0,346.8 L137.8,346.5 L140.5,346.2 L143.2,345.9 L146.0,345.6 L148.8,345.2 L151.5,344.9 L154.2,344.5 L157.0,344.2 L159.8,343.8 L162.5,343.4 L165.2,342.9 L168.0,342.5 L170.8,342.1 L173.5,341.6 L176.2,341.2 L179.0,340.7 L181.8,340.2 L184.5,339.7 L187.2,339.1 L190.0,338.6 L192.8,338.0 L195.5,337.5 L198.2,336.9 L201.0,336.3 L203.8,335.7 L206.5,335.1 L209.2,334.4 L212.0,333.8 L214.8,333.1 L217.5,332.5 L220.2,331.8 L223.0,331.1 L225.8,330.4 L228.5,329.6 L231.2,328.9 L234.0,328.1 L236.8,327.4 L239.5,326.6 L242.2,325.8 L245.0,325.0 L247.8,324.1 L250.5,323.3 L253.2,322.4 L256.0,321.6 L258.8,320.7 L261.5,319.8 L264.2,318.9 L267.0,318.0 L269.8,317.0 L272.5,316.1 L275.2,315.1 L278.0,314.2 L280.8,313.2 L283.5,312.2 L286.2,311.2 L289.0,310.1 L291.8,309.1 L294.5,308.0 L297.2,307.0 L300.0,305.9 L302.8,304.8 L305.5,303.7 L308.2,302.5 L311.0,301.4 L313.8,300.3 L316.5,299.1 L319.2,297.9 L322.0,296.7 L324.8,295.5 L327.5,294.3 L330.2,293.1 L333.0,291.8 L335.8,290.5 L338.5,289.3 L341.2,288.0 L344.0,286.7 L346.8,285.4 L349.5,284.0 L352.2,282.7 L355.0,281.3 L357.8,280.0 L360.5,278.6 L363.2,277.2 L366.0,275.8 L368.8,274.4 L371.5,272.9 L374.2,271.5 L377.0,270.0 L379.8,268.5 L382.5,267.0 L385.2,265.5 L388.0,264.0 L390.7,262.5 L393.5,260.9 L396.2,259.4 L399.0,257.8 L401.8,256.2 L404.5,254.6 L407.2,253.0 L410.0,251.3 L412.8,249.7 L415.5,248.1 L418.2,246.4 L421.0,244.7 L423.8,243.0 L426.5,241.3 L429.2,239.6 L432.0,237.8 L434.8,236.1 L437.5,234.3 L440.2,232.5 L443.0,230.7 L445.8,228.9 L448.5,227.1 L451.2,225.3 L454.0,223.4 L456.8,221.6 L459.5,219.7 L462.2,217.8 L465.0,215.9 L467.8,214.0 L470.5,212.1 L473.2,210.1 L476.0,208.2 L478.8,206.2 L481.5,204.2 L484.2,202.2 L487.0,200.2 L489.8,198.2 L492.5,196.1 L495.2,194.1 L498.0,192.0 L500.8,189.9 L503.5,187.9 L506.2,185.7 L509.0,183.6 L511.8,181.5 L514.5,179.3 L517.2,177.2 L520.0,175.0 L522.8,172.8 L525.5,170.6 L528.2,168.4 L531.0,166.2 L533.8,163.9 L536.5,161.7 L539.2,159.4 L542.0,157.1 L544.8,154.8 L547.5,152.5 L550.2,150.2 L553.0,147.9 L555.8,145.5 L558.5,143.1 L561.2,140.8 L564.0,138.4 L566.8,136.0 L569.5,133.5 L572.2,131.1 L575.0,128.7 L577.8,126.2 L580.5,123.7 L583.2,121.2 L586.0,118.7 L588.8,116.2 L591.5,113.7 L594.2,111.2 L597.0,108.6 L599.8,106.0 L602.5,103.4 L605.2,100.8 L608.0,98.2 L610.8,95.6 L613.5,93.0 L616.2,90.3 L619.0,87.7 L621.8,85.0 L624.5,82.3 L627.2,79.6 L630.0,76.9"/>
<text x="581.9" y="92.5" fill="#d45500" font-size="14" font-weight="600" opacity="1">MC
  <animate attributeName="opacity" dur="42.0s" repeatCount="indefinite" keyTimes="0.0000;0.7143;0.7381;1.0000" values="1;1;0;0"/>
</text>
<text x="72" y="300.2" text-anchor="end" fill="#c0392b" font-size="12" font-weight="600" opacity="0">p₁
  <animate attributeName="opacity" dur="42.0s" repeatCount="indefinite" keyTimes="0.0000;0.0474;0.0476;1.0000" values="0;0;1;1"/>
</text>
<g opacity="0"><animate attributeName="opacity" dur="42.0s" repeatCount="indefinite" keyTimes="0.0000;0.0474;0.0476;0.0833;0.0952;1.0000" values="0;0;1;1;0;0"/>
  <rect x="279.375" y="50.5" width="220" height="26" rx="4" fill="white" opacity="0.92"/>
  <text x="389.4" y="70.5" text-anchor="middle" fill="#444" font-size="13" font-weight="600">適当に価格 p₁ を選ぶ</text>
</g>
<line x1="80" y1="296.2" x2="80" y2="296.2" stroke="#c0392b" stroke-width="1.2" stroke-dasharray="5,4" opacity="0">
  <animate attributeName="x2" dur="42.0s" repeatCount="indefinite" keyTimes="0;0.0833;0.1190;1" values="80.0;80.0;323.1;323.1"/>
  <animate attributeName="opacity" dur="42.0s" repeatCount="indefinite" keyTimes="0.0000;0.0831;0.0833;0.2619;0.2857;1.0000" values="0;0;0.8;0.8;0.35;0.35"/>
</line>
<circle cx="323.1" cy="296.2" r="5" fill="#c0392b" opacity="0">
  <animate attributeName="opacity" dur="42.0s" repeatCount="indefinite" keyTimes="0.0000;0.1188;0.1190;1.0000" values="0;0;1;1"/>
</circle>
<line x1="323.1" y1="296.2" x2="323.1" y2="296.2" stroke="#c0392b" stroke-width="1.2" stroke-dasharray="5,4" opacity="0">
  <animate attributeName="y2" dur="42.0s" repeatCount="indefinite" keyTimes="0;0.1190;0.1548;1" values="296.2;296.2;385.0;385.0"/>
  <animate attributeName="opacity" dur="42.0s" repeatCount="indefinite" keyTimes="0.0000;0.1188;0.1190;0.2619;0.2857;1.0000" values="0;0;0.8;0.8;0.35;0.35"/>
</line>
<text x="323.1" y="403" text-anchor="middle" fill="#c0392b" font-size="12" font-weight="600" opacity="0">q₁
  <animate attributeName="opacity" dur="42.0s" repeatCount="indefinite" keyTimes="0.0000;0.1545;0.1548;1.0000" values="0;0;1;1"/>
</text>
<line x1="326.1" y1="385.0" x2="326.1" y2="385.0" stroke="#c0392b" stroke-width="1.5" opacity="0">
  <animate attributeName="y2" dur="42.0s" repeatCount="indefinite" keyTimes="0;0.1548;0.1726;1" values="385.0;385.0;296.2;296.2"/>
  <animate attributeName="opacity" dur="42.0s" repeatCount="indefinite" keyTimes="0.0000;0.1545;0.1548;0.2619;0.2857;1.0000" values="0;0;0.7;0.7;0.2;0.2"/>
</line>
<line x1="326.1" y1="296.2" x2="326.1" y2="296.2" stroke="#c0392b" stroke-width="1.5" opacity="0">
  <animate attributeName="x2" dur="42.0s" repeatCount="indefinite" keyTimes="0;0.1726;0.1905;1" values="326.1;326.1;80.0;80.0"/>
  <animate attributeName="opacity" dur="42.0s" repeatCount="indefinite" keyTimes="0.0000;0.1724;0.1726;0.2619;0.2857;1.0000" values="0;0;0.7;0.7;0.2;0.2"/>
</line>
<text x="72" y="286.2" text-anchor="end" fill="#c0392b" font-size="11" opacity="0">MC(q₁)
  <animate attributeName="opacity" dur="42.0s" repeatCount="indefinite" keyTimes="0.0000;0.1902;0.1905;0.2619;0.2738;1.0000" values="0;0;1;1;0;0"/>
</text>
<g opacity="0"><animate attributeName="opacity" dur="42.0s" repeatCount="indefinite" keyTimes="0.0000;0.1902;0.1905;0.2619;0.2738;1.0000" values="0;0;1;1;0;0"/>
  <rect x="308.125" y="47.5" width="300" height="48" rx="5" fill="white" opacity="0.93"/>
  <text x="458.1" y="67.5" text-anchor="middle" fill="#c0392b" font-size="14" font-weight="700">p₁ = MC(q₁)</text>
  <text x="458.1" y="87.5" text-anchor="middle" fill="#444" font-size="12">利潤最大化条件：p₁に対してはq₁がベスト</text>
</g>
<text x="72" y="229.2" text-anchor="end" fill="#2471a3" font-size="12" font-weight="600" opacity="0">p₂
  <animate attributeName="opacity" dur="42.0s" repeatCount="indefinite" keyTimes="0.0000;0.2617;0.2619;1.0000" values="0;0;1;1"/>
</text>
<line x1="80" y1="225.2" x2="80" y2="225.2" stroke="#2471a3" stroke-width="1.2" stroke-dasharray="5,4" opacity="0">
  <animate attributeName="x2" dur="42.0s" repeatCount="indefinite" keyTimes="0;0.2857;0.3214;1" values="80.0;80.0;451.3;451.3"/>
  <animate attributeName="opacity" dur="42.0s" repeatCount="indefinite" keyTimes="0.0000;0.2855;0.2857;0.4524;0.4762;1.0000" values="0;0;0.8;0.8;0.35;0.35"/>
</line>
<circle cx="451.3" cy="225.2" r="5" fill="#2471a3" opacity="0">
  <animate attributeName="opacity" dur="42.0s" repeatCount="indefinite" keyTimes="0.0000;0.3212;0.3214;1.0000" values="0;0;1;1"/>
</circle>
<line x1="451.3" y1="225.2" x2="451.3" y2="225.2" stroke="#2471a3" stroke-width="1.2" stroke-dasharray="5,4" opacity="0">
  <animate attributeName="y2" dur="42.0s" repeatCount="indefinite" keyTimes="0;0.3214;0.3571;1" values="225.2;225.2;385.0;385.0"/>
  <animate attributeName="opacity" dur="42.0s" repeatCount="indefinite" keyTimes="0.0000;0.3212;0.3214;0.4524;0.4762;1.0000" values="0;0;0.8;0.8;0.35;0.35"/>
</line>
<text x="451.3" y="403" text-anchor="middle" fill="#2471a3" font-size="12" font-weight="600" opacity="0">q₂
  <animate attributeName="opacity" dur="42.0s" repeatCount="indefinite" keyTimes="0.0000;0.3569;0.3571;1.0000" values="0;0;1;1"/>
</text>
<line x1="454.3" y1="385.0" x2="454.3" y2="385.0" stroke="#2471a3" stroke-width="1.5" opacity="0">
  <animate attributeName="y2" dur="42.0s" repeatCount="indefinite" keyTimes="0;0.3571;0.3750;1" values="385.0;385.0;225.2;225.2"/>
  <animate attributeName="opacity" dur="42.0s" repeatCount="indefinite" keyTimes="0.0000;0.3569;0.3571;0.4524;0.4762;1.0000" values="0;0;0.7;0.7;0.2;0.2"/>
</line>
<line x1="454.3" y1="225.2" x2="454.3" y2="225.2" stroke="#2471a3" stroke-width="1.5" opacity="0">
  <animate attributeName="x2" dur="42.0s" repeatCount="indefinite" keyTimes="0;0.3750;0.3929;1" values="454.3;454.3;80.0;80.0"/>
  <animate attributeName="opacity" dur="42.0s" repeatCount="indefinite" keyTimes="0.0000;0.3748;0.3750;0.4524;0.4762;1.0000" values="0;0;0.7;0.7;0.2;0.2"/>
</line>
<text x="72" y="215.2" text-anchor="end" fill="#2471a3" font-size="11" opacity="0">MC(q₂)
  <animate attributeName="opacity" dur="42.0s" repeatCount="indefinite" keyTimes="0.0000;0.3926;0.3929;0.4524;0.4643;1.0000" values="0;0;1;1;0;0"/>
</text>
<g opacity="0"><animate attributeName="opacity" dur="42.0s" repeatCount="indefinite" keyTimes="0.0000;0.3926;0.3929;0.4524;0.4643;1.0000" values="0;0;1;1;0;0"/>
  <rect x="308.125" y="47.5" width="300" height="48" rx="5" fill="white" opacity="0.93"/>
  <text x="458.1" y="67.5" text-anchor="middle" fill="#2471a3" font-size="14" font-weight="700">p₂ = MC(q₂)</text>
  <text x="458.1" y="87.5" text-anchor="middle" fill="#444" font-size="12">p₂に対してはq₂が最適</text>
</g>
<text x="72" y="140.5" text-anchor="end" fill="#1a8c5e" font-size="12" font-weight="600" opacity="0">p₃
  <animate attributeName="opacity" dur="42.0s" repeatCount="indefinite" keyTimes="0.0000;0.4521;0.4524;1.0000" values="0;0;1;1"/>
</text>
<line x1="80" y1="136.5" x2="80" y2="136.5" stroke="#1a8c5e" stroke-width="1.2" stroke-dasharray="5,4" opacity="0">
  <animate attributeName="x2" dur="42.0s" repeatCount="indefinite" keyTimes="0;0.4762;0.5119;1" values="80.0;80.0;566.1;566.1"/>
  <animate attributeName="opacity" dur="42.0s" repeatCount="indefinite" keyTimes="0.0000;0.4760;0.4762;0.6429;0.6667;1.0000" values="0;0;0.8;0.8;0.35;0.35"/>
</line>
<circle cx="566.1" cy="136.5" r="5" fill="#1a8c5e" opacity="0">
  <animate attributeName="opacity" dur="42.0s" repeatCount="indefinite" keyTimes="0.0000;0.5117;0.5119;1.0000" values="0;0;1;1"/>
</circle>
<line x1="566.1" y1="136.5" x2="566.1" y2="136.5" stroke="#1a8c5e" stroke-width="1.2" stroke-dasharray="5,4" opacity="0">
  <animate attributeName="y2" dur="42.0s" repeatCount="indefinite" keyTimes="0;0.5119;0.5476;1" values="136.5;136.5;385.0;385.0"/>
  <animate attributeName="opacity" dur="42.0s" repeatCount="indefinite" keyTimes="0.0000;0.5117;0.5119;0.6429;0.6667;1.0000" values="0;0;0.8;0.8;0.35;0.35"/>
</line>
<text x="566.1" y="403" text-anchor="middle" fill="#1a8c5e" font-size="12" font-weight="600" opacity="0">q₃
  <animate attributeName="opacity" dur="42.0s" repeatCount="indefinite" keyTimes="0.0000;0.5474;0.5476;1.0000" values="0;0;1;1"/>
</text>
<line x1="569.1" y1="385.0" x2="569.1" y2="385.0" stroke="#1a8c5e" stroke-width="1.5" opacity="0">
  <animate attributeName="y2" dur="42.0s" repeatCount="indefinite" keyTimes="0;0.5476;0.5655;1" values="385.0;385.0;136.5;136.5"/>
  <animate attributeName="opacity" dur="42.0s" repeatCount="indefinite" keyTimes="0.0000;0.5474;0.5476;0.6429;0.6667;1.0000" values="0;0;0.7;0.7;0.2;0.2"/>
</line>
<line x1="569.1" y1="136.5" x2="569.1" y2="136.5" stroke="#1a8c5e" stroke-width="1.5" opacity="0">
  <animate attributeName="x2" dur="42.0s" repeatCount="indefinite" keyTimes="0;0.5655;0.5833;1" values="569.1;569.1;80.0;80.0"/>
  <animate attributeName="opacity" dur="42.0s" repeatCount="indefinite" keyTimes="0.0000;0.5652;0.5655;0.6429;0.6667;1.0000" values="0;0;0.7;0.7;0.2;0.2"/>
</line>
<text x="72" y="126.5" text-anchor="end" fill="#1a8c5e" font-size="11" opacity="0">MC(q₃)
  <animate attributeName="opacity" dur="42.0s" repeatCount="indefinite" keyTimes="0.0000;0.5831;0.5833;0.6429;0.6548;1.0000" values="0;0;1;1;0;0"/>
</text>
<g opacity="0"><animate attributeName="opacity" dur="42.0s" repeatCount="indefinite" keyTimes="0.0000;0.5831;0.5833;0.6429;0.6548;1.0000" values="0;0;1;1;0;0"/>
  <rect x="308.125" y="47.5" width="300" height="48" rx="5" fill="white" opacity="0.93"/>
  <text x="458.1" y="67.5" text-anchor="middle" fill="#1a8c5e" font-size="14" font-weight="700">p₃ = MC(q₃)</text>
  <text x="458.1" y="87.5" text-anchor="middle" fill="#444" font-size="12">p₃に対してはq₃が最適</text>
</g>
<circle cx="323.1" cy="296.2" r="9" fill="none" stroke="#c0392b" stroke-width="2" opacity="0">
  <animate attributeName="opacity" dur="42.0s" repeatCount="indefinite" keyTimes="0.0000;0.6310;0.6548;1.0000" values="0;0;1;1"/>
</circle>
<circle cx="451.3" cy="225.2" r="9" fill="none" stroke="#2471a3" stroke-width="2" opacity="0">
  <animate attributeName="opacity" dur="42.0s" repeatCount="indefinite" keyTimes="0.0000;0.6310;0.6548;1.0000" values="0;0;1;1"/>
</circle>
<circle cx="566.1" cy="136.5" r="9" fill="none" stroke="#1a8c5e" stroke-width="2" opacity="0">
  <animate attributeName="opacity" dur="42.0s" repeatCount="indefinite" keyTimes="0.0000;0.6310;0.6548;1.0000" values="0;0;1;1"/>
</circle>
<path fill="none" stroke="#1a3c6e" stroke-width="4.5" stroke-linecap="round"
  stroke-dasharray="602" stroke-dashoffset="602"
  d="M80.0,349.5 L81.8,349.5 L83.5,349.5 L85.3,349.5 L87.1,349.5 L88.8,349.4 L90.6,349.4 L92.4,349.4 L94.1,349.3 L95.9,349.3 L97.6,349.2 L99.4,349.2 L101.2,349.1 L102.9,349.0 L104.7,348.9 L106.5,348.9 L108.2,348.8 L110.0,348.7 L111.8,348.6 L113.5,348.5 L115.3,348.4 L117.1,348.3 L118.8,348.1 L120.6,348.0 L122.3,347.9 L124.1,347.7 L125.9,347.6 L127.6,347.5 L129.4,347.3 L131.2,347.1 L132.9,347.0 L134.7,346.8 L136.5,346.6 L138.2,346.4 L140.0,346.3 L141.8,346.1 L143.5,345.9 L145.3,345.7 L147.1,345.4 L148.8,345.2 L150.6,345.0 L152.3,344.8 L154.1,344.5 L155.9,344.3 L157.6,344.1 L159.4,343.8 L161.2,343.6 L162.9,343.3 L164.7,343.0 L166.5,342.8 L168.2,342.5 L170.0,342.2 L171.8,341.9 L173.5,341.6 L175.3,341.3 L177.1,341.0 L178.8,340.7 L180.6,340.4 L182.3,340.1 L184.1,339.7 L185.9,339.4 L187.6,339.1 L189.4,338.7 L191.2,338.4 L192.9,338.0 L194.7,337.6 L196.5,337.3 L198.2,336.9 L200.0,336.5 L201.8,336.1 L203.5,335.7 L205.3,335.4 L207.1,335.0 L208.8,334.5 L210.6,334.1 L212.3,333.7 L214.1,333.3 L215.9,332.9 L217.6,332.4 L219.4,332.0 L221.2,331.5 L222.9,331.1 L224.7,330.6 L226.5,330.2 L228.2,329.7 L230.0,329.2 L231.8,328.7 L233.5,328.3 L235.3,327.8 L237.0,327.3 L238.8,326.8 L240.6,326.3 L242.3,325.7 L244.1,325.2 L245.9,324.7 L247.6,324.2 L249.4,323.6 L251.2,323.1 L252.9,322.5 L254.7,322.0 L256.5,321.4 L258.2,320.9 L260.0,320.3 L261.8,319.7 L263.5,319.1 L265.3,318.6 L267.0,318.0 L268.8,317.4 L270.6,316.8 L272.3,316.2 L274.1,315.5 L275.9,314.9 L277.6,314.3 L279.4,313.7 L281.2,313.0 L282.9,312.4 L284.7,311.7 L286.5,311.1 L288.2,310.4 L290.0,309.8 L291.8,309.1 L293.5,308.4 L295.3,307.7 L297.0,307.0 L298.8,306.3 L300.6,305.7 L302.3,304.9 L304.1,304.2 L305.9,303.5 L307.6,302.8 L309.4,302.1 L311.2,301.3 L312.9,300.6 L314.7,299.9 L316.5,299.1 L318.2,298.4 L320.0,297.6 L321.7,296.8 L323.5,296.1 L325.3,295.3 L327.0,294.5 L328.8,293.7 L330.6,292.9 L332.3,292.1 L334.1,291.3 L335.9,290.5 L337.6,289.7 L339.4,288.9 L341.2,288.0 L342.9,287.2 L344.7,286.4 L346.5,285.5 L348.2,284.7 L350.0,283.8 L351.7,282.9 L353.5,282.1 L355.3,281.2 L357.0,280.3 L358.8,279.4 L360.6,278.6 L362.3,277.7 L364.1,276.8 L365.9,275.8 L367.6,274.9 L369.4,274.0 L371.2,273.1 L372.9,272.2 L374.7,271.2 L376.5,270.3 L378.2,269.3 L380.0,268.4 L381.7,267.4 L383.5,266.5 L385.3,265.5 L387.0,264.5 L388.8,263.6 L390.6,262.6 L392.3,261.6 L394.1,260.6 L395.9,259.6 L397.6,258.6 L399.4,257.6 L401.2,256.5 L402.9,255.5 L404.7,254.5 L406.4,253.5 L408.2,252.4 L410.0,251.4 L411.7,250.3 L413.5,249.3 L415.3,248.2 L417.0,247.1 L418.8,246.0 L420.6,245.0 L422.3,243.9 L424.1,242.8 L425.9,241.7 L427.6,240.6 L429.4,239.5 L431.2,238.4 L432.9,237.2 L434.7,236.1 L436.4,235.0 L438.2,233.9 L440.0,232.7 L441.7,231.6 L443.5,230.4 L445.3,229.2 L447.0,228.1 L448.8,226.9 L450.6,225.7 L452.3,224.6 L454.1,223.4 L455.9,222.2 L457.6,221.0 L459.4,219.8 L461.1,218.6 L462.9,217.3 L464.7,216.1 L466.4,214.9 L468.2,213.7 L470.0,212.4 L471.7,211.2 L473.5,209.9 L475.3,208.7 L477.0,207.4 L478.8,206.2 L480.6,204.9 L482.3,203.6 L484.1,202.3 L485.9,201.0 L487.6,199.7 L489.4,198.4 L491.1,197.1 L492.9,195.8 L494.7,194.5 L496.4,193.2 L498.2,191.9 L500.0,190.5 L501.7,189.2 L503.5,187.9 L505.3,186.5 L507.0,185.1 L508.8,183.8 L510.6,182.4 L512.3,181.0 L514.1,179.7 L515.9,178.3 L517.6,176.9 L519.4,175.5 L521.1,174.1 L522.9,172.7 L524.7,171.3 L526.4,169.9 L528.2,168.4 L530.0,167.0 L531.7,165.6 L533.5,164.1 L535.3,162.7 L537.0,161.2 L538.8,159.8 L540.6,158.3 L542.3,156.9 L544.1,155.4 L545.8,153.9 L547.6,152.4 L549.4,150.9 L551.1,149.4 L552.9,147.9 L554.7,146.4 L556.4,144.9 L558.2,143.4 L560.0,141.9 L561.7,140.3 L563.5,138.8 L565.3,137.3 L567.0,135.7 L568.8,134.2 L570.6,132.6 L572.3,131.0 L574.1,129.5 L575.8,127.9 L577.6,126.3 L579.4,124.7 L581.1,123.1 L582.9,121.6 L584.7,119.9 L586.4,118.3 L588.2,116.7 L590.0,115.1 L591.7,113.5 L593.5,111.9 L595.3,110.2 L597.0,108.6 L598.8,106.9 L600.6,105.3 L602.3,103.6 L604.1,102.0 L605.8,100.3 L607.6,98.6 L609.4,96.9" opacity="0">
  <animate attributeName="opacity" dur="42.0s" repeatCount="indefinite" keyTimes="0;0.6667;0.6669;1" values="0;0;1;1"/>
  <animate attributeName="stroke-dashoffset" dur="42.0s" repeatCount="indefinite" calcMode="spline" keySplines="0 0 1 1;0.3 0 0.7 1;0 0 1 1" keyTimes="0;0.6667;0.7381;1" values="602;602;0;0"/>
</path>
<text x="601.9" y="122.5" fill="#1a3c6e" font-size="18" font-weight="700" opacity="0">S
  <animate attributeName="opacity" dur="42.0s" repeatCount="indefinite" keyTimes="0.0000;0.7381;0.7500;1.0000" values="0;0;1;1"/>
</text>
<text x="619.9" y="122.5" fill="#1a3c6e" font-size="13" font-weight="600" opacity="0">＝ 供給曲線
  <animate attributeName="opacity" dur="42.0s" repeatCount="indefinite" keyTimes="0.0000;0.7381;0.7500;1.0000" values="0;0;1;1"/>
</text>
<g opacity="0"><animate attributeName="opacity" dur="42.0s" repeatCount="indefinite" keyTimes="0.0000;0.7619;0.7857;1.0000" values="0;0;1;1"/>
  <rect x="179.375" y="36.849999999999966" width="420" height="48" rx="5" fill="white" opacity="0.94"/>
  <text x="389.4" y="56.8" text-anchor="middle" fill="#444" font-size="13" font-weight="700">各価格に対して最適な生産量を結びつけている</text>
  <text x="389.4" y="78.8" text-anchor="middle" fill="#1a3c6e" font-size="14" font-weight="700">→ これが供給曲線！</text>
</g>
</svg>