<svg class="typst-doc" viewBox="0 0 634.8523275590552 338.3782866141732" width="634.8523275590552pt" height="338.3782866141732pt" xmlns="http://www.w3.org/2000/svg" xmlns:xlink="http://www.w3.org/1999/xlink" xmlns:h5="http://www.w3.org/1999/xhtml">
    <g>
        <g class="typst-group">
            <g>
                <g class="typst-group" transform="matrix(1 0 0 1 1.4173228346456692 1.4173228346456692)">
                    <g>
                        <path class="typst-shape" fill="none" stroke="#000000" stroke-width="1" stroke-linecap="butt" stroke-linejoin="miter" stroke-miterlimit="4" transform="matrix(1 0 0 1 5.0248 23.2704)" d="M 0 0m 0 289.00284 v -282.04053 "/>
                        <path class="typst-shape" fill="none" stroke="#000000" stroke-width="1" stroke-linecap="butt" stroke-linejoin="miter" stroke-miterlimit="4" stroke-dashoffset="0" stroke-dasharray="" transform="matrix(1 0 0 1 2.8988157480314958 -253.10087496566928)" d="M 0 0m 0 289.00284 l 2.1259842 -5.669281 l 2.1259842 5.669281 "/>
                        <path class="typst-shape" fill="none" stroke="#000000" stroke-width="1" stroke-linecap="butt" stroke-linejoin="miter" stroke-miterlimit="4" transform="matrix(1 0 0 1 5.0248 23.2704)" d="M 0 0m 0 289.00284 h 282.04053 "/>
                        <path class="typst-shape" fill="none" stroke="#000000" stroke-width="1" stroke-linecap="butt" stroke-linejoin="miter" stroke-miterlimit="4" stroke-dashoffset="0" stroke-dasharray="" transform="matrix(1 0 0 1 281.3960749656693 25.396384251968502)" d="M 0 0m 0 284.7509 l 5.6692915 2.1259766 l -5.6692915 2.1259766 "/>
                        <path class="typst-shape" fill="none" transform="matrix(1 0 0 1 288.4893669291339 28.4239)" d="M 0 0m 0 278.69583 h 27.519474 v 10.307007 h -27.519474 v -10.307007 Z "/>
                        <g class="typst-group">
                            <g>
                                <g class="typst-group" transform="matrix(1 0 0 1 288.4893669133859 307.1197408818897)">
                                    <g>
                                        <g class="typst-text" transform="matrix(1 0 0 -1 8.503937007874017 7.513000000000001)">
                                            <use xlink:href="#g9F5646948F881B3500A32860330A7EC5" x="0" y="0" fill="#000000" fill-rule="nonzero"/>
                                        </g>
                                        <g class="typst-text" transform="matrix(1 0 0 -1 13.409937007874015 10.23)">
                                            <use xlink:href="#g345B578C3907DC69C04540D998A8EDFB" x="0" y="0" fill="#000000" fill-rule="nonzero"/>
                                        </g>
                                    </g>
                                </g>
                            </g>
                        </g>
                        <path class="typst-shape" fill="none" transform="matrix(1 0 0 1 0 -260.19416692913387)" d="M 0 0m 0 260.19415 h 10.0496 v 28.808685 h -10.0496 v -28.808685 Z "/>
                        <g class="typst-group">
                            <g>
                                <g class="typst-group" transform="matrix(1 0 0 1 -0.00000006299212672038408 -0.00000014173233323635656)">
                                    <g>
                                        <g class="typst-text" transform="matrix(1 0 0 -1 0 16.016937007874017)">
                                            <use xlink:href="#g9F5646948F881B3500A32860330A7EC5" x="0" y="0" fill="#000000" fill-rule="nonzero"/>
                                        </g>
                                        <g class="typst-text" transform="matrix(1 0 0 -1 4.905999999999999 18.733937007874015)">
                                            <use xlink:href="#g33BD9A3BBF1A8B2470623F7CC393EA14" x="0" y="0" fill="#000000" fill-rule="nonzero"/>
                                        </g>
                                    </g>
                                </g>
                            </g>
                        </g>
                        <path class="typst-shape" fill="none" stroke="#0074d9" stroke-width="2" stroke-linecap="butt" stroke-linejoin="miter" stroke-miterlimit="4" transform="matrix(1 0 0 1 16.363382677165355 11.931817322834645)" d="M 0 0m 158.74016 289.00284 c -94.48819 -11.338593 -147.40158 -64.25197 -158.74016 -158.74016 "/>
                        <path class="typst-shape" fill="none" stroke="#000000" stroke-width="1" stroke-linecap="butt" stroke-linejoin="miter" stroke-miterlimit="4" transform="matrix(1 0 0 1 5.0248 23.2704)" d="M 0 0m 119.055115 289.00284 l -119.055115 -119.055115 "/>
                        <path class="typst-shape" fill="none" stroke="#80211b" stroke-width="2" stroke-linecap="butt" stroke-linejoin="miter" stroke-miterlimit="4" transform="matrix(1 0 0 1 27.70196535433071 6.262525984251969)" d="M 0 0m 204.09448 289.00284 c -136.06299 -17.385834 -204.09448 -106.20473 -204.09448 -266.4567 "/>
                        <path class="typst-shape" fill="none" stroke="#000000" stroke-width="1" stroke-linecap="butt" stroke-linejoin="miter" stroke-miterlimit="4" transform="matrix(1 0 0 1 5.0248 23.2704)" d="M 0 0m 215.43307 289.00284 l -215.43307 -119.055115 "/>
                        <path class="typst-shape" fill="#ffffff" fill-rule="nonzero" stroke="#000000" stroke-width="1" stroke-linecap="butt" stroke-linejoin="miter" stroke-miterlimit="4" transform="matrix(1 0 0 1 133.8358236220473 -20.50125354330708)" d="M 0 0m 3 283.00284 c -1.655352 0 -3 1.3446655 -3 3 c 0 1.655365 1.344648 3 3 3 c 1.6553521 0 3 -1.344635 3 -3 c 0 -1.6553345 -1.3446479 -3 -3 -3 Z "/>
                        <path class="typst-shape" fill="#ffffff" fill-rule="nonzero" stroke="#000000" stroke-width="1" stroke-linecap="butt" stroke-linejoin="miter" stroke-miterlimit="4" transform="matrix(1 0 0 1 61.55235905511811 -33.25715905511811)" d="M 0 0m 3 283.00284 c -1.655352 0 -3 1.3446655 -3 3 c 0 1.655365 1.344648 3 3 3 c 1.6553521 0 3 -1.344635 3 -3 c 0 -1.6553345 -1.3446479 -3 -3 -3 Z "/>
                        <path class="typst-shape" fill="none" transform="matrix(1 0 0 1 209.69662086614176 46.5408)" d="M 0 0m 0 265.73245 h 21.5225 v 23.270386 h -21.5225 v -23.270386 Z "/>
                        <g class="typst-group">
                            <g>
                                <g class="typst-group" transform="matrix(1 0 0 1 209.6966207559055 312.27324094488176)">
                                    <g>
                                        <g class="typst-text" transform="matrix(1 0 0 -1 6.85735 8.179)">
                                            <use xlink:href="#gFD514A786E57C003569B6B5157904E68" x="0" y="0" fill="#000000" fill-rule="nonzero"/>
                                        </g>
                                        <g class="typst-text" transform="matrix(1 0 0 -1 6.1000000000000005 16.308)">
                                            <use xlink:href="#gD2FC6DCB5797DE89028BED23D1FC541F" x="0" y="0" fill="#000000" fill-rule="nonzero"/>
                                        </g>
                                        <g class="typst-text" transform="matrix(1 0 0 -1 10.635299999999999 18.209899999999998)">
                                            <use xlink:href="#gB9748C64177974C84AAA9710BA2EA5DF" x="0" y="0" fill="#000000" fill-rule="nonzero"/>
                                        </g>
                                        <path class="typst-shape" fill="none" stroke="#000000" stroke-width="0.528" stroke-linecap="butt" stroke-linejoin="miter" stroke-miterlimit="4" transform="matrix(1 0 0 1 6.1000000000000005 9.763)" d="M 0 0h 9.3225 "/>
                                    </g>
                                </g>
                            </g>
                        </g>
                        <path class="typst-shape" fill="none" transform="matrix(1 0 0 1 113.31866811023623 46.5408)" d="M 0 0m 0 265.73245 h 21.5225 v 23.270386 h -21.5225 v -23.270386 Z "/>
                        <g class="typst-group">
                            <g>
                                <g class="typst-group" transform="matrix(1 0 0 1 113.31866800000002 312.27324094488176)">
                                    <g>
                                        <g class="typst-text" transform="matrix(1 0 0 -1 6.85735 8.179)">
                                            <use xlink:href="#gFD514A786E57C003569B6B5157904E68" x="0" y="0" fill="#000000" fill-rule="nonzero"/>
                                        </g>
                                        <g class="typst-text" transform="matrix(1 0 0 -1 6.1000000000000005 16.308)">
                                            <use xlink:href="#gD2FC6DCB5797DE89028BED23D1FC541F" x="0" y="0" fill="#000000" fill-rule="nonzero"/>
                                        </g>
                                        <g class="typst-text" transform="matrix(1 0 0 -1 10.635299999999999 14.082699999999999)">
                                            <use xlink:href="#gC63ABD6AC024B2E04DB7365D1AE93C63" x="0" y="0" fill="#000000" fill-rule="nonzero"/>
                                        </g>
                                        <g class="typst-text" transform="matrix(1 0 0 -1 10.635299999999999 18.209899999999998)">
                                            <use xlink:href="#gB9748C64177974C84AAA9710BA2EA5DF" x="0" y="0" fill="#000000" fill-rule="nonzero"/>
                                        </g>
                                        <path class="typst-shape" fill="none" stroke="#000000" stroke-width="0.528" stroke-linecap="butt" stroke-linejoin="miter" stroke-miterlimit="4" transform="matrix(1 0 0 1 6.1000000000000005 9.763)" d="M 0 0h 9.3225 "/>
                                    </g>
                                </g>
                            </g>
                        </g>
                        <path class="typst-shape" fill="none" stroke="#000000" stroke-width="1" stroke-linecap="butt" stroke-linejoin="miter" stroke-miterlimit="4" transform="matrix(1 0 0 1 69.7244112892249 -23.501253543307083)" d="M 0 0m 67.11141 289.00284 l -67.11141 -11.843201 "/>
                        <path class="typst-shape" fill="none" stroke="#000000" stroke-width="1" stroke-linecap="butt" stroke-linejoin="round" stroke-miterlimit="4" stroke-dashoffset="0" stroke-dasharray="" transform="matrix(1 0 0 1 65.0447508352756 -33.091392362173224)" d="M 0 0m 0 285.92398 c 1.1790947 0.5678711 2.916948 1.5941467 5.21356 3.0788574 c -0.6841941 -1.559967 -0.43788433 -2.955719 0.73892975 -4.187256 c -2.666077 0.60891724 -4.65024 0.97839355 -5.95249 1.1083984 Z "/>
                        <path class="typst-shape" fill="none" transform="matrix(1 0 0 1 127.71082362204726 -23.501253543307083)" d="M 0 0m 0 271.48984 h 18.25 v 17.513 h -18.25 v -17.513 Z "/>
                        <g class="typst-group">
                            <g>
                                <g class="typst-group" transform="matrix(1 0 0 1 127.71082354330713 247.98858729133855)">
                                    <g>
                                        <g class="typst-text" transform="matrix(1 0 0 -1 5 12.513)">
                                            <use xlink:href="#gE25FC3A5A531876D9F33247BAEC0C894" x="0" y="0" fill="#000000" fill-rule="nonzero"/>
                                        </g>
                                    </g>
                                </g>
                            </g>
                        </g>
                        <path class="typst-shape" fill="none" transform="matrix(1 0 0 1 55.24035905511811 -36.257159055118116)" d="M 0 0m 0 271.48984 h 18.624 v 17.513 h -18.624 v -17.513 Z "/>
                        <g class="typst-group">
                            <g>
                                <g class="typst-group" transform="matrix(1 0 0 1 55.240358960629926 235.23268177952752)">
                                    <g>
                                        <g class="typst-text" transform="matrix(1 0 0 -1 5 12.513)">
                                            <use xlink:href="#gDFD8012F4D10D1A9BDA7545D9A8E0302" x="0" y="0" fill="#000000" fill-rule="nonzero"/>
                                        </g>
                                    </g>
                                </g>
                            </g>
                        </g>
                    </g>
                </g>
                <g class="typst-group" transform="matrix(1 0 0 1 317.4261637795276 1.4173228346456692)">
                    <g>
                        <path class="typst-shape" fill="none" stroke="#000000" stroke-width="1" stroke-linecap="butt" stroke-linejoin="miter" stroke-miterlimit="4" transform="matrix(1 0 0 1 5.0248 23.2704)" d="M 0 0m 0 289.00284 v -282.04053 "/>
                        <path class="typst-shape" fill="none" stroke="#000000" stroke-width="1" stroke-linecap="butt" stroke-linejoin="miter" stroke-miterlimit="4" stroke-dashoffset="0" stroke-dasharray="" transform="matrix(1 0 0 1 2.8988157480314958 -253.10087496566928)" d="M 0 0m 0 289.00284 l 2.1259842 -5.669281 l 2.1259842 5.669281 "/>
                        <path class="typst-shape" fill="none" stroke="#000000" stroke-width="1" stroke-linecap="butt" stroke-linejoin="miter" stroke-miterlimit="4" transform="matrix(1 0 0 1 5.0248 23.2704)" d="M 0 0m 0 289.00284 h 282.04053 "/>
                        <path class="typst-shape" fill="none" stroke="#000000" stroke-width="1" stroke-linecap="butt" stroke-linejoin="miter" stroke-miterlimit="4" stroke-dashoffset="0" stroke-dasharray="" transform="matrix(1 0 0 1 281.3960749656693 25.396384251968502)" d="M 0 0m 0 284.7509 l 5.6692915 2.1259766 l -5.6692915 2.1259766 "/>
                        <path class="typst-shape" fill="none" transform="matrix(1 0 0 1 288.4893669291339 28.4239)" d="M 0 0m 0 278.69583 h 27.519474 v 10.307007 h -27.519474 v -10.307007 Z "/>
                        <g class="typst-group">
                            <g>
                                <g class="typst-group" transform="matrix(1 0 0 1 288.4893669133859 307.1197408818897)">
                                    <g>
                                        <g class="typst-text" transform="matrix(1 0 0 -1 8.503937007874017 7.513000000000001)">
                                            <use xlink:href="#g9F5646948F881B3500A32860330A7EC5" x="0" y="0" fill="#000000" fill-rule="nonzero"/>
                                        </g>
                                        <g class="typst-text" transform="matrix(1 0 0 -1 13.409937007874015 10.23)">
                                            <use xlink:href="#g345B578C3907DC69C04540D998A8EDFB" x="0" y="0" fill="#000000" fill-rule="nonzero"/>
                                        </g>
                                    </g>
                                </g>
                            </g>
                        </g>
                        <path class="typst-shape" fill="none" transform="matrix(1 0 0 1 0 -260.19416692913387)" d="M 0 0m 0 260.19415 h 10.0496 v 28.808685 h -10.0496 v -28.808685 Z "/>
                        <g class="typst-group">
                            <g>
                                <g class="typst-group" transform="matrix(1 0 0 1 -0.00000006299212672038408 -0.00000014173233323635656)">
                                    <g>
                                        <g class="typst-text" transform="matrix(1 0 0 -1 0 16.016937007874017)">
                                            <use xlink:href="#g9F5646948F881B3500A32860330A7EC5" x="0" y="0" fill="#000000" fill-rule="nonzero"/>
                                        </g>
                                        <g class="typst-text" transform="matrix(1 0 0 -1 4.905999999999999 18.733937007874015)">
                                            <use xlink:href="#g33BD9A3BBF1A8B2470623F7CC393EA14" x="0" y="0" fill="#000000" fill-rule="nonzero"/>
                                        </g>
                                    </g>
                                </g>
                            </g>
                        </g>
                        <path class="typst-shape" fill="none" stroke="#0074d9" stroke-width="2" stroke-linecap="butt" stroke-linejoin="miter" stroke-miterlimit="4" transform="matrix(1 0 0 1 16.363382677165355 11.931817322834645)" d="M 0 0m 158.74016 289.00284 c -94.48819 -11.338593 -147.40158 -64.25197 -158.74016 -158.74016 "/>
                        <path class="typst-shape" fill="none" stroke="#000000" stroke-width="1" stroke-linecap="butt" stroke-linejoin="miter" stroke-miterlimit="4" transform="matrix(1 0 0 1 5.0248 23.2704)" d="M 0 0m 119.055115 289.00284 l -119.055115 -119.055115 "/>
                        <path class="typst-shape" fill="none" stroke="#80211b" stroke-width="2" stroke-linecap="butt" stroke-linejoin="miter" stroke-miterlimit="4" transform="matrix(1 0 0 1 18.883067716535436 -26.886443111374074)" d="M 0 0m 212.91339 288.13605 c -147.40158 8.692932 -218.26772 -47.999985 -212.59843 -170.07874 "/>
                        <path class="typst-shape" fill="none" stroke="#000000" stroke-width="1" stroke-linecap="butt" stroke-linejoin="miter" stroke-miterlimit="4" transform="matrix(1 0 0 1 5.0248 23.2704)" d="M 0 0m 215.43307 289.00284 l -215.43307 -119.055115 "/>
                        <path class="typst-shape" fill="#ffffff" fill-rule="nonzero" stroke="#000000" stroke-width="1" stroke-linecap="butt" stroke-linejoin="miter" stroke-miterlimit="4" transform="matrix(1 0 0 1 81.39487874015747 -50.83196220472442)" d="M 0 0m 3 283.00284 c -1.655352 0 -3 1.3446655 -3 3 c 0 1.655365 1.344648 3 3 3 c 1.6553521 0 3 -1.344635 3 -3 c 0 -1.6553345 -1.3446479 -3 -3 -3 Z "/>
                        <path class="typst-shape" fill="#ffffff" fill-rule="nonzero" stroke="#000000" stroke-width="1" stroke-linecap="butt" stroke-linejoin="miter" stroke-miterlimit="4" transform="matrix(1 0 0 1 61.55235905511811 -33.25715905511811)" d="M 0 0m 3 283.00284 c -1.655352 0 -3 1.3446655 -3 3 c 0 1.655365 1.344648 3 3 3 c 1.6553521 0 3 -1.344635 3 -3 c 0 -1.6553345 -1.3446479 -3 -3 -3 Z "/>
                        <path class="typst-shape" fill="none" transform="matrix(1 0 0 1 209.69662086614176 46.5408)" d="M 0 0m 0 265.73245 h 21.5225 v 23.270386 h -21.5225 v -23.270386 Z "/>
                        <g class="typst-group">
                            <g>
                                <g class="typst-group" transform="matrix(1 0 0 1 209.6966207559055 312.27324094488176)">
                                    <g>
                                        <g class="typst-text" transform="matrix(1 0 0 -1 6.85735 8.179)">
                                            <use xlink:href="#gFD514A786E57C003569B6B5157904E68" x="0" y="0" fill="#000000" fill-rule="nonzero"/>
                                        </g>
                                        <g class="typst-text" transform="matrix(1 0 0 -1 6.1000000000000005 16.308)">
                                            <use xlink:href="#gD2FC6DCB5797DE89028BED23D1FC541F" x="0" y="0" fill="#000000" fill-rule="nonzero"/>
                                        </g>
                                        <g class="typst-text" transform="matrix(1 0 0 -1 10.635299999999999 18.209899999999998)">
                                            <use xlink:href="#gB9748C64177974C84AAA9710BA2EA5DF" x="0" y="0" fill="#000000" fill-rule="nonzero"/>
                                        </g>
                                        <path class="typst-shape" fill="none" stroke="#000000" stroke-width="0.528" stroke-linecap="butt" stroke-linejoin="miter" stroke-miterlimit="4" transform="matrix(1 0 0 1 6.1000000000000005 9.763)" d="M 0 0h 9.3225 "/>
                                    </g>
                                </g>
                            </g>
                        </g>
                        <path class="typst-shape" fill="none" transform="matrix(1 0 0 1 113.31866811023623 46.5408)" d="M 0 0m 0 265.73245 h 21.5225 v 23.270386 h -21.5225 v -23.270386 Z "/>
                        <g class="typst-group">
                            <g>
                                <g class="typst-group" transform="matrix(1 0 0 1 113.31866800000002 312.27324094488176)">
                                    <g>
                                        <g class="typst-text" transform="matrix(1 0 0 -1 6.85735 8.179)">
                                            <use xlink:href="#gFD514A786E57C003569B6B5157904E68" x="0" y="0" fill="#000000" fill-rule="nonzero"/>
                                        </g>
                                        <g class="typst-text" transform="matrix(1 0 0 -1 6.1000000000000005 16.308)">
                                            <use xlink:href="#gD2FC6DCB5797DE89028BED23D1FC541F" x="0" y="0" fill="#000000" fill-rule="nonzero"/>
                                        </g>
                                        <g class="typst-text" transform="matrix(1 0 0 -1 10.635299999999999 14.082699999999999)">
                                            <use xlink:href="#gC63ABD6AC024B2E04DB7365D1AE93C63" x="0" y="0" fill="#000000" fill-rule="nonzero"/>
                                        </g>
                                        <g class="typst-text" transform="matrix(1 0 0 -1 10.635299999999999 18.209899999999998)">
                                            <use xlink:href="#gB9748C64177974C84AAA9710BA2EA5DF" x="0" y="0" fill="#000000" fill-rule="nonzero"/>
                                        </g>
                                        <path class="typst-shape" fill="none" stroke="#000000" stroke-width="0.528" stroke-linecap="butt" stroke-linejoin="miter" stroke-miterlimit="4" transform="matrix(1 0 0 1 6.1000000000000005 9.763)" d="M 0 0h 9.3225 "/>
                                    </g>
                                </g>
                            </g>
                        </g>
                        <path class="typst-shape" fill="none" stroke="#000000" stroke-width="1" stroke-linecap="butt" stroke-linejoin="miter" stroke-miterlimit="4" transform="matrix(1 0 0 1 68.48392059980709 -39.73939928041406)" d="M 0 0m 15.910958 274.91028 l -15.910958 14.09256 "/>
                        <path class="typst-shape" fill="none" stroke="#000000" stroke-width="1" stroke-linecap="butt" stroke-linejoin="round" stroke-miterlimit="4" stroke-dashoffset="0" stroke-dasharray="" transform="matrix(1 0 0 1 64.92665314425197 -36.58867667716537)" d="M 0 0m 0 289.00284 c 1.1780369 -0.57006836 3.0625594 -1.2925415 5.653567 -2.16745 c -1.6470623 -0.43450928 -2.5867972 -1.4954834 -2.8192048 -3.1829834 c -1.1814052 2.4664001 -2.1261926 4.249878 -2.834362 5.3504333 Z "/>
                        <path class="typst-shape" fill="none" transform="matrix(1 0 0 1 75.26987874015747 -53.83196220472442)" d="M 0 0m 0 271.48984 h 18.25 v 17.513 h -18.25 v -17.513 Z "/>
                        <g class="typst-group">
                            <g>
                                <g class="typst-group" transform="matrix(1 0 0 1 75.26987866141731 217.65787862992119)">
                                    <g>
                                        <g class="typst-text" transform="matrix(1 0 0 -1 5 12.513)">
                                            <use xlink:href="#gE25FC3A5A531876D9F33247BAEC0C894" x="0" y="0" fill="#000000" fill-rule="nonzero"/>
                                        </g>
                                    </g>
                                </g>
                            </g>
                        </g>
                        <path class="typst-shape" fill="none" transform="matrix(1 0 0 1 55.24035905511811 -36.257159055118116)" d="M 0 0m 0 271.48984 h 18.624 v 17.513 h -18.624 v -17.513 Z "/>
                        <g class="typst-group">
                            <g>
                                <g class="typst-group" transform="matrix(1 0 0 1 55.240358960629926 235.23268177952752)">
                                    <g>
                                        <g class="typst-text" transform="matrix(1 0 0 -1 5 12.513)">
                                            <use xlink:href="#gDFD8012F4D10D1A9BDA7545D9A8E0302" x="0" y="0" fill="#000000" fill-rule="nonzero"/>
                                        </g>
                                    </g>
                                </g>
                            </g>
                        </g>
                    </g>
                </g>
            </g>
        </g>
    </g>
    <defs id="glyph">
        <symbol id="g9F5646948F881B3500A32860330A7EC5" overflow="visible">
            <path d="M 0 0m 4.092 4.147 c -0.22000003 0.47300005 -0.5610001 0.71500015 -1.0120001 0.71500015 c -0.7149999 0 -1.3419999 -0.36299992 -1.8809999 -1.0999999 c -0.506 -0.68200016 -0.759 -1.3860002 -0.759 -2.1230001 c 0 -0.95699996 0.55 -1.782 1.463 -1.782 c 0.39600003 0 0.79199994 0.187 1.199 0.561 l -0.45099998 -1.804 c -0.032999992 -0.16499996 -0.13199997 -0.26399994 -0.286 -0.29699993 c -0.055000067 -0.011000037 -0.19799995 -0.022000074 -0.45099998 -0.022000074 c -0.065999985 -0.010999918 -0.110000014 -0.010999918 -0.13200009 -0.010999918 c -0.09899998 -0.011000037 -0.15399992 -0.09899998 -0.15399992 -0.25300002 v -0.04400003 c 0.032999992 -0.0769999 0.09899998 -0.12100005 0.18699992 -0.12100005 c 0.20899999 0 0.8690001 0.032999992 1.078 0.032999992 c 0.20900011 0 0.9020002 -0.032999992 1.1110003 -0.032999992 c 0.1539998 0 0.23099995 0.08800006 0.23099995 0.26400006 c 0 0.110000014 -0.11000013 0.16499996 -0.31900024 0.16499996 c -0.19799995 0 -0.4729998 -0.010999918 -0.4729998 0.12100005 c 0 0.04400003 0.010999918 0.12100005 0.04399991 0.23099995 l 1.4850001 6.05 c 0 0.09899998 -0.055000305 0.1539998 -0.15400028 0.1539998 c -0.19799995 0 -0.6159997 -0.5499997 -0.72599983 -0.704 Z m -0.352 -0.043999672 c 0.09899998 -0.23100019 0.15400004 -0.38500023 0.15400004 -0.4840002 c 0 -0.010999918 -0.011000156 -0.0769999 -0.032999992 -0.17599988 l -0.26400018 -1.0670002 c -0.20899987 -0.79199994 -0.30799985 -1.1989999 -0.319 -1.221 c -0.20899987 -0.385 -0.8139999 -0.979 -1.3419999 -0.979 c -0.42900002 0 -0.64900005 0.32999998 -0.64900005 0.979 c 0 0.50600004 0.34100008 1.7379999 0.495 2.145 c 0.20899999 0.51699996 0.69299996 1.2320001 1.298 1.2320001 c 0.29700017 0 0.51699996 -0.14300013 0.6600001 -0.4289999 Z "/>
        </symbol>
        <symbol id="g345B578C3907DC69C04540D998A8EDFB" overflow="visible">
            <path d="M 0 0m 4.4891 2.8105 c 0 0.39269996 -0.40040016 0.5852001 -0.8162 0.5852001 c -0.34649992 0 -0.63139987 -0.16939998 -0.8469999 -0.50819993 c -0.18480015 0.33879995 -0.4928 0.50819993 -0.91630006 0.50819993 c -0.28490007 0 -0.5852001 -0.12319994 -0.8855001 -0.37730002 c -0.31569993 -0.26180005 -0.47739995 -0.53130007 -0.47739995 -0.80850005 c 0 -0.08469987 0.053900003 -0.1308999 0.15399998 -0.1308999 c 0.08469999 0 0.13859999 0.046200037 0.1771 0.14630008 c 0.13859999 0.41579986 0.5159 0.9008999 1.0087 0.9008999 c 0.28490007 0 0.42349994 -0.15400004 0.42349994 -0.46969986 c 0 -0.10010004 -0.053900003 -0.3619001 -0.15400004 -0.78540015 l -0.26179993 -1.0318 c -0.06929994 -0.29259998 -0.3542 -0.6468 -0.6853 -0.6468 c -0.13090003 0 -0.2464 0.023100004 -0.33879995 0.07699999 c 0.15399992 0.069300026 0.29259992 0.2387 0.29259992 0.4158 c 0 0.18480003 -0.14629996 0.31570005 -0.33109993 0.31570005 c -0.2618 0 -0.462 -0.23100007 -0.462 -0.49280006 c 0 -0.385 0.4081 -0.5852 0.82390004 -0.5852 c 0.3542 0 0.63909996 0.1694 0.8469999 0.5082 c 0.18480015 -0.3388 0.48510003 -0.5082 0.9086001 -0.5082 c 0.42350006 0 0.7623 0.1694 1.0241001 0.5082 c 0.22329974 0.30029997 0.33879972 0.53129995 0.33879972 0.6775999 c 0 0.08470011 -0.0461998 0.13090003 -0.14629984 0.13090003 c -0.08470011 0 -0.14629984 -0.053900003 -0.17709994 -0.15399992 c -0.13090014 -0.4081 -0.5236001 -0.89320004 -1.0087001 -0.89320004 c -0.28489995 0 -0.4311998 0.15400001 -0.4311998 0.462 c 0 0.11549997 0.1308999 0.69299996 0.39269996 1.7170999 c 0.1308999 0.50049996 0.36189985 0.75460005 0.7084 0.75460005 l 0.06929994 -0.0076999664 c 0.092400074 0 0.18479991 -0.0230999 0.26950002 -0.06159997 c -0.19250011 -0.08470011 -0.28489995 -0.22329998 -0.28489995 -0.42350006 c 0 -0.18479991 0.14629984 -0.31570005 0.3311 -0.31570005 c 0.2617998 0 0.45429993 0.23100019 0.45429993 0.4928 Z "/>
        </symbol>
        <symbol id="g33BD9A3BBF1A8B2470623F7CC393EA14" overflow="visible">
            <path d="M 0 0m 4.0348 3.3187 c -0.15400004 0 -0.26950002 -0.069300175 -0.33879995 -0.20020008 c -0.015400171 -0.0230999 -0.053900003 -0.16939998 -0.12320018 -0.44659996 l -0.4619999 -1.848 c -0.053900003 -0.08469999 -0.10010004 -0.16170001 -0.15400004 -0.22329998 c -0.24639988 -0.2849 -0.50049996 -0.4235 -0.75460005 -0.4235 c -0.3233999 0 -0.4850999 0.20019999 -0.4850999 0.6006 c 0 0.2849 0.13090003 0.7777 0.40040004 1.463 c 0.08469987 0.23099995 0.1308999 0.39269996 0.1308999 0.47740006 c 0 0.40039992 -0.34650004 0.6775999 -0.74689996 0.6775999 c -0.36960006 0 -0.66220003 -0.18479991 -0.8778 -0.55439997 c -0.17710003 -0.30030012 -0.26180002 -0.51590014 -0.26180002 -0.6391001 c 0 -0.08469987 0.053900003 -0.1308999 0.16169998 -0.1308999 c 0.08469999 0 0.13859999 0.046200037 0.16170001 0.14629984 c 0.1771 0.6006 0.44659996 0.9009001 0.7931 0.9009001 c 0.10010004 0 0.15400004 -0.0769999 0.15400004 -0.23099995 c 0 -0.11549997 -0.030800104 -0.25410008 -0.10010004 -0.43120003 c -0.16170001 -0.40810013 -0.25409997 -0.6622 -0.29260004 -0.7623 c -0.10009992 -0.3003 -0.14629996 -0.5698 -0.14629996 -0.7931 c 0 -0.6545 0.42349994 -0.9933 1.0780001 -0.9933 c 0.28489995 0 0.53900003 0.0924 0.77769995 0.2849 c -0.11549997 -0.4389 -0.26950002 -0.7777 -0.4697001 -1.0164 c -0.27719998 -0.31570005 -0.5697999 -0.46969998 -0.88549995 -0.46969998 c -0.23869991 0 -0.41579998 0.06159997 -0.5236 0.1925 c 0.21560001 0.053900003 0.39269996 0.20019996 0.39269996 0.44659996 c 0 0.20790002 -0.10779989 0.3157 -0.3311 0.3157 c -0.27719998 0 -0.46969998 -0.25409997 -0.46969998 -0.5313 c 0 -0.45429993 0.44659996 -0.7006999 0.9317 -0.7006999 c 0.45429993 0 0.86240005 0.15399992 1.2397001 0.45429993 c 0.37730002 0.3003 0.61599994 0.6776 0.72379994 1.1165 l 0.72379994 2.8720999 c 0.0230999 0.08470011 0.030799866 0.13860011 0.030799866 0.17710018 c 0 0.1539998 -0.12319994 0.26950002 -0.27719975 0.26950002 Z "/>
        </symbol>
        <symbol id="gFD514A786E57C003569B6B5157904E68" overflow="visible">
            <path d="M 0 0m 1.2705 3.3957 c -0.25409997 0 -0.46969998 -0.13860011 -0.6313999 -0.42350006 c -0.10780001 -0.19249988 -0.19250003 -0.39269996 -0.24640003 -0.61599994 c -0.023099989 -0.08470011 -0.030799985 -0.1308999 -0.030799985 -0.14630008 c 0 -0.08469987 0.053900003 -0.1308999 0.16169998 -0.1308999 c 0.14630002 0 0.15400004 0.08470011 0.1925 0.24639988 c 0.13090003 0.53130007 0.30799997 0.8008001 0.53130007 0.8008001 c 0.14629996 0 0.22329998 -0.11549997 0.22329998 -0.34649992 c 0 -0.08470011 -0.03850007 -0.28489995 -0.12320006 -0.61599994 l -0.41579998 -1.6478001 c -0.053900003 -0.20790002 -0.07700002 -0.31570002 -0.07700002 -0.32340002 c 0 -0.1771 0.10010004 -0.2695 0.29260004 -0.2695 c 0.14629996 0 0.25409997 0.0616 0.32340002 0.1848 c 0.023100019 0.0462 0.06929994 0.20789999 0.13859999 0.4774 l 0.16939998 0.67759997 c 0.092399955 0.36189997 0.14629996 0.56210005 0.16170001 0.6083 c 0.06160009 0.20020008 0.15399992 0.39269996 0.28490007 0.56980014 c 0.32340002 0.45429993 0.7006998 0.6852999 1.1241999 0.6852999 c 0.27719998 0 0.4158001 -0.16939998 0.4158001 -0.50049996 c 0 -0.1308999 -0.046200037 -0.3619001 -0.13090014 -0.7084 l -0.31569982 -1.2705 c -0.069300175 -0.28489998 -0.10780001 -0.43119997 -0.10780001 -0.4543 c 0 -0.1771 0.092399836 -0.2695 0.28489995 -0.2695 c 0.14630008 0 0.26180005 0.0616 0.3311 0.1848 c 0.0230999 0.0462 0.06929994 0.20789999 0.13859987 0.4774 l 0.16940022 0.67759997 c 0.12319994 0.47740006 0.14629984 0.7623 0.36189985 1.0703001 c 0.34649992 0.5312998 0.7392001 0.7930999 1.1935 0.7930999 c 0.27719975 0 0.4158001 -0.16939998 0.4158001 -0.50049996 c 0 -0.30030012 -0.14630032 -0.83159995 -0.44659996 -1.6016 c -0.07700014 -0.20019996 -0.11549997 -0.33879995 -0.11549997 -0.42349994 c 0 -0.4158 0.33879995 -0.6776 0.75460005 -0.6776 c 0.36959982 0 0.6622 0.1848 0.87009954 0.5544 c 0.17710018 0.3157 0.2618003 0.52360004 0.2618003 0.6313999 c 0 0.08470011 -0.05390024 0.13090003 -0.15400028 0.13090003 c -0.053899765 -0.0076999664 -0.1308999 -0.06929994 -0.1770997 -0.15399992 c -0.17710018 -0.59290004 -0.43120003 -0.89320004 -0.77769995 -0.89320004 c -0.10780001 0 -0.16170025 0.07699999 -0.16170025 0.2387 c 0 0.10779998 0.06160021 0.308 0.17710018 0.6006 c 0.26949978 0.6853 0.40810013 1.1780999 0.40810013 1.4707 c 0 0.59290004 -0.33880043 0.8931999 -1.0241003 0.8931999 c -0.5004997 0 -0.9393997 -0.23869991 -1.3320999 -0.7161 c -0.07700014 0.47740006 -0.41579986 0.7161 -1.0086999 0.7161 c -0.50049996 0 -0.924 -0.21560001 -1.2705 -0.64680004 c -0.069300175 0.37730002 -0.40040016 0.64680004 -0.83930016 0.64680004 Z "/>
        </symbol>
        <symbol id="gD2FC6DCB5797DE89028BED23D1FC541F" overflow="visible">
            <path d="M 0 0m 3.1185 3.3957 c -0.37730002 0 -0.7314999 -0.16939998 -1.0625999 -0.50819993 c -0.11550009 0.33879995 -0.3850001 0.50819993 -0.7931001 0.50819993 c -0.36189997 0 -0.6314 -0.28489995 -0.8162 -0.86240005 c -0.0616 -0.18479991 -0.092399985 -0.29259992 -0.092399985 -0.3311 c 0 -0.08469987 0.053900003 -0.1308999 0.16170001 -0.1308999 c 0.15399998 0 0.16170001 0.08469987 0.20019996 0.25409985 c 0.13090003 0.53130007 0.3003 0.7931001 0.5236 0.7931001 c 0.14630008 0 0.21560001 -0.11549997 0.21560001 -0.33879995 c 0 -0.08470011 -0.0076999664 -0.16170001 -0.023100019 -0.22329998 l -0.86239994 -3.4650002 c -0.053900003 -0.21560001 -0.069299996 -0.25409997 -0.3388 -0.25409997 c -0.16170001 0 -0.2387 -0.046200037 -0.2387 -0.18480003 c 0 -0.10010004 0.0462 -0.14630008 0.13859999 -0.14630008 c 0.1232 0 0.5236 0.030800104 0.6545 0.030800104 c 0.14630002 0 0.6468 -0.030800104 0.79310006 -0.030800104 c 0.12319994 0 0.18479991 0.069300056 0.18479991 0.20020008 c 0 0.08469999 -0.0769999 0.13090003 -0.23099995 0.13090003 c -0.22329998 0 -0.33879995 0.0230999 -0.33879995 0.06159997 c 0 0.0076999664 0.0076999664 0.046199918 0.0230999 0.10009992 l 0.32340002 1.309 c 0.17710006 -0.2695 0.4389 -0.40039998 0.77 -0.40039998 c 0.5236001 0 0.9856 0.2387 1.3937001 0.7084 c 0.39269972 0.4543 0.58519983 0.9471 0.58519983 1.4784 c 0 0.7161 -0.44659996 1.3013 -1.1703999 1.3013 Z m -0.0230999 -0.27719998 c 0.34649992 0 0.52359986 -0.23099995 0.52359986 -0.70070004 c 0 -0.4389 -0.23099995 -1.2166 -0.385 -1.5169 c -0.15400004 -0.3157 -0.5158999 -0.7238 -0.924 -0.7238 c -0.15400004 0 -0.28489995 0.046199992 -0.39269996 0.14629999 c -0.16939998 0.16170001 -0.25409997 0.3234 -0.25409997 0.4851 c 0 0.0153999925 0.0076999664 0.053900003 0.023100019 0.10780001 l 0.37730002 1.5246 c 0.33879995 0.45429993 0.6852999 0.6775999 1.0318 0.6775999 Z "/>
        </symbol>
        <symbol id="gB9748C64177974C84AAA9710BA2EA5DF" overflow="visible">
            <path d="M 0 0m 3.751 1.9635 c 0 0.31349993 -0.32999992 0.46749997 -0.6654999 0.46749997 c -0.26950002 0 -0.50049996 -0.11549997 -0.6875 -0.352 c -0.14849997 0.23650002 -0.39050007 0.352 -0.7260001 0.352 c -0.32449996 0 -0.5884999 -0.11549997 -0.8029999 -0.352 c -0.18700004 -0.20350003 -0.2805 -0.37399995 -0.2805 -0.50600004 c 0 -0.065999985 0.04399997 -0.09899998 0.13199997 -0.09899998 c 0.0715 0 0.12099999 0.027500033 0.13749999 0.08249998 c 0.104499996 0.32450008 0.39599997 0.6489999 0.792 0.6489999 c 0.24199998 0 0.36300004 -0.11549997 0.36300004 -0.34099984 c 0 -0.09350002 -0.09350002 -0.5005001 -0.28050005 -1.2210001 c -0.060500026 -0.23649997 -0.26950002 -0.47849998 -0.5445 -0.47849998 c -0.104499936 0 -0.19799995 0.022000015 -0.27499998 0.06050001 c 0.143 0.066 0.21449995 0.1705 0.21449995 0.319 c 0 0.16500002 -0.08799994 0.2475 -0.25849992 0.2475 c -0.20350003 0 -0.35750002 -0.18150002 -0.35750002 -0.385 c 0 -0.319 0.319 -0.4675 0.66550004 -0.4675 c 0.28049994 0 0.5059999 0.1155 0.67649996 0.352 c 0.16500008 -0.2365 0.40699995 -0.352 0.7315 -0.352 c 0.22549987 0 0.4619999 0.088 0.6984999 0.2585 c 0.2585001 0.1815 0.39050007 0.385 0.39050007 0.5995 c 0 0.065999985 -0.04400015 0.09899998 -0.13199997 0.09899998 c -0.07150006 0 -0.12100005 -0.032999992 -0.14300013 -0.09899998 c -0.104500055 -0.31350002 -0.40699983 -0.63250005 -0.79200006 -0.63250005 c -0.24199986 0 -0.36299992 0.1155 -0.36299992 0.341 c 0 0.0715 0.016499996 0.16500002 0.04400015 0.2805 c 0.15949988 0.65999997 0.25299978 1.0175 0.28049994 1.0725 c 0.109999895 0.23099995 0.28049994 0.34649992 0.50600004 0.34649992 c 0.109999895 0 0.2034998 -0.021999836 0.27499986 -0.060499907 c -0.08249998 -0.032999992 -0.13750005 -0.0769999 -0.16499996 -0.13750005 c -0.03850007 -0.071499944 -0.055000067 -0.13749993 -0.055000067 -0.18699992 c 0 -0.14850008 0.12100005 -0.24199998 0.26400018 -0.24199998 c 0.2034998 0 0.35749984 0.18149996 0.35749984 0.385 Z "/>
        </symbol>
        <symbol id="gC63ABD6AC024B2E04DB7365D1AE93C63" overflow="visible">
            <path d="M 0 0m 1.8755 3.487 c -0.1595 0 -0.26950002 -0.07150006 -0.32999992 -0.20900011 l -1.1055 -2.761 h 0.29149997 l 1.4520001 2.409 c 0.038499832 0.06600022 0.05499983 0.13200021 0.05499983 0.19250011 c 0 0.19799995 -0.16499996 0.3685 -0.36299992 0.3685 Z "/>
        </symbol>
        <symbol id="gE25FC3A5A531876D9F33247BAEC0C894" overflow="visible">
            <path d="M 0 0m 1.507 0.033 c 0.19800007 0 0.8800001 -0.033 1.089 -0.033 c 0.16499996 0 0.2420001 0.088 0.2420001 0.253 c 0 0.09900001 -0.065999985 0.16499999 -0.20900011 0.176 c -0.319 0.011000007 -0.47300005 0.12100002 -0.47300005 0.33 c 0 0.09899998 0.09899998 0.31899995 0.3080001 0.649 c 0.29699993 0.495 0.50600004 0.85800004 0.6489999 1.0999999 h 2.6729999 c 0 -0.0769999 0.011000156 -0.23099995 0.04400015 -0.4729998 c 0.07700014 -0.8030001 0.12099981 -1.243 0.12099981 -1.2980001 c 0 -0.20899999 -0.24199963 -0.308 -0.737 -0.308 c -0.20899963 0 -0.3079996 -0.088 -0.3079996 -0.264 c 0 -0.10999999 0.065999985 -0.16499999 0.19799995 -0.16499999 c 0.26399994 0 1.0999999 0.033 1.3639998 0.033 c 0.21999979 0 1.0009999 -0.033 1.2210002 -0.033 c 0.16499996 0 0.24199963 0.088 0.24199963 0.264 c 0 0.110000014 -0.09899998 0.16499999 -0.29699993 0.16499999 c -0.3080001 0 -0.4949999 0.022000015 -0.5499997 0.055000007 c -0.055000305 0.033000022 -0.09899998 0.132 -0.11000013 0.29700002 l -0.65999985 6.798 c -0.032999992 0.20900011 -0.022000313 0.29699993 -0.25300026 0.29699993 c -0.13199997 0 -0.2420001 -0.065999985 -0.31899977 -0.20900011 l -3.7840002 -6.347 c -0.32999992 -0.54999995 -0.77 -0.84699994 -1.309 -0.8909999 c -0.176 -0.011000007 -0.264 -0.09900001 -0.264 -0.264 c 0 -0.10999999 0.066000015 -0.16499999 0.18700004 -0.16499999 c 0.176 0 0.75899994 0.033 0.93499994 0.033 Z m 3.9050002 6.314 l 0.32999992 -3.41 h -2.365 Z "/>
        </symbol>
        <symbol id="gDFD8012F4D10D1A9BDA7545D9A8E0302" overflow="visible">
            <path d="M 0 0m 8.316 5.973 c 0 1.0009999 -0.99000025 1.54 -2.0679998 1.54 h -3.6520002 c -0.25300002 0 -0.36299992 -0.011000156 -0.36299992 -0.26399994 c 0 -0.17600012 0.22000003 -0.16499996 0.352 -0.16499996 c 0.32999992 -0.011000156 0.5279999 -0.032999992 0.58299994 -0.04400015 c 0.055000067 -0.011000156 0.0769999 -0.04400015 0.0769999 -0.09899998 c 0 -0.021999836 -0.010999918 -0.08799982 -0.04399991 -0.19799995 l -1.452 -5.841 c -0.054999948 -0.24200004 -0.16499996 -0.385 -0.32999992 -0.44 c -0.07700002 -0.022000015 -0.27499998 -0.033000022 -0.61600006 -0.033000022 c -0.23099995 0 -0.34099996 -0.088 -0.34099996 -0.264 c 0 -0.10999999 0.110000014 -0.16499999 0.34099996 -0.16499999 h 3.883 c 0.71500015 0 1.375 0.22 2.0019999 0.649 c 0.6930003 0.473 1.0450001 1.056 1.0450001 1.7380002 c 0 0.86899996 -0.7149997 1.3969998 -1.4959998 1.5509999 c 0.96799994 0.23100019 2.079 0.9680002 2.079 2.035 Z m -2.2220001 1.1110001 c 0.7590003 0 1.144 -0.35200024 1.144 -1.0669999 c 0 -0.56100035 -0.21999979 -1.0230002 -0.68200016 -1.3970003 c -0.4619999 -0.37400007 -0.9789996 -0.5499997 -1.54 -0.5499997 h -1.5289998 l 0.65999985 2.6399999 c 0.0880003 0.37400007 0.0880003 0.37400007 0.5500002 0.37400007 Z m 0.3080001 -3.795 c 0.1539998 -0.25300002 0.23099995 -0.50600004 0.23099995 -0.78100014 c 0 -0.5719999 -0.21999979 -1.0669999 -0.671 -1.4739999 c -0.45099974 -0.40700006 -0.9569998 -0.605 -1.54 -0.605 h -1.4849999 c -0.11000013 0 -0.18700004 0 -0.23099995 0.011000007 c -0.06600022 0 -0.099000216 0.022000015 -0.099000216 0.055000007 c 0 0.010999978 0 0.04399997 0.011000156 0.088 c 0.34099984 1.3970001 0.605 2.453 0.7809999 3.157 h 2.024 c 0.47300005 0 0.7920003 -0.15400004 0.9790001 -0.45099998 Z "/>
        </symbol>
    </defs>
</svg>
