<svg xmlns="http://www.w3.org/2000/svg" viewBox="0 0 700 440" style="font-family:-apple-system,BlinkMacSystemFont,sans-serif">
<line x1="190.0" y1="30" x2="190.0" y2="385" stroke="rgba(0,0,0,0.08)" stroke-width="0.5"/>
<line x1="300.0" y1="30" x2="300.0" y2="385" stroke="rgba(0,0,0,0.08)" stroke-width="0.5"/>
<line x1="410.0" y1="30" x2="410.0" y2="385" stroke="rgba(0,0,0,0.08)" stroke-width="0.5"/>
<line x1="520.0" y1="30" x2="520.0" y2="385" stroke="rgba(0,0,0,0.08)" stroke-width="0.5"/>
<line x1="630.0" y1="30" x2="630.0" y2="385" stroke="rgba(0,0,0,0.08)" stroke-width="0.5"/>
<line x1="80" y1="320.5" x2="630" y2="320.5" stroke="rgba(0,0,0,0.08)" stroke-width="0.5"/>
<line x1="80" y1="255.9" x2="630" y2="255.9" stroke="rgba(0,0,0,0.08)" stroke-width="0.5"/>
<line x1="80" y1="191.4" x2="630" y2="191.4" stroke="rgba(0,0,0,0.08)" stroke-width="0.5"/>
<line x1="80" y1="126.8" x2="630" y2="126.8" stroke="rgba(0,0,0,0.08)" stroke-width="0.5"/>
<line x1="80" y1="62.3" x2="630" y2="62.3" stroke="rgba(0,0,0,0.08)" stroke-width="0.5"/>
<line x1="80" y1="30" x2="80" y2="385" stroke="#333" stroke-width="1.5"/>
<line x1="80" y1="385" x2="630" y2="385" stroke="#333" stroke-width="1.5"/>
<text x="80.0" y="403" text-anchor="middle" fill="#444" font-size="11">0</text>
<text x="190.0" y="403" text-anchor="middle" fill="#444" font-size="11">1</text>
<text x="300.0" y="403" text-anchor="middle" fill="#444" font-size="11">2</text>
<text x="410.0" y="403" text-anchor="middle" fill="#444" font-size="11">3</text>
<text x="520.0" y="403" text-anchor="middle" fill="#444" font-size="11">4</text>
<text x="630.0" y="403" text-anchor="middle" fill="#444" font-size="11">5</text>
<text x="72" y="324.5" text-anchor="end" fill="#444" font-size="11">1000</text>
<text x="72" y="259.9" text-anchor="end" fill="#444" font-size="11">2000</text>
<text x="72" y="195.4" text-anchor="end" fill="#444" font-size="11">3000</text>
<text x="72" y="130.8" text-anchor="end" fill="#444" font-size="11">4000</text>
<text x="72" y="66.3" text-anchor="end" fill="#444" font-size="11">5000</text>
<text x="355.0" y="427" text-anchor="middle" fill="#444" font-size="13">数量</text>
<text x="25" y="207.5" text-anchor="middle" fill="#444" font-size="12" transform="rotate(-90,25,207.5)">支払意思額／費用</text>
<path fill="none" stroke="#a0522d" stroke-width="2.5" stroke-linejoin="miter" d="M80.0,62.3 L190.0,62.3 L190.0,159.1 L300.0,159.1 L300.0,255.9 L410.0,255.9 L410.0,320.5 L520.0,320.5 L520.0,346.3 L630.0,346.3"/>
<path fill="none" stroke="#1a3c6e" stroke-width="2.5" stroke-linejoin="miter" d="M80.0,343.0 L190.0,343.0 L190.0,323.7 L300.0,323.7 L300.0,268.8 L410.0,268.8 L410.0,178.5 L520.0,178.5 L520.0,94.5 L630.0,94.5"/>
<text x="531.0" y="338.3" fill="#a0522d" font-size="12" font-weight="600">需要曲線</text>
<text x="531.0" y="110.5" fill="#1a3c6e" font-size="12" font-weight="600">供給曲線</text>
<g opacity="0">
  <animate attributeName="opacity" dur="36s" repeatCount="indefinite" keyTimes="0.0000;0.0414;0.0417;0.2500;0.2778;1.0000" values="0;0;1;1;0;0"/>
  <line x1="80" y1="262.4" x2="410.0" y2="262.4" stroke="rgba(0,0,0,0.35)" stroke-width="1" stroke-dasharray="5,4"/>
  <line x1="410.0" y1="262.4" x2="410.0" y2="385" stroke="rgba(0,0,0,0.35)" stroke-width="1" stroke-dasharray="5,4"/>
  <circle cx="410.0" cy="262.4" r="3.5" fill="#333"/>
  <text x="72" y="266.4" text-anchor="end" fill="#444" font-size="10">均衡価格</text>
  <text x="410.0" y="417" text-anchor="middle" fill="#444" font-size="10">均衡取引量</text>
</g>
<rect x="80.0" y="62.3" width="110.0" height="200.1" fill="rgba(160,82,45,0.25)" stroke="none" opacity="0">
  <animate attributeName="opacity" dur="36s" repeatCount="indefinite" keyTimes="0.0000;0.0831;0.0833;0.2500;0.2778;1.0000" values="0;0;1;1;0;0"/>
</rect>
<rect x="190.0" y="159.1" width="110.0" height="103.3" fill="rgba(160,82,45,0.25)" stroke="none" opacity="0">
  <animate attributeName="opacity" dur="36s" repeatCount="indefinite" keyTimes="0.0000;0.0969;0.0972;0.2500;0.2778;1.0000" values="0;0;1;1;0;0"/>
</rect>
<rect x="300.0" y="255.9" width="110.0" height="6.5" fill="rgba(160,82,45,0.25)" stroke="none" opacity="0">
  <animate attributeName="opacity" dur="36s" repeatCount="indefinite" keyTimes="0.0000;0.1108;0.1111;0.2500;0.2778;1.0000" values="0;0;1;1;0;0"/>
</rect>
<text x="135.0" y="159.1" text-anchor="middle" fill="#a0522d" font-size="12" font-weight="600" opacity="0">消費者余剰
  <animate attributeName="opacity" dur="36s" repeatCount="indefinite" keyTimes="0.0000;0.0831;0.0833;0.2500;0.2778;1.0000" values="0;0;1;1;0;0"/>
</text>
<rect x="80.0" y="262.4" width="110.0" height="80.7" fill="rgba(26,60,110,0.25)" stroke="none" opacity="0">
  <animate attributeName="opacity" dur="36s" repeatCount="indefinite" keyTimes="0.0000;0.1386;0.1389;0.2500;0.2778;1.0000" values="0;0;1;1;0;0"/>
</rect>
<rect x="190.0" y="262.4" width="110.0" height="61.3" fill="rgba(26,60,110,0.25)" stroke="none" opacity="0">
  <animate attributeName="opacity" dur="36s" repeatCount="indefinite" keyTimes="0.0000;0.1525;0.1528;0.2500;0.2778;1.0000" values="0;0;1;1;0;0"/>
</rect>
<rect x="300.0" y="262.4" width="110.0" height="6.5" fill="rgba(26,60,110,0.25)" stroke="none" opacity="0">
  <animate attributeName="opacity" dur="36s" repeatCount="indefinite" keyTimes="0.0000;0.1664;0.1667;0.2500;0.2778;1.0000" values="0;0;1;1;0;0"/>
</rect>
<text x="135.0" y="301.1" text-anchor="middle" fill="#1a3c6e" font-size="12" font-weight="600" opacity="0">生産者余剰
  <animate attributeName="opacity" dur="36s" repeatCount="indefinite" keyTimes="0.0000;0.1386;0.1389;0.2500;0.2778;1.0000" values="0;0;1;1;0;0"/>
</text>
<g opacity="0">
  <animate attributeName="opacity" dur="36s" repeatCount="indefinite" keyTimes="0.0000;0.2639;0.2917;0.3333;0.3472;1.0000" values="0;0;1;1;0.6;0.6"/>
  <rect x="365.0" y="48.27272727272731" width="200" height="24" rx="4" fill="white" opacity="0.9"/>
  <text x="465.0" y="67.3" text-anchor="middle" fill="#c0392b" font-size="13" font-weight="700">価格規制：1500以下</text>
</g>
<line x1="80" y1="288.2" x2="630.0" y2="288.2" stroke="#c0392b" stroke-width="2" stroke-dasharray="8,4" opacity="0">
  <animate attributeName="opacity" dur="36s" repeatCount="indefinite" keyTimes="0.0000;0.3056;0.3194;1.0000" values="0;0;1;1"/>
</line>
<text x="635.0" y="292.2" fill="#c0392b" font-size="11" font-weight="600" opacity="0">1500
  <animate attributeName="opacity" dur="36s" repeatCount="indefinite" keyTimes="0.0000;0.3056;0.3194;1.0000" values="0;0;1;1"/>
</text>
<g opacity="0">
  <animate attributeName="opacity" dur="36s" repeatCount="indefinite" keyTimes="0.0000;0.3333;0.3472;1.0000" values="0;0;1;1"/>
  <line x1="300.0" y1="288.2" x2="300.0" y2="385" stroke="#c0392b" stroke-width="1" stroke-dasharray="5,4"/>
  <text x="300.0" y="417" text-anchor="middle" fill="#c0392b" font-size="11" font-weight="600">取引量 = 2</text>
  <circle cx="300.0" cy="323.7" r="3.5" fill="#1a3c6e"/>
</g>
<g opacity="0">
  <animate attributeName="opacity" dur="36s" repeatCount="indefinite" keyTimes="0.0000;0.4164;0.4167;1.0000" values="0;0;1;1"/>
  <rect x="80.0" y="62.3" width="110.0" height="225.9" fill="rgba(160,82,45,0.25)" stroke="#a0522d" stroke-width="1" stroke-opacity="0.4"/>
  <line x1="121.0" y1="65.3" x2="121.0" y2="285.2" stroke="#a0522d" stroke-width="1.2" opacity="0.6"/>
  <line x1="118.0" y1="65.3" x2="124.0" y2="65.3" stroke="#a0522d" stroke-width="1.2" opacity="0.6"/>
  <line x1="118.0" y1="285.2" x2="124.0" y2="285.2" stroke="#a0522d" stroke-width="1.2" opacity="0.6"/>
  <text x="131.0" y="180.2" fill="#a0522d" font-size="13" font-weight="700">3500</text>
</g>
<g opacity="0">
  <animate attributeName="opacity" dur="36s" repeatCount="indefinite" keyTimes="0.0000;0.4997;0.5000;1.0000" values="0;0;1;1"/>
  <rect x="190.0" y="159.1" width="110.0" height="129.1" fill="rgba(160,82,45,0.25)" stroke="#a0522d" stroke-width="1" stroke-opacity="0.4"/>
  <line x1="231.0" y1="162.1" x2="231.0" y2="285.2" stroke="#a0522d" stroke-width="1.2" opacity="0.6"/>
  <line x1="228.0" y1="162.1" x2="234.0" y2="162.1" stroke="#a0522d" stroke-width="1.2" opacity="0.6"/>
  <line x1="228.0" y1="285.2" x2="234.0" y2="285.2" stroke="#a0522d" stroke-width="1.2" opacity="0.6"/>
  <text x="241.0" y="228.6" fill="#a0522d" font-size="13" font-weight="700">2000</text>
</g>
<text x="135.0" y="107.5" text-anchor="middle" fill="#a0522d" font-size="11" font-weight="600" opacity="0">消費者余剰
  <animate attributeName="opacity" dur="36s" repeatCount="indefinite" keyTimes="0.0000;0.5000;0.5139;1.0000" values="0;0;1;1"/>
</text>
<g opacity="0">
  <animate attributeName="opacity" dur="36s" repeatCount="indefinite" keyTimes="0.0000;0.5831;0.5833;1.0000" values="0;0;1;1"/>
  <rect x="80.0" y="288.2" width="110.0" height="54.9" fill="rgba(26,60,110,0.25)" stroke="#1a3c6e" stroke-width="1" stroke-opacity="0.4"/>
  <line x1="121.0" y1="291.2" x2="121.0" y2="340.0" stroke="#1a3c6e" stroke-width="1.2" opacity="0.6"/>
  <line x1="118.0" y1="291.2" x2="124.0" y2="291.2" stroke="#1a3c6e" stroke-width="1.2" opacity="0.6"/>
  <line x1="118.0" y1="340.0" x2="124.0" y2="340.0" stroke="#1a3c6e" stroke-width="1.2" opacity="0.6"/>
  <text x="131.0" y="330.6" fill="#1a3c6e" font-size="13" font-weight="700">650</text>
</g>
<g opacity="0">
  <animate attributeName="opacity" dur="36s" repeatCount="indefinite" keyTimes="0.0000;0.6664;0.6667;1.0000" values="0;0;1;1"/>
  <rect x="190.0" y="288.2" width="110.0" height="35.5" fill="rgba(26,60,110,0.25)" stroke="#1a3c6e" stroke-width="1" stroke-opacity="0.4"/>
  <line x1="231.0" y1="291.2" x2="231.0" y2="320.7" stroke="#1a3c6e" stroke-width="1.2" opacity="0.6"/>
  <line x1="228.0" y1="291.2" x2="234.0" y2="291.2" stroke="#1a3c6e" stroke-width="1.2" opacity="0.6"/>
  <line x1="228.0" y1="320.7" x2="234.0" y2="320.7" stroke="#1a3c6e" stroke-width="1.2" opacity="0.6"/>
  <text x="241.0" y="310.9" fill="#1a3c6e" font-size="13" font-weight="700">550</text>
</g>
<text x="135.0" y="314.0" text-anchor="middle" fill="#1a3c6e" font-size="11" font-weight="600" opacity="0">生産者余剰
  <animate attributeName="opacity" dur="36s" repeatCount="indefinite" keyTimes="0.0000;0.6667;0.6806;1.0000" values="0;0;1;1"/>
</text>
<g opacity="0">
  <animate attributeName="opacity" dur="36s" repeatCount="indefinite" keyTimes="0.0000;0.7500;0.7778;1.0000" values="0;0;1;1"/>
  <rect x="300.0" y="255.9" width="110.0" height="12.9" fill="rgba(220,50,50,0.35)" stroke="rgba(220,50,50,0.6)" stroke-width="1.5"/>
  <line x1="305.0" y1="268.8" x2="410.0" y2="260.9" stroke="rgba(220,50,50,0.6)" stroke-width="0.8"/>
  <line x1="300.0" y1="263.8" x2="405.0" y2="255.9" stroke="rgba(220,50,50,0.6)" stroke-width="0.8"/>
  <text x="355.0" y="267.4" text-anchor="middle" fill="#c0392b" font-size="12" font-weight="700">200</text>
</g>
<g opacity="0">
  <animate attributeName="opacity" dur="36s" repeatCount="indefinite" keyTimes="0.0000;0.8333;0.8611;1.0000" values="0;0;1;1"/>
  <line x1="418.0" y1="262.4" x2="493.0" y2="262.4" stroke="#c0392b" stroke-width="1.2"/>
  <polygon points="414.0,262.4 420.0,259.4 420.0,265.4" fill="#c0392b"/>
  <text x="498.0" y="256.4" fill="#c0392b" font-size="13" font-weight="700">失われた余剰</text>
  <text x="498.0" y="274.4" fill="#c0392b" font-size="12">(死荷重損失)</text>
</g>
</svg>