<svg viewBox="0 0 220.418598425 284.016259843" width="220.418598425pt" height="284.016259843pt" xmlns="http://www.w3.org/2000/svg" xmlns:xlink="http://www.w3.org/1999/xlink" xmlns:h5="http://www.w3.org/1999/xhtml"><g transform="translate(4.251968504 4.251968504)"><g><path fill="none" stroke="#000000" stroke-width="0.7" stroke-linecap="round" stroke-linejoin="miter" stroke-miterlimit="4" transform="translate(129.672330583 10.443628168)" d="M 0 0m 0 17.076899278l 45.02707607 -17.076899278"/><path fill="none" stroke="#000000" stroke-width="0.7" stroke-linecap="round" stroke-linejoin="miter" stroke-miterlimit="4" transform="translate(173.292460065 10.443628252)" d="M 0 0m 1.406946518 0c -1.089412252 1.107420068 -1.58917042 2.665820838 -1.346970432 4.200271043"/><path fill="none" stroke="#000000" stroke-width="0.7" stroke-linecap="round" stroke-linejoin="miter" stroke-miterlimit="4" transform="translate(170.90585667 8.192942747)" d="M 0 0m 3.793549912 2.250685505c -1.549793689 -0.106479037 -2.957291216 -0.941537058 -3.793549912 -2.250685505"/><path fill="none" transform="translate(145.590272364 4.63099351)" d="M 0 0h 12.1v 12.419h -12.1v -12.419Z "/><g transform="translate(145.590272238 4.6309934)"><g><g><g transform="matrix(1 0 0 -1 2.2 10.219)"><use xlink:href="#gE4A9C1B0A4074628F8A7F97C47BB4C05" x="0" y="0" fill="#000000" fill-rule="nonzero"/></g></g></g></g><path fill="none" stroke="#000000" stroke-width="0.7" stroke-linecap="round" stroke-linejoin="miter" stroke-miterlimit="4" transform="translate(129.672330583 45.871554314)" d="M 0 0l 45.032574953 17.078521397"/><path fill="none" stroke="#000000" stroke-width="0.7" stroke-linecap="round" stroke-linejoin="miter" stroke-miterlimit="4" transform="translate(170.91137603 62.950075559)" d="M 0 0m 3.793529482 0c -1.549792741 0.106493142 -2.957282688 0.941563982 -3.793529482 2.250720057"/><path fill="none" stroke="#000000" stroke-width="0.7" stroke-linecap="round" stroke-linejoin="miter" stroke-miterlimit="4" transform="translate(173.297927706 58.749816717)" d="M 0 0m 1.406977806 4.200258842c -1.089422345 -1.107410169 -1.5891947 -2.665806413 -1.347008673 -4.200258842"/><path fill="none" transform="translate(147.082952814 40.183837)" d="M 0 0h 11.957v 12.419h -11.957v -12.419Z "/><g transform="translate(147.082952798 40.18383689)"><g><g><g transform="matrix(1 0 0 -1 2.2 10.219)"><use xlink:href="#gBBFC819DE0839D2D34A9D24ED762E6B5" x="0" y="0" fill="#000000" fill-rule="nonzero"/></g></g></g></g><path fill="none" stroke="#000000" stroke-width="0.7" stroke-linecap="round" stroke-linejoin="miter" stroke-miterlimit="4" transform="translate(18.916982561 49.985501652)" d="M 0 0m 0 87.700217206l 65.881990661 -87.700217206"/><path fill="none" stroke="#000000" stroke-width="0.7" stroke-linecap="round" stroke-linejoin="miter" stroke-miterlimit="4" transform="translate(84.687990471 49.985501575)" d="M 0 0m 0.110983041 0c -0.328666848 1.518280942 0.082079324 3.102471426 1.107061344 4.269780628"/><path fill="none" stroke="#000000" stroke-width="0.7" stroke-linecap="round" stroke-linejoin="miter" stroke-miterlimit="4" transform="translate(80.389805475 49.985501575)" d="M 0 0m 4.409168037 0c -1.366675066 0.738510784 -3.002581605 0.785219503 -4.409168037 0.125891418"/><path fill="none" transform="translate(38.066022379 80.075445864)" d="M 0 0h 12.298v 12.419h -12.298v -12.419Z "/><g transform="translate(38.066022253 80.075445754)"><g><g><g transform="matrix(1 0 0 -1 2.2 10.219)"><use xlink:href="#g13C6F56327B440CEE3EF9E0968F3F466" x="0" y="0" fill="#000000" fill-rule="nonzero"/></g></g></g></g><path fill="none" stroke="#000000" stroke-width="0.7" stroke-linecap="round" stroke-linejoin="miter" stroke-miterlimit="4" transform="translate(129.408330583 141.181185171)" d="M 0 0m 0 17.157927757l 45.296525395 -17.157927757"/><path fill="none" stroke="#000000" stroke-width="0.7" stroke-linecap="round" stroke-linejoin="miter" stroke-miterlimit="4" transform="translate(173.296505282 141.181185165)" d="M 0 0m 1.408350624 0c -1.089864737 1.106975238 -1.590259517 2.665172089 -1.348686258 4.199721431"/><path fill="none" stroke="#000000" stroke-width="0.7" stroke-linecap="round" stroke-linejoin="miter" stroke-miterlimit="4" transform="translate(170.912224792 138.928949842)" d="M 0 0m 3.792631114 2.252235324c -1.549750407 -0.10711208 -2.956907038 -0.942745121 -3.792631114 -2.252235324"/><path fill="none" transform="translate(145.984286351 135.408842032)" d="M 0 0h 11.055v 12.419h -11.055v -12.419Z "/><g transform="translate(145.984286256 135.408841922)"><g><g><g transform="matrix(1 0 0 -1 2.2 10.219)"><use xlink:href="#gD21697E0BDDD4C4306675BF06C13E163" x="0" y="0" fill="#000000" fill-rule="nonzero"/></g></g></g></g><path fill="none" stroke="#000000" stroke-width="0.7" stroke-linecap="round" stroke-linejoin="miter" stroke-miterlimit="4" transform="translate(129.408330583 176.525410834)" d="M 0 0l 45.769430141 17.296820507"/><path fill="none" stroke="#000000" stroke-width="0.7" stroke-linecap="round" stroke-linejoin="miter" stroke-miterlimit="4" transform="translate(171.386862493 193.822231087)" d="M 0 0m 3.7908982 0c -1.549667613 0.108303733 -2.956181291 0.945018578 -3.7908982 2.255151048"/><path fill="none" stroke="#000000" stroke-width="0.7" stroke-linecap="round" stroke-linejoin="miter" stroke-miterlimit="4" transform="translate(173.766765727 189.623547897)" d="M 0 0m 1.410994966 4.19868319c -1.090715645 -1.106136877 -1.592308464 -2.663948516 -1.351915266 -4.19868319"/><path fill="none" transform="translate(145.172267012 170.868824317)" d="M 0 0h 15.983v 12.496h -15.983v -12.496Z "/><g transform="translate(145.172266901 170.868824191)"><g><g><g transform="matrix(1 0 0 -1 2.2 10.219)"><use xlink:href="#g78776D3427E6543EDF61CBBB24D6AA87" x="0" y="0" fill="#000000" fill-rule="nonzero"/></g></g></g></g><path fill="none" stroke="#000000" stroke-width="0.7" stroke-linecap="round" stroke-linejoin="miter" stroke-miterlimit="4" transform="translate(25.193716415 154.26619082)" d="M 0 0l 43.081151353 8.445289933"/><path fill="none" stroke="#000000" stroke-width="0.7" stroke-linecap="round" stroke-linejoin="miter" stroke-miterlimit="4" transform="translate(64.913695549 162.711480661)" d="M 0 0m 3.361172231 0c -1.509834007 0.365513505 -2.756909098 1.425313277 -3.361172231 2.856419464"/><path fill="none" stroke="#000000" stroke-width="0.7" stroke-linecap="round" stroke-linejoin="miter" stroke-miterlimit="4" transform="translate(66.240923022 158.797444427)" d="M 0 0m 2.033944757 3.914036234c -1.260084961 -0.908506875 -2.014726994 -2.360707702 -2.033944757 -3.914036234"/><path fill="none" transform="translate(41.405764915 144.140856005)" d="M 0 0h 11.77v 12.419h -11.77v -12.419Z "/><g transform="translate(41.405764836 144.140855895)"><g><g><g transform="matrix(1 0 0 -1 2.2 10.219)"><use xlink:href="#g152299F2F9213F814422AD9197AB2DB7" x="0" y="0" fill="#000000" fill-rule="nonzero"/></g></g></g></g><path fill="none" stroke="#000000" stroke-width="0.7" stroke-linecap="round" stroke-linejoin="miter" stroke-miterlimit="4" transform="translate(129.523830583 268.502822835)" d="M 0 0h 45.152830835"/><path fill="none" stroke="#000000" stroke-width="0.7" stroke-linecap="round" stroke-linejoin="miter" stroke-miterlimit="4" transform="translate(171.927760337 268.502822835)" d="M 0 0m 2.748901049 0c -1.411319379 0.649134387 -2.431227253 1.929040105 -2.748901049 3.449658795"/><path fill="none" stroke="#000000" stroke-width="0.7" stroke-linecap="round" stroke-linejoin="miter" stroke-miterlimit="4" transform="translate(171.927760337 265.05316404)" d="M 0 0m 2.748901049 3.449658795c -1.411319379 -0.649134387 -2.431227253 -1.929040105 -2.748901049 -3.449658795"/><path fill="none" transform="translate(145.856746 251.652822835)" d="M 0 0h 12.837v 14.85h -12.837v -14.85Z "/><g transform="translate(145.856745906 251.652822693)"><g><g><g transform="matrix(1 0 0 -1 2.2 10.219)"><use xlink:href="#g2538EBA8C92BEDD68F3D8569E6CD062E" x="0" y="0" fill="#000000" fill-rule="nonzero"/></g></g></g></g><path fill="none" stroke="#000000" stroke-width="0.7" stroke-linecap="round" stroke-linejoin="miter" stroke-miterlimit="4" transform="translate(18.763328498 164.645099786)" d="M 0 0l 66.381588282 90.56593162"/><path fill="none" stroke="#000000" stroke-width="0.7" stroke-linecap="round" stroke-linejoin="miter" stroke-miterlimit="4" transform="translate(80.737535633 254.594178387)" d="M 0 0m 4.407381154 0.616852857c -1.357887613 -0.754546628 -2.993131176 -0.820508136 -4.407381154 -0.17778239"/><path fill="none" stroke="#000000" stroke-width="0.7" stroke-linecap="round" stroke-linejoin="miter" stroke-miterlimit="4" transform="translate(85.045804396 250.954577066)" d="M 0 0m 0.099112391 4.256454178c -0.310772644 -1.522044595 0.118592389 -3.101290648 1.157243728 -4.256454178"/><path fill="none" transform="translate(53.670671277 196.291871199)" d="M 0 0h 12.001v 12.595h -12.001v -12.595Z "/><g transform="translate(53.670671151 196.291871073)"><g><g><g transform="matrix(1 0 0 -1 2.2 10.219)"><use xlink:href="#g80A61F1064126FA9A86ACD82CC9EE4F4" x="0" y="0" fill="#000000" fill-rule="nonzero"/></g></g></g></g><path fill="none" transform="translate(0 144.089994094)" d="M 0 0h 17v 14.019h -17v -14.019Z "/><g transform="translate(-1.1e-7 144.089994047)"><g><g transform="translate(0)"><g><path fill="none" stroke="#000000" stroke-width="0.6" stroke-linecap="butt" stroke-linejoin="miter" stroke-miterlimit="4" d="M 0 0m 1.1619 0h 14.6762c 0.641699651 0 1.1619 0.520200349 1.1619 1.1619v 11.6952c 0 0.641699651 -0.520200349 1.1619 -1.1619 1.1619h -14.6762c -0.641699651 0 -1.1619 -0.520200349 -1.1619 -1.1619v -11.6952c 0 -0.641699651 0.520200349 -1.1619 1.1619 -1.1619"/><g transform="matrix(1 0 0 -1 3 11.019)"><use xlink:href="#g2B053F58F67B28019F46A206EBC4503A" x="0" y="0" fill="#000000" fill-rule="nonzero"/></g></g></g></g></g><path fill="none" transform="translate(74.354330709 29.686665354)" d="M 0 0h 49.318v 14.019h -49.318v -14.019Z "/><g transform="translate(74.35433063 29.686665307)"><g><g transform="translate(0)"><g><path fill="none" stroke="#000000" stroke-width="0.6" stroke-linecap="butt" stroke-linejoin="miter" stroke-miterlimit="4" d="M 0 0m 1.1619 0h 46.9942c 0.641699651 0 1.1619 0.520200349 1.1619 1.1619v 11.6952c 0 0.641699651 -0.520200349 1.1619 -1.1619 1.1619h -46.9942c -0.641699651 0 -1.1619 -0.520200349 -1.1619 -1.1619v -11.6952c 0 -0.641699651 0.520200349 -1.1619 1.1619 -1.1619"/><g transform="matrix(1 0 0 -1 3 11.019)"><use xlink:href="#g591115289C543C39F9A7CEDC6894318C" x="0" y="0" fill="#000000" fill-rule="nonzero"/><use xlink:href="#g3F9F9B82B914AF05F805413D3DCA0FAA" x="10.67" y="0" fill="#000000" fill-rule="nonzero"/><use xlink:href="#g2256AD7FE57C6A8A5B637C5E18EBEA38" x="21.67" y="0" fill="#000000" fill-rule="nonzero"/></g><g transform="matrix(1 0 0 -1 38.42 11.019)"><use xlink:href="#g13C6F56327B440CEE3EF9E0968F3F466" x="0" y="0" fill="#000000" fill-rule="nonzero"/></g></g></g></g></g><path fill="none" transform="translate(181.026661417)" d="M 0 0h 30.888v 8.019h -30.888v -8.019Z "/><g transform="translate(181.026661276 0)"><g><g transform="translate(0)"><g transform="matrix(1 0 0 -1 0 8.019)"><use xlink:href="#g254A439F544C9A96A0EF6D127CEC11D8" x="0" y="0" fill="#000000" fill-rule="nonzero"/><use xlink:href="#g4E0D3D6824A0D35657D008DB936DD588" x="11" y="0" fill="#000000" fill-rule="nonzero"/><use xlink:href="#g90D12CA7ACAB4A5DC828389506E1C2B6" x="24.75" y="0" fill="#000000" fill-rule="nonzero"/></g></g></g></g><path fill="none" transform="translate(181.032161417 65.373330709)" d="M 0 0h 30.877v 8.019h -30.877v -8.019Z "/><g transform="translate(181.032161339 65.373330709)"><g><g transform="translate(0)"><g transform="matrix(1 0 0 -1 0 8.019)"><use xlink:href="#g254A439F544C9A96A0EF6D127CEC11D8" x="0" y="0" fill="#000000" fill-rule="nonzero"/><use xlink:href="#g4E0D3D6824A0D35657D008DB936DD588" x="11" y="0" fill="#000000" fill-rule="nonzero"/><use xlink:href="#g2C11D370D73543298B6E2A91975BE329" x="24.75" y="0" fill="#000000" fill-rule="nonzero"/></g></g></g></g><path fill="none" transform="translate(74.618330709 160.433326772)" d="M 0 0h 48.79v 14.019h -48.79v -14.019Z "/><g transform="translate(74.618330677 160.433326724)"><g><g transform="translate(0)"><g><path fill="none" stroke="#000000" stroke-width="0.6" stroke-linecap="butt" stroke-linejoin="miter" stroke-miterlimit="4" d="M 0 0m 1.1619 0h 46.4662c 0.641699651 0 1.1619 0.520200349 1.1619 1.1619v 11.6952c 0 0.641699651 -0.520200349 1.1619 -1.1619 1.1619h -46.4662c -0.641699651 0 -1.1619 -0.520200349 -1.1619 -1.1619v -11.6952c 0 -0.641699651 0.520200349 -1.1619 1.1619 -1.1619"/><g transform="matrix(1 0 0 -1 3 11.019)"><use xlink:href="#g591115289C543C39F9A7CEDC6894318C" x="0" y="0" fill="#000000" fill-rule="nonzero"/><use xlink:href="#g3F9F9B82B914AF05F805413D3DCA0FAA" x="10.67" y="0" fill="#000000" fill-rule="nonzero"/><use xlink:href="#g2256AD7FE57C6A8A5B637C5E18EBEA38" x="21.67" y="0" fill="#000000" fill-rule="nonzero"/></g><g transform="matrix(1 0 0 -1 38.42 11.019)"><use xlink:href="#g152299F2F9213F814422AD9197AB2DB7" x="0" y="0" fill="#000000" fill-rule="nonzero"/></g></g></g></g></g><path fill="none" transform="translate(181.032161417 130.746661417)" d="M 0 0h 30.877v 8.019h -30.877v -8.019Z "/><g transform="translate(181.032161339 130.746661417)"><g><g transform="translate(0)"><g transform="matrix(1 0 0 -1 0 8.019)"><use xlink:href="#g254A439F544C9A96A0EF6D127CEC11D8" x="0" y="0" fill="#000000" fill-rule="nonzero"/><use xlink:href="#g4E0D3D6824A0D35657D008DB936DD588" x="11" y="0" fill="#000000" fill-rule="nonzero"/><use xlink:href="#gAC8B39D80EAB9EC3D212F4ABFF35DA34" x="24.75" y="0" fill="#000000" fill-rule="nonzero"/></g></g></g></g><path fill="none" transform="translate(181.505161417 196.119992126)" d="M 0 0h 29.931v 8.019h -29.931v -8.019Z "/><g transform="translate(181.50516137 196.119992126)"><g><g transform="translate(0)"><g transform="matrix(1 0 0 -1 0 8.019)"><use xlink:href="#g254A439F544C9A96A0EF6D127CEC11D8" x="0" y="0" fill="#000000" fill-rule="nonzero"/><use xlink:href="#g4E0D3D6824A0D35657D008DB936DD588" x="11" y="0" fill="#000000" fill-rule="nonzero"/><use xlink:href="#gAAD3DB6919C98E87B45A46C1A96360DB" x="24.75" y="0" fill="#000000" fill-rule="nonzero"/></g></g></g></g><path fill="none" transform="translate(74.502830709 261.493322835)" d="M 0 0h 49.021v 14.019h -49.021v -14.019Z "/><g transform="translate(74.50283063 261.493322787)"><g><g transform="translate(0)"><g><path fill="none" stroke="#000000" stroke-width="0.6" stroke-linecap="butt" stroke-linejoin="miter" stroke-miterlimit="4" d="M 0 0m 1.1619 0h 46.6972c 0.641699651 0 1.1619 0.520200349 1.1619 1.1619v 11.6952c 0 0.641699651 -0.520200349 1.1619 -1.1619 1.1619h -46.6972c -0.641699651 0 -1.1619 -0.520200349 -1.1619 -1.1619v -11.6952c 0 -0.641699651 0.520200349 -1.1619 1.1619 -1.1619"/><g transform="matrix(1 0 0 -1 3 11.019)"><use xlink:href="#g591115289C543C39F9A7CEDC6894318C" x="0" y="0" fill="#000000" fill-rule="nonzero"/><use xlink:href="#g3F9F9B82B914AF05F805413D3DCA0FAA" x="10.67" y="0" fill="#000000" fill-rule="nonzero"/><use xlink:href="#g2256AD7FE57C6A8A5B637C5E18EBEA38" x="21.67" y="0" fill="#000000" fill-rule="nonzero"/></g><g transform="matrix(1 0 0 -1 38.42 11.019)"><use xlink:href="#g80A61F1064126FA9A86ACD82CC9EE4F4" x="0" y="0" fill="#000000" fill-rule="nonzero"/></g></g></g></g></g><path fill="none" transform="translate(181.026661417 264.493322835)" d="M 0 0h 30.888v 8.019h -30.888v -8.019Z "/><g transform="translate(181.026661276 264.493322835)"><g><g transform="translate(0)"><g transform="matrix(1 0 0 -1 0 8.019)"><use xlink:href="#g254A439F544C9A96A0EF6D127CEC11D8" x="0" y="0" fill="#000000" fill-rule="nonzero"/><use xlink:href="#g4E0D3D6824A0D35657D008DB936DD588" x="11" y="0" fill="#000000" fill-rule="nonzero"/><use xlink:href="#gAFABDC25F7B01C1BA193B0B92AA67F18" x="24.75" y="0" fill="#000000" fill-rule="nonzero"/></g></g></g></g></g></g><defs><symbol id="gE4A9C1B0A4074628F8A7F97C47BB4C05" overflow="visible"><path d="M 0 0m 4.664 7.678l 1.133 -0.11l -1.76 -2.926l -1.738 2.937l 1.166 0.099v 0.33h -3.168v -0.33l 0.935 -0.088l 2.189 -3.685l -2.222 -3.465l -1.023 -0.11v -0.33h 2.673v 0.33l -1.155 0.121l 1.925 3.124l 1.87 -3.146l -1.155 -0.099v -0.33h 3.19v 0.33l -0.979 0.088l -2.321 3.927l 2.057 3.223l 1.056 0.11v 0.33h -2.673Z "/></symbol><symbol id="gBBFC819DE0839D2D34A9D24ED762E6B5" overflow="visible"><path d="M 0 0m 4.752 7.678l 1.177 -0.11l -1.859 -3.894l -1.881 3.905l 1.21 0.099v 0.33h -3.102v -0.33l 0.803 -0.077l 2.211 -4.422c 0 -1.342 0 -1.958 -0.022 -2.75l -1.265 -0.099v -0.33h 3.542v 0.33l -1.276 0.099c -0.022 0.825 -0.022 1.441 -0.022 2.838l 2.123 4.301l 0.99 0.11v 0.33h -2.629Z "/></symbol><symbol id="g13C6F56327B440CEE3EF9E0968F3F466" overflow="visible"><path d="M 0 0m 3.652 7.073l 1.298 -3.982h -2.574Z m 0.946 -7.073h 3.223v 0.33l -1.012 0.088l -2.585 7.656h -0.616l -2.541 -7.634l -0.935 -0.11v -0.33h 2.464v 0.33l -1.067 0.11l 0.737 2.299h 2.805l 0.748 -2.31l -1.221 -0.099Z "/></symbol><symbol id="gD21697E0BDDD4C4306675BF06C13E163" overflow="visible"><path d="M 0 0m 0.297 0h 5.951l 0.088 2.123h -0.462l -0.374 -1.749h -4.125l 4.763 7.271v 0.363h -5.577l -0.099 -2.09h 0.484l 0.33 1.705h 3.795l -4.774 -7.26Z "/></symbol><symbol id="g78776D3427E6543EDF61CBBB24D6AA87" overflow="visible"><path d="M 0 0m 8.822 7.678l 1.122 -0.11l -1.661 -6.314l -1.87 6.314l 1.21 0.11v 0.33h -3.069v -0.33l 1.111 -0.099l -1.87 -6.314l -1.694 6.314l 1.133 0.099v 0.33h -3.102v -0.33l 0.979 -0.088l 2.156 -7.667h 0.517l 1.991 6.721l 2.024 -6.721h 0.517l 2.09 7.645l 1.1 0.11v 0.33h -2.684Z "/></symbol><symbol id="g152299F2F9213F814422AD9197AB2DB7" overflow="visible"><path d="M 0 0m 0.583 7.678l 1.133 -0.088c 0.011 -1.089 0.011 -2.178 0.011 -3.267v -0.583c 0 -1.122 0 -2.222 -0.011 -3.311l -1.133 -0.099v -0.33h 3.19c 2.255 0 3.113 1.034 3.113 2.178c 0 1.056 -0.715 1.859 -2.431 2.035c 1.43 0.275 2.002 1.034 2.002 1.892c 0 1.133 -0.825 1.903 -2.629 1.903h -3.245Z m 2.112 -3.674h 0.792c 1.672 0 2.409 -0.638 2.409 -1.837c 0 -1.166 -0.814 -1.804 -2.2 -1.804h -0.979c -0.022 1.111 -0.022 2.255 -0.022 3.641Z m 0.022 3.641h 0.836c 1.419 0 1.958 -0.572 1.958 -1.551c 0 -1.111 -0.715 -1.749 -2.134 -1.749h -0.682c 0 1.144 0 2.233 0.022 3.3Z "/></symbol><symbol id="g2538EBA8C92BEDD68F3D8569E6CD062E" overflow="visible"><path d="M 0 0m 4.213 0.198c -1.672 0 -2.552 1.727 -2.552 3.806c 0 2.068 0.88 3.795 2.552 3.795c 1.683 0 2.552 -1.727 2.552 -3.795c 0 -2.079 -0.869 -3.806 -2.552 -3.806Z m 1.705 -2.629c 0.473 0 0.99 0.11 1.397 0.363l -0.099 0.242c -0.341 -0.121 -0.638 -0.187 -1.012 -0.187c -0.968 0 -1.584 0.704 -1.584 1.859c 1.771 0.209 3.19 1.727 3.19 4.158c 0 2.651 -1.639 4.191 -3.597 4.191c -1.947 0 -3.597 -1.584 -3.597 -4.191c 0 -2.42 1.375 -3.905 3.091 -4.147c 0.011 -1.177 0.693 -2.288 2.211 -2.288Z "/></symbol><symbol id="g80A61F1064126FA9A86ACD82CC9EE4F4" overflow="visible"><path d="M 0 0m 4.642 -0.176c 0.891 0 1.639 0.176 2.376 0.616l 0.022 1.749h -0.495l -0.33 -1.65c -0.462 -0.242 -0.946 -0.341 -1.474 -0.341c -1.771 0 -3.08 1.342 -3.08 3.806c 0 2.431 1.309 3.795 3.124 3.795c 0.506 0 0.924 -0.088 1.342 -0.308l 0.33 -1.672h 0.495l -0.033 1.76c -0.704 0.418 -1.375 0.616 -2.277 0.616c -2.299 0 -4.026 -1.639 -4.026 -4.213c 0 -2.585 1.661 -4.158 4.026 -4.158Z "/></symbol><symbol id="g2B053F58F67B28019F46A206EBC4503A" overflow="visible"><path d="M 0 0m 2.233 9.207v -2.541h -1.683l 0.088 -0.33h 1.452c -0.319 -1.639 -0.869 -3.278 -1.727 -4.532l 0.154 -0.143c 0.737 0.803 1.298 1.716 1.716 2.728v -5.225h 0.154c 0.253 0 0.55 0.154 0.55 0.264v 5.269c 0.352 -0.462 0.759 -1.1 0.891 -1.573c 0.66 -0.517 1.243 0.814 -0.891 1.804v 1.408h 1.419c 0.143 0 0.253 0.055 0.275 0.176c -0.308 0.33 -0.847 0.781 -0.847 0.781l -0.451 -0.627h -0.396v 2.112c 0.286 0.044 0.374 0.143 0.407 0.308Z m 6.655 -2.816v -1.628h -3.201v 1.628Z m 0 0.33h -3.201v 1.529h 3.201Z m -3.916 1.848v -8.261c -0.539 -0.132 -0.979 -0.231 -1.265 -0.286l 0.451 -0.891c 0.088 0.033 0.187 0.121 0.231 0.253c 1.518 0.605 2.651 1.111 3.465 1.474l -0.033 0.165l -2.134 -0.55v 3.971h 1.067c 0.495 -2.475 1.463 -4.224 3.3 -5.17c 0.099 0.363 0.341 0.583 0.627 0.649l 0.011 0.11c -1.089 0.385 -1.98 1.133 -2.64 2.09c 0.825 0.385 1.727 0.946 2.167 1.254c 0.165 -0.066 0.275 -0.055 0.33 0.022l -0.825 0.682c -0.352 -0.429 -1.133 -1.21 -1.793 -1.76c -0.418 0.638 -0.726 1.353 -0.946 2.123h 1.903v -0.528h 0.11c 0.242 0 0.583 0.198 0.594 0.286v 3.916c 0.209 0.044 0.374 0.132 0.451 0.22l -0.869 0.671l -0.396 -0.44h -3.047l -0.759 0.374Z "/></symbol><symbol id="g591115289C543C39F9A7CEDC6894318C" overflow="visible"><path d="M 0 0m 6.501 7.568c 0.517 -0.22 0.726 -0.374 0.726 -0.638c 0 -0.154 -0.055 -0.385 -0.187 -0.682c -0.737 -1.716 -2.519 -4.301 -5.401 -6.204l 0.187 -0.264c 3.025 1.573 4.807 3.74 6.094 6.347c 0.187 0.385 0.44 0.418 0.44 0.66c 0 0.308 -0.594 0.814 -1.056 0.935c -0.242 0.055 -0.495 0.077 -0.748 0.066Z "/></symbol><symbol id="g3F9F9B82B914AF05F805413D3DCA0FAA" overflow="visible"><path d="M 0 0m 1.331 4.653l -0.22 -0.066c 0.011 -0.22 0.022 -0.407 0.099 -0.616c 0.154 -0.374 0.671 -0.913 0.979 -0.913c 0.319 0 0.44 0.165 1.067 0.231c 0.825 0.099 3.916 0.264 4.609 0.264c 0.671 0 1.056 -0.022 1.441 -0.022c 0.374 0 0.484 0.121 0.484 0.319c 0 0.297 -0.495 0.484 -0.913 0.484c -0.286 0 -0.594 -0.066 -1.331 -0.121c -0.506 -0.022 -4.356 -0.275 -5.335 -0.275c -0.462 0 -0.638 0.341 -0.88 0.715Z "/></symbol><symbol id="g2256AD7FE57C6A8A5B637C5E18EBEA38" overflow="visible"><path d="M 0 0m 7.777 6.215c 0.231 -0.286 0.352 -0.528 0.528 -0.528c 0.165 0 0.264 0.099 0.264 0.275c 0 0.231 -0.11 0.451 -0.385 0.693c -0.286 0.242 -0.704 0.473 -1.254 0.704l -0.154 -0.187c 0.484 -0.352 0.77 -0.682 1.001 -0.957Z m 0.935 0.979c 0.231 -0.275 0.363 -0.528 0.539 -0.528c 0.154 0 0.253 0.088 0.253 0.275c 0 0.231 -0.121 0.451 -0.407 0.682c -0.275 0.231 -0.693 0.44 -1.254 0.638l -0.132 -0.187c 0.484 -0.341 0.748 -0.605 1.001 -0.88Z m -5.258 0.968l 0.011 -0.231c 0.572 -0.066 0.825 -0.132 0.858 -0.484c 0.055 -0.55 0.055 -1.749 0.055 -2.629c 0 -0.836 0 -2.64 -0.088 -3.454c -0.044 -0.418 -0.143 -0.616 -0.143 -0.858c 0 -0.374 0.198 -0.979 0.55 -0.979c 0.242 0 0.352 0.132 0.352 0.418c 0 0.187 -0.022 0.517 -0.022 1.001c -0.011 1.166 0 2.959 0.011 3.729c 0.737 -0.286 1.342 -0.605 1.826 -0.946c 0.66 -0.506 0.792 -0.88 1.144 -0.88c 0.242 0 0.363 0.187 0.363 0.385c 0 0.33 -0.286 0.605 -0.627 0.814c -0.605 0.385 -1.65 0.77 -2.706 1.001c 0 0.605 0.022 1.419 0.077 1.947c 0.044 0.363 0.242 0.407 0.242 0.627c 0 0.253 -0.748 0.671 -1.21 0.671c -0.209 0 -0.418 -0.066 -0.693 -0.132Z "/></symbol><symbol id="g254A439F544C9A96A0EF6D127CEC11D8" overflow="visible"><path d="M 0 0m 6.93 8.283v -6.919h 0.132c 0.264 0 0.561 0.165 0.561 0.253v 6.248c 0.264 0.033 0.363 0.143 0.396 0.297Z m 2.365 0.737v -8.712c 0 -0.176 -0.055 -0.253 -0.275 -0.253c -0.231 0 -1.441 0.099 -1.441 0.099v -0.176c 0.528 -0.066 0.814 -0.154 1.001 -0.275c 0.143 -0.132 0.209 -0.319 0.253 -0.539c 1.045 0.11 1.166 0.484 1.166 1.078v 8.349c 0.264 0.033 0.374 0.143 0.407 0.308Z m -3.938 0.187c -1.012 -0.55 -3.025 -1.243 -4.719 -1.573l 0.044 -0.187c 0.88 0.077 1.782 0.209 2.629 0.374v -2.002h -2.673l 0.088 -0.33h 2.31c -0.572 -1.595 -1.529 -3.212 -2.739 -4.389l 0.143 -0.143c 1.188 0.88 2.167 2.013 2.871 3.3v -5.104h 0.121c 0.341 0 0.594 0.165 0.594 0.231v 5.093c 0.583 -0.572 1.265 -1.408 1.452 -2.068c 0.77 -0.561 1.287 1.111 -1.452 2.288v 0.792h 2.255c 0.154 0 0.264 0.055 0.297 0.176c -0.352 0.352 -0.935 0.814 -0.935 0.814l -0.506 -0.66h -1.111v 2.145c 0.627 0.143 1.199 0.286 1.661 0.44c 0.275 -0.099 0.484 -0.099 0.583 0Z "/></symbol><symbol id="g4E0D3D6824A0D35657D008DB936DD588" overflow="visible"><path d="M 0 0m 4.763 2.266l -0.11 -0.088c 0.418 -0.363 0.946 -0.99 1.111 -1.485c 0.748 -0.462 1.287 1.034 -1.001 1.573Z m -1.001 6.413l -1.012 0.539c -0.484 -0.869 -1.474 -2.145 -2.398 -2.981l 0.132 -0.132c 1.111 0.682 2.244 1.716 2.86 2.464c 0.253 -0.044 0.352 -0.011 0.418 0.11Z m 6.006 -5.214l -0.495 -0.638h -0.638v 1.265h 1.309c 0.154 0 0.264 0.055 0.297 0.176c -0.363 0.341 -0.946 0.792 -0.946 0.792l -0.517 -0.649h -4.763l 0.088 -0.319h 3.806v -1.265h -4.444l 0.088 -0.33h 4.356v -2.299c 0 -0.154 -0.055 -0.209 -0.264 -0.209c -0.209 0 -1.331 0.077 -1.331 0.077v -0.165c 0.517 -0.066 0.781 -0.154 0.957 -0.264c 0.132 -0.11 0.198 -0.308 0.209 -0.517c 1.001 0.099 1.155 0.495 1.155 1.056v 2.321h 1.76c 0.154 0 0.253 0.055 0.286 0.176c -0.341 0.341 -0.913 0.792 -0.913 0.792Z m -4.422 2.31v 1.155h 3.212v -1.155Z m -0.682 3.311v -4.125h 0.11c 0.363 0 0.572 0.154 0.572 0.209v 0.275h 3.212v -0.374h 0.11c 0.33 0 0.605 0.165 0.605 0.209v 3.091c 0.22 0.033 0.319 0.099 0.396 0.176l -0.792 0.616l -0.352 -0.429h -3.047Z m 0.682 -1.826v 1.155h 3.212v -1.155Z m -2.387 -2.277l -0.352 0.132c 0.363 0.451 0.682 0.891 0.924 1.276c 0.264 -0.055 0.363 0 0.429 0.121l -1.056 0.517c -0.495 -1.133 -1.529 -2.783 -2.574 -3.883l 0.121 -0.132c 0.517 0.385 1.012 0.847 1.463 1.32v -5.203h 0.143c 0.275 0 0.55 0.198 0.561 0.253v 5.401c 0.187 0.033 0.297 0.099 0.341 0.198Z "/></symbol><symbol id="g90D12CA7ACAB4A5DC828389506E1C2B6" overflow="visible"><path d="M 0 0m 2.706 -0.165c 1.716 0 2.816 1.023 2.816 2.585c 0 1.562 -1.012 2.398 -2.585 2.398c -0.495 0 -0.946 -0.066 -1.386 -0.253l 0.176 2.673h 3.586v 0.77h -3.938l -0.253 -3.784l 0.275 -0.11c 0.385 0.176 0.814 0.264 1.287 0.264c 1.133 0 1.87 -0.638 1.87 -2.002c 0 -1.408 -0.715 -2.2 -1.98 -2.2c -0.352 0 -0.605 0.055 -0.858 0.165l -0.264 0.847c -0.088 0.396 -0.231 0.539 -0.506 0.539c -0.209 0 -0.385 -0.11 -0.462 -0.319c 0.198 -1.012 1.034 -1.573 2.222 -1.573Z "/></symbol><symbol id="g2C11D370D73543298B6E2A91975BE329" overflow="visible"><path d="M 0 0m 3.058 -0.165c 1.32 0 2.541 1.199 2.541 4.191c 0 2.948 -1.221 4.147 -2.541 4.147c -1.32 0 -2.541 -1.199 -2.541 -4.147c 0 -2.992 1.221 -4.191 2.541 -4.191Z m 0 0.341c -0.825 0 -1.628 0.924 -1.628 3.85c 0 2.882 0.803 3.795 1.628 3.795c 0.814 0 1.628 -0.913 1.628 -3.795c 0 -2.926 -0.814 -3.85 -1.628 -3.85Z "/></symbol><symbol id="gAC8B39D80EAB9EC3D212F4ABFF35DA34" overflow="visible"><path d="M 0 0m 2.816 -0.165c 1.54 0 2.607 0.88 2.607 2.233c 0 1.155 -0.649 1.958 -2.068 2.156c 1.221 0.275 1.837 1.078 1.837 2.013c 0 1.155 -0.814 1.936 -2.222 1.936c -1.045 0 -2.024 -0.44 -2.211 -1.529c 0.066 -0.187 0.231 -0.275 0.418 -0.275c 0.275 0 0.44 0.121 0.539 0.495l 0.253 0.847c 0.275 0.088 0.528 0.121 0.792 0.121c 0.957 0 1.496 -0.605 1.496 -1.628c 0 -1.177 -0.759 -1.815 -1.826 -1.815h -0.44v -0.385h 0.495c 1.32 0 2.002 -0.693 2.002 -1.903c 0 -1.166 -0.704 -1.925 -1.925 -1.925c -0.308 0 -0.572 0.055 -0.814 0.143l -0.264 0.858c -0.099 0.407 -0.253 0.561 -0.517 0.561c -0.209 0 -0.374 -0.121 -0.451 -0.341c 0.22 -1.023 1.045 -1.562 2.299 -1.562Z "/></symbol><symbol id="gAAD3DB6919C98E87B45A46C1A96360DB" overflow="visible"><path d="M 0 0m 0.825 0l 3.872 -0.011v 0.308l -1.419 0.165l -0.022 2.068v 3.729l 0.044 1.738l -0.165 0.121l -2.365 -0.605v -0.33l 1.584 0.264v -4.917l -0.022 -2.068l -1.507 -0.154Z "/></symbol><symbol id="gAFABDC25F7B01C1BA193B0B92AA67F18" overflow="visible"><path d="M 0 0m 0.704 0h 4.917v 0.77h -4.312c 0.671 0.737 1.32 1.452 1.639 1.782c 1.672 1.716 2.343 2.519 2.343 3.531c 0 1.298 -0.759 2.09 -2.233 2.09c -1.122 0 -2.178 -0.572 -2.354 -1.694c 0.066 -0.22 0.242 -0.341 0.451 -0.341c 0.253 0 0.429 0.143 0.539 0.572l 0.264 0.957c 0.286 0.121 0.561 0.165 0.836 0.165c 0.979 0 1.562 -0.627 1.562 -1.727c 0 -0.968 -0.484 -1.738 -1.65 -3.146c -0.539 -0.638 -1.276 -1.507 -2.002 -2.365Z "/></symbol></defs></svg>