<svg viewBox="0 0 406.144362205 430.438797488" width="406.144362205pt" height="430.438797488pt" xmlns="http://www.w3.org/2000/svg" xmlns:xlink="http://www.w3.org/1999/xlink" xmlns:h5="http://www.w3.org/1999/xhtml"><g transform="translate(4.251968504 4.251968504)"><g><path fill="none" stroke="#000000" stroke-width="0.7" stroke-linecap="round" stroke-linejoin="miter" stroke-miterlimit="4" transform="translate(289.732283496 8.903003993)" d="M 0 0m 0 14.671548863l 70.539974929 -14.671548863"/><path fill="none" stroke="#000000" stroke-width="0.7" stroke-linecap="round" stroke-linejoin="miter" stroke-miterlimit="4" transform="translate(358.283410992 8.90300385)" d="M 0 0m 1.988847464 0c -1.249565241 0.922922416 -1.987475101 2.383696569 -1.988847464 3.937143443"/><path fill="none" stroke="#000000" stroke-width="0.7" stroke-linecap="round" stroke-linejoin="miter" stroke-miterlimit="4" transform="translate(356.878494239 6.08538479)" d="M 0 0m 3.393764217 2.81761906c -1.51393335 -0.348144921 -2.773100846 -1.393548817 -3.393764217 -2.81761906"/><path fill="none" transform="translate(311.362710457)" d="M 0 0h 26.4v 13.266h -26.4v -13.266Z "/><g transform="translate(311.362710363 -1.42e-7)"><g><g><g transform="matrix(1 0 0 -1 2.2 10.219)"><use xlink:href="#g173A328D152FE78978AC67EC57E7E5C8" x="0" y="0" fill="#000000" fill-rule="nonzero"/><use xlink:href="#g3EFF77D5AA6069AB3AD827BEF892BB5" x="11" y="0" fill="#000000" fill-rule="nonzero"/></g></g></g></g><path fill="none" stroke="#000000" stroke-width="0.7" stroke-linecap="round" stroke-linejoin="miter" stroke-miterlimit="4" transform="translate(289.732283496 32.757130702)" d="M 0 0l 70.539974929 14.671548863"/><path fill="none" stroke="#000000" stroke-width="0.7" stroke-linecap="round" stroke-linejoin="miter" stroke-miterlimit="4" transform="translate(356.878494239 47.428679661)" d="M 0 0m 3.393764217 0c -1.51393335 0.348144921 -2.773100846 1.393548817 -3.393764217 2.81761906"/><path fill="none" stroke="#000000" stroke-width="0.7" stroke-linecap="round" stroke-linejoin="miter" stroke-miterlimit="4" transform="translate(358.283410992 43.491536218)" d="M 0 0m 1.988847464 3.937143443c -1.249565241 -0.922922416 -1.987475101 -2.383696569 -1.988847464 -3.937143443"/><path fill="none" transform="translate(312.584498142 23.892397657)" d="M 0 0h 26.4v 13.299h -26.4v -13.299Z "/><g transform="translate(312.584498047 23.89239761)"><g><g><g transform="matrix(1 0 0 -1 2.2 10.219)"><use xlink:href="#gB15B575C564340DC810A00E27B16A372" x="0" y="0" fill="#000000" fill-rule="nonzero"/><use xlink:href="#g7476CC95DAFC6CDAC622B3C6A028DCB3" x="11" y="0" fill="#000000" fill-rule="nonzero"/></g></g></g></g><path fill="none" stroke="#000000" stroke-width="0.7" stroke-linecap="round" stroke-linejoin="miter" stroke-miterlimit="4" transform="translate(163.866141764 37.371600995)" d="M 0 0m 0 28.659130614l 70.541880821 -28.659130614"/><path fill="none" stroke="#000000" stroke-width="0.7" stroke-linecap="round" stroke-linejoin="miter" stroke-miterlimit="4" transform="translate(233.080525194 37.371601173)" d="M 0 0m 1.327497484 0c -1.063200588 1.132609222 -1.526355519 2.702277871 -1.248315762 4.230640731"/><path fill="none" stroke="#000000" stroke-width="0.7" stroke-linecap="round" stroke-linejoin="miter" stroke-miterlimit="4" transform="translate(230.562844905 35.210300376)" d="M 0 0m 3.845177773 2.161300797c -1.551861215 -0.070184821 -2.97851391 -0.872078982 -3.845177773 -2.161300797"/><path fill="none" transform="translate(184.970031047 35.721918138)" d="M 0 0h 26.4v 13.134h -26.4v -13.134Z "/><g transform="translate(184.970030953 35.721918044)"><g><g><g transform="matrix(1 0 0 -1 2.2 10.219)"><use xlink:href="#gB9B6AD9072666A5B3CF10C4B8280F0E7" x="0" y="0" fill="#000000" fill-rule="nonzero"/></g><g transform="matrix(1 0 0 -1 13.2 10.219)"><use xlink:href="#g2E72BD8F8388157CB87EEC74141C90C4" x="0" y="0" fill="#000000" fill-rule="nonzero"/></g></g></g></g><path fill="none" stroke="#000000" stroke-width="0.7" stroke-linecap="round" stroke-linejoin="miter" stroke-miterlimit="4" transform="translate(289.732283496 99.958171545)" d="M 0 0m 0 14.678918222l 70.589472098 -14.678918222"/><path fill="none" stroke="#000000" stroke-width="0.7" stroke-linecap="round" stroke-linejoin="miter" stroke-miterlimit="4" transform="translate(358.332751788 99.958171504)" d="M 0 0m 1.989003834 0c -1.249601906 0.922872808 -1.987569784 2.383617678 -1.989003834 3.937064518"/><path fill="none" stroke="#000000" stroke-width="0.7" stroke-linecap="round" stroke-linejoin="miter" stroke-miterlimit="4" transform="translate(356.928103248 97.140417641)" d="M 0 0m 3.393652375 2.817753863c -1.513919546 -0.348205044 -2.773045545 -1.393658955 -3.393652375 -2.817753863"/><path fill="none" transform="translate(311.387577138 91.058834772)" d="M 0 0h 26.4v 13.266h -26.4v -13.266Z "/><g transform="translate(311.387577044 91.05883463)"><g><g><g transform="matrix(1 0 0 -1 2.2 10.219)"><use xlink:href="#g173A328D152FE78978AC67EC57E7E5C8" x="0" y="0" fill="#000000" fill-rule="nonzero"/><use xlink:href="#g3EFF77D5AA6069AB3AD827BEF892BB5" x="11" y="0" fill="#000000" fill-rule="nonzero"/></g></g></g></g><path fill="none" stroke="#000000" stroke-width="0.7" stroke-linecap="round" stroke-linejoin="miter" stroke-miterlimit="4" transform="translate(289.732283496 123.818752749)" d="M 0 0l 70.539974929 14.671548863"/><path fill="none" stroke="#000000" stroke-width="0.7" stroke-linecap="round" stroke-linejoin="miter" stroke-miterlimit="4" transform="translate(356.878494239 138.49030152)" d="M 0 0m 3.393764217 0c -1.51393335 0.348144921 -2.773100846 1.393548817 -3.393764217 2.81761906"/><path fill="none" stroke="#000000" stroke-width="0.7" stroke-linecap="round" stroke-linejoin="miter" stroke-miterlimit="4" transform="translate(358.283410992 134.553158076)" d="M 0 0m 1.988847464 3.937143443c -1.249565241 -0.922922416 -1.987475101 -2.383696569 -1.988847464 -3.937143443"/><path fill="none" transform="translate(312.584498142 114.987019704)" d="M 0 0h 26.4v 13.266h -26.4v -13.266Z "/><g transform="translate(312.584498047 114.987019563)"><g><g><g transform="matrix(1 0 0 -1 2.2 10.219)"><use xlink:href="#gB44F0ED339ED42E789033BEF05981A08" x="0" y="0" fill="#000000" fill-rule="nonzero"/><use xlink:href="#gBDABD0838EF98152B134ADC4A71D506E" x="11" y="0" fill="#000000" fill-rule="nonzero"/></g></g></g></g><path fill="none" stroke="#000000" stroke-width="0.7" stroke-linecap="round" stroke-linejoin="miter" stroke-miterlimit="4" transform="translate(163.866141764 81.362573997)" d="M 0 0l 70.541880821 28.659130614"/><path fill="none" stroke="#000000" stroke-width="0.7" stroke-linecap="round" stroke-linejoin="miter" stroke-miterlimit="4" transform="translate(230.562844905 110.02170448)" d="M 0 0m 3.845177773 0c -1.551861215 0.070184821 -2.97851391 0.872078982 -3.845177773 2.161300797"/><path fill="none" stroke="#000000" stroke-width="0.7" stroke-linecap="round" stroke-linejoin="miter" stroke-miterlimit="4" transform="translate(233.080525194 105.791063749)" d="M 0 0m 1.327497484 4.230640731c -1.063200588 -1.132609222 -1.526355519 -2.702277871 -1.248315762 -4.230640731"/><path fill="none" transform="translate(181.728394213 79.67962899)" d="M 0 0h 37.4v 13.299h -37.4v -13.299Z "/><g transform="translate(181.728394197 79.679628943)"><g><g><g transform="matrix(1 0 0 -1 2.2 10.219)"><use xlink:href="#gAD2F1ABBBBA0394898EE137275E372B7" x="0" y="0" fill="#000000" fill-rule="nonzero"/></g><g transform="matrix(1 0 0 -1 13.2 10.219)"><use xlink:href="#gCA64CA756D387EE4A8CD62C1C5EDAF3C" x="0" y="0" fill="#000000" fill-rule="nonzero"/></g><g transform="matrix(1 0 0 -1 24.2 10.219)"><use xlink:href="#g92E169055BD26A0046733234236F04FB" x="0" y="0" fill="#000000" fill-rule="nonzero"/></g></g></g></g><path fill="none" stroke="#000000" stroke-width="0.7" stroke-linecap="round" stroke-linejoin="miter" stroke-miterlimit="4" transform="translate(34.542765844 86.987219281)" d="M 0 0m 0 128.568506742l 95.406604615 -128.568506742"/><path fill="none" stroke="#000000" stroke-width="0.7" stroke-linecap="round" stroke-linejoin="miter" stroke-miterlimit="4" transform="translate(129.844394513 86.987219283)" d="M 0 0m 0.104975944 0c -0.319742162 1.520185541 0.100303153 3.101935864 1.132124806 4.263203794"/><path fill="none" stroke="#000000" stroke-width="0.7" stroke-linecap="round" stroke-linejoin="miter" stroke-miterlimit="4" transform="translate(125.541017841 86.987219283)" d="M 0 0m 4.408352616 0c -1.362313218 0.746526507 -2.997917217 0.802844436 -4.408352616 0.151790586"/><path fill="none" transform="translate(42.541212357 136.099192392)" d="M 0 0h 37.4v 13.244h -37.4v -13.244Z "/><g transform="translate(42.541212341 136.099192376)"><g><g><g transform="matrix(1 0 0 -1 2.2 10.219)"><use xlink:href="#gA886860D9DE3CD87AF51CB991B28DDE0" x="0" y="0" fill="#000000" fill-rule="nonzero"/><use xlink:href="#gA4726F28EF6EE8E56865B4A370CB4D11" x="11" y="0" fill="#000000" fill-rule="nonzero"/></g><g transform="matrix(1 0 0 -1 24.2 10.219)"><use xlink:href="#gCA64CA756D387EE4A8CD62C1C5EDAF3C" x="0" y="0" fill="#000000" fill-rule="nonzero"/></g></g></g></g><path fill="none" stroke="#000000" stroke-width="0.7" stroke-linecap="round" stroke-linejoin="miter" stroke-miterlimit="4" transform="translate(289.732283496 191.132614891)" d="M 0 0m 0 15.112796892l 70.540407775 -15.112796892"/><path fill="none" stroke="#000000" stroke-width="0.7" stroke-linecap="round" stroke-linejoin="miter" stroke-miterlimit="4" transform="translate(358.307387554 191.132614811)" d="M 0 0m 1.965303753 0c -1.244017211 0.930387128 -1.97316805 2.395553021 -1.965239758 3.948980255"/><path fill="none" stroke="#000000" stroke-width="0.7" stroke-linecap="round" stroke-linejoin="miter" stroke-miterlimit="4" transform="translate(356.862118602 188.335365057)" d="M 0 0m 3.410572705 2.797249754c -1.515990578 -0.339074619 -2.781394424 -1.376921017 -3.410572705 -2.797249754"/><path fill="none" transform="translate(311.345136502 182.452919875)" d="M 0 0h 26.4v 13.266h -26.4v -13.266Z "/><g transform="translate(311.345136407 182.452919734)"><g><g><g transform="matrix(1 0 0 -1 2.2 10.219)"><use xlink:href="#g173A328D152FE78978AC67EC57E7E5C8" x="0" y="0" fill="#000000" fill-rule="nonzero"/><use xlink:href="#g3EFF77D5AA6069AB3AD827BEF892BB5" x="11" y="0" fill="#000000" fill-rule="nonzero"/></g></g></g></g><path fill="none" stroke="#000000" stroke-width="0.7" stroke-linecap="round" stroke-linejoin="miter" stroke-miterlimit="4" transform="translate(289.732283496 215.705630944)" d="M 0 0l 70.589904786 15.120391299"/><path fill="none" stroke="#000000" stroke-width="0.7" stroke-linecap="round" stroke-linejoin="miter" stroke-miterlimit="4" transform="translate(356.91172929 230.826022055)" d="M 0 0m 3.410459182 0c -1.515976819 0.339136148 -2.781338545 1.377033905 -3.410459182 2.79738818"/><path fill="none" stroke="#000000" stroke-width="0.7" stroke-linecap="round" stroke-linejoin="miter" stroke-miterlimit="4" transform="translate(358.356725457 226.877121554)" d="M 0 0m 1.965463015 3.948900501c -1.244054974 -0.93033664 -1.973265279 -2.395472942 -1.965400035 -3.948900501"/><path fill="none" transform="translate(312.626702501 207.070021779)" d="M 0 0h 26.4v 13.299h -26.4v -13.299Z "/><g transform="translate(312.626702407 207.070021731)"><g><g><g transform="matrix(1 0 0 -1 2.2 10.219)"><use xlink:href="#gB15B575C564340DC810A00E27B16A372" x="0" y="0" fill="#000000" fill-rule="nonzero"/><use xlink:href="#g7476CC95DAFC6CDAC622B3C6A028DCB3" x="11" y="0" fill="#000000" fill-rule="nonzero"/></g></g></g></g><path fill="none" stroke="#000000" stroke-width="0.7" stroke-linecap="round" stroke-linejoin="miter" stroke-miterlimit="4" transform="translate(163.866141764 218.062897798)" d="M 0 0m 0 22.182944048l 70.532265143 -22.182944048"/><path fill="none" stroke="#000000" stroke-width="0.7" stroke-linecap="round" stroke-linejoin="miter" stroke-miterlimit="4" transform="translate(232.787189549 218.062897551)" d="M 0 0m 1.611217443 0c -1.151551749 1.042654076 -1.740479399 2.569590935 -1.587303988 4.115468112"/><path fill="none" stroke="#000000" stroke-width="0.7" stroke-linecap="round" stroke-linejoin="miter" stroke-miterlimit="4" transform="translate(230.74117418 215.596876487)" d="M 0 0m 3.657232812 2.466021064c -1.541057511 -0.195807812 -2.897978142 -1.110760463 -3.657232812 -2.466021064"/><path fill="none" transform="translate(185.199154557 212.996067094)" d="M 0 0h 26.4v 13.244h -26.4v -13.244Z "/><g transform="translate(185.199154462 212.996067078)"><g><g><g transform="matrix(1 0 0 -1 2.2 10.219)"><use xlink:href="#g3BF4BDDB04D73737251D3129FF3CE125" x="0" y="0" fill="#000000" fill-rule="nonzero"/><use xlink:href="#gC71618549C4AFA170153B8C02872F207" x="11" y="0" fill="#000000" fill-rule="nonzero"/></g></g></g></g><path fill="none" stroke="#000000" stroke-width="0.7" stroke-linecap="round" stroke-linejoin="miter" stroke-miterlimit="4" transform="translate(163.866141764 252.041318207)" d="M 0 0l 76.538654617 23.983350898"/><path fill="none" stroke="#000000" stroke-width="0.7" stroke-linecap="round" stroke-linejoin="miter" stroke-miterlimit="4" transform="translate(236.750165289 276.024669205)" d="M 0 0m 3.654631089 0c -1.540850331 0.197432486 -2.89680566 1.113815329 -3.654631089 2.46987578"/><path fill="none" stroke="#000000" stroke-width="0.7" stroke-linecap="round" stroke-linejoin="miter" stroke-miterlimit="4" transform="translate(238.789747826 271.910876586)" d="M 0 0m 1.615048552 4.113792619c -1.15265049 -1.041439473 -1.743187739 -2.567754685 -1.59164225 -4.113792619"/><path fill="none" transform="translate(189.999502943 247.967574306)" d="M 0 0h 26.4v 13.255h -26.4v -13.255Z "/><g transform="translate(189.999502848 247.967574227)"><g><g><g transform="matrix(1 0 0 -1 2.2 10.219)"><use xlink:href="#g235EC8A58300ABC37E22D0578C57446C" x="0" y="0" fill="#000000" fill-rule="nonzero"/><use xlink:href="#gA4726F28EF6EE8E56865B4A370CB4D11" x="11" y="0" fill="#000000" fill-rule="nonzero"/></g></g></g></g><path fill="none" stroke="#000000" stroke-width="0.7" stroke-linecap="round" stroke-linejoin="miter" stroke-miterlimit="4" transform="translate(49.000000032 232.038597148)" d="M 0 0l 70.520410309 11.115738717"/><path fill="none" stroke="#000000" stroke-width="0.7" stroke-linecap="round" stroke-linejoin="miter" stroke-miterlimit="4" transform="translate(116.267915068 243.154335724)" d="M 0 0m 3.252495483 0c -1.495178809 0.421472023 -2.701932234 1.52696623 -3.252495483 2.979577137"/><path fill="none" stroke="#000000" stroke-width="0.7" stroke-linecap="round" stroke-linejoin="miter" stroke-miterlimit="4" transform="translate(117.342154377 239.318738402)" d="M 0 0m 2.178256175 3.835597323c -1.293035433 -0.860963243 -2.101220445 -2.284061363 -2.178256175 -3.835597323"/><path fill="none" transform="translate(66.200177025 221.383302164)" d="M 0 0h 37.4v 13.277h -37.4v -13.277Z "/><g transform="translate(66.200177009 221.383302101)"><g><g><g transform="matrix(1 0 0 -1 2.2 10.219)"><use xlink:href="#g3128E0D3CC2AFA8A59D45D0B2523447D" x="0" y="0" fill="#000000" fill-rule="nonzero"/><use xlink:href="#gD90B3860012F4E3618EC3B2BBF64C2D3" x="11" y="0" fill="#000000" fill-rule="nonzero"/><use xlink:href="#g92E169055BD26A0046733234236F04FB" x="22" y="0" fill="#000000" fill-rule="nonzero"/></g></g></g></g><path fill="none" stroke="#000000" stroke-width="0.7" stroke-linecap="round" stroke-linejoin="miter" stroke-miterlimit="4" transform="translate(289.732283496 330.368457918)" d="M 0 0m 0 14.669091994l 70.523475873 -14.669091994"/><path fill="none" stroke="#000000" stroke-width="0.7" stroke-linecap="round" stroke-linejoin="miter" stroke-miterlimit="4" transform="translate(358.266964431 330.368457866)" d="M 0 0m 1.98879497 0c -1.249552828 0.922938864 -1.987443212 2.383722605 -1.98879497 3.937169286"/><path fill="none" stroke="#000000" stroke-width="0.7" stroke-linecap="round" stroke-linejoin="miter" stroke-miterlimit="4" transform="translate(356.861958275 327.550884206)" d="M 0 0m 3.393801127 2.81757366c -1.513937762 -0.348124793 -2.773118952 -1.393511844 -3.393801127 -2.81757366"/><path fill="none" transform="translate(316.854421544 321.442231314)" d="M 0 0h 15.4v 13.288h -15.4v -13.288Z "/><g transform="translate(316.854421513 321.442231188)"><g><g><g transform="matrix(1 0 0 -1 2.2 10.219)"><use xlink:href="#gA1EF33B6F5CB8777FA6FE797F6732F65" x="0" y="0" fill="#000000" fill-rule="nonzero"/></g></g></g></g><path fill="none" stroke="#000000" stroke-width="0.7" stroke-linecap="round" stroke-linejoin="miter" stroke-miterlimit="4" transform="translate(289.732283496 354.220127836)" d="M 0 0l 70.556473985 14.674005524"/><path fill="none" stroke="#000000" stroke-width="0.7" stroke-linecap="round" stroke-linejoin="miter" stroke-miterlimit="4" transform="translate(356.895031318 368.894133394)" d="M 0 0m 3.393726194 0c -1.513928368 0.348164787 -2.773081756 1.393585009 -3.393726194 2.817663063"/><path fill="none" stroke="#000000" stroke-width="0.7" stroke-linecap="round" stroke-linejoin="miter" stroke-miterlimit="4" transform="translate(358.299858667 364.95701719)" d="M 0 0m 1.988898845 3.937116204c -1.249577081 -0.922905704 -1.987506006 -2.383669751 -1.988898845 -3.937116204"/><path fill="none" transform="translate(312.592709238 345.36761276)" d="M 0 0h 26.4v 13.288h -26.4v -13.288Z "/><g transform="translate(312.592709144 345.367612634)"><g><g><g transform="matrix(1 0 0 -1 2.2 10.219)"><use xlink:href="#gB9AEA30CE3A8D91EBF475935070572C8" x="0" y="0" fill="#000000" fill-rule="nonzero"/><use xlink:href="#gEFF8D80847249EEF5571537915394E30" x="11" y="0" fill="#000000" fill-rule="nonzero"/></g></g></g></g><path fill="none" stroke="#000000" stroke-width="0.7" stroke-linecap="round" stroke-linejoin="miter" stroke-miterlimit="4" transform="translate(163.866141764 356.506247121)" d="M 0 0m 0 21.536688434l 70.53139936 -21.536688434"/><path fill="none" stroke="#000000" stroke-width="0.7" stroke-linecap="round" stroke-linejoin="miter" stroke-miterlimit="4" transform="translate(232.75586173 356.506247094)" d="M 0 0m 1.641679562 0c -1.160223651 1.032995144 -1.76188961 2.554957312 -1.621636843 4.102060104"/><path fill="none" stroke="#000000" stroke-width="0.7" stroke-linecap="round" stroke-linejoin="miter" stroke-miterlimit="4" transform="translate(230.761042899 354.009753035)" d="M 0 0m 3.636498393 2.49649406c -1.539367212 -0.208677923 -2.888594878 -1.134936782 -3.636498393 -2.49649406"/><path fill="none" transform="translate(185.223099227 351.220264392)" d="M 0 0h 26.4v 13.134h -26.4v -13.134Z "/><g transform="translate(185.223099133 351.220264298)"><g><g><g transform="matrix(1 0 0 -1 2.2 10.219)"><use xlink:href="#gB9B6AD9072666A5B3CF10C4B8280F0E7" x="0" y="0" fill="#000000" fill-rule="nonzero"/></g><g transform="matrix(1 0 0 -1 13.2 10.219)"><use xlink:href="#g2E72BD8F8388157CB87EEC74141C90C4" x="0" y="0" fill="#000000" fill-rule="nonzero"/></g></g></g></g><path fill="none" stroke="#000000" stroke-width="0.7" stroke-linecap="round" stroke-linejoin="miter" stroke-miterlimit="4" transform="translate(163.866141764 389.490278865)" d="M 0 0l 76.543293513 23.285638368"/><path fill="none" stroke="#000000" stroke-width="0.7" stroke-linecap="round" stroke-linejoin="miter" stroke-miterlimit="4" transform="translate(236.775527845 412.775916984)" d="M 0 0m 3.633907431 0c -1.539150109 0.210274491 -2.887416466 1.137932395 -3.633907431 2.500264828"/><path fill="none" stroke="#000000" stroke-width="0.7" stroke-linecap="round" stroke-linejoin="miter" stroke-miterlimit="4" transform="translate(238.763958386 408.675540624)" d="M 0 0m 1.645476889 4.10037636c -1.161294595 -1.031791298 -1.764538901 -2.553128758 -1.625890874 -4.10037636"/><path fill="none" transform="translate(178.978349259 385.080903422)" d="M 0 0h 48.4v 13.233h -48.4v -13.233Z "/><g transform="translate(178.978349181 385.080903328)"><g><g><g transform="matrix(1 0 0 -1 2.2 10.219)"><use xlink:href="#gC35C83072B2B176F19AB63580190A00C" x="0" y="0" fill="#000000" fill-rule="nonzero"/><use xlink:href="#g3F4A8E81966B1C43B91B21B40901E8A1" x="11" y="0" fill="#000000" fill-rule="nonzero"/><use xlink:href="#g175E4D94D28839D3F7043832378EB442" x="22" y="0" fill="#000000" fill-rule="nonzero"/><use xlink:href="#gCA64CA756D387EE4A8CD62C1C5EDAF3C" x="33" y="0" fill="#000000" fill-rule="nonzero"/></g></g></g></g><path fill="none" stroke="#000000" stroke-width="0.7" stroke-linecap="round" stroke-linejoin="miter" stroke-miterlimit="4" transform="translate(34.517353156 241.574726023)" d="M 0 0l 95.45587601 128.91174542"/><path fill="none" stroke="#000000" stroke-width="0.7" stroke-linecap="round" stroke-linejoin="miter" stroke-miterlimit="4" transform="translate(125.565036289 369.881154985)" d="M 0 0m 4.408192814 0.605316519c -1.361544215 -0.747927145 -2.997088923 -0.805927392 -4.408192814 -0.156324842"/><path fill="none" stroke="#000000" stroke-width="0.7" stroke-linecap="round" stroke-linejoin="miter" stroke-miterlimit="4" transform="translate(129.869288003 366.224435752)" d="M 0 0m 0.103941099 4.262035752c -0.318178249 -1.520513158 0.103493686 -3.101830109 1.136508947 -4.262035752"/><path fill="none" transform="translate(84.760410238 291.097970804)" d="M 0 0h 37.4v 13.288h -37.4v -13.288Z "/><g transform="translate(84.760410222 291.097970678)"><g><g><g transform="matrix(1 0 0 -1 2.2 10.219)"><use xlink:href="#gA30DDAD854DEC630D70D34CD47997944" x="0" y="0" fill="#000000" fill-rule="nonzero"/><use xlink:href="#gA4726F28EF6EE8E56865B4A370CB4D11" x="11" y="0" fill="#000000" fill-rule="nonzero"/></g><g transform="matrix(1 0 0 -1 24.2 10.219)"><use xlink:href="#gCA64CA756D387EE4A8CD62C1C5EDAF3C" x="0" y="0" fill="#000000" fill-rule="nonzero"/></g></g></g></g><path fill="none" transform="translate(0 221.555725945)" d="M 0 0h 43v 14.019h -43v -14.019Z "/><g transform="translate(-7.9e-8 221.555725898)"><g><g transform="translate(0)"><g><path fill="#f5f5f5" fill-rule="nonzero" d="M 0 0m 0 2.7c 0 -1.491168825 1.208831175 -2.7 2.7 -2.7h 37.6c 1.491168825 0 2.7 1.208831175 2.7 2.7v 8.619c 0 1.491168825 -1.208831175 2.7 -2.7 2.7h -37.6c -1.491168825 0 -2.7 -1.208831175 -2.7 -2.7Z "/><path fill="none" stroke="#000000" stroke-width="0.6" stroke-linecap="butt" stroke-linejoin="miter" stroke-miterlimit="4" d="M 0 0m 2.7 0h 37.6c 1.491168825 0 2.7 1.208831175 2.7 2.7v 8.619c 0 1.491168825 -1.208831175 2.7 -2.7 2.7h -37.6c -1.491168825 0 -2.7 -1.208831175 -2.7 -2.7v -8.619c 0 -1.491168825 1.208831175 -2.7 2.7 -2.7"/><g transform="matrix(1 0 0 -1 5 11.019)"><use xlink:href="#g9F47CBA01A1749AF2BAC41AF487C3CF6" x="0" y="0" fill="#000000" fill-rule="nonzero"/><use xlink:href="#g2BD1E063FE3EEF13ABE9B05823EA1476" x="11" y="0" fill="#000000" fill-rule="nonzero"/><use xlink:href="#gF06D9C93A7D6A5CAEE421E54AAFD84AF" x="22" y="0" fill="#000000" fill-rule="nonzero"/></g></g></g></g></g><path fill="none" transform="translate(125.866141732 66.687152803)" d="M 0 0h 32v 14.019h -32v -14.019Z "/><g transform="translate(125.866141717 66.687152756)"><g><g transform="translate(0)"><g><path fill="#f5f5f5" fill-rule="nonzero" d="M 0 0m 0 2.7c 0 -1.491168825 1.208831175 -2.7 2.7 -2.7h 26.6c 1.491168825 0 2.7 1.208831175 2.7 2.7v 8.619c 0 1.491168825 -1.208831175 2.7 -2.7 2.7h -26.6c -1.491168825 0 -2.7 -1.208831175 -2.7 -2.7Z "/><path fill="none" stroke="#000000" stroke-width="0.6" stroke-linecap="butt" stroke-linejoin="miter" stroke-miterlimit="4" d="M 0 0m 2.7 0h 26.6c 1.491168825 0 2.7 1.208831175 2.7 2.7v 8.619c 0 1.491168825 -1.208831175 2.7 -2.7 2.7h -26.6c -1.491168825 0 -2.7 -1.208831175 -2.7 -2.7v -8.619c 0 -1.491168825 1.208831175 -2.7 2.7 -2.7"/><g transform="matrix(1 0 0 -1 5 11.019)"><use xlink:href="#g96E26EAFACC0C62C1C18A90C35B5E71B" x="0" y="0" fill="#000000" fill-rule="nonzero"/><use xlink:href="#g8E268EECF45DB2A41416A8BC008E6022" x="11" y="0" fill="#000000" fill-rule="nonzero"/></g></g></g></g></g><path fill="none" transform="translate(240.732283465 21.156341779)" d="M 0 0h 43v 14.019h -43v -14.019Z "/><g transform="translate(240.732283386 21.156341732)"><g><g transform="translate(0)"><g><path fill="#fff3bf" fill-rule="nonzero" d="M 0 0m 0 2.6c 0 -1.43594035 1.16405965 -2.6 2.6 -2.6h 37.8c 1.43594035 0 2.6 1.16405965 2.6 2.6v 8.819c 0 1.43594035 -1.16405965 2.6 -2.6 2.6h -37.8c -1.43594035 0 -2.6 -1.16405965 -2.6 -2.6Z "/><path fill="none" stroke="#e8a200" stroke-width="0.8" stroke-linecap="butt" stroke-linejoin="miter" stroke-miterlimit="4" d="M 0 0m 2.6 0h 37.8c 1.43594035 0 2.6 1.16405965 2.6 2.6v 8.819c 0 1.43594035 -1.16405965 2.6 -2.6 2.6h -37.8c -1.43594035 0 -2.6 -1.16405965 -2.6 -2.6v -8.819c 0 -1.43594035 1.16405965 -2.6 2.6 -2.6"/><g transform="matrix(1 0 0 -1 5 11.019)"><use xlink:href="#g6FE633C370E9F1878F57FD28B1086862" x="0" y="0" fill="#000000" fill-rule="nonzero"/><use xlink:href="#g2AE70ADDAB51F9D587766D645EB593AB" x="11" y="0" fill="#000000" fill-rule="nonzero"/><use xlink:href="#g5BE7BF59BFAE943FE134DAB51E518262" x="22" y="0" fill="#000000" fill-rule="nonzero"/></g></g></g></g></g><path fill="none" transform="translate(366.614925197 1.390936268)" d="M 0 0h 31.009v 8.019h -31.009v -8.019Z "/><g transform="translate(366.614925071 1.390936268)"><g><g transform="translate(0)"><g transform="matrix(1 0 0 -1 0 8.019)"><use xlink:href="#g9250140F6FB56EADF0E3B9548B7DA833" x="0" y="0" fill="#0b7285" fill-rule="nonzero"/><use xlink:href="#g826412ED6440940ED6A766EBBA0EC877" x="11" y="0" fill="#0b7285" fill-rule="nonzero"/><use xlink:href="#g120F064D16CD7591AC7E6701ED83DCD3" x="24.75" y="0" fill="#0b7285" fill-rule="nonzero"/></g></g></g></g><path fill="none" transform="translate(366.614925197 46.921747291)" d="M 0 0h 31.009v 8.019h -31.009v -8.019Z "/><g transform="translate(366.614925071 46.921747291)"><g><g transform="translate(0)"><g transform="matrix(1 0 0 -1 0 8.019)"><use xlink:href="#g9250140F6FB56EADF0E3B9548B7DA833" x="0" y="0" fill="#0b7285" fill-rule="nonzero"/><use xlink:href="#g826412ED6440940ED6A766EBBA0EC877" x="11" y="0" fill="#0b7285" fill-rule="nonzero"/><use xlink:href="#g7CE24CD80248845193E0CD2325AA6CE9" x="24.75" y="0" fill="#0b7285" fill-rule="nonzero"/></g></g></g></g><path fill="none" transform="translate(240.732283465 112.217963827)" d="M 0 0h 43v 14.019h -43v -14.019Z "/><g transform="translate(240.732283386 112.217963779)"><g><g transform="translate(0)"><g><path fill="#f5f5f5" fill-rule="nonzero" d="M 0 0m 0 2.7c 0 -1.491168825 1.208831175 -2.7 2.7 -2.7h 37.6c 1.491168825 0 2.7 1.208831175 2.7 2.7v 8.619c 0 1.491168825 -1.208831175 2.7 -2.7 2.7h -37.6c -1.491168825 0 -2.7 -1.208831175 -2.7 -2.7Z "/><path fill="none" stroke="#000000" stroke-width="0.6" stroke-linecap="butt" stroke-linejoin="miter" stroke-miterlimit="4" d="M 0 0m 2.7 0h 37.6c 1.491168825 0 2.7 1.208831175 2.7 2.7v 8.619c 0 1.491168825 -1.208831175 2.7 -2.7 2.7h -37.6c -1.491168825 0 -2.7 -1.208831175 -2.7 -2.7v -8.619c 0 -1.491168825 1.208831175 -2.7 2.7 -2.7"/><g transform="matrix(1 0 0 -1 5 11.019)"><use xlink:href="#g7C74E32D55EC78A446191641A0EA1D3F" x="0" y="0" fill="#000000" fill-rule="nonzero"/><use xlink:href="#gA9551DDC4712E28031638679F65421E2" x="11" y="0" fill="#000000" fill-rule="nonzero"/><use xlink:href="#gF06D9C93A7D6A5CAEE421E54AAFD84AF" x="22" y="0" fill="#000000" fill-rule="nonzero"/></g></g></g></g></g><path fill="none" transform="translate(366.664425197 92.452558315)" d="M 0 0h 30.91v 8.019h -30.91v -8.019Z "/><g transform="translate(366.664425071 92.452558315)"><g><g transform="translate(0)"><g transform="matrix(1 0 0 -1 0 8.019)"><use xlink:href="#g9250140F6FB56EADF0E3B9548B7DA833" x="0" y="0" fill="#0b7285" fill-rule="nonzero"/><use xlink:href="#g826412ED6440940ED6A766EBBA0EC877" x="11" y="0" fill="#0b7285" fill-rule="nonzero"/><use xlink:href="#g44991292739264F738ECFE4F8041D3C3" x="24.75" y="0" fill="#0b7285" fill-rule="nonzero"/></g></g></g></g><path fill="none" transform="translate(366.614925197 137.983369338)" d="M 0 0h 31.009v 8.019h -31.009v -8.019Z "/><g transform="translate(366.614925071 137.983369338)"><g><g transform="translate(0)"><g transform="matrix(1 0 0 -1 0 8.019)"><use xlink:href="#g9250140F6FB56EADF0E3B9548B7DA833" x="0" y="0" fill="#0b7285" fill-rule="nonzero"/><use xlink:href="#g826412ED6440940ED6A766EBBA0EC877" x="11" y="0" fill="#0b7285" fill-rule="nonzero"/><use xlink:href="#g8A0424EC54D9B4D30EF352128D2C397E" x="24.75" y="0" fill="#0b7285" fill-rule="nonzero"/></g></g></g></g><path fill="none" transform="translate(125.866141732 239.144959767)" d="M 0 0h 32v 14.019h -32v -14.019Z "/><g transform="translate(125.866141717 239.144959719)"><g><g transform="translate(0)"><g><path fill="#f5f5f5" fill-rule="nonzero" d="M 0 0m 0 2.7c 0 -1.491168825 1.208831175 -2.7 2.7 -2.7h 26.6c 1.491168825 0 2.7 1.208831175 2.7 2.7v 8.619c 0 1.491168825 -1.208831175 2.7 -2.7 2.7h -26.6c -1.491168825 0 -2.7 -1.208831175 -2.7 -2.7Z "/><path fill="none" stroke="#000000" stroke-width="0.6" stroke-linecap="butt" stroke-linejoin="miter" stroke-miterlimit="4" d="M 0 0m 2.7 0h 26.6c 1.491168825 0 2.7 1.208831175 2.7 2.7v 8.619c 0 1.491168825 -1.208831175 2.7 -2.7 2.7h -26.6c -1.491168825 0 -2.7 -1.208831175 -2.7 -2.7v -8.619c 0 -1.491168825 1.208831175 -2.7 2.7 -2.7"/><g transform="matrix(1 0 0 -1 5 11.019)"><use xlink:href="#gB940D0E548EEEFB7CE60BA1A052B9D14" x="0" y="0" fill="#000000" fill-rule="nonzero"/><use xlink:href="#gEBB2EC2D3F158246EDEFA8916D1931B3" x="11" y="0" fill="#000000" fill-rule="nonzero"/></g></g></g></g></g><path fill="none" transform="translate(240.732283465 203.966492124)" d="M 0 0h 43v 14.019h -43v -14.019Z "/><g transform="translate(240.732283386 203.966492077)"><g><g transform="translate(0)"><g><path fill="#fff3bf" fill-rule="nonzero" d="M 0 0m 0 2.6c 0 -1.43594035 1.16405965 -2.6 2.6 -2.6h 37.8c 1.43594035 0 2.6 1.16405965 2.6 2.6v 8.819c 0 1.43594035 -1.16405965 2.6 -2.6 2.6h -37.8c -1.43594035 0 -2.6 -1.16405965 -2.6 -2.6Z "/><path fill="none" stroke="#e8a200" stroke-width="0.8" stroke-linecap="butt" stroke-linejoin="miter" stroke-miterlimit="4" d="M 0 0m 2.6 0h 37.8c 1.43594035 0 2.6 1.16405965 2.6 2.6v 8.819c 0 1.43594035 -1.16405965 2.6 -2.6 2.6h -37.8c -1.43594035 0 -2.6 -1.16405965 -2.6 -2.6v -8.819c 0 -1.43594035 1.16405965 -2.6 2.6 -2.6"/><g transform="matrix(1 0 0 -1 5 11.019)"><use xlink:href="#g6FE633C370E9F1878F57FD28B1086862" x="0" y="0" fill="#000000" fill-rule="nonzero"/><use xlink:href="#g2AE70ADDAB51F9D587766D645EB593AB" x="11" y="0" fill="#000000" fill-rule="nonzero"/><use xlink:href="#g5BE7BF59BFAE943FE134DAB51E518262" x="22" y="0" fill="#000000" fill-rule="nonzero"/></g></g></g></g></g><path fill="none" transform="translate(366.614925197 183.514180362)" d="M 0 0h 31.009v 8.019h -31.009v -8.019Z "/><g transform="translate(366.614925071 183.514180362)"><g><g transform="translate(0)"><g transform="matrix(1 0 0 -1 0 8.019)"><use xlink:href="#g9250140F6FB56EADF0E3B9548B7DA833" x="0" y="0" fill="#0b7285" fill-rule="nonzero"/><use xlink:href="#g826412ED6440940ED6A766EBBA0EC877" x="11" y="0" fill="#0b7285" fill-rule="nonzero"/><use xlink:href="#g9D37644DF466665389B5A3FCD85951B" x="24.75" y="0" fill="#0b7285" fill-rule="nonzero"/></g></g></g></g><path fill="none" transform="translate(366.664425197 230.418803886)" d="M 0 0h 30.91v 8.019h -30.91v -8.019Z "/><g transform="translate(366.664425071 230.418803886)"><g><g transform="translate(0)"><g transform="matrix(1 0 0 -1 0 8.019)"><use xlink:href="#g9250140F6FB56EADF0E3B9548B7DA833" x="0" y="0" fill="#0b7285" fill-rule="nonzero"/><use xlink:href="#g826412ED6440940ED6A766EBBA0EC877" x="11" y="0" fill="#0b7285" fill-rule="nonzero"/><use xlink:href="#g44991292739264F738ECFE4F8041D3C3" x="24.75" y="0" fill="#0b7285" fill-rule="nonzero"/></g></g></g></g><path fill="none" transform="translate(246.738783465 277.323427409)" d="M 0 0h 30.987v 8.019h -30.987v -8.019Z "/><g transform="translate(246.738783323 277.323427409)"><g><g transform="translate(0)"><g transform="matrix(1 0 0 -1 0 8.019)"><use xlink:href="#g9250140F6FB56EADF0E3B9548B7DA833" x="0" y="0" fill="#0b7285" fill-rule="nonzero"/><use xlink:href="#g826412ED6440940ED6A766EBBA0EC877" x="11" y="0" fill="#0b7285" fill-rule="nonzero"/><use xlink:href="#g75766F6E01A57B224CE09910F9FB77E3" x="24.75" y="0" fill="#0b7285" fill-rule="nonzero"/></g></g></g></g><path fill="none" transform="translate(125.866141732 376.767752212)" d="M 0 0h 32v 14.019h -32v -14.019Z "/><g transform="translate(125.866141717 376.767752165)"><g><g transform="translate(0)"><g><path fill="#f5f5f5" fill-rule="nonzero" d="M 0 0m 0 2.7c 0 -1.491168825 1.208831175 -2.7 2.7 -2.7h 26.6c 1.491168825 0 2.7 1.208831175 2.7 2.7v 8.619c 0 1.491168825 -1.208831175 2.7 -2.7 2.7h -26.6c -1.491168825 0 -2.7 -1.208831175 -2.7 -2.7Z "/><path fill="none" stroke="#000000" stroke-width="0.6" stroke-linecap="butt" stroke-linejoin="miter" stroke-miterlimit="4" d="M 0 0m 2.7 0h 26.6c 1.491168825 0 2.7 1.208831175 2.7 2.7v 8.619c 0 1.491168825 -1.208831175 2.7 -2.7 2.7h -26.6c -1.491168825 0 -2.7 -1.208831175 -2.7 -2.7v -8.619c 0 -1.491168825 1.208831175 -2.7 2.7 -2.7"/><g transform="matrix(1 0 0 -1 5 11.019)"><use xlink:href="#g521C1DE0DB843B930515EB240BB70CC4" x="0" y="0" fill="#000000" fill-rule="nonzero"/><use xlink:href="#gCA42B4D5A7F766EA651FCDA1DDA46E6C" x="11" y="0" fill="#000000" fill-rule="nonzero"/></g></g></g></g></g><path fill="none" transform="translate(240.732283465 342.619643945)" d="M 0 0h 43v 14.019h -43v -14.019Z "/><g transform="translate(240.732283386 342.619643898)"><g><g transform="translate(0)"><g><path fill="#f5f5f5" fill-rule="nonzero" d="M 0 0m 0 2.7c 0 -1.491168825 1.208831175 -2.7 2.7 -2.7h 37.6c 1.491168825 0 2.7 1.208831175 2.7 2.7v 8.619c 0 1.491168825 -1.208831175 2.7 -2.7 2.7h -37.6c -1.491168825 0 -2.7 -1.208831175 -2.7 -2.7Z "/><path fill="none" stroke="#000000" stroke-width="0.6" stroke-linecap="butt" stroke-linejoin="miter" stroke-miterlimit="4" d="M 0 0m 2.7 0h 37.6c 1.491168825 0 2.7 1.208831175 2.7 2.7v 8.619c 0 1.491168825 -1.208831175 2.7 -2.7 2.7h -37.6c -1.491168825 0 -2.7 -1.208831175 -2.7 -2.7v -8.619c 0 -1.491168825 1.208831175 -2.7 2.7 -2.7"/><g transform="matrix(1 0 0 -1 5 11.019)"><use xlink:href="#gA1EF33B6F5CB8777FA6FE797F6732F65" x="0" y="0" fill="#000000" fill-rule="nonzero"/><use xlink:href="#g5730231341B7C4C7AB8A2363F7C4B89B" x="11" y="0" fill="#000000" fill-rule="nonzero"/><use xlink:href="#g24094E24DBBB4204554FA498D78007D8" x="22" y="0" fill="#000000" fill-rule="nonzero"/></g></g></g></g></g><path fill="none" transform="translate(366.598425197 322.854238433)" d="M 0 0h 31.042v 8.019h -31.042v -8.019Z "/><g transform="translate(366.598425165 322.854238433)"><g><g transform="translate(0)"><g transform="matrix(1 0 0 -1 0 8.019)"><use xlink:href="#g9250140F6FB56EADF0E3B9548B7DA833" x="0" y="0" fill="#0b7285" fill-rule="nonzero"/><use xlink:href="#g826412ED6440940ED6A766EBBA0EC877" x="11" y="0" fill="#0b7285" fill-rule="nonzero"/><use xlink:href="#gDB0A405429364AA2A223D3748608901D" x="24.75" y="0" fill="#0b7285" fill-rule="nonzero"/></g></g></g></g><path fill="none" transform="translate(366.631425197 368.385049457)" d="M 0 0h 30.976v 8.019h -30.976v -8.019Z "/><g transform="translate(366.631425118 368.385049457)"><g><g transform="translate(0)"><g transform="matrix(1 0 0 -1 0 8.019)"><use xlink:href="#g9250140F6FB56EADF0E3B9548B7DA833" x="0" y="0" fill="#0b7285" fill-rule="nonzero"/><use xlink:href="#g826412ED6440940ED6A766EBBA0EC877" x="11" y="0" fill="#0b7285" fill-rule="nonzero"/><use xlink:href="#g8D947C4A558EC950ECD40DE9C11C16E" x="24.75" y="0" fill="#0b7285" fill-rule="nonzero"/></g></g></g></g><path fill="none" transform="translate(246.744283465 413.91586048)" d="M 0 0h 30.976v 8.019h -30.976v -8.019Z "/><g transform="translate(246.744283386 413.91586048)"><g><g transform="translate(0)"><g transform="matrix(1 0 0 -1 0 8.019)"><use xlink:href="#g9250140F6FB56EADF0E3B9548B7DA833" x="0" y="0" fill="#0b7285" fill-rule="nonzero"/><use xlink:href="#g826412ED6440940ED6A766EBBA0EC877" x="11" y="0" fill="#0b7285" fill-rule="nonzero"/><use xlink:href="#g8D947C4A558EC950ECD40DE9C11C16E" x="24.75" y="0" fill="#0b7285" fill-rule="nonzero"/></g></g></g></g></g></g><defs><symbol id="g173A328D152FE78978AC67EC57E7E5C8" overflow="visible"><path d="M 0 0m 1.331 6.105v -6.952h 0.143c 0.275 0 0.572 0.165 0.572 0.264v 0.429h 8.239c 0.165 0 0.275 0.055 0.308 0.176c -0.407 0.363 -1.045 0.847 -1.045 0.847l -0.572 -0.693h -6.93v 5.5c 0.275 0.033 0.374 0.154 0.407 0.308Z m 2.233 0.165v -5.434h 0.11c 0.308 0 0.583 0.176 0.583 0.264v 0.297h 3.674v -0.495h 0.11c 0.253 0 0.594 0.187 0.605 0.264v 4.653c 0.22 0.044 0.396 0.132 0.473 0.22l -0.891 0.682l -0.407 -0.451h -2.002l 0.099 1.188h 4.114c 0.154 0 0.275 0.055 0.308 0.176c -0.407 0.352 -1.056 0.847 -1.056 0.847l -0.572 -0.715h -2.761l 0.088 1.056c 0.22 0.044 0.341 0.154 0.363 0.308l -1.111 0.088l -0.055 -1.452h -4.598l 0.099 -0.308h 4.488l -0.066 -1.188h -0.836l -0.759 0.363Z m 4.367 -0.319v -1.177h -3.674v 1.177Z m -3.674 -4.224v 1.221h 3.674v -1.221Z m 0 1.551v 1.188h 3.674v -1.188Z "/></symbol><symbol id="g3EFF77D5AA6069AB3AD827BEF892BB5" overflow="visible"><path d="M 0 0m 0.781 8.888l -0.121 -0.088c 0.561 -0.484 1.21 -1.331 1.353 -2.013c 0.814 -0.605 1.419 1.21 -1.232 2.101Z m 4.07 -1.903h 1.881v -1.474h -1.881Z m 0.121 2.255c -0.506 -1.562 -1.364 -3.069 -2.156 -4.004l 0.143 -0.11c 0.407 0.308 0.803 0.693 1.177 1.133v -5.533h 0.121c 0.363 0 0.594 0.187 0.594 0.242v 0.506h 5.313c 0.154 0 0.275 0.055 0.297 0.176c -0.374 0.33 -0.957 0.803 -0.957 0.803l -0.528 -0.649h -1.54v 1.562h 2.321c 0.132 0 0.242 0.055 0.264 0.176c -0.33 0.33 -0.88 0.748 -0.88 0.748l -0.484 -0.594h -1.221v 1.507h 2.321c 0.132 0 0.242 0.055 0.264 0.176c -0.33 0.308 -0.88 0.748 -0.88 0.748l -0.484 -0.616h -1.221v 1.474h 2.541c 0.154 0 0.253 0.055 0.286 0.176c -0.352 0.33 -0.935 0.77 -0.935 0.77l -0.495 -0.627h -1.749c 0.352 0.429 0.682 0.935 0.902 1.342c 0.242 0 0.363 0.099 0.396 0.231l -1.177 0.253c -0.088 -0.55 -0.275 -1.287 -0.451 -1.826h -1.771l -0.055 0.022c 0.264 0.407 0.506 0.836 0.715 1.287c 0.253 -0.022 0.385 0.066 0.44 0.198Z m -0.121 -4.037h 1.881v -1.507h -1.881Z m 0 -1.837h 1.881v -1.562h -1.881Z m -2.222 0.726c 0.297 0.044 0.462 0.132 0.528 0.209l -0.935 0.792l -0.429 -0.572h -1.342l 0.066 -0.319h 1.419v -3.3c -0.561 -0.341 -1.144 -0.671 -1.529 -0.847l 0.528 -0.88c 0.099 0.044 0.143 0.121 0.121 0.253c 0.396 0.352 1.023 1.012 1.43 1.496c 0.781 -1.254 1.683 -1.507 3.707 -1.507c 1.232 0 2.761 0 3.861 0c 0.044 0.33 0.231 0.528 0.55 0.594v 0.154c -1.342 -0.044 -3.113 -0.044 -4.422 -0.044c -1.914 0 -2.761 0.132 -3.553 1.034Z "/></symbol><symbol id="gB15B575C564340DC810A00E27B16A372" overflow="visible"><path d="M 0 0m 3.762 4.51c -0.022 -0.319 -0.319 -0.77 -0.506 -0.946c -0.209 -0.143 -0.33 -0.396 -0.22 -0.594c 0.143 -0.242 0.517 -0.187 0.682 -0.022c 0.154 0.176 0.275 0.473 0.297 0.858h 5.555l -0.231 -0.726l 0.165 -0.066c 0.242 0.154 0.627 0.473 0.847 0.671c 0.209 0.011 0.33 0.033 0.407 0.11l -0.792 0.77l -0.429 -0.451h -5.522c -0.011 0.121 -0.033 0.253 -0.055 0.385Z m -0.209 3.421l 0.088 -0.319h 6.611c 0.154 0 0.253 0.044 0.286 0.165c -0.374 0.341 -0.957 0.803 -0.957 0.803l -0.528 -0.649h -1.826v 0.902c 0.253 0.044 0.341 0.143 0.363 0.286l -1.078 0.099v -1.287Z m 0.902 -1.122v -2.244h 0.11c 0.286 0 0.605 0.154 0.605 0.209v 0.253h 3.476v -0.319h 0.11c 0.242 0 0.594 0.165 0.605 0.231v 1.441c 0.198 0.033 0.363 0.121 0.418 0.198l -0.847 0.638l -0.385 -0.407h -3.322l -0.77 0.341Z m 4.191 -1.463h -3.476v 1.144h 3.476Z m -4.73 -2.585l 0.088 -0.319h 2.585v -2.233c 0 -0.143 -0.055 -0.198 -0.253 -0.198c -0.242 0 -1.43 0.088 -1.43 0.088v -0.165c 0.528 -0.077 0.825 -0.154 0.99 -0.275c 0.143 -0.121 0.22 -0.319 0.242 -0.539c 1.012 0.088 1.166 0.506 1.166 1.078v 2.244h 2.332c 0.154 0 0.253 0.055 0.286 0.165c -0.352 0.308 -0.891 0.693 -0.891 0.693l -0.473 -0.539Z m -1.122 6.446c -0.55 -2.079 -1.518 -4.158 -2.442 -5.467l 0.154 -0.11c 0.462 0.451 0.902 0.99 1.309 1.606v -6.083h 0.132c 0.275 0 0.572 0.176 0.583 0.242v 6.556c 0.187 0.022 0.286 0.099 0.319 0.198l -0.396 0.143c 0.407 0.737 0.759 1.518 1.056 2.343c 0.242 -0.011 0.374 0.088 0.429 0.22Z "/></symbol><symbol id="g7476CC95DAFC6CDAC622B3C6A028DCB3" overflow="visible"><path d="M 0 0m 1.947 6.358v -4.4h 0.121c 0.297 0 0.605 0.165 0.605 0.242v 0.429h 2.42v -1.298h -4.62l 0.099 -0.319h 4.521v -1.87h 0.154c 0.264 0 0.583 0.165 0.583 0.275v 1.595h 4.411c 0.154 0 0.275 0.055 0.297 0.165c -0.396 0.363 -1.034 0.847 -1.034 0.847l -0.572 -0.693h -3.102v 1.298h 2.486v -0.495h 0.11c 0.242 0 0.605 0.165 0.616 0.242v 3.531c 0.209 0.044 0.385 0.132 0.462 0.22l -0.891 0.682l -0.407 -0.451h -2.376v 1.111h 4.092c 0.154 0 0.275 0.055 0.308 0.176c -0.407 0.352 -1.067 0.825 -1.067 0.825l -0.561 -0.682h -2.772v 1.001c 0.275 0.044 0.363 0.154 0.396 0.308l -1.133 0.121v -1.43h -4.323l 0.099 -0.319h 4.224v -1.111h -2.354l -0.792 0.363Z m 3.146 -0.319v -1.331h -2.42v 1.331Z m 0.737 0h 2.486v -1.331h -2.486Z m -0.737 -3.08h -2.42v 1.419h 2.42Z m 0.737 0v 1.419h 2.486v -1.419Z "/></symbol><symbol id="gB9B6AD9072666A5B3CF10C4B8280F0E7" overflow="visible"><path d="M 0 0m 4.642 2.86l -0.099 -0.11c 0.616 -0.363 1.364 -1.045 1.573 -1.639c 0.825 -0.429 1.155 1.276 -1.474 1.749Z m 3.388 -0.418l -0.11 -0.099c 0.759 -0.55 1.672 -1.54 1.881 -2.365c 0.902 -0.583 1.375 1.441 -1.771 2.464Z m -4.741 0.165v -2.53c 0 -0.572 0.198 -0.715 1.177 -0.715h 1.485c 2.046 0 2.42 0.11 2.42 0.462c 0 0.143 -0.077 0.22 -0.33 0.297l -0.022 1.265h -0.154c -0.121 -0.572 -0.242 -1.056 -0.33 -1.221c -0.055 -0.099 -0.088 -0.132 -0.253 -0.143c -0.176 -0.011 -0.671 -0.022 -1.309 -0.022h -1.419c -0.495 0 -0.55 0.044 -0.55 0.198v 2.024c 0.209 0.033 0.308 0.132 0.319 0.264Z m -1.21 -0.275c -0.121 -0.858 -0.77 -1.573 -1.276 -1.837c -0.231 -0.143 -0.374 -0.374 -0.275 -0.583c 0.143 -0.231 0.539 -0.198 0.825 0.011c 0.473 0.308 1.089 1.133 0.924 2.398Z m 1.639 6.963c -0.583 -1.419 -1.815 -2.992 -3.08 -3.872l 0.121 -0.132c 0.539 0.275 1.067 0.627 1.562 1.034h 5.896v -1.199h -5.951l 0.099 -0.33h 5.852v -1.243h -6.248l 0.099 -0.319h 6.149v -0.506h 0.099c 0.242 0 0.605 0.187 0.616 0.253v 3.201c 0.22 0.044 0.396 0.143 0.462 0.231l -0.891 0.682l -0.396 -0.44h -2.365c 0.506 0.374 1.034 0.891 1.397 1.221c 0.22 0.022 0.352 0.033 0.44 0.11l -0.858 0.781l -0.484 -0.473h -2.09c 0.132 0.176 0.242 0.363 0.352 0.539c 0.275 -0.033 0.363 0.011 0.407 0.121Z m -1.023 -2.64c 0.451 0.418 0.869 0.869 1.21 1.32h 2.299c -0.22 -0.396 -0.517 -0.924 -0.803 -1.32Z "/></symbol><symbol id="g2E72BD8F8388157CB87EEC74141C90C4" overflow="visible"><path d="M 0 0m 7.733 5.291c 0.231 -0.275 0.352 -0.539 0.506 -0.539c 0.187 0 0.286 0.11 0.286 0.308c 0 0.209 -0.121 0.407 -0.385 0.66c -0.286 0.253 -0.704 0.517 -1.265 0.748l -0.154 -0.187c 0.462 -0.352 0.781 -0.704 1.012 -0.99Z m 1.023 0.913c 0.231 -0.286 0.341 -0.539 0.528 -0.539c 0.165 0 0.264 0.099 0.264 0.286c 0 0.242 -0.132 0.451 -0.418 0.682c -0.264 0.231 -0.682 0.451 -1.254 0.66l -0.143 -0.198c 0.495 -0.352 0.77 -0.616 1.023 -0.891Z m -3.454 2.31c 0.451 -0.308 0.605 -0.517 0.605 -0.704c 0 -0.132 -0.066 -0.242 -0.253 -0.462c -0.506 -0.616 -2.134 -2.2 -2.684 -2.849c -0.176 -0.187 -0.286 -0.385 -0.286 -0.583c 0 -0.242 0.143 -0.473 0.429 -0.704c 1.331 -1.133 2.123 -1.925 2.64 -2.706c 0.308 -0.462 0.407 -0.737 0.528 -0.957c 0.077 -0.143 0.209 -0.264 0.385 -0.264c 0.275 0 0.418 0.187 0.418 0.473c 0 0.319 -0.231 0.759 -0.539 1.144c -0.781 0.99 -1.738 1.705 -2.871 2.607c -0.242 0.187 -0.374 0.33 -0.374 0.473c 0 0.132 0.066 0.253 0.385 0.572c 0.462 0.462 1.914 1.804 2.651 2.398c 0.385 0.286 0.572 0.374 0.572 0.605c 0 0.264 -0.407 0.726 -0.792 0.935c -0.209 0.121 -0.418 0.176 -0.682 0.231Z "/></symbol><symbol id="gB44F0ED339ED42E789033BEF05981A08" overflow="visible"><path d="M 0 0m 9.251 5.654l -0.693 -0.913h -8.03l 0.11 -0.363h 9.57c 0.176 0 0.308 0.033 0.341 0.165c -0.495 0.462 -1.298 1.111 -1.298 1.111Z "/></symbol><symbol id="gBDABD0838EF98152B134ADC4A71D506E" overflow="visible"><path d="M 0 0m 1.474 9.086l -0.099 -0.099c 0.484 -0.341 1.089 -0.946 1.265 -1.463c 0.814 -0.44 1.254 1.21 -1.166 1.562Z m -0.946 -2.442l -0.11 -0.11c 0.495 -0.297 1.078 -0.847 1.254 -1.32c 0.803 -0.44 1.199 1.166 -1.144 1.43Z m 0.693 -4.422c -0.121 0 -0.484 0 -0.484 0v -0.231c 0.242 -0.022 0.396 -0.055 0.539 -0.154c 0.242 -0.165 0.308 -1.012 0.154 -2.134c 0.022 -0.341 0.154 -0.55 0.352 -0.55c 0.374 0 0.594 0.286 0.616 0.759c 0.044 0.891 -0.275 1.386 -0.286 1.87c 0 0.275 0.088 0.616 0.187 0.946c 0.165 0.528 1.122 3.047 1.617 4.4l -0.198 0.055c -2.002 -4.345 -2.002 -4.345 -2.211 -4.73c -0.11 -0.22 -0.143 -0.231 -0.286 -0.231Z m 3.817 1.441h 4.147v -3.179h -4.147Z m 0 0.319v 2.86h 4.147v -2.86Z m 1.617 5.225c -0.11 -0.616 -0.286 -1.485 -0.407 -2.046h -1.078l -0.825 0.352v -8.36h 0.11c 0.363 0 0.583 0.176 0.583 0.231v 0.781h 4.147v -0.935h 0.121c 0.33 0 0.616 0.187 0.616 0.242v 7.293c 0.242 0.033 0.385 0.11 0.462 0.198l -0.847 0.671l -0.396 -0.473h -2.541c 0.286 0.462 0.671 1.1 0.924 1.562c 0.231 0 0.363 0.088 0.407 0.253Z "/></symbol><symbol id="gAD2F1ABBBBA0394898EE137275E372B7" overflow="visible"><path d="M 0 0m 5.06 7.568c -0.011 -0.363 -0.022 -0.704 -0.088 -1.012h -2.926l 0.088 -0.319h 2.75c -0.297 -0.759 -1.1 -1.353 -3.377 -1.815l 0.11 -0.176c 2.101 0.33 3.124 0.781 3.641 1.32c 1.32 -0.297 2.233 -0.715 2.783 -1.166c 0.759 -0.517 1.705 1.023 -2.596 1.408c 0.088 0.132 0.154 0.275 0.209 0.429h 3.157c 0.143 0 0.253 0.055 0.275 0.176c -0.341 0.308 -0.869 0.704 -0.869 0.704l -0.473 -0.561h -2.013c 0.044 0.209 0.066 0.429 0.088 0.649c 0.22 0.022 0.308 0.143 0.33 0.264Z m -4.521 -3.553l 0.088 -0.319h 7.139v -3.52c 0 -0.154 -0.066 -0.209 -0.275 -0.209c -0.264 0 -1.595 0.099 -1.595 0.099v -0.176c 0.583 -0.066 0.913 -0.143 1.1 -0.275c 0.154 -0.11 0.231 -0.286 0.253 -0.495c 1.078 0.099 1.232 0.484 1.232 1.045v 3.531h 1.782c 0.154 0 0.253 0.055 0.286 0.176c -0.374 0.33 -0.968 0.792 -0.968 0.792l -0.539 -0.649Z m 1.837 -1.21v -2.816h 0.11c 0.286 0 0.594 0.165 0.594 0.231v 0.55h 2.321v -0.451h 0.11c 0.231 0 0.594 0.165 0.605 0.231v 1.837c 0.176 0.033 0.33 0.121 0.396 0.198l -0.836 0.616l -0.374 -0.396h -2.167l -0.759 0.341Z m 0.704 -1.716v 1.397h 2.321v -1.397Z m -1.375 7.513c 0.055 -0.682 -0.319 -1.287 -0.737 -1.518c -0.231 -0.11 -0.385 -0.33 -0.286 -0.572c 0.121 -0.264 0.495 -0.253 0.77 -0.066c 0.297 0.198 0.583 0.638 0.583 1.298h 7.194c -0.132 -0.341 -0.319 -0.748 -0.451 -1.001l 0.132 -0.077c 0.385 0.242 0.913 0.649 1.188 0.968c 0.209 0.011 0.341 0.022 0.429 0.099l -0.836 0.792l -0.462 -0.451h -3.377v 0.748c 0.275 0.033 0.374 0.143 0.396 0.297l -1.122 0.11v -1.155h -3.113c -0.022 0.165 -0.066 0.341 -0.121 0.528Z "/></symbol><symbol id="gCA64CA756D387EE4A8CD62C1C5EDAF3C" overflow="visible"><path d="M 0 0m 3.08 8.767c 0.462 -0.528 0.627 -0.792 0.627 -1.364c 0 -0.594 -0.528 -2.717 -0.528 -3.905c 0 -0.286 0.055 -0.792 0.165 -1.023c 0.099 -0.22 0.231 -0.275 0.385 -0.275c 0.176 0 0.308 0.132 0.308 0.352c 0 0.363 -0.066 0.682 -0.066 1.122c 0 0.77 0.22 1.419 0.572 2.101c 0.385 0.737 1.078 1.232 1.595 1.232c 0.77 0 1.265 -1.067 1.265 -2.86c 0 -1.969 -0.649 -3.641 -3.311 -4.708l 0.121 -0.253c 2.948 0.77 3.96 2.607 3.96 4.884c 0 1.958 -0.605 3.377 -1.925 3.377c -0.715 0 -1.485 -0.66 -2.002 -1.573c -0.121 -0.22 -0.209 -0.209 -0.165 0.022c 0.077 0.429 0.143 0.759 0.253 1.111c 0.066 0.264 0.143 0.418 0.143 0.649c 0 0.242 -0.319 0.737 -0.726 1.012c -0.154 0.11 -0.308 0.176 -0.528 0.242Z "/></symbol><symbol id="g92E169055BD26A0046733234236F04FB" overflow="visible"><path d="M 0 0m 4.785 9.218l -0.11 -0.066c 0.33 -0.385 0.682 -1.001 0.704 -1.507c 0.704 -0.583 1.419 0.891 -0.594 1.573Z m -3.817 -0.363l -0.121 -0.088c 0.539 -0.484 1.188 -1.331 1.342 -2.002c 0.825 -0.572 1.408 1.177 -1.221 2.09Z m 3.421 -2.75v -5.445h 0.121c 0.308 0 0.583 0.176 0.583 0.253v 0.429h 3.509v -0.605h 0.099c 0.242 0 0.594 0.165 0.605 0.242v 4.664c 0.22 0.044 0.396 0.132 0.462 0.22l -0.88 0.682l -0.396 -0.44h -1.98c 0.176 0.308 0.374 0.682 0.528 1.012h 3.267c 0.154 0 0.264 0.055 0.286 0.176c -0.363 0.352 -0.946 0.803 -0.946 0.803l -0.528 -0.66h -1.518c 0.429 0.396 0.847 0.902 1.122 1.287c 0.231 -0.011 0.374 0.077 0.407 0.209l -1.166 0.308c -0.154 -0.539 -0.418 -1.276 -0.66 -1.804h -3.905l 0.088 -0.319h 2.695l -0.132 -1.012h -0.902l -0.759 0.352Z m 4.213 -1.771v -1.133h -3.509v 1.133Z m 0 0.33h -3.509v 1.111h 3.509Z m 0 -1.782v -1.21h -3.509v 1.21Z m -5.797 1.21c 0.297 0.044 0.462 0.132 0.539 0.209l -0.957 0.781l -0.418 -0.55h -1.529l 0.066 -0.33h 1.617v -3.245c -0.627 -0.352 -1.287 -0.693 -1.716 -0.88l 0.517 -0.924c 0.099 0.055 0.154 0.121 0.121 0.264c 0.44 0.363 1.155 1.023 1.606 1.518c 0.77 -1.265 1.65 -1.518 3.641 -1.518c 1.221 0 2.706 0 3.773 0c 0.044 0.341 0.231 0.539 0.55 0.605v 0.154c -1.32 -0.044 -3.047 -0.044 -4.323 -0.044c -1.892 0 -2.728 0.132 -3.487 1.012Z "/></symbol><symbol id="gA886860D9DE3CD87AF51CB991B28DDE0" overflow="visible"><path d="M 0 0m 0.407 1.298l 0.473 -0.979c 0.11 0.033 0.198 0.143 0.22 0.275c 1.133 0.627 2.024 1.166 2.695 1.562v -2.981h 0.143c 0.264 0 0.572 0.154 0.572 0.264v 8.987c 0.275 0.044 0.363 0.165 0.385 0.319l -1.1 0.121v -3.036h -3.047l 0.099 -0.308h 2.948v -3.124c -1.43 -0.495 -2.794 -0.968 -3.388 -1.1Z m 9.141 5.742c -0.627 -0.759 -1.617 -1.804 -2.574 -2.552v 3.938c 0.253 0.044 0.363 0.165 0.385 0.308l -1.111 0.132v -8.426c 0 -0.66 0.253 -0.869 1.144 -0.869h 1.111c 1.705 0 2.112 0.088 2.112 0.44c 0 0.132 -0.055 0.22 -0.319 0.308l -0.044 1.617h -0.143c -0.132 -0.682 -0.286 -1.397 -0.352 -1.562c -0.066 -0.099 -0.121 -0.132 -0.231 -0.143c -0.154 -0.011 -0.506 -0.022 -1.001 -0.022h -1.023c -0.451 0 -0.528 0.099 -0.528 0.374v 3.652c 1.188 0.605 2.398 1.452 3.08 2.057c 0.187 -0.066 0.352 -0.033 0.44 0.066Z "/></symbol><symbol id="gA4726F28EF6EE8E56865B4A370CB4D11" overflow="visible"><path d="M 0 0m 9.009 0.539h -7.106v 7.612h 7.106Z m -7.106 -1.067v 0.737h 7.106v -0.913h 0.11c 0.253 0 0.594 0.187 0.605 0.275v 8.448c 0.22 0.044 0.407 0.132 0.484 0.22l -0.891 0.704l -0.418 -0.462h -6.919l -0.781 0.374v -9.658h 0.132c 0.33 0 0.572 0.187 0.572 0.275Z m 4.939 3.597h -2.673v 2.959h 2.673Z m -2.673 -0.946v 0.627h 2.673v -0.759h 0.11c 0.231 0 0.561 0.176 0.572 0.253v 3.674c 0.22 0.044 0.396 0.121 0.473 0.209l -0.869 0.66l -0.396 -0.429h -2.508l -0.726 0.341v -4.807h 0.121c 0.286 0 0.55 0.165 0.55 0.231Z "/></symbol><symbol id="g3BF4BDDB04D73737251D3129FF3CE125" overflow="visible"><path d="M 0 0m 1.023 8.888l -0.121 -0.088c 0.55 -0.484 1.199 -1.331 1.342 -2.013c 0.814 -0.605 1.408 1.21 -1.221 2.101Z m 3.542 -4.367h 1.892v -1.342h -1.892Z m 0 0.319v 1.287h 1.892v -1.287Z m 0.451 3.069l -0.055 -0.187c 1.045 -0.363 1.782 -0.825 2.178 -1.254l 0.033 -0.022h -2.541l -0.759 0.352v -6.171h 0.121c 0.297 0 0.572 0.176 0.572 0.253v 1.98h 1.892v -2.145h 0.099c 0.363 0 0.583 0.165 0.583 0.209v 1.936h 1.936v -1.188c 0 -0.154 -0.033 -0.209 -0.209 -0.209c -0.198 0 -0.99 0.066 -0.99 0.066v -0.176c 0.385 -0.044 0.594 -0.132 0.726 -0.231c 0.11 -0.11 0.154 -0.286 0.176 -0.495c 0.902 0.099 1.012 0.418 1.012 0.979v 4.389c 0.209 0.033 0.396 0.132 0.462 0.198l -0.924 0.704l -0.363 -0.451h -1.254c 0.176 0.154 0.154 0.484 -0.374 0.803c 0.726 0.264 1.639 0.649 2.134 0.99c 0.242 0.011 0.374 0.022 0.462 0.099l -0.814 0.781l -0.473 -0.451h -4.895l 0.099 -0.319h 4.587c -0.385 -0.33 -0.913 -0.693 -1.353 -0.968c -0.429 0.209 -1.089 0.396 -2.068 0.528Z m 2.123 -1.782h 1.936v -1.287h -1.936Z m 0 -1.606h 1.936v -1.342h -1.936Z m -4.51 -0.429c 0.297 0.044 0.462 0.132 0.528 0.209l -0.935 0.792l -0.429 -0.572h -1.342l 0.066 -0.319h 1.419v -3.3c -0.561 -0.341 -1.144 -0.671 -1.529 -0.847l 0.528 -0.88c 0.099 0.044 0.143 0.121 0.121 0.253c 0.396 0.352 1.023 1.012 1.43 1.496c 0.781 -1.254 1.683 -1.507 3.707 -1.507c 1.232 0 2.761 0 3.861 0c 0.044 0.33 0.231 0.528 0.55 0.594v 0.154c -1.342 -0.044 -3.113 -0.044 -4.422 -0.044c -1.914 0 -2.761 0.132 -3.553 1.034Z "/></symbol><symbol id="gC71618549C4AFA170153B8C02872F207" overflow="visible"><path d="M 0 0m 1.111 8.701l -0.121 -0.088c 0.561 -0.484 1.199 -1.331 1.342 -2.013c 0.814 -0.594 1.419 1.21 -1.221 2.101Z m 3.487 -0.066v -3.179h -0.187l -0.726 0.341v -5.038h 0.11c 0.286 0 0.561 0.154 0.561 0.231v 4.136h 4.906v -3.652c 0 -0.121 -0.044 -0.198 -0.198 -0.198c -0.176 0 -0.902 0.066 -0.902 0.066v -0.165c 0.352 -0.055 0.539 -0.11 0.66 -0.209c 0.11 -0.077 0.154 -0.22 0.165 -0.385c 0.847 0.077 0.946 0.352 0.946 0.847v 3.608c 0.187 0.033 0.352 0.121 0.407 0.198l -0.847 0.616l -0.33 -0.396h -0.253v 2.772c 0.286 0.033 0.418 0.088 0.506 0.198l -0.935 0.693l -0.374 -0.484h -2.717l -0.792 0.352Z m 1.826 -1.441v -1.738h -1.166v 2.86h 2.981v -1.122h -1.067l -0.748 0.341Z m 1.815 -1.738h -1.199v 1.43h 1.199Z m -2.816 -1.199v -2.717h 0.099c 0.253 0 0.517 0.143 0.517 0.198v 0.451h 1.562v -0.506h 0.088c 0.209 0 0.528 0.154 0.539 0.231v 1.969c 0.154 0.022 0.297 0.099 0.341 0.176l -0.715 0.55l -0.33 -0.352h -1.43l -0.671 0.308Z m 0.616 -1.738v 1.419h 1.562v -1.419Z m -3.41 1.573c 0.297 0.044 0.462 0.132 0.528 0.209l -0.935 0.792l -0.429 -0.572h -1.342l 0.066 -0.319h 1.419v -3.3c -0.561 -0.341 -1.144 -0.671 -1.529 -0.847l 0.528 -0.88c 0.099 0.044 0.143 0.121 0.121 0.253c 0.396 0.352 1.023 1.012 1.43 1.496c 0.781 -1.254 1.683 -1.507 3.718 -1.507c 1.232 0 2.761 0 3.861 0c 0.044 0.33 0.231 0.528 0.55 0.594v 0.154c -1.342 -0.044 -3.113 -0.044 -4.422 -0.044c -1.925 0 -2.772 0.132 -3.564 1.034Z "/></symbol><symbol id="g235EC8A58300ABC37E22D0578C57446C" overflow="visible"><path d="M 0 0m 1.199 8.976l -0.11 -0.11c 0.517 -0.363 1.177 -1.034 1.408 -1.562c 0.781 -0.418 1.155 1.166 -1.298 1.672Z m -0.44 -2.277l -0.11 -0.11c 0.55 -0.33 1.243 -0.946 1.496 -1.463c 0.803 -0.363 1.111 1.243 -1.386 1.573Z m 3.025 1.606l 0.088 -0.319h 2.706v -2.409h -3.069l 0.088 -0.319h 2.981v -3.388c 0 -0.187 -0.066 -0.242 -0.286 -0.242c -0.264 0 -1.595 0.088 -1.595 0.088v -0.165c 0.583 -0.077 0.902 -0.165 1.089 -0.286c 0.176 -0.11 0.253 -0.308 0.264 -0.528c 1.1 0.11 1.243 0.528 1.243 1.1v 3.421h 2.97c 0.154 0 0.264 0.055 0.297 0.176c -0.385 0.341 -0.99 0.814 -0.99 0.814l -0.55 -0.671h -1.727v 2.409h 2.629c 0.154 0 0.275 0.055 0.297 0.176c -0.374 0.341 -0.968 0.803 -0.968 0.803l -0.517 -0.66Z m -0.946 -5.016c 0.297 0.033 0.462 0.132 0.539 0.198l -0.957 0.792l -0.429 -0.561h -1.551l 0.066 -0.33h 1.65v -2.431c -0.638 -0.341 -1.32 -0.693 -1.749 -0.88l 0.506 -0.913c 0.099 0.044 0.154 0.132 0.132 0.264c 0.451 0.352 1.177 1.012 1.639 1.496c 0.759 -1.243 1.65 -1.496 3.619 -1.496c 1.21 0 2.695 0 3.762 0c 0.055 0.341 0.231 0.539 0.55 0.594v 0.154c -1.309 -0.033 -3.036 -0.044 -4.312 -0.044c -1.881 0 -2.706 0.143 -3.465 1.001Z "/></symbol><symbol id="g3128E0D3CC2AFA8A59D45D0B2523447D" overflow="visible"><path d="M 0 0m 9.042 3.674h -3.212v 2.915h 3.212Z m -2.805 5.423l -1.144 0.121v -2.31h -3.124l -0.803 0.374v -4.972h 0.121c 0.308 0 0.605 0.176 0.605 0.253v 0.792h 3.201v -4.213h 0.143c 0.286 0 0.594 0.176 0.594 0.297v 3.916h 3.212v -0.913h 0.11c 0.242 0 0.616 0.165 0.627 0.231v 3.773c 0.22 0.044 0.396 0.132 0.473 0.22l -0.913 0.704l -0.407 -0.462h -3.102v 1.881c 0.286 0.044 0.374 0.154 0.407 0.308Z m -4.345 -5.423v 2.915h 3.201v -2.915Z "/></symbol><symbol id="gD90B3860012F4E3618EC3B2BBF64C2D3" overflow="visible"><path d="M 0 0m 8.162 3.641h -2.585c 0.198 0.935 0.253 2.002 0.264 3.212h 2.321Z m -6.193 3.531v -3.531h -1.54l 0.088 -0.308h 4.257c -0.484 -1.793 -1.617 -3.047 -4.334 -3.982l 0.11 -0.209c 3.19 0.913 4.455 2.244 4.961 4.191h 0.209c 0.407 -1.397 1.353 -3.102 4.136 -4.18c 0.088 0.418 0.33 0.55 0.737 0.594v 0.143c -2.926 0.869 -4.147 2.211 -4.631 3.443h 4.4c 0.154 0 0.264 0.044 0.286 0.165c -0.33 0.385 -0.913 0.946 -0.913 0.946l -0.517 -0.803h -0.33v 3.08c 0.22 0.044 0.385 0.132 0.462 0.22l -0.88 0.682l -0.418 -0.451h -2.2l 0.011 1.584c 0.264 0.044 0.363 0.154 0.396 0.308l -1.155 0.121l 0.011 -2.013h -2.299l -0.847 0.363Z m 2.882 -3.531h -2.156v 3.212h 2.409c 0 -1.221 -0.055 -2.288 -0.253 -3.212Z "/></symbol><symbol id="gA1EF33B6F5CB8777FA6FE797F6732F65" overflow="visible"><path d="M 0 0m 8.404 9.02l -0.176 -0.077c 0.33 -2.035 0.924 -3.652 1.826 -4.664c 0.121 0.363 0.363 0.594 0.649 0.638l 0.022 0.099c -0.99 0.748 -1.892 2.31 -2.321 4.004Z m -1.991 -0.044c -0.165 -1.914 -0.671 -3.685 -1.386 -4.939l 0.165 -0.099c 0.99 1.045 1.628 2.651 1.969 4.521c 0.242 0.011 0.363 0.11 0.396 0.253Z m -3.85 -5.269v -2.827h 0.121c 0.209 0 0.451 0.132 0.451 0.209v 2.277c 0.198 0.033 0.275 0.121 0.286 0.242Z m -0.055 3.245l -0.154 -0.088c 0.308 -0.528 0.407 -1.287 0.429 -1.705c 0.418 -0.583 1.287 0.627 -0.275 1.793Z m 3.201 -2.981v -4.796h 0.11c 0.363 0 0.583 0.165 0.583 0.22v 0.704h 2.618v -0.836h 0.11c 0.33 0 0.594 0.154 0.594 0.209v 4.125c 0.231 0.033 0.352 0.088 0.418 0.176l -0.803 0.616l -0.363 -0.418h -2.453l -0.814 0.341Z m 0.693 -3.553v 3.223h 2.618v -3.223Z m -4.455 6.985h 1.969v -2.717l -1.969 -0.253Z m 0.671 1.815l -0.264 -1.496h -0.275l -0.781 0.352v -0.352v -3.366l -0.88 -0.077l 0.11 -0.88c 0.11 0.022 0.231 0.11 0.286 0.242l 0.484 0.099c -0.022 -1.606 -0.143 -3.212 -0.88 -4.488l 0.165 -0.121c 1.199 1.298 1.342 3.146 1.364 4.763l 1.969 0.462v -4.136c 0 -0.154 -0.055 -0.22 -0.22 -0.22c -0.198 0 -1.111 0.066 -1.111 0.066v -0.176c 0.418 -0.055 0.649 -0.132 0.781 -0.253c 0.121 -0.11 0.176 -0.297 0.209 -0.506c 0.891 0.099 1.001 0.451 1.001 1.012v 4.378l 0.605 0.143l -0.033 0.187l -0.572 -0.077v 2.508c 0.22 0.033 0.396 0.121 0.462 0.22l -0.891 0.66l -0.341 -0.44h -1.1c 0.22 0.319 0.473 0.715 0.649 1.023c 0.231 0.011 0.363 0.099 0.407 0.253Z "/></symbol><symbol id="gB9AEA30CE3A8D91EBF475935070572C8" overflow="visible"><path d="M 0 0m 6.369 9.218v -1.265h -2.167l 0.088 -0.319h 2.079v -1.474h -2.882l 0.088 -0.33h 1.881c -0.132 -1.056 -0.572 -1.804 -1.628 -2.387l 0.077 -0.176c 1.342 0.473 2.079 1.243 2.365 2.563h 1.254v -1.232c 0 -0.737 0.121 -0.88 0.858 -0.88h 1.177c 0.66 0 0.891 0.176 0.891 0.451c 0 0.121 -0.022 0.154 -0.275 0.264l -0.022 0.649h -0.143c -0.088 -0.341 -0.165 -0.594 -0.209 -0.682c -0.044 -0.066 -0.121 -0.077 -0.231 -0.077h -1.133c -0.22 0 -0.231 0.011 -0.231 0.253v 1.254h 2.079c 0.154 0 0.264 0.055 0.286 0.176c -0.341 0.33 -0.902 0.781 -0.902 0.781l -0.506 -0.627h -2.079v 1.474h 2.453c 0.154 0 0.264 0.055 0.286 0.176c -0.341 0.33 -0.902 0.77 -0.902 0.77l -0.495 -0.627h -1.342v 0.858c 0.264 0.033 0.374 0.143 0.396 0.297Z m -0.011 -5.291v -1.738h -2.222l 0.088 -0.33h 2.134v -2.123h -3.102l 0.088 -0.308h 7.018c 0.165 0 0.253 0.055 0.286 0.176c -0.352 0.33 -0.924 0.781 -0.924 0.781l -0.506 -0.649h -2.145v 2.123h 2.596c 0.154 0 0.253 0.055 0.286 0.176c -0.352 0.341 -0.913 0.792 -0.913 0.792l -0.506 -0.638h -1.463v 1.309c 0.253 0.044 0.363 0.154 0.385 0.308Z m -5.478 4.609v -9.405h 0.121c 0.341 0 0.572 0.198 0.572 0.253v 8.833h 1.397c -0.253 -0.847 -0.638 -2.101 -0.891 -2.772c 0.704 -0.792 0.957 -1.595 0.957 -2.365c 0 -0.418 -0.099 -0.649 -0.275 -0.737c -0.088 -0.055 -0.143 -0.066 -0.275 -0.066c -0.143 0 -0.517 0 -0.726 0v -0.176c 0.22 -0.033 0.429 -0.088 0.506 -0.176c 0.088 -0.088 0.143 -0.319 0.143 -0.561c 1.012 0.044 1.375 0.517 1.364 1.551c 0 0.825 -0.374 1.749 -1.419 2.563c 0.44 0.649 1.089 1.892 1.43 2.552c 0.253 0 0.407 0.022 0.484 0.121l -0.869 0.858l -0.473 -0.473h -1.21l -0.836 0.363Z "/></symbol><symbol id="gEFF8D80847249EEF5571537915394E30" overflow="visible"><path d="M 0 0m 6.402 9.229c -0.429 -1.551 -1.21 -2.981 -2.046 -3.839l 0.154 -0.121c 0.561 0.396 1.089 0.924 1.551 1.562c 0.253 -0.572 0.55 -1.1 0.913 -1.573c -0.825 -0.968 -1.903 -1.793 -3.179 -2.387l 0.11 -0.165c 0.473 0.176 0.913 0.363 1.32 0.583v -4.147h 0.11c 0.352 0 0.572 0.165 0.572 0.22v 0.539h 2.717v -0.726h 0.11c 0.33 0 0.594 0.165 0.594 0.209v 3.333c 0.231 0.033 0.341 0.099 0.418 0.187l -0.803 0.605l -0.363 -0.418h -2.541l -0.66 0.275c 0.748 0.418 1.408 0.913 1.958 1.452c 0.682 -0.748 1.562 -1.353 2.739 -1.804c 0.077 0.341 0.297 0.517 0.583 0.583l 0.033 0.121c -1.232 0.33 -2.211 0.847 -2.981 1.496c 0.638 0.704 1.133 1.485 1.496 2.321c 0.253 0.011 0.374 0.044 0.462 0.132l -0.77 0.726l -0.484 -0.451h -1.683c 0.121 0.231 0.231 0.473 0.33 0.726c 0.231 -0.022 0.363 0.077 0.418 0.198Z m -0.495 -8.998v 2.541h 2.717v -2.541Z m 2.519 7.403c -0.275 -0.704 -0.66 -1.386 -1.155 -2.013c -0.418 0.44 -0.759 0.924 -1.045 1.452c 0.121 0.176 0.231 0.363 0.341 0.561Z m -4.895 0.506v -2.332h -1.881v 2.332Z m -2.552 0.319v -3.509h 0.099c 0.341 0 0.572 0.176 0.572 0.231v 0.308h 0.693v -4.73l -0.715 -0.176v 3.377c 0.22 0.033 0.308 0.132 0.33 0.253l -0.957 0.099v -3.872l -0.693 -0.143l 0.363 -0.935c 0.11 0.033 0.209 0.143 0.253 0.264c 1.683 0.638 2.948 1.177 3.872 1.573l -0.033 0.154l -1.76 -0.44v 2.541h 1.463c 0.154 0 0.253 0.055 0.286 0.176c -0.319 0.319 -0.847 0.759 -0.847 0.759l -0.473 -0.616h -0.429v 1.716h 0.528v -0.385h 0.11c 0.209 0 0.55 0.143 0.561 0.198v 2.706c 0.22 0.044 0.396 0.132 0.473 0.22l -0.869 0.649l -0.385 -0.418h -1.639l -0.803 0.352Z "/></symbol><symbol id="gC35C83072B2B176F19AB63580190A00C" overflow="visible"><path d="M 0 0m 5.412 7.249l 0.396 0.022c 1.815 0 3.267 -1.254 3.267 -3.212c 0 -1.991 -1.298 -3.377 -3.993 -3.85l 0.044 -0.253c 3.597 0.231 4.741 2.101 4.741 3.927c 0 2.277 -1.749 3.762 -4.015 3.762c -1.177 0 -2.31 -0.374 -3.212 -1.177c -0.935 -0.836 -1.463 -1.98 -1.463 -3.091c 0 -1.353 0.77 -2.519 1.507 -2.519c 1.122 0 2.398 2.134 2.86 3.454c 0.22 0.627 0.341 1.243 0.341 1.771c 0 0.429 -0.22 0.814 -0.473 1.166Z m -0.407 -0.066c 0.187 -0.33 0.308 -0.616 0.308 -1.012c 0 -0.495 -0.187 -1.166 -0.396 -1.694c -0.451 -1.045 -1.463 -2.783 -2.189 -2.783c -0.451 0 -0.935 0.803 -0.935 1.859c 0 0.968 0.429 1.859 1.133 2.541c 0.561 0.55 1.309 0.935 2.079 1.089Z "/></symbol><symbol id="g3F4A8E81966B1C43B91B21B40901E8A1" overflow="visible"><path d="M 0 0m 4.444 8.206c 0.198 -0.066 0.495 -0.176 0.638 -0.297c 0.143 -0.099 0.176 -0.253 0.033 -0.528c -0.396 -0.726 -2.057 -3.454 -3.014 -5.115c -0.572 -0.99 -1.001 -1.672 -1.001 -2.068c 0 -0.308 0.176 -0.506 0.374 -0.506c 0.209 0 0.319 0.132 0.418 0.374c 0.154 0.396 0.363 1.045 0.693 1.749c 0.528 1.078 1.463 2.09 2.508 2.09c 0.638 0 0.825 -0.385 0.825 -0.869c 0 -0.649 -0.099 -1.32 -0.088 -1.925c 0 -0.99 0.572 -1.463 1.496 -1.463c 1.111 0 2.442 0.726 2.915 3.146l -0.242 0.077c -0.484 -1.298 -1.32 -2.508 -2.541 -2.508c -0.638 0 -0.913 0.319 -0.913 0.913c 0 0.506 0.055 1.166 0.044 1.683c -0.011 0.88 -0.451 1.342 -1.353 1.342c -0.429 0 -0.946 -0.187 -1.518 -0.528c -0.088 -0.055 -0.143 0 -0.088 0.088c 0.462 0.803 1.573 2.409 2.035 2.948c 0.275 0.341 0.583 0.407 0.583 0.627c 0 0.341 -0.473 0.814 -0.979 0.935c -0.198 0.066 -0.539 0.088 -0.759 0.055Z "/></symbol><symbol id="g175E4D94D28839D3F7043832378EB442" overflow="visible"><path d="M 0 0m 8.965 7.205c 0.198 -0.308 0.297 -0.561 0.473 -0.572c 0.143 -0.011 0.253 0.077 0.264 0.264c 0.011 0.209 -0.077 0.418 -0.33 0.682c -0.242 0.264 -0.583 0.528 -1.1 0.792l -0.165 -0.176c 0.44 -0.374 0.66 -0.693 0.858 -0.99Z m 0.913 0.759c 0.231 -0.264 0.319 -0.539 0.473 -0.539c 0.176 -0.011 0.275 0.088 0.275 0.264c 0.022 0.209 -0.088 0.44 -0.363 0.693c -0.264 0.242 -0.605 0.44 -1.144 0.671l -0.143 -0.176c 0.462 -0.363 0.682 -0.616 0.902 -0.913Z m -8.283 -0.737c 0.385 -0.517 0.693 -0.682 1.133 -0.715c 0.319 -0.022 0.627 0 0.869 0.044c -1.111 -1.221 -1.991 -2.761 -1.991 -4.378c 0 -2.013 1.397 -2.739 2.761 -2.739c 2.211 0 3.058 1.551 3.223 2.849c 0.11 0.803 0.11 1.529 0.11 1.947c 0 0.33 0.088 0.341 0.198 0.033c 0.341 -0.891 0.748 -1.474 1.122 -1.881c 0.187 -0.22 0.396 -0.341 0.572 -0.341c 0.176 0 0.264 0.176 0.264 0.374c -0.011 0.33 -0.154 0.495 -0.33 0.638c -0.473 0.44 -1.32 1.21 -1.551 2.376c -0.099 0.583 -0.121 1.276 -0.121 1.837c 0 0.308 -0.154 0.539 -0.429 0.539c -0.22 0 -0.396 -0.198 -0.396 -0.572c 0 -0.308 0.11 -0.792 0.154 -1.078c 0.132 -0.627 0.154 -1.166 0.154 -1.881c 0 -2.31 -0.825 -4.092 -3.014 -4.092c -1.144 0 -2.167 0.671 -2.167 2.046c 0 1.903 1.298 3.564 1.969 4.125c 0.352 0.319 0.715 0.429 0.99 0.539c 0.209 0.088 0.264 0.176 0.264 0.297c 0 0.165 -0.319 0.451 -0.605 0.451c -0.143 0 -0.22 -0.077 -0.561 -0.231c -0.407 -0.187 -0.902 -0.319 -1.452 -0.319c -0.363 0 -0.704 0.121 -1.045 0.297Z "/></symbol><symbol id="gA30DDAD854DEC630D70D34CD47997944" overflow="visible"><path d="M 0 0m 3.674 5.412l -0.132 -0.077c 0.297 -0.374 0.616 -1.001 0.671 -1.507c 0.638 -0.539 1.32 0.792 -0.539 1.584Z m 2.552 3.729l -1.122 0.121v -1.562h -4.51l 0.099 -0.319h 4.411v -1.419h -2.772l -0.792 0.374v -7.205h 0.121c 0.308 0 0.594 0.176 0.594 0.275v 6.226h 6.611v -5.357c 0 -0.176 -0.066 -0.253 -0.275 -0.253c -0.264 0 -1.485 0.099 -1.485 0.099v -0.176c 0.55 -0.066 0.836 -0.165 1.023 -0.286c 0.165 -0.11 0.231 -0.308 0.253 -0.528c 1.078 0.11 1.21 0.484 1.21 1.056v 5.313c 0.22 0.044 0.407 0.132 0.473 0.209l -0.924 0.704l -0.385 -0.451h -2.937v 1.419h 4.367c 0.154 0 0.264 0.055 0.297 0.176c -0.407 0.363 -1.045 0.847 -1.045 0.847l -0.561 -0.704h -3.058v 1.144c 0.275 0.044 0.385 0.143 0.407 0.297Z m 1.144 -4.994l -0.462 -0.528h -0.748c 0.396 0.407 0.792 0.913 1.056 1.309c 0.231 -0.011 0.374 0.077 0.418 0.187l -1.045 0.341c -0.187 -0.539 -0.462 -1.309 -0.704 -1.837h -2.893l 0.088 -0.33h 2.035v -1.375h -2.42l 0.088 -0.33h 2.332v -2.244h 0.11c 0.374 0 0.594 0.165 0.594 0.22v 2.024h 2.288c 0.154 0 0.253 0.055 0.286 0.176c -0.341 0.33 -0.913 0.748 -0.913 0.748l -0.473 -0.594h -1.188v 1.375h 2.101c 0.143 0 0.253 0.055 0.275 0.176c -0.319 0.297 -0.825 0.682 -0.825 0.682Z "/></symbol><symbol id="g9F47CBA01A1749AF2BAC41AF487C3CF6" overflow="visible"><path d="M 0 0m 5.093 9.163v -4.147h -2.574v 2.772c 0.275 0.044 0.374 0.143 0.396 0.286l -1.1 0.121v -4.136h 0.132c 0.275 0 0.572 0.154 0.572 0.242v 0.396h 2.574v -4.268h -3.102v 2.904c 0.275 0.044 0.374 0.143 0.396 0.297l -1.1 0.121v -4.598h 0.132c 0.275 0 0.572 0.143 0.572 0.231v 0.737h 7.007v -0.869h 0.143c 0.264 0 0.572 0.143 0.572 0.231v 3.85c 0.264 0.044 0.374 0.143 0.385 0.297l -1.1 0.121v -3.322h -3.179v 4.268h 2.64v -0.583h 0.132c 0.275 0 0.583 0.154 0.583 0.231v 3.443c 0.264 0.044 0.363 0.143 0.385 0.286l -1.1 0.121v -3.179h -2.64v 3.718c 0.275 0.044 0.363 0.154 0.396 0.308Z "/></symbol><symbol id="g2BD1E063FE3EEF13ABE9B05823EA1476" overflow="visible"><path d="M 0 0m 1.353 7.623l -0.099 -0.099c 0.462 -0.308 0.99 -0.891 1.1 -1.375c 0.748 -0.484 1.265 1.056 -1.001 1.474Z m 0.253 0.869l 0.099 -0.319h 2.607c -0.704 -1.573 -2.123 -3.058 -3.894 -3.96l 0.11 -0.165c 0.748 0.286 1.419 0.638 2.002 1.056l 0.088 -0.319h 1.276v -1.452l -0.011 -0.407h -2.893l 0.099 -0.33h 2.75c -0.176 -1.188 -0.847 -2.332 -3.003 -3.278l 0.099 -0.165c 2.728 0.836 3.465 2.156 3.641 3.443h 1.716v -2.431c 0 -0.561 0.187 -0.748 1.023 -0.748h 1.078c 1.628 0 1.969 0.121 1.969 0.44c 0 0.143 -0.066 0.242 -0.308 0.319l -0.033 1.386h -0.143c -0.11 -0.583 -0.242 -1.177 -0.319 -1.342c -0.044 -0.088 -0.099 -0.121 -0.22 -0.132c -0.143 -0.011 -0.473 -0.022 -0.924 -0.022h -0.968c -0.385 0 -0.429 0.066 -0.429 0.264v 2.266h 2.684c 0.154 0 0.253 0.055 0.286 0.176c -0.363 0.341 -0.957 0.803 -0.957 0.803l -0.517 -0.649h -1.496v 1.859h 1.155c 0.132 0 0.242 0.055 0.275 0.176c -0.33 0.319 -0.858 0.748 -0.858 0.748l -0.462 -0.594h -4.576c 1.177 0.825 2.046 1.859 2.596 2.97c 0.264 0.011 0.385 0.033 0.462 0.143l -0.803 0.715l -0.484 -0.451Z m 3.003 -5.566l 0.011 0.418v 1.441h 1.672v -1.859Z m 4.939 4.972c -0.319 -0.396 -0.924 -1.023 -1.474 -1.474c -0.33 0.264 -0.649 0.55 -0.924 0.858c 0.627 0.341 1.298 0.77 1.716 1.089c 0.242 -0.055 0.319 -0.011 0.407 0.088l -0.924 0.55c -0.297 -0.418 -0.869 -1.056 -1.375 -1.529c -0.429 0.528 -0.781 1.111 -1.023 1.749l -0.187 -0.099c 0.693 -2.277 2.233 -3.894 4.213 -4.818c 0.121 0.341 0.374 0.55 0.693 0.583l 0.022 0.121c -0.847 0.286 -1.661 0.704 -2.387 1.232c 0.66 0.308 1.342 0.704 1.749 1.012c 0.242 -0.055 0.33 -0.022 0.418 0.077Z "/></symbol><symbol id="gF06D9C93A7D6A5CAEE421E54AAFD84AF" overflow="visible"><path d="M 0 0m 9.009 6.853l -1.485 -0.561v 2.486c 0.264 0.044 0.363 0.154 0.385 0.308l -1.078 0.11v -3.168l -1.474 -0.55v 2.453c 0.253 0.044 0.363 0.165 0.385 0.308l -1.089 0.132v -3.157l -1.562 -0.594l 0.209 -0.264l 1.353 0.506v -4.356c 0 -0.781 0.352 -0.99 1.463 -0.99h 1.661c 2.376 0 2.86 0.11 2.86 0.495c 0 0.154 -0.077 0.242 -0.374 0.341l -0.033 1.705h -0.143c -0.154 -0.803 -0.319 -1.452 -0.407 -1.661c -0.066 -0.099 -0.143 -0.143 -0.319 -0.165c -0.231 -0.033 -0.792 -0.044 -1.562 -0.044h -1.628c -0.693 0 -0.814 0.132 -0.814 0.462v 4.477l 1.474 0.55v -4.598h 0.121c 0.275 0 0.572 0.176 0.572 0.264v 4.598l 1.683 0.627c -0.044 -2.53 -0.121 -3.608 -0.319 -3.817c -0.077 -0.088 -0.143 -0.11 -0.308 -0.11c -0.176 0 -0.561 0.033 -0.814 0.055v -0.187c 0.242 -0.055 0.473 -0.132 0.572 -0.231c 0.11 -0.11 0.121 -0.297 0.121 -0.495c 0.352 0 0.682 0.11 0.913 0.341c 0.374 0.396 0.495 1.463 0.528 4.356c 0.22 0.033 0.352 0.077 0.429 0.165l -0.825 0.671l -0.396 -0.429Z m -8.646 -5.632l 0.44 -0.946c 0.099 0.055 0.176 0.165 0.209 0.297c 1.397 0.847 2.475 1.584 3.245 2.09l -0.066 0.154l -1.661 -0.737v 3.476h 1.397c 0.154 0 0.253 0.055 0.275 0.176c -0.297 0.341 -0.847 0.803 -0.847 0.803l -0.451 -0.649h -0.374v 2.684c 0.275 0.044 0.374 0.154 0.396 0.308l -1.1 0.121v -3.113h -1.386l 0.088 -0.33h 1.298v -3.773c -0.638 -0.264 -1.155 -0.462 -1.463 -0.561Z "/></symbol><symbol id="g96E26EAFACC0C62C1C18A90C35B5E71B" overflow="visible"><path d="M 0 0m 8.954 6.611v -5.775h -3.135v 7.678c 0.275 0.044 0.385 0.154 0.407 0.319l -1.144 0.121v -8.118h -3.08v 5.313c 0.275 0.033 0.374 0.143 0.407 0.297l -1.144 0.121v -7.392h 0.143c 0.286 0 0.594 0.165 0.594 0.264v 1.067h 6.952v -1.155h 0.143c 0.286 0 0.605 0.176 0.605 0.275v 6.567c 0.275 0.033 0.374 0.132 0.396 0.286Z "/></symbol><symbol id="g8E268EECF45DB2A41416A8BC008E6022" overflow="visible"><path d="M 0 0m 7.337 9.218v -1.111h -1.903l 0.077 -0.319h 1.375c -0.561 -0.693 -1.342 -1.331 -2.233 -1.804l 0.11 -0.187l 0.583 0.242v -0.605h -2.805l -0.803 0.352v -2.134c 0 -1.496 -0.143 -3.08 -1.276 -4.367l 0.132 -0.132c 1.298 0.968 1.672 2.31 1.782 3.509h 0.902v -2.541l -1.199 -0.11l 0.462 -0.88c 0.11 0.033 0.198 0.099 0.253 0.242c 1.485 0.363 2.563 0.66 3.3 0.869l -0.022 0.187l -2.123 -0.242v 1.122h 1.925c 0.154 0 0.253 0.055 0.286 0.176c -0.308 0.308 -0.814 0.704 -0.814 0.704l -0.44 -0.55h -0.957v 1.023h 2.464v -2.684c 0 -0.506 0.154 -0.671 0.99 -0.671h 1.133c 1.672 0 1.98 0.121 1.98 0.429c 0 0.121 -0.055 0.209 -0.297 0.286l -0.033 1.034h -0.143c -0.099 -0.451 -0.209 -0.88 -0.275 -1.012c -0.044 -0.077 -0.088 -0.099 -0.209 -0.11c -0.154 -0.011 -0.528 -0.022 -1.001 -0.022h -1.034c -0.396 0 -0.429 0.044 -0.429 0.198v 0.968c 0.847 0.132 1.749 0.363 2.321 0.561c 0.242 -0.077 0.418 -0.088 0.495 0.022l -0.781 0.638c -0.44 -0.297 -1.265 -0.682 -2.035 -0.946v 1.309h 1.595v -0.242h 0.11c 0.22 0 0.561 0.154 0.572 0.209v 1.221c 0.187 0.033 0.341 0.121 0.407 0.187l -0.814 0.616l -0.374 -0.396h -1.529v 0.847h 2.651c 0.154 0 0.253 0.055 0.286 0.176c -0.352 0.308 -0.902 0.715 -0.902 0.715l -0.484 -0.561h -2.585v 0.462c 0.22 0.033 0.308 0.121 0.319 0.253l -0.638 0.066c 0.627 0.308 1.177 0.682 1.628 1.111v -1.65h 0.132c 0.253 0 0.55 0.154 0.55 0.231v 1.881h 0.044c 0.484 -0.88 1.276 -1.562 2.035 -1.969c 0.077 0.341 0.275 0.528 0.539 0.583l 0.011 0.121c -0.77 0.231 -1.672 0.682 -2.255 1.265h 1.749c 0.154 0 0.264 0.055 0.286 0.176c -0.33 0.319 -0.88 0.759 -0.88 0.759l -0.473 -0.616h -1.056v 0.715c 0.275 0.044 0.374 0.143 0.396 0.297Z m -4.928 -4.114h 1.738v -0.847h -1.738Z m 3.993 0v -0.847h -1.595v 0.847Z m -3.993 -1.166h 1.738v -0.946h -1.749l 0.011 0.66Z m 6.281 0v -0.946h -1.628v 0.946Z m -2.288 0v -0.946h -1.595v 0.946Z m -3.674 5.335v -1.166h -2.057l 0.088 -0.319h 1.617c -0.44 -0.803 -1.111 -1.54 -1.925 -2.112l 0.11 -0.176c 0.869 0.429 1.606 0.979 2.167 1.628v -1.452h 0.132c 0.253 0 0.539 0.154 0.539 0.242v 1.441c 0.396 -0.264 0.858 -0.693 1.056 -1.034c 0.693 -0.341 1.056 0.957 -1.056 1.221v 0.242h 1.628c 0.154 0 0.264 0.055 0.286 0.176c -0.319 0.319 -0.836 0.737 -0.836 0.737l -0.473 -0.594h -0.605v 0.77c 0.264 0.044 0.363 0.143 0.396 0.275Z "/></symbol><symbol id="g6FE633C370E9F1878F57FD28B1086862" overflow="visible"><path d="M 0 0m 2.904 5.269l 0.088 -0.319h 4.895c 0.154 0 0.264 0.055 0.297 0.176c -0.374 0.341 -0.957 0.781 -0.957 0.781l -0.517 -0.638Z m 2.794 3.366c 0.792 -1.595 2.464 -3.047 4.268 -3.938c 0.077 0.264 0.341 0.517 0.66 0.583l 0.022 0.154c -1.936 0.781 -3.762 1.947 -4.741 3.344c 0.275 0.022 0.407 0.077 0.44 0.198l -1.287 0.308c -0.583 -1.584 -2.816 -3.784 -4.686 -4.829l 0.077 -0.165c 2.09 0.957 4.235 2.761 5.247 4.345Z m 2.211 -5.731v -2.607h -4.818v 2.607Z m -5.555 0.319v -4.07h 0.121c 0.308 0 0.616 0.176 0.616 0.242v 0.572h 4.818v -0.726h 0.11c 0.242 0 0.616 0.165 0.627 0.231v 3.278c 0.22 0.055 0.396 0.143 0.473 0.231l -0.913 0.693l -0.418 -0.451h -4.631l -0.803 0.363Z "/></symbol><symbol id="g2AE70ADDAB51F9D587766D645EB593AB" overflow="visible"><path d="M 0 0m 1.342 9.086l -0.11 -0.099c 0.495 -0.33 1.089 -0.935 1.254 -1.441c 0.825 -0.451 1.254 1.188 -1.144 1.54Z m -0.88 -2.387l -0.099 -0.11c 0.473 -0.297 1.034 -0.836 1.21 -1.309c 0.792 -0.451 1.221 1.122 -1.111 1.419Z m 0.627 -4.466c -0.121 0 -0.484 0 -0.484 0v -0.242c 0.231 -0.022 0.396 -0.044 0.528 -0.154c 0.242 -0.154 0.308 -1.012 0.154 -2.134c 0.022 -0.352 0.154 -0.55 0.352 -0.55c 0.363 0 0.583 0.286 0.605 0.759c 0.033 0.88 -0.264 1.397 -0.264 1.892c -0.011 0.253 0.055 0.594 0.154 0.913c 0.143 0.506 1.023 2.904 1.463 4.191l -0.198 0.033c -1.837 -4.103 -1.837 -4.103 -2.035 -4.477c -0.11 -0.231 -0.143 -0.231 -0.275 -0.231Z m 5.126 2.134v -4.73h 0.132c 0.253 0 0.55 0.154 0.55 0.231v 4.103c 0.253 0.033 0.363 0.121 0.374 0.275Z m -1.881 -0.011v -1.43c 0 -1.254 -0.286 -2.706 -1.848 -3.674l 0.132 -0.143c 2.035 0.902 2.365 2.486 2.387 3.795v 1.078c 0.264 0.033 0.341 0.121 0.374 0.264Z m 3.905 0.066v -4.422c 0 -0.462 0.099 -0.649 0.715 -0.649h 0.539c 0.957 0 1.232 0.143 1.232 0.44c 0 0.121 -0.044 0.209 -0.242 0.297l -0.033 1.672h -0.143c -0.11 -0.649 -0.242 -1.43 -0.308 -1.617c -0.033 -0.099 -0.066 -0.121 -0.143 -0.132c -0.044 -0.011 -0.176 -0.011 -0.352 -0.011h -0.363c -0.176 0 -0.209 0.044 -0.209 0.187v 3.85c 0.209 0.033 0.308 0.132 0.319 0.264Z m -4.851 1.144l 0.385 -0.968c 0.11 0.022 0.231 0.088 0.297 0.22c 2.013 0.275 3.542 0.506 4.697 0.704c 0.286 -0.341 0.517 -0.682 0.638 -0.979c 0.847 -0.506 1.232 1.254 -1.815 2.387l -0.121 -0.11c 0.341 -0.275 0.737 -0.66 1.1 -1.056l -3.036 -0.143c 0.407 0.561 0.913 1.276 1.298 1.881h 3.421c 0.154 0 0.275 0.055 0.308 0.165c -0.374 0.352 -0.946 0.814 -0.946 0.814l -0.528 -0.66h -2.189v 0.935c 0.264 0.044 0.374 0.154 0.396 0.308l -1.111 0.099v -1.342h -2.915l 0.088 -0.319h 2.475c -0.198 -0.561 -0.495 -1.32 -0.748 -1.892c -0.715 -0.033 -1.298 -0.044 -1.694 -0.044Z "/></symbol><symbol id="g5BE7BF59BFAE943FE134DAB51E518262" overflow="visible"><path d="M 0 0m 2.024 1.782c 0 -0.935 -0.616 -1.606 -1.221 -1.848c -0.231 -0.121 -0.396 -0.341 -0.297 -0.572c 0.121 -0.264 0.528 -0.253 0.858 -0.066c 0.539 0.286 1.188 1.067 0.858 2.486Z m 1.925 -0.044l -0.143 -0.044c 0.198 -0.605 0.374 -1.507 0.275 -2.222c 0.616 -0.715 1.496 0.781 -0.132 2.266Z m 1.991 0.044l -0.143 -0.077c 0.451 -0.583 0.99 -1.529 1.078 -2.255c 0.748 -0.616 1.397 1.045 -0.935 2.332Z m 2.189 0.033l -0.121 -0.099c 0.715 -0.594 1.606 -1.628 1.815 -2.453c 0.858 -0.572 1.353 1.364 -1.694 2.552Z m -5.995 3.828v -3.597h 0.11c 0.297 0 0.605 0.165 0.605 0.242v 0.418h 5.313v -0.583h 0.11c 0.242 0 0.605 0.165 0.616 0.242v 2.816c 0.22 0.044 0.385 0.132 0.462 0.22l -0.902 0.693l -0.396 -0.451h -2.343v 1.573h 4.048c 0.143 0 0.253 0.055 0.286 0.176c -0.374 0.352 -0.979 0.836 -0.979 0.836l -0.528 -0.682h -2.827v 1.265c 0.297 0.044 0.407 0.165 0.429 0.319l -1.166 0.11v -3.597h -2.057l -0.781 0.363Z m 0.715 -2.607v 2.288h 5.313v -2.288Z "/></symbol><symbol id="g9250140F6FB56EADF0E3B9548B7DA833" overflow="visible"><path d="M 0 0m 6.82 8.327v -6.941h 0.154c 0.319 0 0.682 0.187 0.682 0.286v 6.226c 0.275 0.033 0.374 0.154 0.396 0.308Z m 2.376 0.737v -8.646c 0 -0.165 -0.066 -0.231 -0.275 -0.231c -0.231 0 -1.441 0.088 -1.441 0.088v -0.165c 0.539 -0.077 0.814 -0.176 1.001 -0.33c 0.154 -0.143 0.22 -0.363 0.264 -0.638c 1.155 0.11 1.309 0.528 1.309 1.199v 8.283c 0.264 0.044 0.374 0.154 0.396 0.308Z m -3.993 0.187c -0.99 -0.572 -2.97 -1.287 -4.62 -1.661l 0.044 -0.165c 0.847 0.066 1.727 0.176 2.552 0.319v -1.936h -2.585l 0.088 -0.319h 2.222c -0.539 -1.606 -1.452 -3.256 -2.629 -4.433l 0.132 -0.143c 1.133 0.814 2.079 1.859 2.772 3.036v -4.84h 0.154c 0.418 0 0.715 0.209 0.715 0.275v 5.082c 0.539 -0.572 1.122 -1.386 1.287 -2.035c 0.858 -0.66 1.529 1.155 -1.287 2.266v 0.792h 2.211c 0.154 0 0.264 0.055 0.297 0.176c -0.374 0.363 -1.012 0.88 -1.012 0.88l -0.55 -0.737h -0.946v 2.101c 0.594 0.121 1.144 0.264 1.584 0.396c 0.308 -0.11 0.528 -0.099 0.627 0Z "/></symbol><symbol id="g826412ED6440940ED6A766EBBA0EC877" overflow="visible"><path d="M 0 0m 4.73 2.288l -0.099 -0.088c 0.396 -0.363 0.88 -1.001 1.034 -1.507c 0.869 -0.55 1.529 1.133 -0.935 1.595Z m -0.913 6.347l -1.166 0.616c -0.462 -0.858 -1.43 -2.167 -2.332 -3.014l 0.121 -0.132c 1.144 0.66 2.31 1.672 2.959 2.409c 0.264 -0.044 0.352 0 0.418 0.121Z m 5.918 -5.115l -0.528 -0.693h -0.517v 1.243h 1.287c 0.143 0 0.264 0.055 0.297 0.176c -0.396 0.363 -1.023 0.869 -1.023 0.869l -0.561 -0.715h -4.675l 0.088 -0.33h 3.696v -1.243h -4.323l 0.088 -0.319h 4.235v -2.222c 0 -0.143 -0.055 -0.209 -0.253 -0.209c -0.209 0 -1.276 0.077 -1.276 0.077v -0.154c 0.506 -0.077 0.759 -0.176 0.924 -0.308c 0.132 -0.132 0.198 -0.341 0.209 -0.616c 1.122 0.11 1.287 0.539 1.287 1.188v 2.244h 1.727c 0.154 0 0.253 0.055 0.286 0.176c -0.352 0.352 -0.968 0.836 -0.968 0.836Z m -4.268 2.233v 1.155h 2.981v -1.155Z m -0.847 3.355v -4.191h 0.143c 0.44 0 0.704 0.176 0.704 0.242v 0.275h 2.981v -0.374h 0.143c 0.429 0 0.737 0.176 0.737 0.22v 3.047c 0.231 0.044 0.33 0.11 0.396 0.198l -0.891 0.682l -0.418 -0.495h -2.827Z m 0.847 -1.87v 1.155h 2.981v -1.155Z m -2.409 -2.266l -0.385 0.143c 0.363 0.429 0.671 0.847 0.913 1.21c 0.264 -0.044 0.363 0.022 0.429 0.132l -1.21 0.605c -0.473 -1.133 -1.485 -2.838 -2.508 -3.949l 0.11 -0.121c 0.517 0.363 1.001 0.792 1.452 1.232v -5.126h 0.165c 0.341 0 0.682 0.22 0.693 0.297v 5.368c 0.187 0.033 0.297 0.11 0.341 0.209Z "/></symbol><symbol id="g120F064D16CD7591AC7E6701ED83DCD3" overflow="visible"><path d="M 0 0m 3.245 -0.165c 1.452 0 2.486 1.111 2.486 2.618c 0 1.441 -0.781 2.431 -2.134 2.431c -0.715 0 -1.331 -0.275 -1.848 -0.814c 0.286 1.925 1.54 3.421 3.729 3.894l -0.055 0.253c -2.959 -0.33 -4.84 -2.563 -4.84 -5.148c 0 -1.98 1.012 -3.234 2.662 -3.234Z m -1.529 3.872c 0.484 0.495 0.979 0.682 1.507 0.682c 0.902 0 1.441 -0.704 1.441 -2.024c 0 -1.43 -0.627 -2.178 -1.408 -2.178c -0.979 0 -1.562 1.067 -1.562 3.036Z "/></symbol><symbol id="g7CE24CD80248845193E0CD2325AA6CE9" overflow="visible"><path d="M 0 0m 3.058 -0.165c 1.595 0 2.596 0.847 2.596 2.145c 0 1.023 -0.561 1.738 -1.925 2.387c 1.177 0.55 1.606 1.265 1.606 2.002c 0 1.045 -0.77 1.848 -2.178 1.848c -1.298 0 -2.321 -0.792 -2.321 -2.024c 0 -0.957 0.495 -1.738 1.606 -2.299c -1.199 -0.517 -1.826 -1.177 -1.826 -2.134c 0 -1.144 0.847 -1.925 2.442 -1.925Z m 0.418 4.642c -1.353 0.605 -1.705 1.276 -1.705 2.002c 0 0.858 0.649 1.375 1.364 1.375c 0.847 0 1.32 -0.649 1.32 -1.463c 0 -0.814 -0.286 -1.375 -0.979 -1.914Z m -0.77 -0.704c 1.496 -0.66 1.958 -1.309 1.958 -2.112c 0 -0.902 -0.572 -1.474 -1.551 -1.474c -0.99 0 -1.573 0.605 -1.573 1.683c 0 0.803 0.341 1.342 1.166 1.903Z "/></symbol><symbol id="g7C74E32D55EC78A446191641A0EA1D3F" overflow="visible"><path d="M 0 0m 3.388 5.885c -0.055 -0.352 -0.165 -0.858 -0.275 -1.221h -0.792l -0.264 0.11c 0.33 0.429 0.627 0.88 0.88 1.353h 2.563c 0.143 0 0.253 0.055 0.286 0.165c -0.341 0.319 -0.88 0.748 -0.88 0.748l -0.462 -0.605h -1.353c 0.187 0.396 0.352 0.814 0.484 1.232h 1.639c 0.165 0 0.264 0.055 0.297 0.176c -0.363 0.341 -0.902 0.748 -0.902 0.748l -0.484 -0.594h -2.024c 0.143 0.22 0.264 0.451 0.374 0.693c 0.231 -0.011 0.352 0.088 0.396 0.209l -1.034 0.341c -0.22 -0.968 -0.638 -1.881 -1.1 -2.464l 0.165 -0.121c 0.352 0.253 0.693 0.605 0.979 1.012h 0.836c -0.099 -0.407 -0.231 -0.825 -0.396 -1.232h -1.859l 0.088 -0.308h 1.639c -0.462 -1.045 -1.122 -2.046 -1.925 -2.827l 0.121 -0.143c 0.407 0.297 0.781 0.627 1.122 0.99v -4.818h 0.11c 0.341 0 0.561 0.187 0.561 0.242v 0.55h 3.289c 0.143 0 0.253 0.055 0.286 0.176c -0.308 0.297 -0.825 0.704 -0.825 0.704l -0.44 -0.561h -0.649v 1.133h 1.386c 0.143 0 0.242 0.055 0.275 0.176c -0.264 0.264 -0.704 0.616 -0.704 0.616l -0.363 -0.473h -0.594v 1.067h 1.386c 0.143 0 0.242 0.055 0.275 0.176c -0.264 0.275 -0.704 0.627 -0.704 0.627l -0.363 -0.473h -0.594v 1.056h 1.43c 0.154 0 0.253 0.055 0.275 0.176c -0.297 0.275 -0.77 0.649 -0.77 0.649l -0.407 -0.506h -0.946c 0.231 0.242 0.44 0.506 0.605 0.737c 0.22 -0.011 0.352 0.088 0.396 0.209Z m -1.21 -1.54h 1.012v -1.056h -1.012Z m 0 -1.386h 1.012v -1.067h -1.012Z m 0 -1.386h 1.012v -1.133h -1.012Z m 4.499 4.785h 2.453v -1.463h -2.453Z m 0 0.319v 1.441h 2.453v -1.441Z m 0 -2.101h 2.453v -1.485h -2.453Z m -0.682 3.861v -6.281h 0.11c 0.352 0 0.572 0.176 0.572 0.231v 0.374h 0.121c -0.143 -1.683 -0.748 -2.673 -2.53 -3.454l 0.066 -0.176c 2.123 0.616 2.992 1.639 3.223 3.63h 0.55v -2.794c 0 -0.462 0.099 -0.638 0.715 -0.638h 0.594c 1.012 0 1.265 0.165 1.265 0.451c 0 0.132 -0.022 0.22 -0.231 0.297l -0.033 1.397h -0.143c -0.099 -0.583 -0.209 -1.199 -0.275 -1.364c -0.044 -0.088 -0.077 -0.11 -0.154 -0.121c -0.055 0 -0.209 0 -0.418 0h -0.429c -0.198 0 -0.22 0.022 -0.22 0.154v 2.618h 0.352v -0.385h 0.11c 0.33 0 0.605 0.176 0.605 0.22v 5.456c 0.231 0.033 0.352 0.11 0.44 0.187l -0.825 0.649l -0.374 -0.451h -2.277l -0.814 0.341Z "/></symbol><symbol id="gA9551DDC4712E28031638679F65421E2" overflow="visible"><path d="M 0 0m 1.617 8.558l -0.143 -0.088c 0.583 -0.704 1.298 -1.837 1.441 -2.717c 0.825 -0.671 1.452 1.232 -1.298 2.805Z m 7.084 0.066c -0.495 -1.089 -1.177 -2.277 -1.705 -2.981l 0.154 -0.121c 0.726 0.605 1.562 1.507 2.222 2.42c 0.231 -0.044 0.385 0.033 0.44 0.154Z m -3.597 0.594v -4.235h -4.653l 0.088 -0.319h 3.289c -0.132 -2.607 -0.847 -4.191 -3.465 -5.357l 0.055 -0.165c 3.091 0.979 4.004 2.629 4.246 5.522h 1.518v -4.444c 0 -0.583 0.209 -0.77 1.1 -0.77h 1.21c 1.793 0 2.134 0.132 2.134 0.473c 0 0.143 -0.044 0.242 -0.286 0.33l -0.044 1.914h -0.143c -0.143 -0.825 -0.275 -1.617 -0.374 -1.837c -0.033 -0.121 -0.077 -0.165 -0.22 -0.176c -0.154 -0.022 -0.539 -0.033 -1.056 -0.033h -1.1c -0.429 0 -0.484 0.066 -0.484 0.275v 4.268h 3.322c 0.154 0 0.264 0.055 0.286 0.176c -0.385 0.363 -1.012 0.836 -1.012 0.836l -0.561 -0.693h -3.124v 3.806c 0.275 0.044 0.385 0.154 0.407 0.308Z "/></symbol><symbol id="g44991292739264F738ECFE4F8041D3C3" overflow="visible"><path d="M 0 0m 1.672 0h 0.935l 2.871 7.48v 0.572h -4.862v -0.891h 4.312l -3.344 -7.084Z "/></symbol><symbol id="g8A0424EC54D9B4D30EF352128D2C397E" overflow="visible"><path d="M 0 0m 0.693 0h 5.038v 0.88h -4.389c 0.649 0.682 1.287 1.342 1.606 1.661c 1.738 1.705 2.464 2.508 2.464 3.553c 0 1.309 -0.759 2.123 -2.288 2.123c -1.188 0 -2.277 -0.594 -2.431 -1.749c 0.077 -0.231 0.264 -0.374 0.506 -0.374c 0.264 0 0.473 0.154 0.583 0.638l 0.264 1.001c 0.253 0.099 0.495 0.132 0.748 0.132c 0.957 0 1.529 -0.616 1.529 -1.727c 0 -1.023 -0.495 -1.782 -1.672 -3.179c -0.539 -0.627 -1.243 -1.463 -1.958 -2.288Z "/></symbol><symbol id="gB940D0E548EEEFB7CE60BA1A052B9D14" overflow="visible"><path d="M 0 0m 6.116 8.514v -3.432h 0.099c 0.286 0 0.594 0.165 0.594 0.242v 0.198h 2.376v -5.258c 0 -0.154 -0.055 -0.209 -0.22 -0.209l -0.935 0.055l 0.154 0.022l 0.011 0.132c -1.375 0.407 -2.024 1.034 -2.343 1.672h 2.31c 0.154 0 0.253 0.055 0.286 0.176c -0.308 0.297 -0.803 0.682 -0.803 0.682l -0.429 -0.528h -1.606c 0.055 0.33 0.077 0.682 0.099 1.056h 2.2c 0.154 0 0.264 0.055 0.286 0.176c -0.297 0.297 -0.77 0.638 -0.77 0.638l -0.418 -0.484h -0.803c 0.319 0.286 0.638 0.627 0.847 0.913c 0.242 -0.011 0.374 0.066 0.429 0.187l -0.968 0.308c -0.154 -0.44 -0.418 -0.99 -0.649 -1.408h -1.309c 0.396 0.077 0.484 0.935 -0.902 1.397l -0.132 -0.077c 0.308 -0.297 0.649 -0.814 0.704 -1.221c 0.066 -0.055 0.132 -0.088 0.198 -0.099h -1.65l 0.088 -0.33h 2.145c -0.011 -0.374 -0.022 -0.726 -0.077 -1.056h -2.332l 0.077 -0.33h 2.189c -0.231 -0.88 -0.825 -1.584 -2.398 -2.156l 0.143 -0.165c 1.947 0.55 2.651 1.309 2.926 2.321h 0.077c 0.22 -0.803 0.737 -1.76 2.024 -2.266c 0.055 0.253 0.154 0.363 0.341 0.418v -0.154c 0.374 -0.055 0.594 -0.132 0.726 -0.253c 0.11 -0.11 0.165 -0.308 0.187 -0.539c 0.913 0.099 1.001 0.451 1.001 1.034v 7.876c 0.231 0.044 0.407 0.143 0.484 0.231l -0.924 0.693l -0.374 -0.462h -2.222l -0.737 0.341Z m -2.046 -0.319v -0.99h -2.277v 0.99Z m -2.981 0.319v -9.372h 0.121c 0.341 0 0.583 0.187 0.583 0.297v 6.083h 2.277v -0.473h 0.099c 0.242 0 0.583 0.165 0.594 0.253v 2.794c 0.176 0.033 0.341 0.121 0.407 0.198l -0.825 0.627l -0.374 -0.407h -2.123l -0.759 0.374Z m 0.704 -1.628h 2.277v -1.034h -2.277Z m 7.392 1.309v -0.99h -2.376v 0.99Z m -2.376 -1.309h 2.376v -1.034h -2.376Z "/></symbol><symbol id="gEBB2EC2D3F158246EDEFA8916D1931B3" overflow="visible"><path d="M 0 0m 0.572 8.316l 0.088 -0.319h 4.862c 0.143 0 0.253 0.055 0.286 0.176c -0.352 0.33 -0.946 0.792 -0.946 0.792l -0.506 -0.649Z m 3.641 -2.189v -2.31h -2.211l 0.011 0.726v 1.584Z m -2.904 0.319v -1.903c 0 -1.727 -0.077 -3.685 -0.935 -5.313l 0.143 -0.121c 1.111 1.276 1.397 2.959 1.474 4.378h 2.222v -0.649h 0.099c 0.231 0 0.572 0.154 0.583 0.22v 2.937c 0.231 0.044 0.407 0.132 0.484 0.209l -0.88 0.682l -0.396 -0.44h -1.958l -0.836 0.396Z m 8.151 2.717c -0.583 -0.352 -1.661 -0.858 -2.651 -1.21l -0.748 0.253v -2.948c 0 -2.123 -0.308 -4.246 -2.09 -5.973l 0.154 -0.132c 2.365 1.65 2.64 4.125 2.64 6.094v 0.022h 1.683v -6.149h 0.121c 0.374 0 0.605 0.187 0.605 0.242v 5.907h 1.221c 0.154 0 0.242 0.055 0.275 0.176c -0.352 0.319 -0.913 0.792 -0.913 0.792l -0.517 -0.66h -2.475v 2.09c 1.122 0.165 2.31 0.462 3.091 0.704c 0.264 -0.099 0.462 -0.088 0.561 0.011Z "/></symbol><symbol id="g9D37644DF466665389B5A3FCD85951B" overflow="visible"><path d="M 0 0m 2.75 -0.165c 1.749 0 2.904 1.001 2.904 2.585c 0 1.584 -1.034 2.42 -2.673 2.42c -0.495 0 -0.946 -0.066 -1.397 -0.242l 0.165 2.563h 3.674v 0.891h -4.037l -0.264 -3.806l 0.297 -0.132c 0.385 0.165 0.792 0.242 1.265 0.242c 1.1 0 1.826 -0.649 1.826 -1.991c 0 -1.397 -0.704 -2.178 -1.914 -2.178c -0.341 0 -0.572 0.044 -0.825 0.143l -0.231 0.891c -0.088 0.451 -0.253 0.605 -0.561 0.605c -0.231 0 -0.418 -0.121 -0.506 -0.352c 0.176 -1.045 1.023 -1.639 2.277 -1.639Z "/></symbol><symbol id="g75766F6E01A57B224CE09910F9FB77E3" overflow="visible"><path d="M 0 0m 2.871 -0.165c 1.606 0 2.695 0.891 2.695 2.233c 0 1.155 -0.649 1.958 -2.112 2.178c 1.276 0.286 1.87 1.078 1.87 2.035c 0 1.144 -0.814 1.936 -2.288 1.936c -1.1 0 -2.112 -0.462 -2.266 -1.595c 0.077 -0.198 0.242 -0.297 0.451 -0.297c 0.297 0 0.495 0.143 0.594 0.55l 0.253 0.891c 0.242 0.066 0.473 0.099 0.704 0.099c 0.935 0 1.463 -0.594 1.463 -1.617c 0 -1.21 -0.737 -1.837 -1.782 -1.837h -0.429v -0.396h 0.484c 1.287 0 1.936 -0.693 1.936 -1.914c 0 -1.188 -0.682 -1.914 -1.881 -1.914c -0.286 0 -0.517 0.044 -0.737 0.121l -0.253 0.891c -0.099 0.473 -0.275 0.638 -0.572 0.638c -0.22 0 -0.418 -0.121 -0.506 -0.374c 0.209 -1.056 1.045 -1.628 2.376 -1.628Z "/></symbol><symbol id="g521C1DE0DB843B930515EB240BB70CC4" overflow="visible"><path d="M 0 0m 1.364 9.108l -0.11 -0.099c 0.462 -0.33 1.023 -0.935 1.199 -1.43c 0.792 -0.462 1.254 1.089 -1.089 1.529Z m -0.847 -2.53l -0.11 -0.099c 0.473 -0.308 1.012 -0.88 1.177 -1.364c 0.77 -0.462 1.232 1.1 -1.067 1.463Z m 0.561 -4.323c -0.11 0 -0.473 0 -0.473 0v -0.242c 0.231 -0.022 0.396 -0.055 0.528 -0.154c 0.253 -0.154 0.308 -1.034 0.154 -2.167c 0.022 -0.341 0.154 -0.55 0.352 -0.55c 0.352 0 0.561 0.286 0.583 0.759c 0.044 0.902 -0.275 1.419 -0.275 1.914c 0 0.264 0.066 0.616 0.165 0.946c 0.154 0.517 1.034 3.036 1.496 4.389l -0.22 0.055c -1.848 -4.334 -1.848 -4.334 -2.035 -4.719c -0.099 -0.22 -0.143 -0.231 -0.275 -0.231Z m 5.577 3.575c -0.055 -0.583 -0.143 -1.298 -0.231 -2.013h -1.518l 0.319 2.013Z m 0.638 0h 1.485c -0.022 -0.737 -0.055 -1.408 -0.099 -2.013h -1.595Z m -4.554 -2.013l 0.088 -0.319h 1.309c -0.198 -1.133 -0.418 -2.321 -0.627 -3.278c 0.396 -0.088 0.583 -0.066 0.759 0.033l 0.165 0.825h 3.927c -0.099 -0.484 -0.209 -0.792 -0.341 -0.913c -0.121 -0.11 -0.22 -0.154 -0.44 -0.154c -0.231 0 -0.99 0.088 -1.441 0.121l -0.011 -0.198c 0.407 -0.066 0.847 -0.154 1.012 -0.286c 0.143 -0.11 0.187 -0.286 0.187 -0.495c 0.473 0 0.913 0.143 1.21 0.484c 0.22 0.231 0.396 0.704 0.528 1.441h 1.364c 0.154 0 0.264 0.055 0.286 0.165c -0.319 0.352 -0.88 0.825 -0.88 0.825l -0.473 -0.671h -0.242c 0.088 0.572 0.165 1.276 0.22 2.101h 1.21c 0.143 0 0.242 0.055 0.275 0.176c -0.319 0.319 -0.858 0.77 -0.858 0.77l -0.473 -0.627h -0.132c 0.033 0.583 0.055 1.232 0.077 1.925c 0.253 0.033 0.385 0.088 0.451 0.176l -0.814 0.693l -0.407 -0.451h -3.245l -0.803 0.374c -0.099 -0.704 -0.253 -1.683 -0.429 -2.717Z m 2.332 5.39c -0.407 -1.518 -1.144 -2.959 -1.892 -3.85l 0.143 -0.121c 0.66 0.506 1.265 1.221 1.771 2.068h 5.137c 0.165 0 0.275 0.055 0.297 0.176c -0.352 0.33 -0.924 0.792 -0.924 0.792l -0.517 -0.638h -3.806c 0.176 0.319 0.33 0.649 0.473 1.001c 0.242 -0.022 0.374 0.077 0.418 0.198Z m 1.309 -5.709c -0.099 -0.77 -0.198 -1.518 -0.286 -2.101h -1.606l 0.363 2.101Z m 0.671 0h 1.606c -0.066 -0.847 -0.143 -1.551 -0.231 -2.101h -1.639c 0.088 0.583 0.176 1.331 0.264 2.101Z "/></symbol><symbol id="gCA42B4D5A7F766EA651FCDA1DDA46E6C" overflow="visible"><path d="M 0 0m 1.001 8.877l -0.11 -0.088c 0.561 -0.484 1.254 -1.331 1.441 -1.991c 0.858 -0.572 1.408 1.221 -1.331 2.079Z m 2.563 -0.616l 0.099 -0.33h 2.277c -0.055 -2.101 -0.275 -4.631 -2.662 -6.677l 0.154 -0.165c 2.86 1.925 3.201 4.543 3.322 6.842h 2.53c -0.088 -3.047 -0.286 -5.467 -0.682 -5.852c -0.121 -0.11 -0.22 -0.154 -0.451 -0.154c -0.264 0 -1.199 0.099 -1.76 0.143l -0.011 -0.187c 0.506 -0.088 1.056 -0.209 1.243 -0.341c 0.176 -0.121 0.22 -0.319 0.22 -0.55c 0.55 0 1.001 0.165 1.309 0.517c 0.539 0.594 0.759 3.036 0.847 6.336c 0.242 0.022 0.385 0.088 0.462 0.176l -0.847 0.704l -0.44 -0.462Z m -0.748 -4.169c 0.297 0.044 0.462 0.132 0.539 0.209l -0.946 0.792l -0.44 -0.561h -1.529l 0.066 -0.33h 1.628v -3.245c -0.627 -0.341 -1.298 -0.693 -1.738 -0.88l 0.517 -0.924c 0.099 0.055 0.154 0.121 0.132 0.264c 0.44 0.363 1.155 1.023 1.628 1.518c 0.759 -1.265 1.639 -1.518 3.63 -1.518c 1.21 0 2.695 0 3.762 0c 0.044 0.341 0.231 0.55 0.55 0.605v 0.154c -1.309 -0.044 -3.036 -0.044 -4.323 -0.044c -1.881 0 -2.717 0.132 -3.476 1.012Z "/></symbol><symbol id="g5730231341B7C4C7AB8A2363F7C4B89B" overflow="visible"><path d="M 0 0m 7.161 9.218c -0.176 -0.451 -0.451 -1.034 -0.715 -1.485h -2.167c 0.308 0.264 0.187 1.089 -1.265 1.463l -0.121 -0.077c 0.352 -0.341 0.748 -0.902 0.869 -1.386h -2.596l 0.088 -0.319h 3.85v -0.957h -3.542l 0.088 -0.319h 3.454v -0.99h -4.422l 0.099 -0.319h 2.508c -0.561 -1.683 -1.562 -3.322 -2.926 -4.499l 0.132 -0.154c 1.155 0.748 2.079 1.694 2.772 2.794v -3.839h 0.11c 0.308 0 0.605 0.165 0.605 0.242v 0.484h 4.257v -0.682h 0.11c 0.231 0 0.605 0.165 0.616 0.242v 4.114c 0.198 0.033 0.363 0.132 0.44 0.22l -0.88 0.671l -0.385 -0.44h -4.092l -0.176 0.077c 0.11 0.253 0.22 0.506 0.308 0.77h 5.896c 0.154 0 0.264 0.055 0.297 0.176c -0.363 0.33 -0.957 0.792 -0.957 0.792l -0.506 -0.649h -3.08v 0.99h 3.531c 0.154 0 0.253 0.055 0.286 0.176c -0.341 0.319 -0.891 0.726 -0.891 0.726l -0.473 -0.583h -2.453v 0.957h 3.938c 0.154 0 0.253 0.055 0.286 0.176c -0.352 0.319 -0.946 0.77 -0.946 0.77l -0.495 -0.627h -1.771c 0.374 0.308 0.759 0.671 1.012 0.968c 0.242 -0.011 0.374 0.077 0.429 0.198Z m -3.179 -6.809h 4.257v -0.946h -4.257Z m 0 0.319v 0.924h 4.257v -0.924Z m 0 -1.595h 4.257v -0.957h -4.257Z "/></symbol><symbol id="g24094E24DBBB4204554FA498D78007D8" overflow="visible"><path d="M 0 0m 5.379 6.941h 3.179v -1.133h -3.179Z m 0 0.319v 1.089h 3.179v -1.089Z m -0.704 1.408v -3.751h 0.099c 0.297 0 0.605 0.165 0.605 0.231v 0.341h 3.179v -0.451h 0.11c 0.242 0 0.583 0.187 0.594 0.264v 2.915c 0.22 0.044 0.396 0.132 0.473 0.209l -0.88 0.682l -0.407 -0.44h -3.014l -0.759 0.341Z m -1.254 -4.158l 0.088 -0.33h 1.672c -0.528 -1.067 -1.375 -2.046 -2.486 -2.761l 0.121 -0.165c 0.946 0.451 1.738 1.023 2.354 1.705h 0.935c -0.649 -1.232 -1.694 -2.321 -3.025 -3.102l 0.132 -0.176c 1.628 0.759 2.893 1.881 3.663 3.278h 0.891c -0.506 -1.474 -1.408 -2.706 -2.794 -3.619l 0.11 -0.176c 1.76 0.891 2.871 2.145 3.465 3.795h 0.847c -0.143 -1.617 -0.418 -2.618 -0.682 -2.849c -0.11 -0.088 -0.209 -0.11 -0.396 -0.11c -0.209 0 -0.847 0.055 -1.221 0.088l -0.011 -0.198c 0.352 -0.044 0.693 -0.132 0.825 -0.242c 0.132 -0.11 0.176 -0.308 0.176 -0.506c 0.407 0 0.781 0.099 1.067 0.33c 0.473 0.374 0.792 1.507 0.935 3.399c 0.231 0.033 0.363 0.088 0.451 0.165l -0.825 0.671l -0.407 -0.418h -3.85c 0.209 0.275 0.407 0.572 0.572 0.891h 4.334c 0.154 0 0.253 0.055 0.286 0.176c -0.363 0.341 -0.946 0.792 -0.946 0.792l -0.517 -0.638Z m -3.058 -2.486l 0.462 -0.924c 0.11 0.055 0.187 0.176 0.209 0.308c 1.342 0.814 2.376 1.518 3.091 2.002l -0.044 0.132l -1.551 -0.66v 3.047h 1.254c 0.154 0 0.264 0.055 0.297 0.176c -0.33 0.33 -0.858 0.803 -0.858 0.803l -0.462 -0.671h -0.231v 2.431c 0.275 0.044 0.374 0.154 0.396 0.308l -1.1 0.121v -2.86h -1.342l 0.088 -0.308h 1.254v -3.333c -0.638 -0.264 -1.166 -0.473 -1.463 -0.572Z "/></symbol><symbol id="gDB0A405429364AA2A223D3748608901D" overflow="visible"><path d="M 0 0m 1.166 -0.187c 2.904 0.704 4.543 2.673 4.543 5.115c 0 2.046 -1.012 3.289 -2.618 3.289c -1.419 0 -2.53 -0.957 -2.53 -2.585c 0 -1.507 0.99 -2.42 2.343 -2.42c 0.671 0 1.21 0.231 1.606 0.616c -0.319 -1.771 -1.408 -3.014 -3.432 -3.718Z m 3.399 4.389c -0.363 -0.363 -0.781 -0.539 -1.276 -0.539c -0.968 0 -1.661 0.77 -1.661 2.079c 0 1.419 0.671 2.123 1.463 2.123c 0.869 0 1.518 -0.891 1.518 -2.86c 0 -0.275 -0.011 -0.55 -0.044 -0.803Z "/></symbol><symbol id="g8D947C4A558EC950ECD40DE9C11C16E" overflow="visible"><path d="M 0 0m 3.707 -0.198h 0.979v 2.266h 1.287v 0.726h -1.287v 5.379h -0.726l -3.586 -5.522v -0.583h 3.333Z m -2.838 2.992l 1.518 2.365l 1.32 2.046v -4.411Z "/></symbol></defs></svg>