<svg xmlns="http://www.w3.org/2000/svg" xmlns:xlink="http://www.w3.org/1999/xlink" x="0" y="0" width="662" height="243" style="width:662px; height:243px; fill: none;">
        
        
        <svg xmlns="http://www.w3.org/2000/svg" class="role-diagram-draw-area"><g class="shapes-region" style="stroke: black; fill: none;"><g class="arrow-line"><path class="connection real" stroke-dasharray="" d="  M191.33,208 L381,208" style="stroke: rgb(0, 0, 0); stroke-width: 1; fill: none; fill-opacity: 1;"/><g stroke="#000" transform="matrix(-1,1.2246467991473532e-16,-1.2246467991473532e-16,-1,383,208)" style="stroke: rgb(0, 0, 0); stroke-width: 1;"><path d=" M10.93,-3.29 Q4.96,-0.45 0,0 Q4.96,0.45 10.93,3.29"/></g></g><g class="arrow-line"><path class="connection real" stroke-dasharray="" d="  M191.33,208 L191.33,59" style="stroke: rgb(0, 0, 0); stroke-width: 1; fill: none; fill-opacity: 1;"/><g stroke="#000" transform="matrix(3.061616997868383e-16,1,-1,3.061616997868383e-16,191.33331298828125,57)" style="stroke: rgb(0, 0, 0); stroke-width: 1;"><path d=" M10.93,-3.29 Q4.96,-0.45 0,0 Q4.96,0.45 10.93,3.29"/></g></g><g class="arrow-line"><path class="connection real" stroke-dasharray="" d="  M371,145 C337,143 322,126 193,90" style="stroke: rgb(0, 0, 0); stroke-width: 3; fill: none; fill-opacity: 1;"/></g><g class="arrow-line"><path class="connection real" stroke-dasharray="3.375 4.0200000000000005" d="  M205,54 C218,82 324,151 361,167" style="stroke: rgb(0, 0, 0); stroke-width: 3; fill: none; fill-opacity: 1;"/></g><g class="arrow-line"><path class="connection real" stroke-dasharray="1.125 3.35" d="  M316,128 L316,208" style="stroke: rgb(0, 0, 0); stroke-width: 1; fill: none; fill-opacity: 1;"/></g><g class="arrow-line"><path class="connection real" stroke-dasharray="1.125 3.35" d="  M357,143 L193,143" style="stroke: rgb(0, 0, 0); stroke-width: 1; fill: none; fill-opacity: 1;"/></g><g class="arrow-line"><path class="connection real" stroke-dasharray="1.125 3.35" d="  M357,143 L357,211" style="stroke: rgb(0, 0, 0); stroke-width: 1; fill: none; fill-opacity: 1;"/></g><g/></g><g/><g/><g/></svg>
        <svg xmlns="http://www.w3.org/2000/svg" xmlns:xlink="http://www.w3.org/1999/xlink" width="660" height="241" style="width:660px;height:241px;font-family:Asana-Math, Asana;"><g><g><g><text x="386" y="215.16666666666666" style="white-space:pre;stroke:none;fill:rgb(0,0,0);fill-opacity:1;font-size:17px;font-family:Asana-Math, Asana;font-weight:400;font-style:normal;dominant-baseline:auto;text-decoration:none solid rgb(0, 0, 0);">数量</text></g></g></g><g><g><g><text x="175" y="47.16666666666667" style="white-space:pre;stroke:none;fill:rgb(0,0,0);fill-opacity:1;font-size:17px;font-family:Asana-Math, Asana;font-weight:400;font-style:normal;dominant-baseline:auto;text-decoration:none solid rgb(0, 0, 0);">価格</text></g></g></g><g><g><g><text x="370" y="162" style="white-space:pre;stroke:none;fill:rgb(0,0,0);fill-opacity:1;font-size:15px;font-family:Arial, Helvetica, sans-serif;font-weight:400;font-style:normal;dominant-baseline:text-before-edge;text-decoration:none solid rgb(0, 0, 0);">需要曲線</text></g></g></g><g><g><g><text x="377" y="129" style="white-space:pre;stroke:none;fill:rgb(0,0,0);fill-opacity:1;font-size:15px;font-family:Arial, Helvetica, sans-serif;font-weight:400;font-style:normal;dominant-baseline:text-before-edge;text-decoration:none solid rgb(0, 0, 0);">供給曲線</text></g></g></g><g><g><g><g><g><g><g transform="matrix(1,0,0,1,308,225)"><path transform="matrix(0.017,0,0,-0.017,0,0)" d="M151 -172C151 -95 175 -59 228 -59C257 -59 285 -67 324 -88L469 -164C529 -195 547 -201 587 -201C662 -201 698 -158 708 -61L683 -61C677 -115 655 -140 615 -140C598 -140 579 -135 553 -125L317 -29C292 -19 274 -15 251 -15C177 -15 126 -66 126 -142C126 -144 126 -151 127 -159ZM748 425C748 603 644 706 464 706C227 706 53 523 53 272C53 83 147 -18 323 -18C595 -18 748 207 748 425ZM660 409C660 221 571 24 360 24C216 24 141 110 141 277C141 425 199 664 433 664C549 664 660 610 660 409Z" stroke="rgb(0,0,0)" stroke-opacity="1" stroke-width="8" fill="rgb(0,0,0)" fill-opacity="1"></path></g></g></g></g></g></g></g><g><g><g><g><g><g><g transform="matrix(1,0,0,1,351,226)"><path transform="matrix(0.017,0,0,-0.017,0,0)" d="M151 -172C151 -95 175 -59 228 -59C257 -59 285 -67 324 -88L469 -164C529 -195 547 -201 587 -201C662 -201 698 -158 708 -61L683 -61C677 -115 655 -140 615 -140C598 -140 579 -135 553 -125L317 -29C292 -19 274 -15 251 -15C177 -15 126 -66 126 -142C126 -144 126 -151 127 -159ZM748 425C748 603 644 706 464 706C227 706 53 523 53 272C53 83 147 -18 323 -18C595 -18 748 207 748 425ZM660 409C660 221 571 24 360 24C216 24 141 110 141 277C141 425 199 664 433 664C549 664 660 610 660 409ZM881 470C938 543 976 610 1010 696L997 709C961 697 951 694 900 679C894 599 870 533 822 456L837 446Z" stroke="rgb(0,0,0)" stroke-opacity="1" stroke-width="8" fill="rgb(0,0,0)" fill-opacity="1"></path></g></g></g></g></g></g></g><g><g><g><g><g><g><g transform="matrix(1,0,0,1,171,149)"><path transform="matrix(0.017,0,0,-0.017,0,0)" d="M105 664L160 662C184 661 195 653 195 635L112 125C95 34 94 31 54 28L13 25L9 -3L51 -2C92 -1 123 0 141 0C158 0 187 -1 227 -2L280 -3L283 25L218 28C192 29 182 37 182 58C182 67 183 74 186 93L284 648C320 654 336 656 355 656C457 656 506 612 506 519C506 411 434 323 346 323C324 323 304 328 267 342L269 311C306 293 326 288 355 288C484 288 594 405 594 541C594 642 531 695 412 692L108 692Z" stroke="rgb(0,0,0)" stroke-opacity="1" stroke-width="8" fill="rgb(0,0,0)" fill-opacity="1"></path></g></g></g></g></g></g></g></svg>
</svg>
