<svg xmlns="http://www.w3.org/2000/svg" viewBox="0 0 700 440" style="font-family:-apple-system,BlinkMacSystemFont,sans-serif">
<line x1="171.7" y1="30" x2="171.7" y2="385" stroke="rgba(0,0,0,0.06)" stroke-width="0.5"/>
<line x1="263.3" y1="30" x2="263.3" y2="385" stroke="rgba(0,0,0,0.06)" stroke-width="0.5"/>
<line x1="355.0" y1="30" x2="355.0" y2="385" stroke="rgba(0,0,0,0.06)" stroke-width="0.5"/>
<line x1="446.7" y1="30" x2="446.7" y2="385" stroke="rgba(0,0,0,0.06)" stroke-width="0.5"/>
<line x1="538.3" y1="30" x2="538.3" y2="385" stroke="rgba(0,0,0,0.06)" stroke-width="0.5"/>
<line x1="630.0" y1="30" x2="630.0" y2="385" stroke="rgba(0,0,0,0.06)" stroke-width="0.5"/>
<line x1="80" y1="355.4" x2="630" y2="355.4" stroke="rgba(0,0,0,0.06)" stroke-width="0.5"/>
<line x1="80" y1="325.8" x2="630" y2="325.8" stroke="rgba(0,0,0,0.06)" stroke-width="0.5"/>
<line x1="80" y1="296.2" x2="630" y2="296.2" stroke="rgba(0,0,0,0.06)" stroke-width="0.5"/>
<line x1="80" y1="266.7" x2="630" y2="266.7" stroke="rgba(0,0,0,0.06)" stroke-width="0.5"/>
<line x1="80" y1="237.1" x2="630" y2="237.1" stroke="rgba(0,0,0,0.06)" stroke-width="0.5"/>
<line x1="80" y1="207.5" x2="630" y2="207.5" stroke="rgba(0,0,0,0.06)" stroke-width="0.5"/>
<line x1="80" y1="177.9" x2="630" y2="177.9" stroke="rgba(0,0,0,0.06)" stroke-width="0.5"/>
<line x1="80" y1="148.3" x2="630" y2="148.3" stroke="rgba(0,0,0,0.06)" stroke-width="0.5"/>
<line x1="80" y1="118.8" x2="630" y2="118.8" stroke="rgba(0,0,0,0.06)" stroke-width="0.5"/>
<line x1="80" y1="89.2" x2="630" y2="89.2" stroke="rgba(0,0,0,0.06)" stroke-width="0.5"/>
<line x1="80" y1="59.6" x2="630" y2="59.6" stroke="rgba(0,0,0,0.06)" stroke-width="0.5"/>
<line x1="80" y1="30" x2="80" y2="385" stroke="#333" stroke-width="1.5"/>
<line x1="80" y1="385" x2="630" y2="385" stroke="#333" stroke-width="1.5"/>
<text x="355" y="415" text-anchor="middle" fill="#444" font-size="13">数量 q</text>
<text x="25" y="208" text-anchor="middle" fill="#444" font-size="13" transform="rotate(-90,25,208)">価格・費用</text>
<path fill="none" stroke="#1a8c5e" stroke-width="1.8" stroke-dasharray="6,4" d="M80.0,237.1 L82.3,238.6 L84.6,240.0 L86.9,241.5 L89.2,242.9 L91.5,244.3 L93.8,245.7 L96.0,247.1 L98.3,248.5 L100.6,249.9 L102.9,251.3 L105.2,252.6 L107.5,253.9 L109.8,255.3 L112.1,256.6 L114.4,257.9 L116.7,259.2 L119.0,260.4 L121.2,261.7 L123.5,263.0 L125.8,264.2 L128.1,265.4 L130.4,266.6 L132.7,267.8 L135.0,269.0 L137.3,270.2 L139.6,271.4 L141.9,272.5 L144.2,273.7 L146.5,274.8 L148.8,275.9 L151.0,277.0 L153.3,278.1 L155.6,279.2 L157.9,280.3 L160.2,281.3 L162.5,282.3 L164.8,283.4 L167.1,284.4 L169.4,285.4 L171.7,286.4 L174.0,287.4 L176.2,288.3 L178.5,289.3 L180.8,290.2 L183.1,291.2 L185.4,292.1 L187.7,293.0 L190.0,293.9 L192.3,294.8 L194.6,295.6 L196.9,296.5 L199.2,297.3 L201.5,298.2 L203.8,299.0 L206.0,299.8 L208.3,300.6 L210.6,301.4 L212.9,302.1 L215.2,302.9 L217.5,303.6 L219.8,304.4 L222.1,305.1 L224.4,305.8 L226.7,306.5 L229.0,307.2 L231.2,307.9 L233.5,308.5 L235.8,309.2 L238.1,309.8 L240.4,310.4 L242.7,311.0 L245.0,311.6 L247.3,312.2 L249.6,312.8 L251.9,313.4 L254.2,313.9 L256.5,314.4 L258.8,315.0 L261.0,315.5 L263.3,316.0 L265.6,316.5 L267.9,316.9 L270.2,317.4 L272.5,317.8 L274.8,318.3 L277.1,318.7 L279.4,319.1 L281.7,319.5 L284.0,319.9 L286.2,320.3 L288.5,320.7 L290.8,321.0 L293.1,321.3 L295.4,321.7 L297.7,322.0 L300.0,322.3 L302.3,322.6 L304.6,322.9 L306.9,323.1 L309.2,323.4 L311.5,323.6 L313.8,323.8 L316.0,324.1 L318.3,324.3 L320.6,324.4 L322.9,324.6 L325.2,324.8 L327.5,324.9 L329.8,325.1 L332.1,325.2 L334.4,325.3 L336.7,325.4 L339.0,325.5 L341.2,325.6 L343.5,325.7 L345.8,325.7 L348.1,325.8 L350.4,325.8 L352.7,325.8 L355.0,325.8 L357.3,325.8 L359.6,325.8 L361.9,325.8 L364.2,325.7 L366.5,325.7 L368.8,325.6 L371.0,325.5 L373.3,325.4 L375.6,325.3 L377.9,325.2 L380.2,325.1 L382.5,324.9 L384.8,324.8 L387.1,324.6 L389.4,324.4 L391.7,324.3 L394.0,324.1 L396.3,323.8 L398.5,323.6 L400.8,323.4 L403.1,323.1 L405.4,322.9 L407.7,322.6 L410.0,322.3 L412.3,322.0 L414.6,321.7 L416.9,321.3 L419.2,321.0 L421.5,320.7 L423.8,320.3 L426.0,319.9 L428.3,319.5 L430.6,319.1 L432.9,318.7 L435.2,318.3 L437.5,317.8 L439.8,317.4 L442.1,316.9 L444.4,316.5 L446.7,316.0 L449.0,315.5 L451.2,315.0 L453.5,314.4 L455.8,313.9 L458.1,313.4 L460.4,312.8 L462.7,312.2 L465.0,311.6 L467.3,311.0 L469.6,310.4 L471.9,309.8 L474.2,309.2 L476.5,308.5 L478.8,307.9 L481.0,307.2 L483.3,306.5 L485.6,305.8 L487.9,305.1 L490.2,304.4 L492.5,303.6 L494.8,302.9 L497.1,302.1 L499.4,301.4 L501.7,300.6 L504.0,299.8 L506.2,299.0 L508.5,298.2 L510.8,297.3 L513.1,296.5 L515.4,295.6 L517.7,294.8 L520.0,293.9 L522.3,293.0 L524.6,292.1 L526.9,291.2 L529.2,290.2 L531.5,289.3 L533.8,288.3 L536.0,287.4 L538.3,286.4 L540.6,285.4 L542.9,284.4 L545.2,283.4 L547.5,282.3 L549.8,281.3 L552.1,280.3 L554.4,279.2 L556.7,278.1 L559.0,277.0 L561.2,275.9 L563.5,274.8 L565.8,273.7 L568.1,272.5 L570.4,271.4 L572.7,270.2 L575.0,269.0 L577.3,267.8 L579.6,266.6 L581.9,265.4 L584.2,264.2 L586.5,263.0 L588.8,261.7 L591.0,260.4 L593.3,259.2 L595.6,257.9 L597.9,256.6 L600.2,255.3 L602.5,253.9 L604.8,252.6 L607.1,251.3 L609.4,249.9 L611.7,248.5 L614.0,247.1 L616.2,245.7 L618.5,244.3 L620.8,242.9 L623.1,241.5 L625.4,240.0 L627.7,238.6 L630.0,237.1" opacity="0"><animate attributeName="opacity" dur="36.0s" repeatCount="indefinite" keyTimes="0.0000;0.0278;0.0556;1.0000" values="0;0;1;1"/></path>
<path fill="none" stroke="#c0392b" stroke-width="1.8" d="M130.4,51.5 L132.5,61.1 L134.6,70.1 L136.7,78.4 L138.7,86.3 L140.8,93.7 L142.9,100.6 L145.0,107.2 L147.1,113.4 L149.2,119.2 L151.2,124.8 L153.3,130.1 L155.4,135.2 L157.5,140.0 L159.6,144.7 L161.6,149.1 L163.7,153.3 L165.8,157.4 L167.9,161.3 L170.0,165.1 L172.0,168.7 L174.1,172.2 L176.2,175.6 L178.3,178.8 L180.4,182.0 L182.5,185.0 L184.5,188.0 L186.6,190.8 L188.7,193.6 L190.8,196.3 L192.9,198.9 L194.9,201.4 L197.0,203.9 L199.1,206.2 L201.2,208.6 L203.3,210.8 L205.4,213.0 L207.4,215.2 L209.5,217.2 L211.6,219.3 L213.7,221.3 L215.8,223.2 L217.8,225.1 L219.9,226.9 L222.0,228.7 L224.1,230.4 L226.2,232.1 L228.3,233.8 L230.3,235.4 L232.4,237.0 L234.5,238.6 L236.6,240.1 L238.7,241.6 L240.7,243.0 L242.8,244.4 L244.9,245.8 L247.0,247.2 L249.1,248.5 L251.1,249.8 L253.2,251.1 L255.3,252.3 L257.4,253.5 L259.5,254.7 L261.6,255.8 L263.6,257.0 L265.7,258.1 L267.8,259.2 L269.9,260.2 L272.0,261.2 L274.0,262.2 L276.1,263.2 L278.2,264.2 L280.3,265.1 L282.4,266.0 L284.5,266.9 L286.5,267.8 L288.6,268.7 L290.7,269.5 L292.8,270.3 L294.9,271.1 L296.9,271.9 L299.0,272.6 L301.1,273.4 L303.2,274.1 L305.3,274.8 L307.4,275.5 L309.4,276.1 L311.5,276.8 L313.6,277.4 L315.7,278.0 L317.8,278.6 L319.8,279.2 L321.9,279.7 L324.0,280.3 L326.1,280.8 L328.2,281.3 L330.2,281.8 L332.3,282.2 L334.4,282.7 L336.5,283.1 L338.6,283.6 L340.7,284.0 L342.7,284.4 L344.8,284.8 L346.9,285.1 L349.0,285.5 L351.1,285.8 L353.1,286.1 L355.2,286.4 L357.3,286.7 L359.4,287.0 L361.5,287.2 L363.6,287.5 L365.6,287.7 L367.7,287.9 L369.8,288.1 L371.9,288.3 L374.0,288.5 L376.0,288.7 L378.1,288.8 L380.2,289.0 L382.3,289.1 L384.4,289.2 L386.5,289.3 L388.5,289.4 L390.6,289.4 L392.7,289.5 L394.8,289.5 L396.9,289.5 L398.9,289.6 L401.0,289.6 L403.1,289.5 L405.2,289.5 L407.3,289.5 L409.4,289.4 L411.4,289.4 L413.5,289.3 L415.6,289.2 L417.7,289.1 L419.8,289.0 L421.8,288.9 L423.9,288.7 L426.0,288.6 L428.1,288.4 L430.2,288.2 L432.2,288.0 L434.3,287.8 L436.4,287.6 L438.5,287.4 L440.6,287.2 L442.7,286.9 L444.7,286.6 L446.8,286.4 L448.9,286.1 L451.0,285.8 L453.1,285.5 L455.1,285.1 L457.2,284.8 L459.3,284.5 L461.4,284.1 L463.5,283.7 L465.6,283.4 L467.6,283.0 L469.7,282.6 L471.8,282.1 L473.9,281.7 L476.0,281.3 L478.0,280.8 L480.1,280.4 L482.2,279.9 L484.3,279.4 L486.4,278.9 L488.5,278.4 L490.5,277.9 L492.6,277.3 L494.7,276.8 L496.8,276.2 L498.9,275.6 L500.9,275.1 L503.0,274.5 L505.1,273.9 L507.2,273.3 L509.3,272.6 L511.3,272.0 L513.4,271.4 L515.5,270.7 L517.6,270.0 L519.7,269.3 L521.8,268.6 L523.8,267.9 L525.9,267.2 L528.0,266.5 L530.1,265.8 L532.2,265.0 L534.2,264.2 L536.3,263.5 L538.4,262.7 L540.5,261.9 L542.6,261.1 L544.7,260.3 L546.7,259.4 L548.8,258.6 L550.9,257.8 L553.0,256.9 L555.1,256.0 L557.1,255.1 L559.2,254.3 L561.3,253.3 L563.4,252.4 L565.5,251.5 L567.6,250.6 L569.6,249.6 L571.7,248.7 L573.8,247.7 L575.9,246.7 L578.0,245.7 L580.0,244.7 L582.1,243.7 L584.2,242.7 L586.3,241.6 L588.4,240.6 L590.4,239.5 L592.5,238.5 L594.6,237.4 L596.7,236.3 L598.8,235.2 L600.9,234.1 L602.9,232.9 L605.0,231.8 L607.1,230.7 L609.2,229.5 L611.3,228.3 L613.3,227.2 L615.4,226.0 L617.5,224.8 L619.6,223.6 L621.7,222.4 L623.8,221.1 L625.8,219.9 L627.9,218.6 L630.0,217.4" opacity="0"><animate attributeName="opacity" dur="36.0s" repeatCount="indefinite" keyTimes="0.0000;0.0278;0.0556;1.0000" values="0;0;1;1"/></path>
<path fill="none" stroke="#d45500" stroke-width="2.8" d="M80.0,237.1 L82.0,239.7 L84.1,242.3 L86.1,244.8 L88.1,247.3 L90.2,249.8 L92.2,252.3 L94.2,254.7 L96.3,257.1 L98.3,259.5 L100.3,261.9 L102.4,264.2 L104.4,266.5 L106.4,268.7 L108.4,271.0 L110.5,273.2 L112.5,275.3 L114.5,277.5 L116.6,279.6 L118.6,281.7 L120.6,283.7 L122.7,285.8 L124.7,287.8 L126.7,289.7 L128.8,291.7 L130.8,293.6 L132.8,295.5 L134.9,297.3 L136.9,299.1 L138.9,300.9 L141.0,302.7 L143.0,304.4 L145.0,306.1 L147.1,307.8 L149.1,309.5 L151.1,311.1 L153.2,312.7 L155.2,314.2 L157.2,315.8 L159.2,317.3 L161.3,318.7 L163.3,320.2 L165.3,321.6 L167.4,323.0 L169.4,324.4 L171.4,325.7 L173.5,327.0 L175.5,328.3 L177.5,329.5 L179.6,330.7 L181.6,331.9 L183.6,333.1 L185.7,334.2 L187.7,335.3 L189.7,336.3 L191.8,337.4 L193.8,338.4 L195.8,339.4 L197.9,340.3 L199.9,341.2 L201.9,342.1 L203.9,343.0 L206.0,343.8 L208.0,344.6 L210.0,345.4 L212.1,346.2 L214.1,346.9 L216.1,347.6 L218.2,348.2 L220.2,348.9 L222.2,349.5 L224.3,350.0 L226.3,350.6 L228.3,351.1 L230.4,351.6 L232.4,352.0 L234.4,352.5 L236.5,352.9 L238.5,353.2 L240.5,353.6 L242.6,353.9 L244.6,354.2 L246.6,354.4 L248.7,354.7 L250.7,354.9 L252.7,355.0 L254.7,355.2 L256.8,355.3 L258.8,355.3 L260.8,355.4 L262.9,355.4 L264.9,355.4 L266.9,355.4 L269.0,355.3 L271.0,355.2 L273.0,355.1 L275.1,354.9 L277.1,354.7 L279.1,354.5 L281.2,354.3 L283.2,354.0 L285.2,353.7 L287.3,353.4 L289.3,353.0 L291.3,352.7 L293.4,352.2 L295.4,351.8 L297.4,351.3 L299.5,350.8 L301.5,350.3 L303.5,349.7 L305.5,349.1 L307.6,348.5 L309.6,347.9 L311.6,347.2 L313.7,346.5 L315.7,345.8 L317.7,345.0 L319.8,344.2 L321.8,343.4 L323.8,342.5 L325.9,341.7 L327.9,340.7 L329.9,339.8 L332.0,338.8 L334.0,337.8 L336.0,336.8 L338.1,335.8 L340.1,334.7 L342.1,333.6 L344.2,332.4 L346.2,331.2 L348.2,330.0 L350.2,328.8 L352.3,327.6 L354.3,326.3 L356.3,325.0 L358.4,323.6 L360.4,322.2 L362.4,320.8 L364.5,319.4 L366.5,317.9 L368.5,316.5 L370.6,314.9 L372.6,313.4 L374.6,311.8 L376.7,310.2 L378.7,308.6 L380.7,306.9 L382.8,305.2 L384.8,303.5 L386.8,301.7 L388.9,299.9 L390.9,298.1 L392.9,296.3 L395.0,294.4 L397.0,292.5 L399.0,290.6 L401.0,288.6 L403.1,286.7 L405.1,284.6 L407.1,282.6 L409.2,280.5 L411.2,278.4 L413.2,276.3 L415.3,274.1 L417.3,272.0 L419.3,269.7 L421.4,267.5 L423.4,265.2 L425.4,262.9 L427.5,260.6 L429.5,258.2 L431.5,255.8 L433.6,253.4 L435.6,251.0 L437.6,248.5 L439.7,246.0 L441.7,243.4 L443.7,240.9 L445.8,238.3 L447.8,235.6 L449.8,233.0 L451.8,230.3 L453.9,227.6 L455.9,224.9 L457.9,222.1 L460.0,219.3 L462.0,216.5 L464.0,213.6 L466.1,210.7 L468.1,207.8 L470.1,204.9 L472.2,201.9 L474.2,198.9 L476.2,195.8 L478.3,192.8 L480.3,189.7 L482.3,186.6 L484.4,183.4 L486.4,180.3 L488.4,177.0 L490.5,173.8 L492.5,170.5 L494.5,167.3 L496.5,163.9 L498.6,160.6 L500.6,157.2 L502.6,153.8 L504.7,150.4 L506.7,146.9 L508.7,143.4 L510.8,139.9 L512.8,136.3 L514.8,132.7 L516.9,129.1 L518.9,125.5 L520.9,121.8 L523.0,118.1 L525.0,114.4 L527.0,110.6 L529.1,106.8 L531.1,103.0 L533.1,99.2 L535.2,95.3 L537.2,91.4 L539.2,87.4 L541.3,83.5 L543.3,79.5 L545.3,75.5 L547.3,71.4 L549.4,67.3 L551.4,63.2 L553.4,59.1 L555.5,54.9 L557.5,50.7 L559.5,46.5" opacity="0"><animate attributeName="opacity" dur="36.0s" repeatCount="indefinite" keyTimes="0.0000;0.0139;0.0417;1.0000" values="0;0;1;1"/></path>
<text x="572.1" y="56.9" fill="#d45500" font-size="14" font-weight="700" opacity="0">MC<animate attributeName="opacity" dur="36.0s" repeatCount="indefinite" keyTimes="0.0000;0.0139;0.0417;1.0000" values="0;0;1;1"/></text>
<text x="636.2" y="245.7" fill="#1a8c5e" font-size="13" font-weight="700" opacity="0">AVC<animate attributeName="opacity" dur="36.0s" repeatCount="indefinite" keyTimes="0.0000;0.0278;0.0556;1.0000" values="0;0;1;1"/></text>
<text x="636.2" y="223.5" fill="#c0392b" font-size="13" font-weight="700" opacity="0">AC<animate attributeName="opacity" dur="36.0s" repeatCount="indefinite" keyTimes="0.0000;0.0278;0.0556;1.0000" values="0;0;1;1"/></text>
<line x1="355.0" y1="325.8" x2="355.0" y2="385" stroke="#666" stroke-width="1.2" stroke-dasharray="4,3" opacity="0"><animate attributeName="opacity" dur="36.0s" repeatCount="indefinite" keyTimes="0.0000;0.0556;0.0833;1.0000" values="0;0;1;1"/></line>
<circle cx="355.0" cy="325.8" r="4" fill="#444" opacity="0"><animate attributeName="opacity" dur="36.0s" repeatCount="indefinite" keyTimes="0.0000;0.0556;0.0833;1.0000" values="0;0;1;1"/></circle>
<text x="355.0" y="403.0" text-anchor="middle" fill="#444" font-size="12" opacity="0">q<tspan font-size="9" baseline-shift="super">停</tspan><animate attributeName="opacity" dur="36.0s" repeatCount="indefinite" keyTimes="0.0000;0.0556;0.0833;1.0000" values="0;0;1;1"/></text>
<text x="74.0" y="329.8" text-anchor="end" fill="#444" font-size="12" opacity="0">p<tspan font-size="9" baseline-shift="super">停</tspan><animate attributeName="opacity" dur="36.0s" repeatCount="indefinite" keyTimes="0.0000;0.0556;0.0833;1.0000" values="0;0;1;1"/></text>
<g opacity="0"><animate attributeName="opacity" dur="36.0s" repeatCount="indefinite" keyTimes="0.0000;0.0833;0.0917;0.1861;0.1944;1.0000" values="0;0;1;1;0;0"/><rect x="200" y="42" width="300" height="40" rx="5" fill="white" opacity="0.94"/><text x="350" y="60" text-anchor="middle" fill="#444" font-size="13" font-weight="700">高い p では p = MC(q) を満たす q はただ1つ</text><text x="350" y="76" text-anchor="middle" fill="#666" font-size="11">MCの右上がりの部分でしか交わらない</text></g>
<line x1="80" y1="148.3" x2="80" y2="148.3" stroke="#7b3294" stroke-width="1.5" stroke-dasharray="6,4" opacity="0"><animate attributeName="x2" dur="36.0s" repeatCount="indefinite" keyTimes="0.0000;0.0917;0.1111;0.1861;0.1944;1.0000" values="80;80;505.86053684758747;505.86053684758747;80;80"/><animate attributeName="opacity" dur="36.0s" repeatCount="indefinite" keyTimes="0.0000;0.0917;0.0972;0.1861;0.1944;1.0000" values="0;0;0.9;0.9;0;0"/></line>
<text x="74.0" y="152.3" text-anchor="end" fill="#7b3294" font-size="12" font-weight="700" opacity="0">p<tspan font-size="9" baseline-shift="sub">1</tspan><animate attributeName="opacity" dur="36.0s" repeatCount="indefinite" keyTimes="0.0000;0.0917;0.0972;0.1861;0.1944;1.0000" values="0;0;1;1;0;0"/></text>
<circle cx="505.9" cy="148.3" r="5" fill="#7b3294" opacity="0"><animate attributeName="opacity" dur="36.0s" repeatCount="indefinite" keyTimes="0.0000;0.1111;0.1167;0.1861;0.1944;1.0000" values="0;0;1;1;0;0"/></circle>
<line x1="505.9" y1="148.3" x2="505.9" y2="148.3" stroke="#7b3294" stroke-width="1.5" stroke-dasharray="6,4" opacity="0"><animate attributeName="y2" dur="36.0s" repeatCount="indefinite" keyTimes="0.0000;0.1167;0.1361;0.1861;0.1944;1.0000" values="148.33333333333334;148.33333333333334;385;385;385;385"/><animate attributeName="opacity" dur="36.0s" repeatCount="indefinite" keyTimes="0.0000;0.1167;0.1222;0.1861;0.1944;1.0000" values="0;0;0.9;0.9;0;0"/></line>
<text x="505.9" y="403.0" text-anchor="middle" fill="#7b3294" font-size="12" font-weight="700" opacity="0">q<tspan font-size="9" baseline-shift="sub">1</tspan><animate attributeName="opacity" dur="36.0s" repeatCount="indefinite" keyTimes="0.0000;0.1361;0.1417;0.1861;0.1944;1.0000" values="0;0;1;1;0;0"/></text>
<g opacity="0"><animate attributeName="opacity" dur="36.0s" repeatCount="indefinite" keyTimes="0.0000;0.2222;0.2306;0.3528;0.3611;1.0000" values="0;0;1;1;0;0"/><rect x="180" y="42" width="340" height="40" rx="5" fill="white" opacity="0.94"/><text x="350" y="60" text-anchor="middle" fill="#444" font-size="13" font-weight="700">中ぐらいの p だと q が2つ見つかる</text><text x="350" y="76" text-anchor="middle" fill="#666" font-size="11">どちらがベストだろうか？</text></g>
<line x1="80" y1="296.2" x2="80" y2="296.2" stroke="#2471a3" stroke-width="1.5" stroke-dasharray="6,4" opacity="0"><animate attributeName="x2" dur="36.0s" repeatCount="indefinite" keyTimes="0.0000;0.2306;0.2639;0.5972;0.6111;1.0000" values="80;80;600;600;80;80"/><animate attributeName="opacity" dur="36.0s" repeatCount="indefinite" keyTimes="0.0000;0.2306;0.2361;0.5972;0.6111;1.0000" values="0;0;0.9;0.9;0;0"/></line>
<text x="74.0" y="300.2" text-anchor="end" fill="#2471a3" font-size="12" font-weight="700" opacity="0">p<tspan font-size="9" baseline-shift="sub">2</tspan><animate attributeName="opacity" dur="36.0s" repeatCount="indefinite" keyTimes="0.0000;0.2306;0.2361;0.5972;0.6111;1.0000" values="0;0;1;1;0;0"/></text>
<circle cx="133.7" cy="296.2" r="5" fill="#2471a3" opacity="0"><animate attributeName="opacity" dur="36.0s" repeatCount="indefinite" keyTimes="0.0000;0.2639;0.2722;0.3806;0.4722;0.5972;0.6111;1.0000" values="0;0;1;1;0.22;0.22;0;0"/></circle>
<line x1="133.7" y1="296.2" x2="133.7" y2="296.2" stroke="#2471a3" stroke-width="1.2" stroke-dasharray="5,4" opacity="0"><animate attributeName="y2" dur="36.0s" repeatCount="indefinite" keyTimes="0.0000;0.2722;0.2833;1.0000" values="296.25;296.25;385;385"/><animate attributeName="opacity" dur="36.0s" repeatCount="indefinite" keyTimes="0.0000;0.2722;0.2778;0.3806;0.4722;0.5972;0.6111;1.0000" values="0;0;0.7;0.7;0.18;0.18;0;0"/></line>
<text x="133.7" y="403.0" text-anchor="middle" fill="#2471a3" font-size="12" font-weight="700" opacity="0">q<tspan font-size="9" baseline-shift="sub">a</tspan><animate attributeName="opacity" dur="36.0s" repeatCount="indefinite" keyTimes="0.0000;0.2639;0.2722;0.3806;0.4722;0.5972;0.6111;1.0000" values="0;0;1;1;0.22;0.22;0;0"/></text>
<circle cx="393.0" cy="296.2" r="5" fill="#2471a3" opacity="0"><animate attributeName="opacity" dur="36.0s" repeatCount="indefinite" keyTimes="0.0000;0.2833;0.2917;0.5972;0.6111;1.0000" values="0;0;1;1;0;0"/><animate attributeName="r" dur="36.0s" repeatCount="indefinite" keyTimes="0.0000;0.4722;0.4833;0.5972;0.6111;1.0000" values="5;5;7;7;5;5"/></circle>
<line x1="393.0" y1="296.2" x2="393.0" y2="296.2" stroke="#2471a3" stroke-width="1.2" stroke-dasharray="5,4" opacity="0"><animate attributeName="y2" dur="36.0s" repeatCount="indefinite" keyTimes="0.0000;0.2917;0.3056;1.0000" values="296.25;296.25;385;385"/><animate attributeName="opacity" dur="36.0s" repeatCount="indefinite" keyTimes="0.0000;0.2917;0.2972;0.5972;0.6111;1.0000" values="0;0;0.7;0.7;0;0"/></line>
<text x="393.0" y="403.0" text-anchor="middle" fill="#2471a3" font-size="12" font-weight="700" opacity="0">q<tspan font-size="9" baseline-shift="sub">b</tspan><animate attributeName="opacity" dur="36.0s" repeatCount="indefinite" keyTimes="0.0000;0.2833;0.2917;0.5972;0.6111;1.0000" values="0;0;1;1;0;0"/></text>
<g opacity="0"><animate attributeName="opacity" dur="36.0s" repeatCount="indefinite" keyTimes="0.0000;0.3611;0.3694;0.4639;0.4722;1.0000" values="0;0;1;1;0;0"/><rect x="150" y="92" width="400" height="44" rx="5" fill="white" opacity="0.94"/><text x="350" y="111" text-anchor="middle" fill="#444" font-size="13" font-weight="700">左の q は q<tspan font-size="11" baseline-shift="super">停</tspan> より小さい—— ベストにならない</text><text x="350" y="128" text-anchor="middle" fill="#666" font-size="11">続けるより止めた方が損が小さい範囲</text></g>
<rect x="80.0" y="30" width="275.0" height="355" fill="#9e9e9e" opacity="0"><animate attributeName="opacity" dur="36.0s" repeatCount="indefinite" keyTimes="0.0000;0.3750;0.3889;0.5972;0.6111;1.0000" values="0;0;0.18;0.18;0;0"/></rect>
<g opacity="0"><animate attributeName="opacity" dur="36.0s" repeatCount="indefinite" keyTimes="0.0000;0.4722;0.4806;0.5972;0.6111;1.0000" values="0;0;1;1;0;0"/><rect x="200" y="42" width="300" height="40" rx="5" fill="white" opacity="0.94"/><text x="350" y="60" text-anchor="middle" fill="#444" font-size="13" font-weight="700">残った右の q がベストな生産量</text><text x="350" y="76" text-anchor="middle" fill="#666" font-size="11">q ≥ q<tspan font-size="10" baseline-shift="super">停</tspan> の範囲だけ考えればよい</text></g>
<path fill="none" stroke="#1a3c6e" stroke-width="4.5" stroke-linecap="round" d="M355.0,325.8 L356.3,325.0 L357.7,324.1 L359.0,323.2 L360.3,322.3 L361.6,321.4 L363.0,320.5 L364.3,319.5 L365.6,318.6 L367.0,317.6 L368.3,316.6 L369.6,315.6 L370.9,314.6 L372.3,313.6 L373.6,312.6 L374.9,311.6 L376.3,310.5 L377.6,309.5 L378.9,308.4 L380.3,307.3 L381.6,306.2 L382.9,305.1 L384.2,303.9 L385.6,302.8 L386.9,301.7 L388.2,300.5 L389.6,299.3 L390.9,298.1 L392.2,296.9 L393.5,295.7 L394.9,294.5 L396.2,293.3 L397.5,292.0 L398.9,290.7 L400.2,289.5 L401.5,288.2 L402.9,286.9 L404.2,285.6 L405.5,284.3 L406.8,282.9 L408.2,281.6 L409.5,280.2 L410.8,278.8 L412.2,277.4 L413.5,276.0 L414.8,274.6 L416.1,273.2 L417.5,271.8 L418.8,270.3 L420.1,268.9 L421.5,267.4 L422.8,265.9 L424.1,264.4 L425.4,262.9 L426.8,261.4 L428.1,259.8 L429.4,258.3 L430.8,256.7 L432.1,255.2 L433.4,253.6 L434.8,252.0 L436.1,250.4 L437.4,248.7 L438.7,247.1 L440.1,245.4 L441.4,243.8 L442.7,242.1 L444.1,240.4 L445.4,238.7 L446.7,237.0 L448.0,235.3 L449.4,233.6 L450.7,231.8 L452.0,230.1 L453.4,228.3 L454.7,226.5 L456.0,224.7 L457.3,222.9 L458.7,221.1 L460.0,219.2 L461.3,217.4 L462.7,215.5 L464.0,213.7 L465.3,211.8 L466.6,209.9 L468.0,208.0 L469.3,206.1 L470.6,204.1 L472.0,202.2 L473.3,200.2 L474.6,198.2 L476.0,196.3 L477.3,194.3 L478.6,192.3 L479.9,190.2 L481.3,188.2 L482.6,186.2 L483.9,184.1 L485.3,182.0 L486.6,179.9 L487.9,177.8 L489.2,175.7 L490.6,173.6 L491.9,171.5 L493.2,169.3 L494.6,167.2 L495.9,165.0 L497.2,162.8 L498.6,160.6 L499.9,158.4 L501.2,156.2 L502.5,154.0 L503.9,151.7 L505.2,149.5 L506.5,147.2 L507.9,144.9 L509.2,142.6 L510.5,140.3 L511.8,138.0 L513.2,135.7 L514.5,133.3 L515.8,131.0 L517.2,128.6 L518.5,126.2 L519.8,123.8 L521.1,121.4 L522.5,119.0 L523.8,116.6 L525.1,114.1 L526.5,111.7 L527.8,109.2 L529.1,106.7 L530.5,104.2 L531.8,101.7 L533.1,99.2 L534.4,96.7 L535.8,94.1 L537.1,91.6 L538.4,89.0 L539.8,86.4 L541.1,83.8 L542.4,81.2 L543.7,78.6 L545.1,76.0 L546.4,73.3 L547.7,70.7 L549.1,68.0 L550.4,65.3 L551.7,62.6 L553.0,59.9 L554.4,57.2 L555.7,54.5 L557.0,51.7 L558.4,49.0 L559.7,46.2" stroke-dasharray="350" stroke-dashoffset="350" opacity="0"><animate attributeName="opacity" dur="36.0s" repeatCount="indefinite" keyTimes="0.0000;0.6111;0.6250;1.0000" values="0;0;1;1"/><animate attributeName="stroke-dashoffset" dur="36.0s" repeatCount="indefinite" keyTimes="0.0000;0.6250;0.8333;1.0000" values="350.4724651470398;350.4724651470398;0;0"/></path>
<g opacity="0"><animate attributeName="opacity" dur="36.0s" repeatCount="indefinite" keyTimes="0.0000;0.8333;0.8472;1.0000" values="0;0;1;1"/><rect x="170" y="42" width="360" height="46" rx="5" fill="white" opacity="0.95"/><text x="350" y="62" text-anchor="middle" fill="#444" font-size="13" font-weight="700">q ≥ q<tspan font-size="11" baseline-shift="super">停</tspan> の部分の MC が供給曲線</text><text x="350" y="81" text-anchor="middle" fill="#1a3c6e" font-size="14" font-weight="700">→ これが S（供給曲線）</text></g>
<text x="525.3" y="81.2" fill="#1a3c6e" font-size="18" font-weight="800" opacity="0">S<animate attributeName="opacity" dur="36.0s" repeatCount="indefinite" keyTimes="0.0000;0.8333;0.8472;1.0000" values="0;0;1;1"/></text>
</svg>