<svg xmlns="http://www.w3.org/2000/svg" viewBox="0 0 600 510" style="font-family:-apple-system,BlinkMacSystemFont,sans-serif">
<defs><marker id="ahb" markerWidth="8" markerHeight="8" refX="6" refY="3" orient="auto"><path d="M0,0 L6,3 L0,6 Z" fill="#2c5fa6"/></marker><marker id="ahr" markerWidth="8" markerHeight="8" refX="6" refY="3" orient="auto"><path d="M0,0 L6,3 L0,6 Z" fill="#c0392b"/></marker></defs>
<rect x="0" y="0" width="600" height="510" fill="#fafbfc"/>
<rect x="30" y="10" width="540" height="46" rx="8" fill="#eef3f9" stroke="#dde3eb"/>
<g stroke="rgba(0,0,0,0.06)" stroke-width="0.5">
<line x1="80" y1="427" x2="480" y2="427"/>
<line x1="133" y1="80" x2="133" y2="480"/>
<line x1="80" y1="373" x2="480" y2="373"/>
<line x1="187" y1="80" x2="187" y2="480"/>
<line x1="80" y1="320" x2="480" y2="320"/>
<line x1="240" y1="80" x2="240" y2="480"/>
<line x1="80" y1="267" x2="480" y2="267"/>
<line x1="293" y1="80" x2="293" y2="480"/>
<line x1="80" y1="213" x2="480" y2="213"/>
<line x1="347" y1="80" x2="347" y2="480"/>
<line x1="80" y1="160" x2="480" y2="160"/>
<line x1="400" y1="80" x2="400" y2="480"/>
<line x1="80" y1="107" x2="480" y2="107"/>
<line x1="453" y1="80" x2="453" y2="480"/>
</g>
<line x1="80" y1="80" x2="80" y2="480" stroke="#333" stroke-width="1.5"/>
<line x1="80" y1="480" x2="480" y2="480" stroke="#333" stroke-width="1.5"/>
<text x="486" y="486" font-size="13" font-weight="600" fill="#333">余暇 ℓ</text>
<text x="74" y="78" font-size="13" font-weight="600" fill="#333" text-anchor="end">消費 c</text>
<text x="74" y="495" font-size="12" fill="#666" text-anchor="end">O</text>
<line x1="400.0" y1="133.3" x2="400.0" y2="480" stroke="#666" stroke-width="1.1" stroke-dasharray="5,3"/>
<text x="400" y="497" font-size="12" fill="#666" text-anchor="middle">24</text>
<line x1="80" y1="440.0" x2="400.0" y2="440.0" stroke="#888" stroke-width="1" stroke-dasharray="3,3"/>
<text x="76" y="444" font-size="12" fill="#666" text-anchor="end">s</text>
<circle cx="400.0" cy="440.0" r="4" fill="#fff" stroke="#333" stroke-width="1.8"/>
<text x="407" y="455" font-size="12" font-weight="700" fill="#333">B（賦存点）</text>
<g opacity="0"><animate attributeName="opacity" dur="36s" repeatCount="indefinite" keyTimes="0;0.0200;0.0260;1" values="0;0;1;1"/>
<path d="M 220.0,362.8 L 222.9,364.9 L 225.7,367.0 L 228.6,369.1 L 231.4,371.0 L 234.3,373.0 L 237.2,374.9 L 240.0,376.7 L 242.9,378.5 L 245.8,380.2 L 248.6,381.9 L 251.5,383.5 L 254.3,385.1 L 257.2,386.7 L 260.1,388.2 L 262.9,389.7 L 265.8,391.2 L 268.6,392.6 L 271.5,394.0 L 274.4,395.3 L 277.2,396.6 L 280.1,397.9 L 282.9,399.2 L 285.8,400.4 L 288.7,401.6 L 291.5,402.8 L 294.4,404.0 L 297.2,405.1 L 300.1,406.2 L 303.0,407.3 L 305.8,408.4 L 308.7,409.4 L 311.6,410.4 L 314.4,411.4 L 317.3,412.4 L 320.1,413.4 L 323.0,414.3 L 325.9,415.2 L 328.7,416.2 L 331.6,417.0 L 334.4,417.9 L 337.3,418.8 L 340.2,419.6 L 343.0,420.5 L 345.9,421.3 L 348.8,422.1 L 351.6,422.8 L 354.5,423.6 L 357.3,424.4" fill="none" stroke="#9bb7d4" stroke-width="1.2" opacity="0.55"/>
<path d="M 180.6,302.2 L 183.5,305.9 L 186.4,309.4 L 189.2,312.9 L 192.1,316.2 L 194.9,319.4 L 197.8,322.5 L 200.7,325.5 L 203.5,328.4 L 206.4,331.3 L 209.3,334.0 L 212.1,336.6 L 215.0,339.2 L 217.8,341.7 L 220.7,344.1 L 223.6,346.4 L 226.4,348.7 L 229.3,350.9 L 232.1,353.1 L 235.0,355.2 L 237.9,357.2 L 240.7,359.2 L 243.6,361.1 L 246.4,363.0 L 249.3,364.8 L 252.2,366.6 L 255.0,368.3 L 257.9,370.0 L 260.8,371.7 L 263.6,373.3 L 266.5,374.9 L 269.3,376.4 L 272.2,377.9 L 275.1,379.4 L 277.9,380.8 L 280.8,382.2 L 283.6,383.6 L 286.5,384.9 L 289.4,386.2 L 292.2,387.5 L 295.1,388.8 L 297.9,390.0 L 300.8,391.2 L 303.7,392.4 L 306.5,393.5 L 309.4,394.7 L 312.3,395.8 L 315.1,396.8 L 318.0,397.9" fill="none" stroke="#9bb7d4" stroke-width="1.2" opacity="0.55"/>
<path d="M 158.6,240.2 L 161.4,245.7 L 164.3,250.9 L 167.1,255.9 L 170.0,260.7 L 172.9,265.3 L 175.7,269.8 L 178.6,274.1 L 181.4,278.2 L 184.3,282.2 L 187.2,286.0 L 190.0,289.7 L 192.9,293.2 L 195.8,296.7 L 198.6,300.0 L 201.5,303.2 L 204.3,306.4 L 207.2,309.4 L 210.1,312.3 L 212.9,315.2 L 215.8,317.9 L 218.6,320.6 L 221.5,323.2 L 224.4,325.7 L 227.2,328.1 L 230.1,330.5 L 232.9,332.8 L 235.8,335.0 L 238.7,337.2 L 241.5,339.4 L 244.4,341.4 L 247.3,343.4 L 250.1,345.4 L 253.0,347.3 L 255.8,349.2 L 258.7,351.0 L 261.6,352.8 L 264.4,354.5 L 267.3,356.2 L 270.1,357.9 L 273.0,359.5 L 275.9,361.1 L 278.7,362.6 L 281.6,364.1 L 284.4,365.6 L 287.3,367.0 L 290.2,368.5 L 293.0,369.8 L 295.9,371.2" fill="none" stroke="#9bb7d4" stroke-width="1.2" opacity="0.55"/>
<path d="M 153.3,188.4 L 156.2,195.3 L 159.1,201.9 L 161.9,208.3 L 164.8,214.4 L 167.6,220.2 L 170.5,225.8 L 173.4,231.2 L 176.2,236.4 L 179.1,241.3 L 181.9,246.1 L 184.8,250.8 L 187.7,255.2 L 190.5,259.5 L 193.4,263.7 L 196.2,267.7 L 199.1,271.6 L 202.0,275.4 L 204.8,279.0 L 207.7,282.5 L 210.6,285.9 L 213.4,289.2 L 216.3,292.4 L 219.1,295.5 L 222.0,298.6 L 224.9,301.5 L 227.7,304.4 L 230.6,307.1 L 233.4,309.8 L 236.3,312.4 L 239.2,315.0 L 242.0,317.5 L 244.9,319.9 L 247.8,322.2 L 250.6,324.5 L 253.5,326.8 L 256.3,329.0 L 259.2,331.1 L 262.1,333.2 L 264.9,335.2 L 267.8,337.2 L 270.6,339.1 L 273.5,341.0 L 276.4,342.8 L 279.2,344.6 L 282.1,346.4 L 284.9,348.1 L 287.8,349.8 L 290.7,351.4" fill="none" stroke="#9bb7d4" stroke-width="1.2" opacity="0.55"/>
<path d="M 160.2,122.5 L 163.0,131.1 L 165.9,139.4 L 168.7,147.4 L 171.6,155.0 L 174.5,162.4 L 177.3,169.4 L 180.2,176.2 L 183.0,182.8 L 185.9,189.1 L 188.8,195.2 L 191.6,201.1 L 194.5,206.8 L 197.4,212.3 L 200.2,217.6 L 203.1,222.7 L 205.9,227.7 L 208.8,232.5 L 211.7,237.2 L 214.5,241.7 L 217.4,246.1 L 220.2,250.4 L 223.1,254.5 L 226.0,258.5 L 228.8,262.4 L 231.7,266.2 L 234.5,269.9 L 237.4,273.5 L 240.3,277.0 L 243.1,280.4 L 246.0,283.7 L 248.9,286.9 L 251.7,290.1 L 254.6,293.2 L 257.4,296.2 L 260.3,299.1 L 263.2,301.9 L 266.0,304.7 L 268.9,307.4 L 271.7,310.1 L 274.6,312.7 L 277.5,315.2 L 280.3,317.7 L 283.2,320.1 L 286.0,322.4 L 288.9,324.8 L 291.8,327.0 L 294.6,329.2 L 297.5,331.4" fill="none" stroke="#9bb7d4" stroke-width="1.2" opacity="0.55"/>
<path d="M 204.3,106.7 L 206.7,113.8 L 209.2,120.7 L 211.6,127.5 L 214.0,134.1 L 216.4,140.5 L 218.8,146.7 L 221.2,152.8 L 223.6,158.8 L 226.0,164.6 L 228.4,170.2 L 230.8,175.8 L 233.2,181.2 L 235.6,186.5 L 238.0,191.6 L 240.4,196.7 L 242.8,201.6 L 245.2,206.4 L 247.6,211.1 L 250.0,215.7 L 252.4,220.3 L 254.8,224.7 L 257.2,229.0 L 259.6,233.3 L 262.0,237.4 L 264.4,241.5 L 266.8,245.5 L 269.2,249.4 L 271.6,253.2 L 274.0,257.0 L 276.4,260.7 L 278.8,264.3 L 281.3,267.8 L 283.7,271.3 L 286.1,274.7 L 288.5,278.1 L 290.9,281.4 L 293.3,284.6 L 295.7,287.8 L 298.1,290.9 L 300.5,294.0 L 302.9,297.0 L 305.3,300.0 L 307.7,302.9 L 310.1,305.7 L 312.5,308.5 L 314.9,311.3 L 317.3,314.0 L 319.7,316.7" fill="none" stroke="#9bb7d4" stroke-width="1.2" opacity="0.55"/>
<path d="M 274.9,106.7 L 276.6,112.6 L 278.3,118.5 L 280.0,124.3 L 281.7,130.0 L 283.5,135.7 L 285.2,141.2 L 286.9,146.7 L 288.6,152.1 L 290.3,157.5 L 292.1,162.8 L 293.8,168.0 L 295.5,173.1 L 297.2,178.2 L 298.9,183.2 L 300.6,188.2 L 302.4,193.1 L 304.1,197.9 L 305.8,202.7 L 307.5,207.4 L 309.2,212.1 L 310.9,216.7 L 312.7,221.2 L 314.4,225.7 L 316.1,230.1 L 317.8,234.5 L 319.5,238.8 L 321.3,243.1 L 323.0,247.4 L 324.7,251.5 L 326.4,255.7 L 328.1,259.8 L 329.8,263.8 L 331.6,267.8 L 333.3,271.8 L 335.0,275.7 L 336.7,279.5 L 338.4,283.4 L 340.2,287.1 L 341.9,290.9 L 343.6,294.6 L 345.3,298.2 L 347.0,301.9 L 348.7,305.4 L 350.5,309.0 L 352.2,312.5 L 353.9,316.0 L 355.6,319.4 L 357.3,322.8" fill="none" stroke="#9bb7d4" stroke-width="1.2" opacity="0.55"/>
</g>
<path d="M 320.0,413.3 L 280.6,382.1 L 258.6,350.9 L 253.3,326.7 L 260.2,298.9 L 282.4,269.5 L 320.0,240.0" fill="none" stroke="#d9822b" stroke-width="1.8" stroke-dasharray="4,4" opacity="0"><animate attributeName="opacity" dur="36s" repeatCount="indefinite" keyTimes="0;0.8714;0.8774;1" values="0;0;1;1"/></path>
<text x="328" y="240" font-size="12" font-weight="700" fill="#d9822b" opacity="0"><animate attributeName="opacity" dur="36s" repeatCount="indefinite" keyTimes="0;0.8714;0.8774;1" values="0;0;1;1"/>オファーカーブ</text>
<g opacity="0"><animate attributeName="opacity" dur="36s" repeatCount="indefinite" keyTimes="0;0.1000;0.1060;0.2286;0.2346;1" values="0;0;1;1;0;0"/><line x1="80.0" y1="333.3" x2="400.0" y2="440.0" stroke="#7a2a1e" stroke-width="2.4"/><line x1="400.0" y1="440.0" x2="480.0" y2="466.7" stroke="#7a2a1e" stroke-width="1.6" stroke-dasharray="5,4"/></g>
<path d="M 220.0,362.8 L 222.9,364.9 L 225.7,367.0 L 228.6,369.1 L 231.4,371.0 L 234.3,373.0 L 237.2,374.9 L 240.0,376.7 L 242.9,378.5 L 245.8,380.2 L 248.6,381.9 L 251.5,383.5 L 254.3,385.1 L 257.2,386.7 L 260.1,388.2 L 262.9,389.7 L 265.8,391.2 L 268.6,392.6 L 271.5,394.0 L 274.4,395.3 L 277.2,396.6 L 280.1,397.9 L 282.9,399.2 L 285.8,400.4 L 288.7,401.6 L 291.5,402.8 L 294.4,404.0 L 297.2,405.1 L 300.1,406.2 L 303.0,407.3 L 305.8,408.4 L 308.7,409.4 L 311.6,410.4 L 314.4,411.4 L 317.3,412.4 L 320.1,413.4 L 323.0,414.3 L 325.9,415.2 L 328.7,416.2 L 331.6,417.0 L 334.4,417.9 L 337.3,418.8 L 340.2,419.6 L 343.0,420.5 L 345.9,421.3 L 348.8,422.1 L 351.6,422.8 L 354.5,423.6 L 357.3,424.4" fill="none" stroke="#2c5fa6" stroke-width="2.2" opacity="0"><animate attributeName="opacity" dur="36s" repeatCount="indefinite" keyTimes="0;0.1000;0.1060;0.2286;0.2346;1" values="0;0;1;1;0;0"/></path>
<circle cx="320.0" cy="413.3" r="3.0" fill="#888" opacity="0"><animate attributeName="opacity" dur="36s" repeatCount="indefinite" keyTimes="0;0.1000;0.1060;1" values="0;0;1;1"/></circle>
<circle cx="320.0" cy="413.3" r="5.0" fill="#d9822b" stroke="#fff" stroke-width="1.5" opacity="0"><animate attributeName="opacity" dur="36s" repeatCount="indefinite" keyTimes="0;0.1000;0.1060;0.2286;0.2346;1" values="0;0;1;1;0;0"/></circle>
<g opacity="0"><animate attributeName="opacity" dur="36s" repeatCount="indefinite" keyTimes="0;0.2286;0.2346;0.3571;0.3631;1" values="0;0;1;1;0;0"/><line x1="80.0" y1="284.9" x2="400.0" y2="440.0" stroke="#7a2a1e" stroke-width="2.4"/><line x1="400.0" y1="440.0" x2="480.0" y2="478.8" stroke="#7a2a1e" stroke-width="1.6" stroke-dasharray="5,4"/></g>
<path d="M 180.6,302.2 L 183.5,305.9 L 186.4,309.4 L 189.2,312.9 L 192.1,316.2 L 194.9,319.4 L 197.8,322.5 L 200.7,325.5 L 203.5,328.4 L 206.4,331.3 L 209.3,334.0 L 212.1,336.6 L 215.0,339.2 L 217.8,341.7 L 220.7,344.1 L 223.6,346.4 L 226.4,348.7 L 229.3,350.9 L 232.1,353.1 L 235.0,355.2 L 237.9,357.2 L 240.7,359.2 L 243.6,361.1 L 246.4,363.0 L 249.3,364.8 L 252.2,366.6 L 255.0,368.3 L 257.9,370.0 L 260.8,371.7 L 263.6,373.3 L 266.5,374.9 L 269.3,376.4 L 272.2,377.9 L 275.1,379.4 L 277.9,380.8 L 280.8,382.2 L 283.6,383.6 L 286.5,384.9 L 289.4,386.2 L 292.2,387.5 L 295.1,388.8 L 297.9,390.0 L 300.8,391.2 L 303.7,392.4 L 306.5,393.5 L 309.4,394.7 L 312.3,395.8 L 315.1,396.8 L 318.0,397.9" fill="none" stroke="#2c5fa6" stroke-width="2.2" opacity="0"><animate attributeName="opacity" dur="36s" repeatCount="indefinite" keyTimes="0;0.2286;0.2346;0.3571;0.3631;1" values="0;0;1;1;0;0"/></path>
<g opacity="0"><animate attributeName="opacity" dur="36s" repeatCount="indefinite" keyTimes="0;0.2286;0.2346;0.3571;0.3631;1" values="0;0;1;1;0;0"/><line x1="320.0" y1="413.3" x2="320.0" y2="382.1" stroke="#888" stroke-width="1.6" stroke-dasharray="3,2"/><line x1="320.0" y1="382.1" x2="280.6" y2="382.1" stroke="#2c5fa6" stroke-width="2.6" marker-end="url(#ahb)"/></g>
<circle cx="280.6" cy="382.1" r="3.0" fill="#888" opacity="0"><animate attributeName="opacity" dur="36s" repeatCount="indefinite" keyTimes="0;0.2286;0.2346;1" values="0;0;1;1"/></circle>
<circle cx="280.6" cy="382.1" r="5.0" fill="#d9822b" stroke="#fff" stroke-width="1.5" opacity="0"><animate attributeName="opacity" dur="36s" repeatCount="indefinite" keyTimes="0;0.2286;0.2346;0.3571;0.3631;1" values="0;0;1;1;0;0"/></circle>
<g opacity="0"><animate attributeName="opacity" dur="36s" repeatCount="indefinite" keyTimes="0;0.3571;0.3631;0.4857;0.4917;1" values="0;0;1;1;0;0"/><line x1="80.0" y1="238.5" x2="400.0" y2="440.0" stroke="#7a2a1e" stroke-width="2.4"/><line x1="400.0" y1="440.0" x2="463.5" y2="480.0" stroke="#7a2a1e" stroke-width="1.6" stroke-dasharray="5,4"/></g>
<path d="M 158.6,240.2 L 161.4,245.7 L 164.3,250.9 L 167.1,255.9 L 170.0,260.7 L 172.9,265.3 L 175.7,269.8 L 178.6,274.1 L 181.4,278.2 L 184.3,282.2 L 187.2,286.0 L 190.0,289.7 L 192.9,293.2 L 195.8,296.7 L 198.6,300.0 L 201.5,303.2 L 204.3,306.4 L 207.2,309.4 L 210.1,312.3 L 212.9,315.2 L 215.8,317.9 L 218.6,320.6 L 221.5,323.2 L 224.4,325.7 L 227.2,328.1 L 230.1,330.5 L 232.9,332.8 L 235.8,335.0 L 238.7,337.2 L 241.5,339.4 L 244.4,341.4 L 247.3,343.4 L 250.1,345.4 L 253.0,347.3 L 255.8,349.2 L 258.7,351.0 L 261.6,352.8 L 264.4,354.5 L 267.3,356.2 L 270.1,357.9 L 273.0,359.5 L 275.9,361.1 L 278.7,362.6 L 281.6,364.1 L 284.4,365.6 L 287.3,367.0 L 290.2,368.5 L 293.0,369.8 L 295.9,371.2" fill="none" stroke="#2c5fa6" stroke-width="2.2" opacity="0"><animate attributeName="opacity" dur="36s" repeatCount="indefinite" keyTimes="0;0.3571;0.3631;0.4857;0.4917;1" values="0;0;1;1;0;0"/></path>
<g opacity="0"><animate attributeName="opacity" dur="36s" repeatCount="indefinite" keyTimes="0;0.3571;0.3631;0.4857;0.4917;1" values="0;0;1;1;0;0"/><line x1="280.6" y1="382.1" x2="280.6" y2="350.9" stroke="#888" stroke-width="1.6" stroke-dasharray="3,2"/><line x1="280.6" y1="350.9" x2="258.6" y2="350.9" stroke="#2c5fa6" stroke-width="2.6" marker-end="url(#ahb)"/></g>
<circle cx="258.6" cy="350.9" r="3.0" fill="#888" opacity="0"><animate attributeName="opacity" dur="36s" repeatCount="indefinite" keyTimes="0;0.3571;0.3631;1" values="0;0;1;1"/></circle>
<circle cx="258.6" cy="350.9" r="5.0" fill="#d9822b" stroke="#fff" stroke-width="1.5" opacity="0"><animate attributeName="opacity" dur="36s" repeatCount="indefinite" keyTimes="0;0.3571;0.3631;0.4857;0.4917;1" values="0;0;1;1;0;0"/></circle>
<g opacity="0"><animate attributeName="opacity" dur="36s" repeatCount="indefinite" keyTimes="0;0.4857;0.4917;0.6143;0.6203;1" values="0;0;1;1;0;0"/><line x1="80.0" y1="192.7" x2="400.0" y2="440.0" stroke="#7a2a1e" stroke-width="2.4"/><line x1="400.0" y1="440.0" x2="451.8" y2="480.0" stroke="#7a2a1e" stroke-width="1.6" stroke-dasharray="5,4"/></g>
<path d="M 153.3,188.4 L 156.2,195.3 L 159.1,201.9 L 161.9,208.3 L 164.8,214.4 L 167.6,220.2 L 170.5,225.8 L 173.4,231.2 L 176.2,236.4 L 179.1,241.3 L 181.9,246.1 L 184.8,250.8 L 187.7,255.2 L 190.5,259.5 L 193.4,263.7 L 196.2,267.7 L 199.1,271.6 L 202.0,275.4 L 204.8,279.0 L 207.7,282.5 L 210.6,285.9 L 213.4,289.2 L 216.3,292.4 L 219.1,295.5 L 222.0,298.6 L 224.9,301.5 L 227.7,304.4 L 230.6,307.1 L 233.4,309.8 L 236.3,312.4 L 239.2,315.0 L 242.0,317.5 L 244.9,319.9 L 247.8,322.2 L 250.6,324.5 L 253.5,326.8 L 256.3,329.0 L 259.2,331.1 L 262.1,333.2 L 264.9,335.2 L 267.8,337.2 L 270.6,339.1 L 273.5,341.0 L 276.4,342.8 L 279.2,344.6 L 282.1,346.4 L 284.9,348.1 L 287.8,349.8 L 290.7,351.4" fill="none" stroke="#2c5fa6" stroke-width="2.2" opacity="0"><animate attributeName="opacity" dur="36s" repeatCount="indefinite" keyTimes="0;0.4857;0.4917;0.6143;0.6203;1" values="0;0;1;1;0;0"/></path>
<g opacity="0"><animate attributeName="opacity" dur="36s" repeatCount="indefinite" keyTimes="0;0.4857;0.4917;0.6143;0.6203;1" values="0;0;1;1;0;0"/><line x1="258.6" y1="350.9" x2="258.6" y2="326.7" stroke="#888" stroke-width="1.6" stroke-dasharray="3,2"/><line x1="258.6" y1="326.7" x2="253.3" y2="326.7" stroke="#2c5fa6" stroke-width="2.6" marker-end="url(#ahb)"/></g>
<circle cx="253.3" cy="326.7" r="3.0" fill="#888" opacity="0"><animate attributeName="opacity" dur="36s" repeatCount="indefinite" keyTimes="0;0.4857;0.4917;1" values="0;0;1;1"/></circle>
<circle cx="253.3" cy="326.7" r="5.0" fill="#d9822b" stroke="#fff" stroke-width="1.5" opacity="0"><animate attributeName="opacity" dur="36s" repeatCount="indefinite" keyTimes="0;0.4857;0.4917;0.6143;0.6203;1" values="0;0;1;1;0;0"/></circle>
<g opacity="0"><animate attributeName="opacity" dur="36s" repeatCount="indefinite" keyTimes="0;0.6143;0.6203;0.7429;0.7489;1" values="0;0;1;1;0;0"/><line x1="80.0" y1="117.2" x2="400.0" y2="440.0" stroke="#7a2a1e" stroke-width="2.4"/><line x1="400.0" y1="440.0" x2="439.7" y2="480.0" stroke="#7a2a1e" stroke-width="1.6" stroke-dasharray="5,4"/></g>
<path d="M 160.2,122.5 L 163.0,131.1 L 165.9,139.4 L 168.7,147.4 L 171.6,155.0 L 174.5,162.4 L 177.3,169.4 L 180.2,176.2 L 183.0,182.8 L 185.9,189.1 L 188.8,195.2 L 191.6,201.1 L 194.5,206.8 L 197.4,212.3 L 200.2,217.6 L 203.1,222.7 L 205.9,227.7 L 208.8,232.5 L 211.7,237.2 L 214.5,241.7 L 217.4,246.1 L 220.2,250.4 L 223.1,254.5 L 226.0,258.5 L 228.8,262.4 L 231.7,266.2 L 234.5,269.9 L 237.4,273.5 L 240.3,277.0 L 243.1,280.4 L 246.0,283.7 L 248.9,286.9 L 251.7,290.1 L 254.6,293.2 L 257.4,296.2 L 260.3,299.1 L 263.2,301.9 L 266.0,304.7 L 268.9,307.4 L 271.7,310.1 L 274.6,312.7 L 277.5,315.2 L 280.3,317.7 L 283.2,320.1 L 286.0,322.4 L 288.9,324.8 L 291.8,327.0 L 294.6,329.2 L 297.5,331.4" fill="none" stroke="#2c5fa6" stroke-width="2.2" opacity="0"><animate attributeName="opacity" dur="36s" repeatCount="indefinite" keyTimes="0;0.6143;0.6203;0.7429;0.7489;1" values="0;0;1;1;0;0"/></path>
<g opacity="0"><animate attributeName="opacity" dur="36s" repeatCount="indefinite" keyTimes="0;0.6143;0.6203;0.7429;0.7489;1" values="0;0;1;1;0;0"/><line x1="253.3" y1="326.7" x2="253.3" y2="298.9" stroke="#888" stroke-width="1.6" stroke-dasharray="3,2"/><line x1="253.3" y1="298.9" x2="260.2" y2="298.9" stroke="#c0392b" stroke-width="2.6" marker-end="url(#ahr)"/></g>
<circle cx="260.2" cy="298.9" r="3.0" fill="#888" opacity="0"><animate attributeName="opacity" dur="36s" repeatCount="indefinite" keyTimes="0;0.6143;0.6203;1" values="0;0;1;1"/></circle>
<circle cx="260.2" cy="298.9" r="5.0" fill="#d9822b" stroke="#fff" stroke-width="1.5" opacity="0"><animate attributeName="opacity" dur="36s" repeatCount="indefinite" keyTimes="0;0.6143;0.6203;0.7429;0.7489;1" values="0;0;1;1;0;0"/></circle>
<g opacity="0"><animate attributeName="opacity" dur="36s" repeatCount="indefinite" keyTimes="0;0.7429;0.7489;0.8714;0.8774;1" values="0;0;1;1;0;0"/><line x1="151.7" y1="80.0" x2="400.0" y2="440.0" stroke="#7a2a1e" stroke-width="2.4"/><line x1="400.0" y1="440.0" x2="427.6" y2="480.0" stroke="#7a2a1e" stroke-width="1.6" stroke-dasharray="5,4"/></g>
<path d="M 204.3,106.7 L 206.7,113.8 L 209.2,120.7 L 211.6,127.5 L 214.0,134.1 L 216.4,140.5 L 218.8,146.7 L 221.2,152.8 L 223.6,158.8 L 226.0,164.6 L 228.4,170.2 L 230.8,175.8 L 233.2,181.2 L 235.6,186.5 L 238.0,191.6 L 240.4,196.7 L 242.8,201.6 L 245.2,206.4 L 247.6,211.1 L 250.0,215.7 L 252.4,220.3 L 254.8,224.7 L 257.2,229.0 L 259.6,233.3 L 262.0,237.4 L 264.4,241.5 L 266.8,245.5 L 269.2,249.4 L 271.6,253.2 L 274.0,257.0 L 276.4,260.7 L 278.8,264.3 L 281.3,267.8 L 283.7,271.3 L 286.1,274.7 L 288.5,278.1 L 290.9,281.4 L 293.3,284.6 L 295.7,287.8 L 298.1,290.9 L 300.5,294.0 L 302.9,297.0 L 305.3,300.0 L 307.7,302.9 L 310.1,305.7 L 312.5,308.5 L 314.9,311.3 L 317.3,314.0 L 319.7,316.7" fill="none" stroke="#2c5fa6" stroke-width="2.2" opacity="0"><animate attributeName="opacity" dur="36s" repeatCount="indefinite" keyTimes="0;0.7429;0.7489;0.8714;0.8774;1" values="0;0;1;1;0;0"/></path>
<g opacity="0"><animate attributeName="opacity" dur="36s" repeatCount="indefinite" keyTimes="0;0.7429;0.7489;0.8714;0.8774;1" values="0;0;1;1;0;0"/><line x1="260.2" y1="298.9" x2="260.2" y2="269.5" stroke="#888" stroke-width="1.6" stroke-dasharray="3,2"/><line x1="260.2" y1="269.5" x2="282.4" y2="269.5" stroke="#c0392b" stroke-width="2.6" marker-end="url(#ahr)"/></g>
<circle cx="282.4" cy="269.5" r="3.0" fill="#888" opacity="0"><animate attributeName="opacity" dur="36s" repeatCount="indefinite" keyTimes="0;0.7429;0.7489;1" values="0;0;1;1"/></circle>
<circle cx="282.4" cy="269.5" r="5.0" fill="#d9822b" stroke="#fff" stroke-width="1.5" opacity="0"><animate attributeName="opacity" dur="36s" repeatCount="indefinite" keyTimes="0;0.7429;0.7489;0.8714;0.8774;1" values="0;0;1;1;0;0"/></circle>
<g opacity="0"><animate attributeName="opacity" dur="36s" repeatCount="indefinite" keyTimes="0;0.8714;0.8774;1.0000;1.0000;1" values="0;0;1;1;0;0"/><line x1="256.0" y1="80.0" x2="400.0" y2="440.0" stroke="#7a2a1e" stroke-width="2.4"/><line x1="400.0" y1="440.0" x2="416.0" y2="480.0" stroke="#7a2a1e" stroke-width="1.6" stroke-dasharray="5,4"/></g>
<path d="M 274.9,106.7 L 276.6,112.6 L 278.3,118.5 L 280.0,124.3 L 281.7,130.0 L 283.5,135.7 L 285.2,141.2 L 286.9,146.7 L 288.6,152.1 L 290.3,157.5 L 292.1,162.8 L 293.8,168.0 L 295.5,173.1 L 297.2,178.2 L 298.9,183.2 L 300.6,188.2 L 302.4,193.1 L 304.1,197.9 L 305.8,202.7 L 307.5,207.4 L 309.2,212.1 L 310.9,216.7 L 312.7,221.2 L 314.4,225.7 L 316.1,230.1 L 317.8,234.5 L 319.5,238.8 L 321.3,243.1 L 323.0,247.4 L 324.7,251.5 L 326.4,255.7 L 328.1,259.8 L 329.8,263.8 L 331.6,267.8 L 333.3,271.8 L 335.0,275.7 L 336.7,279.5 L 338.4,283.4 L 340.2,287.1 L 341.9,290.9 L 343.6,294.6 L 345.3,298.2 L 347.0,301.9 L 348.7,305.4 L 350.5,309.0 L 352.2,312.5 L 353.9,316.0 L 355.6,319.4 L 357.3,322.8" fill="none" stroke="#2c5fa6" stroke-width="2.2" opacity="0"><animate attributeName="opacity" dur="36s" repeatCount="indefinite" keyTimes="0;0.8714;0.8774;1.0000;1.0000;1" values="0;0;1;1;0;0"/></path>
<g opacity="0"><animate attributeName="opacity" dur="36s" repeatCount="indefinite" keyTimes="0;0.8714;0.8774;1.0000;1.0000;1" values="0;0;1;1;0;0"/><line x1="282.4" y1="269.5" x2="282.4" y2="240.0" stroke="#888" stroke-width="1.6" stroke-dasharray="3,2"/><line x1="282.4" y1="240.0" x2="320.0" y2="240.0" stroke="#c0392b" stroke-width="2.6" marker-end="url(#ahr)"/></g>
<circle cx="320.0" cy="240.0" r="3.0" fill="#888" opacity="0"><animate attributeName="opacity" dur="36s" repeatCount="indefinite" keyTimes="0;0.8714;0.8774;1" values="0;0;1;1"/></circle>
<circle cx="320.0" cy="240.0" r="5.0" fill="#d9822b" stroke="#fff" stroke-width="1.5" opacity="0"><animate attributeName="opacity" dur="36s" repeatCount="indefinite" keyTimes="0;0.8714;0.8774;1.0000;1.0000;1" values="0;0;1;1;0;0"/></circle>
<text x="300" y="30" text-anchor="middle" font-size="13.5" fill="#333" opacity="0"><animate attributeName="opacity" dur="36s" repeatCount="indefinite" keyTimes="0;0.1000;0.1060;0.2286;0.2346;1" values="0;0;1;1;0;0"/>出発点：賃金 w = 0.33（低い）／ 労働 L = 24−ℓ = 6.00</text>
<text x="300" y="48" text-anchor="middle" font-size="12.5" fill="#666" opacity="0"><animate attributeName="opacity" dur="36s" repeatCount="indefinite" keyTimes="0;0.1000;0.1060;0.2286;0.2346;1" values="0;0;1;1;0;0"/>予算線は賦存点 B=(24, s) を軸に回転（破線は ℓ>24 の仮想延長）</text>
<text x="300" y="30" text-anchor="middle" font-size="13.5" fill="#333" opacity="0"><animate attributeName="opacity" dur="36s" repeatCount="indefinite" keyTimes="0;0.2286;0.2346;0.3571;0.3631;1" values="0;0;1;1;0;0"/>賃金 w = 0.48 に上昇　（労働 L = 8.95）</text>
<text x="300" y="48" text-anchor="middle" font-size="13" font-weight="700" fill="#2c5fa6" opacity="0"><animate attributeName="opacity" dur="36s" repeatCount="indefinite" keyTimes="0;0.2286;0.2346;0.3571;0.3631;1" values="0;0;1;1;0;0"/>代替効果が優勢：余暇↓・労働↑</text>
<text x="300" y="30" text-anchor="middle" font-size="13.5" fill="#333" opacity="0"><animate attributeName="opacity" dur="36s" repeatCount="indefinite" keyTimes="0;0.3571;0.3631;0.4857;0.4917;1" values="0;0;1;1;0;0"/>賃金 w = 0.63 に上昇　（労働 L = 10.61）</text>
<text x="300" y="48" text-anchor="middle" font-size="13" font-weight="700" fill="#2c5fa6" opacity="0"><animate attributeName="opacity" dur="36s" repeatCount="indefinite" keyTimes="0;0.3571;0.3631;0.4857;0.4917;1" values="0;0;1;1;0;0"/>代替効果が優勢：余暇↓・労働↑</text>
<text x="300" y="30" text-anchor="middle" font-size="13.5" fill="#333" opacity="0"><animate attributeName="opacity" dur="36s" repeatCount="indefinite" keyTimes="0;0.4857;0.4917;0.6143;0.6203;1" values="0;0;1;1;0;0"/>賃金 w = 0.77 に上昇　（労働 L = 11.00）</text>
<text x="300" y="48" text-anchor="middle" font-size="13" font-weight="700" fill="#2c5fa6" opacity="0"><animate attributeName="opacity" dur="36s" repeatCount="indefinite" keyTimes="0;0.4857;0.4917;0.6143;0.6203;1" values="0;0;1;1;0;0"/>代替効果が優勢：余暇↓・労働↑</text>
<text x="300" y="30" text-anchor="middle" font-size="13.5" fill="#333" opacity="0"><animate attributeName="opacity" dur="36s" repeatCount="indefinite" keyTimes="0;0.6143;0.6203;0.7429;0.7489;1" values="0;0;1;1;0;0"/>賃金 w = 1.01 に上昇　（労働 L = 10.49）</text>
<text x="300" y="48" text-anchor="middle" font-size="13" font-weight="700" fill="#c0392b" opacity="0"><animate attributeName="opacity" dur="36s" repeatCount="indefinite" keyTimes="0;0.6143;0.6203;0.7429;0.7489;1" values="0;0;1;1;0;0"/>所得効果が優勢：余暇↑・労働↓（後方屈曲）</text>
<text x="300" y="30" text-anchor="middle" font-size="13.5" fill="#333" opacity="0"><animate attributeName="opacity" dur="36s" repeatCount="indefinite" keyTimes="0;0.7429;0.7489;0.8714;0.8774;1" values="0;0;1;1;0;0"/>賃金 w = 1.45 に上昇　（労働 L = 8.82）</text>
<text x="300" y="48" text-anchor="middle" font-size="13" font-weight="700" fill="#c0392b" opacity="0"><animate attributeName="opacity" dur="36s" repeatCount="indefinite" keyTimes="0;0.7429;0.7489;0.8714;0.8774;1" values="0;0;1;1;0;0"/>所得効果が優勢：余暇↑・労働↓（後方屈曲）</text>
<text x="300" y="30" text-anchor="middle" font-size="13.5" fill="#333" opacity="0"><animate attributeName="opacity" dur="36s" repeatCount="indefinite" keyTimes="0;0.8714;0.8774;1.0000;1.0000;1" values="0;0;1;1;0;0"/>賃金 w = 2.50 に上昇　（労働 L = 6.00）</text>
<text x="300" y="48" text-anchor="middle" font-size="13" font-weight="700" fill="#c0392b" opacity="0"><animate attributeName="opacity" dur="36s" repeatCount="indefinite" keyTimes="0;0.8714;0.8774;1.0000;1.0000;1" values="0;0;1;1;0;0"/>所得効果が優勢：余暇↑・労働↓（後方屈曲）</text>
</svg>